<svg xmlns="http://www.w3.org/2000/svg" viewBox="0 0 25 25"><defs><style>.cls-1{fill:#231f20;}</style></defs><title>DRBIcons</title><g id="lightbulb"><path class="cls-1" d="M19.49,6.87a7.18,7.18,0,0,1-1,5A11.68,11.68,0,0,0,16.92,18v.36H8v-.13a12.41,12.41,0,0,0-1.65-6.45,7.16,7.16,0,1,1,13.18-4.9Z"/><rect class="cls-1" x="7.61" y="18.35" width="9.64" height="2.71" rx="0.22"/><path class="cls-1" d="M8.21,21.06h8.45a0,0,0,0,1,0,0V22.2a.22.22,0,0,1-.22.22h-8a.22.22,0,0,1-.22-.22V21.06A0,0,0,0,1,8.21,21.06Z"/><path class="cls-1" d="M8.8,22.42h7.27a0,0,0,0,1,0,0v.43a1.23,1.23,0,0,1-1.23,1.23H10A1.23,1.23,0,0,1,8.8,22.85v-.43A0,0,0,0,1,8.8,22.42Z"/><rect class="cls-1" x="20.92" y="7.94" width="4.06" height="1.07" rx="0.2"/><rect class="cls-1" x="19.51" y="13.18" width="4.06" height="1.07" rx="0.2" transform="translate(9.76 -8.94) rotate(30.05)"/><rect class="cls-1" x="19.52" y="2.72" width="4.06" height="1.07" rx="0.2" transform="translate(1.26 11.21) rotate(-30)"/><rect class="cls-1" x="0.03" y="7.96" width="4.06" height="1.07" rx="0.2" transform="translate(4.11 16.98) rotate(-180)"/><rect class="cls-1" x="1.43" y="13.19" width="4.06" height="1.07" rx="0.2" transform="translate(13.33 23.87) rotate(149.95)"/><rect class="cls-1" x="1.43" y="2.73" width="4.06" height="1.07" rx="0.2" transform="translate(4.82 7.82) rotate(-150)"/></g></svg>