<svg xmlns="http://www.w3.org/2000/svg" viewBox="0 0 25 25"><defs><style>.cls-1{fill:#231f20;}</style></defs><title>DRBIcons</title><g id="plus"><path class="cls-1" d="M19.92,11.21H13.73V5a.84.84,0,0,0-.83-.84H7.8A.84.84,0,0,0,7,5v6.18H.78A.83.83,0,0,0,0,12v5.11A.83.83,0,0,0,.78,18H7v6.19A.83.83,0,0,0,7.8,25h5.1a.83.83,0,0,0,.83-.83V18h6.19a.83.83,0,0,0,.83-.83V12A.83.83,0,0,0,19.92,11.21Z"/><path class="cls-1" d="M24.63,2.89H22.08V.34A.34.34,0,0,0,21.74,0H19.63a.34.34,0,0,0-.34.34V2.89H16.74a.35.35,0,0,0-.35.35v2.1a.35.35,0,0,0,.35.34h2.55V8.24a.34.34,0,0,0,.34.34h2.11a.34.34,0,0,0,.34-.34V5.68h2.55A.34.34,0,0,0,25,5.34V3.24A.35.35,0,0,0,24.63,2.89Z"/></g></svg>