<?xml version="1.0" encoding="UTF-8"?><svg id="Layer_2" xmlns="http://www.w3.org/2000/svg" viewBox="0 0 560 387.4"><defs><style>.cls-1{letter-spacing:-.01em;}.cls-2{letter-spacing:-.01em;}.cls-3{letter-spacing:-.02em;}.cls-4{letter-spacing:0em;}.cls-5{letter-spacing:-.02em;}.cls-6{letter-spacing:-.02em;}.cls-7{letter-spacing:-.09em;}.cls-8{letter-spacing:-.03em;}.cls-9{letter-spacing:-.03em;}.cls-10{letter-spacing:-.01em;}.cls-11,.cls-12,.cls-13{fill:#fff;}.cls-14{fill:#d1d3d4;}.cls-15{fill:#d76a43;}.cls-16{fill:#414042;}.cls-17{fill:#11375c;}.cls-18{fill:#058ab4;}.cls-19{fill:#0d6b90;}.cls-20{fill:#5576ba;}.cls-21{fill:#37a8a8;}.cls-22{fill:#764b80;}.cls-23{letter-spacing:-.01em;}.cls-24{letter-spacing:-.02em;}.cls-25{letter-spacing:-.02em;}.cls-26{letter-spacing:0em;}.cls-27{letter-spacing:-.03em;}.cls-28{letter-spacing:0em;}.cls-29{letter-spacing:-.02em;}.cls-30{letter-spacing:0em;}.cls-31{letter-spacing:-.02em;}.cls-32{letter-spacing:-.02em;}.cls-12{font-size:10px;}.cls-12,.cls-13{font-family:D-DINCondensed-Bold, 'D-DIN Condensed';font-weight:700;}.cls-33{letter-spacing:-.05em;}.cls-34{letter-spacing:0em;}.cls-35{stroke-miterlimit:10;}.cls-35,.cls-36{fill:none;stroke:#414042;stroke-width:2px;}.cls-37{letter-spacing:-.01em;}.cls-38{letter-spacing:0em;}.cls-39{letter-spacing:-.05em;}.cls-40{letter-spacing:-.02em;}.cls-41{letter-spacing:0em;}.cls-42{letter-spacing:0em;}.cls-43{letter-spacing:-.01em;}.cls-44{letter-spacing:-.02em;}.cls-36{stroke-linejoin:round;}.cls-13{font-size:12px;}.cls-45{letter-spacing:-.02em;}.cls-46{letter-spacing:-.03em;}</style></defs><g><path class="cls-11" d="m12.68,376.85c-1.21,0-2.19-.98-2.19-2.19v-134.06h263.96v134.06c0,1.21-.98,2.19-2.19,2.19H12.68Z"/><path class="cls-14" d="m273.89,241.15v133.5c0,.9-.74,1.64-1.64,1.64H12.68c-.9,0-1.64-.74-1.64-1.64v-133.5h262.86m1.1-1.1H9.93v134.61c0,1.52,1.23,2.74,2.74,2.74h259.58c1.52,0,2.74-1.23,2.74-2.74v-134.61h0Z"/></g><g><path class="cls-11" d="m288.02,376.85c-1.21,0-2.19-.98-2.19-2.19v-134.06h263.69v134.06c0,1.21-.98,2.19-2.19,2.19h-259.3Z"/><path class="cls-14" d="m548.96,241.15v133.51c0,.9-.74,1.64-1.64,1.64h-259.31c-.9,0-1.64-.74-1.64-1.64v-133.51h262.58m1.1-1.1h-264.79v134.61c0,1.51,1.23,2.74,2.74,2.74h259.31c1.52,0,2.74-1.23,2.74-2.74v-134.61h0Z"/></g><g><path class="cls-11" d="m12.93,220.67c-1.33,0-2.41-1.08-2.41-2.41V22.39h167.34v195.88c0,1.33-1.08,2.41-2.41,2.41H12.93Z"/><path class="cls-14" d="m177.28,22.98v195.29c0,1-.82,1.82-1.82,1.82H12.93c-1,0-1.82-.82-1.82-1.82V22.98h166.16m1.18-1.18H9.93v196.46c0,1.66,1.34,3,3,3h162.52c1.66,0,3-1.34,3-3V21.8h0Z"/></g><g><path class="cls-11" d="m191.54,220.67c-1.33,0-2.41-1.08-2.41-2.41V19.55h360.27v198.71c0,1.33-1.08,2.41-2.41,2.41H191.54Z"/><path class="cls-14" d="m548.81,20.14v198.12c0,1-.81,1.81-1.81,1.81H191.54c-1,0-1.81-.81-1.81-1.81V20.14h359.08m1.19-1.19H188.54v199.31c0,1.66,1.34,3,3,3h355.46c1.66,0,3-1.34,3-3V18.96h0Z"/></g><g><path class="cls-11" d="m201.54,210.67c-1.33,0-2.41-1.08-2.41-2.41V51.82h340.19v156.44c0,1.33-1.08,2.41-2.41,2.41H201.54Z"/><path class="cls-14" d="m538.73,52.42v155.85c0,1-.81,1.81-1.81,1.81H201.54c-1,0-1.81-.81-1.81-1.81V52.42h339m1.19-1.19H198.54v157.04c0,1.66,1.34,3,3,3h335.38c1.66,0,3-1.34,3-3V51.23h0Z"/></g><path class="cls-20" d="m12.93,9.99h162.52c1.66,0,3,1.34,3,3v15.37H9.93v-15.37c0-1.66,1.34-3,3-3Z"/><path class="cls-20" d="m191.54,9.99h355.46c1.66,0,3,1.34,3,3v15.37H188.54v-15.37c0-1.66,1.34-3,3-3Z"/><path class="cls-20" d="m12.93,231.26h259.07c1.66,0,3,1.34,3,3v15.37H9.93v-15.37c0-1.66,1.34-3,3-3Z"/><path class="cls-20" d="m288,231.26h259.07c1.66,0,3,1.34,3,3v15.37h-265.07v-15.37c0-1.66,1.34-3,3-3Z"/><path class="cls-22" d="m201.54,38.78h335.38c1.66,0,3,1.34,3,3v15.37H198.54v-15.37c0-1.66,1.34-3,3-3Z"/><text class="cls-13" transform="translate(50.3 22.95)"><tspan x="0" y="0">I</tspan><tspan class="cls-2" x="2.57" y="0">n</tspan><tspan class="cls-25" x="7.37" y="0">t</tspan><tspan class="cls-34" x="10.78" y="0">eg</tspan><tspan class="cls-23" x="20.63" y="0">r</tspan><tspan class="cls-42" x="24.12" y="0">a</tspan><tspan class="cls-31" x="28.86" y="0">t</tspan><tspan x="32.27" y="0">ed Obje</tspan><tspan class="cls-5" x="62.16" y="0">c</tspan><tspan x="66.8" y="0">t</tspan><tspan class="cls-44" x="70.43" y="0">i</tspan><tspan class="cls-3" x="72.72" y="0">v</tspan><tspan x="77.39" y="0">es</tspan></text><text class="cls-13" transform="translate(96.63 244.56)"><tspan x="0" y="0">D</tspan><tspan class="cls-2" x="5.56" y="0">a</tspan><tspan class="cls-44" x="10.3" y="0">t</tspan><tspan class="cls-28" x="13.74" y="0">a </tspan><tspan class="cls-39" x="20.7" y="0">T</tspan><tspan x="24.53" y="0">heme Obje</tspan><tspan class="cls-5" x="66.81" y="0">c</tspan><tspan class="cls-34" x="71.46" y="0">t</tspan><tspan class="cls-44" x="75.08" y="0">i</tspan><tspan class="cls-5" x="77.37" y="0">v</tspan><tspan class="cls-34" x="82.04" y="0">es</tspan></text><text class="cls-13" transform="translate(342.85 244.56)"><tspan x="0" y="0">I</tspan><tspan class="cls-2" x="2.57" y="0">n</tspan><tspan class="cls-25" x="7.37" y="0">t</tspan><tspan class="cls-34" x="10.78" y="0">eg</tspan><tspan class="cls-23" x="20.63" y="0">r</tspan><tspan class="cls-2" x="24.12" y="0">a</tspan><tspan class="cls-25" x="28.86" y="0">t</tspan><tspan x="32.27" y="0">ed D</tspan><tspan class="cls-3" x="49.78" y="0">ev</tspan><tspan x="59.14" y="0">elopme</tspan><tspan class="cls-2" x="89.19" y="0">n</tspan><tspan x="93.99" y="0">t </tspan><tspan class="cls-29" x="99.72" y="0">F</tspan><tspan class="cls-34" x="103.87" y="0">ocus </tspan><tspan class="cls-30" x="125.41" y="0">A</tspan><tspan class="cls-42" x="131.31" y="0">r</tspan><tspan x="134.87" y="0">eas</tspan></text><text class="cls-13" transform="translate(328.65 23.34)"><tspan x="0" y="0">Sha</tspan><tspan class="cls-42" x="14.89" y="0">r</tspan><tspan x="18.44" y="0">ed Compone</tspan><tspan class="cls-2" x="68.11" y="0">n</tspan><tspan x="72.91" y="0">ts</tspan></text><rect class="cls-15" x="20.35" y="40.08" width="147.59" height="22.9" rx="3.07" ry="3.07"/><rect class="cls-19" x="20.35" y="259.64" width="244.72" height="22.9" rx="3.95" ry="3.95"/><rect class="cls-21" x="20.35" y="68.46" width="147.59" height="22.9" rx="3.07" ry="3.07"/><text class="cls-12" transform="translate(35.26 83.14)"><tspan x="0" y="0">2. WMA D</tspan><tspan class="cls-2" x="31.15" y="0">a</tspan><tspan class="cls-43" x="35.1" y="0">t</tspan><tspan x="37.97" y="0">a G</tspan><tspan class="cls-6" x="48.45" y="0">ov</tspan><tspan x="56.25" y="0">ernance I</tspan><tspan class="cls-43" x="87.74" y="0">n</tspan><tspan class="cls-6" x="91.69" y="0">v</tspan><tspan x="95.58" y="0">e</tspan><tspan class="cls-2" x="99.69" y="0">n</tspan><tspan class="cls-32" x="103.69" y="0">t</tspan><tspan x="106.53" y="0">ory</tspan></text><text class="cls-12" transform="translate(56.05 54.97)"><tspan x="0" y="0">1. Public WMA C</tspan><tspan class="cls-41" x="52.98" y="0">a</tspan><tspan class="cls-40" x="56.93" y="0">t</tspan><tspan class="cls-4" x="59.8" y="0">alog </tspan></text><text class="cls-12" transform="translate(120.78 274.42)"><tspan x="0" y="0">7. </tspan><tspan class="cls-41" x="7.31" y="0">L</tspan><tspan x="10.88" y="0">andscape</tspan></text><rect class="cls-19" x="20.35" y="287.54" width="244.72" height="22.9" rx="3.95" ry="3.95"/><text class="cls-12" transform="translate(112.96 302.24)"><tspan x="0" y="0">8. </tspan><tspan class="cls-38" x="7.6" y="0">R</tspan><tspan class="cls-40" x="12.13" y="0">i</tspan><tspan class="cls-6" x="14.04" y="0">v</tspan><tspan x="17.93" y="0">er Corridors</tspan></text><rect class="cls-19" x="20.35" y="96.37" width="147.59" height="22.9" rx="3.07" ry="3.07"/><text class="cls-12" transform="translate(51.03 111.24)"><tspan x="0" y="0">3. H</tspan><tspan class="cls-6" x="12.09" y="0">y</tspan><tspan x="15.98" y="0">d</tspan><tspan class="cls-2" x="20.08" y="0">r</tspan><tspan x="23.04" y="0">o</tspan><tspan class="cls-6" x="27.15" y="0">f</tspan><tspan class="cls-4" x="29.82" y="0">abric I</tspan><tspan class="cls-2" x="51.05" y="0">n</tspan><tspan class="cls-24" x="55.05" y="0">t</tspan><tspan x="57.89" y="0">eg</tspan><tspan class="cls-43" x="66.1" y="0">r</tspan><tspan class="cls-41" x="69.01" y="0">a</tspan><tspan class="cls-26" x="72.96" y="0">tion</tspan></text><rect class="cls-18" x="20.35" y="124.27" width="147.59" height="22.9" rx="3.07" ry="3.07"/><text class="cls-12" transform="translate(42 139.08)"><tspan x="0" y="0">4. N</tspan><tspan class="cls-2" x="12.51" y="0">a</tspan><tspan x="16.46" y="0">tional </tspan><tspan class="cls-46" x="37.95" y="0">W</tspan><tspan class="cls-41" x="44.42" y="0">a</tspan><tspan class="cls-32" x="48.37" y="0">t</tspan><tspan x="51.21" y="0">er Census Un</tspan><tspan class="cls-2" x="95.41" y="0">i</tspan><tspan x="97.37" y="0">ts</tspan></text><rect class="cls-18" x="20.35" y="152.17" width="147.59" height="22.9" rx="3.07" ry="3.07"/><text class="cls-12" transform="translate(47.35 166.93)"><tspan x="0" y="0">5. N</tspan><tspan class="cls-2" x="12.3" y="0">a</tspan><tspan x="16.25" y="0">tional &amp; </tspan><tspan class="cls-37" x="44.63" y="0">L</tspan><tspan class="cls-4" x="48.16" y="0">ocal Aquifers</tspan></text><rect class="cls-22" x="20.35" y="180.08" width="147.59" height="22.9" rx="3.07" ry="3.07"/><text class="cls-12" transform="translate(24.61 194.85)"><tspan x="0" y="0">6. P</tspan><tspan class="cls-2" x="11.84" y="0">r</tspan><tspan x="14.8" y="0">odu</tspan><tspan class="cls-6" x="27.11" y="0">c</tspan><tspan x="30.98" y="0">tion D</tspan><tspan class="cls-41" x="50.65" y="0">a</tspan><tspan class="cls-40" x="54.6" y="0">t</tspan><tspan class="cls-4" x="57.47" y="0">a &amp; P</tspan><tspan class="cls-2" x="74.5" y="0">r</tspan><tspan x="77.46" y="0">oce</tspan><tspan class="cls-2" x="89.75" y="0">s</tspan><tspan x="93.57" y="0">sing Ser</tspan><tspan class="cls-41" x="120.93" y="0">v</tspan><tspan x="124.92" y="0">ices</tspan></text><text class="cls-12" transform="translate(243.49 51.23)"><tspan class="cls-7" x="0" y="0">F</tspan><tspan class="cls-26" x="2.85" y="0">. D</tspan><tspan class="cls-41" x="10.98" y="0">a</tspan><tspan class="cls-40" x="14.93" y="0">t</tspan><tspan class="cls-4" x="17.8" y="0">a </tspan><tspan class="cls-27" x="23.6" y="0">F</tspan><tspan class="cls-4" x="27.06" y="0">orm</tspan><tspan class="cls-41" x="40.45" y="0">a</tspan><tspan class="cls-26" x="44.4" y="0">ts in Support of I</tspan><tspan class="cls-2" x="100.37" y="0">n</tspan><tspan class="cls-32" x="104.37" y="0">t</tspan><tspan x="107.21" y="0">eg</tspan><tspan class="cls-40" x="115.42" y="0">r</tspan><tspan class="cls-41" x="118.33" y="0">a</tspan><tspan class="cls-32" x="122.28" y="0">t</tspan><tspan x="125.12" y="0">ed </tspan><tspan class="cls-46" x="135.08" y="0">W</tspan><tspan class="cls-41" x="141.55" y="0">a</tspan><tspan class="cls-32" x="145.5" y="0">t</tspan><tspan class="cls-4" x="148.34" y="0">er P</tspan><tspan class="cls-41" x="161.6" y="0">r</tspan><tspan x="164.56" y="0">edi</tspan><tspan class="cls-6" x="174.83" y="0">c</tspan><tspan x="178.7" y="0">tion &amp; Del</tspan><tspan class="cls-10" x="211.77" y="0">i</tspan><tspan class="cls-3" x="213.68" y="0">v</tspan><tspan x="217.57" y="0">ery Needs</tspan></text><rect class="cls-15" x="374.23" y="68" width="155.58" height="133.26" rx="3.66" ry="3.66"/><rect class="cls-21" x="209.36" y="68" width="154.91" height="29.68" rx="2.53" ry="2.53"/><rect class="cls-19" x="209.36" y="102.79" width="154.91" height="29.49" rx="2.52" ry="2.52"/><text class="cls-12" transform="translate(238.46 80.22)"><tspan x="0" y="0">B. P</tspan><tspan class="cls-41" x="12.4" y="0">r</tspan><tspan x="15.36" y="0">oje</tspan><tspan class="cls-6" x="25.64" y="0">c</tspan><tspan class="cls-26" x="29.51" y="0">t D</tspan><tspan class="cls-41" x="38.91" y="0">a</tspan><tspan class="cls-40" x="42.86" y="0">t</tspan><tspan class="cls-4" x="45.73" y="0">a Manageme</tspan><tspan class="cls-2" x="87.98" y="0">n</tspan><tspan x="91.98" y="0">t </tspan><tspan x="11.36" y="12">G</tspan><tspan class="cls-6" x="16.04" y="12">ov</tspan><tspan x="23.84" y="12">ernance I</tspan><tspan class="cls-43" x="55.33" y="12">n</tspan><tspan class="cls-6" x="59.28" y="12">v</tspan><tspan x="63.17" y="12">e</tspan><tspan class="cls-2" x="67.28" y="12">n</tspan><tspan class="cls-32" x="71.28" y="12">t</tspan><tspan x="74.12" y="12">ory</tspan></text><text class="cls-12" transform="translate(236.71 114.75)"><tspan x="0" y="0">C. </tspan><tspan class="cls-2" x="8.18" y="0">R</tspan><tspan x="12.68" y="0">eusable I</tspan><tspan class="cls-2" x="43.36" y="0">n</tspan><tspan class="cls-32" x="47.36" y="0">t</tspan><tspan x="50.2" y="0">eg</tspan><tspan class="cls-43" x="58.41" y="0">r</tspan><tspan class="cls-2" x="61.32" y="0">a</tspan><tspan class="cls-24" x="65.27" y="0">t</tspan><tspan x="68.11" y="0">ed Model </tspan><tspan x="15.18" y="12">D</tspan><tspan class="cls-41" x="19.81" y="12">a</tspan><tspan class="cls-40" x="23.76" y="12">t</tspan><tspan class="cls-4" x="26.63" y="12">a </tspan><tspan class="cls-45" x="32.43" y="12">W</tspan><tspan x="39" y="12">orkfl</tspan><tspan class="cls-6" x="55.63" y="12">o</tspan><tspan x="59.54" y="12">w </tspan><tspan class="cls-33" x="67.38" y="12">T</tspan><tspan x="70.52" y="12">ools</tspan></text><text class="cls-12" transform="translate(406.82 138.05)"><tspan x="0" y="0">A. WMA I</tspan><tspan class="cls-2" x="29.54" y="0">n</tspan><tspan class="cls-32" x="33.54" y="0">t</tspan><tspan class="cls-4" x="36.38" y="0">eg</tspan><tspan class="cls-43" x="44.59" y="0">r</tspan><tspan class="cls-41" x="47.5" y="0">a</tspan><tspan class="cls-32" x="51.45" y="0">t</tspan><tspan x="54.29" y="0">ed C</tspan><tspan class="cls-2" x="68.93" y="0">a</tspan><tspan class="cls-43" x="72.88" y="0">t</tspan><tspan x="75.75" y="0">alog</tspan></text><rect class="cls-22" x="209.36" y="137.4" width="154.91" height="29.37" rx="2.52" ry="2.52"/><rect class="cls-18" x="209.36" y="171.89" width="154.91" height="29.37" rx="2.52" ry="2.52"/><rect class="cls-19" x="20.35" y="315.44" width="244.72" height="22.9" rx="3.95" ry="3.95"/><rect class="cls-15" x="295.44" y="259.64" width="244.72" height="31.02" rx="4.6" ry="4.6"/><rect class="cls-19" x="295.44" y="297.43" width="244.72" height="31.02" rx="4.6" ry="4.6"/><rect class="cls-22" x="295.44" y="335.23" width="244.72" height="31.02" rx="4.6" ry="4.6"/><text class="cls-12" transform="translate(115.45 330.15)"><tspan x="0" y="0">9. H</tspan><tspan class="cls-6" x="12.1" y="0">y</tspan><tspan class="cls-26" x="15.99" y="0">d</tspan><tspan class="cls-41" x="20.09" y="0">r</tspan><tspan x="23.05" y="0">ogeolo</tspan><tspan class="cls-40" x="45.99" y="0">g</tspan><tspan class="cls-4" x="49.94" y="0">y</tspan></text><rect class="cls-17" x="20.35" y="343.35" width="244.72" height="22.9" rx="3.95" ry="3.95"/><text class="cls-12" transform="translate(108.49 358.05)"><tspan x="0" y="0">10. </tspan><tspan class="cls-2" x="10.52" y="0">R</tspan><tspan class="cls-4" x="15.02" y="0">efe</tspan><tspan class="cls-2" x="26.11" y="0">r</tspan><tspan class="cls-4" x="29.07" y="0">ence </tspan><tspan class="cls-8" x="47.21" y="0">F</tspan><tspan x="50.62" y="0">abric</tspan></text><text class="cls-12" transform="translate(227.19 149.44)"><tspan x="0" y="0">D. Cloud Ho</tspan><tspan class="cls-6" x="37.98" y="0">s</tspan><tspan class="cls-26" x="41.7" y="0">ting Pl</tspan><tspan class="cls-41" x="63.47" y="0">a</tspan><tspan x="67.42" y="0">tform for WMA </tspan><tspan x="18.63" y="12">&amp; P</tspan><tspan class="cls-41" x="29.86" y="12">r</tspan><tspan x="32.82" y="12">oce</tspan><tspan class="cls-41" x="45.11" y="12">s</tspan><tspan x="48.93" y="12">sing </tspan><tspan class="cls-1" x="64.86" y="12">R</tspan><tspan class="cls-4" x="69.36" y="12">esou</tspan><tspan class="cls-41" x="85.6" y="12">r</tspan><tspan x="88.56" y="12">ces</tspan></text><text class="cls-12" transform="translate(229.43 189.87)"><tspan x="0" y="0">E. </tspan><tspan class="cls-1" x="7.25" y="0">R</tspan><tspan class="cls-4" x="11.75" y="0">efe</tspan><tspan class="cls-41" x="22.84" y="0">r</tspan><tspan x="25.8" y="0">ence </tspan><tspan class="cls-9" x="43.94" y="0">F</tspan><tspan x="47.35" y="0">abric D</tspan><tspan class="cls-2" x="71.07" y="0">a</tspan><tspan class="cls-43" x="75.02" y="0">t</tspan><tspan x="77.89" y="0">a </tspan><tspan class="cls-2" x="83.69" y="0">R</tspan><tspan x="88.19" y="0">eleases</tspan></text><g><line class="cls-35" x1="178.45" y1="121.53" x2="183.52" y2="121.53"/><polygon class="cls-16" points="182.5 125.02 188.54 121.53 182.5 118.04 182.5 125.02"/></g><g><line class="cls-35" x1="364.27" y1="117.54" x2="369.21" y2="117.54"/><polygon class="cls-16" points="368.19 121.03 374.23 117.54 368.19 114.05 368.19 121.03"/></g><g><line class="cls-35" x1="364.27" y1="83.2" x2="369.21" y2="83.2"/><polygon class="cls-16" points="368.19 86.69 374.23 83.2 368.19 79.7 368.19 86.69"/></g><g><line class="cls-35" x1="364.27" y1="152.09" x2="369.21" y2="152.09"/><polygon class="cls-16" points="368.19 155.58 374.23 152.09 368.19 148.6 368.19 155.58"/></g><g><line class="cls-35" x1="364.27" y1="186.58" x2="369.21" y2="186.58"/><polygon class="cls-16" points="368.19 190.07 374.23 186.58 368.19 183.09 368.19 190.07"/></g><text class="cls-12" transform="translate(404.73 278.32)"><tspan x="0" y="0">C</tspan><tspan class="cls-41" x="4.68" y="0">a</tspan><tspan class="cls-43" x="8.63" y="0">t</tspan><tspan x="11.5" y="0">alog</tspan></text><text class="cls-12" transform="translate(379 316.42)"><tspan x="0" y="0">Domain Soft</tspan><tspan class="cls-6" x="41.18" y="0">w</tspan><tspan x="47.07" y="0">a</tspan><tspan class="cls-2" x="51.12" y="0">r</tspan><tspan class="cls-4" x="54.08" y="0">e </tspan><tspan class="cls-33" x="59.94" y="0">T</tspan><tspan x="63.08" y="0">ools</tspan></text><text class="cls-12" transform="translate(377.23 354.13)"><tspan x="0" y="0">E</tspan><tspan class="cls-2" x="3.75" y="0">n</tspan><tspan class="cls-32" x="7.75" y="0">t</tspan><tspan x="10.59" y="0">erpr</tspan><tspan class="cls-2" x="24.92" y="0">i</tspan><tspan x="26.88" y="0">se D</tspan><tspan class="cls-6" x="41.29" y="0">ev</tspan><tspan x="49.09" y="0">elopme</tspan><tspan class="cls-2" x="74.14" y="0">n</tspan><tspan x="78.14" y="0">t</tspan></text><g><line class="cls-35" x1="275" y1="322.1" x2="280.25" y2="322.1"/><polygon class="cls-16" points="279.23 325.59 285.27 322.1 279.23 318.61 279.23 325.59"/></g><g><polyline class="cls-36" points="20.35 107.82 15.17 107.82 15.17 226.24"/><polygon class="cls-16" points="11.68 225.22 15.17 231.26 18.66 225.22 11.68 225.22"/></g><line class="cls-35" x1="20.35" y1="135.72" x2="15.17" y2="135.72"/><line class="cls-35" x1="20.35" y1="163.63" x2="15.17" y2="163.63"/></svg>