<?xml version="1.0" encoding="utf-8"?>
<!-- Generator: Adobe Illustrator 24.0.0, SVG Export Plug-In . SVG Version: 6.00 Build 0)  -->
<svg version="1.1" xmlns="http://www.w3.org/2000/svg" xmlns:xlink="http://www.w3.org/1999/xlink" x="0px" y="0px"
	 viewBox="0 0 1019.6 721.5" style="enable-background:new 0 0 1019.6 721.5;" xml:space="preserve">
<style type="text/css">
	.st0{fill:#0073A1;}
	.st1{fill:#657272;}
	.st2{fill:#017F67;}
	.st3{fill:#73317B;}
	.st4{fill:#2494D2;}
	.st5{fill:#91A5A6;}
	.st6{fill:#30BA99;}
	.st7{fill:#994D9D;}
	.st8{fill:#FFFFFF;}
	.st9{fill:none;stroke:#FFFFFF;stroke-width:3;stroke-miterlimit:10;}
	.st10{fill:#D15627;}
	.st11{fill:#EC974D;}
	.st12{font-family:'Calibri-Bold';}
	.st13{font-size:24px;}
	.st14{fill:none;}
	.st15{font-family:'Calibri';}
	.st16{font-size:18px;}
</style>
<g id="shapes">
	<rect y="144.3" class="st2" width="1019.6" height="144.3"/>
	<rect y="288.6" class="st1" width="1019.6" height="144.3"/>
	<rect y="0.1" class="st0" width="1019.6" height="144.3"/>
	<rect y="577.2" class="st3" width="1019.6" height="144.3"/>
	<rect y="144.3" class="st6" width="144.3" height="144.3"/>
	<rect y="288.6" class="st5" width="144.3" height="144.3"/>
	<rect y="0.1" class="st4" width="144.3" height="144.3"/>
	<path class="st2" d="M103.5,166.2H40.8c-10.4,0-18.8,8.4-18.8,18.8v62.8c0,10.4,8.4,18.8,18.8,18.8h62.8c10.4,0,18.8-8.4,18.8-18.8
		v-62.8C122.4,174.7,113.9,166.2,103.5,166.2z"/>
	<rect y="432.9" class="st10" width="1019.6" height="144.3"/>
	<rect y="432.9" class="st11" width="144.3" height="144.3"/>
	<path class="st10" d="M103.5,454.8H40.8c-10.4,0-18.8,8.4-18.8,18.8v62.8c0,10.4,8.4,18.8,18.8,18.8h62.8
		c10.4,0,18.8-8.4,18.8-18.8v-62.8C122.4,463.3,113.9,454.8,103.5,454.8z"/>
	<path class="st1" d="M103.5,310.5H40.8c-10.4,0-18.8,8.4-18.8,18.8v62.8c0,10.4,8.4,18.8,18.8,18.8h62.8c10.4,0,18.8-8.4,18.8-18.8
		v-62.8C122.4,319,113.9,310.5,103.5,310.5z"/>
	<path class="st0" d="M102.7,22H39.9c-10.4,0-18.8,8.4-18.8,18.8v62.8c0,10.4,8.4,18.8,18.8,18.8h62.8c10.4,0,18.8-8.4,18.8-18.8
		V40.8C121.5,30.4,113.1,22,102.7,22z"/>
	<rect x="0" y="577.2" class="st7" width="144.3" height="144.3"/>
	<path class="st3" d="M103.5,599.9H40.8c-10.4,0-18.8,8.4-18.8,18.8v62.8c0,10.4,8.4,18.8,18.8,18.8h62.8c10.4,0,18.8-8.4,18.8-18.8
		v-62.8C122.4,608.4,113.9,599.9,103.5,599.9z"/>
	<g>
		<path class="st8" d="M100.3,82.6c-5.1-5.1-13.5-5.1-18.6,0c-5.1,5.1-5.1,13.5,0,18.6L100.3,82.6z"/>
		
			<rect x="94.5" y="90.2" transform="matrix(0.7071 -0.7071 0.7071 0.7071 -39.9792 95.247)" class="st8" width="0.9" height="11.3"/>
		<circle class="st8" cx="99" cy="99.9" r="1.1"/>
		<rect x="76.5" y="76.1" transform="matrix(0.7071 -0.7071 0.7071 0.7071 -33.3564 79.2582)" class="st8" width="5" height="7.6"/>
		
			<rect x="69.9" y="74.1" transform="matrix(0.7071 -0.7071 0.7071 0.7071 -32.7661 77.8332)" class="st8" width="15.3" height="8.6"/>
		
			<rect x="65.1" y="67.8" transform="matrix(0.7071 -0.7071 0.7071 0.7071 -30.1857 71.6036)" class="st8" width="12.6" height="9"/>
		
			<rect x="58.8" y="65.9" transform="matrix(0.7071 -0.7071 0.7071 0.7071 -28.3325 67.1296)" class="st8" width="16.1" height="3.7"/>
		<g>
			
				<rect x="75.2" y="64" transform="matrix(0.7071 -0.7071 0.7071 0.7071 -24.3507 73.9873)" class="st8" width="3.9" height="4.8"/>
			
				<rect x="72.8" y="42.7" transform="matrix(0.7071 -0.7071 0.7071 0.7071 -9.1264 80.2935)" class="st8" width="39.2" height="16.9"/>
			
				<rect x="63.5" y="75.6" transform="matrix(-0.7071 0.7071 -0.7071 -0.7071 166.9747 86.9051)" class="st8" width="3.9" height="4.8"/>
			
				<rect x="30.7" y="84.8" transform="matrix(-0.7071 0.7071 -0.7071 -0.7071 151.7504 123.6598)" class="st8" width="39.2" height="16.9"/>
		</g>
		
			<rect x="55.6" y="57.5" transform="matrix(0.7071 -0.7071 0.7071 0.7071 -26.2638 62.1353)" class="st8" width="12.6" height="10.4"/>
	</g>
	<g>
		<path class="st8" d="M108,669.5H36.3v-40.9c0-2.2,1.8-3.9,3.9-3.9h63.9c2.2,0,3.9,1.8,3.9,3.9V669.5z"/>
		<rect x="39.2" y="627.7" class="st3" width="65.9" height="39.6"/>
		<path class="st8" d="M111.2,675.5h-78c-3,0-5.4-2.4-5.4-5.4v-0.6h88.9v0.6C116.6,673.1,114.2,675.5,111.2,675.5z"/>
		<path class="st3" d="M79,671.6H65.3c-1.2,0-2.1-1-2.1-2.1l0,0h18l0,0C81.1,670.7,80.2,671.6,79,671.6z"/>
		<g>
			<path class="st8" d="M113.8,675.5h-13.7c-1.5,0-2.8-1.2-2.8-2.8v-33.2c0-1.5,1.2-2.8,2.8-2.8h13.7c1.5,0,2.8,1.2,2.8,2.8v33.2
				C116.6,674.3,115.3,675.5,113.8,675.5z"/>
			<rect x="98.1" y="640.9" class="st3" width="17.8" height="29.2"/>
			<path class="st3" d="M108.9,639.5H105c-0.1,0-0.2-0.1-0.2-0.2l0,0c0-0.1,0.1-0.2,0.2-0.2h3.9c0.1,0,0.2,0.1,0.2,0.2l0,0
				C109.2,639.4,109.1,639.5,108.9,639.5z"/>
			<g>
				<circle class="st3" cx="107" cy="672.3" r="1.5"/>
				<circle class="st3" cx="107" cy="672.3" r="1.2"/>
			</g>
		</g>
	</g>
	<g>
		<g>
			<rect x="32.1" y="379.8" class="st8" width="22.3" height="18.1"/>
			<rect x="60.8" y="368.6" class="st8" width="22.3" height="29.3"/>
			<rect x="89.9" y="350.5" class="st8" width="22.3" height="47.4"/>
		</g>
		<g>
			<g>
				<polyline class="st9" points="32.1,373.6 60.8,347.3 71.9,360.4 104.3,330.8 				"/>
				<g>
					<polygon class="st8" points="104.9,335 112.2,323.6 100.2,329.8 					"/>
				</g>
			</g>
		</g>
	</g>
	<g>
		<path class="st8" d="M97.1,225.8c0,20.1-12.6,30-24.9,30s-24.9-9.9-24.9-30s24.9-48.7,24.9-48.7S97.1,205.6,97.1,225.8z"/>
	</g>
</g>
<g id="Text">
	<text transform="matrix(1 0 0 1 164.3737 210.4283)" class="st8 st12 st13">Understand</text>
	<rect x="164.4" y="225.4" class="st14" width="770" height="16.1"/>
	<text transform="matrix(1 0 0 1 164.3733 237.632)" class="st8 st15 st16">Advance understanding of processes that determine water availability.</text>
	<text transform="matrix(1 0 0 1 164.3197 499.1557)" class="st8 st12 st13">Support</text>
	<rect x="164.3" y="514.2" class="st14" width="770" height="14.6"/>
	<text transform="matrix(1 0 0 1 164.3195 526.3596)" class="st8 st15 st16">Anticipate and respond to water-related emergencies and conflicts.</text>
	<g>
		<text transform="matrix(1 0 0 1 164.3737 342.3083)" class="st8 st12 st13">Predict</text>
	</g>
	<g>
		<rect x="164.4" y="357.3" class="st14" width="770" height="39.4"/>
		<text transform="matrix(1 0 0 1 164.3733 369.5099)"><tspan x="0" y="0" class="st8 st15 st16">Predict future changes in the amount and quality of water in response to changing climate, population, </tspan><tspan x="0" y="24" class="st8 st15 st16">land use, and water management.</tspan></text>
	</g>
	<g>
		<text transform="matrix(1 0 0 1 164.3737 56.1663)" class="st8 st12 st13">Observe</text>
	</g>
	<g>
		<rect x="164.4" y="68.4" class="st14" width="770" height="39"/>
		<text transform="matrix(1 0 0 1 164.3733 80.6413)"><tspan x="0" y="0" class="st8 st15 st16">Provide Society the information it needs regarding the amount and quality of water in all components of </tspan><tspan x="0" y="24" class="st8 st15 st16">the water cycle at high temporal and spatial resolution, nationwide.</tspan></text>
	</g>
	<g>
		<text transform="matrix(1 0 0 1 164.3737 633.4341)" class="st8 st12 st13">Deliver</text>
	</g>
	<g>
		<rect x="164.4" y="647.5" class="st14" width="770" height="38.6"/>
		<text transform="matrix(1 0 0 1 164.3733 659.7528)"><tspan x="0" y="0" class="st8 st15 st16">Deliver timely hydrologic data, analysis, and decision-support tools seamlessly across the nation to </tspan><tspan x="0" y="24" class="st8 st15 st16">support water resource decisions. </tspan></text>
	</g>
	<g>
		<g>
			<rect x="41" y="489.7" class="st8" width="60.6" height="40.5"/>
			<polygon class="st8" points="105.9,491.5 71.4,465.2 36.7,491.5 			"/>
			<rect x="80.6" y="466.9" class="st8" width="8.6" height="18.9"/>
		</g>
		<g>
			<path class="st10" d="M94,520l-2.7-1.8c-3.7-2.5-8.5-2.4-12.1,0.4l-1.6,1.3c-3.7,2.9-8.9,2.9-12.6,0l-0.9-0.7
				c-3.9-3-9.2-2.9-13,0.3l0,0c-3.6,3-8.6,3.3-12.4,0.7l-8.9-6.1v7.3c0,6,4.7,10.9,10.5,10.9h62.1c5.8,0,10.5-4.9,10.5-10.9v-7.3
				l-6.4,5.4C102.9,522.4,97.9,522.7,94,520z"/>
			<path class="st8" d="M94,524.1l-2.7-1.8c-3.7-2.5-8.5-2.4-12.1,0.4l-1.6,1.3c-3.7,2.9-8.9,2.9-12.6,0l-0.9-0.7
				c-3.9-3-9.2-2.9-13,0.3h0c-3.6,3-8.6,3.3-12.4,0.7l-8.9-6.1v7.3c0,6,4.7,10.9,10.5,10.9h62.1c5.8,0,10.5-4.9,10.5-10.9V518
				l-6.4,5.4C102.9,526.5,97.9,526.7,94,524.1z"/>
			<path class="st10" d="M94,528.2l-2.7-1.8c-3.7-2.5-8.5-2.4-12.1,0.4l-1.6,1.3c-3.7,2.9-8.9,2.9-12.6,0l-0.9-0.7
				c-3.9-3-9.2-2.9-13,0.3h0c-3.6,3-8.6,3.3-12.4,0.7l-8.9-6.1v7.3c0,6,4.7,10.9,10.5,10.9h62.1c5.8,0,10.5-4.9,10.5-10.9v-7.3
				l-6.4,5.4C102.9,530.6,97.9,530.8,94,528.2z"/>
			<path class="st8" d="M94,532.3l-2.7-1.8c-3.7-2.5-8.5-2.4-12.1,0.4l-1.6,1.3c-3.7,2.9-8.9,2.9-12.6,0l-0.9-0.7
				c-3.9-3-9.2-2.9-13,0.3h0c-3.6,3-8.6,3.3-12.4,0.7l-8.9-6.1v7.3c0,6,4.7,10.9,10.5,10.9h62.1c5.8,0,10.5-4.9,10.5-10.9v-7.3
				l-6.4,5.4C102.9,534.7,97.9,534.9,94,532.3z"/>
		</g>
	</g>
</g>
<g id="icons">
</g>
</svg>
