<?xml version="1.0" encoding="utf-8"?>
<!-- Generator: Adobe Illustrator 24.0.0, SVG Export Plug-In . SVG Version: 6.00 Build 0)  -->
<svg version="1.1" id="Layer_1" xmlns="http://www.w3.org/2000/svg" xmlns:xlink="http://www.w3.org/1999/xlink" x="0px" y="0px"
	 viewBox="0 0 144.5 485.1" style="enable-background:new 0 0 144.5 485.1;" xml:space="preserve">
<style type="text/css">
	.st0{fill:#8E4720;}
	.st1{fill:#6A2010;}
	.st2{fill:#C36B37;}
	.st3{fill:#FED215;}
	.st4{fill:#954621;}
	.st5{fill:#53230E;}
	.st6{fill:#FBAF32;}
	.st7{fill:#FFFFFF;}
	.st8{fill:#FFD630;}
	.st9{fill:#D1D3D4;}
	.st10{fill:#E6E7E8;}
	.st11{fill:#F1F2F2;}
	.st12{fill:#BCBEC0;}
	.st13{fill:none;stroke:#414042;stroke-width:5;stroke-miterlimit:10;}
	.st14{fill:#414042;}
	.st15{fill:#577891;}
	.st16{fill:#77A2C3;}
	.st17{fill:#F4C044;}
	.st18{fill:#9FC764;}
	.st19{font-family:'D-DIN-Bold';}
	.st20{font-size:14px;}
</style>
<g>
	<g>
		<g>
			<line class="st13" x1="72.3" y1="113" x2="72.3" y2="160.6"/>
			<g>
				<polygon class="st14" points="64.8,158.4 72.3,171.3 79.7,158.4 				"/>
			</g>
		</g>
	</g>
	<g>
		<g>
			<line class="st13" x1="72.3" y1="280.5" x2="72.3" y2="328.1"/>
			<g>
				<polygon class="st14" points="64.8,325.9 72.3,338.9 79.7,325.9 				"/>
			</g>
		</g>
	</g>
	<g>
		<path class="st0" d="M129.4,113H15.1c-5.5,0-10-4.5-10-10V19.8h134.2V103C139.4,108.5,134.9,113,129.4,113z"/>
		<path class="st1" d="M129.4,109.2H15.1c-5.5,0-10-4.5-10-10v3.7c0,5.5,4.5,10,10,10h114.2c5.5,0,10-4.5,10-10v-3.7
			C139.4,104.8,134.9,109.2,129.4,109.2z"/>
		<path class="st1" d="M135.9,58.1l-33,4.4c-20.4,2.7-41,2.7-61.3,0l-33-4.4c-2-0.3-3.4-2-3.4-4v5c0,2,1.5,3.8,3.4,4l33,4.4
			c20.4,2.7,41,2.7,61.3,0l33-4.4c2-0.3,3.4-2,3.4-4v-5C139.4,56.1,137.9,57.8,135.9,58.1z"/>
		<path class="st2" d="M138.2,60L104,64.4c-21.1,2.7-42.4,2.7-63.5,0L6.4,60c-2-0.3-3.6-2-3.6-4V25.1c0-4.8,4.5-8.6,10-8.6h118.9
			c5.5,0,10,3.9,10,8.6v30.8C141.7,58,140.2,59.7,138.2,60z"/>
		<path class="st3" d="M75.7,75.3h-6.8c-1.1,0-2-0.9-2-2V59.5c0-1.1,0.9-2,2-2h6.8c1.1,0,2,0.9,2,2v13.9
			C77.7,74.4,76.8,75.3,75.7,75.3z"/>
		<path class="st4" d="M99.4,0H45.2c-2.8,0-5,2.2-5,5v11.5h7.1v-5.4c0-2.8,2.2-5,5-5h40c2.8,0,5,2.2,5,5v5.4h7.1V5
			C104.4,2.2,102.1,0,99.4,0z"/>
		<rect x="71.2" y="62.3" class="st5" width="2.1" height="8.2"/>
	</g>
	<g>
		<path class="st15" d="M135.9,181.6l-55.7,0.2c-2.8,0-5.5-1-7.6-2.8l-11.5-10.1c-2.6-2.3-5.9-3.5-9.3-3.5H10.5
			c-5.7,0-10.3,4.6-10.3,10.3v32.4h144V190C144.3,185.4,140.5,181.6,135.9,181.6z"/>
		<path class="st7" d="M130,193H14.5c-2.8,0-5,2.2-5,5v6.9H135V198C135,195.3,132.8,193,130,193z"/>
		<path class="st16" d="M139.5,280.5H5c-2.8,0-5-2.2-5-5V210c0-2.8,2.2-5,5-5h134.5c2.8,0,5,2.2,5,5v65.6
			C144.5,278.3,142.3,280.5,139.5,280.5z"/>
	</g>
	<path class="st17" d="M137.4,145.7H7.1c-1.1,0-2-0.9-2-2v-17.2c0-1.1,0.9-2,2-2h130.2c1.1,0,2,0.9,2,2v17.2
		C139.4,144.8,138.5,145.7,137.4,145.7z"/>
	<path class="st18" d="M137.5,485.1H7.3c-1.1,0-2-0.9-2-2v-17.2c0-1.1,0.9-2,2-2h130.2c1.1,0,2,0.9,2,2v17.2
		C139.5,484.2,138.6,485.1,137.5,485.1z"/>
	<g>
		<path class="st9" d="M58,348.6h56.9c1.4,0,2.6,1.2,2.6,2.6v98c0,1.4-1.2,2.6-2.6,2.6H39.4c-1.4,0-2.6-1.2-2.6-2.6v-79.5L58,348.6z
			"/>
		<path class="st10" d="M53.1,343.7H110c1.4,0,2.6,1.2,2.6,2.6v98c0,1.4-1.2,2.6-2.6,2.6H34.6c-1.4,0-2.6-1.2-2.6-2.6v-79.5
			L53.1,343.7z"/>
		<g>
			<path class="st11" d="M48.2,338.9h56.9c1.4,0,2.6,1.2,2.6,2.6v98c0,1.4-1.2,2.6-2.6,2.6H29.7c-1.4,0-2.6-1.2-2.6-2.6V360
				L48.2,338.9z"/>
			<path class="st12" d="M27.1,360h18.5c1.4,0,2.6-1.2,2.6-2.6v-18.5L27.1,360z"/>
		</g>
		<g>
			<rect x="34.3" y="367.3" class="st12" width="66.5" height="4.9"/>
			<rect x="34.3" y="381.3" class="st12" width="66.5" height="4.9"/>
			<rect x="34.3" y="395.3" class="st12" width="66.5" height="4.9"/>
			<rect x="34.3" y="409.3" class="st12" width="66.5" height="4.9"/>
			<rect x="34.3" y="423.2" class="st12" width="66.5" height="4.9"/>
		</g>
	</g>
	<text transform="matrix(1 0 0 1 43.2586 139.8494)" class="st7 st19 st20">Portfolios</text>
	<text transform="matrix(1 0 0 1 11.1575 479.2126)" class="st7 st19 st20">Projects &amp; Functions</text>
	<path class="st16" d="M137.5,313.4H7.3c-1.1,0-2-0.9-2-2v-17.2c0-1.1,0.9-2,2-2h130.2c1.1,0,2,0.9,2,2v17.2
		C139.5,312.5,138.6,313.4,137.5,313.4z"/>
	<text transform="matrix(1 0 0 1 43.77 306.9004)" class="st7 st19 st20">Programs</text>
</g>
</svg>
