<?xml version="1.0" encoding="utf-8"?>
<!-- Generator: Adobe Illustrator 24.0.0, SVG Export Plug-In . SVG Version: 6.00 Build 0)  -->
<svg version="1.1" id="Layer_1" xmlns="http://www.w3.org/2000/svg" xmlns:xlink="http://www.w3.org/1999/xlink" x="0px" y="0px"
	 viewBox="0 0 138.9 113" style="enable-background:new 0 0 138.9 113;" xml:space="preserve">
<style type="text/css">
	.st0{fill:#8E4720;}
	.st1{fill:#6A2010;}
	.st2{fill:#C36B37;}
	.st3{fill:#FED215;}
	.st4{fill:#954621;}
	.st5{fill:#53230E;}
	.st6{fill:#FBAF32;}
	.st7{fill:#FFFFFF;}
	.st8{fill:#FFD630;}
	.st9{fill:#D1D3D4;}
	.st10{fill:#E6E7E8;}
	.st11{fill:#F1F2F2;}
	.st12{fill:#BCBEC0;}
</style>
<g>
	<path class="st0" d="M126.6,113H12.3c-5.5,0-10-4.5-10-10V19.8h134.2V103C136.6,108.5,132.1,113,126.6,113z"/>
	<path class="st1" d="M126.6,109.2H12.3c-5.5,0-10-4.5-10-10v3.7c0,5.5,4.5,10,10,10h114.2c5.5,0,10-4.5,10-10v-3.7
		C136.6,104.8,132.1,109.2,126.6,109.2z"/>
	<path class="st1" d="M133.1,58.1l-33,4.4c-20.4,2.7-41,2.7-61.3,0l-33-4.4c-2-0.3-3.4-2-3.4-4v5c0,2,1.5,3.8,3.4,4l33,4.4
		c20.4,2.7,41,2.7,61.3,0l33-4.4c2-0.3,3.4-2,3.4-4v-5C136.6,56.1,135.1,57.8,133.1,58.1z"/>
	<path class="st2" d="M135.3,60l-34.2,4.4c-21.1,2.7-42.4,2.7-63.5,0L3.6,60c-2-0.3-3.6-2-3.6-4V25.1c0-4.8,4.5-8.6,10-8.6h118.9
		c5.5,0,10,3.9,10,8.6v30.8C138.9,58,137.4,59.7,135.3,60z"/>
	<path class="st3" d="M72.8,75.3h-6.8c-1.1,0-2-0.9-2-2V59.5c0-1.1,0.9-2,2-2h6.8c1.1,0,2,0.9,2,2v13.9
		C74.8,74.4,73.9,75.3,72.8,75.3z"/>
	<path class="st4" d="M96.5,0H42.4c-2.8,0-5,2.2-5,5v11.5h7.1v-5.4c0-2.8,2.2-5,5-5h40c2.8,0,5,2.2,5,5v5.4h7.1V5
		C101.5,2.2,99.3,0,96.5,0z"/>
	<rect x="68.4" y="62.3" class="st5" width="2.1" height="8.2"/>
</g>
</svg>
