<?xml version="1.0" encoding="utf-8"?>
<!-- Generator: Adobe Illustrator 24.0.0, SVG Export Plug-In . SVG Version: 6.00 Build 0)  -->
<svg version="1.1" id="Layer_1" xmlns="http://www.w3.org/2000/svg" xmlns:xlink="http://www.w3.org/1999/xlink" x="0px" y="0px"
	 viewBox="0 0 144.5 115.1" style="enable-background:new 0 0 144.5 115.1;" xml:space="preserve">
<style type="text/css">
	.st0{fill:#8E4720;}
	.st1{fill:#6A2010;}
	.st2{fill:#C36B37;}
	.st3{fill:#FED215;}
	.st4{fill:#954621;}
	.st5{fill:#53230E;}
	.st6{fill:#FBAF32;}
	.st7{fill:#FFFFFF;}
	.st8{fill:#FFD630;}
	.st9{fill:#D1D3D4;}
	.st10{fill:#E6E7E8;}
	.st11{fill:#F1F2F2;}
	.st12{fill:#BCBEC0;}
</style>
<g>
	<path class="st6" d="M135.9,16.2l-55.7,0.2c-2.8,0-5.5-1-7.6-2.8L61.1,3.5C58.5,1.2,55.2,0,51.8,0H10.5C4.9,0,0.3,4.6,0.3,10.3
		v32.4h144V24.6C144.3,20,140.5,16.2,135.9,16.2z"/>
	<path class="st7" d="M130,27.6H14.5c-2.8,0-5,2.2-5,5v6.9H135v-6.9C135,29.8,132.8,27.6,130,27.6z"/>
	<path class="st8" d="M139.5,115.1H5c-2.8,0-5-2.2-5-5V44.5c0-2.8,2.2-5,5-5h134.5c2.8,0,5,2.2,5,5v65.6
		C144.5,112.8,142.3,115.1,139.5,115.1z"/>
</g>
</svg>
