<?xml version="1.0" encoding="utf-8"?>
<!-- Generator: Adobe Illustrator 24.0.0, SVG Export Plug-In . SVG Version: 6.00 Build 0)  -->
<svg version="1.1" id="Layer_1" xmlns="http://www.w3.org/2000/svg" xmlns:xlink="http://www.w3.org/1999/xlink" x="0px" y="0px"
	 viewBox="0 0 90.3 112.9" style="enable-background:new 0 0 90.3 112.9;" xml:space="preserve">
<style type="text/css">
	.st0{fill:#8E4720;}
	.st1{fill:#6A2010;}
	.st2{fill:#C36B37;}
	.st3{fill:#FED215;}
	.st4{fill:#954621;}
	.st5{fill:#53230E;}
	.st6{fill:#FBAF32;}
	.st7{fill:#FFFFFF;}
	.st8{fill:#FFD630;}
	.st9{fill:#D1D3D4;}
	.st10{fill:#E6E7E8;}
	.st11{fill:#F1F2F2;}
	.st12{fill:#BCBEC0;}
</style>
<g>
	<path class="st9" d="M30.9,9.7h56.9c1.4,0,2.6,1.2,2.6,2.6v98c0,1.4-1.2,2.6-2.6,2.6H12.3c-1.4,0-2.6-1.2-2.6-2.6V30.8L30.9,9.7z"
		/>
	<path class="st10" d="M26,4.8h56.9c1.4,0,2.6,1.2,2.6,2.6v98c0,1.4-1.2,2.6-2.6,2.6H7.5c-1.4,0-2.6-1.2-2.6-2.6V25.9L26,4.8z"/>
	<g>
		<path class="st11" d="M21.1,0H78c1.4,0,2.6,1.2,2.6,2.6v98c0,1.4-1.2,2.6-2.6,2.6H2.6c-1.4,0-2.6-1.2-2.6-2.6V21.1L21.1,0z"/>
		<path class="st12" d="M0,21.1h18.5c1.4,0,2.6-1.2,2.6-2.6V0L0,21.1z"/>
	</g>
	<g>
		<rect x="7.1" y="28.4" class="st12" width="66.5" height="4.9"/>
		<rect x="7.1" y="42.4" class="st12" width="66.5" height="4.9"/>
		<rect x="7.1" y="56.4" class="st12" width="66.5" height="4.9"/>
		<rect x="7.1" y="70.4" class="st12" width="66.5" height="4.9"/>
		<rect x="7.1" y="84.4" class="st12" width="66.5" height="4.9"/>
	</g>
</g>
</svg>
