<?xml version="1.0" encoding="UTF-8"?><svg id="Layer_1" xmlns="http://www.w3.org/2000/svg" viewBox="0 0 538.04 263.75"><defs><style>.cls-1{letter-spacing:-.01em;}.cls-2{font-family:D-DINCondensed-Bold, 'D-DIN Condensed';font-size:12px;font-weight:700;text-decoration:underline;}.cls-2,.cls-3,.cls-4{fill:#fff;}.cls-5{letter-spacing:-.02em;}.cls-6{letter-spacing:-.02em;}.cls-7{letter-spacing:-.02em;}.cls-8{letter-spacing:0em;}.cls-9{letter-spacing:0em;}.cls-10{letter-spacing:.02em;}.cls-11{letter-spacing:-.03em;}.cls-12{letter-spacing:0em;}.cls-13{fill:#d1d3d4;}.cls-14{fill:#058ab4;}.cls-15{fill:#5576ba;}.cls-16{fill:#37a8a8;}.cls-17{fill:#764b80;}.cls-18{letter-spacing:-.01em;}.cls-19{letter-spacing:-.02em;}.cls-20{letter-spacing:-.01em;}.cls-21{letter-spacing:0em;}.cls-22{letter-spacing:.02em;}.cls-4{font-family:D-DINCondensed, 'D-DIN Condensed';font-size:11px;}.cls-23{letter-spacing:.03em;}.cls-24{letter-spacing:0em;}.cls-25{letter-spacing:0em;}.cls-26{letter-spacing:0em;}.cls-27{letter-spacing:0em;}.cls-28{letter-spacing:0em;}.cls-29{letter-spacing:0em;}.cls-30{letter-spacing:0em;}.cls-31{letter-spacing:0em;}.cls-32{letter-spacing:-.02em;}.cls-33{letter-spacing:-.02em;}.cls-34{letter-spacing:0em;}.cls-35{letter-spacing:-.03em;}.cls-36{letter-spacing:0em;}.cls-37{letter-spacing:0em;}.cls-38{letter-spacing:-.01em;}.cls-39{letter-spacing:0em;}</style></defs><g><rect class="cls-3" x="10.67" y="10.69" width="516.7" height="242.39" rx="3.35" ry="3.35"/><path class="cls-13" d="m524.02,11.36c1.48,0,2.68,1.2,2.68,2.68v235.7c0,1.48-1.2,2.68-2.68,2.68H14.02c-1.48,0-2.68-1.2-2.68-2.68V14.04c0-1.48,1.2-2.68,2.68-2.68h510m0-1.34H14.02c-2.22,0-4.02,1.8-4.02,4.02v235.7c0,2.22,1.8,4.02,4.02,4.02h510c2.22,0,4.02-1.8,4.02-4.02V14.04c0-2.22-1.8-4.02-4.02-4.02h0Z"/></g><rect class="cls-14" x="20" y="136.79" width="159.48" height="106.96" rx="5" ry="5"/><rect class="cls-17" x="189.28" y="136.79" width="159.48" height="106.96" rx="5" ry="5"/><rect class="cls-16" x="358.56" y="136.79" width="159.48" height="106.96" rx="5" ry="5"/><g><text class="cls-2" transform="translate(238.17 172.5)"><tspan class="cls-28" x="0" y="0">R</tspan><tspan class="cls-32" x="5.44" y="0">i</tspan><tspan class="cls-5" x="7.73" y="0">v</tspan><tspan x="12.4" y="0">er Corridors</tspan></text><text class="cls-4" transform="translate(241.16 189.75)"><tspan x="0" y="0">C</tspan><tspan class="cls-9" x="5.26" y="0">r</tspan><tspan x="8.54" y="0">o</tspan><tspan class="cls-34" x="13.03" y="0">s</tspan><tspan x="17.13" y="0">s Se</tspan><tspan class="cls-25" x="32.43" y="0">c</tspan><tspan class="cls-39" x="36.9" y="0">t</tspan><tspan x="40.2" y="0">io</tspan><tspan class="cls-29" x="46.89" y="0">n</tspan><tspan x="51.52" y="0">s</tspan><tspan class="cls-38" x="-.97" y="13.2">E</tspan><tspan x="3.32" y="13.2">cological D</tspan><tspan class="cls-21" x="44.76" y="13.2">at</tspan><tspan x="52.29" y="13.2">a</tspan><tspan x="-11.48" y="26.4">Sur</tspan><tspan class="cls-21" x=".97" y="26.4">f</tspan><tspan x="4.08" y="26.4">ace </tspan><tspan class="cls-19" x="19.4" y="26.4">W</tspan><tspan class="cls-21" x="26.36" y="26.4">a</tspan><tspan class="cls-37" x="30.71" y="26.4">t</tspan><tspan x="33.9" y="26.4">er Ex</tspan><tspan class="cls-8" x="51.77" y="26.4">t</tspan><tspan x="54.96" y="26.4">e</tspan><tspan class="cls-12" x="59.45" y="26.4">n</tspan><tspan class="cls-27" x="63.96" y="26.4">t</tspan></text></g><g><text class="cls-2" transform="translate(71.82 178.92)"><tspan x="0" y="0">H</tspan><tspan class="cls-5" x="5.52" y="0">y</tspan><tspan x="10.19" y="0">d</tspan><tspan class="cls-1" x="15.11" y="0">r</tspan><tspan x="18.66" y="0">ogeolo</tspan><tspan class="cls-32" x="46.19" y="0">g</tspan><tspan x="50.93" y="0">y</tspan></text><text class="cls-4" transform="translate(77.23 196.53)"><tspan class="cls-19" x="0" y="0">W</tspan><tspan class="cls-12" x="6.96" y="0">a</tspan><tspan class="cls-8" x="11.31" y="0">t</tspan><tspan x="14.5" y="0">er </tspan><tspan class="cls-20" x="24.1" y="0">W</tspan><tspan x="31.17" y="0">ells</tspan><tspan class="cls-22" x="6.5" y="13.2">A</tspan><tspan x="11.77" y="13.2">qu</tspan><tspan class="cls-26" x="20.88" y="13.2">i</tspan><tspan class="cls-23" x="23.17" y="13.2">f</tspan><tspan x="26.63" y="13.2">ers</tspan></text></g><rect class="cls-15" x="189.28" y="20.02" width="159.48" height="106.96" rx="5" ry="5"/><text class="cls-2" transform="translate(232.77 41.84)"><tspan class="cls-1" x="0" y="0">R</tspan><tspan x="5.4" y="0">efe</tspan><tspan class="cls-31" x="18.71" y="0">r</tspan><tspan x="22.26" y="0">ence </tspan><tspan class="cls-11" x="44.03" y="0">F</tspan><tspan x="48.12" y="0">abric/</tspan><tspan x="-7.66" y="14.4">N</tspan><tspan class="cls-31" x="-1.97" y="14.4">a</tspan><tspan class="cls-24" x="2.77" y="14.4">tional H</tspan><tspan class="cls-6" x="34.07" y="14.4">y</tspan><tspan x="38.74" y="14.4">d</tspan><tspan class="cls-31" x="43.66" y="14.4">r</tspan><tspan class="cls-24" x="47.21" y="14.4">ogarp</tspan><tspan class="cls-18" x="70.52" y="14.4">h</tspan><tspan class="cls-24" x="75.26" y="14.4">y</tspan></text><g><text class="cls-4" transform="translate(408.82 196.46)"><tspan class="cls-33" x="0" y="0">L</tspan><tspan class="cls-30" x="4.14" y="0">an</tspan><tspan class="cls-29" x="13.12" y="0">d</tspan><tspan x="17.71" y="0">scape D</tspan><tspan class="cls-21" x="47.01" y="0">at</tspan><tspan x="54.54" y="0">a</tspan><tspan x="-1.98" y="13.2">Clim</tspan><tspan class="cls-21" x="15.15" y="13.2">a</tspan><tspan class="cls-8" x="19.49" y="13.2">t</tspan><tspan x="22.68" y="13.2">e </tspan><tspan class="cls-35" x="29.09" y="13.2">F</tspan><tspan x="33.1" y="13.2">o</tspan><tspan class="cls-9" x="37.6" y="13.2">r</tspan><tspan class="cls-27" x="40.88" y="13.2">cin</tspan><tspan class="cls-39" x="52.14" y="13.2">g</tspan><tspan class="cls-30" x="56.73" y="13.2">s</tspan></text><text class="cls-2" transform="translate(395.78 178.99)"><tspan x="0" y="0">D</tspan><tspan class="cls-1" x="5.56" y="0">y</tspan><tspan x="10.34" y="0">namic </tspan><tspan class="cls-31" x="37.04" y="0">L</tspan><tspan x="41.33" y="0">andscapes</tspan></text></g><text class="cls-4" transform="translate(239.45 73.89)"><tspan class="cls-7" x="0" y="0">L</tspan><tspan x="4.08" y="0">in</tspan><tspan class="cls-10" x="10.85" y="0">k</tspan><tspan x="15.52" y="0">ed </tspan><tspan class="cls-35" x="26.47" y="0">F</tspan><tspan x="30.47" y="0">e</tspan><tspan class="cls-21" x="34.96" y="0">a</tspan><tspan class="cls-29" x="39.3" y="0">t</tspan><tspan x="42.6" y="0">u</tspan><tspan class="cls-9" x="47.18" y="0">r</tspan><tspan x="50.46" y="0">es</tspan><tspan x="-3" y="13.2">S</tspan><tspan class="cls-39" x="1.69" y="13.2">t</tspan><tspan class="cls-9" x="4.99" y="13.2">r</tspan><tspan x="8.27" y="13.2">eam N</tspan><tspan class="cls-25" x="31.72" y="13.2">e</tspan><tspan x="36.18" y="13.2">t</tspan><tspan class="cls-36" x="39.43" y="13.2">w</tspan><tspan x="45.75" y="13.2">orks</tspan><tspan x="6.86" y="26.4">C</tspan><tspan class="cls-12" x="12.12" y="26.4">a</tspan><tspan class="cls-8" x="16.47" y="26.4">t</tspan><tspan x="19.66" y="26.4">chme</tspan><tspan class="cls-12" x="40.33" y="26.4">n</tspan><tspan class="cls-27" x="44.84" y="26.4">ts</tspan><tspan class="cls-19" x="-6.86" y="39.6">W</tspan><tspan class="cls-12" x=".1" y="39.6">a</tspan><tspan class="cls-8" x="4.45" y="39.6">t</tspan><tspan x="7.64" y="39.6">er Ce</tspan><tspan class="cls-29" x="26.99" y="39.6">n</tspan><tspan x="31.62" y="39.6">s</tspan><tspan class="cls-29" x="35.82" y="39.6">u</tspan><tspan x="40.45" y="39.6">s Un</tspan><tspan class="cls-21" x="56.43" y="39.6">i</tspan><tspan class="cls-27" x="58.56" y="39.6">ts</tspan></text></svg>