<svg id="Layer_2" data-name="Layer 2" xmlns="http://www.w3.org/2000/svg" viewBox="0 0 598.51 573.66"><path d="M598.51,370.55c0,112.18-90.94,203.11-203.11,203.11a203,203,0,0,1-203-195.17,203.27,203.27,0,0,0,213.78-5.44c0-.93,0-1.85,0-2.78A203.08,203.08,0,0,0,299.52,191.45a203.11,203.11,0,0,1,299,179.1Z" style="fill:#272727;opacity:0.8"/><path d="M406.21,373.05A203,203,0,0,1,203.12,573.38C90.94,573.38,0,482.45,0,370.27A203.18,203.18,0,0,1,299.52,191.45a203.07,203.07,0,0,0-107.24,179.1q0,4,.15,7.94a203.27,203.27,0,0,0,213.78-5.44Z" style="fill:#828182;opacity:0.8"/><path d="M498,203.11a202.93,202.93,0,0,1-91.83,169.94c0-.93,0-1.85,0-2.78A203.08,203.08,0,0,0,299.52,191.45a203.07,203.07,0,0,0-107.24,179.1q0,4,.15,7.94A203,203,0,0,1,91.82,203.11c0-.93,0-1.85,0-2.78C93.32,89.43,183.68,0,294.93,0c109.51,0,198.78,86.66,203,195.15Q498,199.11,498,203.11Z" style="fill:#53afe2;opacity:0.8"/><path d="M222.86,98.53V120h-4.71V98.53Z" style="fill:#fff"/><path d="M230.6,104.44v2.16h.09a4.88,4.88,0,0,1,2.1-2,6.08,6.08,0,0,1,2.64-.62,7.2,7.2,0,0,1,2.8.47,4.18,4.18,0,0,1,1.73,1.29,5,5,0,0,1,.88,2,12.44,12.44,0,0,1,.26,2.62V120h-4.26v-8.76a5.42,5.42,0,0,0-.6-2.86,2.33,2.33,0,0,0-2.13-1,3,3,0,0,0-2.52,1,5.74,5.74,0,0,0-.78,3.4V120h-4.26V104.44Z" style="fill:#fff"/><path d="M242.72,107.29v-2.85h2.55v-1.2a4.65,4.65,0,0,1,1.29-3.39,5.23,5.23,0,0,1,3.9-1.32c.38,0,.76,0,1.14,0l1.11.07v3.18a13.09,13.09,0,0,0-1.56-.09,1.65,1.65,0,0,0-1.25.41,2,2,0,0,0-.37,1.36v.93h2.94v2.85h-2.94V120h-4.26V107.29Z" style="fill:#fff"/><path d="M254.42,108.84a7.11,7.11,0,0,1,4.13-4.23,9.58,9.58,0,0,1,6.62,0,7.05,7.05,0,0,1,4.16,4.23,9.49,9.49,0,0,1,.57,3.37,9.4,9.4,0,0,1-.57,3.36,7.31,7.31,0,0,1-1.62,2.57,7.07,7.07,0,0,1-2.54,1.63,9.9,9.9,0,0,1-6.62,0,7.12,7.12,0,0,1-2.51-1.63,7.31,7.31,0,0,1-1.62-2.57,9.4,9.4,0,0,1-.58-3.36A9.49,9.49,0,0,1,254.42,108.84Zm3.87,5.19a4.83,4.83,0,0,0,.61,1.59,3.33,3.33,0,0,0,1.15,1.12,4.11,4.11,0,0,0,3.62,0,3.22,3.22,0,0,0,1.17-1.12,4.84,4.84,0,0,0,.62-1.59,9.13,9.13,0,0,0,.17-1.82,9.3,9.3,0,0,0-.17-1.83,4.67,4.67,0,0,0-.62-1.59,3.4,3.4,0,0,0-1.17-1.12,3.51,3.51,0,0,0-4.77,1.12,4.66,4.66,0,0,0-.61,1.59,9.31,9.31,0,0,0-.18,1.83A9.13,9.13,0,0,0,258.29,114Z" style="fill:#fff"/><path d="M276.71,104.44v2.88h.06a4.7,4.7,0,0,1,.81-1.33,5.09,5.09,0,0,1,1.17-1,5.57,5.57,0,0,1,1.41-.68,5,5,0,0,1,1.55-.24,3.39,3.39,0,0,1,.94.15v4c-.2,0-.44-.07-.73-.1a7.47,7.47,0,0,0-.8,0,4.58,4.58,0,0,0-2,.39,3.42,3.42,0,0,0-1.3,1.07,4.08,4.08,0,0,0-.7,1.57,8.57,8.57,0,0,0-.21,1.95v7h-4.26V104.44Z" style="fill:#fff"/><path d="M288.46,104.44v2.1h.07a6.05,6.05,0,0,1,2-1.86,5.49,5.49,0,0,1,2.71-.66,6.23,6.23,0,0,1,2.69.57,3.78,3.78,0,0,1,1.85,2,6.58,6.58,0,0,1,1.87-1.8,5,5,0,0,1,2.8-.78,8.35,8.35,0,0,1,2.29.3,4.59,4.59,0,0,1,1.8,1,4.53,4.53,0,0,1,1.17,1.73,7,7,0,0,1,.42,2.56V120h-4.27v-8.79c0-.52,0-1-.05-1.47a3.31,3.31,0,0,0-.33-1.2,2,2,0,0,0-.8-.81,2.85,2.85,0,0,0-1.42-.3,2.72,2.72,0,0,0-1.46.35,2.5,2.5,0,0,0-.87.9,3.6,3.6,0,0,0-.42,1.26,9.6,9.6,0,0,0-.11,1.42V120h-4.25v-8.7c0-.46,0-.91,0-1.36a3.61,3.61,0,0,0-.25-1.25,1.9,1.9,0,0,0-.75-.91,2.83,2.83,0,0,0-1.54-.35,3.2,3.2,0,0,0-.8.14,2.64,2.64,0,0,0-1,.51,3,3,0,0,0-.79,1.08,4.21,4.21,0,0,0-.33,1.84v9h-4.26V104.44Z" style="fill:#fff"/><path d="M311.33,109.21a5,5,0,0,1,.75-2.49,5,5,0,0,1,1.68-1.59,7.29,7.29,0,0,1,2.29-.85,13.1,13.1,0,0,1,2.57-.26,17.14,17.14,0,0,1,2.36.17,7.31,7.31,0,0,1,2.2.64,4.33,4.33,0,0,1,1.62,1.34,3.71,3.71,0,0,1,.63,2.26v8.07a16.21,16.21,0,0,0,.12,2A3.48,3.48,0,0,0,326,120h-4.32a6.05,6.05,0,0,1-.2-.73,4.91,4.91,0,0,1-.1-.77,5.58,5.58,0,0,1-2.41,1.47,9.52,9.52,0,0,1-2.81.42,7.57,7.57,0,0,1-2.07-.27,4.66,4.66,0,0,1-1.68-.84,3.92,3.92,0,0,1-1.13-1.44,4.87,4.87,0,0,1-.4-2.07,4.5,4.5,0,0,1,.46-2.17,3.91,3.91,0,0,1,1.2-1.37,5.37,5.37,0,0,1,1.68-.76,17.53,17.53,0,0,1,1.91-.41c.63-.1,1.26-.18,1.88-.24a11.52,11.52,0,0,0,1.66-.27,2.94,2.94,0,0,0,1.14-.52,1.16,1.16,0,0,0,.39-1,2.24,2.24,0,0,0-.23-1.09,1.65,1.65,0,0,0-.6-.63,2.36,2.36,0,0,0-.87-.3,7.16,7.16,0,0,0-1.07-.08,3.2,3.2,0,0,0-2,.54,2.34,2.34,0,0,0-.84,1.8Zm9.84,3.15a2,2,0,0,1-.68.38,6.9,6.9,0,0,1-.87.22c-.31.06-.64.11-1,.15l-1,.15a7.77,7.77,0,0,0-.95.24,2.8,2.8,0,0,0-.81.41,1.79,1.79,0,0,0-.55.64,2.07,2.07,0,0,0-.21,1,2,2,0,0,0,.21,1,1.55,1.55,0,0,0,.57.62,2.33,2.33,0,0,0,.84.31,5.28,5.28,0,0,0,1,.09,3.79,3.79,0,0,0,1.95-.42,2.8,2.8,0,0,0,1-1,3.42,3.42,0,0,0,.4-1.19,8.34,8.34,0,0,0,.08-1Z" style="fill:#fff"/><path d="M337.24,104.44v2.85h-3.12V115a2.08,2.08,0,0,0,.36,1.44,2.12,2.12,0,0,0,1.45.36c.23,0,.47,0,.68,0a6,6,0,0,0,.63-.09V120a10,10,0,0,1-1.19.12l-1.29,0a12.52,12.52,0,0,1-1.88-.13,4.43,4.43,0,0,1-1.56-.53,2.77,2.77,0,0,1-1.06-1.11,3.84,3.84,0,0,1-.4-1.89v-9.15h-2.58v-2.85h2.58V99.79h4.26v4.65Z" style="fill:#fff"/><path d="M339.4,102V98.53h4.26V102Zm4.26,2.4V120H339.4V104.44Z" style="fill:#fff"/><path d="M347.11,108.84a7.26,7.26,0,0,1,1.62-2.58,7.45,7.45,0,0,1,2.52-1.65,9.58,9.58,0,0,1,6.62,0,7.12,7.12,0,0,1,4.16,4.23,9.72,9.72,0,0,1,.57,3.37,9.62,9.62,0,0,1-.57,3.36,7.19,7.19,0,0,1-1.63,2.57,7,7,0,0,1-2.53,1.63,9.9,9.9,0,0,1-6.62,0,7,7,0,0,1-4.14-4.2,9.4,9.4,0,0,1-.57-3.36A9.49,9.49,0,0,1,347.11,108.84ZM351,114a5.07,5.07,0,0,0,.62,1.59,3.33,3.33,0,0,0,1.15,1.12,3.54,3.54,0,0,0,1.81.42,3.59,3.59,0,0,0,1.81-.42,3.22,3.22,0,0,0,1.17-1.12,4.83,4.83,0,0,0,.61-1.59,8.45,8.45,0,0,0,.18-1.82,8.61,8.61,0,0,0-.18-1.83,4.66,4.66,0,0,0-.61-1.59,3.4,3.4,0,0,0-1.17-1.12,3.49,3.49,0,0,0-1.81-.44,3.44,3.44,0,0,0-1.81.44,3.52,3.52,0,0,0-1.15,1.12,4.89,4.89,0,0,0-.62,1.59,9.3,9.3,0,0,0-.17,1.83A9.13,9.13,0,0,0,351,114Z" style="fill:#fff"/><path d="M369.4,104.44v2.16h.09a4.88,4.88,0,0,1,2.1-2,6.08,6.08,0,0,1,2.64-.62,7.25,7.25,0,0,1,2.81.47,4.14,4.14,0,0,1,1.72,1.29,5,5,0,0,1,.89,2,12.47,12.47,0,0,1,.25,2.62V120h-4.26v-8.76a5.42,5.42,0,0,0-.6-2.86,2.33,2.33,0,0,0-2.13-1,3,3,0,0,0-2.52,1,5.74,5.74,0,0,0-.78,3.4V120h-4.26V104.44Z" style="fill:#fff"/><path d="M437.74,379a13.34,13.34,0,0,1,2.79.27,6,6,0,0,1,2.16.88,4.14,4.14,0,0,1,1.4,1.64,5.75,5.75,0,0,1,.49,2.52,4.69,4.69,0,0,1-.73,2.7,5.36,5.36,0,0,1-2.18,1.77,5.15,5.15,0,0,1,3,2,6,6,0,0,1,1,3.44A5.87,5.87,0,0,1,445,397a5.47,5.47,0,0,1-1.69,1.94,7.5,7.5,0,0,1-2.43,1.11,11,11,0,0,1-2.81.36H427.66V379Zm-.6,8.67a3.39,3.39,0,0,0,2.07-.6,2.27,2.27,0,0,0,.81-1.95,2.49,2.49,0,0,0-.27-1.23,2,2,0,0,0-.72-.75,3,3,0,0,0-1-.38,6.93,6.93,0,0,0-1.22-.1h-4.41v5Zm.27,9.09a6.28,6.28,0,0,0,1.32-.14,3.24,3.24,0,0,0,1.11-.45,2.26,2.26,0,0,0,.77-.85,3,3,0,0,0,.28-1.38,2.78,2.78,0,0,0-.93-2.36,4,4,0,0,0-2.46-.7h-5.13v5.88Z" style="fill:#fff"/><path d="M458.83,400.42v-2.16h-.09a4.79,4.79,0,0,1-2.1,1.95,6.2,6.2,0,0,1-2.64.6,7.42,7.42,0,0,1-2.8-.45,4.07,4.07,0,0,1-1.73-1.28,5,5,0,0,1-.88-2,12.44,12.44,0,0,1-.26-2.62v-9.54h4.26v8.76a5.42,5.42,0,0,0,.6,2.86,2.33,2.33,0,0,0,2.13,1,3,3,0,0,0,2.52-1,5.74,5.74,0,0,0,.78-3.4v-8.13h4.26v15.51Z" style="fill:#fff"/><path d="M469.71,396.56a2.48,2.48,0,0,0,.73.81,3.19,3.19,0,0,0,1,.47,4.83,4.83,0,0,0,1.21.15,4.62,4.62,0,0,0,.95-.11,3.21,3.21,0,0,0,.9-.33,2,2,0,0,0,.67-.6,1.56,1.56,0,0,0,.27-.94c0-.64-.42-1.12-1.27-1.44a25.56,25.56,0,0,0-3.56-1c-.62-.14-1.22-.31-1.81-.5a6.24,6.24,0,0,1-1.58-.75,3.65,3.65,0,0,1-1.11-1.17,3.3,3.3,0,0,1-.42-1.72,4.67,4.67,0,0,1,.59-2.46,4.31,4.31,0,0,1,1.54-1.52,6.77,6.77,0,0,1,2.16-.78,13.32,13.32,0,0,1,2.46-.22,12.34,12.34,0,0,1,2.45.24,6.44,6.44,0,0,1,2.11.81,4.85,4.85,0,0,1,1.55,1.51,5.11,5.11,0,0,1,.73,2.39h-4.05a1.87,1.87,0,0,0-.93-1.67,4.25,4.25,0,0,0-2-.43,7.28,7.28,0,0,0-.78,0,2.57,2.57,0,0,0-.76.2,1.58,1.58,0,0,0-.59.43,1.29,1.29,0,0,0,.18,1.7,3.26,3.26,0,0,0,1.1.58,13.53,13.53,0,0,0,1.54.41l1.77.39a18.09,18.09,0,0,1,1.82.51,5.93,5.93,0,0,1,1.57.79,3.84,3.84,0,0,1,1.11,1.23,3.63,3.63,0,0,1,.42,1.82,4.7,4.7,0,0,1-2.22,4.23,6.55,6.55,0,0,1-2.26.88,13.25,13.25,0,0,1-2.6.26,12.85,12.85,0,0,1-2.64-.27,6.94,6.94,0,0,1-2.29-.9,5,5,0,0,1-2.36-4.26h4.05A2.32,2.32,0,0,0,469.71,396.56Z" style="fill:#fff"/><path d="M482.35,382.51V379h4.26v3.51Zm4.26,2.4v15.51h-4.26V384.91Z" style="fill:#fff"/><path d="M494,384.91v2.16h.09a4.9,4.9,0,0,1,2.1-2,6.07,6.07,0,0,1,2.64-.61,7.27,7.27,0,0,1,2.81.46,4.14,4.14,0,0,1,1.72,1.29,5,5,0,0,1,.89,2,12.56,12.56,0,0,1,.25,2.63v9.54h-4.26v-8.76a5.46,5.46,0,0,0-.6-2.87,2.32,2.32,0,0,0-2.13-.94,3,3,0,0,0-2.52,1,5.77,5.77,0,0,0-.78,3.41v8.13H490V384.91Z" style="fill:#fff"/><path d="M512.32,396.7a4.35,4.35,0,0,0,5,.28,2.67,2.67,0,0,0,1.14-1.36h3.75a7.12,7.12,0,0,1-2.76,4,8.12,8.12,0,0,1-4.5,1.2,8.86,8.86,0,0,1-3.3-.59,6.85,6.85,0,0,1-2.49-1.66,7.48,7.48,0,0,1-1.57-2.58,9.44,9.44,0,0,1-.56-3.3,9,9,0,0,1,.57-3.24,7.45,7.45,0,0,1,4.13-4.32,8,8,0,0,1,3.22-.63,7.37,7.37,0,0,1,3.45.76,6.92,6.92,0,0,1,2.42,2.06,8.44,8.44,0,0,1,1.36,2.94,11,11,0,0,1,.3,3.45H511.27A4.31,4.31,0,0,0,512.32,396.7Zm4.82-8.16a3,3,0,0,0-2.33-.84,3.69,3.69,0,0,0-1.69.34,3.24,3.24,0,0,0-1.08.86,3.13,3.13,0,0,0-.57,1.08,4.93,4.93,0,0,0-.2,1h6.93A4.92,4.92,0,0,0,517.14,388.54Z" style="fill:#fff"/><path d="M528.57,396.56a2.48,2.48,0,0,0,.73.81,3.19,3.19,0,0,0,1,.47,4.83,4.83,0,0,0,1.21.15,4.62,4.62,0,0,0,1-.11,3.21,3.21,0,0,0,.9-.33,2,2,0,0,0,.67-.6,1.56,1.56,0,0,0,.27-.94c0-.64-.42-1.12-1.27-1.44a25.56,25.56,0,0,0-3.56-1c-.62-.14-1.22-.31-1.81-.5a6.24,6.24,0,0,1-1.58-.75,3.65,3.65,0,0,1-1.11-1.17,3.3,3.3,0,0,1-.42-1.72,4.67,4.67,0,0,1,.59-2.46,4.31,4.31,0,0,1,1.54-1.52,6.77,6.77,0,0,1,2.16-.78,13.32,13.32,0,0,1,2.46-.22,12.34,12.34,0,0,1,2.45.24,6.44,6.44,0,0,1,2.11.81,4.85,4.85,0,0,1,1.55,1.51,5.11,5.11,0,0,1,.73,2.39h-4a1.87,1.87,0,0,0-.93-1.67,4.25,4.25,0,0,0-2-.43,7.28,7.28,0,0,0-.78,0,2.57,2.57,0,0,0-.76.2,1.58,1.58,0,0,0-.59.43,1.29,1.29,0,0,0,.18,1.7,3.26,3.26,0,0,0,1.1.58,13.53,13.53,0,0,0,1.54.41l1.77.39a18.09,18.09,0,0,1,1.82.51,5.93,5.93,0,0,1,1.57.79,3.84,3.84,0,0,1,1.11,1.23,3.63,3.63,0,0,1,.42,1.82,4.7,4.7,0,0,1-2.22,4.23,6.55,6.55,0,0,1-2.26.88,13.25,13.25,0,0,1-2.6.26,12.85,12.85,0,0,1-2.64-.27,6.94,6.94,0,0,1-2.29-.9,5,5,0,0,1-2.36-4.26h4A2.32,2.32,0,0,0,528.57,396.56Z" style="fill:#fff"/><path d="M544.68,396.56a2.48,2.48,0,0,0,.73.81,3.19,3.19,0,0,0,1,.47,4.83,4.83,0,0,0,1.21.15,4.62,4.62,0,0,0,1-.11,3.21,3.21,0,0,0,.9-.33,2,2,0,0,0,.67-.6,1.56,1.56,0,0,0,.27-.94c0-.64-.42-1.12-1.27-1.44a25.56,25.56,0,0,0-3.56-1c-.62-.14-1.22-.31-1.81-.5a6.24,6.24,0,0,1-1.58-.75,3.65,3.65,0,0,1-1.11-1.17,3.3,3.3,0,0,1-.42-1.72,4.67,4.67,0,0,1,.59-2.46,4.31,4.31,0,0,1,1.54-1.52,6.77,6.77,0,0,1,2.16-.78,13.32,13.32,0,0,1,2.46-.22,12.34,12.34,0,0,1,2.45.24,6.44,6.44,0,0,1,2.11.81,4.85,4.85,0,0,1,1.55,1.51,5.11,5.11,0,0,1,.73,2.39h-4a1.87,1.87,0,0,0-.93-1.67,4.25,4.25,0,0,0-2-.43,7.28,7.28,0,0,0-.78,0,2.57,2.57,0,0,0-.76.2,1.58,1.58,0,0,0-.59.43,1.29,1.29,0,0,0,.18,1.7,3.26,3.26,0,0,0,1.1.58,13.53,13.53,0,0,0,1.54.41l1.77.39a18.09,18.09,0,0,1,1.82.51,5.93,5.93,0,0,1,1.57.79,3.84,3.84,0,0,1,1.11,1.23,3.63,3.63,0,0,1,.42,1.82,4.7,4.7,0,0,1-2.22,4.23,6.55,6.55,0,0,1-2.26.88,13.25,13.25,0,0,1-2.6.26,12.85,12.85,0,0,1-2.64-.27,6.94,6.94,0,0,1-2.29-.9,5,5,0,0,1-2.36-4.26h4A2.32,2.32,0,0,0,544.68,396.56Z" style="fill:#fff"/><path d="M464.26,436.25a7.9,7.9,0,0,1-3.09.65,11,11,0,0,1-4.42-.86,9.49,9.49,0,0,1-3.32-2.35,10.45,10.45,0,0,1-2.07-3.53,12.91,12.91,0,0,1-.72-4.36,13.41,13.41,0,0,1,.72-4.46,10.68,10.68,0,0,1,2.07-3.58,9.48,9.48,0,0,1,3.32-2.4,10.8,10.8,0,0,1,4.42-.87,10.44,10.44,0,0,1,3.2.49,9.06,9.06,0,0,1,2.79,1.46,7.88,7.88,0,0,1,3,5.61h-4.5a4.51,4.51,0,0,0-1.62-2.7,4.71,4.71,0,0,0-2.91-.9,5.5,5.5,0,0,0-2.7.61,5.1,5.1,0,0,0-1.8,1.65,7.25,7.25,0,0,0-1,2.36,11.72,11.72,0,0,0-.32,2.73,10.87,10.87,0,0,0,.32,2.62,7.11,7.11,0,0,0,1,2.3,5.14,5.14,0,0,0,1.8,1.63,5.5,5.5,0,0,0,2.7.62,4.6,4.6,0,0,0,5.1-4.62h-4.74v-3.51h9v11.58h-3l-.48-2.43A7,7,0,0,1,464.26,436.25Z" style="fill:#fff"/><path d="M474,425.3a7.09,7.09,0,0,1,4.14-4.23,8.86,8.86,0,0,1,3.3-.58,9,9,0,0,1,3.32.58,7.07,7.07,0,0,1,4.15,4.23,9.55,9.55,0,0,1,.57,3.38,9.4,9.4,0,0,1-.57,3.36,7.27,7.27,0,0,1-1.62,2.56,7.05,7.05,0,0,1-2.53,1.64,9.21,9.21,0,0,1-3.32.57,9.07,9.07,0,0,1-3.3-.57,7.1,7.1,0,0,1-2.52-1.64A7.27,7.27,0,0,1,474,432a9.4,9.4,0,0,1-.57-3.36A9.55,9.55,0,0,1,474,425.3Zm3.87,5.19a4.84,4.84,0,0,0,.62,1.59,3.28,3.28,0,0,0,1.15,1.13,3.53,3.53,0,0,0,1.8.42,3.63,3.63,0,0,0,1.82-.42,3.25,3.25,0,0,0,1.17-1.13,4.83,4.83,0,0,0,.61-1.59,9,9,0,0,0,.18-1.81,9.31,9.31,0,0,0-.18-1.83,4.66,4.66,0,0,0-.61-1.59,3.42,3.42,0,0,0-1.17-1.13,3.53,3.53,0,0,0-1.82-.43,3.23,3.23,0,0,0-2.95,1.56,4.67,4.67,0,0,0-.62,1.59,9.31,9.31,0,0,0-.18,1.83A9,9,0,0,0,477.85,430.49Z" style="fill:#fff"/><path d="M492,425.68a5,5,0,0,1,.75-2.49,5.11,5.11,0,0,1,1.68-1.59,7.36,7.36,0,0,1,2.3-.86,13,13,0,0,1,2.56-.25,17.37,17.37,0,0,1,2.37.16,7.25,7.25,0,0,1,2.19.65,4.3,4.3,0,0,1,1.62,1.33,3.75,3.75,0,0,1,.63,2.27V433a16.21,16.21,0,0,0,.12,2,3.63,3.63,0,0,0,.42,1.44h-4.32a6.17,6.17,0,0,1-.19-.74,6.32,6.32,0,0,1-.11-.76,5.55,5.55,0,0,1-2.4,1.47,9.63,9.63,0,0,1-2.82.42,7.62,7.62,0,0,1-2.07-.27,4.74,4.74,0,0,1-1.68-.84,3.9,3.9,0,0,1-1.12-1.44,4.87,4.87,0,0,1-.41-2.07A4.54,4.54,0,0,1,492,430a3.87,3.87,0,0,1,1.2-1.36,5.39,5.39,0,0,1,1.68-.77,17.82,17.82,0,0,1,1.9-.4q1-.15,1.89-.24a11.37,11.37,0,0,0,1.65-.27,2.88,2.88,0,0,0,1.14-.53,1.14,1.14,0,0,0,.39-1,2.29,2.29,0,0,0-.22-1.1,1.65,1.65,0,0,0-.6-.63,2.36,2.36,0,0,0-.87-.3,7.21,7.21,0,0,0-1.07-.07,3.23,3.23,0,0,0-2,.54,2.41,2.41,0,0,0-.84,1.8Zm9.84,3.15a1.88,1.88,0,0,1-.67.37,6.88,6.88,0,0,1-.87.23c-.31.06-.64.11-1,.15l-1,.15a7.62,7.62,0,0,0-.94.24,2.79,2.79,0,0,0-.81.4,2,2,0,0,0-.56.65,2.07,2.07,0,0,0-.21,1,2,2,0,0,0,.21,1,1.6,1.6,0,0,0,.57.61,2.41,2.41,0,0,0,.84.32,5.36,5.36,0,0,0,1,.09,3.77,3.77,0,0,0,1.95-.42,2.82,2.82,0,0,0,1-1,3.2,3.2,0,0,0,.41-1.18,8,8,0,0,0,.07-1Z" style="fill:#fff"/><path d="M513.82,415v21.42h-4.26V415Z" style="fill:#fff"/><path d="M520.77,432.56a2.48,2.48,0,0,0,.73.81,3.19,3.19,0,0,0,1,.47,4.83,4.83,0,0,0,1.21.15,4.62,4.62,0,0,0,1-.11,3.21,3.21,0,0,0,.9-.33,2,2,0,0,0,.67-.6,1.56,1.56,0,0,0,.27-.94c0-.64-.42-1.12-1.27-1.44a25.56,25.56,0,0,0-3.56-1c-.62-.14-1.22-.31-1.81-.5a6.24,6.24,0,0,1-1.58-.75,3.65,3.65,0,0,1-1.11-1.17,3.3,3.3,0,0,1-.42-1.72,4.67,4.67,0,0,1,.59-2.46,4.31,4.31,0,0,1,1.54-1.52,6.77,6.77,0,0,1,2.16-.78,13.32,13.32,0,0,1,2.46-.22,12.34,12.34,0,0,1,2.45.24,6.44,6.44,0,0,1,2.11.81,4.85,4.85,0,0,1,1.55,1.51,5.11,5.11,0,0,1,.73,2.39h-4a1.87,1.87,0,0,0-.93-1.67,4.25,4.25,0,0,0-2-.43,7.28,7.28,0,0,0-.78,0,2.57,2.57,0,0,0-.76.2,1.58,1.58,0,0,0-.59.43,1.29,1.29,0,0,0,.18,1.7,3.26,3.26,0,0,0,1.1.58,13.53,13.53,0,0,0,1.54.41l1.77.39a18.09,18.09,0,0,1,1.82.51,5.93,5.93,0,0,1,1.57.79,3.84,3.84,0,0,1,1.11,1.23,3.63,3.63,0,0,1,.42,1.82,4.7,4.7,0,0,1-2.22,4.23,6.55,6.55,0,0,1-2.26.88,13.25,13.25,0,0,1-2.6.26,12.85,12.85,0,0,1-2.64-.27,6.94,6.94,0,0,1-2.29-.9,5,5,0,0,1-2.36-4.26h4.05A2.32,2.32,0,0,0,520.77,432.56Z" style="fill:#fff"/><path d="M282.46,290.78a11.77,11.77,0,0,1-13.45,0q-2.38-2.1-2.39-6.48V271h4.71v13.32a9.71,9.71,0,0,0,.15,1.71,3.45,3.45,0,0,0,.63,1.48,3.54,3.54,0,0,0,1.33,1.05,5.48,5.48,0,0,0,2.3.41c1.68,0,2.84-.38,3.48-1.13a5.34,5.34,0,0,0,1-3.52V271h4.71v13.32Q284.89,288.67,282.46,290.78Z" style="fill:#231f20"/><path d="M292.07,288.56a2.5,2.5,0,0,0,.74.81,3.13,3.13,0,0,0,1,.47,4.91,4.91,0,0,0,1.22.15,4.53,4.53,0,0,0,.94-.11,3.21,3.21,0,0,0,.9-.33,2.06,2.06,0,0,0,.68-.6,1.56,1.56,0,0,0,.27-.94c0-.64-.43-1.12-1.28-1.44a25.36,25.36,0,0,0-3.55-1c-.62-.14-1.23-.31-1.82-.5a6.17,6.17,0,0,1-1.57-.75,3.65,3.65,0,0,1-1.11-1.17,3.3,3.3,0,0,1-.42-1.72,4.57,4.57,0,0,1,.59-2.46,4.23,4.23,0,0,1,1.54-1.52,6.77,6.77,0,0,1,2.16-.78,13.32,13.32,0,0,1,2.46-.22,12.24,12.24,0,0,1,2.44.24,6.5,6.5,0,0,1,2.12.81,4.82,4.82,0,0,1,1.54,1.51,5.11,5.11,0,0,1,.74,2.39h-4.05a1.87,1.87,0,0,0-.93-1.67,4.25,4.25,0,0,0-2-.43,7.28,7.28,0,0,0-.78,0,2.49,2.49,0,0,0-.76.2,1.5,1.5,0,0,0-.59.43,1.29,1.29,0,0,0,.18,1.7,3.21,3.21,0,0,0,1.09.58,13.74,13.74,0,0,0,1.55.41l1.77.39a17.9,17.9,0,0,1,1.81.51,6,6,0,0,1,1.58.79,3.84,3.84,0,0,1,1.11,1.23,3.63,3.63,0,0,1,.42,1.82,4.75,4.75,0,0,1-2.22,4.23,6.6,6.6,0,0,1-2.27.88,13.15,13.15,0,0,1-2.59.26,12.85,12.85,0,0,1-2.64-.27,7,7,0,0,1-2.3-.9,4.94,4.94,0,0,1-2.35-4.26h4.05A2.32,2.32,0,0,0,292.07,288.56Z" style="fill:#231f20"/><path d="M309.16,288.7a4.35,4.35,0,0,0,5,.28,2.67,2.67,0,0,0,1.14-1.36H319a7.12,7.12,0,0,1-2.76,4,8.12,8.12,0,0,1-4.5,1.2,8.86,8.86,0,0,1-3.3-.59,6.85,6.85,0,0,1-2.49-1.66A7.66,7.66,0,0,1,304.4,288a9.44,9.44,0,0,1-.55-3.3,9,9,0,0,1,.57-3.24,7.63,7.63,0,0,1,1.62-2.6,7.53,7.53,0,0,1,2.51-1.72,8,8,0,0,1,3.22-.63,7.37,7.37,0,0,1,3.45.76,6.92,6.92,0,0,1,2.42,2.06,8.44,8.44,0,0,1,1.36,2.94,11,11,0,0,1,.3,3.45H308.11A4.31,4.31,0,0,0,309.16,288.7Zm4.82-8.16a3,3,0,0,0-2.33-.84,3.73,3.73,0,0,0-1.7.34,3.45,3.45,0,0,0-1.08.86,3.1,3.1,0,0,0-.56,1.08,4.35,4.35,0,0,0-.2,1H315A5,5,0,0,0,314,280.54Z" style="fill:#231f20"/><path d="M325.87,276.91v2.88h.06a5.33,5.33,0,0,1,2-2.39,5.7,5.7,0,0,1,1.41-.67,5.09,5.09,0,0,1,1.56-.24,3.32,3.32,0,0,1,.93.15v4c-.2,0-.44-.08-.72-.11a7.57,7.57,0,0,0-.81,0,4.54,4.54,0,0,0-2,.39A3.43,3.43,0,0,0,327,281.9a4.29,4.29,0,0,0-.7,1.58,8.57,8.57,0,0,0-.21,1.95v7h-4.26V276.91Z" style="fill:#231f20"/><path d="M236.37,307v4H225.06v4.59h10.38v3.66H225.06v5.25h11.55v4H220.35V307Z" style="fill:#231f20"/><path d="M238.2,312.91h4.86l2.73,4,2.69-4h4.72l-5.1,7.26,5.73,8.25H249l-3.24-4.89-3.25,4.89h-4.76l5.58-8.16Z" style="fill:#231f20"/><path d="M259.5,312.91v2h.06a4.69,4.69,0,0,1,2-1.83,6.07,6.07,0,0,1,2.64-.57,6.72,6.72,0,0,1,3.15.69,6.5,6.5,0,0,1,2.19,1.83,7.7,7.7,0,0,1,1.29,2.65,11.83,11.83,0,0,1,.42,3.17,10.66,10.66,0,0,1-.42,3,7.65,7.65,0,0,1-1.28,2.55,6.32,6.32,0,0,1-2.13,1.77,6.39,6.39,0,0,1-3,.66,6.06,6.06,0,0,1-2.66-.59,5,5,0,0,1-2-1.72h-.06v7.35h-4.26V312.91Zm5.53,12.3a3.43,3.43,0,0,0,1.14-1.1,4.49,4.49,0,0,0,.62-1.57,9.31,9.31,0,0,0,.18-1.83,8.62,8.62,0,0,0-.2-1.83,4.89,4.89,0,0,0-.64-1.61,3.61,3.61,0,0,0-1.16-1.14,3.21,3.21,0,0,0-1.72-.43,3.3,3.3,0,0,0-1.76.43,3.52,3.52,0,0,0-1.14,1.13,4.66,4.66,0,0,0-.61,1.59,9.46,9.46,0,0,0-.18,1.86,8.61,8.61,0,0,0,.19,1.83,4.7,4.7,0,0,0,.63,1.57,3.28,3.28,0,0,0,2.9,1.52A3.36,3.36,0,0,0,265,325.21Z" style="fill:#231f20"/><path d="M278.33,324.7a4.37,4.37,0,0,0,5,.28,2.64,2.64,0,0,0,1.13-1.36h3.75a7,7,0,0,1-2.76,4,8.12,8.12,0,0,1-4.5,1.2,8.8,8.8,0,0,1-3.29-.59,6.81,6.81,0,0,1-2.5-1.66,7.64,7.64,0,0,1-1.57-2.58,9.44,9.44,0,0,1-.55-3.3,8.83,8.83,0,0,1,.57-3.24,7.45,7.45,0,0,1,1.61-2.6,7.63,7.63,0,0,1,2.51-1.72,8,8,0,0,1,3.22-.63,7.42,7.42,0,0,1,3.46.76,7,7,0,0,1,2.41,2.06,8.44,8.44,0,0,1,1.36,2.94,11.25,11.25,0,0,1,.31,3.45h-11.2A4.35,4.35,0,0,0,278.33,324.7Zm4.82-8.16a3,3,0,0,0-2.33-.84,3.71,3.71,0,0,0-1.69.34,3.24,3.24,0,0,0-1.08.86,3.13,3.13,0,0,0-.57,1.08,4.93,4.93,0,0,0-.2,1h6.93A4.92,4.92,0,0,0,283.15,316.54Z" style="fill:#231f20"/><path d="M295,312.91v2.88h.07a5,5,0,0,1,.8-1.34,5.31,5.31,0,0,1,1.17-1.05,5.7,5.7,0,0,1,1.41-.67,5.09,5.09,0,0,1,1.56-.24,3.32,3.32,0,0,1,.93.15v4c-.2,0-.44-.08-.72-.11a7.57,7.57,0,0,0-.81,0,4.54,4.54,0,0,0-2,.39,3.4,3.4,0,0,0-1.3,1.06,4.3,4.3,0,0,0-.71,1.58,8.57,8.57,0,0,0-.21,1.95v7H291V312.91Z" style="fill:#231f20"/><path d="M302.78,310.51V307H307v3.51Zm4.26,2.4v15.51h-4.26V312.91Z" style="fill:#231f20"/><path d="M315,324.7a3.85,3.85,0,0,0,2.77.93,3.79,3.79,0,0,0,2.21-.65,2.67,2.67,0,0,0,1.14-1.36h3.75a7.07,7.07,0,0,1-2.76,4,8.12,8.12,0,0,1-4.5,1.2,8.8,8.8,0,0,1-3.29-.59,6.81,6.81,0,0,1-2.5-1.66,7.64,7.64,0,0,1-1.57-2.58,9.44,9.44,0,0,1-.56-3.3,8.84,8.84,0,0,1,.58-3.24,7.45,7.45,0,0,1,1.61-2.6,7.63,7.63,0,0,1,2.51-1.72,8,8,0,0,1,3.22-.63,7.42,7.42,0,0,1,3.46.76,7,7,0,0,1,2.41,2.06,8.44,8.44,0,0,1,1.36,2.94,11.25,11.25,0,0,1,.31,3.45h-11.2A4.35,4.35,0,0,0,315,324.7Zm4.82-8.16a3,3,0,0,0-2.33-.84,3.71,3.71,0,0,0-1.69.34,3.24,3.24,0,0,0-1.08.86,3.13,3.13,0,0,0-.57,1.08,4.93,4.93,0,0,0-.2,1h6.93A4.92,4.92,0,0,0,319.78,316.54Z" style="fill:#231f20"/><path d="M331.67,312.91v2.16h.09a4.9,4.9,0,0,1,2.1-2,6.07,6.07,0,0,1,2.64-.61,7.27,7.27,0,0,1,2.81.46,4.14,4.14,0,0,1,1.72,1.29,5,5,0,0,1,.89,2,12.56,12.56,0,0,1,.25,2.63v9.54h-4.26v-8.76a5.46,5.46,0,0,0-.6-2.87,2.32,2.32,0,0,0-2.13-.94,3,3,0,0,0-2.52,1,5.77,5.77,0,0,0-.78,3.41v8.13h-4.26V312.91Z" style="fill:#231f20"/><path d="M352.82,315.7a3,3,0,0,0-1.71.46,3.68,3.68,0,0,0-1.12,1.2,5.19,5.19,0,0,0-.62,1.62,8.84,8.84,0,0,0-.18,1.76,8.43,8.43,0,0,0,.18,1.71A5.27,5.27,0,0,0,350,324a3.36,3.36,0,0,0,1.09,1.16,3,3,0,0,0,1.68.45,3.14,3.14,0,0,0,2.36-.86,4,4,0,0,0,1-2.29h4.11a7,7,0,0,1-2.4,4.71,7.75,7.75,0,0,1-5.07,1.62,8.46,8.46,0,0,1-3.19-.59,7.09,7.09,0,0,1-2.48-1.63,7.47,7.47,0,0,1-1.59-2.51,8.66,8.66,0,0,1-.57-3.19,10.36,10.36,0,0,1,.53-3.35,7.52,7.52,0,0,1,1.54-2.67,7.06,7.06,0,0,1,2.49-1.75,8.46,8.46,0,0,1,3.36-.63,9.76,9.76,0,0,1,2.66.36,7.08,7.08,0,0,1,2.28,1.09,5.68,5.68,0,0,1,2.35,4.43H356A2.86,2.86,0,0,0,352.82,315.7Z" style="fill:#231f20"/><path d="M367.19,324.7a4.35,4.35,0,0,0,5,.28,2.67,2.67,0,0,0,1.14-1.36h3.75a7.12,7.12,0,0,1-2.76,4,8.12,8.12,0,0,1-4.5,1.2,8.86,8.86,0,0,1-3.3-.59,6.85,6.85,0,0,1-2.49-1.66,7.48,7.48,0,0,1-1.57-2.58,9.44,9.44,0,0,1-.56-3.3,9,9,0,0,1,.57-3.24,7.45,7.45,0,0,1,4.13-4.32,8,8,0,0,1,3.22-.63,7.37,7.37,0,0,1,3.45.76,6.92,6.92,0,0,1,2.42,2.06,8.44,8.44,0,0,1,1.36,2.94,11,11,0,0,1,.3,3.45H366.14A4.31,4.31,0,0,0,367.19,324.7Zm4.82-8.16a3,3,0,0,0-2.33-.84A3.69,3.69,0,0,0,368,316a3.24,3.24,0,0,0-1.08.86,3.13,3.13,0,0,0-.57,1.08,4.93,4.93,0,0,0-.2,1h6.93A4.92,4.92,0,0,0,372,316.54Z" style="fill:#231f20"/><path d="M94.7,398.78A9.9,9.9,0,0,1,88,400.9a9.85,9.85,0,0,1-6.73-2.1q-2.39-2.1-2.39-6.48V379h4.71v13.32a9.71,9.71,0,0,0,.15,1.71,3.45,3.45,0,0,0,.63,1.48,3.49,3.49,0,0,0,1.34,1.05A5.39,5.39,0,0,0,88,397c1.68,0,2.84-.38,3.48-1.13a5.34,5.34,0,0,0,1-3.52V379h4.71v13.32Q97.13,396.67,94.7,398.78Z" style="fill:#fff"/><path d="M104.32,396.56a2.37,2.37,0,0,0,.73.81,3.13,3.13,0,0,0,1,.47,5,5,0,0,0,1.22.15,4.53,4.53,0,0,0,.94-.11,3.4,3.4,0,0,0,.91-.33,2.13,2.13,0,0,0,.67-.6,1.56,1.56,0,0,0,.27-.94c0-.64-.43-1.12-1.27-1.44a26,26,0,0,0-3.56-1c-.62-.14-1.23-.31-1.82-.5a6.33,6.33,0,0,1-1.57-.75,3.65,3.65,0,0,1-1.11-1.17,3.3,3.3,0,0,1-.42-1.72,4.57,4.57,0,0,1,.59-2.46,4.31,4.31,0,0,1,1.54-1.52,6.77,6.77,0,0,1,2.16-.78,13.32,13.32,0,0,1,2.46-.22,12.24,12.24,0,0,1,2.44.24,6.5,6.5,0,0,1,2.12.81,4.82,4.82,0,0,1,1.54,1.51,5,5,0,0,1,.74,2.39h-4.05a1.87,1.87,0,0,0-.93-1.67,4.25,4.25,0,0,0-2-.43,7.28,7.28,0,0,0-.78,0,2.49,2.49,0,0,0-.76.2,1.5,1.5,0,0,0-.59.43,1.29,1.29,0,0,0,.18,1.7,3.21,3.21,0,0,0,1.09.58,14.33,14.33,0,0,0,1.55.41l1.77.39a17.9,17.9,0,0,1,1.81.51,6,6,0,0,1,1.58.79,3.84,3.84,0,0,1,1.11,1.23,3.63,3.63,0,0,1,.42,1.82,4.83,4.83,0,0,1-.62,2.56,4.92,4.92,0,0,1-1.6,1.67,6.6,6.6,0,0,1-2.27.88,13.15,13.15,0,0,1-2.59.26,12.85,12.85,0,0,1-2.64-.27,7,7,0,0,1-2.3-.9,5,5,0,0,1-1.64-1.67,5.1,5.1,0,0,1-.71-2.59h4A2.22,2.22,0,0,0,104.32,396.56Z" style="fill:#fff"/><path d="M121.4,396.7a4.35,4.35,0,0,0,5,.28,2.67,2.67,0,0,0,1.14-1.36h3.75a7.12,7.12,0,0,1-2.76,4,8.12,8.12,0,0,1-4.5,1.2,8.86,8.86,0,0,1-3.3-.59,6.85,6.85,0,0,1-2.49-1.66,7.48,7.48,0,0,1-1.57-2.58,9.44,9.44,0,0,1-.56-3.3,9,9,0,0,1,.57-3.24,7.45,7.45,0,0,1,4.13-4.32,8,8,0,0,1,3.22-.63,7.37,7.37,0,0,1,3.45.76,6.92,6.92,0,0,1,2.42,2.06,8.44,8.44,0,0,1,1.36,2.94,11,11,0,0,1,.3,3.45H120.35A4.31,4.31,0,0,0,121.4,396.7Zm4.82-8.16a3,3,0,0,0-2.33-.84,3.76,3.76,0,0,0-1.7.34,3.45,3.45,0,0,0-1.08.86,3.1,3.1,0,0,0-.56,1.08,4.93,4.93,0,0,0-.2,1h6.93A4.92,4.92,0,0,0,126.22,388.54Z" style="fill:#fff"/><path d="M138.11,384.91v2.88h.06a5.33,5.33,0,0,1,2-2.39,5.7,5.7,0,0,1,1.41-.67,5.09,5.09,0,0,1,1.56-.24,3.32,3.32,0,0,1,.93.15v4c-.2,0-.44-.08-.72-.11a7.57,7.57,0,0,0-.81,0,4.54,4.54,0,0,0-2,.39,3.51,3.51,0,0,0-1.31,1.06,4.29,4.29,0,0,0-.7,1.58,8.57,8.57,0,0,0-.21,1.95v7h-4.26V384.91Z" style="fill:#fff"/><path d="M71.69,415l8.94,14.37h.06V415H85.1v21.42H80.39l-8.91-14.34h-.06v14.34H67V415Z" style="fill:#fff"/><path d="M93.35,432.7a4.35,4.35,0,0,0,5,.28,2.67,2.67,0,0,0,1.14-1.36h3.75a7.12,7.12,0,0,1-2.76,4,8.12,8.12,0,0,1-4.5,1.2,8.86,8.86,0,0,1-3.3-.59,6.85,6.85,0,0,1-2.49-1.66A7.5,7.5,0,0,1,88.59,432a9.44,9.44,0,0,1-.55-3.3,9.14,9.14,0,0,1,.57-3.25,7.68,7.68,0,0,1,1.62-2.59,7.59,7.59,0,0,1,2.5-1.72,8.06,8.06,0,0,1,3.23-.63,7.37,7.37,0,0,1,3.45.76,6.88,6.88,0,0,1,2.41,2.06,8.45,8.45,0,0,1,1.37,2.94,11,11,0,0,1,.3,3.45H92.3A4.31,4.31,0,0,0,93.35,432.7Zm4.81-8.16a3,3,0,0,0-2.32-.84,3.73,3.73,0,0,0-1.7.34,3.24,3.24,0,0,0-1.08.86,3.13,3.13,0,0,0-.57,1.08,4.85,4.85,0,0,0-.19,1h6.93A4.93,4.93,0,0,0,98.16,424.54Z" style="fill:#fff"/><path d="M110.57,432.7a4.35,4.35,0,0,0,5,.28,2.67,2.67,0,0,0,1.14-1.36h3.75a7.12,7.12,0,0,1-2.76,4,8.12,8.12,0,0,1-4.5,1.2,8.86,8.86,0,0,1-3.3-.59,6.85,6.85,0,0,1-2.49-1.66,7.5,7.5,0,0,1-1.58-2.58,9.44,9.44,0,0,1-.55-3.3,9.14,9.14,0,0,1,.57-3.25,7.68,7.68,0,0,1,1.62-2.59,7.59,7.59,0,0,1,2.5-1.72,8.06,8.06,0,0,1,3.23-.63,7.37,7.37,0,0,1,3.45.76,6.88,6.88,0,0,1,2.41,2.06,8.45,8.45,0,0,1,1.37,2.94,11,11,0,0,1,.3,3.45H109.52A4.31,4.31,0,0,0,110.57,432.7Zm4.81-8.16a3,3,0,0,0-2.32-.84,3.73,3.73,0,0,0-1.7.34,3.24,3.24,0,0,0-1.08.86,3.13,3.13,0,0,0-.57,1.08,4.85,4.85,0,0,0-.19,1h6.93A4.93,4.93,0,0,0,115.38,424.54Z" style="fill:#fff"/><path d="M134.24,434.43a4.36,4.36,0,0,1-2,1.82,6.51,6.51,0,0,1-2.74.56,6.63,6.63,0,0,1-3.06-.68,6.16,6.16,0,0,1-2.18-1.83,8.28,8.28,0,0,1-1.29-2.65,11.14,11.14,0,0,1-.43-3.12,10.5,10.5,0,0,1,.43-3,7.81,7.81,0,0,1,1.29-2.56,6.46,6.46,0,0,1,2.15-1.79,6.38,6.38,0,0,1,3-.67,6.07,6.07,0,0,1,2.62.58,4.6,4.6,0,0,1,2,1.73h.06V415h4.26v21.42h-4v-2Zm-.18-7.66a4.52,4.52,0,0,0-.62-1.56,3.43,3.43,0,0,0-1.12-1.09,3.3,3.3,0,0,0-1.74-.42,3.46,3.46,0,0,0-1.77.42,3.34,3.34,0,0,0-1.16,1.11,4.88,4.88,0,0,0-.63,1.57,8.6,8.6,0,0,0-.19,1.85,7.9,7.9,0,0,0,.21,1.8,4.88,4.88,0,0,0,.67,1.6,3.74,3.74,0,0,0,1.17,1.14,3.19,3.19,0,0,0,1.7.44,3.36,3.36,0,0,0,1.75-.42,3.22,3.22,0,0,0,1.13-1.13,5,5,0,0,0,.6-1.6,9.46,9.46,0,0,0,.18-1.86A9.29,9.29,0,0,0,134.06,426.77Z" style="fill:#fff"/><path d="M145.14,432.56a2.5,2.5,0,0,0,.74.81,3.13,3.13,0,0,0,1,.47,4.91,4.91,0,0,0,1.22.15,4.53,4.53,0,0,0,.94-.11,3.21,3.21,0,0,0,.9-.33,2.06,2.06,0,0,0,.68-.6,1.56,1.56,0,0,0,.27-.94c0-.64-.43-1.12-1.28-1.44a25.36,25.36,0,0,0-3.55-1c-.62-.14-1.23-.31-1.82-.5a6.17,6.17,0,0,1-1.57-.75,3.65,3.65,0,0,1-1.11-1.17,3.3,3.3,0,0,1-.42-1.72,4.67,4.67,0,0,1,.58-2.46,4.34,4.34,0,0,1,1.55-1.52,6.77,6.77,0,0,1,2.16-.78,13.32,13.32,0,0,1,2.46-.22,12.24,12.24,0,0,1,2.44.24,6.5,6.5,0,0,1,2.12.81,4.82,4.82,0,0,1,1.54,1.51,5.11,5.11,0,0,1,.74,2.38h-4a1.87,1.87,0,0,0-.93-1.66,4.25,4.25,0,0,0-2-.43,7.28,7.28,0,0,0-.78,0,2.64,2.64,0,0,0-.77.2,1.55,1.55,0,0,0-.58.43,1.29,1.29,0,0,0,.18,1.7,3.21,3.21,0,0,0,1.09.58,13.74,13.74,0,0,0,1.55.41l1.77.39a17.9,17.9,0,0,1,1.81.51,6,6,0,0,1,1.58.79,3.84,3.84,0,0,1,1.11,1.23,3.62,3.62,0,0,1,.42,1.81,4.76,4.76,0,0,1-2.22,4.24,6.6,6.6,0,0,1-2.27.88,13.15,13.15,0,0,1-2.59.26,12.85,12.85,0,0,1-2.64-.27,7,7,0,0,1-2.3-.9,4.94,4.94,0,0,1-2.35-4.26h4.05A2.32,2.32,0,0,0,145.14,432.56Z" style="fill:#fff"/></svg>