<svg id="Layer_1" data-name="Layer 1" xmlns="http://www.w3.org/2000/svg" viewBox="0 0 50.89 50"><path id="book-library-search" d="M26.53,8.84a12.5,12.5,0,0,1,.14-1.74l-.14,0H17.69a1.76,1.76,0,0,0-1.77,1.76V47.76a1.77,1.77,0,0,0,1.77,1.77h8.84a1.77,1.77,0,0,0,1.77-1.77V15.19A12.36,12.36,0,0,1,26.53,8.84ZM24.76,45.11a.88.88,0,0,1-.88.88H20.34a.88.88,0,0,1-.88-.88V43.34a.88.88,0,0,1,.88-.89h3.54a.88.88,0,0,1,.88.89Zm0-31.84a.88.88,0,0,1-.88.88H20.34a.88.88,0,0,1-.88-.88V11.5a.88.88,0,0,1,.88-.89h3.54a.88.88,0,0,1,.88.89ZM42.9,20.55a12,12,0,0,1-4,.68,12.28,12.28,0,0,1-7-2.21l5.2,29.52A1.77,1.77,0,0,0,39.13,50l8.71-1.53a1.77,1.77,0,0,0,1.43-2L45.11,22.76Zm1.71,24.86L41.13,46a.9.9,0,0,1-1-.72l-.3-1.74a.88.88,0,0,1,.71-1L44,41.93a.88.88,0,0,1,1,.72l.31,1.74A.88.88,0,0,1,44.61,45.41Zm-34-38.33H1.77A1.76,1.76,0,0,0,0,8.84V47.76a1.77,1.77,0,0,0,1.77,1.77h8.84a1.77,1.77,0,0,0,1.77-1.77V8.84A1.76,1.76,0,0,0,10.61,7.08Zm-1.77,38A.88.88,0,0,1,8,46H4.42a.88.88,0,0,1-.88-.88V43.34a.88.88,0,0,1,.88-.89H8a.88.88,0,0,1,.88.89Zm0-31.84a.88.88,0,0,1-.88.88H4.42a.88.88,0,0,1-.88-.88V11.5a.88.88,0,0,1,.88-.89H8a.88.88,0,0,1,.88.89Zm41.79,4.57-4.27-4.27a8.7,8.7,0,0,0,1.4-4.73,8.85,8.85,0,1,0-8.85,8.85,8.7,8.7,0,0,0,4.73-1.4l4.27,4.27a.89.89,0,0,0,1.25,0l1.47-1.47A.89.89,0,0,0,50.63,17.84Zm-17-9a5.31,5.31,0,1,1,5.3,5.31A5.31,5.31,0,0,1,33.61,8.84Z" style="fill:#53aee2"/></svg>