<svg id="Layer_1" data-name="Layer 1" xmlns="http://www.w3.org/2000/svg" viewBox="0 0 51.97 50"><path id="brain-ai" d="M48.13,11.54A5.76,5.76,0,0,0,36.94,9.62H34.66a1.94,1.94,0,0,0-1.36.56l-2.53,2.53v5.44l4.69-4.69h1.48a5.76,5.76,0,0,0,11.19-1.92Zm-3.85,0a1.93,1.93,0,1,1-1.92-1.92A1.92,1.92,0,0,1,44.28,11.54ZM46.2,30.77a5.77,5.77,0,1,0-5.43-7.63,2,2,0,0,0-.34-.06H30.77v3.84h9.66a2,2,0,0,0,.34-.06A5.75,5.75,0,0,0,46.2,30.77Zm0-3.85A1.92,1.92,0,1,1,48.13,25,1.92,1.92,0,0,1,46.2,26.92ZM0,25a5.76,5.76,0,0,0,2,4.4,7.71,7.71,0,0,0-2,5.22v1.92a7.72,7.72,0,0,0,6.55,7.61A9.61,9.61,0,0,0,15.38,50h2.29c6.39,0,9.25-3.66,9.25-7.29V4.81A4.82,4.82,0,0,0,22.12,0H19.23a5.78,5.78,0,0,0-5.77,5.77H11.54a7.7,7.7,0,0,0-7.69,7.69v2.25A5.79,5.79,0,0,0,0,21.15Zm3.85-3.85a1.92,1.92,0,0,1,1.92-1.92,1.92,1.92,0,0,0,1.92-1.92V13.46a3.85,3.85,0,0,1,3.85-3.84h3.84a1.92,1.92,0,0,0,1.93-1.93V5.77a1.92,1.92,0,0,1,1.92-1.92h2.89a1,1,0,0,1,1,1V17.66a5.89,5.89,0,0,0-1.93-.35H19.23a1.92,1.92,0,0,1-1.92-1.93,1.93,1.93,0,0,0-3.85,0,1.92,1.92,0,0,1-1.92,1.93,1.92,1.92,0,0,0,0,3.84,5.67,5.67,0,0,0,3.84-1.5,5.72,5.72,0,0,0,3.85,1.5h1.92a1.94,1.94,0,0,1,1.93,1.93v9.61a1.94,1.94,0,0,1-1.93,1.93H19.23a5.72,5.72,0,0,0-3.85,1.5,5.67,5.67,0,0,0-3.84-1.5,1.92,1.92,0,1,0,0,3.84,1.92,1.92,0,0,1,1.92,1.92,1.93,1.93,0,1,0,3.85,0,1.92,1.92,0,0,1,1.92-1.92h1.92a1.93,1.93,0,0,1,1.93,1.92v2.33c0,2.13-2.08,3.44-5.41,3.44H15.38a5.75,5.75,0,0,1-5.57-4.32A1.92,1.92,0,0,0,8,40.38H7.69a3.84,3.84,0,0,1-3.84-3.84V34.62a3.85,3.85,0,0,1,3.84-3.85,1.93,1.93,0,1,0,0-3.85H5.77A1.92,1.92,0,0,1,3.85,25Zm9.61,1.93A1.92,1.92,0,0,1,15.38,25a1.93,1.93,0,0,0,1.93,1.92,1.93,1.93,0,0,1,0,3.85A5.78,5.78,0,0,1,11.54,25,1.92,1.92,0,0,1,13.46,23.08ZM30.77,37.29l2.53,2.53a1.94,1.94,0,0,0,1.36.56h2.28a5.77,5.77,0,1,0,0-3.84H35.46l-4.69-4.69Zm9.66,1.17a1.93,1.93,0,1,1,1.93,1.92A1.93,1.93,0,0,1,40.43,38.46Z" style="fill:#53aee2"/></svg>