<svg id="Layer_1" data-name="Layer 1" xmlns="http://www.w3.org/2000/svg" viewBox="0 0 40.91 50"><path id="database" d="M40.4,39.53a2.25,2.25,0,0,1,.51,1.38v2.27c0,4.14-8,6.82-20.46,6.82S0,47.32,0,43.18V40.91a2.25,2.25,0,0,1,.51-1.38c4.2,2.39,10.94,3.65,19.94,3.65S36.2,41.92,40.4,39.53ZM20.45,31.82c-9,0-15.74-1.26-19.94-3.65A2.23,2.23,0,0,0,0,29.55v2.27C0,36,8,38.64,20.45,38.64S40.91,36,40.91,31.82V29.55a2.23,2.23,0,0,0-.51-1.38C36.2,30.56,29.46,31.82,20.45,31.82ZM20.45,0C8,0,0,2.68,0,6.82V9.09c0,4.14,8,6.82,20.45,6.82s20.46-2.68,20.46-6.82V6.82C40.91,2.68,32.88,0,20.45,0Zm0,20.45c-9,0-15.74-1.26-19.94-3.64A2.2,2.2,0,0,0,0,18.18v2.27c0,4.15,8,6.82,20.45,6.82s20.46-2.67,20.46-6.82V18.18a2.2,2.2,0,0,0-.51-1.37C36.2,19.19,29.46,20.45,20.45,20.45Z" style="fill:#53aee2"/></svg>