<svg id="Layer_1" data-name="Layer 1" xmlns="http://www.w3.org/2000/svg" viewBox="0 0 50 50"><path id="stats" d="M11.22,39.14a2.07,2.07,0,0,1-.36-2.92l4.37-5.63a5.13,5.13,0,0,1-.65-2.47,5.2,5.2,0,0,1,8.94-3.62l7.76-2.91a5.19,5.19,0,0,1,5.18-4.92l.26,0,4.09-8.17a5.12,5.12,0,0,1-1.23-3.31,5.21,5.21,0,1,1,5.21,5.21c-.09,0-.17,0-.26,0l-4.09,8.17a5.12,5.12,0,0,1,1.23,3.31,5.2,5.2,0,0,1-8.94,3.63L25,28.41a5.19,5.19,0,0,1-5.18,4.92,5.33,5.33,0,0,1-1.27-.17l-4.38,5.62a2.08,2.08,0,0,1-2.92.36ZM49,41.67H46.88a1,1,0,0,0-1.05,1v2.08a1,1,0,0,1-1,1H42.71a1,1,0,0,1-1-1V42.71a1,1,0,0,0-1.05-1H38.54a1,1,0,0,0-1,1v2.08a1,1,0,0,1-1,1H34.38a1,1,0,0,1-1.05-1V42.71a1,1,0,0,0-1-1H30.21a1,1,0,0,0-1,1v2.08a1,1,0,0,1-1.05,1H26a1,1,0,0,1-1-1V42.71a1,1,0,0,0-1-1H21.87a1,1,0,0,0-1,1v2.08a1,1,0,0,1-1,1H17.71a1,1,0,0,1-1-1V42.71a1,1,0,0,0-1.05-1H13.54a1,1,0,0,0-1,1v2.08a1,1,0,0,1-1,1H9.37a1,1,0,0,1-1-1V42.71a1,1,0,0,0-1-1H5.21a1,1,0,0,1-1-1.05V38.54a1,1,0,0,1,1-1H7.29a1,1,0,0,0,1-1V34.38a1,1,0,0,0-1-1.05H5.21a1,1,0,0,1-1-1V30.21a1,1,0,0,1,1-1H7.29a1,1,0,0,0,1-1.05V26a1,1,0,0,0-1-1H5.21a1,1,0,0,1-1-1V21.87a1,1,0,0,1,1-1H7.29a1,1,0,0,0,1-1V17.71a1,1,0,0,0-1-1H5.21a1,1,0,0,1-1-1.05V13.54a1,1,0,0,1,1-1H7.29a1,1,0,0,0,1-1V9.37a1,1,0,0,0-1-1H5.21a1,1,0,0,1-1-1V5.21a1,1,0,0,1,1-1H7.29a1,1,0,0,0,1-1V1a1,1,0,0,0-1-1H2.08A2.08,2.08,0,0,0,0,2.08V47.92A2.08,2.08,0,0,0,2.08,50H47.92A2.08,2.08,0,0,0,50,47.92V42.71A1,1,0,0,0,49,41.67Z" style="fill:#53aee2"/></svg>