<svg id="Layer_1" data-name="Layer 1" xmlns="http://www.w3.org/2000/svg" viewBox="0 0 54.17 50"><path id="computer-all-in-one" d="M35.42,45.83v2.09A2.09,2.09,0,0,1,33.33,50H20.83a2.08,2.08,0,0,1-2.08-2.08V45.83a2.08,2.08,0,0,1,2.08-2.08h12.5A2.09,2.09,0,0,1,35.42,45.83ZM54.17,3.12V36.46A3.13,3.13,0,0,1,51,39.58H3.12A3.13,3.13,0,0,1,0,36.46V3.12A3.12,3.12,0,0,1,3.12,0H51A3.13,3.13,0,0,1,54.17,3.12Zm-25,29.17a1,1,0,0,0-1.05-1H26a1,1,0,0,0-1,1v2.09a1,1,0,0,0,1,1h2.08a1,1,0,0,0,1.05-1Zm18.75-26H6.25V27.08H47.92Z" style="fill:#53aee2"/></svg>