<svg id="Layer_1" data-name="Layer 1" xmlns="http://www.w3.org/2000/svg" viewBox="0 0 50 50"><path id="thumbnails-small" d="M12.5,3.12V9.37A3.13,3.13,0,0,1,9.37,12.5H3.12A3.13,3.13,0,0,1,0,9.37V3.12A3.12,3.12,0,0,1,3.12,0H9.37A3.13,3.13,0,0,1,12.5,3.12ZM9.37,18.75H3.12A3.12,3.12,0,0,0,0,21.87v6.25a3.13,3.13,0,0,0,3.12,3.13H9.37a3.13,3.13,0,0,0,3.13-3.13V21.87A3.13,3.13,0,0,0,9.37,18.75Zm0,18.75H3.12A3.12,3.12,0,0,0,0,40.62v6.26A3.12,3.12,0,0,0,3.12,50H9.37a3.13,3.13,0,0,0,3.13-3.12V40.62A3.13,3.13,0,0,0,9.37,37.5ZM28.12,0H21.87a3.12,3.12,0,0,0-3.12,3.12V9.37a3.13,3.13,0,0,0,3.12,3.13h6.25a3.13,3.13,0,0,0,3.13-3.13V3.12A3.13,3.13,0,0,0,28.12,0Zm0,18.75H21.87a3.12,3.12,0,0,0-3.12,3.12v6.25a3.13,3.13,0,0,0,3.12,3.13h6.25a3.13,3.13,0,0,0,3.13-3.13V21.87A3.13,3.13,0,0,0,28.12,18.75Zm0,18.75H21.87a3.12,3.12,0,0,0-3.12,3.12v6.26A3.12,3.12,0,0,0,21.87,50h6.25a3.13,3.13,0,0,0,3.13-3.12V40.62A3.13,3.13,0,0,0,28.12,37.5ZM46.88,0H40.62A3.12,3.12,0,0,0,37.5,3.12V9.37a3.13,3.13,0,0,0,3.12,3.13h6.26A3.13,3.13,0,0,0,50,9.37V3.12A3.12,3.12,0,0,0,46.88,0Zm0,18.75H40.62a3.12,3.12,0,0,0-3.12,3.12v6.25a3.13,3.13,0,0,0,3.12,3.13h6.26A3.13,3.13,0,0,0,50,28.12V21.87A3.12,3.12,0,0,0,46.88,18.75Zm0,18.75H40.62a3.12,3.12,0,0,0-3.12,3.12v6.26A3.12,3.12,0,0,0,40.62,50h6.26A3.12,3.12,0,0,0,50,46.88V40.62A3.12,3.12,0,0,0,46.88,37.5Z" style="fill:#53aee2"/></svg>