<svg id="Layer_1" data-name="Layer 1" xmlns="http://www.w3.org/2000/svg" viewBox="0 0 56.52 50"><path id="book-open-text" d="M50,0H37a10.87,10.87,0,0,0-8.7,4.35A10.85,10.85,0,0,0,19.57,0h-13A6.53,6.53,0,0,0,0,6.52V39.13a6.52,6.52,0,0,0,6.52,6.52H19.57a2.74,2.74,0,0,1,2.51,1.68,4.33,4.33,0,0,0,4,2.67h4.36a4.34,4.34,0,0,0,4-2.67A2.72,2.72,0,0,1,37,45.65H50a6.52,6.52,0,0,0,6.52-6.52V6.52A6.53,6.53,0,0,0,50,0ZM26.09,41.31h-.4A6.5,6.5,0,0,0,19.57,37h-13a2.18,2.18,0,0,1-2.17-2.18V6.52A2.17,2.17,0,0,1,6.52,4.35H19.57a6.52,6.52,0,0,1,6.52,6.52Zm26.08-6.53A2.18,2.18,0,0,1,50,37H37a6.51,6.51,0,0,0-6.13,4.35h-.4V10.87A6.52,6.52,0,0,1,37,4.35H50a2.17,2.17,0,0,1,2.17,2.17ZM21.74,27.17v2.18a1.08,1.08,0,0,1-1.09,1.08H9.78A1.08,1.08,0,0,1,8.7,29.35V27.17a1.08,1.08,0,0,1,1.08-1.08H20.65A1.08,1.08,0,0,1,21.74,27.17Zm0-8.69v2.17a1.09,1.09,0,0,1-1.09,1.09H9.78A1.08,1.08,0,0,1,8.7,20.65V18.48a1.08,1.08,0,0,1,1.08-1.09H20.65A1.09,1.09,0,0,1,21.74,18.48Zm0-8.7V12A1.08,1.08,0,0,1,20.65,13H9.78A1.08,1.08,0,0,1,8.7,12V9.78A1.08,1.08,0,0,1,9.78,8.7H20.65A1.08,1.08,0,0,1,21.74,9.78Zm26.09,0V12A1.08,1.08,0,0,1,46.74,13H35.87A1.08,1.08,0,0,1,34.78,12V9.78A1.08,1.08,0,0,1,35.87,8.7H46.74A1.08,1.08,0,0,1,47.83,9.78ZM43.48,27.17v2.18a1.08,1.08,0,0,1-1.09,1.08H35.87a1.08,1.08,0,0,1-1.09-1.08V27.17a1.08,1.08,0,0,1,1.09-1.08h6.52A1.08,1.08,0,0,1,43.48,27.17Zm4.35-8.69v2.17a1.09,1.09,0,0,1-1.09,1.09H35.87a1.09,1.09,0,0,1-1.09-1.09V18.48a1.09,1.09,0,0,1,1.09-1.09H46.74A1.09,1.09,0,0,1,47.83,18.48Z" style="fill:#53aee2"/></svg>