<svg id="Layer_1" data-name="Layer 1" xmlns="http://www.w3.org/2000/svg" viewBox="0 0 814.63 530"><path d="M814.63,60a60,60,0,0,0-60-60H510.2c-30,0-55.08,26.23-55.47,59.2C454.34,92.71,479,120,509.39,120H754.63a60,60,0,0,0,60-60Z" style="fill:#0b6333"/><path d="M275.06,91.71h0A72.06,72.06,0,0,1,334.77,60h130" style="fill:none;stroke:#bcbec0;stroke-miterlimit:10;stroke-width:5px"/><path d="M814.63,470a60,60,0,0,0-60-60H510.2c-30,0-55.08,26.23-55.47,59.2C454.34,502.71,479,530,509.39,530H754.63a60,60,0,0,0,60-60Z" style="fill:#295ca7"/><path d="M274.49,438h0a52.27,52.27,0,0,0,48.19,32H464.73" style="fill:none;stroke:#bcbec0;stroke-miterlimit:10;stroke-width:5px"/><circle cx="274.49" cy="437.96" r="10" style="fill:#bcbec0"/><circle cx="275.06" cy="91.71" r="10" style="fill:#bcbec0"/><path d="M172.5,265V90a175,175,0,0,0,0,349.94Z" style="fill:#bcbec0"/><path d="M177.5,269.33V440a174.86,174.86,0,0,0,147.79-85.3Z" style="fill:#295ca7"/><path d="M327.8,350.33a175.06,175.06,0,0,0,0-170.66L180,265Z" style="fill:#4b5b5e"/><path d="M177.5,260.67l147.79-85.33A174.91,174.91,0,0,0,177.5,90Z" style="fill:#0b6333"/><circle cx="175" cy="265" r="167.5" style="fill:#fff"/><path d="M814.63,265a60,60,0,0,0-60-60H510.2c-30,0-55.08,26.23-55.47,59.2C454.34,297.71,479,325,509.39,325H754.63a60,60,0,0,0,60-60Z" style="fill:#4b5b5e"/><circle cx="514.73" cy="265" r="50" style="fill:#fff"/><polygon points="359.73 265 349.73 259.23 349.73 270.77 359.73 265" style="fill:#4b5b5e"/><polygon points="267.53 104.83 257.53 110.6 267.53 116.37 267.53 104.83" style="fill:#0b6333"/><circle cx="374.73" cy="265" r="10" style="fill:#bcbec0"/><line x1="374.73" y1="265" x2="464.73" y2="265" style="fill:none;stroke:#bcbec0;stroke-miterlimit:10;stroke-width:5px"/><polygon points="267.11 424.94 267.11 413.39 257.11 419.16 267.11 424.94" style="fill:#295ca7"/><circle cx="374.73" cy="265" r="5" style="fill:#4b5b5e;stroke:#fff;stroke-miterlimit:10"/><circle cx="274.49" cy="437.96" r="5" style="fill:#295ca7;stroke:#fff;stroke-miterlimit:10"/><circle cx="275.06" cy="91.71" r="5" style="fill:#0b6333;stroke:#fff;stroke-miterlimit:10"/><path id="cogwheel" d="M540.39,262.43a1.11,1.11,0,0,0-.83-.94L533.48,260a19.4,19.4,0,0,0-1.93-4.68l3.22-5.36a1.1,1.1,0,0,0-.09-1.25,24.91,24.91,0,0,0-3.63-3.63,1.1,1.1,0,0,0-1.25-.09l-5.36,3.22a19.4,19.4,0,0,0-4.68-1.93l-1.52-6.08a1.12,1.12,0,0,0-.94-.83,24.13,24.13,0,0,0-2.57-.15,24.48,24.48,0,0,0-2.58.15,1.1,1.1,0,0,0-.93.83l-1.52,6.08a19,19,0,0,0-4.67,1.93L499.66,245a1.1,1.1,0,0,0-1.25.08,25.49,25.49,0,0,0-3.63,3.64,1.1,1.1,0,0,0-.09,1.25l3.22,5.36A19.07,19.07,0,0,0,496,260l-6.09,1.52a1.1,1.1,0,0,0-.82.94,24.13,24.13,0,0,0-.15,2.57,24.48,24.48,0,0,0,.15,2.58,1.09,1.09,0,0,0,.82.93L496,270a19.07,19.07,0,0,0,1.93,4.68l-3.22,5.36a1.1,1.1,0,0,0,.08,1.25,26.09,26.09,0,0,0,3.64,3.64,1.1,1.1,0,0,0,1.25.08l5.36-3.22a19.07,19.07,0,0,0,4.68,1.93l1.52,6.09a1.09,1.09,0,0,0,.93.82,24.48,24.48,0,0,0,2.58.15,24.13,24.13,0,0,0,2.57-.15,1.11,1.11,0,0,0,.94-.82l1.52-6.09a19.07,19.07,0,0,0,4.68-1.93L529.8,285a1.12,1.12,0,0,0,1.26-.09,26,26,0,0,0,3.63-3.63,1.1,1.1,0,0,0,.08-1.25l-3.22-5.36a19.23,19.23,0,0,0,1.93-4.68l6.08-1.52a1.1,1.1,0,0,0,.83-.93,24.48,24.48,0,0,0,.15-2.58A24.13,24.13,0,0,0,540.39,262.43ZM514.73,274a9,9,0,1,1,9-9A9,9,0,0,1,514.73,274Z" style="fill:#4b5b5e"/><path d="M594,252.15a5.41,5.41,0,0,1-1,3.66,4.57,4.57,0,0,1-3.51,1.14H585V240.38h4.49a4.68,4.68,0,0,1,3.46,1.07,4.82,4.82,0,0,1,1,3.4,4.9,4.9,0,0,1-.41,2.09,2.76,2.76,0,0,1-1.39,1.32,2.63,2.63,0,0,1,1.46,1.41A6.57,6.57,0,0,1,594,252.15Zm-6.1-5.12h1.25a1.84,1.84,0,0,0,1.44-.46,3.12,3.12,0,0,0,0-3.09,1.88,1.88,0,0,0-1.44-.45h-1.25Zm3.15,4.9a2.86,2.86,0,0,0-.45-1.8,1.78,1.78,0,0,0-1.48-.55h-1.22v4.73h1.22a1.82,1.82,0,0,0,1.52-.54A3.16,3.16,0,0,0,591.07,251.93Z" style="fill:#fff"/><path d="M596.52,255a4.74,4.74,0,0,1-.58-2.38V240.38h2.95v12.15a2.38,2.38,0,0,0,.38,1.48,1.45,1.45,0,0,0,1.18.46c1,0,1.56-.64,1.56-1.94V240.38h3V252.6a4.74,4.74,0,0,1-.58,2.38,4,4,0,0,1-1.6,1.59,4.76,4.76,0,0,1-2.33.57,4.67,4.67,0,0,1-2.32-.57A4.1,4.1,0,0,1,596.52,255Z" style="fill:#fff"/><path d="M610,240.38V257h-2.93V240.38Z" style="fill:#fff"/><path d="M615.06,240.38v13.93h4.44V257h-7.39V240.38Z" style="fill:#fff"/><path d="M625.5,240.38a4.29,4.29,0,0,1,4.61,4.76v7.05a4.54,4.54,0,0,1-1.32,3.54,4.86,4.86,0,0,1-3.43,1.22h-4.44V240.38Zm1.22,13.28a3.19,3.19,0,0,0,.44-1.8v-6.22a3.52,3.52,0,0,0-.43-1.93,1.45,1.45,0,0,0-1.3-.66h-1.58v11.26h1.58A1.48,1.48,0,0,0,626.72,253.66Z" style="fill:#fff"/><path d="M591.66,274a2.49,2.49,0,0,1-.78,2,3.16,3.16,0,0,1-2.15.7h-3.62v-9.67h3.54a3,3,0,0,1,2.11.67,2.38,2.38,0,0,1,.75,1.88,2.34,2.34,0,0,1-.39,1.33,2.05,2.05,0,0,1-1.1.81,2.28,2.28,0,0,1,1.23.86A2.57,2.57,0,0,1,591.66,274Zm-5.53-2.75h2.41a2.23,2.23,0,0,0,1.43-.41,1.52,1.52,0,0,0,.52-1.25,1.56,1.56,0,0,0-.51-1.27,2.12,2.12,0,0,0-1.43-.43h-2.42Zm4.51,2.68a1.65,1.65,0,0,0-.53-1.32,2.21,2.21,0,0,0-1.49-.45h-2.49v3.58h2.48a2.23,2.23,0,0,0,1.5-.47A1.68,1.68,0,0,0,590.64,273.89Z" style="fill:#fff"/><path d="M593.44,274v-4.5h.95v4.37a2.36,2.36,0,0,0,.38,1.48,1.52,1.52,0,0,0,1.27.49,1.55,1.55,0,0,0,1.28-.48,2.4,2.4,0,0,0,.37-1.49V269.5h1V274a2.85,2.85,0,0,1-.65,2,2.61,2.61,0,0,1-2,.69,2.54,2.54,0,0,1-1.94-.69A2.8,2.8,0,0,1,593.44,274Z" style="fill:#fff"/><path d="M601.64,267.08v1.26h-1v-1.26Zm0,2.42v7.11h-1V269.5Z" style="fill:#fff"/><path d="M603.63,274.74v-7.8h1v7.75a1.25,1.25,0,0,0,.21.8.88.88,0,0,0,.69.25h.57v.87h-.67a1.68,1.68,0,0,1-1.3-.48A2,2,0,0,1,603.63,274.74Z" style="fill:#fff"/><path d="M607,273.78v-1.46a3.13,3.13,0,0,1,.67-2.21,2.3,2.3,0,0,1,1.74-.7,2,2,0,0,1,1.9,1.09v-3.56h1v9.67h-1v-.94a1.85,1.85,0,0,1-.76.76,2.45,2.45,0,0,1-1.16.26,2.28,2.28,0,0,1-1.72-.71A3.08,3.08,0,0,1,607,273.78Zm4.31-.07v-1.25a2.65,2.65,0,0,0-.43-1.59,1.48,1.48,0,0,0-1.29-.59q-1.62,0-1.62,2.1v1.34c0,1.41.52,2.12,1.57,2.12a1.59,1.59,0,0,0,1.33-.59A2.53,2.53,0,0,0,611.34,273.71Z" style="fill:#fff"/><path d="M616.83,273.78v-1.46a2.92,2.92,0,0,1,.74-2.21,2.78,2.78,0,0,1,2-.7,2.72,2.72,0,0,1,2,.7,2.91,2.91,0,0,1,.73,2.21v1.46a2.94,2.94,0,0,1-.73,2.21,2.72,2.72,0,0,1-2,.7,2.82,2.82,0,0,1-2-.69A3,3,0,0,1,616.83,273.78Zm4.47-.06v-1.34a2.31,2.31,0,0,0-.47-1.64,1.72,1.72,0,0,0-1.27-.46,1.78,1.78,0,0,0-1.3.46,2.26,2.26,0,0,0-.48,1.64v1.34a2.29,2.29,0,0,0,.48,1.65,1.79,1.79,0,0,0,1.3.47,1.73,1.73,0,0,0,1.27-.47A2.34,2.34,0,0,0,621.3,273.72Z" style="fill:#fff"/><path d="M623.93,274v-4.5h1v4.37a2.42,2.42,0,0,0,.38,1.48,1.92,1.92,0,0,0,2.55,0,2.4,2.4,0,0,0,.38-1.49V269.5h.95V274a2.85,2.85,0,0,1-.65,2,2.59,2.59,0,0,1-2,.69,2.54,2.54,0,0,1-1.94-.69A2.85,2.85,0,0,1,623.93,274Z" style="fill:#fff"/><path d="M632.54,274.8c0,.64.3,1,.91,1H634v.84h-.72a1.67,1.67,0,0,1-1.26-.47,1.78,1.78,0,0,1-.46-1.3v-4.58h-1.1v-.76h1.1v-1.62l1-.45v2.07h1.6v.76h-1.6Z" style="fill:#fff"/><path d="M638.22,273.78v-1.46a2.92,2.92,0,0,1,.74-2.21,2.78,2.78,0,0,1,2-.7,2.7,2.7,0,0,1,2,.7,2.91,2.91,0,0,1,.73,2.21v1.46a2.94,2.94,0,0,1-.73,2.21,2.7,2.7,0,0,1-2,.7,2.82,2.82,0,0,1-2-.69A3,3,0,0,1,638.22,273.78Zm4.47-.06v-1.34a2.31,2.31,0,0,0-.47-1.64,1.71,1.71,0,0,0-1.27-.46,1.78,1.78,0,0,0-1.3.46,2.26,2.26,0,0,0-.48,1.64v1.34a2.29,2.29,0,0,0,.48,1.65,1.79,1.79,0,0,0,1.3.47,1.71,1.71,0,0,0,1.27-.47A2.34,2.34,0,0,0,642.69,273.72Z" style="fill:#fff"/><path d="M646.83,269.5h1.49v.76h-1.49v6.35h-1v-6.35H645v-.76h.9v-.79a1.79,1.79,0,0,1,.45-1.29,1.64,1.64,0,0,1,1.26-.48h.74v.76h-.59q-.9,0-.9,1Z" style="fill:#fff"/><path d="M653.48,269.5v.87a2,2,0,0,1,.81-.7,2.63,2.63,0,0,1,2.36.06,2.07,2.07,0,0,1,.8.88,2.59,2.59,0,0,1,3.92-.52,2.58,2.58,0,0,1,.63,1.85v4.67h-1v-4.53a1.88,1.88,0,0,0-.43-1.34,1.55,1.55,0,0,0-1.2-.46,1.59,1.59,0,0,0-1.22.46,1.81,1.81,0,0,0-.44,1.3v4.57h-1v-4.53a1.88,1.88,0,0,0-.43-1.34,1.53,1.53,0,0,0-1.2-.46,1.63,1.63,0,0,0-1.21.46,1.87,1.87,0,0,0-.45,1.34v4.53h-1V269.5Z" style="fill:#fff"/><path d="M664.63,273.66a2.31,2.31,0,0,0,.49,1.69,1.85,1.85,0,0,0,1.36.49,1.79,1.79,0,0,0,1.18-.37,1.27,1.27,0,0,0,.43-1v0H669v.07a2,2,0,0,1-.69,1.6,2.82,2.82,0,0,1-1.91.6,2.69,2.69,0,0,1-2-.74,3.15,3.15,0,0,1-.75-2.31V272.4a3.05,3.05,0,0,1,.75-2.26,3,3,0,0,1,3.91,0,3.09,3.09,0,0,1,.74,2.26v.84h-4.44Zm0-1.28v.15h3.48v-.25a2.12,2.12,0,0,0-.46-1.56,1.74,1.74,0,0,0-1.27-.44,1.76,1.76,0,0,0-1.28.46A2.31,2.31,0,0,0,664.63,272.38Z" style="fill:#fff"/><path d="M672.24,274.8c0,.64.31,1,.91,1h.56v.84H673a1.71,1.71,0,0,1-1.27-.47,1.82,1.82,0,0,1-.45-1.3v-4.58h-1.11v-.76h1.11v-1.62l1-.45v2.07h1.6v.76h-1.6Z" style="fill:#fff"/><path d="M676.26,266.94v3.43a2.17,2.17,0,0,1,1.91-.95,2.28,2.28,0,0,1,1.73.66,2.63,2.63,0,0,1,.62,1.86v4.67h-.95v-4.53a1.88,1.88,0,0,0-.44-1.34,1.56,1.56,0,0,0-1.2-.46,1.6,1.6,0,0,0-1.21.46,1.83,1.83,0,0,0-.46,1.34v4.53h-1v-9.67Z" style="fill:#fff"/><path d="M682.2,273.78v-1.46a2.88,2.88,0,0,1,.74-2.21,2.76,2.76,0,0,1,2-.7,2.7,2.7,0,0,1,2,.7,2.92,2.92,0,0,1,.74,2.21v1.46a3,3,0,0,1-.74,2.21,2.7,2.7,0,0,1-2,.7,2.8,2.8,0,0,1-2-.69A2.92,2.92,0,0,1,682.2,273.78Zm4.46-.06v-1.34a2.26,2.26,0,0,0-.47-1.64,1.7,1.7,0,0,0-1.26-.46,1.81,1.81,0,0,0-1.31.46,2.31,2.31,0,0,0-.47,1.64v1.34a2.34,2.34,0,0,0,.47,1.65,1.81,1.81,0,0,0,1.31.47,1.71,1.71,0,0,0,1.26-.47A2.29,2.29,0,0,0,686.66,273.72Z" style="fill:#fff"/><path d="M689.07,273.78v-1.46a3.13,3.13,0,0,1,.67-2.21,2.3,2.3,0,0,1,1.74-.7,2,2,0,0,1,1.9,1.09v-3.56h1v9.67h-1v-.94a1.85,1.85,0,0,1-.76.76,2.45,2.45,0,0,1-1.16.26,2.28,2.28,0,0,1-1.72-.71A3.08,3.08,0,0,1,689.07,273.78Zm4.31-.07v-1.25a2.65,2.65,0,0,0-.43-1.59,1.48,1.48,0,0,0-1.29-.59q-1.62,0-1.62,2.1v1.34c0,1.41.52,2.12,1.56,2.12a1.59,1.59,0,0,0,1.34-.59A2.53,2.53,0,0,0,693.38,273.71Z" style="fill:#fff"/><path d="M695.86,274.62v-.06h.92v0a1.11,1.11,0,0,0,.46.93,2,2,0,0,0,1.22.35,2.19,2.19,0,0,0,1.26-.32,1.09,1.09,0,0,0,.45-.93.93.93,0,0,0-.31-.78,2.24,2.24,0,0,0-1-.38l-.88-.16a3,3,0,0,1-1.51-.61,1.61,1.61,0,0,1-.48-1.26,1.8,1.8,0,0,1,.69-1.48,2.74,2.74,0,0,1,1.78-.55,3,3,0,0,1,1.87.54,1.67,1.67,0,0,1,.7,1.4v.09h-.92v0a1,1,0,0,0-.43-.89,2,2,0,0,0-1.2-.32,1.85,1.85,0,0,0-1.15.32,1.06,1.06,0,0,0-.41.89.91.91,0,0,0,.29.72,2,2,0,0,0,.94.37l.92.17a3.25,3.25,0,0,1,1.55.63,1.63,1.63,0,0,1,.5,1.28,1.84,1.84,0,0,1-.73,1.57,3.13,3.13,0,0,1-2,.55,2.92,2.92,0,0,1-1.86-.56A1.82,1.82,0,0,1,695.86,274.62Z" style="fill:#fff"/><path d="M710.23,271.77v4.84h-.94v-.76a2,2,0,0,1-.8.64,3.09,3.09,0,0,1-1.16.2,2.6,2.6,0,0,1-1.74-.53,2,2,0,0,1-.62-1.56,1.86,1.86,0,0,1,.63-1.49,2.58,2.58,0,0,1,1.75-.54h1.92v-.81a1.51,1.51,0,0,0-.42-1.16,1.68,1.68,0,0,0-1.19-.4,1.8,1.8,0,0,0-1.14.33,1.11,1.11,0,0,0-.41.91v0h-.93v-.07a1.81,1.81,0,0,1,.66-1.46,3.32,3.32,0,0,1,3.72.06A2.27,2.27,0,0,1,710.23,271.77Zm-1,2.43v-.93h-1.78q-1.56,0-1.56,1.32c0,.89.51,1.33,1.55,1.33a1.86,1.86,0,0,0,1.37-.43A1.76,1.76,0,0,0,709.27,274.2Z" style="fill:#fff"/><path d="M713.07,269.5v.87a2,2,0,0,1,.8-.71,2.52,2.52,0,0,1,1.12-.24,2.23,2.23,0,0,1,1.74.67,2.61,2.61,0,0,1,.61,1.85v4.67h-1v-4.53a1.88,1.88,0,0,0-.44-1.34,1.56,1.56,0,0,0-1.2-.46,1.6,1.6,0,0,0-1.21.46,1.83,1.83,0,0,0-.46,1.34v4.53h-1V269.5Z" style="fill:#fff"/><path d="M719,273.78v-1.46a3.13,3.13,0,0,1,.68-2.21,2.28,2.28,0,0,1,1.73-.7,2,2,0,0,1,1.91,1.09v-3.56h1v9.67h-1v-.94a1.92,1.92,0,0,1-.76.76,2.48,2.48,0,0,1-1.16.26,2.28,2.28,0,0,1-1.72-.71A3.08,3.08,0,0,1,719,273.78Zm4.32-.07v-1.25a2.72,2.72,0,0,0-.43-1.59,1.48,1.48,0,0,0-1.29-.59c-1.09,0-1.63.7-1.63,2.1v1.34c0,1.41.52,2.12,1.57,2.12a1.57,1.57,0,0,0,1.33-.59A2.47,2.47,0,0,0,723.33,273.71Z" style="fill:#fff"/><path d="M586.13,283.88v1.26h-1v-1.26Zm0,2.42v7.11h-1V286.3Z" style="fill:#fff"/><path d="M589.05,286.3v.87a2.05,2.05,0,0,1,.81-.71,2.51,2.51,0,0,1,1.11-.24,2.24,2.24,0,0,1,1.75.67,2.66,2.66,0,0,1,.61,1.85v4.67h-1v-4.53a1.88,1.88,0,0,0-.43-1.34,1.57,1.57,0,0,0-1.2-.47,1.64,1.64,0,0,0-1.22.47,1.87,1.87,0,0,0-.45,1.34v4.53h-1V286.3Z" style="fill:#fff"/><path d="M596.74,286.3h1.49v.76h-1.49v6.35h-1v-6.35h-.89v-.76h.89v-.79a1.78,1.78,0,0,1,.46-1.29,1.63,1.63,0,0,1,1.25-.48h.75v.76h-.59q-.9,0-.9,1Z" style="fill:#fff"/><path d="M600.55,286.3v1a1.86,1.86,0,0,1,.78-.79,2.16,2.16,0,0,1,1.08-.26,3,3,0,0,1,.52,0v.95a2.43,2.43,0,0,0-.73-.11,1.53,1.53,0,0,0-1.18.5,1.88,1.88,0,0,0-.46,1.32v4.5h-.95V286.3Z" style="fill:#fff"/><path d="M609,288.57v4.84h-.94v-.76a1.92,1.92,0,0,1-.8.64,3,3,0,0,1-1.16.2,2.59,2.59,0,0,1-1.73-.53,2,2,0,0,1-.62-1.56,1.89,1.89,0,0,1,.62-1.49,2.61,2.61,0,0,1,1.76-.54H608v-.81a1.51,1.51,0,0,0-.42-1.16,1.69,1.69,0,0,0-1.19-.4,1.76,1.76,0,0,0-1.14.33,1.09,1.09,0,0,0-.42.91v0H604v-.07a1.81,1.81,0,0,1,.66-1.46,3.32,3.32,0,0,1,3.72.06A2.26,2.26,0,0,1,609,288.57ZM608,291v-.93h-1.78c-1,0-1.57.44-1.57,1.32s.52,1.33,1.56,1.33a1.83,1.83,0,0,0,1.36-.43A1.72,1.72,0,0,0,608,291Z" style="fill:#fff"/><path d="M610.5,291.42v-.06h.93v0a1.1,1.1,0,0,0,.45.93,2,2,0,0,0,1.23.35,2.16,2.16,0,0,0,1.25-.32,1.09,1.09,0,0,0,.46-.93.93.93,0,0,0-.32-.78,2.24,2.24,0,0,0-1-.38l-.88-.16a3,3,0,0,1-1.51-.61,1.61,1.61,0,0,1-.48-1.26,1.8,1.8,0,0,1,.69-1.48,2.74,2.74,0,0,1,1.78-.55,3,3,0,0,1,1.87.54,1.68,1.68,0,0,1,.71,1.4v.09h-.93v0a1,1,0,0,0-.43-.89,2,2,0,0,0-1.19-.32,1.88,1.88,0,0,0-1.16.32,1.08,1.08,0,0,0-.41.89,1,1,0,0,0,.29.72,2,2,0,0,0,.94.37l.93.17a3.21,3.21,0,0,1,1.54.63,1.63,1.63,0,0,1,.5,1.28,1.84,1.84,0,0,1-.73,1.57,3.12,3.12,0,0,1-2,.55,2.92,2.92,0,0,1-1.86-.56A1.82,1.82,0,0,1,610.5,291.42Z" style="fill:#fff"/><path d="M618.66,291.6c0,.64.31,1,.92,1h.56v.84h-.72a1.71,1.71,0,0,1-1.27-.47,1.82,1.82,0,0,1-.45-1.3v-4.58h-1.11v-.76h1.11v-1.62l1-.45v2.07h1.6v.76h-1.6Z" style="fill:#fff"/><path d="M622.67,286.3v1a1.81,1.81,0,0,1,.78-.79,2.16,2.16,0,0,1,1.08-.26,3,3,0,0,1,.52,0v.95a2.43,2.43,0,0,0-.73-.11,1.52,1.52,0,0,0-1.18.5,1.88,1.88,0,0,0-.46,1.32v4.5h-.95V286.3Z" style="fill:#fff"/><path d="M626.25,290.8v-4.5h1v4.37a2.42,2.42,0,0,0,.38,1.48,1.92,1.92,0,0,0,2.55,0,2.4,2.4,0,0,0,.38-1.49V286.3h1v4.5a2.85,2.85,0,0,1-.65,2,2.58,2.58,0,0,1-2,.69,2.55,2.55,0,0,1-1.94-.69A2.85,2.85,0,0,1,626.25,290.8Z" style="fill:#fff"/><path d="M633.14,290.58v-1.46a2.88,2.88,0,0,1,.75-2.21,2.81,2.81,0,0,1,2-.7,2.73,2.73,0,0,1,1.92.64,2.18,2.18,0,0,1,.71,1.72v.07h-.92v-.07a1.38,1.38,0,0,0-.45-1.1,1.76,1.76,0,0,0-1.22-.4,1.9,1.9,0,0,0-1.36.47,2.22,2.22,0,0,0-.49,1.64v1.34a2.24,2.24,0,0,0,.49,1.65,1.86,1.86,0,0,0,1.35.47,1.82,1.82,0,0,0,1.23-.4,1.38,1.38,0,0,0,.45-1.1v-.07h.92v.05a2.24,2.24,0,0,1-.71,1.73,2.74,2.74,0,0,1-1.91.64,2.86,2.86,0,0,1-2-.69A2.92,2.92,0,0,1,633.14,290.58Z" style="fill:#fff"/><path d="M641.71,291.6c0,.64.3,1,.91,1h.56v.84h-.72a1.67,1.67,0,0,1-1.26-.47,1.78,1.78,0,0,1-.46-1.3v-4.58h-1.11v-.76h1.11v-1.62l1-.45v2.07h1.59v.76h-1.59Z" style="fill:#fff"/><path d="M644.77,290.8v-4.5h1v4.37a2.42,2.42,0,0,0,.38,1.48,1.55,1.55,0,0,0,1.28.49,1.51,1.51,0,0,0,1.27-.48,2.4,2.4,0,0,0,.38-1.49V286.3h1v4.5a2.8,2.8,0,0,1-.65,2,2.58,2.58,0,0,1-2,.69,2.55,2.55,0,0,1-1.94-.69A2.85,2.85,0,0,1,644.77,290.8Z" style="fill:#fff"/><path d="M652.82,286.3v1a1.92,1.92,0,0,1,.78-.79,2.17,2.17,0,0,1,1.09-.26,2.85,2.85,0,0,1,.51,0v.95a2.36,2.36,0,0,0-.72-.11,1.55,1.55,0,0,0-1.19.5,1.92,1.92,0,0,0-.45,1.32v4.5h-1V286.3Z" style="fill:#fff"/><path d="M657.13,290.46a2.35,2.35,0,0,0,.49,1.69,1.87,1.87,0,0,0,1.36.49,1.8,1.8,0,0,0,1.19-.37,1.26,1.26,0,0,0,.42-1v0h.93v.07a2,2,0,0,1-.69,1.6,2.85,2.85,0,0,1-1.92.6,2.72,2.72,0,0,1-2-.74,3.19,3.19,0,0,1-.74-2.31V289.2a3.09,3.09,0,0,1,.74-2.26,2.68,2.68,0,0,1,2-.73,2.63,2.63,0,0,1,2,.73,3.09,3.09,0,0,1,.74,2.26V290h-4.45Zm0-1.28v.15h3.49v-.25a2.12,2.12,0,0,0-.46-1.56,2,2,0,0,0-2.55,0A2.26,2.26,0,0,0,657.13,289.18Z" style="fill:#fff"/><path d="M589.58,34.28A4.29,4.29,0,0,1,594.19,39v7.06a4.57,4.57,0,0,1-1.32,3.54,4.93,4.93,0,0,1-3.44,1.21H585V34.28Zm1.21,13.27a3.19,3.19,0,0,0,.44-1.8V39.53a3.52,3.52,0,0,0-.43-1.93,1.45,1.45,0,0,0-1.3-.66h-1.58V48.2h1.58A1.48,1.48,0,0,0,590.79,47.55Z" style="fill:#fff"/><path d="M599,41.09h3.84v2.64H599V48.2h4.47v2.64h-7.4V34.28h7.4v2.66H599Z" style="fill:#fff"/><path d="M604.55,46.11h2.79a3.14,3.14,0,0,0,.49,1.8,1.55,1.55,0,0,0,1.31.57A1.49,1.49,0,0,0,610.4,48a2.87,2.87,0,0,0,.39-1.68,2.4,2.4,0,0,0-.44-1.53,4.12,4.12,0,0,0-1.5-1l-1.13-.51a5.29,5.29,0,0,1-2.31-1.77,5,5,0,0,1-.71-2.83,4.57,4.57,0,0,1,1.21-3.34A4.37,4.37,0,0,1,609.19,34a4,4,0,0,1,3.15,1.24,5.37,5.37,0,0,1,1.19,3.56h-2.71a3.26,3.26,0,0,0-.4-1.69,1.36,1.36,0,0,0-1.23-.56c-1.08,0-1.61.63-1.61,1.89a2.22,2.22,0,0,0,.39,1.38,3.41,3.41,0,0,0,1.33.93l1.08.48a5.67,5.67,0,0,1,2.51,1.92,5.37,5.37,0,0,1,.78,3.07,4.92,4.92,0,0,1-1.2,3.55,4.5,4.5,0,0,1-3.4,1.25,4.3,4.3,0,0,1-3.34-1.27A5.36,5.36,0,0,1,604.55,46.11Z" style="fill:#fff"/><path d="M618.35,34.28V50.84h-2.93V34.28Z" style="fill:#fff"/><path d="M620.37,46.28V38.81a4.59,4.59,0,0,1,1.32-3.56A4.93,4.93,0,0,1,625.17,34a4.72,4.72,0,0,1,3.33,1.17,4.52,4.52,0,0,1,1.28,3.48v.51h-3v-.51a2.07,2.07,0,0,0-.48-1.47,1.59,1.59,0,0,0-1.24-.52,1.5,1.5,0,0,0-1.36.65,3.61,3.61,0,0,0-.42,1.94v6.65c0,1.62.59,2.42,1.78,2.42a1.5,1.5,0,0,0,1.29-.58,2.83,2.83,0,0,0,.43-1.69V44.33h-1.75V42h4.71v4.28a4.56,4.56,0,0,1-1.33,3.52A4.89,4.89,0,0,1,625,51a4.63,4.63,0,0,1-3.38-1.21A4.69,4.69,0,0,1,620.37,46.28Z" style="fill:#fff"/><path d="M641.06,50.84h-3L634.65,42v8.84H631.7V34.28h2.95l3.45,9.21V34.28h3Z" style="fill:#fff"/><circle cx="514.73" cy="60" r="50" style="fill:#fff"/><path id="book-library-search" d="M515.85,43.32a13.1,13.1,0,0,1,.14-1.79.58.58,0,0,0-.14,0h-9.13a1.82,1.82,0,0,0-1.82,1.82V83.49a1.83,1.83,0,0,0,1.82,1.83h9.13a1.83,1.83,0,0,0,1.83-1.83V49.87A12.69,12.69,0,0,1,515.85,43.32ZM514,80.75a.92.92,0,0,1-.92.92h-3.65a.92.92,0,0,1-.91-.92V78.93a.91.91,0,0,1,.91-.91h3.65a.91.91,0,0,1,.92.91Zm0-32.86a.92.92,0,0,1-.92.91h-3.65a.91.91,0,0,1-.91-.91V46.06a.91.91,0,0,1,.91-.91h3.65a.92.92,0,0,1,.92.91Zm18.72,7.52a12.5,12.5,0,0,1-4.12.69,12.64,12.64,0,0,1-7.26-2.28l5.37,30.48a1.83,1.83,0,0,0,2.12,1.48l9-1.59a1.83,1.83,0,0,0,1.48-2.11L535,57.69Zm1.77,25.66-3.6.64a.93.93,0,0,1-1.06-.74l-.31-1.8a.91.91,0,0,1,.74-1.06l3.59-.63a.91.91,0,0,1,1.06.74l.32,1.79A.93.93,0,0,1,534.52,81.07ZM499.42,41.5h-9.13a1.82,1.82,0,0,0-1.83,1.82V83.49a1.83,1.83,0,0,0,1.83,1.83h9.13a1.83,1.83,0,0,0,1.83-1.83V43.32A1.82,1.82,0,0,0,499.42,41.5Zm-1.83,39.25a.91.91,0,0,1-.91.92H493a.92.92,0,0,1-.91-.92V78.93A.91.91,0,0,1,493,78h3.65a.9.9,0,0,1,.91.91Zm0-32.86a.91.91,0,0,1-.91.91H493a.91.91,0,0,1-.91-.91V46.06a.91.91,0,0,1,.91-.91h3.65a.91.91,0,0,1,.91.91Zm43.14,4.72-4.41-4.41a9,9,0,0,0,1.44-4.88,9.13,9.13,0,1,0-9.13,9.13A9,9,0,0,0,533.51,51l4.41,4.4a.91.91,0,0,0,1.29,0l1.52-1.51A.92.92,0,0,0,540.73,52.61Zm-17.57-9.29a5.48,5.48,0,1,1,5.47,5.48A5.47,5.47,0,0,1,523.16,43.32Z" style="fill:#0b6333"/><path d="M591.68,70.5h-1V66h-4.52V70.5h-1V60.83h1v4.26h4.52V60.83h1Z" style="fill:#fff"/><path d="M595.82,71.27a2.07,2.07,0,0,1-.7,1,1.89,1.89,0,0,1-1.17.33h-.42v-.87h.35a1.21,1.21,0,0,0,.78-.21,1.52,1.52,0,0,0,.43-.69l.14-.43-2.44-7h1L595.69,69l1.86-5.64h1Z" style="fill:#fff"/><path d="M599.37,67.67V66.21A3.17,3.17,0,0,1,600,64a2.3,2.3,0,0,1,1.74-.7,2.05,2.05,0,0,1,1.91,1.09V60.83h1V70.5h-1v-.94a1.94,1.94,0,0,1-.77.76,2.44,2.44,0,0,1-1.15.26,2.26,2.26,0,0,1-1.73-.71A3.13,3.13,0,0,1,599.37,67.67Zm4.32-.07V66.35a2.65,2.65,0,0,0-.44-1.59,1.48,1.48,0,0,0-1.29-.59q-1.62,0-1.62,2.1v1.34c0,1.41.52,2.12,1.57,2.12a1.57,1.57,0,0,0,1.33-.59A2.47,2.47,0,0,0,603.69,67.6Z" style="fill:#fff"/><path d="M607.49,63.4v.95a1.92,1.92,0,0,1,.78-.79,2.17,2.17,0,0,1,1.09-.26,2.92,2.92,0,0,1,.51,0v1a2.38,2.38,0,0,0-.73-.11,1.53,1.53,0,0,0-1.18.5,1.92,1.92,0,0,0-.45,1.32v4.5h-1V63.4Z" style="fill:#fff"/><path d="M610.85,67.67V66.21a2.92,2.92,0,0,1,.74-2.21,2.78,2.78,0,0,1,2-.7,2.72,2.72,0,0,1,2,.7,2.91,2.91,0,0,1,.73,2.21v1.46a2.93,2.93,0,0,1-.73,2.21,2.72,2.72,0,0,1-2,.7,2.82,2.82,0,0,1-2-.69A2.93,2.93,0,0,1,610.85,67.67Zm4.47-.06V66.27a2.31,2.31,0,0,0-.47-1.64,1.72,1.72,0,0,0-1.27-.46,1.78,1.78,0,0,0-1.3.46,2.26,2.26,0,0,0-.48,1.64v1.34a2.27,2.27,0,0,0,.48,1.65,1.79,1.79,0,0,0,1.3.47,1.73,1.73,0,0,0,1.27-.47A2.32,2.32,0,0,0,615.32,67.61Z" style="fill:#fff"/><path d="M619,61v1.26h-1V61Zm0,2.43v7.1h-1V63.4Z" style="fill:#fff"/><path d="M622,63.4v.86a2,2,0,0,1,.8-.71,2.59,2.59,0,0,1,1.12-.24,2.22,2.22,0,0,1,1.74.67,2.61,2.61,0,0,1,.61,1.85V70.5h-1V66a1.88,1.88,0,0,0-.44-1.34,1.56,1.56,0,0,0-1.2-.46,1.61,1.61,0,0,0-1.21.46A1.83,1.83,0,0,0,622,66V70.5h-1V63.4Z" style="fill:#fff"/><path d="M629.65,63.4h1.49v.75h-1.49V70.5h-1V64.15h-.9V63.4h.9v-.8a1.79,1.79,0,0,1,.45-1.29,1.66,1.66,0,0,1,1.26-.48h.74v.76h-.59q-.9,0-.9,1Z" style="fill:#fff"/><path d="M632.3,67.67V66.21A2.92,2.92,0,0,1,633,64a2.78,2.78,0,0,1,2-.7,2.7,2.7,0,0,1,2,.7,2.92,2.92,0,0,1,.74,2.21v1.46a2.93,2.93,0,0,1-.74,2.21,2.7,2.7,0,0,1-2,.7,2.82,2.82,0,0,1-2-.69A2.93,2.93,0,0,1,632.3,67.67Zm4.47-.06V66.27a2.31,2.31,0,0,0-.47-1.64,1.72,1.72,0,0,0-1.27-.46,1.77,1.77,0,0,0-1.3.46,2.26,2.26,0,0,0-.48,1.64v1.34a2.27,2.27,0,0,0,.48,1.65,1.77,1.77,0,0,0,1.3.47,1.73,1.73,0,0,0,1.27-.47A2.32,2.32,0,0,0,636.77,67.61Z" style="fill:#fff"/><path d="M640.34,63.4v.95a1.84,1.84,0,0,1,.77-.79,2.22,2.22,0,0,1,1.09-.26,3,3,0,0,1,.52,0v1a2.48,2.48,0,0,0-.73-.11,1.52,1.52,0,0,0-1.18.5,1.88,1.88,0,0,0-.46,1.32v4.5h-1V63.4Z" style="fill:#fff"/><path d="M644.86,63.4v.86a1.93,1.93,0,0,1,.8-.7,2.46,2.46,0,0,1,1.12-.25,2.33,2.33,0,0,1,1.24.31,2,2,0,0,1,.8.88A2.35,2.35,0,0,1,651,63.31a2.28,2.28,0,0,1,1.76.67,2.58,2.58,0,0,1,.63,1.85V70.5h-1V66a1.92,1.92,0,0,0-.42-1.34,1.56,1.56,0,0,0-1.2-.46,1.61,1.61,0,0,0-1.23.46,1.86,1.86,0,0,0-.44,1.3V70.5h-1V66a1.92,1.92,0,0,0-.42-1.34,1.56,1.56,0,0,0-1.2-.46,1.61,1.61,0,0,0-1.21.46,1.83,1.83,0,0,0-.46,1.34V70.5h-1V63.4Z" style="fill:#fff"/><path d="M660.13,65.66V70.5h-.93v-.76a2.05,2.05,0,0,1-.8.64,3.11,3.11,0,0,1-1.17.2,2.59,2.59,0,0,1-1.73-.53,2,2,0,0,1-.62-1.56A1.89,1.89,0,0,1,655.5,67a2.63,2.63,0,0,1,1.76-.54h1.92v-.81a1.51,1.51,0,0,0-.42-1.16,1.69,1.69,0,0,0-1.19-.39,1.76,1.76,0,0,0-1.14.32,1.09,1.09,0,0,0-.41.91v0h-.93V65.3a1.81,1.81,0,0,1,.66-1.46,3.32,3.32,0,0,1,3.72.06A2.26,2.26,0,0,1,660.13,65.66Zm-1,2.43v-.93H657.4c-1,0-1.57.44-1.57,1.32s.52,1.33,1.56,1.33a1.83,1.83,0,0,0,1.36-.43A1.72,1.72,0,0,0,659.18,68.09Z" style="fill:#fff"/><path d="M663.54,68.69c0,.64.3,1,.91,1H665v.84h-.72A1.71,1.71,0,0,1,663,70a1.82,1.82,0,0,1-.45-1.3V64.15h-1.11V63.4h1.11V61.77l1-.45V63.4h1.59v.75h-1.59Z" style="fill:#fff"/><path d="M667.69,61v1.26h-1V61Zm0,2.43v7.1h-.95V63.4Z" style="fill:#fff"/><path d="M669.45,67.67V66.21A2.88,2.88,0,0,1,670.2,64a2.81,2.81,0,0,1,2-.7,2.74,2.74,0,0,1,1.93.64,2.23,2.23,0,0,1,.71,1.72v.07h-.93v-.07a1.41,1.41,0,0,0-.44-1.1,1.81,1.81,0,0,0-1.22-.39,1.88,1.88,0,0,0-1.36.46,2.22,2.22,0,0,0-.49,1.64v1.34a2.27,2.27,0,0,0,.48,1.65,1.86,1.86,0,0,0,1.35.47,1.78,1.78,0,0,0,1.24-.4,1.41,1.41,0,0,0,.44-1.1v-.07h.93v0a2.21,2.21,0,0,1-.72,1.73,2.72,2.72,0,0,1-1.9.64,2.53,2.53,0,0,1-2.78-2.91Z" style="fill:#fff"/><path d="M676.13,68.51v-.06h.93v0a1.12,1.12,0,0,0,.45.94,2.06,2.06,0,0,0,1.23.34,2.16,2.16,0,0,0,1.25-.32,1.07,1.07,0,0,0,.46-.93.93.93,0,0,0-.32-.78,2.24,2.24,0,0,0-1-.38l-.89-.16a3,3,0,0,1-1.51-.61,1.61,1.61,0,0,1-.47-1.26,1.79,1.79,0,0,1,.68-1.48,2.74,2.74,0,0,1,1.78-.55,3,3,0,0,1,1.88.54,1.7,1.7,0,0,1,.7,1.4v.09h-.93v0a1,1,0,0,0-.43-.89,2,2,0,0,0-1.19-.32,1.88,1.88,0,0,0-1.16.32,1.08,1.08,0,0,0-.41.89,1,1,0,0,0,.29.72,2,2,0,0,0,.94.37l.93.17a3.21,3.21,0,0,1,1.54.63,1.61,1.61,0,0,1,.5,1.29,1.84,1.84,0,0,1-.73,1.56,3.1,3.1,0,0,1-1.94.55,2.93,2.93,0,0,1-1.87-.56A1.85,1.85,0,0,1,676.13,68.51Z" style="fill:#fff"/><path d="M686.58,63.4v.95a1.81,1.81,0,0,1,.78-.79,2.16,2.16,0,0,1,1.08-.26,3,3,0,0,1,.52,0v1a2.43,2.43,0,0,0-.73-.11,1.53,1.53,0,0,0-1.18.5,1.88,1.88,0,0,0-.46,1.32v4.5h-1V63.4Z" style="fill:#fff"/><path d="M690.89,67.56a2.29,2.29,0,0,0,.49,1.68,1.83,1.83,0,0,0,1.36.49,1.72,1.72,0,0,0,1.18-.37,1.24,1.24,0,0,0,.43-1v0h.92v.07a2,2,0,0,1-.69,1.6,2.82,2.82,0,0,1-1.91.6,2.7,2.7,0,0,1-2-.74,3.14,3.14,0,0,1-.74-2.31V66.29a3,3,0,0,1,.74-2.26,3,3,0,0,1,3.91,0,3.09,3.09,0,0,1,.74,2.26v.84h-4.44Zm0-1.29v.15h3.49v-.25a2.12,2.12,0,0,0-.47-1.56,1.77,1.77,0,0,0-1.27-.44,1.72,1.72,0,0,0-1.27.46A2.26,2.26,0,0,0,690.89,66.27Z" style="fill:#fff"/><path d="M696.62,68.51v-.06h.92v0a1.1,1.1,0,0,0,.46.94,2,2,0,0,0,1.22.34,2.16,2.16,0,0,0,1.25-.32,1.07,1.07,0,0,0,.46-.93.93.93,0,0,0-.32-.78,2.19,2.19,0,0,0-1-.38l-.88-.16a3,3,0,0,1-1.52-.61,1.64,1.64,0,0,1-.47-1.26,1.82,1.82,0,0,1,.68-1.48,2.74,2.74,0,0,1,1.78-.55,3,3,0,0,1,1.88.54,1.67,1.67,0,0,1,.7,1.4v.09h-.92v0a1.05,1.05,0,0,0-.44-.89,2,2,0,0,0-1.19-.32,1.85,1.85,0,0,0-1.15.32,1.06,1.06,0,0,0-.42.89.92.92,0,0,0,.3.72,1.93,1.93,0,0,0,.93.37l.93.17a3.25,3.25,0,0,1,1.55.63,1.64,1.64,0,0,1,.49,1.29,1.86,1.86,0,0,1-.72,1.56,3.15,3.15,0,0,1-2,.55,2.88,2.88,0,0,1-1.86-.56A1.82,1.82,0,0,1,696.62,68.51Z" style="fill:#fff"/><path d="M704,67.56a2.29,2.29,0,0,0,.49,1.68,1.81,1.81,0,0,0,1.36.49,1.74,1.74,0,0,0,1.18-.37,1.24,1.24,0,0,0,.43-1v0h.92v.07a2,2,0,0,1-.69,1.6,2.82,2.82,0,0,1-1.91.6,2.69,2.69,0,0,1-2-.74,3.15,3.15,0,0,1-.75-2.31V66.29A3.05,3.05,0,0,1,703.8,64a3,3,0,0,1,3.91,0,3.09,3.09,0,0,1,.74,2.26v.84H704Zm0-1.29v.15h3.49v-.25a2.12,2.12,0,0,0-.47-1.56,1.78,1.78,0,0,0-1.27-.44,1.76,1.76,0,0,0-1.28.46A2.31,2.31,0,0,0,704,66.27Z" style="fill:#fff"/><path d="M715,65.66V70.5h-.94v-.76a2,2,0,0,1-.8.64,3.09,3.09,0,0,1-1.16.2,2.6,2.6,0,0,1-1.74-.53,2,2,0,0,1-.62-1.56,1.86,1.86,0,0,1,.63-1.49,2.58,2.58,0,0,1,1.75-.54H714v-.81a1.51,1.51,0,0,0-.42-1.16,1.67,1.67,0,0,0-1.19-.39,1.8,1.8,0,0,0-1.14.32,1.09,1.09,0,0,0-.41.91v0h-.93V65.3a1.81,1.81,0,0,1,.66-1.46,3.32,3.32,0,0,1,3.72.06A2.27,2.27,0,0,1,715,65.66Zm-1,2.43v-.93h-1.78q-1.56,0-1.56,1.32c0,.89.51,1.33,1.55,1.33a1.86,1.86,0,0,0,1.37-.43A1.76,1.76,0,0,0,714,68.09Z" style="fill:#fff"/><path d="M717.83,63.4v.95a1.84,1.84,0,0,1,.77-.79,2.22,2.22,0,0,1,1.09-.26,3,3,0,0,1,.52,0v1a2.48,2.48,0,0,0-.73-.11,1.55,1.55,0,0,0-1.19.5,1.92,1.92,0,0,0-.45,1.32v4.5h-1V63.4Z" style="fill:#fff"/><path d="M721.18,67.67V66.21a2.88,2.88,0,0,1,.75-2.21,2.81,2.81,0,0,1,2-.7,2.74,2.74,0,0,1,1.93.64,2.23,2.23,0,0,1,.71,1.72v.07h-.93v-.07a1.38,1.38,0,0,0-.45-1.1,1.76,1.76,0,0,0-1.21-.39,1.88,1.88,0,0,0-1.36.46,2.22,2.22,0,0,0-.49,1.64v1.34a2.27,2.27,0,0,0,.48,1.65,1.86,1.86,0,0,0,1.35.47,1.74,1.74,0,0,0,1.23-.4,1.38,1.38,0,0,0,.45-1.1v-.07h.93v0a2.21,2.21,0,0,1-.72,1.73,2.72,2.72,0,0,1-1.9.64,2.53,2.53,0,0,1-2.78-2.91Z" style="fill:#fff"/><path d="M729.21,60.83v3.43a2.15,2.15,0,0,1,1.9-1,2.25,2.25,0,0,1,1.73.66,2.59,2.59,0,0,1,.63,1.86V70.5h-1V66a1.88,1.88,0,0,0-.43-1.34,1.57,1.57,0,0,0-1.21-.46,1.63,1.63,0,0,0-1.21.46,1.87,1.87,0,0,0-.45,1.34V70.5h-1V60.83Z" style="fill:#fff"/><path d="M743.07,65.66V70.5h-.94v-.76a1.92,1.92,0,0,1-.8.64,3.05,3.05,0,0,1-1.16.2,2.6,2.6,0,0,1-1.74-.53,2,2,0,0,1-.61-1.56,1.86,1.86,0,0,1,.62-1.49,2.61,2.61,0,0,1,1.76-.54h1.92v-.81a1.51,1.51,0,0,0-.42-1.16,1.69,1.69,0,0,0-1.19-.39,1.81,1.81,0,0,0-1.15.32,1.12,1.12,0,0,0-.41.91v0H738V65.3a1.83,1.83,0,0,1,.65-1.46,2.79,2.79,0,0,1,1.81-.54,2.75,2.75,0,0,1,1.91.6A2.23,2.23,0,0,1,743.07,65.66Zm-1,2.43v-.93h-1.78c-1.05,0-1.57.44-1.57,1.32s.52,1.33,1.55,1.33a1.85,1.85,0,0,0,1.37-.43A1.76,1.76,0,0,0,742.12,68.09Z" style="fill:#fff"/><path d="M745.91,63.4v.86a2,2,0,0,1,.8-.71,2.59,2.59,0,0,1,1.12-.24,2.22,2.22,0,0,1,1.74.67,2.61,2.61,0,0,1,.61,1.85V70.5h-.95V66a1.88,1.88,0,0,0-.44-1.34,1.56,1.56,0,0,0-1.2-.46,1.61,1.61,0,0,0-1.21.46,1.88,1.88,0,0,0-.46,1.34V70.5H745V63.4Z" style="fill:#fff"/><path d="M751.86,67.67V66.21a3.13,3.13,0,0,1,.67-2.21,2.3,2.3,0,0,1,1.74-.7,2,2,0,0,1,1.9,1.09V60.83h1V70.5h-1v-.94a1.85,1.85,0,0,1-.76.76,2.45,2.45,0,0,1-1.16.26,2.24,2.24,0,0,1-1.72-.71A3.08,3.08,0,0,1,751.86,67.67Zm4.31-.07V66.35a2.65,2.65,0,0,0-.43-1.59,1.48,1.48,0,0,0-1.29-.59c-1.08,0-1.63.7-1.63,2.1v1.34c0,1.41.53,2.12,1.57,2.12a1.57,1.57,0,0,0,1.33-.59A2.47,2.47,0,0,0,756.17,67.6Z" style="fill:#fff"/><path d="M584.81,84.47V83a3.17,3.17,0,0,1,.67-2.21,2.3,2.3,0,0,1,1.74-.7,2.05,2.05,0,0,1,1.91,1.09V77.63h1V87.3h-1v-.94a1.94,1.94,0,0,1-.77.76,2.41,2.41,0,0,1-1.15.26,2.26,2.26,0,0,1-1.73-.71A3.13,3.13,0,0,1,584.81,84.47Zm4.32-.07V83.15a2.65,2.65,0,0,0-.44-1.59A1.48,1.48,0,0,0,587.4,81q-1.62,0-1.62,2.1v1.34c0,1.41.52,2.12,1.57,2.12a1.57,1.57,0,0,0,1.33-.59A2.47,2.47,0,0,0,589.13,84.4Z" style="fill:#fff"/><path d="M592.72,84.36a2.34,2.34,0,0,0,.49,1.68,1.87,1.87,0,0,0,1.36.49,1.75,1.75,0,0,0,1.18-.37,1.24,1.24,0,0,0,.43-1v0h.93v.07a2,2,0,0,1-.7,1.6,2.82,2.82,0,0,1-1.91.6,2.72,2.72,0,0,1-2-.74,3.19,3.19,0,0,1-.74-2.31V83.09a3.09,3.09,0,0,1,.74-2.26,2.67,2.67,0,0,1,2-.73,2.64,2.64,0,0,1,2,.73,3.09,3.09,0,0,1,.73,2.26v.85h-4.44Zm0-1.29v.15h3.49V83a2.12,2.12,0,0,0-.46-1.56,1.76,1.76,0,0,0-1.28-.44,1.74,1.74,0,0,0-1.27.46A2.26,2.26,0,0,0,592.72,83.07Z" style="fill:#fff"/><path d="M599,80.2l1.85,5.7,1.85-5.7h1l-2.45,7.1h-.85L598,80.2Z" style="fill:#fff"/><path d="M605.52,84.36A2.29,2.29,0,0,0,606,86a1.85,1.85,0,0,0,1.36.49,1.77,1.77,0,0,0,1.18-.37,1.24,1.24,0,0,0,.43-1v0h.92v.07a2,2,0,0,1-.69,1.6,2.82,2.82,0,0,1-1.91.6,2.7,2.7,0,0,1-2-.74,3.14,3.14,0,0,1-.74-2.31V83.09a3,3,0,0,1,.74-2.26,3,3,0,0,1,3.91,0,3.09,3.09,0,0,1,.74,2.26v.85h-4.44Zm0-1.29v.15H609V83a2.12,2.12,0,0,0-.47-1.56,1.72,1.72,0,0,0-1.27-.44,1.76,1.76,0,0,0-1.28.46A2.31,2.31,0,0,0,605.52,83.07Z" style="fill:#fff"/><path d="M611.64,85.43v-7.8h1v7.75a1.25,1.25,0,0,0,.21.8.87.87,0,0,0,.68.25h.58v.87h-.67a1.71,1.71,0,0,1-1.31-.48A2,2,0,0,1,611.64,85.43Z" style="fill:#fff"/><path d="M615,84.47V83a2.92,2.92,0,0,1,.74-2.21,2.76,2.76,0,0,1,2-.7,2.7,2.7,0,0,1,2,.7,2.92,2.92,0,0,1,.74,2.21v1.46a2.93,2.93,0,0,1-.74,2.21,2.7,2.7,0,0,1-2,.7,2.8,2.8,0,0,1-2-.69A2.93,2.93,0,0,1,615,84.47Zm4.47-.06V83.07a2.31,2.31,0,0,0-.47-1.64,1.74,1.74,0,0,0-1.27-.46,1.77,1.77,0,0,0-1.3.46,2.26,2.26,0,0,0-.48,1.64v1.34a2.27,2.27,0,0,0,.48,1.65,1.77,1.77,0,0,0,1.3.47,1.75,1.75,0,0,0,1.27-.47A2.32,2.32,0,0,0,619.51,84.41Z" style="fill:#fff"/><path d="M623.09,80.2v1a2,2,0,0,1,.76-.81,2.15,2.15,0,0,1,1.09-.27,2.37,2.37,0,0,1,1.78.7,3.08,3.08,0,0,1,.68,2.2v1.46a3.09,3.09,0,0,1-.67,2.21,2.27,2.27,0,0,1-1.72.7,2,2,0,0,1-1.92-1v3.07h-1V80.2Zm3.36,2.88c0-1.41-.55-2.11-1.64-2.11a1.48,1.48,0,0,0-1.29.59,2.65,2.65,0,0,0-.43,1.59V84.4a2.48,2.48,0,0,0,.45,1.53,1.58,1.58,0,0,0,1.33.6c1,0,1.58-.71,1.58-2.12Z" style="fill:#fff"/><path d="M630,80.2v.86a1.93,1.93,0,0,1,.8-.7,2.46,2.46,0,0,1,1.12-.25,2.33,2.33,0,0,1,1.24.31,2,2,0,0,1,.8.88,2.35,2.35,0,0,1,2.16-1.19,2.28,2.28,0,0,1,1.76.67,2.54,2.54,0,0,1,.64,1.85V87.3h-1V82.77a1.92,1.92,0,0,0-.42-1.34A1.56,1.56,0,0,0,636,81a1.61,1.61,0,0,0-1.23.46,1.86,1.86,0,0,0-.44,1.3V87.3h-1V82.77a1.92,1.92,0,0,0-.42-1.34,1.56,1.56,0,0,0-1.2-.46,1.61,1.61,0,0,0-1.21.46,1.83,1.83,0,0,0-.46,1.34V87.3h-.95V80.2Z" style="fill:#fff"/><path d="M641.16,84.36a2.34,2.34,0,0,0,.49,1.68,1.87,1.87,0,0,0,1.36.49,1.77,1.77,0,0,0,1.18-.37,1.24,1.24,0,0,0,.43-1v0h.93v.07a2,2,0,0,1-.7,1.6,2.82,2.82,0,0,1-1.91.6,2.72,2.72,0,0,1-2-.74,3.19,3.19,0,0,1-.74-2.31V83.09a3.09,3.09,0,0,1,.74-2.26,2.67,2.67,0,0,1,2-.73,2.64,2.64,0,0,1,2,.73,3.09,3.09,0,0,1,.73,2.26v.85h-4.44Zm0-1.29v.15h3.49V83a2.12,2.12,0,0,0-.46-1.56,1.76,1.76,0,0,0-1.28-.44,1.72,1.72,0,0,0-1.27.46A2.26,2.26,0,0,0,641.16,83.07Z" style="fill:#fff"/><path d="M648.22,80.2v.86a2,2,0,0,1,.8-.71,2.59,2.59,0,0,1,1.12-.24,2.22,2.22,0,0,1,1.74.67,2.61,2.61,0,0,1,.61,1.85V87.3h-1V82.77a1.88,1.88,0,0,0-.44-1.34,1.56,1.56,0,0,0-1.2-.46,1.61,1.61,0,0,0-1.21.46,1.83,1.83,0,0,0-.46,1.34V87.3h-1V80.2Z" style="fill:#fff"/><path d="M655.89,85.49c0,.64.3,1,.91,1h.56v.84h-.71a1.68,1.68,0,0,1-1.27-.47,1.82,1.82,0,0,1-.46-1.3V81h-1.1V80.2h1.1V78.57l1-.45V80.2h1.6V81h-1.6Z" style="fill:#fff"/><circle cx="514.73" cy="470" r="50" style="fill:#fff"/><path id="user-family" d="M501.21,479.15c-2.12,1.75-4.68,3.86-5.74,4.72H495a6.26,6.26,0,0,1-5.5-3.89l-1-2.8a6.57,6.57,0,0,1-3.51-3.12,2.37,2.37,0,0,1,.41-2.94v-5.83c0-4.7,2.4-8.2,6.7-9.62a1.81,1.81,0,0,1,.21-.18,4.26,4.26,0,0,0,1.32-2.81,2,2,0,0,1,1-1.49,2.08,2.08,0,0,1,1.8-.14,9.42,9.42,0,0,1,2.33,1.37,15.9,15.9,0,0,0-.65,4.61v3.45a6.92,6.92,0,0,0-1.06,7l.58,1.56a9.68,9.68,0,0,0,2.88,4l1,4.75a7.92,7.92,0,0,0,.23.87Zm-8.71,8.49a11.13,11.13,0,0,1-4.85-2.92c-1,1.17-2,2.35-2.48,2.82-1,1.09-1.84,1.88-1.84,3.79v.8a2.06,2.06,0,0,0,2.06,2.06H492a5,5,0,0,1-.11-1v-2.61A7.75,7.75,0,0,1,492.5,487.64Zm9-20a6.18,6.18,0,0,0,2.71,3l1.37,6.3a6.19,6.19,0,0,0,6.05,4.88h3.92a6.19,6.19,0,0,0,6.05-4.88l1.37-6.3a6.18,6.18,0,0,0,2.71-3l.58-1.55a2.63,2.63,0,0,0-1.32-3.6V457c0-6.19-4.12-10.32-11.35-10.32s-11.36,4.13-11.36,10.32v5.43a2.64,2.64,0,0,0-1.31,3.6Zm44.29,5.33c-5.64-8.16.65-24.17-10.85-24.17a10.08,10.08,0,0,0-10.42-2.44,13.86,13.86,0,0,1,4.55,10.7v3.45a6.9,6.9,0,0,1,1,7l-.57,1.55a9.73,9.73,0,0,1-2.88,4l-1,4.75a8.93,8.93,0,0,1-.23.89l.57.48,3.18,2.63h1.34a6,6,0,0,0,5.24-3.69A35.07,35.07,0,0,0,544.8,476,2,2,0,0,0,545.79,472.94Zm-7.44,8.91a10.41,10.41,0,0,1-4.94,3.58,7.23,7.23,0,0,1,1.86,5.12v2.61a5,5,0,0,1-.11,1h9.07a1,1,0,0,0,1-1v-2.61c0-1.13-.52-2-1.72-3.21C542.81,486.6,540.22,483.84,538.35,481.85Zm-8.92,5.49c-.9-.68-3.78-3.06-6.1-5a10.36,10.36,0,0,1-7.78,3.58h-3.92a10.33,10.33,0,0,1-7.79-3.6c-2.38,2-5.32,4.38-6.09,5a3.83,3.83,0,0,0-1.71,3.21v2.61a1,1,0,0,0,1,1h33a1,1,0,0,0,1-1v-2.61A3.41,3.41,0,0,0,529.43,487.34Z" style="fill:#295ca7"/><path d="M594,449.65a6,6,0,0,1-1.07,3.93,4.21,4.21,0,0,1-3.46,1.3h-1.54V461H585V444.44h4.47a4.25,4.25,0,0,1,3.49,1.29A6.16,6.16,0,0,1,594,449.65Zm-3,0a3.93,3.93,0,0,0-.37-1.95,1.4,1.4,0,0,0-1.31-.62h-1.44v5.14h1.44a1.39,1.39,0,0,0,1.31-.63A3.89,3.89,0,0,0,591,449.65Z" style="fill:#fff"/><path d="M595.31,456.44V449a4.6,4.6,0,0,1,1.32-3.56,4.93,4.93,0,0,1,3.48-1.21,4.62,4.62,0,0,1,3.35,1.21,4.73,4.73,0,0,1,1.26,3.56v7.47a4.55,4.55,0,0,1-1.33,3.53,4.92,4.92,0,0,1-3.44,1.22,4.64,4.64,0,0,1-3.39-1.21A4.73,4.73,0,0,1,595.31,456.44Zm6.46-.34v-6.64a3.65,3.65,0,0,0-.43-1.94,1.45,1.45,0,0,0-1.3-.66,1.51,1.51,0,0,0-1.36.65,3.62,3.62,0,0,0-.42,1.95v6.64c0,1.62.6,2.43,1.78,2.43a1.47,1.47,0,0,0,1.29-.64A3.13,3.13,0,0,0,601.77,456.1Z" style="fill:#fff"/><path d="M615.64,449.65a6,6,0,0,1-1.07,3.93,4.23,4.23,0,0,1-3.47,1.3h-1.53V461h-2.93V444.44h4.46a4.26,4.26,0,0,1,3.5,1.29A6.22,6.22,0,0,1,615.64,449.65Zm-2.95,0a4.05,4.05,0,0,0-.37-1.95,1.42,1.42,0,0,0-1.31-.62h-1.44v5.14H611a1.4,1.4,0,0,0,1.31-.63A4,4,0,0,0,612.69,449.65Z" style="fill:#fff"/><path d="M617.64,459a4.73,4.73,0,0,1-.58-2.37V444.44h3v12.14a2.35,2.35,0,0,0,.38,1.48,1.45,1.45,0,0,0,1.18.47q1.56,0,1.56-1.95V444.44h3v12.22a4.73,4.73,0,0,1-.58,2.37,4,4,0,0,1-1.6,1.6,4.86,4.86,0,0,1-2.33.56,4.77,4.77,0,0,1-2.32-.56A4.19,4.19,0,0,1,617.64,459Z" style="fill:#fff"/><path d="M631.05,444.44v13.92h4.44V461H628.1V444.44Z" style="fill:#fff"/><path d="M639.78,457.78l-.67,3.22H636l4.25-16.56h2.88L647.39,461h-3.07l-.67-3.22Zm2-9.36-1.39,6.72h2.78Z" style="fill:#fff"/><path d="M652.41,447.1V461h-2.93V447.1H646.6v-2.66h8.66v2.66Z" style="fill:#fff"/><path d="M659.29,451.26h3.84v2.64h-3.84v4.46h4.47V461h-7.39V444.44h7.39v2.66h-4.47Z" style="fill:#fff"/><path d="M591.68,480.66h-1v-4.48h-4.52v4.48h-1V471h1v4.26h4.52V471h1Z" style="fill:#fff"/><path d="M594.74,471.13v1.26h-1v-1.26Zm0,2.43v7.1h-1v-7.1Z" style="fill:#fff"/><path d="M596.63,481h1a1.1,1.1,0,0,0,.48.75,1.9,1.9,0,0,0,1.09.29c1.11,0,1.67-.63,1.67-1.87v-1a2,2,0,0,1-.77.77,2.55,2.55,0,0,1-2.88-.44,3.17,3.17,0,0,1-.67-2.22v-1a3.13,3.13,0,0,1,.67-2.2,2.3,2.3,0,0,1,1.74-.7,2,2,0,0,1,1.91,1.08v-1h1v6.6a2.87,2.87,0,0,1-.69,2,2.5,2.5,0,0,1-1.94.74,3,3,0,0,1-1.79-.5A1.81,1.81,0,0,1,596.63,481Zm4.19-3.78v-.77a2.61,2.61,0,0,0-.44-1.59,1.49,1.49,0,0,0-1.29-.6c-1.08,0-1.62.71-1.62,2.12v.85c0,1.41.52,2.12,1.57,2.12a1.57,1.57,0,0,0,1.33-.59A2.47,2.47,0,0,0,600.82,477.23Z" style="fill:#fff"/><path d="M604.64,471v3.44a2.14,2.14,0,0,1,1.9-1,2.25,2.25,0,0,1,1.73.66,2.6,2.6,0,0,1,.63,1.87v4.66h-1v-4.53a1.89,1.89,0,0,0-.43-1.34,1.57,1.57,0,0,0-1.21-.46,1.6,1.6,0,0,0-1.21.47,1.85,1.85,0,0,0-.45,1.33v4.53h-1V471Z" style="fill:#fff"/><path d="M614.42,475.34v.92h-3.85v-.92Z" style="fill:#fff"/><path d="M616.28,473.56l1.85,5.7,1.85-5.7h1l-2.45,7.1h-.85l-2.45-7.1Z" style="fill:#fff"/><path d="M626.91,475.83v4.83H626v-.76a1.92,1.92,0,0,1-.8.64,2.84,2.84,0,0,1-1.16.2,2.54,2.54,0,0,1-1.73-.53,1.93,1.93,0,0,1-.62-1.55,1.89,1.89,0,0,1,.62-1.5,2.61,2.61,0,0,1,1.76-.53H626v-.82a1.51,1.51,0,0,0-.42-1.16,1.69,1.69,0,0,0-1.19-.39,1.76,1.76,0,0,0-1.14.33,1.08,1.08,0,0,0-.42.9v0h-.92v-.07a1.79,1.79,0,0,1,.66-1.45,2.71,2.71,0,0,1,1.8-.55,2.78,2.78,0,0,1,1.92.6A2.27,2.27,0,0,1,626.91,475.83Zm-.95,2.42v-.92h-1.78c-1,0-1.57.43-1.57,1.31s.52,1.33,1.56,1.33a1.88,1.88,0,0,0,1.36-.42A1.76,1.76,0,0,0,626,478.25Z" style="fill:#fff"/><path d="M628.81,478.8V471h1v7.75a1.25,1.25,0,0,0,.21.8.82.82,0,0,0,.68.25h.58v.87h-.68a1.69,1.69,0,0,1-1.3-.48A1.93,1.93,0,0,1,628.81,478.8Z" style="fill:#fff"/><path d="M632.44,478.05v-4.49h.95v4.37a2.41,2.41,0,0,0,.38,1.47,1.5,1.5,0,0,0,1.27.49,1.54,1.54,0,0,0,1.28-.48,2.38,2.38,0,0,0,.38-1.48v-4.37h.95v4.49a2.83,2.83,0,0,1-.65,2,2.59,2.59,0,0,1-2,.69,2.54,2.54,0,0,1-1.94-.69A2.83,2.83,0,0,1,632.44,478.05Z" style="fill:#fff"/><path d="M640.28,477.72a2.34,2.34,0,0,0,.49,1.69,1.87,1.87,0,0,0,1.36.48,1.72,1.72,0,0,0,1.18-.37,1.22,1.22,0,0,0,.43-1v0h.92v.07a2,2,0,0,1-.69,1.6,2.82,2.82,0,0,1-1.91.6,2.66,2.66,0,0,1-2-.74,3.16,3.16,0,0,1-.74-2.31v-1.23a3.1,3.1,0,0,1,.74-2.27,3,3,0,0,1,3.92,0,3.1,3.1,0,0,1,.73,2.27v.84h-4.44Zm0-1.29v.15h3.49v-.25a2.14,2.14,0,0,0-.46-1.55,1.77,1.77,0,0,0-1.28-.45,1.69,1.69,0,0,0-1.27.47A2.22,2.22,0,0,0,640.28,476.43Z" style="fill:#fff"/><path d="M649,477.83v-1.46a3.08,3.08,0,0,1,.68-2.2,2.28,2.28,0,0,1,1.73-.71,2,2,0,0,1,1.91,1.09V471h1v9.67h-1v-.94a1.85,1.85,0,0,1-.76.76,2.37,2.37,0,0,1-1.16.26,2.27,2.27,0,0,1-1.72-.7A3.13,3.13,0,0,1,649,477.83Zm4.32-.07v-1.25a2.72,2.72,0,0,0-.43-1.59,1.51,1.51,0,0,0-1.29-.59c-1.09,0-1.63.7-1.63,2.1v1.34c0,1.41.52,2.12,1.57,2.12a1.57,1.57,0,0,0,1.33-.59A2.47,2.47,0,0,0,653.33,477.76Z" style="fill:#fff"/><path d="M661.06,475.83v4.83h-.94v-.76a1.92,1.92,0,0,1-.8.64,2.87,2.87,0,0,1-1.16.2,2.55,2.55,0,0,1-1.74-.53,1.93,1.93,0,0,1-.61-1.55,1.86,1.86,0,0,1,.62-1.5,2.59,2.59,0,0,1,1.76-.53h1.92v-.82a1.51,1.51,0,0,0-.42-1.16,1.69,1.69,0,0,0-1.19-.39,1.81,1.81,0,0,0-1.15.33,1.1,1.1,0,0,0-.41.9v0H656v-.07a1.81,1.81,0,0,1,.65-1.45,3.3,3.3,0,0,1,3.72.05A2.24,2.24,0,0,1,661.06,475.83Zm-.95,2.42v-.92h-1.78c-1.05,0-1.57.43-1.57,1.31s.52,1.33,1.55,1.33a1.9,1.9,0,0,0,1.37-.42A1.8,1.8,0,0,0,660.11,478.25Z" style="fill:#fff"/><path d="M664.46,478.85c0,.65.3,1,.91,1h.56v.84h-.72a1.67,1.67,0,0,1-1.26-.47,1.75,1.75,0,0,1-.46-1.3v-4.58h-1.1v-.75h1.1v-1.63l1-.45v2.08h1.6v.75h-1.6Z" style="fill:#fff"/><path d="M672.38,475.83v4.83h-.93v-.76a2.05,2.05,0,0,1-.8.64,2.92,2.92,0,0,1-1.17.2,2.54,2.54,0,0,1-1.73-.53,1.93,1.93,0,0,1-.62-1.55,1.89,1.89,0,0,1,.62-1.5,2.62,2.62,0,0,1,1.76-.53h1.92v-.82a1.51,1.51,0,0,0-.42-1.16,1.69,1.69,0,0,0-1.19-.39,1.76,1.76,0,0,0-1.14.33,1.08,1.08,0,0,0-.41.9v0h-.93v-.07A1.79,1.79,0,0,1,668,474a2.72,2.72,0,0,1,1.81-.55,2.75,2.75,0,0,1,1.91.6A2.27,2.27,0,0,1,672.38,475.83Zm-1,2.42v-.92h-1.78c-1,0-1.57.43-1.57,1.31s.52,1.33,1.56,1.33a1.88,1.88,0,0,0,1.36-.42A1.76,1.76,0,0,0,671.43,478.25Z" style="fill:#fff"/><path d="M678.63,478.85c0,.65.3,1,.91,1h.56v.84h-.72a1.67,1.67,0,0,1-1.26-.47,1.75,1.75,0,0,1-.46-1.3v-4.58h-1.11v-.75h1.11v-1.63l1-.45v2.08h1.59v.75h-1.59Z" style="fill:#fff"/><path d="M682.64,471v3.44a2.16,2.16,0,0,1,1.91-1,2.27,2.27,0,0,1,1.73.66,2.64,2.64,0,0,1,.62,1.87v4.66H686v-4.53a1.94,1.94,0,0,0-.43-1.34,1.81,1.81,0,0,0-2.42,0,1.85,1.85,0,0,0-.46,1.33v4.53h-.95V471Z" style="fill:#fff"/><path d="M689.53,477.72a2.34,2.34,0,0,0,.49,1.69,1.87,1.87,0,0,0,1.36.48,1.72,1.72,0,0,0,1.18-.37,1.22,1.22,0,0,0,.43-1v0h.92v.07a2,2,0,0,1-.69,1.6,2.82,2.82,0,0,1-1.91.6,2.68,2.68,0,0,1-2-.74,3.16,3.16,0,0,1-.74-2.31v-1.23a3.1,3.1,0,0,1,.74-2.27,3,3,0,0,1,3.92,0,3.1,3.1,0,0,1,.73,2.27v.84h-4.44Zm0-1.29v.15H693v-.25a2.14,2.14,0,0,0-.46-1.55,1.77,1.77,0,0,0-1.28-.45,1.69,1.69,0,0,0-1.27.47A2.22,2.22,0,0,0,689.53,476.43Z" style="fill:#fff"/><path d="M696.59,473.56v.87a2,2,0,0,1,.8-.71,2.63,2.63,0,0,1,2.36.06,2,2,0,0,1,.8.88,2.35,2.35,0,0,1,2.16-1.19,2.31,2.31,0,0,1,1.76.67,2.59,2.59,0,0,1,.63,1.86v4.66h-1v-4.53a1.89,1.89,0,0,0-.43-1.34,1.52,1.52,0,0,0-1.19-.46,1.58,1.58,0,0,0-1.23.47,1.82,1.82,0,0,0-.44,1.29v4.57h-1v-4.53a1.94,1.94,0,0,0-.42-1.34,1.79,1.79,0,0,0-2.41,0,1.81,1.81,0,0,0-.46,1.33v4.53h-1v-7.1Z" style="fill:#fff"/><path d="M707.73,477.72a2.34,2.34,0,0,0,.49,1.69,1.87,1.87,0,0,0,1.36.48,1.72,1.72,0,0,0,1.18-.37,1.22,1.22,0,0,0,.43-1v0h.93v.07a2,2,0,0,1-.7,1.6,2.82,2.82,0,0,1-1.91.6,2.68,2.68,0,0,1-2-.74,3.16,3.16,0,0,1-.74-2.31v-1.23a3.1,3.1,0,0,1,.74-2.27,3,3,0,0,1,3.92,0,3.1,3.1,0,0,1,.73,2.27v.84h-4.44Zm0-1.29v.15h3.49v-.25a2.14,2.14,0,0,0-.46-1.55,1.77,1.77,0,0,0-1.28-.45,1.69,1.69,0,0,0-1.27.47A2.22,2.22,0,0,0,707.73,476.43Z" style="fill:#fff"/><path d="M713.46,478.67v-.06h.92v.05a1.09,1.09,0,0,0,.46.93,2,2,0,0,0,1.22.34,2.22,2.22,0,0,0,1.26-.32,1.07,1.07,0,0,0,.45-.93,1,1,0,0,0-.32-.78,2.26,2.26,0,0,0-1-.38l-.88-.15a3,3,0,0,1-1.52-.62,1.64,1.64,0,0,1-.47-1.26,1.82,1.82,0,0,1,.68-1.48,2.76,2.76,0,0,1,1.78-.55,3,3,0,0,1,1.88.54,1.69,1.69,0,0,1,.7,1.41v.08h-.92v0a1,1,0,0,0-.44-.88,1.91,1.91,0,0,0-1.19-.33,1.79,1.79,0,0,0-1.15.33,1,1,0,0,0-.42.88.89.89,0,0,0,.3.72,1.88,1.88,0,0,0,.94.37l.92.17a3.15,3.15,0,0,1,1.55.64,1.62,1.62,0,0,1,.5,1.28,1.86,1.86,0,0,1-.73,1.56,3.15,3.15,0,0,1-2,.55,2.83,2.83,0,0,1-1.86-.56A1.82,1.82,0,0,1,713.46,478.67Z" style="fill:#fff"/><path d="M584.81,494.63v-1.46a2.89,2.89,0,0,1,.75-2.21,2.81,2.81,0,0,1,2-.7,2.76,2.76,0,0,1,1.93.64,2.23,2.23,0,0,1,.7,1.73v.07h-.92v-.07a1.39,1.39,0,0,0-.45-1.11,1.79,1.79,0,0,0-1.22-.39,1.86,1.86,0,0,0-1.36.47,2.22,2.22,0,0,0-.49,1.63v1.34a2.26,2.26,0,0,0,.49,1.65,1.86,1.86,0,0,0,1.35.47,1.81,1.81,0,0,0,1.23-.39,1.39,1.39,0,0,0,.45-1.11v-.07h.92v.06a2.2,2.2,0,0,1-.71,1.72,2.74,2.74,0,0,1-1.91.64,2.53,2.53,0,0,1-2.77-2.91Z" style="fill:#fff"/><path d="M591.66,494.63v-1.46a2.93,2.93,0,0,1,.74-2.21,2.76,2.76,0,0,1,2-.7,2.7,2.7,0,0,1,2,.7,2.93,2.93,0,0,1,.74,2.21v1.46a2.92,2.92,0,0,1-.74,2.21,2.7,2.7,0,0,1-2,.7,2.8,2.8,0,0,1-2-.69A2.93,2.93,0,0,1,591.66,494.63Zm4.47-.06v-1.34a2.27,2.27,0,0,0-.47-1.63,1.71,1.71,0,0,0-1.27-.47,1.73,1.73,0,0,0-1.3.47,2.22,2.22,0,0,0-.48,1.63v1.34a2.26,2.26,0,0,0,.48,1.65,1.77,1.77,0,0,0,1.3.47,1.75,1.75,0,0,0,1.27-.47A2.31,2.31,0,0,0,596.13,494.57Z" style="fill:#fff"/><path d="M599.7,490.36v.87a2,2,0,0,1,.8-.71,2.39,2.39,0,0,1,1.11-.25,2.44,2.44,0,0,1,1.25.31,2.07,2.07,0,0,1,.8.88,2.59,2.59,0,0,1,3.92-.52,2.59,2.59,0,0,1,.63,1.86v4.66h-1v-4.53a1.89,1.89,0,0,0-.43-1.34,1.53,1.53,0,0,0-1.2-.46,1.56,1.56,0,0,0-1.22.47,1.77,1.77,0,0,0-.44,1.29v4.57h-1v-4.53a1.89,1.89,0,0,0-.43-1.34,1.52,1.52,0,0,0-1.19-.46,1.6,1.6,0,0,0-1.22.47,1.85,1.85,0,0,0-.45,1.33v4.53h-1v-7.1Z" style="fill:#fff"/><path d="M611.05,490.36v.87a2,2,0,0,1,.8-.71,2.46,2.46,0,0,1,1.12-.25,2.43,2.43,0,0,1,1.24.31,2,2,0,0,1,.8.88,2.35,2.35,0,0,1,2.16-1.19,2.31,2.31,0,0,1,1.76.67,2.55,2.55,0,0,1,.64,1.86v4.66h-1v-4.53a1.94,1.94,0,0,0-.42-1.34,1.56,1.56,0,0,0-1.2-.46,1.58,1.58,0,0,0-1.23.47,1.82,1.82,0,0,0-.44,1.29v4.57h-1v-4.53a1.94,1.94,0,0,0-.42-1.34,1.56,1.56,0,0,0-1.2-.46,1.58,1.58,0,0,0-1.21.47,1.81,1.81,0,0,0-.46,1.33v4.53h-.95v-7.1Z" style="fill:#fff"/><path d="M621.46,494.85v-4.49h1v4.37a2.42,2.42,0,0,0,.37,1.47,1.92,1.92,0,0,0,2.55,0,2.32,2.32,0,0,0,.38-1.48v-4.37h.95v4.49a2.79,2.79,0,0,1-.65,2,2.58,2.58,0,0,1-2,.69,2.53,2.53,0,0,1-1.93-.69A2.79,2.79,0,0,1,621.46,494.85Z" style="fill:#fff"/><path d="M629.51,490.36v.87a2,2,0,0,1,.81-.72,2.51,2.51,0,0,1,1.11-.24,2.27,2.27,0,0,1,1.75.67,2.67,2.67,0,0,1,.61,1.86v4.66h-1v-4.53a1.89,1.89,0,0,0-.43-1.34,1.57,1.57,0,0,0-1.21-.46,1.6,1.6,0,0,0-1.21.47,1.85,1.85,0,0,0-.45,1.33v4.53h-.95v-7.1Z" style="fill:#fff"/><path d="M636.78,487.93v1.26h-1v-1.26Zm0,2.43v7.1h-1v-7.1Z" style="fill:#fff"/><path d="M640.27,495.65c0,.65.3,1,.91,1h.56v.84H641a1.71,1.71,0,0,1-1.27-.47,1.79,1.79,0,0,1-.45-1.3v-4.58h-1.11v-.75h1.11v-1.63l1-.45v2.08h1.59v.75h-1.59Z" style="fill:#fff"/><path d="M644.42,487.93v1.26h-1v-1.26Zm0,2.43v7.1h-1v-7.1Z" style="fill:#fff"/><path d="M647.14,494.52a2.34,2.34,0,0,0,.49,1.69,1.87,1.87,0,0,0,1.36.48,1.72,1.72,0,0,0,1.18-.37,1.22,1.22,0,0,0,.43-1v-.05h.92v.07a2,2,0,0,1-.69,1.6,2.82,2.82,0,0,1-1.91.6,2.66,2.66,0,0,1-2-.74,3.16,3.16,0,0,1-.74-2.31v-1.23a3.1,3.1,0,0,1,.74-2.27,3,3,0,0,1,3.92,0,3.1,3.1,0,0,1,.73,2.27v.84h-4.44Zm0-1.29v.15h3.49v-.25a2.14,2.14,0,0,0-.46-1.55,1.77,1.77,0,0,0-1.28-.45,1.69,1.69,0,0,0-1.27.47A2.22,2.22,0,0,0,647.14,493.23Z" style="fill:#fff"/><path d="M652.87,495.47v-.06h.92v0a1.09,1.09,0,0,0,.46.93,2,2,0,0,0,1.22.34,2.16,2.16,0,0,0,1.25-.32,1.06,1.06,0,0,0,.46-.93,1,1,0,0,0-.32-.78,2.31,2.31,0,0,0-1-.38l-.88-.15a3,3,0,0,1-1.52-.62,1.64,1.64,0,0,1-.47-1.26,1.82,1.82,0,0,1,.68-1.48,2.74,2.74,0,0,1,1.78-.55,3,3,0,0,1,1.88.54,1.69,1.69,0,0,1,.7,1.41v.08h-.92v0a1,1,0,0,0-.44-.88,1.93,1.93,0,0,0-1.19-.33,1.79,1.79,0,0,0-1.15.33,1,1,0,0,0-.42.88.89.89,0,0,0,.3.72,1.84,1.84,0,0,0,.93.37l.93.17a3.15,3.15,0,0,1,1.55.64,1.62,1.62,0,0,1,.49,1.28,1.86,1.86,0,0,1-.72,1.56,3.15,3.15,0,0,1-2,.55,2.83,2.83,0,0,1-1.86-.56A1.82,1.82,0,0,1,652.87,495.47Z" style="fill:#fff"/><path d="M662.15,494.63v-1.46a2.93,2.93,0,0,1,.74-2.21,2.76,2.76,0,0,1,2-.7,2.7,2.7,0,0,1,2,.7,2.93,2.93,0,0,1,.74,2.21v1.46a2.92,2.92,0,0,1-.74,2.21,2.7,2.7,0,0,1-2,.7,2.8,2.8,0,0,1-2-.69A2.93,2.93,0,0,1,662.15,494.63Zm4.47-.06v-1.34a2.27,2.27,0,0,0-.47-1.63,1.71,1.71,0,0,0-1.27-.47,1.73,1.73,0,0,0-1.3.47,2.22,2.22,0,0,0-.48,1.63v1.34a2.26,2.26,0,0,0,.48,1.65,1.77,1.77,0,0,0,1.3.47,1.75,1.75,0,0,0,1.27-.47A2.31,2.31,0,0,0,666.62,494.57Z" style="fill:#fff"/><path d="M670.76,490.36h1.48v.75h-1.48v6.35h-1v-6.35h-.89v-.75h.89v-.8a1.77,1.77,0,0,1,.46-1.29,1.63,1.63,0,0,1,1.25-.48h.74v.76h-.58c-.6,0-.9.32-.9,1Z" style="fill:#fff"/><path d="M677.42,490.36v1a2,2,0,0,1,.76-.8,2.08,2.08,0,0,1,1.09-.28,2.41,2.41,0,0,1,1.78.7,3,3,0,0,1,.69,2.2v1.46a3.08,3.08,0,0,1-.68,2.21,2.25,2.25,0,0,1-1.72.7,2,2,0,0,1-1.92-1v3.07h-.95v-9.23Zm3.36,2.88c0-1.41-.54-2.11-1.64-2.11a1.5,1.5,0,0,0-1.28.59,2.65,2.65,0,0,0-.44,1.59v1.25a2.38,2.38,0,0,0,.46,1.53,1.55,1.55,0,0,0,1.32.6c1.06,0,1.58-.71,1.58-2.12Z" style="fill:#fff"/><path d="M684.35,490.36v.95a2,2,0,0,1,.78-.79,2.28,2.28,0,0,1,1.09-.26,2.85,2.85,0,0,1,.51,0v.95a2.38,2.38,0,0,0-.73-.11,1.51,1.51,0,0,0-1.18.51,1.88,1.88,0,0,0-.45,1.31v4.5h-1v-7.1Z" style="fill:#fff"/><path d="M692.8,492.63v4.83h-.94v-.76a2,2,0,0,1-.8.64,2.9,2.9,0,0,1-1.16.2,2.55,2.55,0,0,1-1.74-.53,1.93,1.93,0,0,1-.62-1.55,1.87,1.87,0,0,1,.63-1.5,2.58,2.58,0,0,1,1.75-.54h1.92v-.81a1.51,1.51,0,0,0-.42-1.16,1.67,1.67,0,0,0-1.19-.39,1.8,1.8,0,0,0-1.14.33,1.1,1.1,0,0,0-.41.9v0h-.93v-.07a1.79,1.79,0,0,1,.66-1.45,2.72,2.72,0,0,1,1.81-.55,2.75,2.75,0,0,1,1.91.6A2.28,2.28,0,0,1,692.8,492.63Zm-1,2.42v-.92h-1.78c-1,0-1.56.43-1.56,1.31s.51,1.33,1.55,1.33a1.9,1.9,0,0,0,1.37-.42A1.8,1.8,0,0,0,691.84,495.05Z" style="fill:#fff"/><path d="M694.47,494.63v-1.46a2.89,2.89,0,0,1,.75-2.21,2.81,2.81,0,0,1,2-.7,2.76,2.76,0,0,1,1.93.64,2.24,2.24,0,0,1,.71,1.73v.07h-.93v-.07a1.39,1.39,0,0,0-.45-1.11,1.79,1.79,0,0,0-1.22-.39,1.84,1.84,0,0,0-1.35.47,2.18,2.18,0,0,0-.49,1.63v1.34a2.26,2.26,0,0,0,.48,1.65,1.86,1.86,0,0,0,1.35.47,1.81,1.81,0,0,0,1.23-.39,1.39,1.39,0,0,0,.45-1.11v-.07h.93v.06a2.21,2.21,0,0,1-.72,1.72,2.73,2.73,0,0,1-1.9.64,2.53,2.53,0,0,1-2.78-2.91Z" style="fill:#fff"/><path d="M703,495.65c0,.65.31,1,.91,1h.56v.84h-.71a1.7,1.7,0,0,1-1.27-.47,1.79,1.79,0,0,1-.45-1.3v-4.58H701v-.75h1.11v-1.63l1-.45v2.08h1.6v.75H703Z" style="fill:#fff"/><path d="M707.2,487.93v1.26h-1v-1.26Zm0,2.43v7.1h-.95v-7.1Z" style="fill:#fff"/><path d="M709,494.63v-1.46a2.89,2.89,0,0,1,.75-2.21,2.81,2.81,0,0,1,2-.7,2.74,2.74,0,0,1,1.93.64,2.24,2.24,0,0,1,.71,1.73v.07h-.93v-.07a1.39,1.39,0,0,0-.45-1.11,1.79,1.79,0,0,0-1.22-.39,1.84,1.84,0,0,0-1.35.47,2.18,2.18,0,0,0-.49,1.63v1.34a2.26,2.26,0,0,0,.48,1.65,1.86,1.86,0,0,0,1.35.47,1.81,1.81,0,0,0,1.23-.39,1.39,1.39,0,0,0,.45-1.11v-.07h.93v.06a2.21,2.21,0,0,1-.72,1.72,2.73,2.73,0,0,1-1.9.64,2.53,2.53,0,0,1-2.78-2.91Z" style="fill:#fff"/><path d="M716.76,494.52a2.38,2.38,0,0,0,.49,1.69,1.87,1.87,0,0,0,1.36.48,1.7,1.7,0,0,0,1.18-.37,1.22,1.22,0,0,0,.43-1v-.05h.93v.07a2,2,0,0,1-.7,1.6,2.82,2.82,0,0,1-1.91.6,2.68,2.68,0,0,1-2-.74,3.16,3.16,0,0,1-.74-2.31v-1.23a3.1,3.1,0,0,1,.74-2.27,2.67,2.67,0,0,1,2-.73,2.64,2.64,0,0,1,2,.73,3.1,3.1,0,0,1,.73,2.27v.84h-4.44Zm0-1.29v.15h3.49v-.25a2.1,2.1,0,0,0-.46-1.55,1.77,1.77,0,0,0-1.28-.45,1.71,1.71,0,0,0-1.27.47A2.22,2.22,0,0,0,716.76,493.23Z" style="fill:#fff"/><path d="M74.51,197.46a4.27,4.27,0,0,1,4.61,4.75v7.06a4.57,4.57,0,0,1-1.32,3.54A4.86,4.86,0,0,1,74.37,214H69.93V197.46Zm1.22,13.27a3.19,3.19,0,0,0,.44-1.8v-6.21a3.52,3.52,0,0,0-.43-1.93,1.45,1.45,0,0,0-1.3-.66H72.86v11.25h1.58A1.46,1.46,0,0,0,75.73,210.73Z" style="fill:#414042"/><path d="M83.73,209.82c0,1.3.42,2,1.25,2s1.22-.54,1.22-1.61V210h2.69v.14a4.12,4.12,0,0,1-1,3,3.9,3.9,0,0,1-2.9,1,3.83,3.83,0,0,1-3-1.16,5.6,5.6,0,0,1-1-3.81v-3.1a5.91,5.91,0,0,1,1-3.79,3.64,3.64,0,0,1,3-1.2,3.8,3.8,0,0,1,3,1.22A5.64,5.64,0,0,1,89,206.15v2.52H83.73Zm0-4.1v.93H86.2v-.93a3,3,0,0,0-.31-1.57,1,1,0,0,0-.94-.5,1,1,0,0,0-.91.5A3,3,0,0,0,83.73,205.72Z" style="fill:#414042"/><path d="M92.75,201.35l1.59,8.23,1.56-8.23H99L95.8,214h-3l-3.17-12.67Z" style="fill:#414042"/><path d="M102.45,209.82c0,1.3.42,2,1.25,2s1.22-.54,1.22-1.61V210h2.69v.14a4.12,4.12,0,0,1-1,3,3.9,3.9,0,0,1-2.9,1,3.85,3.85,0,0,1-3-1.16,5.6,5.6,0,0,1-1-3.81v-3.1a5.91,5.91,0,0,1,1-3.79,3.64,3.64,0,0,1,3-1.2,3.8,3.8,0,0,1,3,1.22,5.64,5.64,0,0,1,1.07,3.77v2.52h-5.26Zm0-4.1v.93h2.47v-.93a3,3,0,0,0-.31-1.57,1,1,0,0,0-.94-.5,1,1,0,0,0-.91.5A3,3,0,0,0,102.45,205.72Z" style="fill:#414042"/><path d="M109.6,197.46h2.79v12.46c0,1.07.51,1.61,1.53,1.61H114V214h-.14q-4.31,0-4.3-3.93Z" style="fill:#414042"/><path d="M115.29,209.63v-3.89a5,5,0,0,1,1-3.5,4.69,4.69,0,0,1,6,0,5,5,0,0,1,1,3.5v3.89a5,5,0,0,1-1,3.5,4.66,4.66,0,0,1-6,0A4.93,4.93,0,0,1,115.29,209.63Zm5.26,0v-3.93a3,3,0,0,0-.32-1.57,1,1,0,0,0-.93-.5,1,1,0,0,0-.91.5,3,3,0,0,0-.32,1.57v3.93a3,3,0,0,0,.32,1.58,1,1,0,0,0,.91.49,1,1,0,0,0,.93-.49A3,3,0,0,0,120.55,209.65Z" style="fill:#414042"/><path d="M127.91,201.35v1a2.58,2.58,0,0,1,2.24-1.2,2.71,2.71,0,0,1,2.2,1,4.83,4.83,0,0,1,.82,3.12v4.85a4.71,4.71,0,0,1-.85,3.12,2.8,2.8,0,0,1-2.22,1,2.62,2.62,0,0,1-2.09-1v4.56h-2.78V201.35Zm2.48,8.3v-3.93a3.1,3.1,0,0,0-.3-1.57,1,1,0,0,0-.9-.5,1,1,0,0,0-.92.5,3.09,3.09,0,0,0-.31,1.57v3.93q0,2.07,1.23,2.07a1,1,0,0,0,.9-.48A3.14,3.14,0,0,0,130.39,209.65Z" style="fill:#414042"/><path d="M151.36,214h-3.19l-1.8-10.17L144.55,214h-3.17l-3-16.56h3l1.6,12.39,1.56-12.39h3.6l1.56,12.39,1.61-12.39h2.95Z" style="fill:#414042"/><path d="M157.75,209.82c0,1.3.41,2,1.24,2s1.23-.54,1.23-1.61V210h2.69v.14a4.12,4.12,0,0,1-1,3,3.91,3.91,0,0,1-2.91,1,3.81,3.81,0,0,1-3-1.16,5.54,5.54,0,0,1-1.06-3.81v-3.1a5.85,5.85,0,0,1,1-3.79,3.62,3.62,0,0,1,3-1.2,3.79,3.79,0,0,1,3,1.22,5.58,5.58,0,0,1,1.07,3.77v2.52h-5.25Zm0-4.1v.93h2.47v-.93a3.09,3.09,0,0,0-.31-1.57,1,1,0,0,0-.94-.5,1,1,0,0,0-.91.5A3,3,0,0,0,157.75,205.72Z" style="fill:#414042"/><path d="M167.58,213.13V214H164.9V197.46h2.78v4.9a2.42,2.42,0,0,1,.88-.89,2.45,2.45,0,0,1,1.26-.31,2.74,2.74,0,0,1,2.21,1,4.9,4.9,0,0,1,.81,3.12v4.85a4.71,4.71,0,0,1-.85,3.12,2.8,2.8,0,0,1-2.22,1,2.54,2.54,0,0,1-1.19-.27A3.65,3.65,0,0,1,167.58,213.13Zm2.48-3.48v-3.93a3.1,3.1,0,0,0-.3-1.57,1,1,0,0,0-.9-.5,1,1,0,0,0-.91.5,3,3,0,0,0-.32,1.57v3.93q0,2.07,1.23,2.07a1,1,0,0,0,.9-.48A3.14,3.14,0,0,0,170.06,209.65Z" style="fill:#414042"/><path d="M181.27,204.4V207h-6.61V204.4Z" style="fill:#414042"/><path d="M186.07,210.81l-.68,3.21h-3.07l4.25-16.56h2.88L193.67,214H190.6l-.67-3.21Zm1.94-9.36-1.39,6.72h2.78Z" style="fill:#414042"/><path d="M194.73,209.63v-3.89a5,5,0,0,1,1-3.5,4,4,0,0,1,3-1.08,3.85,3.85,0,0,1,2.9,1,4.24,4.24,0,0,1,1,3.1v.48H200v-.44a2,2,0,0,0-.33-1.26,1.07,1.07,0,0,0-.9-.42,1,1,0,0,0-.93.5,3,3,0,0,0-.32,1.57v3.93a3,3,0,0,0,.32,1.58,1,1,0,0,0,.91.49,1.08,1.08,0,0,0,.92-.42A2.08,2.08,0,0,0,200,210v-.4h2.68v.4a4.36,4.36,0,0,1-1,3.16,3.82,3.82,0,0,1-2.9,1.05,4,4,0,0,1-3-1.09A4.93,4.93,0,0,1,194.73,209.63Z" style="fill:#414042"/><path d="M204.5,209.63v-3.89a5,5,0,0,1,1-3.5,4,4,0,0,1,3-1.08,3.86,3.86,0,0,1,2.9,1,4.28,4.28,0,0,1,1,3.1v.48h-2.69v-.44a2.09,2.09,0,0,0-.32-1.26,1.08,1.08,0,0,0-.9-.42,1,1,0,0,0-.94.5,3,3,0,0,0-.31,1.57v3.93a3.05,3.05,0,0,0,.31,1.58,1,1,0,0,0,.91.49,1.11,1.11,0,0,0,.93-.42,2.15,2.15,0,0,0,.32-1.29v-.4h2.69v.4a4.41,4.41,0,0,1-1,3.16,3.83,3.83,0,0,1-2.9,1.05,4,4,0,0,1-3-1.09A4.93,4.93,0,0,1,204.5,209.63Z" style="fill:#414042"/><path d="M217.05,209.82c0,1.3.41,2,1.25,2s1.22-.54,1.22-1.61V210h2.69v.14a4.12,4.12,0,0,1-1,3,3.9,3.9,0,0,1-2.9,1,3.83,3.83,0,0,1-3-1.16,5.6,5.6,0,0,1-1.06-3.81v-3.1a5.91,5.91,0,0,1,1-3.79,3.62,3.62,0,0,1,3-1.2,3.82,3.82,0,0,1,3,1.22,5.64,5.64,0,0,1,1.06,3.77v2.52h-5.25Zm0-4.1v.93h2.47v-.93a3,3,0,0,0-.31-1.57,1,1,0,0,0-.94-.5,1,1,0,0,0-.91.5A3,3,0,0,0,217.05,205.72Z" style="fill:#414042"/><path d="M223.94,210.37v-.14h2.68v.14a1.6,1.6,0,0,0,.36,1.12,1.32,1.32,0,0,0,1,.4,1.25,1.25,0,0,0,.95-.35,1.42,1.42,0,0,0,.32-1,1.36,1.36,0,0,0-.3-.88A2.44,2.44,0,0,0,228,209l-1.44-.62a4.43,4.43,0,0,1-2-1.47,3.74,3.74,0,0,1-.55-2.11,3.43,3.43,0,0,1,1.08-2.59,4.4,4.4,0,0,1,5.66,0,3.55,3.55,0,0,1,1.08,2.69v.24h-2.69V205a1.66,1.66,0,0,0-.33-1.12,1.15,1.15,0,0,0-.91-.39,1.26,1.26,0,0,0-.88.31,1.17,1.17,0,0,0-.32.89,1.39,1.39,0,0,0,.24.84,2.14,2.14,0,0,0,.91.63l1.56.67a4.58,4.58,0,0,1,2,1.45,3.78,3.78,0,0,1,.6,2.22,3.58,3.58,0,0,1-1.1,2.7,4,4,0,0,1-2.94,1.05,4.08,4.08,0,0,1-2.92-1A3.69,3.69,0,0,1,223.94,210.37Z" style="fill:#414042"/><path d="M233.1,210.37v-.14h2.69v.14a1.6,1.6,0,0,0,.36,1.12,1.32,1.32,0,0,0,1,.4,1.25,1.25,0,0,0,1-.35,1.47,1.47,0,0,0,.32-1,1.36,1.36,0,0,0-.3-.88,2.4,2.4,0,0,0-.95-.66l-1.44-.62a4.45,4.45,0,0,1-2-1.47,3.74,3.74,0,0,1-.55-2.11,3.43,3.43,0,0,1,1.08-2.59,4.4,4.4,0,0,1,5.66,0,3.55,3.55,0,0,1,1.08,2.69v.24h-2.69V205a1.66,1.66,0,0,0-.33-1.12,1.16,1.16,0,0,0-.92-.39,1.23,1.23,0,0,0-.87.31,1.18,1.18,0,0,0-.33.89,1.39,1.39,0,0,0,.24.84,2.19,2.19,0,0,0,.92.63l1.56.67a4.55,4.55,0,0,1,2,1.45,3.78,3.78,0,0,1,.6,2.22,3.57,3.57,0,0,1-1.09,2.7,4.66,4.66,0,0,1-5.87,0A3.69,3.69,0,0,1,233.1,210.37Z" style="fill:#414042"/><path d="M245.66,197.46v2.33h-2.79v-2.33Zm0,3.89V214h-2.79V201.35Z" style="fill:#414042"/><path d="M250.41,213.13V214h-2.69V197.46h2.78v4.9a2.42,2.42,0,0,1,.88-.89,2.45,2.45,0,0,1,1.26-.31,2.74,2.74,0,0,1,2.21,1,4.9,4.9,0,0,1,.81,3.12v4.85a4.71,4.71,0,0,1-.85,3.12,2.78,2.78,0,0,1-2.22,1,2.54,2.54,0,0,1-1.19-.27A3.48,3.48,0,0,1,250.41,213.13Zm2.47-3.48v-3.93a3.1,3.1,0,0,0-.3-1.57,1,1,0,0,0-.9-.5,1,1,0,0,0-.91.5,3,3,0,0,0-.31,1.57v3.93c0,1.38.4,2.07,1.22,2.07a1,1,0,0,0,.9-.48A3.14,3.14,0,0,0,252.88,209.65Z" style="fill:#414042"/><path d="M257.56,197.46h2.78v12.46c0,1.07.52,1.61,1.54,1.61H262V214h-.14q-4.31,0-4.3-3.93Z" style="fill:#414042"/><path d="M266,209.82c0,1.3.42,2,1.25,2s1.22-.54,1.22-1.61V210h2.69v.14a4.07,4.07,0,0,1-1,3,3.9,3.9,0,0,1-2.9,1,3.85,3.85,0,0,1-3-1.16,5.6,5.6,0,0,1-1.05-3.81v-3.1a5.91,5.91,0,0,1,1-3.79,3.65,3.65,0,0,1,3-1.2,3.8,3.8,0,0,1,3,1.22,5.64,5.64,0,0,1,1.07,3.77v2.52H266Zm0-4.1v.93h2.47v-.93a3,3,0,0,0-.31-1.57,1.11,1.11,0,0,0-1.85,0A3.09,3.09,0,0,0,266,205.72Z" style="fill:#414042"/><path d="M275.61,210.83v4.85l-2.71,2.18v-7Z" style="fill:#414042"/><path d="M49.6,242.82h-3v-9.69l-2.11,6.48H43l-2.08-6.41v9.62h-3V226.26h3L43.75,235l2.9-8.74h3Z" style="fill:#414042"/><path d="M54.47,226.26v2.33H51.69v-2.33Zm0,3.89v12.67H51.69V230.15Z" style="fill:#414042"/><path d="M56.46,238.91v-4.85a4.83,4.83,0,0,1,.83-3.12,2.76,2.76,0,0,1,2.22-1,2.47,2.47,0,0,1,1.25.31,2.38,2.38,0,0,1,.89.89v-4.9h2.76v16.56H61.75v-.89a2.9,2.9,0,0,1-4.43.1A4.71,4.71,0,0,1,56.46,238.91Zm5.24-4.39a3,3,0,0,0-.32-1.57,1,1,0,0,0-.93-.5,1,1,0,0,0-.9.5,3.1,3.1,0,0,0-.3,1.57v3.93a3.14,3.14,0,0,0,.3,1.59,1,1,0,0,0,.92.48q1.23,0,1.23-2.07Z" style="fill:#414042"/><path d="M66.3,238.91v-4.85a4.83,4.83,0,0,1,.83-3.12,2.76,2.76,0,0,1,2.22-1,2.47,2.47,0,0,1,1.25.31,2.38,2.38,0,0,1,.89.89v-4.9h2.76v16.56H71.58v-.89A2.75,2.75,0,0,1,69.4,243a2.79,2.79,0,0,1-2.24-1A4.71,4.71,0,0,1,66.3,238.91Zm5.24-4.39a3,3,0,0,0-.32-1.57,1,1,0,0,0-.93-.5,1,1,0,0,0-.9.5,3.1,3.1,0,0,0-.3,1.57v3.93a3.14,3.14,0,0,0,.3,1.59,1,1,0,0,0,.92.48q1.23,0,1.23-2.07Z" style="fill:#414042"/><path d="M76.22,226.26H79v12.46c0,1.07.51,1.61,1.54,1.61h.12v2.49h-.15q-4.29,0-4.29-3.93Z" style="fill:#414042"/><path d="M84.69,238.62c0,1.3.41,1.95,1.25,1.95s1.22-.54,1.22-1.61v-.12h2.69V239a4.12,4.12,0,0,1-1,3,3.9,3.9,0,0,1-2.9,1,3.83,3.83,0,0,1-3-1.15,5.6,5.6,0,0,1-1.06-3.81V235a5.91,5.91,0,0,1,1-3.79,3.62,3.62,0,0,1,3-1.2,3.82,3.82,0,0,1,3,1.22A5.64,5.64,0,0,1,90,235v2.52H84.69Zm0-4.1v.93h2.47v-.93a3,3,0,0,0-.31-1.57,1,1,0,0,0-.94-.5,1,1,0,0,0-.91.5A3,3,0,0,0,84.69,234.52Z" style="fill:#414042"/><path d="M98.37,233.2v2.64h-6.6V233.2Z" style="fill:#414042"/><path d="M105.18,228.92v13.9h-2.92v-13.9H99.38v-2.66H108v2.66Z" style="fill:#414042"/><path d="M110.8,226.26v2.33H108v-2.33Zm0,3.89v12.67H108V230.15Z" style="fill:#414042"/><path d="M115.58,238.62c0,1.3.41,1.95,1.25,1.95s1.22-.54,1.22-1.61v-.12h2.69V239a4.12,4.12,0,0,1-1,3,3.9,3.9,0,0,1-2.9,1,3.81,3.81,0,0,1-3-1.15,5.54,5.54,0,0,1-1.06-3.81V235a5.85,5.85,0,0,1,1-3.79,3.62,3.62,0,0,1,3-1.2,3.82,3.82,0,0,1,3,1.22,5.64,5.64,0,0,1,1.06,3.77v2.52h-5.25Zm0-4.1v.93h2.47v-.93a3,3,0,0,0-.31-1.57,1,1,0,0,0-.94-.5,1,1,0,0,0-.91.5A3,3,0,0,0,115.58,234.52Z" style="fill:#414042"/><path d="M125.39,230.15v1.18a3,3,0,0,1,1.09-1.1,3.05,3.05,0,0,1,1.41-.32,3.22,3.22,0,0,1,.86.1v2.92a3.61,3.61,0,0,0-1.27-.24,1.88,1.88,0,0,0-1.43.57,2.2,2.2,0,0,0-.54,1.59v8h-2.78V230.15Z" style="fill:#414042"/><path d="M138.88,226.26a4.27,4.27,0,0,1,4.61,4.75v7.06a4.57,4.57,0,0,1-1.32,3.54,4.86,4.86,0,0,1-3.43,1.21H134.3V226.26Zm1.21,13.27a3.11,3.11,0,0,0,.45-1.8v-6.21a3.61,3.61,0,0,0-.43-1.93,1.46,1.46,0,0,0-1.3-.67h-1.58v11.26h1.58A1.43,1.43,0,0,0,140.09,239.53Z" style="fill:#414042"/><path d="M153.14,234v8.83h-2.6v-1a3.86,3.86,0,0,1-1,.94,2.31,2.31,0,0,1-1.25.3,2.85,2.85,0,0,1-2.39-1,4.63,4.63,0,0,1-.8-2.88,3.52,3.52,0,0,1,1.08-2.75,4.52,4.52,0,0,1,3.1-1h1v-1.61a1.55,1.55,0,0,0-.3-1,1.26,1.26,0,0,0-1.71,0,1.29,1.29,0,0,0-.32.91v.2h-2.56v-.1a3.64,3.64,0,0,1,1-2.83,3.93,3.93,0,0,1,2.74-1,3.73,3.73,0,0,1,2.87,1.09A4.14,4.14,0,0,1,153.14,234Zm-2.79,5v-1.7h-.72a1.87,1.87,0,0,0-1.28.38,1.59,1.59,0,0,0-.45,1.27,1.93,1.93,0,0,0,.32,1.2,1.16,1.16,0,0,0,1.78,0A1.69,1.69,0,0,0,150.35,239Z" style="fill:#414042"/><path d="M158.54,238.72a1.42,1.42,0,0,0,1.61,1.61h.09v2.49h-.09a4.88,4.88,0,0,1-3.28-.95,3.67,3.67,0,0,1-1.12-3v-6.8h-1.41v-1.94h1.41v-2.23l2.79-1.13v3.36h2v1.94h-2Z" style="fill:#414042"/><path d="M169.5,234v8.83h-2.59v-1a3.86,3.86,0,0,1-1,.94,2.34,2.34,0,0,1-1.25.3,2.84,2.84,0,0,1-2.39-1,4.63,4.63,0,0,1-.8-2.88,3.52,3.52,0,0,1,1.08-2.75,4.5,4.5,0,0,1,3.09-1h1.06v-1.61a1.55,1.55,0,0,0-.3-1,1.1,1.1,0,0,0-.88-.34,1.11,1.11,0,0,0-.84.33,1.34,1.34,0,0,0-.31.91v.2h-2.57v-.1a3.64,3.64,0,0,1,1.06-2.83,3.91,3.91,0,0,1,2.74-1,3.75,3.75,0,0,1,2.87,1.09A4.18,4.18,0,0,1,169.5,234Zm-2.78,5v-1.7H166a1.87,1.87,0,0,0-1.28.38,1.59,1.59,0,0,0-.45,1.27,2,2,0,0,0,.31,1.2,1.1,1.1,0,0,0,.92.41,1.08,1.08,0,0,0,.87-.42A1.69,1.69,0,0,0,166.72,239Z" style="fill:#414042"/><path d="M175.14,238.09h2.79a3.1,3.1,0,0,0,.49,1.8,1.54,1.54,0,0,0,1.31.58,1.49,1.49,0,0,0,1.26-.53,2.85,2.85,0,0,0,.39-1.68,2.35,2.35,0,0,0-.44-1.52,4,4,0,0,0-1.5-1.05l-1.13-.5a5.24,5.24,0,0,1-2.31-1.78,4.92,4.92,0,0,1-.71-2.83,4.56,4.56,0,0,1,1.21-3.33,4.33,4.33,0,0,1,3.28-1.25,4,4,0,0,1,3.15,1.23,5.42,5.42,0,0,1,1.19,3.57h-2.71a3.23,3.23,0,0,0-.4-1.69,1.36,1.36,0,0,0-1.23-.57c-1.08,0-1.61.63-1.61,1.9a2.26,2.26,0,0,0,.39,1.38,3.37,3.37,0,0,0,1.34.92l1.08.48a5.78,5.78,0,0,1,2.51,1.92,5.47,5.47,0,0,1,.78,3.07,5,5,0,0,1-1.2,3.56,4.52,4.52,0,0,1-3.41,1.24,4.27,4.27,0,0,1-3.34-1.27A5.35,5.35,0,0,1,175.14,238.09Z" style="fill:#414042"/><path d="M191,243.73a3.72,3.72,0,0,1-.9,1.8,3.2,3.2,0,0,1-1.55.86,10.54,10.54,0,0,1-2.4.22h-.09v-2.44h1c.83,0,1.36-.22,1.6-.65l-3.52-13.37h3.07l1.7,7.7,1.59-7.7h2.92Z" style="fill:#414042"/><path d="M195.45,239.17V239h2.69v.14a1.6,1.6,0,0,0,.36,1.12,1.29,1.29,0,0,0,1,.4,1.23,1.23,0,0,0,.95-.35,1.42,1.42,0,0,0,.33-1,1.36,1.36,0,0,0-.3-.88,2.48,2.48,0,0,0-.95-.66l-1.44-.62a4.43,4.43,0,0,1-2-1.47,3.74,3.74,0,0,1-.55-2.11A3.43,3.43,0,0,1,196.6,231a4.4,4.4,0,0,1,5.66,0,3.55,3.55,0,0,1,1.08,2.69v.24h-2.68v-.15a1.66,1.66,0,0,0-.34-1.12,1.14,1.14,0,0,0-.91-.39,1.26,1.26,0,0,0-.88.31,1.21,1.21,0,0,0-.32.89,1.39,1.39,0,0,0,.24.84,2.14,2.14,0,0,0,.91.63l1.56.67a4.58,4.58,0,0,1,2,1.45,3.78,3.78,0,0,1,.6,2.22,3.61,3.61,0,0,1-1.09,2.7,4.7,4.7,0,0,1-5.87,0A3.69,3.69,0,0,1,195.45,239.17Z" style="fill:#414042"/><path d="M208.31,238.72a1.43,1.43,0,0,0,1.61,1.61h.1v2.49h-.1a4.92,4.92,0,0,1-3.28-.95,3.7,3.7,0,0,1-1.11-3v-6.8h-1.42v-1.94h1.42v-2.23l2.78-1.13v3.36h2v1.94h-2Z" style="fill:#414042"/><path d="M214.17,238.62c0,1.3.41,1.95,1.25,1.95s1.22-.54,1.22-1.61v-.12h2.69V239a4.12,4.12,0,0,1-1,3,3.9,3.9,0,0,1-2.9,1,3.83,3.83,0,0,1-3-1.15,5.6,5.6,0,0,1-1.06-3.81V235a5.91,5.91,0,0,1,1-3.79,3.62,3.62,0,0,1,3-1.2,3.81,3.81,0,0,1,3,1.22,5.64,5.64,0,0,1,1.07,3.77v2.52h-5.26Zm0-4.1v.93h2.47v-.93a3,3,0,0,0-.31-1.57,1,1,0,0,0-.94-.5,1,1,0,0,0-.91.5A3,3,0,0,0,214.17,234.52Z" style="fill:#414042"/><path d="M224,230.15v.94a2.56,2.56,0,0,1,2.13-1.13,3,3,0,0,1,1.42.34,2.9,2.9,0,0,1,1.05,1,4,4,0,0,1,1.14-.95,2.73,2.73,0,0,1,1.36-.37,2.91,2.91,0,0,1,2.46,1,4.64,4.64,0,0,1,.73,2.85v9H231.5v-9a1.4,1.4,0,0,0-.33-1,1.15,1.15,0,0,0-1.65,0,1.4,1.4,0,0,0-.33,1v9h-2.78v-9a1.4,1.4,0,0,0-.33-1,1.16,1.16,0,0,0-1.66,0,1.44,1.44,0,0,0-.31,1v9h-2.79V230.15Z" style="fill:#414042"/><path d="M244.12,238.72a1.43,1.43,0,0,0,1.61,1.61h.1v2.49h-.1a4.92,4.92,0,0,1-3.28-.95,3.7,3.7,0,0,1-1.11-3v-6.8h-1.42v-1.94h1.42v-2.23l2.78-1.13v3.36h2v1.94h-2Z" style="fill:#414042"/><path d="M250.48,226.26V231a2.6,2.6,0,0,1,2-1,2.78,2.78,0,0,1,2.36,1,4.68,4.68,0,0,1,.74,2.83v9h-2.78v-9a1.4,1.4,0,0,0-.33-1,1.17,1.17,0,0,0-1.67,0,1.44,1.44,0,0,0-.31,1v9H247.7V226.26Z" style="fill:#414042"/><path d="M265.29,234v8.83H262.7v-1a4.05,4.05,0,0,1-1,.94,2.31,2.31,0,0,1-1.25.3,2.82,2.82,0,0,1-2.38-1,4.57,4.57,0,0,1-.81-2.88,3.52,3.52,0,0,1,1.08-2.75,4.53,4.53,0,0,1,3.1-1h1.05v-1.61a1.5,1.5,0,0,0-.3-1,1.09,1.09,0,0,0-.87-.34,1.11,1.11,0,0,0-.84.33,1.29,1.29,0,0,0-.31.91v.2h-2.57v-.1a3.64,3.64,0,0,1,1.05-2.83,3.93,3.93,0,0,1,2.74-1,3.73,3.73,0,0,1,2.87,1.09A4.14,4.14,0,0,1,265.29,234Zm-2.79,5v-1.7h-.71a1.91,1.91,0,0,0-1.29.38,1.59,1.59,0,0,0-.44,1.27,1.93,1.93,0,0,0,.31,1.2,1.08,1.08,0,0,0,.91.41,1.11,1.11,0,0,0,.88-.42A1.74,1.74,0,0,0,262.5,239Z" style="fill:#414042"/><path d="M270.69,238.72a1.42,1.42,0,0,0,1.61,1.61h.09v2.49h-.09a4.9,4.9,0,0,1-3.28-.95,3.7,3.7,0,0,1-1.12-3v-6.8h-1.41v-1.94h1.41v-2.23l2.79-1.13v3.36h2v1.94h-2Z" style="fill:#414042"/><path d="M280.82,230.15l1.27,8.23,1.53-8.23h2.31l1.53,8.23,1.28-8.23h3.09l-2.9,12.67h-2.71l-1.44-7.75-1.47,7.75h-2.69l-2.88-12.67Z" style="fill:#414042"/><path d="M295.72,226.26v2.33h-2.78v-2.33Zm0,3.89v12.67h-2.78V230.15Z" style="fill:#414042"/><path d="M297.79,226.26h2.78v12.46c0,1.07.51,1.61,1.54,1.61h.12v2.49h-.15q-4.29,0-4.29-3.93Z" style="fill:#414042"/><path d="M303.55,226.26h2.78v12.46c0,1.07.51,1.61,1.54,1.61H308v2.49h-.15q-4.29,0-4.29-3.93Z" style="fill:#414042"/><path d="M68.5,260.27a6.08,6.08,0,0,1-1.07,3.94A4.24,4.24,0,0,1,64,265.5H62.43v6.12H59.5V255.06H64a4.22,4.22,0,0,1,3.49,1.3A6.19,6.19,0,0,1,68.5,260.27Zm-3,0a3.87,3.87,0,0,0-.37-1.94,1.4,1.4,0,0,0-1.31-.63H62.43v5.14h1.44a1.4,1.4,0,0,0,1.31-.63A3.87,3.87,0,0,0,65.55,260.27Z" style="fill:#414042"/><path d="M72.56,259v1.18a2.94,2.94,0,0,1,1.09-1.1,3,3,0,0,1,1.4-.32,3.35,3.35,0,0,1,.87.1v2.92a3.65,3.65,0,0,0-1.27-.24,1.87,1.87,0,0,0-1.43.57,2.2,2.2,0,0,0-.54,1.59v8H69.89V259Z" style="fill:#414042"/><path d="M76.92,267.23v-3.89a5,5,0,0,1,1-3.5,4.69,4.69,0,0,1,6,0,5,5,0,0,1,1,3.5v3.89a5.07,5.07,0,0,1-1,3.51,4.69,4.69,0,0,1-6,0A5,5,0,0,1,76.92,267.23Zm5.26,0v-3.94a3,3,0,0,0-.31-1.57,1,1,0,0,0-.94-.5,1,1,0,0,0-.91.5,3,3,0,0,0-.31,1.57v3.94a3,3,0,0,0,.31,1.57,1,1,0,0,0,.91.49,1,1,0,0,0,.94-.49A3,3,0,0,0,82.18,267.26Z" style="fill:#414042"/><path d="M88.73,259l1.59,8.23L91.88,259H95l-3.17,12.67h-3L85.66,259Z" style="fill:#414042"/><path d="M98.84,255.06v2.33H96.05v-2.33Zm0,3.89v12.67H96.05V259Z" style="fill:#414042"/><path d="M100.83,267.71v-4.85a4.83,4.83,0,0,1,.83-3.12,2.76,2.76,0,0,1,2.22-1,2.49,2.49,0,0,1,1.25.31,2.35,2.35,0,0,1,.88.89v-4.9h2.76v16.56h-2.66v-.88a2.78,2.78,0,0,1-2.18,1.08,2.83,2.83,0,0,1-2.25-1A4.71,4.71,0,0,1,100.83,267.71Zm5.23-4.39a3,3,0,0,0-.31-1.57,1,1,0,0,0-.94-.5,1,1,0,0,0-.9.5,3.1,3.1,0,0,0-.3,1.57v3.94a3.12,3.12,0,0,0,.3,1.58,1,1,0,0,0,.93.48c.81,0,1.22-.69,1.22-2.06Z" style="fill:#414042"/><path d="M113.45,267.42c0,1.3.42,1.95,1.25,1.95s1.23-.54,1.23-1.61v-.12h2.68v.14a4.14,4.14,0,0,1-1,3,4,4,0,0,1-2.91,1,3.81,3.81,0,0,1-3-1.16,5.54,5.54,0,0,1-1.06-3.81v-3.1a5.85,5.85,0,0,1,1-3.79,3.62,3.62,0,0,1,3-1.2,3.79,3.79,0,0,1,3,1.22,5.64,5.64,0,0,1,1.07,3.77v2.52h-5.26Zm0-4.1v.94h2.48v-.94a3,3,0,0,0-.32-1.57,1,1,0,0,0-.93-.5,1,1,0,0,0-.91.5A3,3,0,0,0,113.45,263.32Z" style="fill:#414042"/><path d="M125.42,269.66a4.77,4.77,0,0,1-.59-2.38V255.06h3v12.15a2.27,2.27,0,0,0,.39,1.47,1.39,1.39,0,0,0,1.17.47c1,0,1.56-.65,1.56-1.94V255.06h3v12.22a4.88,4.88,0,0,1-.58,2.38,4,4,0,0,1-1.61,1.59,4.73,4.73,0,0,1-2.33.57,4.65,4.65,0,0,1-2.31-.57A4.1,4.1,0,0,1,125.42,269.66Z" style="fill:#414042"/><path d="M135.58,268v-.14h2.69V268a1.59,1.59,0,0,0,.36,1.12,1.32,1.32,0,0,0,1,.4,1.26,1.26,0,0,0,1-.35,1.47,1.47,0,0,0,.32-1,1.36,1.36,0,0,0-.3-.88,2.59,2.59,0,0,0-1-.66l-1.44-.62a4.49,4.49,0,0,1-2-1.47,3.82,3.82,0,0,1-.55-2.11,3.43,3.43,0,0,1,1.08-2.59,4.42,4.42,0,0,1,5.67,0,3.55,3.55,0,0,1,1.08,2.69v.24h-2.69v-.15a1.61,1.61,0,0,0-.34-1.12,1.12,1.12,0,0,0-.91-.39,1.21,1.21,0,0,0-.87.31,1.18,1.18,0,0,0-.33.89,1.39,1.39,0,0,0,.24.84,2.21,2.21,0,0,0,.91.63l1.56.67a4.52,4.52,0,0,1,2,1.45,3.78,3.78,0,0,1,.6,2.22,3.56,3.56,0,0,1-1.09,2.7,4.07,4.07,0,0,1-2.94,1.05,4.14,4.14,0,0,1-2.93-1A3.71,3.71,0,0,1,135.58,268Z" style="fill:#414042"/><path d="M148,267.42c0,1.3.41,1.95,1.24,1.95s1.23-.54,1.23-1.61v-.12h2.69v.14a4.14,4.14,0,0,1-1,3,4,4,0,0,1-2.91,1,3.81,3.81,0,0,1-3-1.16,5.54,5.54,0,0,1-1.06-3.81v-3.1a5.85,5.85,0,0,1,1-3.79,3.62,3.62,0,0,1,3-1.2,3.79,3.79,0,0,1,3,1.22,5.58,5.58,0,0,1,1.07,3.77v2.52H148Zm0-4.1v.94h2.47v-.94a3.09,3.09,0,0,0-.31-1.57,1,1,0,0,0-.94-.5,1,1,0,0,0-.91.5A3,3,0,0,0,148,263.32Z" style="fill:#414042"/><path d="M157.78,259v1.18a3,3,0,0,1,1.09-1.1,3.05,3.05,0,0,1,1.41-.32,3.22,3.22,0,0,1,.86.1v2.92a3.61,3.61,0,0,0-1.27-.24,1.88,1.88,0,0,0-1.43.57,2.2,2.2,0,0,0-.54,1.59v8h-2.78V259Z" style="fill:#414042"/><path d="M162.2,268v-.14h2.69V268a1.59,1.59,0,0,0,.36,1.12,1.29,1.29,0,0,0,1,.4,1.23,1.23,0,0,0,.95-.35,1.42,1.42,0,0,0,.33-1,1.36,1.36,0,0,0-.3-.88,2.59,2.59,0,0,0-.95-.66l-1.44-.62a4.43,4.43,0,0,1-2-1.47,3.74,3.74,0,0,1-.55-2.11,3.43,3.43,0,0,1,1.08-2.59,3.91,3.91,0,0,1,2.83-1,4,4,0,0,1,2.84,1,3.55,3.55,0,0,1,1.08,2.69v.24h-2.69v-.15a1.66,1.66,0,0,0-.34-1.12,1.14,1.14,0,0,0-.91-.39,1.26,1.26,0,0,0-.88.31,1.21,1.21,0,0,0-.32.89,1.39,1.39,0,0,0,.24.84,2.14,2.14,0,0,0,.91.63l1.56.67a4.58,4.58,0,0,1,2,1.45,3.78,3.78,0,0,1,.6,2.22,3.59,3.59,0,0,1-1.09,2.7,4.07,4.07,0,0,1-2.94,1.05,4.13,4.13,0,0,1-2.93-1A3.71,3.71,0,0,1,162.2,268Z" style="fill:#414042"/><path d="M179,268.41l-.67,3.21h-3.07l4.25-16.56h2.88l4.22,16.56h-3.07l-.67-3.21Zm1.95-9.36-1.39,6.72h2.78Z" style="fill:#414042"/><path d="M187.64,267.23v-3.89a5,5,0,0,1,1-3.5,4,4,0,0,1,3-1.08,3.86,3.86,0,0,1,2.9,1,4.24,4.24,0,0,1,1,3.1v.48h-2.69v-.44a2,2,0,0,0-.32-1.26,1.08,1.08,0,0,0-.9-.42,1,1,0,0,0-.94.5,3.09,3.09,0,0,0-.31,1.57v3.94a3.14,3.14,0,0,0,.31,1.57,1,1,0,0,0,.92.49,1.11,1.11,0,0,0,.92-.42,2.08,2.08,0,0,0,.32-1.29v-.4h2.69v.4a4.35,4.35,0,0,1-1,3.16,3.83,3.83,0,0,1-2.9,1.05,4,4,0,0,1-3-1.08A5,5,0,0,1,187.64,267.23Z" style="fill:#414042"/><path d="M197.4,267.23v-3.89a5,5,0,0,1,1-3.5,3.93,3.93,0,0,1,3-1.08,3.86,3.86,0,0,1,2.9,1,4.28,4.28,0,0,1,1,3.1v.48h-2.69v-.44a2.09,2.09,0,0,0-.32-1.26,1.08,1.08,0,0,0-.9-.42,1,1,0,0,0-.94.5,3,3,0,0,0-.31,1.57v3.94a3,3,0,0,0,.31,1.57,1,1,0,0,0,.91.49,1.11,1.11,0,0,0,.93-.42,2.15,2.15,0,0,0,.32-1.29v-.4h2.69v.4a4.39,4.39,0,0,1-1,3.16,3.83,3.83,0,0,1-2.9,1.05,3.93,3.93,0,0,1-3-1.08A5,5,0,0,1,197.4,267.23Z" style="fill:#414042"/><path d="M210,267.42c0,1.3.41,1.95,1.24,1.95s1.23-.54,1.23-1.61v-.12h2.69v.14a4.14,4.14,0,0,1-1,3,4,4,0,0,1-2.91,1,3.81,3.81,0,0,1-3-1.16,5.54,5.54,0,0,1-1.06-3.81v-3.1a5.85,5.85,0,0,1,1-3.79,3.62,3.62,0,0,1,3-1.2,3.79,3.79,0,0,1,3,1.22,5.58,5.58,0,0,1,1.07,3.77v2.52H210Zm0-4.1v.94h2.47v-.94a3.09,3.09,0,0,0-.31-1.57,1,1,0,0,0-.94-.5,1,1,0,0,0-.91.5A3,3,0,0,0,210,263.32Z" style="fill:#414042"/><path d="M216.84,268v-.14h2.69V268a1.59,1.59,0,0,0,.36,1.12,1.32,1.32,0,0,0,1,.4,1.25,1.25,0,0,0,.95-.35,1.42,1.42,0,0,0,.32-1,1.36,1.36,0,0,0-.3-.88,2.55,2.55,0,0,0-.94-.66l-1.44-.62a4.43,4.43,0,0,1-2-1.47,3.74,3.74,0,0,1-.55-2.11,3.43,3.43,0,0,1,1.08-2.59,4.4,4.4,0,0,1,5.66,0,3.55,3.55,0,0,1,1.08,2.69v.24h-2.69v-.15a1.66,1.66,0,0,0-.33-1.12,1.15,1.15,0,0,0-.91-.39,1.26,1.26,0,0,0-.88.31,1.17,1.17,0,0,0-.32.89,1.39,1.39,0,0,0,.24.84,2.08,2.08,0,0,0,.91.63l1.56.67a4.58,4.58,0,0,1,2,1.45,3.78,3.78,0,0,1,.6,2.22,3.56,3.56,0,0,1-1.1,2.7,4,4,0,0,1-2.94,1.05,4.16,4.16,0,0,1-2.93-1A3.71,3.71,0,0,1,216.84,268Z" style="fill:#414042"/><path d="M226,268v-.14h2.69V268a1.59,1.59,0,0,0,.36,1.12,1.32,1.32,0,0,0,1,.4,1.25,1.25,0,0,0,1-.35,1.47,1.47,0,0,0,.32-1,1.36,1.36,0,0,0-.3-.88,2.51,2.51,0,0,0-.95-.66l-1.44-.62a4.39,4.39,0,0,1-2-1.47,3.74,3.74,0,0,1-.56-2.11,3.47,3.47,0,0,1,1.08-2.59,4.42,4.42,0,0,1,5.67,0,3.55,3.55,0,0,1,1.08,2.69v.24h-2.69v-.15a1.66,1.66,0,0,0-.33-1.12,1.16,1.16,0,0,0-.92-.39,1.23,1.23,0,0,0-.87.31,1.18,1.18,0,0,0-.33.89,1.39,1.39,0,0,0,.24.84,2.19,2.19,0,0,0,.92.63l1.56.67a4.55,4.55,0,0,1,2,1.45,3.78,3.78,0,0,1,.6,2.22,3.56,3.56,0,0,1-1.09,2.7,4.07,4.07,0,0,1-2.94,1.05,4.14,4.14,0,0,1-2.93-1A3.71,3.71,0,0,1,226,268Z" style="fill:#414042"/><path d="M243.56,267.52a1.42,1.42,0,0,0,1.6,1.61h.1v2.49h-.1a4.87,4.87,0,0,1-3.27-.95,3.67,3.67,0,0,1-1.12-3v-6.8h-1.41V259h1.41v-2.23l2.79-1.13V259h2v1.94h-2Z" style="fill:#414042"/><path d="M246.63,267.23v-3.89a5,5,0,0,1,1-3.5,4.69,4.69,0,0,1,6,0,5,5,0,0,1,1,3.5v3.89a5,5,0,0,1-1,3.51,4.69,4.69,0,0,1-6,0A5,5,0,0,1,246.63,267.23Zm5.26,0v-3.94a3,3,0,0,0-.32-1.57,1,1,0,0,0-.93-.5,1,1,0,0,0-.91.5,3,3,0,0,0-.32,1.57v3.94a3,3,0,0,0,.32,1.57,1,1,0,0,0,.91.49,1,1,0,0,0,.93-.49A3,3,0,0,0,251.89,267.26Z" style="fill:#414042"/><path d="M264.44,267.52a1.42,1.42,0,0,0,1.61,1.61h.09v2.49h-.09a4.9,4.9,0,0,1-3.28-.95,3.7,3.7,0,0,1-1.12-3v-6.8h-1.41V259h1.41v-2.23l2.79-1.13V259h2v1.94h-2Z" style="fill:#414042"/><path d="M270.8,255.06v4.71a2.58,2.58,0,0,1,2-1,2.76,2.76,0,0,1,2.35,1,4.61,4.61,0,0,1,.75,2.83v9.05H273.1v-9a1.45,1.45,0,0,0-.32-1,1.17,1.17,0,0,0-1.67,0,1.44,1.44,0,0,0-.31,1v9H268V255.06Z" style="fill:#414042"/><path d="M280.57,267.42c0,1.3.41,1.95,1.24,1.95s1.23-.54,1.23-1.61v-.12h2.69v.14a4.14,4.14,0,0,1-1,3,4,4,0,0,1-2.91,1,3.81,3.81,0,0,1-3-1.16,5.54,5.54,0,0,1-1.06-3.81v-3.1a5.85,5.85,0,0,1,1-3.79,3.62,3.62,0,0,1,3-1.2,3.79,3.79,0,0,1,3,1.22,5.58,5.58,0,0,1,1.07,3.77v2.52h-5.25Zm0-4.1v.94H283v-.94a3.09,3.09,0,0,0-.31-1.57,1,1,0,0,0-.94-.5,1,1,0,0,0-.91.5A3,3,0,0,0,280.57,263.32Z" style="fill:#414042"/><path d="M41.44,295.62a5.35,5.35,0,0,1-1,3.66,4.56,4.56,0,0,1-3.5,1.14H32.42V283.86h4.49a4.67,4.67,0,0,1,3.45,1.07,4.74,4.74,0,0,1,1,3.4,4.85,4.85,0,0,1-.4,2.08,2.74,2.74,0,0,1-1.4,1.32,2.7,2.7,0,0,1,1.47,1.42A6.74,6.74,0,0,1,41.44,295.62Zm-6.09-5.11h1.24A1.84,1.84,0,0,0,38,290a2.25,2.25,0,0,0,.41-1.52A2.28,2.28,0,0,0,38,287a1.84,1.84,0,0,0-1.44-.46H35.35Zm3.14,4.9a2.9,2.9,0,0,0-.44-1.8,1.8,1.8,0,0,0-1.48-.56H35.35v4.73h1.22a1.78,1.78,0,0,0,1.51-.54A3.13,3.13,0,0,0,38.49,295.41Z" style="fill:#414042"/><path d="M46.05,296.22c0,1.3.42,1.95,1.25,1.95s1.22-.54,1.22-1.61v-.12h2.69v.14a4.1,4.1,0,0,1-1,3,3.9,3.9,0,0,1-2.9,1,3.85,3.85,0,0,1-3-1.16,5.6,5.6,0,0,1-1-3.81v-3.1a5.91,5.91,0,0,1,1-3.79,3.64,3.64,0,0,1,3-1.2,3.8,3.8,0,0,1,3,1.22,5.64,5.64,0,0,1,1.07,3.77v2.52H46.05Zm0-4.1v.93h2.47v-.93a3,3,0,0,0-.31-1.57,1,1,0,0,0-.94-.5,1,1,0,0,0-.91.5A3,3,0,0,0,46.05,292.12Z" style="fill:#414042"/><path d="M52.94,296.77v-.14h2.69v.14a1.59,1.59,0,0,0,.36,1.12,1.29,1.29,0,0,0,1,.4,1.23,1.23,0,0,0,.95-.35,1.42,1.42,0,0,0,.33-1A1.36,1.36,0,0,0,58,296a2.59,2.59,0,0,0-.95-.66l-1.44-.62a4.43,4.43,0,0,1-2-1.47,3.74,3.74,0,0,1-.55-2.11,3.43,3.43,0,0,1,1.08-2.59,4.4,4.4,0,0,1,5.66,0,3.55,3.55,0,0,1,1.08,2.69v.24H58.15v-.15a1.66,1.66,0,0,0-.34-1.12,1.14,1.14,0,0,0-.91-.39,1.26,1.26,0,0,0-.88.31,1.21,1.21,0,0,0-.32.89,1.39,1.39,0,0,0,.24.84,2.14,2.14,0,0,0,.91.63l1.56.67a4.58,4.58,0,0,1,2,1.45,3.78,3.78,0,0,1,.6,2.22,3.59,3.59,0,0,1-1.09,2.7,4.66,4.66,0,0,1-5.87,0A3.68,3.68,0,0,1,52.94,296.77Z" style="fill:#414042"/><path d="M65.8,296.32a1.43,1.43,0,0,0,1.61,1.61h.1v2.49h-.1a4.92,4.92,0,0,1-3.28-.95,3.7,3.7,0,0,1-1.11-3v-6.8H61.6v-1.94H63v-2.23l2.78-1.13v3.36h2v1.94h-2Z" style="fill:#414042"/><path d="M75.91,290.8v2.64h-6.6V290.8Z" style="fill:#414042"/><path d="M80.71,297.21,80,300.42H77l4.25-16.56h2.88l4.23,16.56H85.24l-.67-3.21Zm1.94-9.36-1.39,6.72H84Z" style="fill:#414042"/><path d="M91,287.75,92.54,296l1.56-8.23h3.07L94,300.42h-3l-3.17-12.67Z" style="fill:#414042"/><path d="M105.69,291.59v8.83H103.1v-1.05a3.85,3.85,0,0,1-1,.94,2.34,2.34,0,0,1-1.25.31,2.84,2.84,0,0,1-2.39-1,4.57,4.57,0,0,1-.81-2.88A3.55,3.55,0,0,1,98.75,294a4.55,4.55,0,0,1,3.1-1h1.06v-1.61a1.55,1.55,0,0,0-.3-1,1.1,1.1,0,0,0-.88-.34,1.11,1.11,0,0,0-.84.33,1.29,1.29,0,0,0-.31.91v.2H98v-.1a3.61,3.61,0,0,1,1.06-2.83,3.89,3.89,0,0,1,2.73-1,3.72,3.72,0,0,1,2.87,1.09A4.14,4.14,0,0,1,105.69,291.59Zm-2.78,5v-1.7h-.72a1.91,1.91,0,0,0-1.29.38,1.63,1.63,0,0,0-.44,1.27,1.93,1.93,0,0,0,.31,1.2,1.17,1.17,0,0,0,1.79,0A1.74,1.74,0,0,0,102.91,296.63Z" style="fill:#414042"/><path d="M110.54,283.86v2.33h-2.79v-2.33Zm0,3.89v12.67h-2.79V287.75Z" style="fill:#414042"/><path d="M112.6,283.86h2.79v12.46c0,1.07.51,1.61,1.53,1.61H117v2.49h-.14c-2.86,0-4.3-1.31-4.3-3.93Z" style="fill:#414042"/><path d="M126.12,291.59v8.83h-2.6v-1.05a3.69,3.69,0,0,1-1,.94,2.34,2.34,0,0,1-1.25.31,2.86,2.86,0,0,1-2.39-1,4.63,4.63,0,0,1-.8-2.88,3.52,3.52,0,0,1,1.08-2.75,4.52,4.52,0,0,1,3.1-1h1v-1.61a1.55,1.55,0,0,0-.3-1,1.26,1.26,0,0,0-1.71,0,1.29,1.29,0,0,0-.32.91v.2h-2.57v-.1a3.64,3.64,0,0,1,1.06-2.83,3.93,3.93,0,0,1,2.74-1,3.75,3.75,0,0,1,2.87,1.09A4.14,4.14,0,0,1,126.12,291.59Zm-2.79,5v-1.7h-.72a1.87,1.87,0,0,0-1.28.38,1.59,1.59,0,0,0-.45,1.27,1.93,1.93,0,0,0,.32,1.2,1.16,1.16,0,0,0,1.78,0A1.69,1.69,0,0,0,123.33,296.63Z" style="fill:#414042"/><path d="M130.77,299.54v.88h-2.69V283.86h2.79v4.9a2.33,2.33,0,0,1,.87-.89,2.45,2.45,0,0,1,1.26-.31,2.73,2.73,0,0,1,2.21,1,4.83,4.83,0,0,1,.82,3.12v4.85a4.77,4.77,0,0,1-.85,3.12,2.8,2.8,0,0,1-2.23,1,2.5,2.5,0,0,1-1.18-.27A3.5,3.5,0,0,1,130.77,299.54Zm2.47-3.49v-3.93a3.1,3.1,0,0,0-.3-1.57,1,1,0,0,0-.9-.5,1,1,0,0,0-.91.5,3,3,0,0,0-.31,1.57v3.93c0,1.38.41,2.07,1.22,2.07a1,1,0,0,0,.9-.48A3.14,3.14,0,0,0,133.24,296.05Z" style="fill:#414042"/><path d="M137.92,283.86h2.79v12.46c0,1.07.51,1.61,1.53,1.61h.12v2.49h-.14q-4.31,0-4.3-3.93Z" style="fill:#414042"/><path d="M146.39,296.22c0,1.3.42,1.95,1.25,1.95s1.23-.54,1.23-1.61v-.12h2.68v.14a4.1,4.1,0,0,1-1,3,3.93,3.93,0,0,1-2.91,1,3.81,3.81,0,0,1-3-1.16,5.54,5.54,0,0,1-1.06-3.81v-3.1a5.85,5.85,0,0,1,1-3.79,3.62,3.62,0,0,1,3-1.2,3.79,3.79,0,0,1,3,1.22,5.64,5.64,0,0,1,1.07,3.77v2.52h-5.26Zm0-4.1v.93h2.48v-.93a3,3,0,0,0-.32-1.57,1,1,0,0,0-.93-.5,1,1,0,0,0-.91.5A3,3,0,0,0,146.39,292.12Z" style="fill:#414042"/><path d="M157.67,295.86V288.4a4.61,4.61,0,0,1,1.32-3.57,5,5,0,0,1,3.48-1.21,4.7,4.7,0,0,1,3.34,1.18,4.49,4.49,0,0,1,1.27,3.48v.5h-3v-.5a2.11,2.11,0,0,0-.48-1.48,1.64,1.64,0,0,0-1.25-.51,1.49,1.49,0,0,0-1.35.64,3.64,3.64,0,0,0-.42,1.95v6.65c0,1.61.59,2.42,1.77,2.42a1.49,1.49,0,0,0,1.3-.59,2.79,2.79,0,0,0,.43-1.69v-1.75h-1.75v-2.33h4.7v4.27a4.55,4.55,0,0,1-1.33,3.53,4.88,4.88,0,0,1-3.44,1.23,4.65,4.65,0,0,1-3.39-1.22A4.71,4.71,0,0,1,157.67,295.86Z" style="fill:#414042"/><path d="M171.69,296.22c0,1.3.42,1.95,1.25,1.95s1.22-.54,1.22-1.61v-.12h2.69v.14a4.1,4.1,0,0,1-1,3,3.9,3.9,0,0,1-2.9,1,3.83,3.83,0,0,1-3-1.16,5.6,5.6,0,0,1-1.05-3.81v-3.1a5.91,5.91,0,0,1,1-3.79,3.64,3.64,0,0,1,3-1.2,3.8,3.8,0,0,1,3,1.22,5.64,5.64,0,0,1,1.07,3.77v2.52h-5.26Zm0-4.1v.93h2.47v-.93a3,3,0,0,0-.31-1.57,1,1,0,0,0-.94-.5,1,1,0,0,0-.91.5A3,3,0,0,0,171.69,292.12Z" style="fill:#414042"/><path d="M178.77,296v-3.89a5,5,0,0,1,1-3.5,4.69,4.69,0,0,1,6,0,5,5,0,0,1,1,3.5V296a5,5,0,0,1-1,3.51,4.69,4.69,0,0,1-6,0A5,5,0,0,1,178.77,296Zm5.26,0v-3.93a3,3,0,0,0-.32-1.57,1,1,0,0,0-.93-.5,1,1,0,0,0-.91.5,3,3,0,0,0-.32,1.57v3.93a3,3,0,0,0,.32,1.58,1,1,0,0,0,.91.49,1,1,0,0,0,.93-.49A3,3,0,0,0,184,296.05Z" style="fill:#414042"/><path d="M188.44,296.77v-.14h2.69v.14a1.59,1.59,0,0,0,.36,1.12,1.32,1.32,0,0,0,1,.4,1.26,1.26,0,0,0,.95-.35,1.47,1.47,0,0,0,.32-1,1.36,1.36,0,0,0-.3-.88,2.59,2.59,0,0,0-.95-.66l-1.44-.62a4.39,4.39,0,0,1-2-1.47,3.74,3.74,0,0,1-.56-2.11,3.43,3.43,0,0,1,1.08-2.59,4.42,4.42,0,0,1,5.67,0,3.55,3.55,0,0,1,1.08,2.69v.24h-2.69v-.15a1.61,1.61,0,0,0-.34-1.12,1.12,1.12,0,0,0-.91-.39,1.21,1.21,0,0,0-.87.31,1.18,1.18,0,0,0-.33.89,1.39,1.39,0,0,0,.24.84,2.21,2.21,0,0,0,.91.63l1.56.67a4.52,4.52,0,0,1,2,1.45,3.78,3.78,0,0,1,.6,2.22,3.56,3.56,0,0,1-1.09,2.7,4.66,4.66,0,0,1-5.87,0A3.68,3.68,0,0,1,188.44,296.77Z" style="fill:#414042"/><path d="M200.8,287.75v1a2.57,2.57,0,0,1,2.23-1.2,2.73,2.73,0,0,1,2.21,1,4.83,4.83,0,0,1,.82,3.12v4.85a4.77,4.77,0,0,1-.85,3.12,2.8,2.8,0,0,1-2.22,1,2.59,2.59,0,0,1-2.09-1v4.57h-2.79V287.75Zm2.47,8.3v-3.93a3.1,3.1,0,0,0-.3-1.57,1,1,0,0,0-.9-.5,1,1,0,0,0-.91.5,3,3,0,0,0-.31,1.57v3.93c0,1.38.41,2.07,1.22,2.07a1,1,0,0,0,.9-.48A3.14,3.14,0,0,0,203.27,296.05Z" style="fill:#414042"/><path d="M215.71,291.59v8.83h-2.6v-1.05a3.69,3.69,0,0,1-1,.94,2.34,2.34,0,0,1-1.25.31,2.86,2.86,0,0,1-2.39-1,4.63,4.63,0,0,1-.8-2.88,3.52,3.52,0,0,1,1.08-2.75,4.52,4.52,0,0,1,3.1-1h1v-1.61a1.55,1.55,0,0,0-.3-1,1.26,1.26,0,0,0-1.71,0,1.29,1.29,0,0,0-.32.91v.2H208v-.1a3.64,3.64,0,0,1,1.05-2.83,3.93,3.93,0,0,1,2.74-1,3.73,3.73,0,0,1,2.87,1.09A4.14,4.14,0,0,1,215.71,291.59Zm-2.79,5v-1.7h-.72a1.87,1.87,0,0,0-1.28.38,1.59,1.59,0,0,0-.45,1.27,1.93,1.93,0,0,0,.32,1.2,1.16,1.16,0,0,0,1.78,0A1.69,1.69,0,0,0,212.92,296.63Z" style="fill:#414042"/><path d="M221.11,296.32a1.42,1.42,0,0,0,1.6,1.61h.1v2.49h-.1a4.87,4.87,0,0,1-3.27-.95,3.67,3.67,0,0,1-1.12-3v-6.8h-1.41v-1.94h1.41v-2.23l2.79-1.13v3.36h2v1.94h-2Z" style="fill:#414042"/><path d="M227.56,283.86v2.33h-2.78v-2.33Zm0,3.89v12.67h-2.78V287.75Z" style="fill:#414042"/><path d="M237.38,291.59v8.83h-2.59v-1.05a3.87,3.87,0,0,1-1,.94,2.31,2.31,0,0,1-1.25.31,2.86,2.86,0,0,1-2.39-1,4.63,4.63,0,0,1-.8-2.88,3.52,3.52,0,0,1,1.08-2.75,4.52,4.52,0,0,1,3.1-1h1.05v-1.61a1.55,1.55,0,0,0-.3-1,1.09,1.09,0,0,0-.87-.34,1.11,1.11,0,0,0-.84.33,1.29,1.29,0,0,0-.32.91v.2H229.7v-.1a3.64,3.64,0,0,1,1.05-2.83,3.93,3.93,0,0,1,2.74-1,3.73,3.73,0,0,1,2.87,1.09A4.14,4.14,0,0,1,237.38,291.59Zm-2.79,5v-1.7h-.72a1.87,1.87,0,0,0-1.28.38,1.59,1.59,0,0,0-.45,1.27,1.93,1.93,0,0,0,.32,1.2,1.07,1.07,0,0,0,.91.41,1.11,1.11,0,0,0,.88-.42A1.74,1.74,0,0,0,234.59,296.63Z" style="fill:#414042"/><path d="M239.34,283.86h2.79v12.46c0,1.07.51,1.61,1.53,1.61h.13v2.49h-.15c-2.86,0-4.3-1.31-4.3-3.93Z" style="fill:#414042"/><path d="M253.91,283.86a4.27,4.27,0,0,1,4.61,4.75v7.06a4.57,4.57,0,0,1-1.32,3.54,4.86,4.86,0,0,1-3.43,1.21h-4.44V283.86Zm1.21,13.27a3.11,3.11,0,0,0,.45-1.8v-6.21a3.61,3.61,0,0,0-.43-1.93,1.45,1.45,0,0,0-1.3-.66h-1.58v11.25h1.58A1.43,1.43,0,0,0,255.12,297.13Z" style="fill:#414042"/><path d="M268.17,291.59v8.83h-2.59v-1.05a3.87,3.87,0,0,1-1,.94,2.31,2.31,0,0,1-1.25.31,2.83,2.83,0,0,1-2.38-1,4.57,4.57,0,0,1-.81-2.88,3.52,3.52,0,0,1,1.08-2.75,4.53,4.53,0,0,1,3.1-1h1.05v-1.61a1.5,1.5,0,0,0-.3-1,1.09,1.09,0,0,0-.87-.34,1.11,1.11,0,0,0-.84.33,1.29,1.29,0,0,0-.31.91v.2h-2.57v-.1a3.64,3.64,0,0,1,1.05-2.83,3.93,3.93,0,0,1,2.74-1,3.73,3.73,0,0,1,2.87,1.09A4.14,4.14,0,0,1,268.17,291.59Zm-2.79,5v-1.7h-.72a1.9,1.9,0,0,0-1.28.38,1.59,1.59,0,0,0-.44,1.27,1.93,1.93,0,0,0,.31,1.2,1.08,1.08,0,0,0,.91.41,1.11,1.11,0,0,0,.88-.42A1.74,1.74,0,0,0,265.38,296.63Z" style="fill:#414042"/><path d="M273.57,296.32a1.42,1.42,0,0,0,1.61,1.61h.09v2.49h-.09a4.9,4.9,0,0,1-3.28-.95,3.7,3.7,0,0,1-1.12-3v-6.8h-1.41v-1.94h1.41v-2.23l2.79-1.13v3.36h2v1.94h-2Z" style="fill:#414042"/><path d="M284.54,291.59v8.83H282v-1.05a3.87,3.87,0,0,1-1,.94,2.31,2.31,0,0,1-1.25.31,2.83,2.83,0,0,1-2.38-1,4.57,4.57,0,0,1-.81-2.88A3.52,3.52,0,0,1,277.6,294a4.52,4.52,0,0,1,3.1-1h1.05v-1.61a1.55,1.55,0,0,0-.3-1,1.09,1.09,0,0,0-.87-.34,1.11,1.11,0,0,0-.84.33,1.29,1.29,0,0,0-.32.91v.2h-2.56v-.1a3.64,3.64,0,0,1,1.05-2.83,3.93,3.93,0,0,1,2.74-1,3.73,3.73,0,0,1,2.87,1.09A4.14,4.14,0,0,1,284.54,291.59Zm-2.79,5v-1.7H281a1.87,1.87,0,0,0-1.28.38,1.59,1.59,0,0,0-.45,1.27,1.93,1.93,0,0,0,.32,1.2,1.08,1.08,0,0,0,.91.41,1.11,1.11,0,0,0,.88-.42A1.74,1.74,0,0,0,281.75,296.63Z" style="fill:#414042"/><path d="M294.4,287.22v.53h1.71v1.94H294.4v10.73h-2.76V289.69h-1.27v-1.94h1.27V287q0-3.16,3.27-3.17h1.2v2h-.36a1.42,1.42,0,0,0-1.05.31A1.55,1.55,0,0,0,294.4,287.22Z" style="fill:#414042"/><path d="M297.52,296v-3.89a5,5,0,0,1,1-3.5,4,4,0,0,1,3-1.08,3.91,3.91,0,0,1,3,1.08,5,5,0,0,1,1,3.5V296a5,5,0,0,1-1,3.51,3.91,3.91,0,0,1-3,1.08,4,4,0,0,1-3-1.08A5,5,0,0,1,297.52,296Zm5.26,0v-3.93a3,3,0,0,0-.32-1.57,1.1,1.1,0,0,0-1.84,0,3,3,0,0,0-.32,1.57v3.93a3,3,0,0,0,.32,1.58,1.11,1.11,0,0,0,1.84,0A3,3,0,0,0,302.78,296.05Z" style="fill:#414042"/><path d="M310.12,287.75v1.18a2.94,2.94,0,0,1,1.09-1.1,3.05,3.05,0,0,1,1.41-.32,3.22,3.22,0,0,1,.86.1v2.92a3.65,3.65,0,0,0-1.27-.24,1.88,1.88,0,0,0-1.43.57,2.2,2.2,0,0,0-.54,1.59v8h-2.78V287.75Z" style="fill:#414042"/><path d="M54.4,329.22H51.45v-7.1H48.33v7.1H45.38V312.66h2.95v6.82h3.12v-6.82H54.4Z" style="fill:#414042"/><path d="M61.53,330.13a3.72,3.72,0,0,1-.9,1.8,3.2,3.2,0,0,1-1.55.86,10.54,10.54,0,0,1-2.4.22h-.09v-2.44h1c.84,0,1.37-.22,1.61-.65l-3.53-13.37h3.08l1.7,7.7,1.59-7.7H65Z" style="fill:#414042"/><path d="M65.66,325.31v-4.85a4.83,4.83,0,0,1,.83-3.12,2.76,2.76,0,0,1,2.22-1,2.43,2.43,0,0,1,1.24.31,2.31,2.31,0,0,1,.89.89v-4.9H73.6v16.56H70.94v-.88a2.89,2.89,0,0,1-4.43.09A4.71,4.71,0,0,1,65.66,325.31Zm5.23-4.39a3,3,0,0,0-.31-1.57,1,1,0,0,0-.94-.5,1,1,0,0,0-.9.5,3.1,3.1,0,0,0-.3,1.57v3.93a3.14,3.14,0,0,0,.3,1.59,1,1,0,0,0,.93.48c.81,0,1.22-.69,1.22-2.07Z" style="fill:#414042"/><path d="M78.24,316.55v1.18a2.94,2.94,0,0,1,1.09-1.1,3,3,0,0,1,1.4-.32,3.35,3.35,0,0,1,.87.1v2.92a3.71,3.71,0,0,0-1.28-.24,1.85,1.85,0,0,0-1.42.57,2.2,2.2,0,0,0-.54,1.59v8H75.57V316.55Z" style="fill:#414042"/><path d="M82.6,324.83v-3.89a5,5,0,0,1,1-3.5,4,4,0,0,1,3-1.08,3.91,3.91,0,0,1,3,1.08,5,5,0,0,1,1,3.5v3.89a5,5,0,0,1-1,3.51,4,4,0,0,1-3,1.08,4,4,0,0,1-3-1.08A5,5,0,0,1,82.6,324.83Zm5.26,0v-3.93a3.09,3.09,0,0,0-.31-1.57,1,1,0,0,0-.94-.5,1,1,0,0,0-.91.5,3,3,0,0,0-.31,1.57v3.93a3.05,3.05,0,0,0,.31,1.58,1,1,0,0,0,.91.49,1,1,0,0,0,.94-.49A3.16,3.16,0,0,0,87.86,324.85Z" style="fill:#414042"/><path d="M92.54,312.66h2.78v12.46c0,1.07.51,1.61,1.54,1.61H97v2.49h-.15q-4.29,0-4.29-3.93Z" style="fill:#414042"/><path d="M98.23,324.83v-3.89a5,5,0,0,1,1-3.5,4.69,4.69,0,0,1,6,0,5,5,0,0,1,1,3.5v3.89a5,5,0,0,1-1,3.51,4.69,4.69,0,0,1-6,0A5,5,0,0,1,98.23,324.83Zm5.25,0v-3.93a3,3,0,0,0-.31-1.57,1,1,0,0,0-.93-.5,1,1,0,0,0-.92.5,3.09,3.09,0,0,0-.31,1.57v3.93a3.16,3.16,0,0,0,.31,1.58,1,1,0,0,0,.92.49,1,1,0,0,0,.93-.49A3.05,3.05,0,0,0,103.48,324.85Z" style="fill:#414042"/><path d="M108.31,329.65h2.59a1.18,1.18,0,0,0,.31.89,1.23,1.23,0,0,0,.91.31,1.14,1.14,0,0,0,.93-.38,1.73,1.73,0,0,0,.32-1.13v-2.18a2.76,2.76,0,0,1-2.18,1.08,2.85,2.85,0,0,1-2.25-1,4.72,4.72,0,0,1-.85-3.13v-3.67a4.83,4.83,0,0,1,.83-3.12,2.76,2.76,0,0,1,2.22-1,2.49,2.49,0,0,1,1.25.31,2.45,2.45,0,0,1,.89.89v-1H116v12.53a4.3,4.3,0,0,1-1.05,3.05,3.76,3.76,0,0,1-2.89,1.13,3.91,3.91,0,0,1-2.75-.92A3.59,3.59,0,0,1,108.31,329.65Zm5-8.73a3,3,0,0,0-.31-1.57,1,1,0,0,0-.93-.5,1,1,0,0,0-.91.5,3.1,3.1,0,0,0-.3,1.57v2.76a3.12,3.12,0,0,0,.3,1.58,1,1,0,0,0,.93.48c.81,0,1.22-.69,1.22-2.06Z" style="fill:#414042"/><path d="M120.88,312.66V315H118.1v-2.33Zm0,3.89v12.67H118.1V316.55Z" style="fill:#414042"/><path d="M122.87,324.83v-3.89a5,5,0,0,1,1-3.5,3.93,3.93,0,0,1,3-1.08,3.86,3.86,0,0,1,2.9,1,4.28,4.28,0,0,1,1,3.1V321h-2.69v-.44a2.09,2.09,0,0,0-.32-1.26,1.08,1.08,0,0,0-.9-.42,1,1,0,0,0-.94.5,3,3,0,0,0-.31,1.57v3.93a3.05,3.05,0,0,0,.31,1.58,1,1,0,0,0,.91.49,1.11,1.11,0,0,0,.93-.42,2.15,2.15,0,0,0,.32-1.29v-.4h2.69v.4a4.41,4.41,0,0,1-1,3.16,3.83,3.83,0,0,1-2.9,1.05,4,4,0,0,1-3-1.08A5,5,0,0,1,122.87,324.83Z" style="fill:#414042"/><path d="M136.38,324.49h2.79a3.17,3.17,0,0,0,.49,1.8,1.54,1.54,0,0,0,1.31.58,1.49,1.49,0,0,0,1.26-.53,2.85,2.85,0,0,0,.39-1.68,2.35,2.35,0,0,0-.44-1.52,4,4,0,0,0-1.5-1.05l-1.13-.5a5.24,5.24,0,0,1-2.31-1.78,4.92,4.92,0,0,1-.71-2.83,4.56,4.56,0,0,1,1.21-3.33A4.33,4.33,0,0,1,141,312.4a4,4,0,0,1,3.15,1.23,5.42,5.42,0,0,1,1.19,3.57h-2.71a3.23,3.23,0,0,0-.4-1.69,1.36,1.36,0,0,0-1.23-.57c-1.07,0-1.61.63-1.61,1.9a2.26,2.26,0,0,0,.39,1.38,3.37,3.37,0,0,0,1.34.92l1.08.48a5.78,5.78,0,0,1,2.51,1.92,5.39,5.39,0,0,1,.78,3.07,4.93,4.93,0,0,1-1.2,3.56,4.52,4.52,0,0,1-3.41,1.25,4.27,4.27,0,0,1-3.34-1.28A5.33,5.33,0,0,1,136.38,324.49Z" style="fill:#414042"/><path d="M150,312.66V315h-2.79v-2.33Zm0,3.89v12.67h-2.79V316.55Z" style="fill:#414042"/><path d="M154.75,316.55v.94a2.56,2.56,0,0,1,2.13-1.13,2.87,2.87,0,0,1,1.42.35,2.79,2.79,0,0,1,1,1,4,4,0,0,1,1.14-.95,2.73,2.73,0,0,1,1.36-.37,2.91,2.91,0,0,1,2.46,1,4.64,4.64,0,0,1,.73,2.85v9.05h-2.78v-9a1.4,1.4,0,0,0-.33-1,1.15,1.15,0,0,0-1.65,0,1.4,1.4,0,0,0-.33,1v9h-2.78v-9a1.4,1.4,0,0,0-.33-1,1.07,1.07,0,0,0-.82-.35,1.06,1.06,0,0,0-.84.35,1.44,1.44,0,0,0-.31,1v9h-2.79V316.55Z" style="fill:#414042"/><path d="M167,325v-8.42h2.78v7.85a12.93,12.93,0,0,0,.06,1.46,1.45,1.45,0,0,0,.3.77,1,1,0,0,0,.8.29,1.1,1.1,0,0,0,.79-.25,1.29,1.29,0,0,0,.3-.74,13.77,13.77,0,0,0,.06-1.53v-7.85h2.78V325a7.32,7.32,0,0,1-.34,2.46,2.74,2.74,0,0,1-1.18,1.47,4.71,4.71,0,0,1-2.41.52,3.66,3.66,0,0,1-3.11-1.12A5.51,5.51,0,0,1,167,325Z" style="fill:#414042"/><path d="M176.85,312.66h2.78v12.46c0,1.07.51,1.61,1.54,1.61h.12v2.49h-.15q-4.29,0-4.29-3.93Z" style="fill:#414042"/><path d="M190.36,320.39v8.83h-2.59v-1.05a3.87,3.87,0,0,1-1,.94,2.3,2.3,0,0,1-1.24.31,2.83,2.83,0,0,1-2.39-1,4.57,4.57,0,0,1-.81-2.88,3.52,3.52,0,0,1,1.08-2.75,4.53,4.53,0,0,1,3.1-1h1.06v-1.61a1.55,1.55,0,0,0-.3-1,1.27,1.27,0,0,0-1.72,0,1.29,1.29,0,0,0-.31.91v.2h-2.57v-.1a3.61,3.61,0,0,1,1.06-2.83,3.89,3.89,0,0,1,2.73-1,3.73,3.73,0,0,1,2.87,1.09A4.14,4.14,0,0,1,190.36,320.39Zm-2.78,5v-1.7h-.72a1.91,1.91,0,0,0-1.29.38,1.63,1.63,0,0,0-.44,1.27,1.93,1.93,0,0,0,.31,1.2,1.08,1.08,0,0,0,.91.41,1.1,1.1,0,0,0,.88-.42A1.74,1.74,0,0,0,187.58,325.43Z" style="fill:#414042"/><path d="M195.76,325.12a1.43,1.43,0,0,0,1.61,1.61h.09v2.49h-.09a4.92,4.92,0,0,1-3.28-1,3.7,3.7,0,0,1-1.11-3v-6.8h-1.42v-1.94H193v-2.23l2.78-1.13v3.36h2v1.94h-2Z" style="fill:#414042"/><path d="M202.22,312.66V315h-2.79v-2.33Zm0,3.89v12.67h-2.79V316.55Z" style="fill:#414042"/><path d="M204.21,324.83v-3.89a5,5,0,0,1,1-3.5,4.69,4.69,0,0,1,6,0,5,5,0,0,1,1,3.5v3.89a5,5,0,0,1-1,3.51,4.69,4.69,0,0,1-6,0A5,5,0,0,1,204.21,324.83Zm5.26,0v-3.93a3,3,0,0,0-.32-1.57,1,1,0,0,0-.93-.5,1,1,0,0,0-.91.5,3,3,0,0,0-.32,1.57v3.93a3,3,0,0,0,.32,1.58,1,1,0,0,0,.91.49,1,1,0,0,0,.93-.49A3,3,0,0,0,209.47,324.85Z" style="fill:#414042"/><path d="M216.81,316.55v.94a2.59,2.59,0,0,1,2.11-1.13c2.06,0,3.1,1.27,3.1,3.81v9.05h-2.79v-9a1.45,1.45,0,0,0-.32-1,1.17,1.17,0,0,0-1.67,0,1.44,1.44,0,0,0-.31,1v9h-2.79V316.55Z" style="fill:#414042"/><path d="M239.9,329.22h-3v-9.69L234.83,326h-1.58l-2.09-6.41v9.62h-2.95V312.66h2.95L234,321.4l2.91-8.74h3Z" style="fill:#414042"/><path d="M241.82,324.83v-3.89a5,5,0,0,1,1-3.5,4.69,4.69,0,0,1,6,0,5,5,0,0,1,1,3.5v3.89a5,5,0,0,1-1,3.51,4.69,4.69,0,0,1-6,0A5,5,0,0,1,241.82,324.83Zm5.25,0v-3.93a3,3,0,0,0-.31-1.57,1,1,0,0,0-.93-.5,1,1,0,0,0-.92.5,3,3,0,0,0-.31,1.57v3.93a3.05,3.05,0,0,0,.31,1.58,1,1,0,0,0,.92.49,1,1,0,0,0,.93-.49A3.05,3.05,0,0,0,247.07,324.85Z" style="fill:#414042"/><path d="M251.68,325.31v-4.85a4.83,4.83,0,0,1,.83-3.12,2.76,2.76,0,0,1,2.22-1,2.49,2.49,0,0,1,1.25.31,2.38,2.38,0,0,1,.89.89v-4.9h2.76v16.56H257v-.88a2.79,2.79,0,0,1-2.18,1.08,2.83,2.83,0,0,1-2.25-1A4.77,4.77,0,0,1,251.68,325.31Zm5.23-4.39a3,3,0,0,0-.31-1.57,1,1,0,0,0-.93-.5,1,1,0,0,0-.9.5,3.1,3.1,0,0,0-.3,1.57v3.93a3.14,3.14,0,0,0,.3,1.59,1,1,0,0,0,.92.48c.82,0,1.22-.69,1.22-2.07Z" style="fill:#414042"/><path d="M264.31,325c0,1.3.41,2,1.24,2s1.23-.54,1.23-1.61v-.12h2.69v.14a4.1,4.1,0,0,1-1,3,3.91,3.91,0,0,1-2.91,1,3.81,3.81,0,0,1-3-1.16,5.54,5.54,0,0,1-1.06-3.81v-3.1a5.85,5.85,0,0,1,1-3.79,3.62,3.62,0,0,1,3-1.2,3.79,3.79,0,0,1,3,1.22,5.58,5.58,0,0,1,1.07,3.77v2.52h-5.25Zm0-4.1v.93h2.47v-.93a3.09,3.09,0,0,0-.31-1.57,1,1,0,0,0-.94-.5,1,1,0,0,0-.91.5A3,3,0,0,0,264.31,320.92Z" style="fill:#414042"/><path d="M271.46,312.66h2.78v12.46c0,1.07.51,1.61,1.54,1.61h.12v2.49h-.15q-4.29,0-4.29-3.93Z" style="fill:#414042"/><path d="M280.1,312.66V315h-2.79v-2.33Zm0,3.89v12.67h-2.79V316.55Z" style="fill:#414042"/><path d="M284.83,316.55v.94a2.59,2.59,0,0,1,2.11-1.13q3.09,0,3.09,3.81v9.05h-2.78v-9a1.45,1.45,0,0,0-.32-1,1.11,1.11,0,0,0-.83-.35,1.09,1.09,0,0,0-.84.35,1.44,1.44,0,0,0-.31,1v9h-2.79V316.55Z" style="fill:#414042"/><path d="M292.15,329.65h2.59a1.18,1.18,0,0,0,.31.89,1.23,1.23,0,0,0,.91.31,1.14,1.14,0,0,0,.93-.38,1.73,1.73,0,0,0,.32-1.13v-2.18a2.78,2.78,0,0,1-2.18,1.08,2.85,2.85,0,0,1-2.25-1,4.72,4.72,0,0,1-.85-3.13v-3.67a4.83,4.83,0,0,1,.83-3.12,2.76,2.76,0,0,1,2.22-1,2.49,2.49,0,0,1,1.25.31,2.35,2.35,0,0,1,.88.89v-1h2.76v12.53a4.29,4.29,0,0,1-1,3.05,3.76,3.76,0,0,1-2.89,1.13,3.91,3.91,0,0,1-2.75-.92A3.59,3.59,0,0,1,292.15,329.65Zm5-8.73a3,3,0,0,0-.31-1.57,1,1,0,0,0-.94-.5,1,1,0,0,0-.9.5,3.1,3.1,0,0,0-.3,1.57v2.76a3.12,3.12,0,0,0,.3,1.58,1,1,0,0,0,.93.48c.81,0,1.22-.69,1.22-2.06Z" style="fill:#414042"/></svg>