<?xml version="1.0" encoding="UTF-8"?><svg id="Layer_1" xmlns="http://www.w3.org/2000/svg" viewBox="0 0 1008 474.17"><defs><style>.cls-1{fill:#6872a2;}.cls-2{fill:#f69786;}.cls-3{fill:#f6ce80;}.cls-4{fill:#ef806f;}.cls-5,.cls-6,.cls-7{fill:#fff;}.cls-8{fill:#ee5e88;}.cls-9{fill:#e2ecf1;}.cls-10{fill:#73a8c9;}.cls-11{fill:#98aeb9;}.cls-12{fill:#6b8086;}.cls-13{fill:#6b7f85;}.cls-14{fill:#93aeb6;}.cls-15{fill:#8b5e3c;}.cls-16{fill:#c2b59b;}.cls-17{fill:#8dc63f;}.cls-18{fill:#d2e2ea;}.cls-19{fill:#d2e1ea;}.cls-20{fill:#bcbec0;}.cls-21{fill:#a4bbc4;}.cls-22{fill:#be9b7b;}.cls-23,.cls-24{fill:#cfe3ec;}.cls-25{fill:#d0ecfb;}.cls-26{fill:#d2e8f8;}.cls-27{fill:#e2b885;}.cls-28,.cls-29{fill:#231f20;}.cls-30{fill:#1c75bc;}.cls-31{fill:#414042;}.cls-32{fill:#101142;}.cls-33{fill:#101042;}.cls-34{fill:#1d2335;}.cls-35{fill:#6d818a;}.cls-36{fill:#6c7f85;}.cls-37{fill:#6d6e71;}.cls-38{fill:#6f7e82;}.cls-39{fill:#808285;}.cls-40{fill:#81b3de;}.cls-41{fill:#562f12;}.cls-42{fill:#58595b;}.cls-43{fill:#613414;}.cls-44{fill:#754c29;}.cls-6,.cls-7,.cls-24,.cls-45,.cls-46{stroke-miterlimit:10;}.cls-6,.cls-46{stroke:#bcbec0;stroke-width:.25px;}.cls-7,.cls-24{stroke:#1d2335;}.cls-29{opacity:.15;}.cls-45{stroke:#939598;}.cls-45,.cls-46{fill:none;}.cls-47{opacity:.5;}</style></defs><rect class="cls-9" y="0" width="1008" height="438.32"/><g><path class="cls-5" d="M762.47,131.73h17.31c17.52,0,31.74,14.22,31.74,31.74v81.53h-80.79v-81.53c0-17.52,14.22-31.74,31.74-31.74Z"/><rect class="cls-9" x="769.22" y="132.14" width="3.82" height="112.86"/><rect class="cls-9" x="769.22" y="134.04" width="3.82" height="80.79" transform="translate(945.56 -596.69) rotate(90)"/><rect class="cls-9" x="769.22" y="169" width="3.82" height="80.79" transform="translate(980.53 -561.73) rotate(90)"/><rect class="cls-9" x="769.22" y="202.69" width="3.82" height="80.79" transform="translate(1014.22 -528.04) rotate(90)"/></g><g><path class="cls-5" d="M584.39,131.73h17.31c17.52,0,31.74,14.22,31.74,31.74v81.53h-80.79v-81.53c0-17.52,14.22-31.74,31.74-31.74Z"/><rect class="cls-9" x="591.13" y="132.14" width="3.82" height="112.86"/><rect class="cls-9" x="591.13" y="134.04" width="3.82" height="80.79" transform="translate(767.48 -418.61) rotate(90)"/><rect class="cls-9" x="591.13" y="169" width="3.82" height="80.79" transform="translate(802.44 -383.64) rotate(90)"/><rect class="cls-9" x="591.13" y="202.69" width="3.82" height="80.79" transform="translate(836.13 -349.95) rotate(90)"/></g><g><path class="cls-5" d="M406.48,131.73h17.31c17.52,0,31.74,14.22,31.74,31.74v81.53h-80.79v-81.53c0-17.52,14.22-31.74,31.74-31.74Z"/><rect class="cls-9" x="413.23" y="132.14" width="3.82" height="112.86"/><rect class="cls-9" x="413.23" y="134.04" width="3.82" height="80.79" transform="translate(589.58 -240.7) rotate(90)"/><rect class="cls-9" x="413.23" y="169" width="3.82" height="80.79" transform="translate(624.54 -205.74) rotate(90)"/><rect class="cls-9" x="413.23" y="202.69" width="3.82" height="80.79" transform="translate(658.23 -172.05) rotate(90)"/></g><g><path class="cls-5" d="M228.22,131.73h17.31c17.52,0,31.74,14.22,31.74,31.74v81.53h-80.79v-81.53c0-17.52,14.22-31.74,31.74-31.74Z"/><rect class="cls-9" x="234.96" y="132.14" width="3.82" height="112.86"/><rect class="cls-9" x="234.96" y="134.04" width="3.82" height="80.79" transform="translate(411.31 -62.44) rotate(90)"/><rect class="cls-9" x="234.96" y="169" width="3.82" height="80.79" transform="translate(446.27 -27.47) rotate(90)"/><rect class="cls-9" x="234.96" y="202.69" width="3.82" height="80.79" transform="translate(479.96 6.22) rotate(90)"/></g><rect class="cls-42" x="396.05" y="44.68" width="213.34" height="40.92" rx="1.41" ry="1.41"/><g><rect class="cls-27" x="94.77" y="359.91" width="43.27" height="19.09" rx=".41" ry=".41"/><rect class="cls-5" x="97.28" y="365.37" width="38.25" height="8.17" rx=".59" ry=".59"/><g><path class="cls-28" d="M101.89,368.22v-.1c0-.14-.01-.27-.04-.39-.03-.12-.08-.22-.15-.31-.07-.08-.16-.15-.27-.2-.11-.05-.25-.07-.41-.07-.26,0-.47,.07-.61,.2s-.25,.31-.32,.53c-.07,.22-.1,.47-.11,.75-.01,.28-.02,.57-.02,.87,0,.32,0,.62,.02,.91s.05,.53,.11,.75c.07,.21,.17,.38,.32,.51,.15,.12,.36,.19,.64,.19,.14,0,.28-.01,.42-.04,.14-.03,.28-.07,.41-.12v-1.81h-.95v-.52h1.59v2.76c-.22,.08-.46,.14-.71,.18s-.49,.07-.73,.07c-.43,0-.76-.07-1-.21-.24-.14-.41-.34-.53-.59-.12-.25-.19-.55-.21-.9-.03-.35-.04-.72-.04-1.13s.01-.79,.04-1.14c.03-.35,.1-.66,.21-.92,.11-.26,.29-.46,.52-.61,.23-.15,.55-.23,.95-.23,.54,0,.94,.13,1.18,.38,.24,.25,.36,.63,.36,1.13v.08h-.66Z"/><path class="cls-28" d="M103.58,372.26v-5.52h2.54v.52h-1.89v1.89h1.79v.52h-1.79v2.07h1.95v.52h-2.6Z"/><path class="cls-28" d="M110.24,369.51c0,.25,0,.48,0,.68,0,.2-.02,.37-.03,.53-.02,.16-.04,.3-.07,.43-.03,.13-.07,.25-.12,.36-.06,.13-.12,.24-.2,.35-.08,.1-.18,.2-.29,.27-.12,.08-.25,.13-.41,.18s-.34,.06-.55,.06-.39-.02-.54-.06c-.15-.04-.29-.09-.4-.16s-.21-.16-.29-.26c-.08-.1-.15-.21-.2-.33-.05-.11-.08-.22-.11-.34-.03-.12-.05-.25-.07-.41s-.03-.33-.03-.54c0-.21,0-.46,0-.75s0-.58,.01-.82c0-.24,.03-.45,.05-.64s.07-.36,.13-.5,.13-.29,.23-.41c.12-.16,.29-.29,.5-.38,.21-.09,.46-.14,.75-.14,.33,0,.58,.04,.77,.13,.19,.09,.34,.2,.47,.35,.1,.12,.17,.26,.23,.41,.06,.15,.1,.33,.13,.52,.03,.19,.05,.41,.06,.66,0,.24,.01,.52,.01,.82Zm-.68-.04c0-.25,0-.51,0-.77,0-.26-.03-.5-.08-.73-.05-.24-.13-.44-.27-.6-.13-.16-.35-.24-.64-.24s-.52,.09-.66,.27-.23,.41-.27,.68c-.04,.21-.05,.43-.06,.68,0,.24,0,.48,0,.71v.74c0,.24,.02,.48,.06,.7,.05,.29,.14,.52,.27,.68,.13,.16,.35,.24,.66,.24,.29,0,.5-.08,.63-.24,.13-.16,.22-.37,.28-.63,.05-.23,.08-.48,.08-.75s0-.51,0-.75Z"/><path class="cls-28" d="M114.07,370.9c0,.49-.14,.85-.42,1.1-.28,.24-.64,.36-1.1,.36-.56,0-.95-.13-1.19-.39-.24-.26-.36-.66-.36-1.2v-.06h.67v.06c0,.15,.01,.3,.03,.43,.02,.13,.07,.25,.13,.34,.06,.09,.15,.17,.27,.23,.11,.06,.26,.08,.44,.08,.3,0,.52-.08,.65-.24,.13-.16,.19-.38,.19-.65,0-.15-.02-.28-.06-.38-.04-.11-.09-.2-.16-.29s-.16-.16-.26-.23c-.1-.07-.22-.15-.35-.23l-.31-.19c-.16-.1-.32-.2-.46-.3-.14-.1-.26-.21-.37-.33-.1-.12-.18-.26-.24-.42-.06-.16-.09-.35-.09-.57s.04-.43,.11-.6c.07-.17,.18-.32,.31-.43,.13-.12,.29-.2,.48-.26,.18-.06,.38-.09,.6-.09,.46,0,.81,.1,1.06,.31,.25,.21,.37,.55,.37,1.02v.18h-.66v-.13c0-.13-.01-.24-.03-.35-.02-.11-.06-.2-.12-.27s-.14-.14-.24-.18c-.1-.04-.24-.06-.39-.06-.26,0-.46,.07-.6,.22-.14,.14-.21,.35-.21,.61,0,.15,.02,.28,.06,.38,.04,.11,.1,.2,.18,.29s.17,.16,.27,.23,.22,.14,.35,.22l.27,.17c.17,.11,.33,.21,.47,.3,.14,.1,.27,.21,.37,.33,.1,.12,.18,.26,.24,.42s.08,.36,.08,.59Z"/><path class="cls-28" d="M117.86,368.21c0,.35-.04,.63-.13,.84s-.2,.36-.36,.47c-.15,.11-.34,.18-.55,.21s-.45,.05-.72,.05h-.45v2.49h-.65v-5.52h1.28c.26,0,.5,.02,.69,.07s.36,.13,.49,.24,.23,.27,.29,.45c.06,.19,.1,.43,.1,.71Zm-.66,0c0-.19-.02-.34-.06-.47-.04-.12-.1-.22-.18-.29-.08-.07-.18-.12-.31-.15-.13-.03-.28-.05-.47-.05h-.53v1.99h.47c.19,0,.36-.02,.49-.05,.13-.03,.24-.09,.33-.17s.15-.18,.18-.32c.04-.13,.06-.3,.06-.5Z"/><path class="cls-28" d="M121.16,372.26l-.39-1.4h-1.92l-.39,1.4h-.65l1.62-5.52h.8l1.6,5.52h-.67Zm-1.34-4.92l-.8,3h1.6l-.8-3Z"/><path class="cls-28" d="M123.44,367.25v5h-.65v-5h-1.28v-.52h3.2v.52h-1.27Z"/><path class="cls-28" d="M125.38,372.26v-5.52h.65v5.52h-.65Z"/><path class="cls-28" d="M130.07,372.26l-.39-1.4h-1.92l-.39,1.4h-.65l1.62-5.52h.8l1.6,5.52h-.67Zm-1.34-4.92l-.8,3h1.6l-.8-3Z"/><path class="cls-28" d="M131.43,372.26v-5.52h.65v5h1.73v.52h-2.38Z"/></g></g><g><rect class="cls-27" x="136.59" y="308.62" width="43.27" height="19.09" rx=".41" ry=".41"/><rect class="cls-5" x="139.1" y="314.09" width="38.25" height="8.17" rx=".59" ry=".59"/><g><path class="cls-28" d="M143.71,316.93v-.1c0-.14-.01-.27-.04-.39-.03-.12-.08-.22-.15-.31-.07-.08-.16-.15-.27-.2-.11-.05-.25-.07-.41-.07-.26,0-.47,.07-.61,.2s-.25,.31-.32,.53c-.07,.22-.1,.47-.11,.75-.01,.28-.02,.57-.02,.87,0,.32,0,.62,.02,.91s.05,.53,.11,.75c.07,.21,.17,.38,.32,.51,.15,.12,.36,.19,.64,.19,.14,0,.28-.01,.42-.04,.14-.03,.28-.07,.41-.12v-1.81h-.95v-.52h1.59v2.76c-.22,.08-.46,.14-.71,.18s-.49,.07-.73,.07c-.43,0-.76-.07-1-.21-.24-.14-.41-.34-.53-.59-.12-.25-.19-.55-.21-.9-.03-.35-.04-.72-.04-1.13s.01-.79,.04-1.14c.03-.35,.1-.66,.21-.92,.11-.26,.29-.46,.52-.61,.23-.15,.55-.23,.95-.23,.54,0,.94,.13,1.18,.38,.24,.25,.36,.63,.36,1.13v.08h-.66Z"/><path class="cls-28" d="M145.4,320.97v-5.52h2.54v.52h-1.89v1.89h1.79v.52h-1.79v2.07h1.95v.52h-2.6Z"/><path class="cls-28" d="M152.06,318.23c0,.25,0,.48,0,.68,0,.2-.02,.37-.03,.53-.02,.16-.04,.3-.07,.43-.03,.13-.07,.25-.12,.36-.06,.13-.12,.24-.2,.35-.08,.1-.18,.2-.29,.27-.12,.08-.25,.13-.41,.18s-.34,.06-.55,.06-.39-.02-.54-.06c-.15-.04-.29-.09-.4-.16s-.21-.16-.29-.26c-.08-.1-.15-.21-.2-.33-.05-.11-.08-.22-.11-.34-.03-.12-.05-.25-.07-.41s-.03-.33-.03-.54c0-.21,0-.46,0-.75s0-.58,.01-.82c0-.24,.03-.45,.05-.64s.07-.36,.13-.5,.13-.29,.23-.41c.12-.16,.29-.29,.5-.38,.21-.09,.46-.14,.75-.14,.33,0,.58,.04,.77,.13,.19,.09,.34,.2,.47,.35,.1,.12,.17,.26,.23,.41,.06,.15,.1,.33,.13,.52,.03,.19,.05,.41,.06,.66,0,.24,.01,.52,.01,.82Zm-.68-.04c0-.25,0-.51,0-.77,0-.26-.03-.5-.08-.73-.05-.24-.13-.44-.27-.6-.13-.16-.35-.24-.64-.24s-.52,.09-.66,.27-.23,.41-.27,.68c-.04,.21-.05,.43-.06,.68,0,.24,0,.48,0,.71v.74c0,.24,.02,.48,.06,.7,.05,.29,.14,.52,.27,.68,.13,.16,.35,.24,.66,.24,.29,0,.5-.08,.63-.24,.13-.16,.22-.37,.28-.63,.05-.23,.08-.48,.08-.75s0-.51,0-.75Z"/><path class="cls-28" d="M155.89,319.62c0,.49-.14,.85-.42,1.1-.28,.24-.64,.36-1.1,.36-.56,0-.95-.13-1.19-.39-.24-.26-.36-.66-.36-1.2v-.06h.67v.06c0,.15,.01,.3,.03,.43,.02,.13,.07,.25,.13,.34,.06,.09,.15,.17,.27,.23,.11,.06,.26,.08,.44,.08,.3,0,.52-.08,.65-.24,.13-.16,.19-.38,.19-.65,0-.15-.02-.28-.06-.38-.04-.11-.09-.2-.16-.29s-.16-.16-.26-.23c-.1-.07-.22-.15-.35-.23l-.31-.19c-.16-.1-.32-.2-.46-.3-.14-.1-.26-.21-.37-.33-.1-.12-.18-.26-.24-.42-.06-.16-.09-.35-.09-.57s.04-.43,.11-.6c.07-.17,.18-.32,.31-.43,.13-.12,.29-.2,.48-.26,.18-.06,.38-.09,.6-.09,.46,0,.81,.1,1.06,.31,.25,.21,.37,.55,.37,1.02v.18h-.66v-.13c0-.13-.01-.24-.03-.35-.02-.11-.06-.2-.12-.27s-.14-.14-.24-.18c-.1-.04-.24-.06-.39-.06-.26,0-.46,.07-.6,.22-.14,.14-.21,.35-.21,.61,0,.15,.02,.28,.06,.38,.04,.11,.1,.2,.18,.29s.17,.16,.27,.23,.22,.14,.35,.22l.27,.17c.17,.11,.33,.21,.47,.3,.14,.1,.27,.21,.37,.33,.1,.12,.18,.26,.24,.42s.08,.36,.08,.59Z"/><path class="cls-28" d="M159.68,316.92c0,.35-.04,.63-.13,.84s-.2,.36-.36,.47c-.15,.11-.34,.18-.55,.21s-.45,.05-.72,.05h-.45v2.49h-.65v-5.52h1.28c.26,0,.5,.02,.69,.07s.36,.13,.49,.24,.23,.27,.29,.45c.06,.19,.1,.43,.1,.71Zm-.66,0c0-.19-.02-.34-.06-.47-.04-.12-.1-.22-.18-.29-.08-.07-.18-.12-.31-.15-.13-.03-.28-.05-.47-.05h-.53v1.99h.47c.19,0,.36-.02,.49-.05,.13-.03,.24-.09,.33-.17s.15-.18,.18-.32c.04-.13,.06-.3,.06-.5Z"/><path class="cls-28" d="M162.98,320.97l-.39-1.4h-1.92l-.39,1.4h-.65l1.62-5.52h.8l1.6,5.52h-.67Zm-1.34-4.92l-.8,3h1.6l-.8-3Z"/><path class="cls-28" d="M165.26,315.97v5h-.65v-5h-1.28v-.52h3.2v.52h-1.27Z"/><path class="cls-28" d="M167.2,320.97v-5.52h.65v5.52h-.65Z"/><path class="cls-28" d="M171.89,320.97l-.39-1.4h-1.92l-.39,1.4h-.65l1.62-5.52h.8l1.6,5.52h-.67Zm-1.34-4.92l-.8,3h1.6l-.8-3Z"/><path class="cls-28" d="M173.25,320.97v-5.52h.65v5h1.73v.52h-2.38Z"/></g></g><g><rect class="cls-27" x="51.5" y="359.92" width="43.27" height="19.09" rx=".41" ry=".41"/><rect class="cls-5" x="54.01" y="365.39" width="38.25" height="8.17" rx=".59" ry=".59"/><g><path class="cls-28" d="M61.38,367.27v1.89h1.63v.52h-1.63v2.59h-.65v-5.52h2.38v.52h-1.73Z"/><path class="cls-28" d="M67.1,369.53c0,.25,0,.48,0,.68,0,.2-.02,.37-.03,.53-.02,.16-.04,.3-.07,.43-.03,.13-.07,.25-.12,.36-.06,.13-.12,.24-.2,.35-.08,.1-.18,.2-.29,.27-.12,.08-.25,.13-.41,.18s-.34,.06-.55,.06-.39-.02-.54-.06c-.15-.04-.29-.09-.4-.16s-.21-.16-.29-.26c-.08-.1-.15-.21-.2-.33-.05-.11-.08-.22-.11-.34-.03-.12-.05-.25-.07-.41s-.03-.33-.03-.54c0-.21,0-.46,0-.75s0-.58,.01-.82c0-.24,.03-.45,.05-.64s.07-.36,.13-.5,.13-.29,.23-.41c.12-.16,.29-.29,.5-.38,.21-.09,.46-.14,.75-.14,.33,0,.58,.04,.77,.13,.19,.09,.34,.2,.47,.35,.1,.12,.17,.26,.23,.41,.06,.15,.1,.33,.13,.52,.03,.19,.05,.41,.06,.66,0,.24,.01,.52,.01,.82Zm-.68-.04c0-.25,0-.51,0-.77,0-.26-.03-.5-.08-.73-.05-.24-.13-.44-.27-.6-.13-.16-.35-.24-.64-.24s-.52,.09-.66,.27-.23,.41-.27,.68c-.04,.21-.05,.43-.06,.68,0,.24,0,.48,0,.71v.74c0,.24,.02,.48,.06,.7,.05,.29,.14,.52,.27,.68,.13,.16,.35,.24,.66,.24,.29,0,.5-.08,.63-.24,.13-.16,.22-.37,.28-.63,.05-.23,.08-.48,.08-.75s0-.51,0-.75Z"/><path class="cls-28" d="M70.44,372.27c-.02-.09-.03-.18-.04-.27-.01-.09-.02-.19-.02-.3,0-.12,0-.24,0-.36s-.01-.25-.02-.36c-.01-.23-.02-.43-.03-.6-.01-.16-.04-.3-.1-.4-.05-.1-.14-.18-.26-.22s-.29-.07-.52-.07h-.65v2.58h-.65v-5.52h1.47c.24,0,.45,.02,.63,.07,.18,.04,.34,.12,.46,.22s.21,.24,.28,.42c.06,.17,.1,.39,.1,.65,0,.17-.01,.32-.04,.47-.03,.14-.07,.27-.14,.38-.07,.11-.16,.21-.27,.29s-.25,.14-.43,.19c.15,.02,.28,.05,.37,.09s.17,.11,.22,.18c.05,.08,.09,.17,.12,.27s.04,.21,.05,.34c.01,.13,.02,.28,.02,.43,0,.15,0,.32,.02,.5,0,.13,.01,.25,.02,.37,0,.12,.01,.22,.02,.31,0,.06,.01,.11,.02,.17,0,.06,.02,.12,.03,.18h-.67Zm0-4.13c0-.33-.07-.56-.22-.68s-.37-.19-.68-.19h-.73v1.9h.54c.2,0,.37-.01,.51-.04,.14-.03,.25-.08,.34-.16s.15-.18,.18-.32c.04-.13,.06-.31,.06-.51Z"/><path class="cls-28" d="M74.79,371.96c-.25,.28-.65,.42-1.19,.42-.39,0-.7-.07-.91-.21-.22-.14-.38-.33-.48-.58-.1-.25-.16-.54-.19-.89-.02-.35-.03-.74-.03-1.16,0-.25,0-.5,0-.75,0-.24,.02-.47,.06-.68s.08-.41,.15-.59c.07-.18,.16-.33,.29-.46,.12-.13,.28-.23,.47-.31,.19-.07,.42-.11,.7-.11s.5,.03,.68,.1c.19,.07,.34,.17,.45,.3,.12,.13,.2,.29,.25,.49,.05,.19,.08,.41,.08,.65v.12h-.66v-.1c0-.13-.01-.26-.03-.39-.02-.13-.06-.24-.12-.33-.06-.09-.15-.17-.25-.23-.11-.06-.25-.09-.42-.09-.24,0-.42,.06-.55,.17s-.23,.27-.29,.48c-.07,.21-.11,.45-.12,.74s-.02,.61-.02,.96c0,.4,0,.74,.02,1.04,.02,.29,.05,.54,.11,.73s.15,.34,.28,.44c.12,.09,.3,.14,.52,.14,.19,0,.34-.03,.46-.09s.21-.14,.27-.24c.07-.1,.11-.23,.14-.36s.04-.28,.04-.44v-.11h.66v.12c0,.53-.13,.94-.38,1.22Z"/><path class="cls-28" d="M76.06,372.27v-5.52h.65v5.52h-.65Z"/><path class="cls-28" d="M80.39,372.27l-1.86-4.96v4.96h-.6v-5.52h1.01l1.86,4.96v-4.96h.6v5.52h-1.01Z"/><path class="cls-28" d="M85.05,368.23v-.1c0-.14-.01-.27-.04-.39-.03-.12-.08-.22-.15-.31-.07-.08-.16-.15-.27-.2-.11-.05-.25-.07-.41-.07-.26,0-.47,.07-.61,.2s-.25,.31-.32,.53c-.07,.22-.1,.47-.11,.75-.01,.28-.02,.57-.02,.87,0,.32,0,.62,.02,.91s.05,.53,.11,.75c.07,.21,.17,.38,.32,.51,.15,.12,.36,.19,.64,.19,.14,0,.28-.01,.42-.04,.14-.03,.28-.07,.41-.12v-1.81h-.95v-.52h1.59v2.76c-.22,.08-.46,.14-.71,.18s-.49,.07-.73,.07c-.43,0-.76-.07-1-.21-.24-.14-.41-.34-.53-.59-.12-.25-.19-.55-.21-.9-.03-.35-.04-.72-.04-1.13s.01-.79,.04-1.14c.03-.35,.1-.66,.21-.92,.11-.26,.29-.46,.52-.61,.23-.15,.55-.23,.95-.23,.54,0,.94,.13,1.18,.38,.24,.25,.36,.63,.36,1.13v.08h-.66Z"/></g></g><g><rect class="cls-27" x="94.77" y="340.83" width="43.27" height="19.09" rx=".41" ry=".41"/><rect class="cls-5" x="97.28" y="346.3" width="38.25" height="8.17" rx=".59" ry=".59"/><g><path class="cls-28" d="M104.65,348.18v1.89h1.63v.52h-1.63v2.59h-.65v-5.52h2.38v.52h-1.73Z"/><path class="cls-28" d="M110.37,350.44c0,.25,0,.48,0,.68,0,.2-.02,.37-.03,.53-.02,.16-.04,.3-.07,.43-.03,.13-.07,.25-.12,.36-.06,.13-.12,.24-.2,.35-.08,.1-.18,.2-.29,.27-.12,.08-.25,.13-.41,.18s-.34,.06-.55,.06-.39-.02-.54-.06c-.15-.04-.29-.09-.4-.16s-.21-.16-.29-.26c-.08-.1-.15-.21-.2-.33-.05-.11-.08-.22-.11-.34-.03-.12-.05-.25-.07-.41s-.03-.33-.03-.54c0-.21,0-.46,0-.75s0-.58,.01-.82c0-.24,.03-.45,.05-.64s.07-.36,.13-.5,.13-.29,.23-.41c.12-.16,.29-.29,.5-.38,.21-.09,.46-.14,.75-.14,.33,0,.58,.04,.77,.13,.19,.09,.34,.2,.47,.35,.1,.12,.17,.26,.23,.41,.06,.15,.1,.33,.13,.52,.03,.19,.05,.41,.06,.66,0,.24,.01,.52,.01,.82Zm-.68-.04c0-.25,0-.51,0-.77,0-.26-.03-.5-.08-.73-.05-.24-.13-.44-.27-.6-.13-.16-.35-.24-.64-.24s-.52,.09-.66,.27-.23,.41-.27,.68c-.04,.21-.05,.43-.06,.68,0,.24,0,.48,0,.71v.74c0,.24,.02,.48,.06,.7,.05,.29,.14,.52,.27,.68,.13,.16,.35,.24,.66,.24,.29,0,.5-.08,.63-.24,.13-.16,.22-.37,.28-.63,.05-.23,.08-.48,.08-.75s0-.51,0-.75Z"/><path class="cls-28" d="M113.71,353.18c-.02-.09-.03-.18-.04-.27-.01-.09-.02-.19-.02-.3,0-.12,0-.24,0-.36s-.01-.25-.02-.36c-.01-.23-.02-.43-.03-.6-.01-.16-.04-.3-.1-.4-.05-.1-.14-.18-.26-.22s-.29-.07-.52-.07h-.65v2.58h-.65v-5.52h1.47c.24,0,.45,.02,.63,.07,.18,.04,.34,.12,.46,.22s.21,.24,.28,.42c.06,.17,.1,.39,.1,.65,0,.17-.01,.32-.04,.47-.03,.14-.07,.27-.14,.38-.07,.11-.16,.21-.27,.29s-.25,.14-.43,.19c.15,.02,.28,.05,.37,.09s.17,.11,.22,.18c.05,.08,.09,.17,.12,.27s.04,.21,.05,.34c.01,.13,.02,.28,.02,.43,0,.15,0,.32,.02,.5,0,.13,.01,.25,.02,.37,0,.12,.01,.22,.02,.31,0,.06,.01,.11,.02,.17,0,.06,.02,.12,.03,.18h-.67Zm0-4.13c0-.33-.07-.56-.22-.68s-.37-.19-.68-.19h-.73v1.9h.54c.2,0,.37-.01,.51-.04,.14-.03,.25-.08,.34-.16s.15-.18,.18-.32c.04-.13,.06-.31,.06-.51Z"/><path class="cls-28" d="M118.06,352.87c-.25,.28-.65,.42-1.19,.42-.39,0-.7-.07-.91-.21-.22-.14-.38-.33-.48-.58-.1-.25-.16-.54-.19-.89-.02-.35-.03-.74-.03-1.16,0-.25,0-.5,0-.75,0-.24,.02-.47,.06-.68s.08-.41,.15-.59c.07-.18,.16-.33,.29-.46,.12-.13,.28-.23,.47-.31,.19-.07,.42-.11,.7-.11s.5,.03,.68,.1c.19,.07,.34,.17,.45,.3,.12,.13,.2,.29,.25,.49,.05,.19,.08,.41,.08,.65v.12h-.66v-.1c0-.13-.01-.26-.03-.39-.02-.13-.06-.24-.12-.33-.06-.09-.15-.17-.25-.23-.11-.06-.25-.09-.42-.09-.24,0-.42,.06-.55,.17s-.23,.27-.29,.48c-.07,.21-.11,.45-.12,.74s-.02,.61-.02,.96c0,.4,0,.74,.02,1.04,.02,.29,.05,.54,.11,.73s.15,.34,.28,.44c.12,.09,.3,.14,.52,.14,.19,0,.34-.03,.46-.09s.21-.14,.27-.24c.07-.1,.11-.23,.14-.36s.04-.28,.04-.44v-.11h.66v.12c0,.53-.13,.94-.38,1.22Z"/><path class="cls-28" d="M119.33,353.18v-5.52h.65v5.52h-.65Z"/><path class="cls-28" d="M123.66,353.18l-1.86-4.96v4.96h-.6v-5.52h1.01l1.86,4.96v-4.96h.6v5.52h-1.01Z"/><path class="cls-28" d="M128.33,349.14v-.1c0-.14-.01-.27-.04-.39-.03-.12-.08-.22-.15-.31-.07-.08-.16-.15-.27-.2-.11-.05-.25-.07-.41-.07-.26,0-.47,.07-.61,.2s-.25,.31-.32,.53c-.07,.22-.1,.47-.11,.75-.01,.28-.02,.57-.02,.87,0,.32,0,.62,.02,.91s.05,.53,.11,.75c.07,.21,.17,.38,.32,.51,.15,.12,.36,.19,.64,.19,.14,0,.28-.01,.42-.04,.14-.03,.28-.07,.41-.12v-1.81h-.95v-.52h1.59v2.76c-.22,.08-.46,.14-.71,.18s-.49,.07-.73,.07c-.43,0-.76-.07-1-.21-.24-.14-.41-.34-.53-.59-.12-.25-.19-.55-.21-.9-.03-.35-.04-.72-.04-1.13s.01-.79,.04-1.14c.03-.35,.1-.66,.21-.92,.11-.26,.29-.46,.52-.61,.23-.15,.55-.23,.95-.23,.54,0,.94,.13,1.18,.38,.24,.25,.36,.63,.36,1.13v.08h-.66Z"/></g></g><path class="cls-29" d="M137.52,358.5h-42.24c-.28,0-.52-.23-.52-.52v1.4c0,.28,.23,.52,.52,.52h42.24c.28,0,.52-.23,.52-.52v-1.4c0,.28-.23,.52-.52,.52Z"/><rect class="cls-36" x="138.92" y="283.67" width="20.83" height="3.82" transform="translate(245.67 -21.95) rotate(45)"/><rect class="cls-36" x="139.01" y="131.06" width="20.83" height="3.82" transform="translate(349.1 121.33) rotate(135)"/><rect class="cls-36" x="73.08" y="207.4" width="137.79" height="3.82" transform="translate(351.29 67.33) rotate(90)"/><rect class="cls-36" x="154.95" y="127.65" width="6.36" height="165.83"/><rect class="cls-36" x="154.95" y="298.55" width="6.36" height="6.36"/><path class="cls-21" d="M171.45,121.39c0,7.35-5.96,13.32-13.32,13.32s-13.32-5.96-13.32-13.32"/><path class="cls-21" d="M171.33,123.13c.07-.57,.13-1.15,.13-1.74h-26.63c0,.59,.05,1.17,.13,1.74h26.38Z"/><path class="cls-21" d="M414.84,258.07h109.62c1.07,0,1.93,.87,1.93,1.93v21.03h-113.48v-21.03c0-1.07,.87-1.93,1.93-1.93Z"/><rect class="cls-5" x="418.06" y="261.57" width="103.16" height="15.96"/><path class="cls-36" d="M194.59,327.35H747.68c1.79,0,3.24,1.45,3.24,3.24v33.73H191.35v-33.73c0-1.79,1.45-3.24,3.24-3.24Z"/><path class="cls-12" d="M189.61,382.47H749.07v5.89c0,.61-.5,1.11-1.11,1.11H190.73c-.61,0-1.11-.5-1.11-1.11v-5.89h0Z"/><rect class="cls-39" x="45.82" y="376.06" width="98.25" height="10.3" rx="1.08" ry="1.08"/><rect class="cls-39" x="56.09" y="426.88" width="77.71" height="5.58" rx=".77" ry=".77"/><polygon class="cls-37" points="129.66 426.88 60.22 426.88 50.3 386.26 139.59 386.26 129.66 426.88"/><polygon class="cls-42" points="139.14 388.19 139.59 386.36 50.3 386.36 50.75 388.19 139.14 388.19"/><g><circle class="cls-34" cx="74.08" cy="432.47" r="5.86"/><circle class="cls-34" cx="115.81" cy="432.47" r="5.86"/><circle class="cls-5" cx="74.08" cy="432.47" r="3.28"/><circle class="cls-5" cx="115.81" cy="432.47" r="3.28"/><circle class="cls-34" cx="74.08" cy="432.47" r="1.87"/><circle class="cls-34" cx="115.81" cy="432.47" r="1.87"/></g><rect class="cls-5" x="65.86" y="392.89" width="58.42" height="22.17" rx="1.3" ry="1.3"/><g><path class="cls-34" d="M85.07,401.97v-5.43h1.67c.48,0,.9,.11,1.28,.32s.67,.52,.88,.92,.32,.85,.32,1.35v.25c0,.5-.1,.95-.31,1.35-.21,.39-.5,.7-.88,.91s-.8,.33-1.28,.33h-1.68Zm1.12-4.52v3.62h.54c.44,0,.77-.14,1-.43,.23-.29,.35-.7,.35-1.23v-.29c0-.55-.11-.97-.34-1.25-.23-.29-.56-.43-1-.43h-.55Z"/><path class="cls-34" d="M93.1,400.85h-1.96l-.37,1.12h-1.19l2.02-5.43h1.04l2.03,5.43h-1.19l-.38-1.12Zm-1.66-.91h1.36l-.68-2.03-.67,2.03Z"/><path class="cls-34" d="M98.81,397.45h-1.66v4.52h-1.12v-4.52h-1.64v-.91h4.42v.91Z"/><path class="cls-34" d="M102.06,400.85h-1.96l-.37,1.12h-1.19l2.02-5.43h1.04l2.03,5.43h-1.19l-.38-1.12Zm-1.66-.91h1.36l-.68-2.03-.67,2.03Z"/><path class="cls-34" d="M70.65,405.71l1.39,3.94,1.39-3.94h1.47v5.43h-1.12v-1.48l.11-2.56-1.47,4.05h-.77l-1.46-4.04,.11,2.56v1.48h-1.12v-5.43h1.46Z"/><path class="cls-34" d="M78.94,410.02h-1.96l-.37,1.12h-1.19l2.02-5.43h1.04l2.03,5.43h-1.19l-.38-1.12Zm-1.66-.91h1.36l-.68-2.03-.67,2.03Z"/><path class="cls-34" d="M85.43,411.13h-1.12l-2.18-3.57v3.57h-1.12v-5.43h1.12l2.18,3.58v-3.58h1.11v5.43Z"/><path class="cls-34" d="M89.47,410.02h-1.96l-.37,1.12h-1.19l2.02-5.43h1.04l2.03,5.43h-1.19l-.38-1.12Zm-1.66-.91h1.36l-.68-2.03-.67,2.03Z"/><path class="cls-34" d="M95.84,410.45c-.2,.24-.49,.43-.85,.56s-.78,.2-1.22,.2c-.47,0-.88-.1-1.24-.31-.35-.21-.63-.5-.82-.89-.19-.39-.29-.85-.3-1.38v-.37c0-.54,.09-1.01,.27-1.41s.45-.7,.79-.91,.75-.32,1.21-.32c.64,0,1.15,.15,1.51,.46,.36,.31,.58,.75,.65,1.34h-1.09c-.05-.31-.16-.54-.33-.68-.17-.14-.4-.22-.7-.22-.38,0-.67,.14-.87,.43-.2,.29-.3,.71-.3,1.28v.35c0,.57,.11,1,.32,1.29,.22,.29,.53,.44,.95,.44s.72-.09,.9-.27v-.94h-1.02v-.82h2.14v2.17Z"/><path class="cls-34" d="M100.01,408.78h-2.15v1.45h2.52v.9h-3.64v-5.43h3.63v.91h-2.51v1.29h2.15v.88Z"/><path class="cls-34" d="M102.5,405.71l1.39,3.94,1.39-3.94h1.47v5.43h-1.12v-1.48l.11-2.56-1.47,4.05h-.77l-1.46-4.04,.11,2.56v1.48h-1.12v-5.43h1.46Z"/><path class="cls-34" d="M111,408.78h-2.15v1.45h2.52v.9h-3.64v-5.43h3.63v.91h-2.51v1.29h2.15v.88Z"/><path class="cls-34" d="M116.44,411.13h-1.12l-2.18-3.57v3.57h-1.12v-5.43h1.12l2.18,3.58v-3.58h1.11v5.43Z"/><path class="cls-34" d="M121.5,406.61h-1.66v4.52h-1.12v-4.52h-1.64v-.91h4.42v.91Z"/></g><g><path class="cls-34" d="M446.86,270.77l.9-4.76h1.37l-1.48,6.69h-1.39l-1.09-4.48-1.09,4.48h-1.39l-1.48-6.69h1.37l.91,4.75,1.1-4.75h1.17l1.1,4.76Z"/><path class="cls-34" d="M455.37,269.51c0,.66-.12,1.24-.35,1.73-.23,.5-.57,.88-1,1.15-.43,.27-.93,.4-1.49,.4s-1.05-.13-1.48-.4c-.44-.27-.77-.65-1.01-1.14-.24-.5-.36-1.06-.36-1.71v-.33c0-.66,.12-1.24,.36-1.74,.24-.5,.57-.89,1.01-1.15s.93-.4,1.49-.4,1.05,.13,1.49,.4,.77,.65,1.01,1.15c.24,.5,.36,1.08,.36,1.73v.3Zm-1.4-.3c0-.7-.13-1.23-.38-1.6-.25-.36-.61-.55-1.08-.55s-.82,.18-1.07,.54c-.25,.36-.38,.89-.38,1.58v.33c0,.68,.13,1.21,.38,1.59,.25,.38,.61,.57,1.08,.57s.82-.18,1.07-.54c.25-.36,.37-.89,.38-1.59v-.33Z"/><path class="cls-34" d="M458.85,270.26h-1.1v2.45h-1.38v-6.69h2.49c.79,0,1.4,.18,1.83,.53,.43,.35,.64,.85,.64,1.49,0,.46-.1,.84-.3,1.14-.2,.31-.5,.55-.9,.73l1.45,2.73v.06h-1.48l-1.25-2.45Zm-1.1-1.12h1.11c.35,0,.61-.09,.8-.26,.19-.18,.28-.42,.28-.73s-.09-.56-.27-.74-.45-.27-.83-.27h-1.11v2.01Z"/><path class="cls-34" d="M464.48,270.02l-.72,.77v1.91h-1.38v-6.69h1.38v3.03l.61-.83,1.71-2.2h1.7l-2.38,2.97,2.44,3.72h-1.64l-1.72-2.68Z"/><path class="cls-34" d="M472.38,269.97h-2.65v2.73h-1.38v-6.69h4.36v1.12h-2.98v1.73h2.65v1.11Z"/><path class="cls-34" d="M474.89,271.6h2.93v1.11h-4.31v-6.69h1.38v5.58Z"/><path class="cls-34" d="M483.81,269.51c0,.66-.12,1.24-.35,1.73-.23,.5-.57,.88-1,1.15-.43,.27-.93,.4-1.49,.4s-1.05-.13-1.48-.4c-.44-.27-.77-.65-1.01-1.14-.24-.5-.36-1.06-.36-1.71v-.33c0-.66,.12-1.24,.36-1.74,.24-.5,.57-.89,1.01-1.15s.93-.4,1.49-.4,1.05,.13,1.49,.4,.77,.65,1.01,1.15c.24,.5,.36,1.08,.36,1.73v.3Zm-1.4-.3c0-.7-.13-1.23-.38-1.6-.25-.36-.61-.55-1.08-.55s-.82,.18-1.07,.54c-.25,.36-.38,.89-.38,1.58v.33c0,.68,.13,1.21,.38,1.59,.25,.38,.61,.57,1.08,.57s.82-.18,1.07-.54c.25-.36,.37-.89,.38-1.59v-.33Z"/><path class="cls-34" d="M490.02,270.77l.9-4.76h1.37l-1.48,6.69h-1.39l-1.09-4.48-1.09,4.48h-1.39l-1.48-6.69h1.37l.91,4.75,1.1-4.75h1.17l1.1,4.76Z"/><path class="cls-34" d="M496.51,270.95c0-.26-.09-.46-.28-.6-.18-.14-.51-.29-.99-.44s-.86-.31-1.14-.46c-.76-.41-1.14-.96-1.14-1.66,0-.36,.1-.68,.31-.97,.2-.28,.5-.5,.88-.66,.38-.16,.81-.24,1.28-.24s.9,.09,1.28,.26c.37,.17,.66,.42,.87,.73,.21,.32,.31,.67,.31,1.08h-1.38c0-.31-.1-.54-.29-.71s-.46-.25-.81-.25-.6,.07-.79,.21c-.19,.14-.28,.33-.28,.56,0,.22,.11,.4,.33,.55,.22,.15,.54,.29,.97,.41,.78,.24,1.36,.53,1.71,.88s.54,.78,.54,1.31c0,.58-.22,1.03-.66,1.36-.44,.33-1.03,.49-1.77,.49-.51,0-.98-.09-1.41-.28-.42-.19-.75-.45-.97-.77-.22-.33-.33-.71-.33-1.14h1.38c0,.74,.44,1.11,1.32,1.11,.33,0,.58-.07,.77-.2,.18-.13,.28-.32,.28-.56Z"/></g><g><path class="cls-28" d="M867.09,268.2h-2.05v5.57h-1.38v-5.57h-2.02v-1.12h5.45v1.12Z"/><path class="cls-28" d="M870.35,271.33h-1.1v2.45h-1.38v-6.69h2.49c.79,0,1.4,.18,1.83,.53,.43,.35,.64,.85,.64,1.49,0,.46-.1,.84-.3,1.14-.2,.31-.5,.55-.9,.73l1.45,2.73v.06h-1.48l-1.25-2.45Zm-1.1-1.12h1.11c.35,0,.61-.09,.8-.26,.19-.18,.29-.42,.29-.73s-.09-.56-.27-.74c-.18-.18-.45-.27-.82-.27h-1.11v2.01Z"/><path class="cls-28" d="M877.66,272.4h-2.42l-.46,1.38h-1.47l2.49-6.69h1.28l2.5,6.69h-1.47l-.46-1.38Zm-2.04-1.12h1.67l-.84-2.5-.83,2.5Z"/><path class="cls-28" d="M881.68,273.78h-1.38v-6.69h1.38v6.69Z"/><path class="cls-28" d="M888.4,273.78h-1.38l-2.68-4.4v4.4h-1.38v-6.69h1.38l2.69,4.41v-4.41h1.38v6.69Z"/><path class="cls-28" d="M891.07,273.78h-1.38v-6.69h1.38v6.69Z"/><path class="cls-28" d="M897.79,273.78h-1.38l-2.68-4.4v4.4h-1.38v-6.69h1.38l2.69,4.41v-4.41h1.38v6.69Z"/><path class="cls-28" d="M904.28,272.93c-.25,.3-.6,.53-1.05,.69-.45,.16-.96,.25-1.51,.25-.58,0-1.09-.13-1.52-.38-.44-.25-.77-.62-1.01-1.1-.24-.48-.36-1.05-.37-1.7v-.46c0-.67,.11-1.25,.34-1.73,.23-.49,.55-.86,.97-1.12,.42-.26,.92-.39,1.49-.39,.79,0,1.41,.19,1.86,.57s.71,.93,.79,1.65h-1.34c-.06-.38-.2-.66-.41-.84s-.5-.27-.87-.27c-.47,0-.83,.18-1.07,.53-.25,.35-.37,.88-.37,1.57v.43c0,.7,.13,1.23,.4,1.59s.66,.54,1.17,.54,.89-.11,1.11-.33v-1.15h-1.25v-1.02h2.63v2.67Z"/></g><rect class="cls-24" x="180.66" y="364.33" width="577.97" height="17.5" rx="5" ry="5"/><circle class="cls-35" cx="191.35" cy="373.08" r="2.63"/><circle class="cls-35" cx="397.9" cy="373.08" r="2.63"/><circle class="cls-35" cx="750.92" cy="373.08" r="2.63"/><circle class="cls-35" cx="541.05" cy="373.08" r="2.63"/><circle class="cls-35" cx="645.98" cy="373.08" r="2.63"/><circle class="cls-35" cx="698.45" cy="373.08" r="2.63"/><circle class="cls-35" cx="593.51" cy="373.08" r="2.63"/><circle class="cls-35" cx="294.63" cy="373.08" r="2.63"/><circle class="cls-35" cx="242.99" cy="373.08" r="2.63"/><circle class="cls-35" cx="346.26" cy="373.08" r="2.63"/><rect class="cls-34" x="198.36" y="389.47" width="5.25" height="43.75"/><path class="cls-14" d="M196.72,433.23h8.45c.5,0,.9,.4,.9,.9v4.35h-10.25v-4.35c0-.5,.4-.9,.9-.9Z"/><rect class="cls-34" x="734.47" y="389.47" width="5.25" height="43.75"/><path class="cls-14" d="M732.83,433.23h8.45c.5,0,.9,.4,.9,.9v4.35h-10.25v-4.35c0-.5,.4-.9,.9-.9Z"/><rect class="cls-34" x="292.05" y="389.47" width="5.25" height="43.75"/><path class="cls-14" d="M290.4,433.23h8.45c.5,0,.9,.4,.9,.9v4.35h-10.25v-4.35c0-.5,.4-.9,.9-.9Z"/><rect class="cls-34" x="640.78" y="389.47" width="5.25" height="43.75"/><path class="cls-14" d="M639.14,433.23h8.45c.5,0,.9,.4,.9,.9v4.35h-10.25v-4.35c0-.5,.4-.9,.9-.9Z"/><rect class="cls-34" x="385.68" y="389.47" width="5.25" height="43.75"/><path class="cls-14" d="M384.03,433.23h8.45c.5,0,.9,.4,.9,.9v4.35h-10.25v-4.35c0-.5,.4-.9,.9-.9Z"/><rect class="cls-34" x="548.46" y="389.47" width="5.25" height="43.75"/><path class="cls-14" d="M546.81,433.23h8.45c.5,0,.9,.4,.9,.9v4.35h-10.25v-4.35c0-.5,.4-.9,.9-.9Z"/><rect class="cls-34" x="200.16" y="396.71" width="189.03" height="3.5"/><rect class="cls-34" x="549.2" y="396.71" width="189.03" height="3.5"/><rect class="cls-21" x="399.64" y="280.96" width="140.02" height="115.75" rx="1.64" ry="1.64"/><path class="cls-21" d="M401.06,420.66h137.18c.78,0,1.42,.64,1.42,1.42v16.4h-140.02v-16.4c0-.78,.64-1.42,1.42-1.42Z"/><rect class="cls-13" x="404.79" y="396.71" width="129.7" height="23.94"/><g><rect class="cls-5" x="404.79" y="286.34" width="43.23" height="36.84"/><path class="cls-38" d="M448.9,324.06h-42.83c-1.19,0-2.15-.96-2.15-2.15v-34.28c0-1.19,.96-2.15,2.15-2.15h42.83v38.59Zm-43.23-1.75h41.48v-35.09h-41.48v35.09Z"/></g><g><rect class="cls-5" x="448.03" y="286.34" width="43.23" height="36.84"/><path class="cls-38" d="M492.14,324.06h-44.98v-38.59h44.98v38.59Zm-43.23-1.75h41.48v-35.09h-41.48v35.09Z"/></g><g><rect class="cls-5" x="491.26" y="286.34" width="43.23" height="36.84"/><path class="cls-38" d="M533.22,324.06h-42.83v-38.59h42.83c1.19,0,2.15,.96,2.15,2.15v34.28c0,1.19-.96,2.15-2.15,2.15Zm-41.08-1.75h41.48v-35.09h-41.48v35.09Z"/></g><g><path d="M462.54,302.46c-2.63,0-4.76,2.13-4.76,4.76s2.13,4.76,4.76,4.76,4.76-2.13,4.76-4.76-2.13-4.76-4.76-4.76Zm.02,8.76c-2.2,0-3.98-1.78-3.98-3.98s1.78-3.98,3.98-3.98,3.98,1.78,3.98,3.98-1.78,3.98-3.98,3.98Z"/><path d="M476.75,302.46c-2.63,0-4.76,2.13-4.76,4.76s2.13,4.76,4.76,4.76,4.76-2.13,4.76-4.76-2.13-4.76-4.76-4.76Zm.02,8.76c-2.2,0-3.98-1.78-3.98-3.98s1.78-3.98,3.98-3.98,3.98,1.78,3.98,3.98-1.78,3.98-3.98,3.98Z"/><path d="M477.14,307.11l-3.09-8.09,1.68-.74c.18-.08,.27-.29,.21-.47-.07-.21-.32-.32-.52-.22l-1.86,.88c-.27,.13-.39,.44-.27,.71l.42,.95-6.87,2.05-.86-1.82,1.69-.62c.21-.08,.33-.31,.25-.53-.06-.17-.22-.29-.41-.29l-2.85,.06c-.28,0-.47,.29-.37,.55l.32,.84c.07,.18,.26,.28,.45,.22l.13-.04,.96,2.02-3.87,4.45c-.19,.22-.06,.55,.23,.59l6.4,.77c.12,.02,.25-.04,.32-.14l4.81-7.06,2.4,6.2c.08,.21,.33,.31,.53,.2,.17-.09,.25-.29,.18-.48Zm-13.79-.14l3.07-3.59,1.88,4.15-4.95-.56Zm5.66,.27l-1.9-4.33,6.05-1.82-4.15,6.15Z"/></g><g><path d="M439.08,304.27h-24.53c-1.28,0-2.52-.37-3.59-1.06l-2.14-1.38c-.28-.18-.35-.55-.18-.82,.18-.28,.55-.35,.82-.18l2.14,1.38c.88,.57,1.9,.87,2.94,.87h24.53c.81,0,1.62-.18,2.35-.53l1.99-.96c.3-.14,.65-.02,.79,.28,.14,.3,.02,.65-.28,.79l-1.99,.96c-.89,.43-1.88,.65-2.86,.65Z"/><path d="M416.05,308.86c-1.16,0-2.1-.94-2.1-2.1s.94-2.1,2.1-2.1,2.1,.94,2.1,2.1-.94,2.1-2.1,2.1Zm0-3.01c-.5,0-.91,.41-.91,.91s.41,.91,.91,.91,.91-.41,.91-.91-.41-.91-.91-.91Z"/><path d="M437.42,308.86c-1.16,0-2.1-.94-2.1-2.1s.94-2.1,2.1-2.1,2.1,.94,2.1,2.1-.94,2.1-2.1,2.1Zm0-3.01c-.5,0-.91,.41-.91,.91s.41,.91,.91,.91,.91-.41,.91-.91-.41-.91-.91-.91Z"/></g><g id="vUXYzR"><g><path d="M528.24,309.73c.24-1.43-.12-2.67-1.16-3.67-.8-.78-1.79-1.14-2.9-1.09-2.35,.1-4.16,2.27-3.7,4.75h-15.55c.24-1.42-.12-2.67-1.18-3.68-.8-.77-1.78-1.12-2.88-1.07-2.33,.1-4.2,2.28-3.69,4.79-.14,0-.28,0-.42,0-.34,0-.68,.03-1.02,0-.71-.08-1.22-.63-1.23-1.34-.02-1.16-.03-2.33,.08-3.49,.04-.47,.17-.92,.35-1.37,.26-.63,.71-1.06,1.35-1.28,.61-.21,1.23-.36,1.85-.54,.49-.14,.97-.27,1.46-.42,.62-.18,1.17-.52,1.69-.9,.57-.41,1.16-.8,1.74-1.2,.74-.51,1.57-.84,2.43-1.11,1.03-.32,2.08-.5,3.16-.56,3.06-.16,6.04,.3,8.91,1.36,1.11,.41,2.18,.9,3.15,1.59,.52,.37,1.04,.73,1.55,1.1,.1,.07,.19,.17,.29,.25,.29,.27,.63,.41,1.03,.45,.67,.08,1.33,.19,1.99,.3,.89,.16,1.77,.31,2.64,.59,.56,.18,1.11,.39,1.63,.68,.63,.36,1.02,.88,1.21,1.57,.23,.84,.27,1.69,.24,2.55-.02,.47-.06,.94-.26,1.38-.13,.29-.21,.34-.53,.34-.68,0-1.37,0-2.05,0-.05,0-.1,0-.16,0Zm-11.37-7.43c.79,.03,2.06,.08,3.33,.13,.11,0,.21,0,.26-.12,.05-.12-.02-.19-.1-.26-.49-.44-1.02-.83-1.59-1.16-1.72-.98-3.57-1.58-5.53-1.84-.35-.05-.71-.08-1.07-.11-.16-.01-.23,.07-.22,.23,0,.04,0,.08,.01,.13,.12,.85,.23,1.69,.35,2.54,.04,.27,.06,.3,.34,.31,1.25,.05,2.51,.09,4.23,.16Zm-10.22-.31s0,.02,0,.04c1.31,.01,2.62,.03,3.93,.04,.18,0,.23-.05,.21-.21-.11-.91-.22-1.82-.33-2.73-.02-.17-.06-.2-.23-.2-1.01,0-2.01,.11-3,.33-1.4,.31-2.69,.84-3.82,1.74-.3,.23-.57,.5-.85,.75-.04,.04-.07,.12-.05,.16,.02,.04,.1,.06,.15,.09,.02,0,.05,0,.08,0,1.3,0,2.6,0,3.9,0Z"/><path d="M498,308.92c0-1.69,1.37-3.06,3.06-3.06,1.69,0,3.05,1.37,3.06,3.05,0,1.69-1.36,3.07-3.05,3.07-1.69,0-3.06-1.37-3.06-3.06Z"/><path d="M527.42,308.99c-.06,1.72-1.47,3.05-3.16,2.99-1.71-.06-3.02-1.48-2.95-3.19,.06-1.67,1.49-2.99,3.18-2.93,1.67,.07,3,1.48,2.94,3.13Z"/></g></g><rect class="cls-38" x="421.16" y="326.67" width="10.5" height="10.5" rx="1.5" ry="1.5"/><rect class="cls-5" x="423.79" y="329.29" width="5.25" height="5.25" rx="1.5" ry="1.5"/><rect class="cls-38" x="464.43" y="326.67" width="10.5" height="10.5" rx="1.5" ry="1.5"/><rect class="cls-17" x="467.05" y="329.29" width="5.25" height="5.25" rx="1.5" ry="1.5"/><rect class="cls-38" x="507.63" y="326.67" width="10.5" height="10.5" rx="1.5" ry="1.5"/><rect class="cls-5" x="510.25" y="329.29" width="5.25" height="5.25" rx="1.5" ry="1.5"/><rect class="cls-38" x="403.92" y="345.02" width="8.99" height="31.6" rx=".48" ry=".48"/><path class="cls-31" d="M406.74,346.94h3.35v27.41c0,.19-.16,.35-.35,.35h-2.65c-.19,0-.35-.16-.35-.35v-27.41h0Z"/><rect class="cls-11" x="406.74" y="346.94" width="3.35" height="13.88"/><circle class="cls-5" cx="408.41" cy="349.58" r="3.59"/><rect class="cls-38" x="526.39" y="345.02" width="8.99" height="31.6" rx=".59" ry=".59"/><path class="cls-31" d="M529.56,346.94h2.65c.19,0,.35,.16,.35,.35v27.41h-3.35v-27.41c0-.19,.16-.35,.35-.35Z"/><rect class="cls-11" x="529.2" y="360.82" width="3.35" height="13.88"/><circle class="cls-5" cx="530.88" cy="372.06" r="3.59"/><rect class="cls-38" x="414.8" y="345.02" width="8.99" height="31.6" rx=".48" ry=".48"/><rect class="cls-31" x="417.62" y="346.94" width="3.35" height="27.76" rx=".35" ry=".35"/><circle class="cls-5" cx="419.29" cy="360.82" r="3.59"/><rect class="cls-38" x="426.41" y="372.5" width="97.12" height="4.02" rx=".43" ry=".43"/><g><rect class="cls-19" x="468.72" y="345.02" width="12.31" height="3.28" rx=".5" ry=".5"/><rect class="cls-19" x="482.89" y="345.02" width="12.31" height="3.28" rx=".5" ry=".5"/><rect class="cls-19" x="497.06" y="345.02" width="12.31" height="3.28" rx=".5" ry=".5"/><rect class="cls-19" x="511.23" y="345.02" width="12.31" height="3.28" rx=".5" ry=".5"/><rect class="cls-8" x="454.55" y="345.02" width="12.31" height="3.28" rx=".5" ry=".5"/><rect class="cls-19" x="440.48" y="345.02" width="12.31" height="3.28" rx=".5" ry=".5"/><rect class="cls-19" x="426.41" y="345.02" width="12.31" height="3.28" rx=".5" ry=".5"/><rect class="cls-19" x="468.72" y="349.58" width="12.31" height="3.28" rx=".5" ry=".5"/><rect class="cls-19" x="482.89" y="349.58" width="12.31" height="3.28" rx=".5" ry=".5"/><rect class="cls-19" x="497.06" y="349.58" width="12.31" height="3.28" rx=".5" ry=".5"/><rect class="cls-3" x="511.23" y="349.58" width="12.31" height="3.28" rx=".5" ry=".5"/><rect class="cls-19" x="454.55" y="349.58" width="12.31" height="3.28" rx=".5" ry=".5"/><rect class="cls-19" x="440.48" y="349.58" width="12.31" height="3.28" rx=".5" ry=".5"/><rect class="cls-19" x="426.41" y="349.58" width="12.31" height="3.28" rx=".5" ry=".5"/><rect class="cls-19" x="468.72" y="354.14" width="12.31" height="3.28" rx=".5" ry=".5"/><rect class="cls-19" x="482.89" y="354.14" width="12.31" height="3.28" rx=".5" ry=".5"/><rect class="cls-19" x="497.06" y="354.14" width="12.31" height="3.28" rx=".5" ry=".5"/><rect class="cls-19" x="511.23" y="354.14" width="12.31" height="3.28" rx=".5" ry=".5"/><rect class="cls-19" x="454.55" y="354.14" width="12.31" height="3.28" rx=".5" ry=".5"/><rect class="cls-19" x="440.48" y="354.14" width="12.31" height="3.28" rx=".5" ry=".5"/><rect class="cls-3" x="426.41" y="354.14" width="12.31" height="3.28" rx=".5" ry=".5"/><rect class="cls-19" x="468.72" y="358.7" width="12.31" height="3.28" rx=".5" ry=".5"/><rect class="cls-3" x="482.89" y="358.7" width="12.31" height="3.28" rx=".5" ry=".5"/><rect class="cls-19" x="497.06" y="358.7" width="12.31" height="3.28" rx=".5" ry=".5"/><rect class="cls-19" x="511.23" y="358.7" width="12.31" height="3.28" rx=".5" ry=".5"/><rect class="cls-19" x="454.55" y="358.7" width="12.31" height="3.28" rx=".5" ry=".5"/><rect class="cls-19" x="440.48" y="358.7" width="12.31" height="3.28" rx=".5" ry=".5"/><rect class="cls-19" x="426.41" y="358.7" width="12.31" height="3.28" rx=".5" ry=".5"/><rect class="cls-19" x="468.72" y="363.27" width="12.31" height="3.28" rx=".5" ry=".5"/><rect class="cls-19" x="482.89" y="363.27" width="12.31" height="3.28" rx=".5" ry=".5"/><rect class="cls-19" x="497.06" y="363.27" width="12.31" height="3.28" rx=".5" ry=".5"/><rect class="cls-19" x="511.23" y="363.27" width="12.31" height="3.28" rx=".5" ry=".5"/><rect class="cls-19" x="454.55" y="363.27" width="12.31" height="3.28" rx=".5" ry=".5"/><rect class="cls-19" x="440.48" y="363.27" width="12.31" height="3.28" rx=".5" ry=".5"/><rect class="cls-19" x="426.41" y="363.27" width="12.31" height="3.28" rx=".5" ry=".5"/><rect class="cls-19" x="468.72" y="367.83" width="12.31" height="3.28" rx=".5" ry=".5"/><rect class="cls-19" x="482.89" y="367.83" width="12.31" height="3.28" rx=".5" ry=".5"/><rect class="cls-19" x="497.06" y="367.83" width="12.31" height="3.28" rx=".5" ry=".5"/><rect class="cls-19" x="511.23" y="367.83" width="12.31" height="3.28" rx=".5" ry=".5"/><rect class="cls-19" x="454.55" y="367.83" width="12.31" height="3.28" rx=".5" ry=".5"/><rect class="cls-19" x="440.48" y="367.83" width="12.31" height="3.28" rx=".5" ry=".5"/><rect class="cls-19" x="426.41" y="367.83" width="12.31" height="3.28" rx=".5" ry=".5"/></g><g class="cls-47"><path class="cls-28" d="M480.15,347.67h-10.56c-.48,0-.88-.39-.88-.88v.64c0,.48,.39,.88,.88,.88h10.56c.48,0,.88-.39,.88-.88v-.64c0,.48-.39,.88-.88,.88Z"/><path class="cls-28" d="M494.32,347.67h-10.56c-.48,0-.88-.39-.88-.88v.64c0,.48,.39,.88,.88,.88h10.56c.48,0,.88-.39,.88-.88v-.64c0,.48-.39,.88-.88,.88Z"/><path class="cls-28" d="M508.49,347.67h-10.56c-.48,0-.88-.39-.88-.88v.64c0,.48,.39,.88,.88,.88h10.56c.48,0,.88-.39,.88-.88v-.64c0,.48-.39,.88-.88,.88Z"/><path class="cls-28" d="M522.66,347.67h-10.56c-.48,0-.88-.39-.88-.88v.64c0,.48,.39,.88,.88,.88h10.56c.48,0,.88-.39,.88-.88v-.64c0,.48-.39,.88-.88,.88Z"/><path class="cls-28" d="M465.98,347.67h-10.56c-.48,0-.88-.39-.88-.88v.64c0,.48,.39,.88,.88,.88h10.56c.48,0,.88-.39,.88-.88v-.64c0,.48-.39,.88-.88,.88Z"/><path class="cls-28" d="M451.91,347.67h-10.56c-.48,0-.88-.39-.88-.88v.64c0,.48,.39,.88,.88,.88h10.56c.48,0,.88-.39,.88-.88v-.64c0,.48-.39,.88-.88,.88Z"/><path class="cls-28" d="M437.84,347.67h-10.56c-.48,0-.88-.39-.88-.88v.64c0,.48,.39,.88,.88,.88h10.56c.48,0,.88-.39,.88-.88v-.64c0,.48-.39,.88-.88,.88Z"/><path class="cls-28" d="M480.15,352.23h-10.56c-.48,0-.88-.39-.88-.88v.64c0,.48,.39,.88,.88,.88h10.56c.48,0,.88-.39,.88-.88v-.64c0,.48-.39,.88-.88,.88Z"/><path class="cls-28" d="M494.32,352.23h-10.56c-.48,0-.88-.39-.88-.88v.64c0,.48,.39,.88,.88,.88h10.56c.48,0,.88-.39,.88-.88v-.64c0,.48-.39,.88-.88,.88Z"/><path class="cls-28" d="M508.49,352.23h-10.56c-.48,0-.88-.39-.88-.88v.64c0,.48,.39,.88,.88,.88h10.56c.48,0,.88-.39,.88-.88v-.64c0,.48-.39,.88-.88,.88Z"/><path class="cls-28" d="M522.66,352.23h-10.56c-.48,0-.88-.39-.88-.88v.64c0,.48,.39,.88,.88,.88h10.56c.48,0,.88-.39,.88-.88v-.64c0,.48-.39,.88-.88,.88Z"/><path class="cls-28" d="M465.98,352.23h-10.56c-.48,0-.88-.39-.88-.88v.64c0,.48,.39,.88,.88,.88h10.56c.48,0,.88-.39,.88-.88v-.64c0,.48-.39,.88-.88,.88Z"/><path class="cls-28" d="M451.91,352.23h-10.56c-.48,0-.88-.39-.88-.88v.64c0,.48,.39,.88,.88,.88h10.56c.48,0,.88-.39,.88-.88v-.64c0,.48-.39,.88-.88,.88Z"/><path class="cls-28" d="M437.84,352.23h-10.56c-.48,0-.88-.39-.88-.88v.64c0,.48,.39,.88,.88,.88h10.56c.48,0,.88-.39,.88-.88v-.64c0,.48-.39,.88-.88,.88Z"/><path class="cls-28" d="M480.15,356.79h-10.56c-.48,0-.88-.39-.88-.88v.64c0,.48,.39,.88,.88,.88h10.56c.48,0,.88-.39,.88-.88v-.64c0,.48-.39,.88-.88,.88Z"/><path class="cls-28" d="M494.32,356.79h-10.56c-.48,0-.88-.39-.88-.88v.64c0,.48,.39,.88,.88,.88h10.56c.48,0,.88-.39,.88-.88v-.64c0,.48-.39,.88-.88,.88Z"/><path class="cls-28" d="M508.49,356.79h-10.56c-.48,0-.88-.39-.88-.88v.64c0,.48,.39,.88,.88,.88h10.56c.48,0,.88-.39,.88-.88v-.64c0,.48-.39,.88-.88,.88Z"/><path class="cls-28" d="M522.66,356.79h-10.56c-.48,0-.88-.39-.88-.88v.64c0,.48,.39,.88,.88,.88h10.56c.48,0,.88-.39,.88-.88v-.64c0,.48-.39,.88-.88,.88Z"/><path class="cls-28" d="M465.98,356.79h-10.56c-.48,0-.88-.39-.88-.88v.64c0,.48,.39,.88,.88,.88h10.56c.48,0,.88-.39,.88-.88v-.64c0,.48-.39,.88-.88,.88Z"/><path class="cls-28" d="M451.91,356.79h-10.56c-.48,0-.88-.39-.88-.88v.64c0,.48,.39,.88,.88,.88h10.56c.48,0,.88-.39,.88-.88v-.64c0,.48-.39,.88-.88,.88Z"/><path class="cls-28" d="M437.84,356.79h-10.56c-.48,0-.88-.39-.88-.88v.64c0,.48,.39,.88,.88,.88h10.56c.48,0,.88-.39,.88-.88v-.64c0,.48-.39,.88-.88,.88Z"/><path class="cls-28" d="M480.15,361.35h-10.56c-.48,0-.88-.39-.88-.88v.64c0,.48,.39,.88,.88,.88h10.56c.48,0,.88-.39,.88-.88v-.64c0,.48-.39,.88-.88,.88Z"/><path class="cls-28" d="M494.32,361.35h-10.56c-.48,0-.88-.39-.88-.88v.64c0,.48,.39,.88,.88,.88h10.56c.48,0,.88-.39,.88-.88v-.64c0,.48-.39,.88-.88,.88Z"/><path class="cls-28" d="M508.49,361.35h-10.56c-.48,0-.88-.39-.88-.88v.64c0,.48,.39,.88,.88,.88h10.56c.48,0,.88-.39,.88-.88v-.64c0,.48-.39,.88-.88,.88Z"/><path class="cls-28" d="M522.66,361.35h-10.56c-.48,0-.88-.39-.88-.88v.64c0,.48,.39,.88,.88,.88h10.56c.48,0,.88-.39,.88-.88v-.64c0,.48-.39,.88-.88,.88Z"/><path class="cls-28" d="M465.98,361.35h-10.56c-.48,0-.88-.39-.88-.88v.64c0,.48,.39,.88,.88,.88h10.56c.48,0,.88-.39,.88-.88v-.64c0,.48-.39,.88-.88,.88Z"/><path class="cls-28" d="M451.91,361.35h-10.56c-.48,0-.88-.39-.88-.88v.64c0,.48,.39,.88,.88,.88h10.56c.48,0,.88-.39,.88-.88v-.64c0,.48-.39,.88-.88,.88Z"/><path class="cls-28" d="M437.84,361.35h-10.56c-.48,0-.88-.39-.88-.88v.64c0,.48,.39,.88,.88,.88h10.56c.48,0,.88-.39,.88-.88v-.64c0,.48-.39,.88-.88,.88Z"/><path class="cls-28" d="M480.15,365.91h-10.56c-.48,0-.88-.39-.88-.88v.64c0,.48,.39,.88,.88,.88h10.56c.48,0,.88-.39,.88-.88v-.64c0,.48-.39,.88-.88,.88Z"/><path class="cls-28" d="M494.32,365.91h-10.56c-.48,0-.88-.39-.88-.88v.64c0,.48,.39,.88,.88,.88h10.56c.48,0,.88-.39,.88-.88v-.64c0,.48-.39,.88-.88,.88Z"/><path class="cls-28" d="M508.49,365.91h-10.56c-.48,0-.88-.39-.88-.88v.64c0,.48,.39,.88,.88,.88h10.56c.48,0,.88-.39,.88-.88v-.64c0,.48-.39,.88-.88,.88Z"/><path class="cls-28" d="M522.66,365.91h-10.56c-.48,0-.88-.39-.88-.88v.64c0,.48,.39,.88,.88,.88h10.56c.48,0,.88-.39,.88-.88v-.64c0,.48-.39,.88-.88,.88Z"/><path class="cls-28" d="M465.98,365.91h-10.56c-.48,0-.88-.39-.88-.88v.64c0,.48,.39,.88,.88,.88h10.56c.48,0,.88-.39,.88-.88v-.64c0,.48-.39,.88-.88,.88Z"/><path class="cls-28" d="M451.91,365.91h-10.56c-.48,0-.88-.39-.88-.88v.64c0,.48,.39,.88,.88,.88h10.56c.48,0,.88-.39,.88-.88v-.64c0,.48-.39,.88-.88,.88Z"/><path class="cls-28" d="M437.84,365.91h-10.56c-.48,0-.88-.39-.88-.88v.64c0,.48,.39,.88,.88,.88h10.56c.48,0,.88-.39,.88-.88v-.64c0,.48-.39,.88-.88,.88Z"/><path class="cls-28" d="M480.15,370.47h-10.56c-.48,0-.88-.39-.88-.88v.64c0,.48,.39,.88,.88,.88h10.56c.48,0,.88-.39,.88-.88v-.64c0,.48-.39,.88-.88,.88Z"/><path class="cls-28" d="M494.32,370.47h-10.56c-.48,0-.88-.39-.88-.88v.64c0,.48,.39,.88,.88,.88h10.56c.48,0,.88-.39,.88-.88v-.64c0,.48-.39,.88-.88,.88Z"/><path class="cls-28" d="M508.49,370.47h-10.56c-.48,0-.88-.39-.88-.88v.64c0,.48,.39,.88,.88,.88h10.56c.48,0,.88-.39,.88-.88v-.64c0,.48-.39,.88-.88,.88Z"/><path class="cls-28" d="M522.66,370.47h-10.56c-.48,0-.88-.39-.88-.88v.64c0,.48,.39,.88,.88,.88h10.56c.48,0,.88-.39,.88-.88v-.64c0,.48-.39,.88-.88,.88Z"/><path class="cls-28" d="M465.98,370.47h-10.56c-.48,0-.88-.39-.88-.88v.64c0,.48,.39,.88,.88,.88h10.56c.48,0,.88-.39,.88-.88v-.64c0,.48-.39,.88-.88,.88Z"/><path class="cls-28" d="M451.91,370.47h-10.56c-.48,0-.88-.39-.88-.88v.64c0,.48,.39,.88,.88,.88h10.56c.48,0,.88-.39,.88-.88v-.64c0,.48-.39,.88-.88,.88Z"/><path class="cls-28" d="M437.84,370.47h-10.56c-.48,0-.88-.39-.88-.88v.64c0,.48,.39,.88,.88,.88h10.56c.48,0,.88-.39,.88-.88v-.64c0,.48-.39,.88-.88,.88Z"/></g><rect class="cls-8" x="434.1" y="373.46" width="17.62" height="2.12" rx=".5" ry=".5"/><rect class="cls-3" x="466.16" y="373.46" width="17.62" height="2.12" rx=".5" ry=".5"/><rect class="cls-21" x="498.22" y="373.46" width="17.62" height="2.12" rx=".5" ry=".5"/><path class="cls-18" d="M445.13,396.71h8.75v2.93c0,.31-.25,.57-.57,.57h-7.61c-.31,0-.57-.25-.57-.57v-2.93h0Z"/><path class="cls-18" d="M457.23,412.42h-6.21v-12.21h-3.01v14.04c0,.66,.53,1.2,1.19,1.2h8.04v23.02h3.01v-24.85c0-.66-.53-1.2-1.19-1.2h-1.82Z"/><path class="cls-18" d="M462.58,396.71h8.75v2.93c0,.31-.25,.57-.57,.57h-7.61c-.31,0-.57-.25-.57-.57v-2.93h0Z"/><path class="cls-18" d="M474.68,412.42h-6.21v-12.21h-3.01v14.04c0,.66,.53,1.2,1.19,1.2h8.04v23.02h3.01v-24.85c0-.66-.53-1.2-1.19-1.2h-1.82Z"/><path class="cls-18" d="M480.03,396.71h8.75v2.93c0,.31-.25,.57-.57,.57h-7.61c-.31,0-.57-.25-.57-.57v-2.93h0Z"/><path class="cls-18" d="M492.13,412.42h-6.21v-12.21h-3.01v14.04c0,.66,.53,1.2,1.19,1.2h8.04v23.02h3.01v-24.85c0-.66-.53-1.2-1.19-1.2h-1.82Z"/><rect class="cls-21" x="448" y="400.21" width="3.01" height=".92"/><rect class="cls-21" x="465.45" y="400.21" width="3.01" height=".92"/><rect class="cls-21" x="482.9" y="400.21" width="3.01" height=".92"/><g><g><g><line class="cls-46" x1="679.41" y1="320.54" x2="679.41" y2="342.1"/><line class="cls-46" x1="690.94" y1="323.88" x2="679.41" y2="342.1"/><line class="cls-46" x1="698.9" y1="332.88" x2="679.41" y2="342.1"/><line class="cls-46" x1="700.81" y1="344.74" x2="679.41" y2="342.1"/><line class="cls-46" x1="696.08" y1="355.78" x2="679.41" y2="342.1"/><line class="cls-46" x1="686.18" y1="362.58" x2="679.41" y2="342.1"/><line class="cls-46" x1="674.17" y1="363.02" x2="679.41" y2="342.1"/><line class="cls-46" x1="663.8" y1="356.98" x2="679.41" y2="342.1"/><line class="cls-46" x1="658.26" y1="346.32" x2="679.41" y2="342.1"/><line class="cls-46" x1="659.29" y1="334.35" x2="679.41" y2="342.1"/><line class="cls-46" x1="666.55" y1="324.79" x2="679.41" y2="342.1"/></g><g><line class="cls-46" x1="615.04" y1="320.47" x2="615.04" y2="342.04"/><line class="cls-46" x1="626.58" y1="323.82" x2="615.04" y2="342.04"/><line class="cls-46" x1="634.53" y1="332.82" x2="615.04" y2="342.04"/><line class="cls-46" x1="636.44" y1="344.67" x2="615.04" y2="342.04"/><line class="cls-46" x1="631.71" y1="355.71" x2="615.04" y2="342.04"/><line class="cls-46" x1="621.81" y1="362.51" x2="615.04" y2="342.04"/><line class="cls-46" x1="609.81" y1="362.96" x2="615.04" y2="342.04"/><line class="cls-46" x1="599.43" y1="356.91" x2="615.04" y2="342.04"/><line class="cls-46" x1="593.89" y1="346.25" x2="615.04" y2="342.04"/><line class="cls-46" x1="594.92" y1="334.29" x2="615.04" y2="342.04"/><line class="cls-46" x1="602.19" y1="324.72" x2="615.04" y2="342.04"/></g><path d="M615.08,320.54c-11.91,0-21.56,9.65-21.56,21.56s9.65,21.56,21.56,21.56,21.56-9.65,21.56-21.56-9.65-21.56-21.56-21.56Zm.09,39.67c-9.95,0-18.01-8.06-18.01-18.01s8.06-18.01,18.01-18.01,18.01,8.06,18.01,18.01-8.06,18.01-18.01,18.01Z"/><path d="M679.41,320.54c-11.91,0-21.56,9.65-21.56,21.56s9.65,21.56,21.56,21.56,21.56-9.65,21.56-21.56-9.65-21.56-21.56-21.56Zm.09,39.67c-9.95,0-18.01-8.06-18.01-18.01s8.06-18.01,18.01-18.01,18.01,8.06,18.01,18.01-8.06,18.01-18.01,18.01Z"/><path class="cls-30" d="M681.2,341.62l-13.98-36.66,7.59-3.36c.82-.36,1.22-1.29,.93-2.14-.34-.97-1.44-1.44-2.37-1l-8.44,3.99c-1.21,.57-1.75,2-1.21,3.23l1.9,4.32-31.13,9.27-3.89-8.24,7.64-2.8c.97-.35,1.48-1.42,1.15-2.39-.26-.79-1.01-1.32-1.85-1.3l-12.91,.26c-1.28,.03-2.14,1.31-1.68,2.5l1.47,3.79c.31,.81,1.19,1.25,2.03,1.02l.59-.16,4.35,9.16-17.54,20.17c-.85,.98-.26,2.51,1.03,2.67l28.98,3.49c.57,.07,1.12-.18,1.44-.66l21.79-31.96,10.86,28.07c.37,.96,1.5,1.39,2.41,.91,.78-.41,1.14-1.33,.82-2.16Zm-62.46-.64l13.93-16.25,8.51,18.79-22.44-2.54Zm25.64,1.22l-8.62-19.61,27.41-8.24-18.79,27.85Z"/></g><path class="cls-34" d="M622.81,307.11l1.9,4.52c.22,.54,1,1.18,1.55,.99l12.3-4.57c.98-.33,1.38-1.49,.82-2.35l-.38-.59c-.32-.49-.87-.78-1.46-.76l-13.26,.45c-1.16,.04-1.93,1.23-1.48,2.3Z"/><path class="cls-34" d="M667.22,304.95l7.49-3.38c.96-.43,1.34-1.61,.81-2.52h0c-.47-.81-1.49-1.11-2.33-.7l-7.55,3.74,1.58,2.85Z"/></g><g><rect class="cls-7" x="804.08" y="278.1" width="158.11" height="77.31"/><g><polyline class="cls-45" points="875.87 319.52 887.03 307.85 895.42 307.85"/><polyline class="cls-45" points="848.39 309.74 844.04 304.39 831.99 304.39"/><polyline class="cls-45" points="864.87 307.85 868.61 297.22 876.1 297.22"/><polyline class="cls-45" points="843.05 331.19 840.44 336.3 831.03 336.3"/><rect class="cls-34" x="878.59" y="295.59" width="14.11" height="1.14"/><rect class="cls-34" x="878.59" y="297.71" width="8.63" height="1.14"/><rect class="cls-34" x="813.39" y="334.67" width="14.11" height="1.14"/><rect class="cls-34" x="813.39" y="336.79" width="8.63" height="1.14"/><rect class="cls-34" x="897.04" y="304.11" width="14.11" height="1.14"/><rect class="cls-34" x="897.04" y="306.22" width="8.63" height="1.14"/><rect class="cls-34" x="897.04" y="308.34" width="14.11" height="1.14"/><rect class="cls-34" x="813.39" y="301.7" width="14.11" height="1.14"/><rect class="cls-34" x="813.39" y="303.82" width="14.11" height="1.14"/><rect class="cls-34" x="813.39" y="305.93" width="7.71" height="1.14"/><rect class="cls-34" x="897.04" y="310.46" width="8.63" height="1.14"/><g><path d="M844.02,314.9c-4.63,0-8.39,3.76-8.39,8.39s3.76,8.39,8.39,8.39,8.39-3.76,8.39-8.39-3.76-8.39-8.39-8.39Zm.04,15.44c-3.87,0-7.01-3.14-7.01-7.01s3.14-7.01,7.01-7.01,7.01,3.14,7.01,7.01-3.14,7.01-7.01,7.01Z"/><path d="M869.05,314.9c-4.63,0-8.39,3.76-8.39,8.39s3.76,8.39,8.39,8.39,8.39-3.76,8.39-8.39-3.76-8.39-8.39-8.39Zm.04,15.44c-3.87,0-7.01-3.14-7.01-7.01s3.14-7.01,7.01-7.01,7.01,3.14,7.01,7.01-3.14,7.01-7.01,7.01Z"/><path d="M869.75,323.1l-5.44-14.27,2.95-1.31c.32-.14,.48-.5,.36-.83-.13-.38-.56-.56-.92-.39l-3.29,1.55c-.47,.22-.68,.78-.47,1.26l.74,1.68-12.11,3.61-1.51-3.21,2.97-1.09c.38-.14,.58-.55,.45-.93-.1-.31-.39-.51-.72-.51l-5.02,.1c-.5,.01-.83,.51-.65,.97l.57,1.48c.12,.32,.46,.49,.79,.4l.23-.06,1.69,3.56-6.83,7.85c-.33,.38-.1,.98,.4,1.04l11.28,1.36c.22,.03,.44-.07,.56-.25l8.48-12.44,4.23,10.92c.14,.37,.58,.54,.94,.36,.3-.16,.44-.52,.32-.84Zm-24.31-.25l5.42-6.32,3.31,7.31-8.73-.99Zm9.98,.47l-3.36-7.63,10.67-3.21-7.31,10.84Z"/></g></g><g><rect class="cls-34" x="923.02" y="300.63" width="29.86" height="2.65"/><rect class="cls-34" x="923.02" y="306.54" width="29.86" height="2.65"/><rect class="cls-34" x="923.02" y="312.45" width="29.86" height="2.65"/><rect class="cls-34" x="923.02" y="318.36" width="29.86" height="2.65"/><rect class="cls-34" x="923.02" y="324.26" width="29.86" height="2.65"/><rect class="cls-34" x="923.02" y="330.17" width="14.93" height="2.65"/></g></g><rect class="cls-21" y="102.3" width="1008" height="12.73"/><rect class="cls-18" y="105.48" width="1008" height="6.36"/><rect class="cls-21" x="126.32" y="95.94" width="63.64" height="25.45" rx="3.11" ry="3.11"/><circle class="cls-21" cx="158.14" cy="293.47" r="6.5"/><path class="cls-21" d="M179.68,304.91h-45.74c-.62,0-1.13,.51-1.13,1.13v12.77c0,.62,.51,1.13,1.13,1.13h2.64v-11.24h43.1v11.24h2.64c.62,0,1.13-.51,1.13-1.13v-12.77c0-.62-.51-1.13-1.13-1.13h-2.64Z"/><circle class="cls-21" cx="141.98" cy="278.2" r="3.08"/><circle class="cls-21" cx="141.98" cy="140.41" r="3.08"/><rect class="cls-21" x="138.26" y="182.5" width="7.64" height="53.62" rx="1" ry="1"/><g><rect class="cls-27" x="321.42" y="344.6" width="43.27" height="19.09" rx=".41" ry=".41"/><rect class="cls-5" x="323.93" y="350.06" width="38.25" height="8.17" rx=".59" ry=".59"/><g><path class="cls-28" d="M330.67,356.64c-.25,.28-.65,.42-1.19,.42-.39,0-.7-.07-.91-.21-.22-.14-.38-.33-.48-.58-.1-.25-.16-.54-.19-.89-.02-.35-.03-.74-.03-1.16,0-.25,0-.5,0-.75,0-.24,.02-.47,.06-.68s.08-.41,.15-.59c.07-.18,.16-.33,.29-.46,.12-.13,.28-.23,.47-.31,.19-.07,.42-.11,.7-.11s.5,.03,.68,.1c.19,.07,.34,.17,.45,.3,.12,.13,.2,.29,.25,.49,.05,.19,.08,.41,.08,.65v.12h-.66v-.1c0-.13-.01-.26-.03-.39-.02-.13-.06-.24-.12-.33-.06-.09-.15-.17-.25-.23-.11-.06-.25-.09-.42-.09-.24,0-.42,.06-.55,.17s-.23,.27-.29,.48c-.07,.21-.11,.45-.12,.74s-.02,.61-.02,.96c0,.4,0,.74,.02,1.04,.02,.29,.05,.54,.11,.73s.15,.34,.28,.44c.12,.09,.3,.14,.52,.14,.19,0,.34-.03,.46-.09s.21-.14,.27-.24c.07-.1,.11-.23,.14-.36s.04-.28,.04-.44v-.11h.66v.12c0,.53-.13,.94-.38,1.22Z"/><path class="cls-28" d="M335.11,354.2c0,.25,0,.48,0,.68,0,.2-.02,.37-.03,.53-.02,.16-.04,.3-.07,.43-.03,.13-.07,.25-.12,.36-.06,.13-.12,.24-.2,.35-.08,.1-.18,.2-.29,.27-.12,.08-.25,.13-.41,.18s-.34,.06-.55,.06-.39-.02-.54-.06c-.15-.04-.29-.09-.4-.16s-.21-.16-.29-.26c-.08-.1-.15-.21-.2-.33-.05-.11-.08-.22-.11-.34-.03-.12-.05-.25-.07-.41s-.03-.33-.03-.54c0-.21,0-.46,0-.75s0-.58,.01-.82c0-.24,.03-.45,.05-.64s.07-.36,.13-.5,.13-.29,.23-.41c.12-.16,.29-.29,.5-.38,.21-.09,.46-.14,.75-.14,.33,0,.58,.04,.77,.13,.19,.09,.34,.2,.47,.35,.1,.12,.17,.26,.23,.41,.06,.15,.1,.33,.13,.52,.03,.19,.05,.41,.06,.66,0,.24,.01,.52,.01,.82Zm-.68-.04c0-.25,0-.51,0-.77,0-.26-.03-.5-.08-.73-.05-.24-.13-.44-.27-.6-.13-.16-.35-.24-.64-.24s-.52,.09-.66,.27-.23,.41-.27,.68c-.04,.21-.05,.43-.06,.68,0,.24,0,.48,0,.71v.74c0,.24,.02,.48,.06,.7,.05,.29,.14,.52,.27,.68,.13,.16,.35,.24,.66,.24,.29,0,.5-.08,.63-.24,.13-.16,.22-.37,.28-.63,.05-.23,.08-.48,.08-.75s0-.51,0-.75Z"/><path class="cls-28" d="M338.62,356.95l-1.86-4.96v4.96h-.6v-5.52h1.01l1.86,4.96v-4.96h.6v5.52h-1.01Z"/><path class="cls-28" d="M343.98,355.94c-.05,.24-.14,.44-.26,.61-.12,.17-.29,.29-.5,.38-.21,.09-.47,.13-.78,.13-.33,0-.6-.05-.81-.14-.21-.1-.38-.23-.5-.41-.12-.17-.2-.38-.25-.62-.04-.24-.06-.51-.06-.81v-3.65h.65v3.62c0,.19,0,.37,.03,.55,.02,.18,.06,.34,.13,.48,.07,.14,.16,.25,.29,.34s.31,.13,.53,.13,.39-.04,.52-.13c.13-.08,.23-.2,.29-.33,.07-.14,.11-.29,.13-.47,.02-.17,.03-.35,.03-.54v-3.65h.65v3.7c0,.31-.03,.58-.08,.82Z"/><path class="cls-28" d="M348,355.59c0,.49-.14,.85-.42,1.1-.28,.24-.64,.36-1.1,.36-.56,0-.95-.13-1.19-.39-.24-.26-.36-.66-.36-1.2v-.06h.67v.06c0,.15,.01,.3,.03,.43,.02,.13,.07,.25,.13,.34,.06,.09,.15,.17,.27,.23,.11,.06,.26,.08,.44,.08,.3,0,.52-.08,.65-.24,.13-.16,.19-.38,.19-.65,0-.15-.02-.28-.06-.38-.04-.11-.09-.2-.16-.29s-.16-.16-.26-.23c-.1-.07-.22-.15-.35-.23l-.31-.19c-.16-.1-.32-.2-.46-.3-.14-.1-.26-.21-.37-.33-.1-.12-.18-.26-.24-.42-.06-.16-.09-.35-.09-.57s.04-.43,.11-.6c.07-.17,.18-.32,.31-.43,.13-.12,.29-.2,.48-.26,.18-.06,.38-.09,.6-.09,.46,0,.81,.1,1.06,.31,.25,.21,.37,.55,.37,1.02v.18h-.66v-.13c0-.13-.01-.24-.03-.35-.02-.11-.06-.2-.12-.27s-.14-.14-.24-.18c-.1-.04-.24-.06-.39-.06-.26,0-.46,.07-.6,.22-.14,.14-.21,.35-.21,.61,0,.15,.02,.28,.06,.38,.04,.11,.1,.2,.18,.29s.17,.16,.27,.23,.22,.14,.35,.22l.27,.17c.17,.11,.33,.21,.47,.3,.14,.1,.27,.21,.37,.33,.1,.12,.18,.26,.24,.42s.08,.36,.08,.59Z"/><path class="cls-28" d="M350.97,355.6v1.34h-.6v-1.34h-1.78v-.6l1.52-3.58h.85v3.7h.59v.48h-.59Zm-.59-3.63l-1.29,3.15h1.29v-3.15Z"/><path class="cls-28" d="M354.87,354.64c0,.36-.01,.68-.04,.97-.03,.29-.08,.54-.18,.76-.09,.21-.23,.38-.41,.49-.18,.12-.43,.18-.74,.18s-.56-.06-.74-.17-.32-.28-.41-.49c-.09-.21-.15-.46-.18-.75s-.04-.62-.04-.97v-1.03c0-.35,.02-.66,.05-.94,.03-.28,.09-.52,.19-.72,.09-.2,.23-.35,.41-.46s.42-.16,.72-.16,.54,.05,.72,.16,.31,.25,.41,.45c.09,.2,.16,.43,.18,.71,.03,.28,.04,.59,.04,.94v1.05Zm-.63-.98c0-.3,0-.57-.02-.79-.02-.23-.05-.42-.1-.58s-.12-.27-.22-.35c-.1-.08-.23-.12-.39-.12s-.29,.04-.39,.12c-.1,.08-.17,.2-.23,.35s-.08,.35-.1,.58c-.02,.23-.02,.49-.02,.79v1.1c0,.29,0,.54,.02,.76,.02,.22,.05,.41,.1,.56,.05,.15,.12,.27,.22,.35,.1,.08,.23,.12,.39,.12s.29-.04,.39-.12,.17-.19,.22-.34c.05-.15,.08-.34,.1-.56,.02-.22,.02-.48,.02-.77v-1.11Z"/><path class="cls-28" d="M357.88,355.6v1.34h-.6v-1.34h-1.78v-.6l1.52-3.58h.85v3.7h.59v.48h-.59Zm-.59-3.63l-1.29,3.15h1.29v-3.15Z"/></g></g><g><rect class="cls-27" x="51.5" y="340.81" width="43.27" height="19.09" rx=".41" ry=".41"/><rect class="cls-5" x="54.01" y="346.27" width="38.25" height="8.17" rx=".59" ry=".59"/><g><path class="cls-28" d="M60.74,352.85c-.25,.28-.65,.42-1.19,.42-.39,0-.7-.07-.91-.21-.22-.14-.38-.33-.48-.58-.1-.25-.16-.54-.19-.89-.02-.35-.03-.74-.03-1.16,0-.25,0-.5,0-.75,0-.24,.02-.47,.06-.68s.08-.41,.15-.59c.07-.18,.16-.33,.29-.46,.12-.13,.28-.23,.47-.31,.19-.07,.42-.11,.7-.11s.5,.03,.68,.1c.19,.07,.34,.17,.45,.3,.12,.13,.2,.29,.25,.49,.05,.19,.08,.41,.08,.65v.12h-.66v-.1c0-.13-.01-.26-.03-.39-.02-.13-.06-.24-.12-.33-.06-.09-.15-.17-.25-.23-.11-.06-.25-.09-.42-.09-.24,0-.42,.06-.55,.17s-.23,.27-.29,.48c-.07,.21-.11,.45-.12,.74s-.02,.61-.02,.96c0,.4,0,.74,.02,1.04,.02,.29,.05,.54,.11,.73s.15,.34,.28,.44c.12,.09,.3,.14,.52,.14,.19,0,.34-.03,.46-.09s.21-.14,.27-.24c.07-.1,.11-.23,.14-.36s.04-.28,.04-.44v-.11h.66v.12c0,.53-.13,.94-.38,1.22Z"/><path class="cls-28" d="M65.19,350.42c0,.25,0,.48,0,.68,0,.2-.02,.37-.03,.53-.02,.16-.04,.3-.07,.43-.03,.13-.07,.25-.12,.36-.06,.13-.12,.24-.2,.35-.08,.1-.18,.2-.29,.27-.12,.08-.25,.13-.41,.18s-.34,.06-.55,.06-.39-.02-.54-.06c-.15-.04-.29-.09-.4-.16s-.21-.16-.29-.26c-.08-.1-.15-.21-.2-.33-.05-.11-.08-.22-.11-.34-.03-.12-.05-.25-.07-.41s-.03-.33-.03-.54c0-.21,0-.46,0-.75s0-.58,.01-.82c0-.24,.03-.45,.05-.64s.07-.36,.13-.5,.13-.29,.23-.41c.12-.16,.29-.29,.5-.38,.21-.09,.46-.14,.75-.14,.33,0,.58,.04,.77,.13,.19,.09,.34,.2,.47,.35,.1,.12,.17,.26,.23,.41,.06,.15,.1,.33,.13,.52,.03,.19,.05,.41,.06,.66,0,.24,.01,.52,.01,.82Zm-.68-.04c0-.25,0-.51,0-.77,0-.26-.03-.5-.08-.73-.05-.24-.13-.44-.27-.6-.13-.16-.35-.24-.64-.24s-.52,.09-.66,.27-.23,.41-.27,.68c-.04,.21-.05,.43-.06,.68,0,.24,0,.48,0,.71v.74c0,.24,.02,.48,.06,.7,.05,.29,.14,.52,.27,.68,.13,.16,.35,.24,.66,.24,.29,0,.5-.08,.63-.24,.13-.16,.22-.37,.28-.63,.05-.23,.08-.48,.08-.75s0-.51,0-.75Z"/><path class="cls-28" d="M68.7,353.16l-1.86-4.96v4.96h-.6v-5.52h1.01l1.86,4.96v-4.96h.6v5.52h-1.01Z"/><path class="cls-28" d="M74.05,352.15c-.05,.24-.14,.44-.26,.61-.12,.17-.29,.29-.5,.38-.21,.09-.47,.13-.78,.13-.33,0-.6-.05-.81-.14-.21-.1-.38-.23-.5-.41-.12-.17-.2-.38-.25-.62-.04-.24-.06-.51-.06-.81v-3.65h.65v3.62c0,.19,0,.37,.03,.55,.02,.18,.06,.34,.13,.48,.07,.14,.16,.25,.29,.34s.31,.13,.53,.13,.39-.04,.52-.13c.13-.08,.23-.2,.29-.33,.07-.14,.11-.29,.13-.47,.02-.17,.03-.35,.03-.54v-3.65h.65v3.7c0,.31-.03,.58-.08,.82Z"/><path class="cls-28" d="M78.08,351.81c0,.49-.14,.85-.42,1.1-.28,.24-.64,.36-1.1,.36-.56,0-.95-.13-1.19-.39-.24-.26-.36-.66-.36-1.2v-.06h.67v.06c0,.15,.01,.3,.03,.43,.02,.13,.07,.25,.13,.34,.06,.09,.15,.17,.27,.23,.11,.06,.26,.08,.44,.08,.3,0,.52-.08,.65-.24,.13-.16,.19-.38,.19-.65,0-.15-.02-.28-.06-.38-.04-.11-.09-.2-.16-.29s-.16-.16-.26-.23c-.1-.07-.22-.15-.35-.23l-.31-.19c-.16-.1-.32-.2-.46-.3-.14-.1-.26-.21-.37-.33-.1-.12-.18-.26-.24-.42-.06-.16-.09-.35-.09-.57s.04-.43,.11-.6c.07-.17,.18-.32,.31-.43,.13-.12,.29-.2,.48-.26,.18-.06,.38-.09,.6-.09,.46,0,.81,.1,1.06,.31,.25,.21,.37,.55,.37,1.02v.18h-.66v-.13c0-.13-.01-.24-.03-.35-.02-.11-.06-.2-.12-.27s-.14-.14-.24-.18c-.1-.04-.24-.06-.39-.06-.26,0-.46,.07-.6,.22-.14,.14-.21,.35-.21,.61,0,.15,.02,.28,.06,.38,.04,.11,.1,.2,.18,.29s.17,.16,.27,.23,.22,.14,.35,.22l.27,.17c.17,.11,.33,.21,.47,.3,.14,.1,.27,.21,.37,.33,.1,.12,.18,.26,.24,.42s.08,.36,.08,.59Z"/><path class="cls-28" d="M81.05,351.81v1.34h-.6v-1.34h-1.78v-.6l1.52-3.58h.85v3.7h.59v.48h-.59Zm-.59-3.63l-1.29,3.15h1.29v-3.15Z"/><path class="cls-28" d="M84.94,350.85c0,.36-.01,.68-.04,.97-.03,.29-.08,.54-.18,.76-.09,.21-.23,.38-.41,.49-.18,.12-.43,.18-.74,.18s-.56-.06-.74-.17-.32-.28-.41-.49c-.09-.21-.15-.46-.18-.75s-.04-.62-.04-.97v-1.03c0-.35,.02-.66,.05-.94,.03-.28,.09-.52,.19-.72,.09-.2,.23-.35,.41-.46s.42-.16,.72-.16,.54,.05,.72,.16,.31,.25,.41,.45c.09,.2,.16,.43,.18,.71,.03,.28,.04,.59,.04,.94v1.05Zm-.63-.98c0-.3,0-.57-.02-.79-.02-.23-.05-.42-.1-.58s-.12-.27-.22-.35c-.1-.08-.23-.12-.39-.12s-.29,.04-.39,.12c-.1,.08-.17,.2-.23,.35s-.08,.35-.1,.58c-.02,.23-.02,.49-.02,.79v1.1c0,.29,0,.54,.02,.76,.02,.22,.05,.41,.1,.56,.05,.15,.12,.27,.22,.35,.1,.08,.23,.12,.39,.12s.29-.04,.39-.12,.17-.19,.22-.34c.05-.15,.08-.34,.1-.56,.02-.22,.02-.48,.02-.77v-1.11Z"/><path class="cls-28" d="M87.95,351.81v1.34h-.6v-1.34h-1.78v-.6l1.52-3.58h.85v3.7h.59v.48h-.59Zm-.59-3.63l-1.29,3.15h1.29v-3.15Z"/></g></g><path class="cls-29" d="M94.25,358.5H52.01c-.28,0-.52-.23-.52-.52v1.4c0,.28,.23,.52,.52,.52h42.24c.28,0,.52-.23,.52-.52v-1.4c0,.28-.23,.52-.52,.52Z"/><g><path class="cls-5" d="M441.35,70.87h-2.24v-4.65h-4.36v4.65h-2.24v-10.86h2.24v4.4h4.36v-4.4h2.24v10.86Z"/><path class="cls-5" d="M446.17,67.82l1.49-5.02h2.31l-3.24,9.32-.18,.42c-.48,1.05-1.28,1.58-2.39,1.58-.31,0-.63-.05-.95-.14v-1.63h.33c.41,0,.71-.05,.91-.18,.2-.12,.36-.33,.47-.62l.25-.66-2.83-8.09h2.32l1.5,5.02Z"/><path class="cls-5" d="M459.14,61.83h-3.33v9.05h-2.24v-9.05h-3.28v-1.81h8.84v1.81Z"/><path class="cls-5" d="M466.95,66.17h-4.3v2.91h5.04v1.8h-7.28v-10.86h7.26v1.81h-5.03v2.59h4.3v1.75Z"/><path class="cls-5" d="M474.64,68.02c0-.42-.15-.75-.45-.97s-.84-.46-1.61-.72-1.39-.5-1.84-.74c-1.23-.67-1.85-1.56-1.85-2.69,0-.59,.17-1.11,.5-1.57,.33-.46,.81-.82,1.42-1.08,.62-.26,1.31-.39,2.08-.39s1.47,.14,2.07,.42c.61,.28,1.08,.68,1.41,1.19,.34,.51,.5,1.09,.5,1.75h-2.24c0-.5-.16-.88-.47-1.16-.31-.28-.75-.41-1.32-.41s-.97,.12-1.27,.35c-.3,.23-.46,.54-.46,.91,0,.35,.18,.65,.53,.89s.88,.46,1.57,.67c1.27,.38,2.2,.86,2.78,1.42,.58,.57,.87,1.27,.87,2.12,0,.94-.36,1.68-1.07,2.21-.71,.53-1.67,.8-2.87,.8-.83,0-1.6-.15-2.28-.46s-1.21-.72-1.57-1.26c-.36-.53-.54-1.15-.54-1.85h2.24c0,1.2,.72,1.8,2.15,1.8,.53,0,.95-.11,1.25-.32,.3-.22,.45-.52,.45-.91Z"/><path class="cls-5" d="M486.57,61.83h-3.33v9.05h-2.24v-9.05h-3.28v-1.81h8.84v1.81Z"/><path class="cls-5" d="M493.58,70.87h-2.24v-10.86h2.24v10.86Z"/><path class="cls-5" d="M504.48,70.87h-2.24l-4.36-7.14v7.14h-2.24v-10.86h2.24l4.36,7.16v-7.16h2.23v10.86Z"/><path class="cls-5" d="M506.44,70.87v-10.86h3.34c.95,0,1.81,.21,2.56,.65s1.34,1.04,1.76,1.83,.63,1.69,.63,2.7v.5c0,1.01-.21,1.91-.62,2.69-.42,.79-1,1.39-1.76,1.83s-1.61,.65-2.56,.66h-3.36Zm2.24-9.05v7.25h1.08c.88,0,1.54-.29,2.01-.86,.46-.57,.7-1.39,.71-2.45v-.57c0-1.1-.23-1.94-.69-2.51s-1.13-.85-2.01-.85h-1.1Z"/><path class="cls-5" d="M524.58,60.02v7.15c0,1.19-.37,2.13-1.12,2.82-.74,.69-1.76,1.04-3.05,1.04s-2.27-.34-3.02-1.01c-.75-.67-1.13-1.59-1.14-2.77v-7.23h2.24v7.17c0,.71,.17,1.23,.51,1.55,.34,.33,.81,.49,1.41,.49,1.26,0,1.9-.66,1.92-1.98v-7.23h2.25Z"/><path class="cls-5" d="M532.04,68.02c0-.42-.15-.75-.45-.97s-.83-.46-1.61-.72c-.78-.25-1.39-.5-1.84-.74-1.23-.67-1.85-1.56-1.85-2.69,0-.59,.17-1.11,.5-1.57,.33-.46,.81-.82,1.42-1.08,.62-.26,1.31-.39,2.08-.39s1.47,.14,2.07,.42c.61,.28,1.08,.68,1.41,1.19,.34,.51,.5,1.09,.5,1.75h-2.24c0-.5-.16-.88-.47-1.16-.31-.28-.75-.41-1.32-.41s-.97,.12-1.28,.35c-.3,.23-.46,.54-.46,.91,0,.35,.18,.65,.53,.89s.88,.46,1.57,.67c1.27,.38,2.2,.86,2.78,1.42,.58,.57,.87,1.27,.87,2.12,0,.94-.36,1.68-1.07,2.21-.71,.53-1.67,.8-2.87,.8-.84,0-1.6-.15-2.28-.46s-1.21-.72-1.57-1.26c-.36-.53-.54-1.15-.54-1.85h2.24c0,1.2,.72,1.8,2.15,1.8,.53,0,.95-.11,1.25-.32,.3-.22,.45-.52,.45-.91Z"/><path class="cls-5" d="M543.98,61.83h-3.33v9.05h-2.24v-9.05h-3.28v-1.81h8.84v1.81Z"/><path class="cls-5" d="M549.27,66.9h-1.78v3.97h-2.24v-10.86h4.03c1.28,0,2.27,.29,2.97,.86,.7,.57,1.04,1.38,1.04,2.42,0,.74-.16,1.36-.48,1.85-.32,.49-.81,.89-1.46,1.18l2.35,4.44v.1h-2.4l-2.04-3.97Zm-1.78-1.81h1.8c.56,0,1-.14,1.3-.43,.31-.29,.46-.68,.46-1.18s-.14-.91-.44-1.21c-.29-.29-.74-.44-1.34-.44h-1.8v3.26Z"/><path class="cls-5" d="M557.38,70.87h-2.24v-10.86h2.24v10.86Z"/><path class="cls-5" d="M565.98,66.17h-4.29v2.91h5.04v1.8h-7.28v-10.86h7.26v1.81h-5.03v2.59h4.29v1.75Z"/><path class="cls-5" d="M573.67,68.02c0-.42-.15-.75-.45-.97s-.83-.46-1.61-.72c-.78-.25-1.39-.5-1.84-.74-1.23-.67-1.85-1.56-1.85-2.69,0-.59,.17-1.11,.5-1.57,.33-.46,.81-.82,1.42-1.08,.62-.26,1.31-.39,2.08-.39s1.47,.14,2.07,.42c.61,.28,1.08,.68,1.41,1.19,.34,.51,.5,1.09,.5,1.75h-2.24c0-.5-.16-.88-.47-1.16-.31-.28-.75-.41-1.32-.41s-.97,.12-1.28,.35c-.3,.23-.46,.54-.46,.91,0,.35,.18,.65,.53,.89s.88,.46,1.57,.67c1.27,.38,2.2,.86,2.78,1.42,.58,.57,.87,1.27,.87,2.12,0,.94-.36,1.68-1.07,2.21-.71,.53-1.67,.8-2.87,.8-.84,0-1.6-.15-2.28-.46s-1.21-.72-1.57-1.26c-.36-.53-.54-1.15-.54-1.85h2.24c0,1.2,.72,1.8,2.15,1.8,.53,0,.95-.11,1.25-.32,.3-.22,.45-.52,.45-.91Z"/></g><g><circle class="cls-6" cx="407.5" cy="50.52" r="3.16"/><path class="cls-37" d="M407.64,31.58h-.28c-1.4,0-2.54,1.14-2.54,2.54v5.2c0,1.4,1.14,2.54,2.54,2.54h.28c1.4,0,2.54-1.14,2.54-2.54v-5.2c0-1.4-1.14-2.54-2.54-2.54Zm1.1,7.36c0,.72-.58,1.3-1.3,1.3s-1.3-.58-1.3-1.3v-4.59c0-.72,.58-1.3,1.3-1.3s1.3,.58,1.3,1.3v4.59Z"/><path class="cls-37" d="M407.64,15.79h-.28c-1.4,0-2.54,1.14-2.54,2.54v5.2c0,1.4,1.14,2.54,2.54,2.54h.28c1.4,0,2.54-1.14,2.54-2.54v-5.2c0-1.4-1.14-2.54-2.54-2.54Zm1.1,7.36c0,.72-.58,1.3-1.3,1.3s-1.3-.58-1.3-1.3v-4.59c0-.72,.58-1.3,1.3-1.3s1.3,.58,1.3,1.3v4.59Z"/><path class="cls-37" d="M407.64,0h-.28c-1.4,0-2.54,1.14-2.54,2.54V7.75c0,1.4,1.14,2.54,2.54,2.54h.28c1.4,0,2.54-1.14,2.54-2.54V2.54c0-1.4-1.14-2.54-2.54-2.54Zm1.1,7.36c0,.72-.58,1.3-1.3,1.3s-1.3-.58-1.3-1.3V2.77c0-.72,.58-1.3,1.3-1.3s1.3,.58,1.3,1.3V7.36Z"/><rect class="cls-37" x="406.72" y="39.15" width="1.66" height="10.59" rx=".65" ry=".65"/><rect class="cls-37" x="406.72" y="23.51" width="1.66" height="10.59" rx=".65" ry=".65"/><rect class="cls-37" x="406.72" y="7.87" width="1.66" height="10.59" rx=".65" ry=".65"/><rect class="cls-37" x="406.72" y="-7.77" width="1.66" height="10.59" rx=".65" ry=".65"/></g><g><circle class="cls-6" cx="598.06" cy="50.52" r="3.16"/><path class="cls-37" d="M598.2,31.58h-.28c-1.4,0-2.54,1.14-2.54,2.54v5.2c0,1.4,1.14,2.54,2.54,2.54h.28c1.4,0,2.54-1.14,2.54-2.54v-5.2c0-1.4-1.14-2.54-2.54-2.54Zm1.1,7.36c0,.72-.58,1.3-1.3,1.3s-1.3-.58-1.3-1.3v-4.59c0-.72,.58-1.3,1.3-1.3s1.3,.58,1.3,1.3v4.59Z"/><path class="cls-37" d="M598.2,15.79h-.28c-1.4,0-2.54,1.14-2.54,2.54v5.2c0,1.4,1.14,2.54,2.54,2.54h.28c1.4,0,2.54-1.14,2.54-2.54v-5.2c0-1.4-1.14-2.54-2.54-2.54Zm1.1,7.36c0,.72-.58,1.3-1.3,1.3s-1.3-.58-1.3-1.3v-4.59c0-.72,.58-1.3,1.3-1.3s1.3,.58,1.3,1.3v4.59Z"/><path class="cls-37" d="M598.2,0h-.28c-1.4,0-2.54,1.14-2.54,2.54V7.75c0,1.4,1.14,2.54,2.54,2.54h.28c1.4,0,2.54-1.14,2.54-2.54V2.54c0-1.4-1.14-2.54-2.54-2.54Zm1.1,7.36c0,.72-.58,1.3-1.3,1.3s-1.3-.58-1.3-1.3V2.77c0-.72,.58-1.3,1.3-1.3s1.3,.58,1.3,1.3V7.36Z"/><rect class="cls-37" x="597.28" y="39.15" width="1.66" height="10.59" rx=".65" ry=".65"/><rect class="cls-37" x="597.28" y="23.51" width="1.66" height="10.59" rx=".65" ry=".65"/><rect class="cls-37" x="597.28" y="7.87" width="1.66" height="10.59" rx=".65" ry=".65"/><rect class="cls-37" x="597.28" y="-7.77" width="1.66" height="10.59" rx=".65" ry=".65"/></g><rect class="cls-34" x="265.96" y="368.59" width="57.27" height="7.97" rx="1.51" ry="1.51"/><rect class="cls-34" x="291.89" y="374.51" width="5.42" height="63.81"/><g><path class="cls-21" d="M273.1,362.23h43.06c.41,0,.74,.33,.74,.74v5.62h-44.55v-5.62c0-.41,.33-.74,.74-.74Z"/><rect class="cls-21" x="275.67" y="333.28" width="37.92" height="26.09" rx=".79" ry=".79"/><rect class="cls-23" x="277.88" y="336.14" width="33.51" height="20.37" rx=".79" ry=".79"/><rect class="cls-13" x="273.41" y="362.95" width=".84" height="4.9" rx=".2" ry=".2"/><rect class="cls-13" x="274.83" y="362.95" width=".84" height="4.9" rx=".2" ry=".2"/><rect class="cls-13" x="276.26" y="362.95" width=".84" height="4.9" rx=".2" ry=".2"/><rect class="cls-13" x="277.68" y="362.95" width=".84" height="4.9" rx=".2" ry=".2"/><rect class="cls-13" x="297.99" y="366.21" width="1.45" height="1.45" rx=".3" ry=".3"/><rect class="cls-13" x="300.08" y="366.21" width="1.45" height="1.45" rx=".3" ry=".3"/><rect class="cls-13" x="302.16" y="366.21" width="1.45" height="1.45" rx=".3" ry=".3"/><rect class="cls-13" x="304.25" y="366.21" width="1.45" height="1.45" rx=".3" ry=".3"/><rect class="cls-13" x="306.33" y="366.21" width="1.45" height="1.45" rx=".3" ry=".3"/><rect class="cls-13" x="308.42" y="366.21" width="1.45" height="1.45" rx=".3" ry=".3"/><rect class="cls-13" x="310.5" y="366.21" width="1.45" height="1.45" rx=".3" ry=".3"/><rect class="cls-13" x="277.88" y="359.37" width="33.51" height="2.86"/></g><path class="cls-14" d="M290.37,433.23h8.45c.5,0,.9,.4,.9,.9v4.35h-10.25v-4.35c0-.5,.4-.9,.9-.9Z"/><rect class="cls-6" x="232.37" y="376.62" width="124.45" height="13.89" rx="1.21" ry="1.21"/><g><path class="cls-34" d="M241.23,384.8c-.05,.72-.32,1.29-.8,1.7-.48,.41-1.11,.62-1.9,.62-.86,0-1.53-.29-2.02-.87s-.74-1.37-.74-2.38v-.41c0-.64,.11-1.21,.34-1.7,.23-.49,.55-.87,.97-1.13,.42-.26,.91-.39,1.47-.39,.77,0,1.39,.21,1.87,.62,.47,.41,.74,1,.82,1.74h-1.38c-.03-.43-.15-.75-.36-.94-.21-.2-.52-.29-.94-.29-.46,0-.8,.16-1.03,.49-.23,.33-.35,.84-.35,1.53v.51c0,.72,.11,1.25,.33,1.58,.22,.33,.56,.5,1.04,.5,.43,0,.74-.1,.95-.29,.21-.19,.33-.5,.36-.9h1.38Z"/><path class="cls-34" d="M247.63,383.83c0,.66-.12,1.24-.35,1.73-.23,.5-.57,.88-1,1.15-.43,.27-.93,.4-1.49,.4s-1.05-.13-1.48-.4c-.44-.27-.77-.65-1.01-1.14-.24-.49-.36-1.06-.36-1.71v-.33c0-.66,.12-1.24,.36-1.74,.24-.5,.57-.89,1.01-1.15,.43-.27,.93-.4,1.49-.4s1.05,.13,1.49,.4c.43,.27,.77,.65,1.01,1.15,.24,.5,.36,1.08,.36,1.74v.3Zm-1.4-.3c0-.7-.13-1.23-.38-1.6-.25-.36-.61-.55-1.08-.55s-.82,.18-1.07,.54c-.25,.36-.38,.89-.38,1.58v.33c0,.68,.13,1.21,.38,1.59,.25,.38,.61,.56,1.08,.56s.82-.18,1.07-.54,.37-.89,.38-1.59v-.33Z"/><path class="cls-34" d="M250.44,380.33l1.72,4.85,1.71-4.85h1.81v6.69h-1.38v-1.83l.14-3.16-1.81,4.99h-.95l-1.8-4.98,.14,3.15v1.83h-1.38v-6.69h1.8Z"/><path class="cls-34" d="M258.26,384.67v2.36h-1.38v-6.69h2.61c.5,0,.94,.09,1.33,.28,.38,.18,.67,.44,.88,.78s.31,.72,.31,1.16c0,.66-.22,1.17-.67,1.55-.45,.38-1.07,.57-1.86,.57h-1.21Zm0-1.12h1.23c.36,0,.64-.08,.83-.26,.19-.17,.29-.42,.29-.74s-.1-.59-.29-.79-.46-.31-.8-.31h-1.26v2.1Z"/><path class="cls-34" d="M268.01,380.33v4.41c0,.73-.23,1.31-.69,1.74s-1.08,.64-1.88,.64-1.4-.21-1.86-.62c-.46-.41-.69-.98-.7-1.71v-4.46h1.38v4.42c0,.44,.1,.76,.31,.96,.21,.2,.5,.3,.87,.3,.77,0,1.17-.41,1.18-1.22v-4.45h1.38Z"/><path class="cls-34" d="M274.18,381.45h-2.05v5.57h-1.38v-5.57h-2.02v-1.12h5.45v1.12Z"/><path class="cls-34" d="M278.99,384.12h-2.65v1.79h3.11v1.11h-4.48v-6.69h4.48v1.12h-3.1v1.59h2.65v1.08Z"/><path class="cls-34" d="M282.74,384.58h-1.1v2.45h-1.38v-6.69h2.49c.79,0,1.4,.18,1.83,.53,.43,.35,.64,.85,.64,1.49,0,.46-.1,.84-.3,1.14-.2,.3-.5,.55-.9,.73l1.45,2.73v.06h-1.48l-1.25-2.45Zm-1.1-1.12h1.11c.35,0,.61-.09,.8-.26,.19-.18,.28-.42,.28-.73s-.09-.56-.27-.75c-.18-.18-.45-.27-.83-.27h-1.11v2.01Z"/><path class="cls-34" d="M292.64,384.12h-2.65v1.79h3.11v1.11h-4.48v-6.69h4.48v1.12h-3.1v1.59h2.65v1.08Z"/><path class="cls-34" d="M299.35,387.02h-1.38l-2.68-4.4v4.4h-1.38v-6.69h1.38l2.69,4.41v-4.41h1.37v6.69Z"/><path class="cls-34" d="M303.02,385.37l1.52-5.03h1.53l-2.33,6.69h-1.44l-2.32-6.69h1.53l1.51,5.03Z"/><path class="cls-34" d="M308.17,387.02h-1.38v-6.69h1.38v6.69Z"/><path class="cls-34" d="M311.92,384.58h-1.1v2.45h-1.38v-6.69h2.49c.79,0,1.4,.18,1.83,.53,.43,.35,.64,.85,.64,1.49,0,.46-.1,.84-.3,1.14-.2,.3-.5,.55-.9,.73l1.45,2.73v.06h-1.48l-1.25-2.45Zm-1.1-1.12h1.11c.35,0,.61-.09,.8-.26,.19-.18,.28-.42,.28-.73s-.09-.56-.27-.75c-.18-.18-.45-.27-.83-.27h-1.11v2.01Z"/><path class="cls-34" d="M320.95,383.83c0,.66-.12,1.24-.35,1.73-.23,.5-.57,.88-1,1.15-.43,.27-.93,.4-1.49,.4s-1.05-.13-1.48-.4c-.44-.27-.77-.65-1.01-1.14-.24-.49-.36-1.06-.36-1.71v-.33c0-.66,.12-1.24,.36-1.74,.24-.5,.57-.89,1.01-1.15,.43-.27,.93-.4,1.49-.4s1.05,.13,1.49,.4c.43,.27,.77,.65,1.01,1.15,.24,.5,.36,1.08,.36,1.74v.3Zm-1.4-.3c0-.7-.13-1.23-.38-1.6-.25-.36-.61-.55-1.08-.55s-.82,.18-1.07,.54c-.25,.36-.38,.89-.38,1.58v.33c0,.68,.13,1.21,.38,1.59,.25,.38,.61,.56,1.08,.56s.82-.18,1.07-.54,.37-.89,.38-1.59v-.33Z"/><path class="cls-34" d="M327.39,387.02h-1.38l-2.68-4.4v4.4h-1.38v-6.69h1.38l2.69,4.41v-4.41h1.37v6.69Z"/><path class="cls-34" d="M330.4,380.33l1.72,4.85,1.71-4.85h1.81v6.69h-1.38v-1.83l.14-3.16-1.81,4.99h-.95l-1.8-4.98,.14,3.15v1.83h-1.38v-6.69h1.8Z"/><path class="cls-34" d="M340.87,384.12h-2.65v1.79h3.11v1.11h-4.48v-6.69h4.48v1.12h-3.1v1.59h2.65v1.08Z"/><path class="cls-34" d="M347.58,387.02h-1.38l-2.68-4.4v4.4h-1.38v-6.69h1.38l2.69,4.41v-4.41h1.37v6.69Z"/><path class="cls-34" d="M353.82,381.45h-2.05v5.57h-1.38v-5.57h-2.02v-1.12h5.45v1.12Z"/></g><g><path class="cls-2" d="M581.84,429.82v2.54s.37,1.64,.37,1.64c0,0-10.99,1.92-12.84,.73,0,0,4.86-1.48,5.86-3.49l.08-1.5,4.86-1.84,1.67,1.91Z"/><path class="cls-40" d="M602.85,382.81l.24,46.81s-4.25,.92-8.04,0l-2.77-38.06-1.15-8.08,11.72-.67Z"/><polygon class="cls-33" points="588.99 302.63 584 302.19 584.59 310.07 588.99 302.63"/><path class="cls-33" d="M585.08,268.5c.46-.01,.92-.12,1.34-.32,1.68-.81,6.65-2.56,10.77,2.55,0,0,1.66,1.42,1.58,6.56,0,.37,.05,.74,.16,1.09,.31,.99,1.03,3.01,2,4.27,0,0,6.46,11.06-6.26,15.35,0,0-16.81,5.6-18.81-6.87,0,0-.73-1.92,.88-6.97,0,0,.3-3.4-.38-5.58-.16-.51-.22-1.04-.2-1.58,.09-2.48,1.12-8.31,8.92-8.5Z"/><path class="cls-4" d="M591.39,289.52s-.64,5.5-.52,7.18c0,.12,.08,.22,.19,.27l.84,.39s-2.18,4.06-2.91,5.26c-.13,.21-.32,.37-.55,.47-.75,.32-2.6,.92-3.98-.05-.28-.2-.44-.52-.47-.86l-.36-4.9,.92-.21c.15-.03,.25-.17,.25-.32v-4.04s2.01-.42,6.58-3.19Z"/><path class="cls-40" d="M585.45,377.3l-1.8,13.48-1.15,38.98s-5.87,.65-7.94-.23l-1.48-38.33-.21-7.92,11.02-11.43,2.59,1.75-1.02,3.7Z"/><path class="cls-5" d="M592.04,297.01l12.1,4.48c2.09,.77,3.26,2.99,2.72,5.15l-3.62,16.81c-.07,.34-.11,.69-.11,1.03l-.02,26.7c0,.5,.02,.99,.07,1.49l2.77,29.13c0,.07-.03,.13-.09,.15-.91,.32-7.7,2.57-19.11,2.98-.07,0-.14-.05-.15-.12l-1.7-11.06c-.02-.16-.25-.16-.28,0-.44,2.22-1.66,8.52-1.95,11.08,0,.07-.06,.12-.13,.12-.97,.06-7.74,.3-12.89-3.45-.04-.03-.06-.08-.06-.13l2.93-29.23c.02-.21,.03-.43,.03-.64v-33.6c.01-.1-.12-.12-.16-.03l-5.88,13.9-5.33-5.8,8.73-23.74,13.72-5.27v.35s.95,12.78,.95,12.78l7.46-13.06Z"/><path class="cls-2" d="M602.62,429.71v1.79c0,.5,.1,.99,.29,1.45l.46,1.11s-.97,1.29-3.74,1.39c0,0-2.31-.09-3.88-1.43l.25-1.34c.05-.27,.07-.55,.06-.83l-.08-2.03,6.64-.1Z"/><path class="cls-2" d="M571.24,328.87l-3.56,.38s.27-.06,.12-.3c0,0-.59-.89-.49-1.21,0,0,.04-.64,.59-.59,0,0,.34,0,.62,.23,0,0,1.34,1.09,2.73,1.49Z"/><path class="cls-2" d="M582.9,273.58s1.14,1.67,4.53,3.21c.38,.17,.73,.38,1.06,.63,.77,.57,2.11,1.64,2.79,2.56,0,0,1.83,3.33,3.97,1.65,.23-.18,.54-.19,.79-.05,.48,.28,1.06,.93,.66,2.37,0,0-.63,1.99-2.44,1.94-.2,0-.39,.09-.49,.27-.78,1.36-4.19,6.85-8.02,6.64,0,0-6.12,.47-7.02-10.61,0,0-1.13-5.26,4.17-8.62Z"/><circle class="cls-33" cx="581.27" cy="281.7" r=".8"/><circle class="cls-33" cx="587.61" cy="282.02" r=".8"/><path class="cls-5" d="M586.82,287.91c-.71,.08-2.89,.29-4.04-.16-.08-.03-.17-.02-.22,.05-.08,.1-.16,.29-.04,.66,0,0,2.67,.65,4.54,0v-.35c0-.12-.11-.22-.23-.2Z"/><path class="cls-33" d="M587.05,288.46s-.68,1.58-2.45,1.45c0,0-1.45,.19-2.08-1.45h4.54Z"/><path class="cls-34" d="M583.15,312.88s.02,0,.04,0c.06-.02,.08-.08,.06-.14l-3.05-8.24,1.27-2.13-1.62-.61,.66-3.55c.01-.06-.03-.11-.09-.13-.06-.01-.11,.03-.13,.09l-.7,3.73,1.54,.58-1.19,2,3.09,8.34s.06,.07,.1,.07Z"/><path class="cls-34" d="M584.6,372.97c.06,0,.11-.05,.11-.11l.05-57.76,9.24-10.96-1.16-1.89h1.64s0-4.16,0-4.16c0-.06-.05-.11-.11-.11s-.11,.05-.11,.11v3.95h-1.81s1.28,2.08,1.28,2.08l-9.19,10.9v.04l-.05,57.8c0,.06,.05,.11,.11,.11Z"/><path class="cls-34" d="M572.8,317.14c.06,0,.11-.05,.11-.11v-6.28c0-.06-.05-.11-.11-.11s-.11,.05-.11,.11v6.28c0,.06,.05,.11,.11,.11Z"/><path class="cls-34" d="M595.12,329.61c.05,0,.1-.04,.11-.09l2.78-18.12c0-.06-.03-.11-.09-.12-.06,0-.11,.03-.12,.09l-2.78,18.12c0,.06,.03,.11,.09,.12,0,0,.01,0,.02,0Z"/><circle class="cls-10" cx="587.6" cy="318.45" r=".55"/><circle class="cls-10" cx="587.25" cy="329.17" r=".55"/><circle class="cls-10" cx="587.25" cy="340.95" r=".55"/><circle class="cls-10" cx="586.85" cy="352.73" r=".55"/><circle class="cls-10" cx="586.47" cy="363.71" r=".55"/><rect class="cls-10" x="591.9" y="344.72" width="7.45" height="1.6" rx=".63" ry=".63" transform="translate(1231.1 610.73) rotate(172.53)"/><rect class="cls-10" x="573.04" y="344.3" width="7.45" height="1.6" rx=".63" ry=".63" transform="translate(49.73 -72.01) rotate(7.47)"/><polygon class="cls-1" points="578.41 342.58 561.88 325.71 544.84 319.82 564.26 339.58 578.41 342.58"/><polygon class="cls-26" points="561.88 325.71 544.84 319.82 545.23 319.31 562.22 325.2 578.76 342.07 578.41 342.58 561.88 325.71"/><path class="cls-2" d="M554.77,326.32h0c-.29-.27-.75-.25-1.01,.05l-1.45,1.69c-.24,.28-.22,.7,.05,.96l.07,.07c.3,.29,.78,.25,1.03-.07l1.38-1.76c.22-.28,.19-.69-.07-.94Z"/><path class="cls-2" d="M556.26,327.64h0c-.31-.29-.79-.26-1.06,.06l-1.54,1.81c-.26,.3-.23,.75,.05,1.03l.08,.08c.31,.31,.82,.27,1.09-.08l1.46-1.89c.24-.31,.2-.74-.08-1.01Z"/><path class="cls-2" d="M557.54,329.24h0c-.31-.29-.79-.26-1.06,.06l-1.54,1.81c-.26,.3-.23,.75,.05,1.03l.08,.08c.31,.31,.82,.27,1.09-.08l1.46-1.89c.24-.31,.2-.74-.08-1.01Z"/><path class="cls-2" d="M558.54,331.2h0c-.28-.27-.73-.24-.98,.05l-1.42,1.66c-.24,.28-.22,.69,.05,.94l.07,.07c.29,.28,.76,.25,1.01-.07l1.35-1.73c.22-.28,.19-.68-.07-.92Z"/><polygon class="cls-2" points="558.76 333.99 556.6 334.12 556.26 332.77 556.98 332.18 558.76 333.99"/><path class="cls-32" d="M603.37,434.06l1.63,3.45c.36,.76-.19,1.63-1.03,1.63h-8.22c-.76,0-1.31-.73-1.09-1.46l1.09-3.66s1.8,1.29,3.88,1.43c0,0,2.4,.09,3.74-1.39Z"/><path class="cls-32" d="M582.21,434.01l.72,3.84c.07,.37-.21,.71-.59,.71h-19.06c-.41,0-.75-.33-.75-.75h0c0-.31,.19-.59,.48-.7l6.35-2.38s1,1.21,12.84-.73Z"/><path class="cls-33" d="M584.95,286.59c.06,0,.11-.05,.11-.11,0-.06-.05-.11-.11-.11-.95-.02-1.48-.52-1.71-.81-.06-.08-.07-.19-.02-.28l.47-.9c.62-1.18,.82-2.55,.54-3.84-.02-.1-.03-.15-.03-.15-.01-.06-.07-.09-.13-.08-.06,.01-.09,.07-.08,.13,0,0,.01,.05,.03,.14,.26,1.24,.07,2.55-.52,3.69l-.47,.9c-.09,.17-.07,.37,.05,.51,.26,.32,.84,.87,1.88,.89h0Z"/><path class="cls-34" d="M567.21,330.15s.07,0,.1-.02l8.33-2.67c.17-.05,.26-.24,.21-.41-.05-.17-.23-.26-.41-.21l-8.33,2.67c-.17,.05-.26,.24-.21,.41,.04,.14,.17,.22,.31,.22Z"/><path class="cls-33" d="M583.33,280.39s.09-.02,.11-.06c.04-.06,.03-.15-.03-.19-.02-.01-1.96-1.39-3.92-.32-.07,.04-.09,.12-.05,.19s.12,.09,.19,.05c1.8-.99,3.6,.28,3.62,.3,.02,.02,.05,.03,.08,.03Z"/><path class="cls-33" d="M589.5,280.88s.07-.01,.1-.04c.06-.05,.06-.14,0-.2-.02-.02-1.81-1.86-3.65-.51-.06,.05-.07,.13-.03,.19,.05,.06,.13,.07,.19,.03,1.64-1.22,3.26,.46,3.28,.47,.03,.03,.06,.04,.1,.04Z"/><path class="cls-5" d="M598.17,330.16l-21.13-.22s-.91,1.62-.41,4.69l21.54,.56v-5.03Z"/><path class="cls-34" d="M598.16,335.31c.06,0,.11-.05,.11-.1,0-.06-.05-.11-.1-.11l-21.54-.56c-.06,0-.11,.05-.11,.1,0,.06,.05,.11,.1,.11l21.54,.56h0Z"/><path class="cls-2" d="M567.68,329.25l-1.22,.28,5.74,5.86s1.02-.74,4.43-.75c0,0-.5-2.99,.41-4.69,0,0-3.11-.77-5.01-.92-.27-.02-.53-.07-.78-.15"/></g><rect class="cls-20" y="438.33" width="1008" height="35.84"/><rect class="cls-5" x="555.63" y="444.25" width="62.45" height="14.07" rx=".86" ry=".86"/><g><path class="cls-34" d="M563.49,451.7h-2.65v1.79h3.1v1.11h-4.48v-6.69h4.47v1.12h-3.1v1.59h2.65v1.08Z"/><path class="cls-34" d="M567.22,452.94l1.52-5.03h1.53l-2.33,6.69h-1.44l-2.32-6.69h1.53l1.51,5.03Z"/><path class="cls-34" d="M574.33,453.22h-2.42l-.46,1.38h-1.46l2.49-6.69h1.28l2.5,6.69h-1.46l-.46-1.38Zm-2.04-1.12h1.67l-.84-2.5-.83,2.5Z"/><path class="cls-34" d="M578.26,453.49h2.93v1.11h-4.3v-6.69h1.38v5.58Z"/><path class="cls-34" d="M586.93,447.91v4.4c0,.73-.23,1.31-.69,1.74-.46,.43-1.08,.64-1.88,.64s-1.4-.21-1.86-.62-.69-.98-.7-1.7v-4.45h1.38v4.41c0,.44,.11,.76,.31,.96,.21,.2,.5,.3,.87,.3,.77,0,1.17-.41,1.18-1.22v-4.45h1.38Z"/><path class="cls-34" d="M591.73,453.22h-2.42l-.46,1.38h-1.46l2.49-6.69h1.28l2.5,6.69h-1.46l-.46-1.38Zm-2.04-1.12h1.67l-.84-2.5-.83,2.5Z"/><path class="cls-34" d="M598.77,449.03h-2.05v5.57h-1.38v-5.57h-2.02v-1.12h5.45v1.12Z"/><path class="cls-34" d="M601.02,454.6h-1.38v-6.69h1.38v6.69Z"/><path class="cls-34" d="M607.79,451.41c0,.66-.12,1.24-.35,1.73-.23,.5-.57,.88-1,1.15-.43,.27-.93,.4-1.49,.4s-1.05-.13-1.48-.4c-.44-.27-.77-.65-1.01-1.14-.24-.49-.36-1.06-.36-1.71v-.33c0-.66,.12-1.24,.36-1.74,.24-.5,.57-.88,1.01-1.15,.43-.27,.93-.4,1.49-.4s1.05,.13,1.49,.4c.43,.27,.77,.65,1.01,1.15,.24,.5,.36,1.08,.36,1.73v.3Zm-1.4-.3c0-.7-.12-1.23-.38-1.6-.25-.36-.61-.55-1.08-.55s-.82,.18-1.07,.54c-.25,.36-.38,.89-.38,1.58v.33c0,.68,.13,1.21,.38,1.59,.25,.38,.61,.56,1.08,.56s.82-.18,1.07-.54c.25-.36,.37-.89,.38-1.59v-.33Z"/><path class="cls-34" d="M614.23,454.6h-1.38l-2.68-4.4v4.4h-1.38v-6.69h1.38l2.69,4.41v-4.41h1.37v6.69Z"/></g><rect class="cls-5" x="918.68" y="443.16" width="34.84" height="14.07" rx=".86" ry=".86"/><g><path class="cls-34" d="M930.12,446.83v4.4c0,.73-.23,1.31-.69,1.74-.46,.43-1.08,.64-1.88,.64s-1.4-.21-1.86-.62-.69-.98-.7-1.7v-4.45h1.38v4.41c0,.44,.11,.76,.31,.96,.21,.2,.5,.3,.87,.3,.77,0,1.17-.41,1.18-1.22v-4.45h1.38Z"/><path class="cls-34" d="M934.72,451.76c0-.26-.09-.46-.28-.6s-.51-.29-.99-.44c-.48-.15-.86-.31-1.13-.46-.76-.41-1.14-.96-1.14-1.66,0-.36,.1-.68,.31-.97,.2-.28,.5-.5,.88-.66s.81-.24,1.28-.24,.9,.09,1.28,.26c.37,.17,.66,.42,.87,.73s.31,.67,.31,1.07h-1.38c0-.31-.1-.54-.29-.71-.19-.17-.46-.25-.81-.25s-.6,.07-.79,.21c-.19,.14-.28,.33-.28,.56,0,.22,.11,.4,.33,.55,.22,.15,.54,.29,.97,.41,.78,.24,1.35,.53,1.71,.88,.36,.35,.54,.78,.54,1.3,0,.58-.22,1.03-.66,1.36s-1.03,.49-1.77,.49c-.51,0-.98-.09-1.41-.28-.42-.19-.74-.45-.97-.77-.22-.33-.33-.71-.33-1.14h1.38c0,.74,.44,1.11,1.32,1.11,.33,0,.58-.07,.77-.2s.28-.32,.28-.56Z"/><path class="cls-34" d="M941.06,450.62h-2.65v1.79h3.1v1.11h-4.48v-6.69h4.47v1.12h-3.1v1.59h2.65v1.08Z"/><path class="cls-34" d="M944.8,451.07h-1.1v2.45h-1.38v-6.69h2.49c.79,0,1.4,.18,1.83,.53,.43,.35,.64,.85,.64,1.49,0,.46-.1,.84-.3,1.14s-.5,.55-.9,.73l1.45,2.73v.06h-1.48l-1.25-2.45Zm-1.1-1.12h1.11c.35,0,.61-.09,.8-.26,.19-.18,.29-.42,.29-.73s-.09-.56-.27-.74c-.18-.18-.45-.27-.82-.27h-1.11v2.01Z"/></g><g><path class="cls-2" d="M917.32,324.52s-.85,7.05-1.15,10.4c-.04,.5-.16,.99-.34,1.46l-2.32,6.05,3.8,3.83s4.23-6.41,4.74-9.58l-.33-10.83-3.12-1.99-1.29,.67Z"/><path class="cls-2" d="M946.17,286.23l.48-.07c.82-.11,1.57,.5,1.6,1.33,.1,2.08-.48,5.6-5.32,6.16,0,0,2.68-4.33,3.24-7.42Z"/><path class="cls-25" d="M931.18,302.51s-4.58,2.97-8.6,4.01c-2.47,.64-4.28,2.83-4.26,5.39,0,.04,0,.08,0,.12,0,.2,0,.41-.02,.61l-1.14,11.3c-.03,.27,.08,.53,.3,.69,.74,.57,2.58,1.78,4.28,1.21,0,0,.3,8.37,.35,12.01,.01,.99-.11,1.98-.36,2.94-.53,2.01-1.51,5.6-1.73,5.91l28.13-.27s-2.97-10.96-1.09-16.14c.17-.47,.3-.95,.42-1.44,.53-2.12,1.7-6.72,1.89-7.04,0,0,1.92,1.41,2.87,4.26,.06,.19,.27,.28,.45,.19l7.27-3.52-4.51-11.94s-1-3.17-6.07-4.72c-1.03-.31-1.97-.83-2.79-1.52-.86-.73-2.21-1.6-3.92-1.86l-11.45-.19Z"/><polygon class="cls-4" points="937.7 335.09 934.16 333.27 933.4 333.72 934.79 334.87 937.7 335.09"/><polygon class="cls-16" points="929.32 332.41 929.32 337.14 935.63 337.65 935.38 332.41 929.32 332.41"/><path class="cls-28" d="M928.98,331.75l.37-.73c.08-.16,.24-.25,.41-.25h5.46c.18,0,.34,.1,.42,.27l.34,.73c.14,.3-.08,.65-.42,.65h-6.16c-.34,0-.56-.36-.41-.67Z"/><path class="cls-2" d="M905.23,358.14l-.72,2.12c-.21,.62-.07,1.31,.37,1.8l1.06,1.18c.24,.26,.55,.45,.89,.55l1.41,.38c.55,.15,1.13,.03,1.58-.32h0s-1.34-3.61-1.34-3.61l-.66-.59-1.27-.05-1.32-1.47Z"/><path class="cls-44" d="M897.56,349.63l11.82-11.33c.24-.23,.63-.22,.86,.02l9.53,10.04c.1,.11,.16,.24,.17,.39l.56,11.8c0,.17-.06,.34-.18,.46l-5.74,5.6c-.24,.23-.62,.23-.85,0l-16.16-16.12c-.24-.24-.24-.63,0-.87Z"/><path class="cls-43" d="M922.57,429.6s-2.97,3.33-8.57,4.34c-.96,.17-1.82,.74-2.31,1.58-.34,.57-.57,1.34-.52,2.35,.01,.26,.23,.46,.49,.46h11.51l2.98-.89h1.08v.89h5.1v-5.96l-.69-2.77-2.55-1.4-6.51,1.4Z"/><path class="cls-43" d="M944.19,430.17l-.21,2.69c0,.11-.05,.22-.11,.31-.36,.5-1.59,2.36-1.39,4.59,.03,.32,.3,.56,.62,.56h12.27c.34,0,.61-.29,.59-.63l-.05-.89c-.06-1.08-.54-2.09-1.32-2.83-.32-.3-.66-.64-.99-.99-.61-.65-.96-1.5-.98-2.39l-.03-1.43-3.77-1.31-4.62,2.3Z"/><path class="cls-5" d="M899.8,349.44l9.85-9.47c.25-.24,.64-.22,.87,.03l9.33,10.16c.1,.1,.15,.24,.16,.38l.38,8.12c0,.17-.06,.33-.17,.46l-5.61,5.69c-.24,.24-.63,.24-.87,0l-13.96-14.51c-.23-.24-.23-.63,.02-.86Z"/><path class="cls-22" d="M920,346.7l-.23,1.67s1.72,72.7,1.76,80.34c0,.35,.23,.66,.57,.76,1.46,.42,5.53,1.33,10.04-.01,.33-.1,.55-.4,.55-.75l.85-66.74c0-.28,.23-.51,.52-.51h.95c.27,0,.49,.2,.52,.46l7.09,67.15c.07,.62,.59,1.1,1.22,1.09,2.11-.01,6.69-.16,9.08-1.11,.5-.2,.81-.69,.77-1.22l-5.56-81.41-28.13,.27Z"/><polygon class="cls-41" points="919.87 347.59 948.18 347.34 948.4 350.46 919.81 350.32 919.87 347.59"/><rect class="cls-22" x="937.59" y="347.43" width="1.26" height="2.98"/><rect class="cls-22" x="945.68" y="347.34" width="1.41" height="3.12"/><rect class="cls-22" x="923.54" y="347.56" width="1.33" height="2.78"/><path class="cls-4" d="M941.82,295.2v6.05c0,.5,.23,.98,.62,1.3l.19,.15s-7.45,3.46-8.74,9.17c-.01,.07-.11,.06-.11,0,.03-1.63-.06-5.07-1.43-5.95-.2-.13-.35-.31-.48-.5-.31-.47-.77-1.29-.87-2.2-.03-.25,.04-.5,.18-.7,.35-.5,.98-1.66,.53-3.1l7.7-3.94,2.41-.28Z"/><path class="cls-2" d="M924.22,287.12s.66,10.39,8.38,12.59c.95,.27,1.97,.28,2.92,0,2.59-.76,7.76-3.51,10.64-13.48l-2.13-9.04-13.55,.45-6,1.73-.26,7.75Z"/><circle class="cls-33" cx="936.08" cy="287.86" r="1.04"/><circle class="cls-33" cx="928.29" cy="287.86" r="1.04"/><path class="cls-33" d="M938.65,285.37s-.1-.02-.14-.05c-.73-.57-2.91-.63-3.68-.6h0c-.12,0-.22-.1-.23-.22,0-.13,.09-.23,.22-.23,.12,0,2.96-.08,3.97,.7,.1,.08,.12,.22,.04,.32-.04,.06-.11,.09-.18,.09Z"/><path class="cls-33" d="M925.82,285.37c-.07,0-.13-.03-.18-.09-.08-.1-.06-.24,.04-.32,1.01-.78,3.85-.7,3.97-.7,.13,0,.22,.11,.22,.23,0,.13-.11,.22-.23,.22-.78-.02-2.95,.04-3.68,.6-.04,.03-.09,.05-.14,.05Z"/><path class="cls-33" d="M931.79,291.21s-.06,0-.08-.02l-.83-.33c-.2-.08-.36-.24-.44-.44-.08-.2-.07-.43,.02-.62l1.49-3.09c.05-.11,.19-.16,.3-.11s.16,.19,.11,.3l-1.49,3.09c-.04,.08-.04,.17-.01,.26s.1,.15,.18,.18l.83,.33c.12,.05,.17,.18,.13,.29-.04,.09-.12,.14-.21,.14Z"/><path class="cls-33" d="M924.22,287.12s-.14-4.91,.58-6.72c.1-.25,.39-.37,.64-.26,1.34,.54,6.16,1.9,15.04-1.72,.26-.1,.55,.01,.66,.27,.41,1.02,1.43,3.4,2.21,4.23,.16,.17,.28,.37,.38,.58,.34,.71,.84,2.23,.35,4.37,0,0,8.77-4.22,.24-14.83-.48-.6-1.09-1.06-1.78-1.4-.23-.11-.5-.29-.76-.57-.72-.74-1.68-1.2-2.7-1.34-.77-.11-1.78-.17-3.11-.13,0,0-7.39,1.13-8.38-2.17,0,0-3.08,2.04-2.61,4.65,0,0-1.09,.13-1.13-1.78,0,0-3.74,4.13-.22,8.43,0,0-1.65,4.82,.61,8.41Z"/><rect class="cls-2" x="909.94" y="361.12" width=".83" height="3.2" rx=".23" ry=".23" transform="translate(523.12 -537.48) rotate(45)"/><rect class="cls-2" x="909.71" y="360.19" width=".83" height="3.2" rx=".23" ry=".23" transform="translate(522.39 -537.59) rotate(45)"/><rect class="cls-2" x="909.26" y="359.51" width=".83" height="3.2" rx=".23" ry=".23" transform="translate(521.78 -537.47) rotate(45)"/><rect class="cls-2" x="908.27" y="359.38" width=".83" height="3.2" rx=".23" ry=".23" transform="translate(521.4 -536.81) rotate(45)"/><path class="cls-2" d="M952.68,326.25l2.08,4.69c.14,.3-.03,.66-.35,.75-2.08,.57-9.21,2.44-16.54,3.4-.06,0-.11,0-.17,0l-2.91-.23s-.1,0-.15,0l-5.67,.64c-.4,.04-.7,.38-.7,.78v1.68c0,.09,.02,.18,.05,.26l.49,1.39s.02,.04,.03,.06l.71,1.54c.13,.28,.41,.46,.71,.46h1.85c.86,0,1.72-.13,2.54-.39l3.2-1.01c.22-.07,.4-.23,.49-.45h0c.11-.28,.37-.47,.67-.48,2.49-.16,13.83-.9,17.87-1.42,1.62-.21,2.77-1.09,3.57-2.13,1.4-1.81,1.79-4.21,1.21-6.42l-1.73-6.63-7.25,3.51Z"/><rect class="cls-15" x="929.32" y="333.81" width="6.17" height=".83"/><path class="cls-5" d="M935.74,293.39c-1.07,.13-4.36,.44-6.07-.24-.12-.05-.25-.03-.34,.07-.12,.14-.23,.43-.07,1,0,0,4.02,.98,6.82,0v-.52c0-.19-.16-.33-.35-.31Z"/><path class="cls-33" d="M936.08,294.22s-1.03,2.37-3.69,2.19c0,0-2.19,.29-3.14-2.19h6.82Z"/><path class="cls-42" d="M900.51,346.8l1,.89c.22,.2,.56,.19,.78-.02l4.85-4.72c.23-.23,.23-.61-.01-.83l-.89-.82-5.73,5.49Z"/><g><path class="cls-28" d="M907.61,352.41l-.23,.23-.49-.49-.46,.46,.49,.49-.24,.24-1.14-1.14,.24-.24,.46,.46,.46-.46-.46-.46,.23-.23,1.14,1.14Z"/><path class="cls-28" d="M907.79,351.59l-.37-.69,.24-.24,.64,1.32,.03,.06c.06,.16,.03,.3-.08,.42-.03,.03-.07,.06-.12,.09l-.17-.17,.04-.03s.07-.08,.08-.12,0-.07-.02-.12l-.04-.1-1.15-.55,.24-.24,.69,.37Z"/><path class="cls-28" d="M908.53,349.59l-.35,.35,.95,.95-.24,.24-.95-.95-.34,.34-.19-.19,.93-.93,.19,.19Z"/><path class="cls-28" d="M910,350.05c-.12,.12-.26,.19-.42,.19-.15,0-.29-.06-.42-.19l-.02-.02c-.09-.09-.15-.18-.18-.28s-.04-.2-.01-.29c.02-.1,.07-.18,.15-.26,.12-.12,.24-.17,.38-.16,.14,0,.28,.08,.41,.21l.09,.09-.54,.54c.06,.05,.13,.07,.2,.07,.07,0,.13-.03,.19-.09,.09-.09,.12-.19,.11-.3h.24c.01,.09,0,.18-.03,.26-.03,.08-.08,.16-.15,.23Zm-.72-.67s-.07,.1-.06,.15c0,.06,.03,.12,.08,.18l.32-.32-.02-.02c-.05-.05-.1-.07-.16-.08-.05,0-.11,.02-.15,.07Z"/><path class="cls-28" d="M910.69,348.86s-.06-.04-.11-.02c-.04,.01-.1,.04-.18,.09-.24,.16-.43,.17-.56,.05-.08-.08-.11-.17-.09-.28,.01-.11,.07-.22,.17-.32,.11-.11,.22-.17,.33-.18s.21,.02,.29,.1l-.23,.23s-.07-.05-.11-.05c-.04,0-.09,.02-.13,.07-.04,.04-.06,.08-.06,.11,0,.04,0,.07,.03,.1,.03,.02,.06,.03,.1,.03,.04,0,.09-.04,.16-.08,.07-.05,.13-.08,.18-.1,.16-.08,.3-.06,.41,.05,.08,.08,.11,.17,.09,.29-.02,.11-.08,.22-.18,.33-.07,.07-.15,.12-.23,.15-.08,.03-.16,.04-.23,.03-.08-.01-.14-.04-.19-.1l.21-.21s.09,.05,.14,.05,.1-.03,.14-.08c.04-.04,.07-.08,.07-.12,0-.04,0-.07-.03-.1Z"/><path class="cls-28" d="M910.5,347.4l.21,.21,.15-.15,.17,.17-.15,.15,.42,.42s.06,.05,.09,.05c.03,0,.05-.01,.09-.05,.03-.03,.05-.05,.06-.07l.17,.17c-.03,.06-.07,.11-.12,.16-.16,.16-.32,.16-.48,0l-.46-.46-.12,.12-.17-.17,.12-.12-.21-.21,.23-.23Z"/><path class="cls-28" d="M911.12,347.31l-.17,.04c-.03-.12-.08-.21-.15-.29l-.13-.13,.18-.18,.12,.12s.08,.11,.11,.19c.03,.08,.04,.16,.04,.24Z"/><path class="cls-28" d="M912.26,347.29s-.06-.04-.11-.02c-.04,.01-.1,.04-.17,.09-.24,.16-.43,.17-.56,.05-.08-.08-.11-.17-.09-.28,.01-.11,.07-.22,.17-.32,.11-.11,.22-.17,.33-.18s.21,.02,.29,.1l-.23,.23s-.07-.05-.11-.05c-.04,0-.08,.02-.13,.07-.04,.04-.06,.08-.06,.11,0,.04,0,.07,.03,.1,.03,.02,.06,.03,.1,.02,.04,0,.09-.04,.16-.08,.07-.05,.13-.08,.18-.1,.16-.08,.3-.06,.41,.05,.08,.08,.11,.17,.09,.29-.02,.11-.08,.22-.18,.33-.07,.07-.15,.12-.23,.15-.08,.03-.16,.04-.23,.03-.08-.01-.14-.04-.19-.1l.21-.21s.09,.05,.14,.05c.05,0,.1-.03,.14-.08,.04-.04,.07-.08,.07-.12s0-.07-.03-.1Z"/><path class="cls-28" d="M911.04,352.83l-.24,.24-1.21-.29,.75,.75-.23,.24-1.14-1.14,.23-.24,1.21,.29-.75-.75,.23-.23,1.14,1.14Z"/><path class="cls-28" d="M911.64,352.27c-.12,.12-.26,.19-.42,.19-.15,0-.29-.06-.42-.19l-.02-.02c-.09-.08-.15-.18-.18-.28-.03-.1-.04-.2-.02-.29,.02-.1,.08-.18,.15-.26,.12-.12,.24-.17,.38-.16s.28,.08,.41,.21l.09,.09-.54,.54c.06,.05,.13,.07,.2,.07,.07,0,.13-.03,.19-.09,.09-.09,.12-.19,.11-.3h.24c.01,.1,0,.18-.03,.26-.03,.09-.08,.16-.15,.23Zm-.72-.67s-.07,.1-.06,.15c0,.06,.03,.12,.08,.18l.32-.32-.02-.02c-.05-.05-.1-.08-.16-.08-.05,0-.11,.02-.15,.07Z"/><path class="cls-28" d="M912.53,350.73l-.43-.65,.22-.22,.63,1.06-.19,.19-.69-.37,.37,.7-.19,.19-1.06-.63,.22-.22,.65,.43-.38-.69,.16-.16,.69,.39Z"/><path class="cls-28" d="M910.78,356.29l-.66-.97,.23-.23,.89,1.39-.24,.24-.95-.58,.58,.95-.24,.24-1.39-.89,.23-.23,.96,.66-.62-1,.2-.2,1,.62Z"/><path class="cls-28" d="M911.12,355.74c-.08-.08-.14-.18-.18-.27-.03-.1-.04-.2-.01-.29,.02-.1,.08-.19,.16-.27,.11-.12,.24-.17,.38-.17,.14,0,.28,.05,.41,.17l.06,.05c.13,.13,.2,.27,.2,.42,0,.15-.05,.29-.17,.41s-.26,.18-.41,.17c-.15,0-.29-.07-.43-.21h0Zm.24-.22c.08,.08,.16,.13,.23,.14,.07,.01,.14,0,.19-.07s.08-.12,.07-.19c-.01-.07-.06-.16-.16-.25-.08-.08-.16-.12-.23-.14-.08-.01-.14,0-.2,.07-.06,.05-.08,.12-.06,.19,.01,.07,.06,.16,.15,.25Z"/><path class="cls-28" d="M912.33,354.12s-.06,.05-.09,.08c-.08,.09-.11,.17-.08,.25l.56,.56-.23,.23-.85-.85,.21-.21,.11,.09c-.03-.12,0-.23,.07-.31,.02-.02,.05-.04,.08-.06l.21,.22Z"/><path class="cls-28" d="M913.05,354v.16s.26,.26,.26,.26l-.23,.23-1.2-1.2,.23-.23,.67,.67v-.1s-.05-.47-.05-.47l.27-.27,.05,.66,.83,.16-.26,.26-.56-.12Z"/><path class="cls-28" d="M914,353.73l-.68-.68-.13,.13-.17-.17,.13-.13-.07-.07c-.1-.09-.14-.2-.14-.3,0-.11,.05-.21,.15-.31,.03-.03,.08-.07,.13-.1l.17,.18s-.05,.04-.08,.06c-.08,.08-.09,.17,0,.25l.07,.07,.17-.17,.17,.17-.17,.17,.68,.68-.23,.23Z"/><path class="cls-28" d="M914.75,352.97l-.23,.23-1.2-1.2,.23-.23,1.2,1.2Z"/><path class="cls-28" d="M914.47,352.39c-.08-.08-.14-.17-.18-.27-.03-.1-.04-.2-.01-.29,.02-.1,.08-.19,.16-.27,.11-.11,.24-.17,.39-.17s.28,.05,.41,.17l.06,.06c.13,.13,.2,.27,.21,.42,0,.15-.05,.29-.17,.41-.12,.12-.26,.18-.41,.17-.15,0-.29-.07-.43-.21h0Zm.24-.22c.08,.08,.16,.13,.23,.14,.07,.01,.14-.01,.2-.07,.05-.06,.08-.12,.06-.19-.01-.07-.06-.16-.16-.25-.08-.08-.16-.12-.23-.14s-.14,0-.2,.07-.08,.12-.06,.19c.01,.07,.06,.16,.16,.25Z"/><path class="cls-28" d="M916.27,350.84l-.43-.65,.22-.22,.63,1.06-.19,.19-.7-.37,.37,.69-.19,.19-1.06-.63,.22-.22,.65,.43-.38-.69,.16-.16,.69,.39Z"/></g></g><g><g><g><line class="cls-46" x1="915.29" y1="386.56" x2="915.29" y2="408.12"/><line class="cls-46" x1="926.83" y1="389.9" x2="915.29" y2="408.12"/><line class="cls-46" x1="934.79" y1="398.9" x2="915.29" y2="408.12"/><line class="cls-46" x1="936.7" y1="410.76" x2="915.29" y2="408.12"/><line class="cls-46" x1="931.97" y1="421.8" x2="915.29" y2="408.12"/><line class="cls-46" x1="922.06" y1="428.6" x2="915.29" y2="408.12"/><line class="cls-46" x1="910.06" y1="429.04" x2="915.29" y2="408.12"/><line class="cls-46" x1="899.68" y1="423" x2="915.29" y2="408.12"/><line class="cls-46" x1="894.15" y1="412.34" x2="915.29" y2="408.12"/><line class="cls-46" x1="895.17" y1="400.37" x2="915.29" y2="408.12"/><line class="cls-46" x1="902.44" y1="390.81" x2="915.29" y2="408.12"/></g><g><line class="cls-46" x1="850.93" y1="386.5" x2="850.93" y2="408.06"/><line class="cls-46" x1="862.46" y1="389.84" x2="850.93" y2="408.06"/><line class="cls-46" x1="870.42" y1="398.84" x2="850.93" y2="408.06"/><line class="cls-46" x1="872.33" y1="410.69" x2="850.93" y2="408.06"/><line class="cls-46" x1="867.6" y1="421.73" x2="850.93" y2="408.06"/><line class="cls-46" x1="857.7" y1="428.53" x2="850.93" y2="408.06"/><line class="cls-46" x1="845.69" y1="428.98" x2="850.93" y2="408.06"/><line class="cls-46" x1="835.32" y1="422.93" x2="850.93" y2="408.06"/><line class="cls-46" x1="829.78" y1="412.27" x2="850.93" y2="408.06"/><line class="cls-46" x1="830.81" y1="400.31" x2="850.93" y2="408.06"/><line class="cls-46" x1="838.07" y1="390.75" x2="850.93" y2="408.06"/></g><path d="M850.96,386.56c-11.91,0-21.56,9.65-21.56,21.56s9.65,21.56,21.56,21.56,21.56-9.65,21.56-21.56-9.65-21.56-21.56-21.56Zm.09,39.67c-9.95,0-18.01-8.06-18.01-18.01s8.06-18.01,18.01-18.01,18.01,8.06,18.01,18.01-8.06,18.01-18.01,18.01Z"/><path d="M915.29,386.56c-11.91,0-21.56,9.65-21.56,21.56s9.65,21.56,21.56,21.56,21.56-9.65,21.56-21.56-9.65-21.56-21.56-21.56Zm.09,39.67c-9.95,0-18.01-8.06-18.01-18.01s8.06-18.01,18.01-18.01,18.01,8.06,18.01,18.01-8.06,18.01-18.01,18.01Z"/><path class="cls-30" d="M917.08,407.64l-13.98-36.66,7.59-3.36c.82-.36,1.22-1.29,.93-2.14-.34-.97-1.44-1.44-2.37-1l-8.44,3.99c-1.21,.57-1.75,2-1.21,3.23l1.9,4.32-31.13,9.27-3.89-8.24,7.64-2.8c.97-.35,1.48-1.42,1.15-2.39-.26-.79-1.01-1.32-1.85-1.3l-12.91,.26c-1.28,.03-2.14,1.31-1.68,2.5l1.47,3.79c.31,.81,1.19,1.25,2.03,1.02l.59-.16,4.35,9.16-17.54,20.17c-.85,.98-.26,2.51,1.03,2.67l28.98,3.49c.57,.07,1.12-.18,1.44-.66l21.79-31.96,10.86,28.07c.37,.96,1.5,1.39,2.41,.91,.78-.41,1.14-1.33,.82-2.16Zm-62.46-.64l13.93-16.25,8.51,18.79-22.44-2.54Zm25.64,1.22l-8.62-19.61,27.41-8.24-18.79,27.85Z"/></g><path class="cls-34" d="M858.7,373.13l1.9,4.52c.22,.54,1,1.18,1.55,.99l12.3-4.57c.98-.33,1.38-1.49,.82-2.35l-.38-.59c-.32-.49-.87-.78-1.46-.76l-13.26,.45c-1.16,.04-1.93,1.23-1.48,2.3Z"/><path class="cls-34" d="M903.1,370.97l7.49-3.38c.96-.43,1.34-1.61,.81-2.52h0c-.47-.81-1.49-1.11-2.33-.7l-7.55,3.74,1.58,2.85Z"/></g><path class="cls-21" d="M823.48,429.73h119.3c.89,0,1.61,.72,1.61,1.61v7.14h-122.51v-7.14c0-.89,.72-1.61,1.61-1.61Z"/></svg>