<?xml version="1.0" encoding="UTF-8"?><svg id="Layer_1" xmlns="http://www.w3.org/2000/svg" viewBox="0 0 560 205"><defs><style>.cls-1{font-size:11px;}.cls-1,.cls-2,.cls-3{fill:#fff;}.cls-1,.cls-3{font-family:D-DINCondensed-Bold, 'D-DIN Condensed';font-weight:700;}.cls-4{letter-spacing:-.01em;}.cls-5{letter-spacing:-.02em;}.cls-6{letter-spacing:-.01em;}.cls-7{letter-spacing:-.02em;}.cls-8{letter-spacing:-.03em;}.cls-9{fill:#d1d3d4;}.cls-10{fill:#058ab4;}.cls-11{fill:#0d6b90;}.cls-12{fill:#5576ba;}.cls-13{fill:#37a8a8;}.cls-14{fill:#764b80;}.cls-15{letter-spacing:-.01em;}.cls-16{letter-spacing:-.02em;}.cls-17{letter-spacing:-.03em;}.cls-18{letter-spacing:0em;}.cls-19{letter-spacing:0em;}.cls-20{letter-spacing:0em;}.cls-21{letter-spacing:-.02em;}.cls-22{letter-spacing:-.02em;}.cls-3{font-size:12px;}.cls-23{letter-spacing:-.02em;}</style></defs><g><path class="cls-2" d="m13.42,194.5c-1.61,0-2.92-1.31-2.92-2.92V19.5h539v172.08c0,1.61-1.31,2.92-2.92,2.92H13.42Z"/><path class="cls-9" d="m549,20v171.58c0,1.33-1.09,2.42-2.42,2.42H13.42c-1.33,0-2.42-1.09-2.42-2.42V20h538m1-1H10v172.58c0,1.89,1.53,3.42,3.42,3.42h533.16c1.89,0,3.42-1.53,3.42-3.42V19h0Z"/></g><path class="cls-12" d="m13.67,10h532.67c2.02,0,3.67,1.64,3.67,3.67v14.71H10v-14.71c0-2.02,1.64-3.67,3.67-3.67Z"/><g><rect class="cls-2" x="22.46" y="49.45" width="517.04" height="135.06" rx="2.5" ry="2.5"/><path class="cls-9" d="m537,49.95c1.1,0,2,.9,2,2v130.06c0,1.1-.9,2-2,2H24.96c-1.1,0-2-.9-2-2V51.95c0-1.1.9-2,2-2h512.04m0-1H24.96c-1.66,0-3,1.34-3,3v130.06c0,1.66,1.34,3,3,3h512.04c1.66,0,3-1.34,3-3V51.95c0-1.66-1.34-3-3-3h0Z"/></g><text class="cls-3" transform="translate(245.53 23.34)"><tspan class="cls-4" x="0" y="0">R</tspan><tspan x="5.4" y="0">efe</tspan><tspan class="cls-20" x="18.71" y="0">r</tspan><tspan x="22.26" y="0">ence </tspan><tspan class="cls-8" x="44.03" y="0">F</tspan><tspan x="48.12" y="0">abric</tspan></text><path class="cls-11" d="m25.56,38.37h510.85c1.98,0,3.59,1.61,3.59,3.59v14.78H21.96v-14.78c0-1.98,1.61-3.59,3.59-3.59Z"/><text class="cls-3" transform="translate(254.28 51.72)"><tspan x="0" y="0">H</tspan><tspan class="cls-7" x="5.52" y="0">y</tspan><tspan x="10.19" y="0">d</tspan><tspan class="cls-20" x="15.11" y="0">r</tspan><tspan class="cls-18" x="18.66" y="0">og</tspan><tspan class="cls-15" x="28.51" y="0">r</tspan><tspan x="32" y="0">ap</tspan><tspan class="cls-21" x="41.78" y="0">h</tspan><tspan x="46.52" y="0">y</tspan></text><rect class="cls-10" x="31.96" y="67.19" width="159.48" height="106.96" rx="5" ry="5"/><rect class="cls-14" x="201.24" y="67.19" width="159.48" height="106.96" rx="5" ry="5"/><rect class="cls-13" x="370.52" y="67.19" width="159.48" height="106.96" rx="5" ry="5"/><text class="cls-1" transform="translate(88.83 123.51)"><tspan class="cls-17" x="0" y="0">W</tspan><tspan class="cls-6" x="7.12" y="0">a</tspan><tspan class="cls-16" x="11.46" y="0">t</tspan><tspan x="14.59" y="0">er </tspan><tspan class="cls-23" x="24.4" y="0">W</tspan><tspan x="31.62" y="0">ells</tspan></text><text class="cls-1" transform="translate(252.12 123.51)"><tspan x="0" y="0">C</tspan><tspan class="cls-6" x="5.15" y="0">r</tspan><tspan x="8.4" y="0">o</tspan><tspan class="cls-19" x="12.92" y="0">s</tspan><tspan x="17.13" y="0">s Se</tspan><tspan class="cls-5" x="32.57" y="0">c</tspan><tspan x="36.83" y="0">tions</tspan></text><text class="cls-1" transform="translate(420.94 123.51)"><tspan class="cls-6" x="0" y="0">L</tspan><tspan x="3.93" y="0">andscape D</tspan><tspan class="cls-19" x="46.69" y="0">a</tspan><tspan class="cls-22" x="51.04" y="0">t</tspan><tspan x="54.2" y="0">a</tspan></text></svg>