<?xml version="1.0" encoding="UTF-8"?>
<svg id="Layer_2" data-name="Layer 2" xmlns="http://www.w3.org/2000/svg" viewBox="0 0 560 188.17">
  <defs>
    <style>
      .cls-1 {
        letter-spacing: 0em;
      }

      .cls-2 {
        letter-spacing: 0em;
      }

      .cls-3 {
        fill: #dd7095;
      }

      .cls-4, .cls-5 {
        fill: #231f20;
      }

      .cls-6, .cls-7, .cls-8 {
        fill: #414042;
      }

      .cls-9 {
        fill: #1a5b74;
      }

      .cls-10 {
        fill: #32b4a5;
      }

      .cls-11 {
        letter-spacing: -.01em;
      }

      .cls-12 {
        fill: #e6e7e8;
        stroke: #a7a9ac;
      }

      .cls-12, .cls-13, .cls-14 {
        stroke-miterlimit: 10;
      }

      .cls-7 {
        font-size: 10px;
      }

      .cls-7, .cls-5 {
        font-family: Calibri-Light, Calibri;
      }

      .cls-15 {
        letter-spacing: -.01em;
      }

      .cls-13 {
        stroke: #414042;
      }

      .cls-13, .cls-14 {
        fill: none;
      }

      .cls-14 {
        stroke: #231f20;
      }

      .cls-16 {
        letter-spacing: -.04em;
      }

      .cls-5 {
        font-size: 9px;
      }

      .cls-17 {
        letter-spacing: 0em;
      }

      .cls-18 {
        letter-spacing: 0em;
      }

      .cls-19 {
        letter-spacing: -.02em;
      }

      .cls-8 {
        font-family: Calibri-Bold, Calibri;
        font-size: 12px;
      }

      .cls-20 {
        letter-spacing: -.01em;
      }

      .cls-21 {
        letter-spacing: 0em;
      }
    </style>
  </defs>
  <rect class="cls-12" x="100" y="70.42" width="30" height="30" rx="2" ry="2"/>
  <text class="cls-8" transform="translate(9.68 19.53)"><tspan x="0" y="0">D</tspan><tspan class="cls-1" x="7.56" y="0">a</tspan><tspan class="cls-18" x="13.38" y="0">t</tspan><tspan x="17.42" y="0">a Sou</tspan><tspan class="cls-15" x="44.62" y="0">r</tspan><tspan x="48.71" y="0">ces</tspan></text>
  <text class="cls-8" transform="translate(103.22 45.78)"><tspan x="0" y="0">Input Plan &amp; D</tspan><tspan class="cls-1" x="72.53" y="0">a</tspan><tspan class="cls-18" x="78.35" y="0">t</tspan><tspan x="82.39" y="0">a</tspan></text>
  <text class="cls-8" transform="translate(377.91 33.37)"><tspan x="0" y="0">Output D</tspan><tspan class="cls-1" x="46.03" y="0">a</tspan><tspan class="cls-18" x="51.84" y="0">t</tspan><tspan x="55.89" y="0">a &amp; </tspan><tspan x="-6.23" y="14.4">P</tspan><tspan class="cls-11" x=".16" y="14.4">r</tspan><tspan x="4.28" y="14.4">oduct D</tspan><tspan class="cls-2" x="43.07" y="14.4">e</tspan><tspan x="49.02" y="14.4">fi</tspan><tspan class="cls-1" x="55.67" y="14.4">nt</tspan><tspan x="62" y="14.4">ion</tspan></text>
  <text class="cls-8" transform="translate(240.2 17.56)"><tspan x="0" y="0">Ancilla</tspan><tspan class="cls-21" x="33.5" y="0">r</tspan><tspan x="37.82" y="0">y Inputs</tspan></text>
  <text class="cls-8" transform="translate(247.98 159.07)"><tspan x="0" y="0">E</tspan><tspan class="cls-15" x="5.85" y="0">n</tspan><tspan x="12.12" y="0">vi</tspan><tspan class="cls-11" x="20.75" y="0">r</tspan><tspan x="24.87" y="0">onme</tspan><tspan class="cls-1" x="53.56" y="0">n</tspan><tspan x="59.89" y="0">t</tspan></text>
  <text class="cls-8" transform="translate(506.55 19.54)"><tspan x="0" y="0">P</tspan><tspan class="cls-11" x="6.39" y="0">r</tspan><tspan x="10.51" y="0">oducts</tspan></text>
  <path id="database" class="cls-9" d="M194.22,103.05c.37,.47,.63,1.04,.63,1.68v2.78c0,5.06-9.81,8.33-25,8.33s-25-3.27-25-8.33v-2.78c0-.64,.26-1.21,.63-1.68,5.13,2.92,13.37,4.46,24.37,4.46s19.24-1.54,24.37-4.46Zm-24.37-9.43c-11,0-19.24-1.54-24.37-4.46-.37,.47-.63,1.04-.63,1.68v2.78c0,5.06,9.81,8.33,25,8.33s25-3.27,25-8.33v-2.78c0-.64-.26-1.21-.63-1.68-5.13,2.92-13.37,4.46-24.37,4.46Zm0-38.89c-15.19,0-25,3.27-25,8.33v2.78c0,5.06,9.81,8.33,25,8.33s25-3.27,25-8.33v-2.78c0-5.06-9.81-8.33-25-8.33Zm0,25c-11,0-19.24-1.54-24.37-4.46-.37,.47-.63,1.04-.63,1.68v2.78c0,5.06,9.81,8.33,25,8.33s25-3.27,25-8.33v-2.78c0-.64-.26-1.21-.63-1.68-5.13,2.92-13.37,4.46-24.37,4.46Z"/>
  <path id="database-2" data-name="database" class="cls-9" d="M414.37,103.05c.37,.47,.63,1.04,.63,1.68v2.78c0,5.06-9.81,8.33-25,8.33s-25-3.27-25-8.33v-2.78c0-.64,.26-1.21,.63-1.68,5.13,2.92,13.37,4.46,24.37,4.46s19.24-1.54,24.37-4.46Zm-24.37-9.43c-11,0-19.24-1.54-24.37-4.46-.37,.47-.63,1.04-.63,1.68v2.78c0,5.06,9.81,8.33,25,8.33s25-3.27,25-8.33v-2.78c0-.64-.26-1.21-.63-1.68-5.13,2.92-13.37,4.46-24.37,4.46Zm0-38.89c-15.19,0-25,3.27-25,8.33v2.78c0,5.06,9.81,8.33,25,8.33s25-3.27,25-8.33v-2.78c0-5.06-9.81-8.33-25-8.33Zm0,25c-11,0-19.24-1.54-24.37-4.46-.37,.47-.63,1.04-.63,1.68v2.78c0,5.06,9.81,8.33,25,8.33s25-3.27,25-8.33v-2.78c0-.64-.26-1.21-.63-1.68-5.13,2.92-13.37,4.46-24.37,4.46Z"/>
  <g>
    <text class="cls-7" transform="translate(104.65 96.35)"><tspan x="0" y="0">Code</tspan></text>
    <path id="code" class="cls-10" d="M119.25,74.25l-6.04,12.94c-.1,.22-.32,.36-.57,.36h-.99c-.23,0-.38-.24-.28-.44l6.04-12.94c.1-.22,.32-.36,.57-.36h.99c.23,0,.38,.24,.28,.44Zm5.59,5.63l-5-2.79c-.21-.12-.46,.03-.46,.27v1.43c0,.11,.06,.22,.16,.27l2.9,1.61-2.9,1.61c-.1,.06-.16,.16-.16,.27v1.43c0,.24,.26,.39,.46,.27l5-2.79c.09-.05,.16-.17,.16-.27v-1.06c0-.1-.07-.22-.16-.27Zm-14.68-2.79l-5,2.79c-.09,.05-.16,.17-.16,.27v1.06c0,.1,.07,.22,.16,.27l5,2.79c.21,.12,.46-.03,.46-.27v-1.43c0-.11-.06-.22-.16-.27l-2.9-1.61,2.9-1.61c.1-.06,.16-.16,.16-.27v-1.43c0-.24-.26-.39-.46-.27Z"/>
  </g>
  <g>
    <polyline class="cls-13" points="35 39.73 54.94 39.73 54.94 85.42 96.41 85.42"/>
    <polygon class="cls-6" points="95.68 87.92 100 85.42 95.68 82.93 95.68 87.92"/>
  </g>
  <polyline class="cls-13" points="35 131.08 54.94 131.08 54.94 85.42 35 85.42"/>
  <path id="file" class="cls-3" d="M105.7,127.46h9.12c.46,0,.83,.37,.83,.83v25.71c0,.92-.74,1.66-1.66,1.66h-28.2c-.92,0-1.66-.74-1.66-1.66v-36.5c0-.92,.74-1.66,1.66-1.66h17.42c.46,0,.83,.37,.83,.83v9.12c0,.92,.74,1.66,1.66,1.66Zm2.49-3.32h7.47l-8.29-8.29v7.47c0,.46,.37,.83,.83,.83Z"/>
  <rect class="cls-12" x="235" y="24.53" width="90" height="33.24" rx="2" ry="2"/>
  <text class="cls-5" transform="translate(82.44 166.33)"><tspan x="0" y="0">R</tspan><tspan class="cls-18" x="4.79" y="0">E</tspan><tspan x="9.1" y="0">ADME/</tspan><tspan x="-2.04" y="10.8">SUMMA</tspan><tspan class="cls-11" x="28.03" y="10.8">R</tspan><tspan x="32.71" y="10.8">Y</tspan></text>
  <path id="file-2" data-name="file" class="cls-3" d="M458.31,127.48h9.12c.46,0,.83,.37,.83,.83v25.71c0,.92-.74,1.66-1.66,1.66h-28.2c-.92,0-1.66-.74-1.66-1.66v-36.5c0-.92,.74-1.66,1.66-1.66h17.42c.46,0,.83,.37,.83,.83v9.12c0,.92,.74,1.66,1.66,1.66Zm2.49-3.32h7.47l-8.29-8.29v7.47c0,.46,.37,.83,.83,.83Z"/>
  <text class="cls-5" transform="translate(435.06 166.8)"><tspan class="cls-16" x="0" y="0">W</tspan><tspan x="7.53" y="0">orkfl</tspan><tspan class="cls-17" x="23.94" y="0">o</tspan><tspan x="28.59" y="0">w</tspan><tspan x="-7.29" y="10.8">O</tspan><tspan class="cls-20" x="-1.4" y="10.8">r</tspan><tspan x="1.57" y="10.8">che</tspan><tspan class="cls-11" x="14.52" y="10.8">s</tspan><tspan x="17.89" y="10.8">t</tspan><tspan class="cls-19" x="20.85" y="10.8">r</tspan><tspan class="cls-18" x="23.78" y="10.8">a</tspan><tspan x="27.93" y="10.8">tion</tspan></text>
  <g>
    <line class="cls-13" x1="130" y1="85.42" x2="141.41" y2="85.42"/>
    <polygon class="cls-6" points="140.68 87.92 145 85.42 140.68 82.93 140.68 87.92"/>
  </g>
  <path id="import" class="cls-10" d="M290,45.5v3.18c0,.44-.36,.8-.8,.8h-17.49c-.44,0-.8-.36-.8-.8v-3.18c0-.44,.36-.8,.8-.8h17.49c.44,0,.8,.36,.8,.8Zm-12.43-7.5l-1.45,1.45c-.46,.46-.21,1.24,.43,1.35l7.5,1.25c.54,.09,1-.38,.92-.92l-1.25-7.5c-.11-.64-.89-.89-1.35-.43l-1.47,1.47c-3.09-2.47-7.91-2.2-10.57-.6-.23,.14-.34,.4-.32,.67,.04,.38,.38,.67,.76,.63,3.71-.36,5.72,1.49,6.81,2.63Z"/>
  <rect class="cls-12" x="234.74" y="72.77" width="90.26" height="73.27" rx="2" ry="2"/>
  <path id="code-2" data-name="code" class="cls-10" d="M262.61,101.37l-7.55,16.18c-.13,.28-.4,.45-.71,.45h-1.23c-.29,0-.47-.3-.35-.56l7.55-16.18c.13-.28,.4-.45,.71-.45h1.23c.29,0,.47,.3,.35,.56Zm6.99,7.03l-6.25-3.48c-.26-.15-.58,.04-.58,.34v1.79c0,.14,.08,.27,.2,.34l3.62,2.02-3.62,2.02c-.12,.07-.2,.2-.2,.34v1.79c0,.3,.32,.49,.58,.34l6.25-3.48c.11-.06,.2-.22,.2-.34v-1.33c0-.13-.09-.28-.2-.34Zm-18.35-3.48l-6.25,3.48c-.11,.06-.2,.22-.2,.34v1.33c0,.13,.09,.28,.2,.34l6.25,3.48c.26,.15,.58-.04,.58-.34v-1.79c0-.14-.08-.27-.2-.34l-3.62-2.02,3.62-2.02c.12-.07,.2-.2,.2-.34v-1.79c0-.3-.32-.49-.58-.34Z"/>
  <g>
    <g id="rect812">
      <path class="cls-10" d="M313.34,121.95h-21.69c-.91,0-1.66-.75-1.66-1.66v-21.68c0-.92,.74-1.66,1.66-1.66h21.69c.91,0,1.66,.75,1.66,1.66v21.68c0,.92-.74,1.66-1.66,1.66Zm-21.69-23.55c-.11,0-.2,.09-.2,.21v21.68c0,.12,.09,.21,.2,.21h21.69c.11,0,.2-.09,.2-.21v-21.68c0-.12-.09-.21-.2-.21h-21.69Z"/>
    </g>
    <g id="path843">
      <path class="cls-10" d="M310.59,103.96c.22,0,.39-.09,.5-.28,.12-.19,.19-.41,.22-.66,.03-.25,.05-.5,.05-.73s-.02-.5-.05-.75c-.03-.25-.11-.47-.22-.65-.11-.19-.28-.28-.5-.28s-.39,.09-.51,.28c-.11,.19-.19,.4-.22,.65-.03,.25-.05,.5-.05,.75,0,.42,.05,.81,.15,1.16,.1,.35,.31,.52,.63,.52Zm0,.98c-.45,0-.82-.13-1.11-.4-.28-.27-.49-.6-.61-1-.12-.4-.18-.82-.18-1.26,0-.32,.03-.63,.1-.94,.07-.31,.17-.59,.32-.85,.15-.26,.35-.47,.59-.63,.25-.16,.54-.24,.89-.24s.64,.08,.89,.24c.24,.16,.44,.37,.59,.63,.15,.26,.26,.55,.32,.86,.07,.31,.1,.62,.1,.94s-.03,.63-.1,.94c-.07,.31-.17,.6-.32,.86-.15,.26-.34,.47-.59,.63-.25,.16-.54,.24-.89,.24Zm-4.11-.98c.22,0,.39-.09,.5-.28,.12-.19,.19-.41,.22-.66,.03-.25,.05-.5,.05-.73s-.02-.5-.05-.75c-.03-.25-.11-.47-.22-.65-.11-.19-.28-.28-.5-.28s-.39,.09-.51,.28c-.11,.19-.19,.4-.22,.65-.03,.25-.05,.5-.05,.75,0,.42,.05,.81,.15,1.16,.1,.35,.31,.52,.63,.52Zm0,.98c-.45,0-.82-.13-1.11-.4-.28-.27-.49-.6-.61-1-.12-.4-.18-.82-.18-1.26,0-.32,.03-.63,.1-.94,.07-.31,.17-.59,.32-.85,.15-.26,.35-.47,.59-.63,.25-.16,.54-.24,.89-.24s.64,.08,.88,.24c.25,.16,.44,.37,.59,.63,.15,.26,.26,.55,.32,.86,.07,.31,.1,.62,.1,.94s-.03,.63-.1,.94c-.07,.31-.17,.6-.32,.86-.15,.26-.34,.47-.59,.63-.25,.16-.54,.24-.88,.24Zm-3.62-.61v-3.63h-.42c-.16,0-.28-.05-.36-.14-.08-.1-.12-.21-.12-.35s.04-.25,.13-.35c.09-.1,.21-.15,.36-.15h1.02c.1,0,.19,.02,.26,.07,.07,.04,.13,.1,.16,.18,.04,.07,.06,.16,.06,.27v4.11c0,.18-.05,.32-.15,.42-.1,.1-.23,.15-.39,.15s-.29-.05-.39-.15c-.1-.1-.15-.24-.15-.42Zm-2.65,0v-3.63h-.42c-.16,0-.28-.05-.36-.14-.08-.1-.12-.21-.12-.35s.04-.25,.13-.35c.09-.1,.21-.15,.36-.15h1.02c.1,0,.19,.02,.26,.07,.07,.04,.13,.1,.16,.18,.04,.07,.06,.16,.06,.27v4.11c0,.18-.05,.32-.15,.42s-.23,.15-.39,.15-.29-.05-.39-.15c-.1-.1-.15-.24-.15-.42Zm-3.14-.37c.22,0,.39-.09,.5-.28,.12-.19,.19-.41,.22-.66,.03-.25,.05-.5,.05-.73s-.02-.5-.05-.75c-.03-.25-.11-.47-.22-.65-.11-.19-.28-.28-.5-.28s-.39,.09-.51,.28c-.11,.19-.19,.4-.22,.65-.03,.25-.05,.5-.05,.75,0,.42,.05,.81,.15,1.16,.1,.35,.31,.52,.63,.52Zm0,.98c-.45,0-.82-.13-1.11-.4-.28-.27-.49-.6-.61-1-.12-.4-.18-.82-.18-1.26,0-.32,.03-.63,.1-.94,.07-.31,.17-.59,.32-.85,.15-.26,.35-.47,.59-.63,.25-.16,.54-.24,.89-.24s.64,.08,.89,.24c.24,.16,.44,.37,.59,.63,.15,.26,.26,.55,.32,.86,.07,.31,.1,.62,.1,.94s-.03,.63-.1,.94c-.07,.31-.17,.6-.32,.86-.15,.26-.34,.47-.59,.63s-.54,.24-.89,.24Zm-3.62-.61v-3.63h-.42c-.16,0-.28-.05-.36-.14-.08-.1-.12-.21-.12-.35s.04-.25,.13-.35c.09-.1,.21-.15,.36-.15h1.02c.1,0,.19,.02,.26,.07,.07,.04,.13,.1,.16,.18,.04,.07,.06,.16,.06,.27v4.11c0,.18-.05,.32-.15,.42-.1,.1-.23,.15-.39,.15s-.29-.05-.39-.15c-.1-.1-.15-.24-.15-.42Zm17.15,6.79c.22,0,.39-.09,.5-.28,.12-.19,.19-.41,.22-.66,.03-.25,.05-.5,.05-.73s-.02-.5-.05-.74c-.03-.25-.11-.47-.22-.65-.11-.19-.28-.28-.5-.28s-.39,.09-.51,.28c-.11,.19-.19,.4-.22,.65-.03,.25-.05,.5-.05,.74,0,.42,.05,.81,.15,1.16,.1,.35,.31,.52,.63,.52Zm0,.98c-.45,0-.82-.13-1.11-.4-.28-.27-.49-.6-.61-1-.12-.4-.18-.82-.18-1.26,0-.32,.03-.63,.1-.94,.07-.31,.17-.59,.32-.85,.15-.26,.35-.47,.59-.63,.25-.16,.54-.24,.89-.24s.64,.08,.89,.24c.24,.16,.44,.36,.59,.63,.15,.26,.26,.55,.32,.86,.07,.31,.1,.62,.1,.94s-.03,.63-.1,.94c-.07,.31-.17,.6-.32,.86-.15,.26-.34,.47-.59,.63-.25,.16-.54,.24-.89,.24Zm-3.62-.61v-3.63h-.42c-.16,0-.28-.05-.36-.14-.08-.1-.12-.21-.12-.35s.04-.25,.13-.35c.09-.1,.21-.15,.36-.15h1.02c.1,0,.19,.02,.26,.07,.07,.04,.13,.11,.16,.18,.04,.07,.06,.16,.06,.27v4.11c0,.18-.05,.32-.15,.42-.1,.1-.23,.15-.39,.15s-.29-.05-.39-.15-.15-.24-.15-.42Zm-2.65,0v-3.63h-.42c-.16,0-.28-.05-.36-.14-.08-.1-.12-.21-.12-.35s.04-.25,.13-.35c.09-.1,.21-.15,.36-.15h1.02c.1,0,.19,.02,.26,.07,.07,.04,.13,.11,.16,.18,.04,.07,.06,.16,.06,.27v4.11c0,.18-.05,.32-.15,.42-.1,.1-.23,.15-.39,.15s-.29-.05-.39-.15-.15-.24-.15-.42Zm-3.14-.37c.22,0,.39-.09,.5-.28,.12-.19,.19-.41,.22-.66,.03-.25,.05-.5,.05-.73s-.02-.5-.05-.74c-.03-.25-.11-.47-.22-.65-.11-.19-.28-.28-.5-.28s-.39,.09-.51,.28c-.11,.19-.19,.4-.22,.65-.03,.25-.05,.5-.05,.74,0,.42,.05,.81,.15,1.16,.1,.35,.31,.52,.63,.52Zm0,.98c-.45,0-.82-.13-1.11-.4-.28-.27-.49-.6-.61-1-.12-.4-.18-.82-.18-1.26,0-.32,.03-.63,.1-.94,.07-.31,.17-.59,.32-.85,.15-.26,.35-.47,.59-.63,.25-.16,.54-.24,.89-.24s.64,.08,.88,.24c.25,.16,.44,.36,.59,.63,.15,.26,.26,.55,.32,.86,.07,.31,.1,.62,.1,.94s-.03,.63-.1,.94c-.07,.31-.17,.6-.32,.86-.15,.26-.34,.47-.59,.63-.25,.16-.54,.24-.88,.24Zm-3.62-.61v-3.63h-.42c-.16,0-.28-.05-.36-.14-.08-.1-.12-.21-.12-.35s.04-.25,.13-.35c.09-.1,.21-.15,.36-.15h1.02c.1,0,.19,.02,.26,.07,.07,.04,.13,.11,.16,.18,.04,.07,.06,.16,.06,.27v4.11c0,.18-.05,.32-.15,.42-.1,.1-.23,.15-.39,.15s-.29-.05-.39-.15c-.1-.1-.15-.24-.15-.42Zm-3.14-.37c.22,0,.39-.09,.5-.28,.12-.19,.19-.41,.22-.66,.03-.25,.05-.5,.05-.73s-.02-.5-.05-.74c-.03-.25-.11-.47-.22-.65-.11-.19-.28-.28-.5-.28s-.39,.09-.51,.28c-.11,.19-.19,.4-.22,.65-.03,.25-.05,.5-.05,.74,0,.42,.05,.81,.15,1.16,.1,.35,.31,.52,.63,.52Zm0,.98c-.45,0-.82-.13-1.11-.4-.28-.27-.49-.6-.61-1-.12-.4-.18-.82-.18-1.26,0-.32,.03-.63,.1-.94,.07-.31,.17-.59,.32-.85,.15-.26,.35-.47,.59-.63,.25-.16,.54-.24,.89-.24s.64,.08,.89,.24c.24,.16,.44,.36,.59,.63,.15,.26,.26,.55,.32,.86,.07,.31,.1,.62,.1,.94s-.03,.63-.1,.94c-.07,.31-.17,.6-.32,.86-.15,.26-.34,.47-.59,.63s-.54,.24-.89,.24Zm16.67,6.55v-3.63h-.42c-.16,0-.28-.05-.36-.14-.08-.1-.12-.21-.12-.35s.04-.25,.13-.35c.09-.1,.21-.15,.36-.15h1.02c.1,0,.19,.02,.26,.07,.07,.04,.13,.1,.16,.18,.04,.07,.06,.16,.06,.27v4.11c0,.18-.05,.32-.15,.42-.1,.1-.23,.15-.39,.15s-.29-.05-.39-.15c-.1-.1-.15-.24-.15-.42Zm-3.14-.37c.22,0,.39-.09,.5-.28,.12-.19,.19-.41,.22-.66,.03-.25,.05-.5,.05-.73s-.02-.5-.05-.75c-.03-.25-.11-.47-.22-.65-.11-.19-.28-.28-.5-.28s-.39,.09-.51,.28c-.11,.19-.19,.4-.22,.65-.03,.25-.05,.5-.05,.75,0,.42,.05,.81,.15,1.16,.1,.35,.31,.52,.63,.52Zm0,.98c-.45,0-.82-.13-1.11-.4-.28-.27-.49-.6-.61-1-.12-.4-.18-.82-.18-1.26,0-.32,.03-.63,.1-.94,.07-.31,.17-.59,.32-.85,.15-.26,.35-.47,.59-.63,.25-.16,.54-.24,.89-.24s.64,.08,.89,.24c.24,.16,.44,.37,.59,.63,.15,.26,.26,.55,.32,.86,.07,.31,.1,.62,.1,.94s-.03,.63-.1,.94c-.07,.31-.17,.6-.32,.86-.15,.26-.34,.47-.59,.63-.25,.16-.54,.24-.89,.24Zm-3.62-.61v-3.63h-.42c-.16,0-.28-.05-.36-.14-.08-.1-.12-.21-.12-.35s.04-.25,.13-.35c.09-.1,.21-.15,.36-.15h1.02c.1,0,.19,.02,.26,.07,.07,.04,.13,.1,.16,.18,.04,.07,.06,.16,.06,.27v4.11c0,.18-.05,.32-.15,.42-.1,.1-.23,.15-.39,.15s-.29-.05-.39-.15c-.1-.1-.15-.24-.15-.42Zm-3.14-.37c.22,0,.39-.09,.5-.28,.12-.19,.19-.41,.22-.66,.03-.25,.05-.5,.05-.73s-.02-.5-.05-.75c-.03-.25-.11-.47-.22-.65-.11-.19-.28-.28-.5-.28s-.39,.09-.51,.28c-.11,.19-.19,.4-.22,.65-.03,.25-.05,.5-.05,.75,0,.42,.05,.81,.15,1.16,.1,.35,.31,.52,.63,.52Zm0,.98c-.45,0-.82-.13-1.11-.4-.28-.27-.49-.6-.61-1-.12-.4-.18-.82-.18-1.26,0-.32,.03-.63,.1-.94,.07-.31,.17-.59,.32-.85,.15-.26,.35-.47,.59-.63,.25-.16,.54-.24,.89-.24s.64,.08,.88,.24c.25,.16,.44,.37,.59,.63,.15,.26,.26,.55,.32,.86,.07,.31,.1,.62,.1,.94s-.03,.63-.1,.94c-.07,.31-.17,.6-.32,.86-.15,.26-.34,.47-.59,.63-.25,.16-.54,.24-.88,.24Zm-4.11-.98c.22,0,.39-.09,.5-.28,.12-.19,.19-.41,.22-.66,.03-.25,.05-.5,.05-.73s-.02-.5-.05-.75c-.03-.25-.11-.47-.22-.65-.11-.19-.28-.28-.5-.28s-.39,.09-.51,.28c-.11,.19-.19,.4-.22,.65-.03,.25-.05,.5-.05,.75,0,.42,.05,.81,.15,1.16,.1,.35,.31,.52,.63,.52Zm0,.98c-.45,0-.82-.13-1.11-.4-.28-.27-.49-.6-.61-1-.12-.4-.18-.82-.18-1.26,0-.32,.03-.63,.1-.94,.07-.31,.17-.59,.32-.85,.15-.26,.35-.47,.59-.63,.25-.16,.54-.24,.89-.24s.64,.08,.89,.24c.24,.16,.44,.37,.59,.63,.15,.26,.26,.55,.32,.86,.07,.31,.1,.62,.1,.94s-.03,.63-.1,.94c-.07,.31-.17,.6-.32,.86-.15,.26-.34,.47-.59,.63s-.54,.24-.89,.24Zm-3.62-.61v-3.63h-.42c-.16,0-.28-.05-.36-.14-.08-.1-.12-.21-.12-.35s.04-.25,.13-.35c.09-.1,.21-.15,.36-.15h1.02c.1,0,.19,.02,.26,.07,.07,.04,.13,.1,.16,.18,.04,.07,.06,.16,.06,.27v4.11c0,.18-.05,.32-.15,.42-.1,.1-.23,.15-.39,.15s-.29-.05-.39-.15c-.1-.1-.15-.24-.15-.42Z"/>
    </g>
  </g>
  <path id="dishwasher" class="cls-9" d="M548.96,24.51h-22.92c-.58,0-1.04,.47-1.04,1.04v22.92c0,.58,.47,1.04,1.04,1.04h22.92c.58,0,1.04-.47,1.04-1.04V25.55c0-.58-.47-1.04-1.04-1.04Zm-2.08,20.83c0,.58-.47,1.04-1.04,1.04h-16.67c-.58,0-1.04-.47-1.04-1.04v-13.54c0-.58,.47-1.04,1.04-1.04h16.67c.58,0,1.04,.47,1.04,1.04v13.54Zm1.04-17.19c0,.29-.23,.52-.52,.52h-2.08c-.29,0-.52-.23-.52-.52v-1.04c0-.29,.23-.52,.52-.52h2.08c.29,0,.52,.23,.52,.52v1.04Z"/>
  <path id="dishwasher-2" data-name="dishwasher" class="cls-9" d="M548.96,121.33h-22.92c-.58,0-1.04,.47-1.04,1.04v22.92c0,.58,.47,1.04,1.04,1.04h22.92c.58,0,1.04-.47,1.04-1.04v-22.92c0-.58-.47-1.04-1.04-1.04Zm-2.08,20.83c0,.58-.47,1.04-1.04,1.04h-16.67c-.58,0-1.04-.47-1.04-1.04v-13.54c0-.58,.47-1.04,1.04-1.04h16.67c.58,0,1.04,.47,1.04,1.04v13.54Zm1.04-17.19c0,.29-.23,.52-.52,.52h-2.08c-.29,0-.52-.23-.52-.52v-1.04c0-.29,.23-.52,.52-.52h2.08c.29,0,.52,.23,.52,.52v1.04Z"/>
  <path id="dishwasher-3" data-name="dishwasher" class="cls-9" d="M548.96,72.92h-22.92c-.58,0-1.04,.47-1.04,1.04v22.92c0,.58,.47,1.04,1.04,1.04h22.92c.58,0,1.04-.47,1.04-1.04v-22.92c0-.58-.47-1.04-1.04-1.04Zm-2.08,20.83c0,.58-.47,1.04-1.04,1.04h-16.67c-.58,0-1.04-.47-1.04-1.04v-13.54c0-.58,.47-1.04,1.04-1.04h16.67c.58,0,1.04,.47,1.04,1.04v13.54Zm1.04-17.19c0,.29-.23,.52-.52,.52h-2.08c-.29,0-.52-.23-.52-.52v-1.04c0-.29,.23-.52,.52-.52h2.08c.29,0,.52,.23,.52,.52v1.04Z"/>
  <g>
    <polyline class="cls-13" points="194.85 85.42 214.75 85.42 214.75 39.73 231.41 39.73"/>
    <polygon class="cls-6" points="230.68 42.23 235 39.73 230.68 37.24 230.68 42.23"/>
  </g>
  <g>
    <polyline class="cls-13" points="214.75 85.42 214.75 109.45 231.41 109.45"/>
    <polygon class="cls-6" points="230.68 111.94 235 109.45 230.68 106.96 230.68 111.94"/>
  </g>
  <g>
    <line class="cls-14" x1="280" y1="57.77" x2="280" y2="69.19"/>
    <polygon class="cls-4" points="277.51 68.46 280 72.77 282.49 68.46 277.51 68.46"/>
  </g>
  <g>
    <polyline class="cls-13" points="325 109.31 346.1 109.31 346.1 85.29 361.41 85.29"/>
    <polygon class="cls-6" points="360.68 87.78 365 85.29 360.68 82.79 360.68 87.78"/>
  </g>
  <g>
    <line class="cls-13" x1="415" y1="85.42" x2="425.85" y2="85.42"/>
    <polygon class="cls-6" points="425.12 87.92 429.44 85.42 425.12 82.93 425.12 87.92"/>
  </g>
  <g>
    <polyline class="cls-13" points="521.41 39.45 490 39.45 490 85.42 490 134.06 521.41 134.06"/>
    <polygon class="cls-6" points="520.68 36.96 525 39.45 520.68 41.95 520.68 36.96"/>
    <polygon class="cls-6" points="520.68 136.55 525 134.06 520.68 131.57 520.68 136.55"/>
  </g>
  <g>
    <line class="cls-13" x1="459.97" y1="85.42" x2="521.41" y2="85.42"/>
    <polygon class="cls-6" points="520.68 87.92 525 85.42 520.68 82.93 520.68 87.92"/>
  </g>
  <rect class="cls-12" x="429.97" y="70.42" width="30" height="30" rx="2" ry="2"/>
  <g>
    <text class="cls-7" transform="translate(434.61 96.35)"><tspan x="0" y="0">Code</tspan></text>
    <path id="code-3" data-name="code" class="cls-10" d="M449.21,74.25l-6.04,12.94c-.1,.22-.32,.36-.57,.36h-.99c-.23,0-.38-.24-.28-.44l6.04-12.94c.1-.22,.32-.36,.57-.36h.99c.23,0,.38,.24,.28,.44Zm5.59,5.63l-5-2.79c-.21-.12-.46,.03-.46,.27v1.43c0,.11,.06,.22,.16,.27l2.9,1.61-2.9,1.61c-.1,.06-.16,.16-.16,.27v1.43c0,.24,.26,.39,.46,.27l5-2.79c.09-.05,.16-.17,.16-.27v-1.06c0-.1-.07-.22-.16-.27Zm-14.68-2.79l-5,2.79c-.09,.05-.16,.17-.16,.27v1.06c0,.1,.07,.22,.16,.27l5,2.79c.21,.12,.46-.03,.46-.27v-1.43c0-.11-.06-.22-.16-.27l-2.9-1.61,2.9-1.61c.1-.06,.16-.16,.16-.27v-1.43c0-.24-.26-.39-.46-.27Z"/>
  </g>
  <path id="dishwasher-4" data-name="dishwasher" class="cls-9" d="M33.96,27.23H11.04c-.58,0-1.04,.47-1.04,1.04v22.92c0,.58,.47,1.04,1.04,1.04h22.92c.58,0,1.04-.47,1.04-1.04V28.28c0-.58-.47-1.04-1.04-1.04Zm-2.08,20.83c0,.58-.47,1.04-1.04,1.04H14.17c-.58,0-1.04-.47-1.04-1.04v-13.54c0-.58,.47-1.04,1.04-1.04H30.83c.58,0,1.04,.47,1.04,1.04v13.54Zm1.04-17.19c0,.29-.23,.52-.52,.52h-2.08c-.29,0-.52-.23-.52-.52v-1.04c0-.29,.23-.52,.52-.52h2.08c.29,0,.52,.23,.52,.52v1.04Z"/>
  <path id="dishwasher-5" data-name="dishwasher" class="cls-9" d="M33.96,72.92H11.04c-.58,0-1.04,.47-1.04,1.04v22.92c0,.58,.47,1.04,1.04,1.04h22.92c.58,0,1.04-.47,1.04-1.04v-22.92c0-.58-.47-1.04-1.04-1.04Zm-2.08,20.83c0,.58-.47,1.04-1.04,1.04H14.17c-.58,0-1.04-.47-1.04-1.04v-13.54c0-.58,.47-1.04,1.04-1.04H30.83c.58,0,1.04,.47,1.04,1.04v13.54Zm1.04-17.19c0,.29-.23,.52-.52,.52h-2.08c-.29,0-.52-.23-.52-.52v-1.04c0-.29,.23-.52,.52-.52h2.08c.29,0,.52,.23,.52,.52v1.04Z"/>
  <path id="dishwasher-6" data-name="dishwasher" class="cls-9" d="M33.96,118.58H11.04c-.58,0-1.04,.47-1.04,1.04v22.92c0,.58,.47,1.04,1.04,1.04h22.92c.58,0,1.04-.47,1.04-1.04v-22.92c0-.58-.47-1.04-1.04-1.04Zm-2.08,20.83c0,.58-.47,1.04-1.04,1.04H14.17c-.58,0-1.04-.47-1.04-1.04v-13.54c0-.58,.47-1.04,1.04-1.04H30.83c.58,0,1.04,.47,1.04,1.04v13.54Zm1.04-17.19c0,.29-.23,.52-.52,.52h-2.08c-.29,0-.52-.23-.52-.52v-1.04c0-.29,.23-.52,.52-.52h2.08c.29,0,.52,.23,.52,.52v1.04Z"/>
</svg>