<?xml version="1.0" encoding="UTF-8"?><svg id="Layer_2" xmlns="http://www.w3.org/2000/svg" viewBox="0 0 612 792"><defs><style>.cls-1{letter-spacing:0em;}.cls-2{letter-spacing:0em;}.cls-3,.cls-4{fill:#fff;}.cls-5{fill:#dd7095;}.cls-6,.cls-7,.cls-8{fill:#414042;}.cls-9{fill:#1a5b74;}.cls-10{fill:#32b4a5;}.cls-11{letter-spacing:0em;}.cls-12{letter-spacing:-.01em;}.cls-13{fill:#e6e7e8;stroke:#a7a9ac;}.cls-13,.cls-14{stroke-miterlimit:10;}.cls-7{font-family:Calibri-Light, Calibri;font-weight:300;}.cls-7,.cls-8,.cls-4{font-size:12px;}.cls-15{letter-spacing:-.01em;}.cls-14{fill:none;stroke:#414042;}.cls-8{font-family:Calibri-Bold, Calibri;font-weight:700;}.cls-16{letter-spacing:0em;}.cls-17{letter-spacing:0em;}.cls-18{letter-spacing:-.02em;}.cls-4{font-family:Calibri, Calibri;}.cls-19{letter-spacing:-.01em;}.cls-20{letter-spacing:0em;}</style></defs><path class="cls-13" d="M201,524.52H41c-2.76,0-5-2.24-5-5v-164.39c0-2.76,2.24-5,5-5H201c2.76,0,5,2.24,5,5v164.39c0,2.76-2.24,5-5,5Z"/><rect class="cls-10" x="103.48" y="360.12" width="40.65" height="107.82" rx="5" ry="5"/><rect class="cls-13" x="406" y="350.12" width="170" height="174.4" rx="5" ry="5"/><rect class="cls-13" x="221" y="350.12" width="170" height="174.4" rx="5" ry="5"/><text class="cls-8" transform="translate(53.35 340.12)"><tspan x="0" y="0">Input D</tspan><tspan class="cls-1" x="36.96" y="0">a</tspan><tspan class="cls-17" x="42.77" y="0">t</tspan><tspan x="46.81" y="0">a &amp; </tspan><tspan class="cls-19" x="66.62" y="0">R</tspan><tspan class="cls-11" x="73.2" y="0">e</tspan><tspan x="79.15" y="0">tri</tspan><tspan class="cls-16" x="90.53" y="0">e</tspan><tspan class="cls-19" x="96.51" y="0">v</tspan><tspan x="102.01" y="0">al Plan</tspan></text><text class="cls-8" transform="translate(256.44 340.12)"><tspan x="0" y="0">Model E</tspan><tspan class="cls-15" x="40.93" y="0">n</tspan><tspan x="47.2" y="0">vi</tspan><tspan class="cls-12" x="55.83" y="0">r</tspan><tspan x="59.95" y="0">onme</tspan><tspan class="cls-1" x="88.64" y="0">n</tspan><tspan x="94.97" y="0">t</tspan></text><text class="cls-8" transform="translate(407.55 340.12)"><tspan x="0" y="0">Output D</tspan><tspan class="cls-1" x="46.03" y="0">a</tspan><tspan class="cls-17" x="51.84" y="0">t</tspan><tspan x="55.89" y="0">a &amp; P</tspan><tspan class="cls-12" x="82.08" y="0">r</tspan><tspan x="86.2" y="0">oduct D</tspan><tspan class="cls-2" x="124.99" y="0">e</tspan><tspan x="130.94" y="0">finition</tspan></text><path id="database" class="cls-9" d="M77.26,377.52c.13,.17,.23,.37,.23,.61v1c0,1.82-3.53,3-9,3s-9-1.18-9-3v-1c0-.23,.09-.44,.23-.61,1.85,1.05,4.81,1.61,8.77,1.61s6.93-.56,8.77-1.61Zm-8.77-3.39c-3.96,0-6.93-.56-8.77-1.61-.13,.17-.23,.37-.23,.61v1c0,1.82,3.53,3,9,3s9-1.18,9-3v-1c0-.23-.09-.44-.23-.61-1.85,1.05-4.81,1.61-8.77,1.61Zm0-14c-5.47,0-9,1.18-9,3v1c0,1.82,3.53,3,9,3s9-1.18,9-3v-1c0-1.82-3.53-3-9-3Zm0,9c-3.96,0-6.93-.56-8.77-1.61-.13,.17-.23,.37-.23,.61v1c0,1.82,3.53,3,9,3s9-1.18,9-3v-1c0-.23-.09-.44-.23-.61-1.85,1.05-4.81,1.61-8.77,1.61Z"/><path id="database-2" class="cls-9" d="M77.26,420.43c.13,.17,.23,.37,.23,.61v1c0,1.82-3.53,3-9,3s-9-1.18-9-3v-1c0-.23,.09-.44,.23-.61,1.85,1.05,4.81,1.61,8.77,1.61s6.93-.56,8.77-1.61Zm-8.77-3.39c-3.96,0-6.93-.56-8.77-1.61-.13,.17-.23,.37-.23,.61v1c0,1.82,3.53,3,9,3s9-1.18,9-3v-1c0-.23-.09-.44-.23-.61-1.85,1.05-4.81,1.61-8.77,1.61Zm0-14c-5.47,0-9,1.18-9,3v1c0,1.82,3.53,3,9,3s9-1.18,9-3v-1c0-1.82-3.53-3-9-3Zm0,9c-3.96,0-6.93-.56-8.77-1.61-.13,.17-.23,.37-.23,.61v1c0,1.82,3.53,3,9,3s9-1.18,9-3v-1c0-.23-.09-.44-.23-.61-1.85,1.05-4.81,1.61-8.77,1.61Z"/><path id="database-3" class="cls-9" d="M192.14,420.43c.13,.17,.23,.37,.23,.61v1c0,1.82-3.53,3-9,3s-9-1.18-9-3v-1c0-.23,.09-.44,.23-.61,1.85,1.05,4.81,1.61,8.77,1.61s6.93-.56,8.77-1.61Zm-8.77-3.39c-3.96,0-6.93-.56-8.77-1.61-.13,.17-.23,.37-.23,.61v1c0,1.82,3.53,3,9,3s9-1.18,9-3v-1c0-.23-.09-.44-.23-.61-1.85,1.05-4.81,1.61-8.77,1.61Zm0-14c-5.47,0-9,1.18-9,3v1c0,1.82,3.53,3,9,3s9-1.18,9-3v-1c0-1.82-3.53-3-9-3Zm0,9c-3.96,0-6.93-.56-8.77-1.61-.13,.17-.23,.37-.23,.61v1c0,1.82,3.53,3,9,3s9-1.18,9-3v-1c0-.23-.09-.44-.23-.61-1.85,1.05-4.81,1.61-8.77,1.61Z"/><path id="database-4" class="cls-9" d="M77.26,463.33c.13,.17,.23,.37,.23,.61v1c0,1.82-3.53,3-9,3s-9-1.18-9-3v-1c0-.23,.09-.44,.23-.61,1.85,1.05,4.81,1.61,8.77,1.61s6.93-.56,8.77-1.61Zm-8.77-3.39c-3.96,0-6.93-.56-8.77-1.61-.13,.17-.23,.37-.23,.61v1c0,1.82,3.53,3,9,3s9-1.18,9-3v-1c0-.23-.09-.44-.23-.61-1.85,1.05-4.81,1.61-8.77,1.61Zm0-14c-5.47,0-9,1.18-9,3v1c0,1.82,3.53,3,9,3s9-1.18,9-3v-1c0-1.82-3.53-3-9-3Zm0,9c-3.96,0-6.93-.56-8.77-1.61-.13,.17-.23,.37-.23,.61v1c0,1.82,3.53,3,9,3s9-1.18,9-3v-1c0-.23-.09-.44-.23-.61-1.85,1.05-4.81,1.61-8.77,1.61Z"/><path id="code" class="cls-3" d="M128.9,399.64l-7.55,16.18c-.13,.28-.4,.45-.71,.45h-1.23c-.29,0-.47-.3-.35-.56l7.55-16.18c.13-.28,.4-.45,.71-.45h1.23c.29,0,.47,.3,.35,.56Zm6.99,7.03l-6.25-3.48c-.26-.15-.58,.04-.58,.34v1.79c0,.14,.08,.27,.2,.34l3.62,2.02-3.62,2.02c-.12,.07-.2,.2-.2,.34v1.79c0,.3,.32,.49,.58,.34l6.25-3.48c.11-.06,.2-.22,.2-.34v-1.33c0-.13-.09-.28-.2-.34Zm-18.35-3.48l-6.25,3.48c-.11,.06-.2,.22-.2,.34v1.33c0,.13,.09,.28,.2,.34l6.25,3.48c.26,.15,.58-.04,.58-.34v-1.79c0-.14-.08-.27-.2-.34l-3.62-2.02,3.62-2.02c.12-.07,.2-.2,.2-.34v-1.79c0-.3-.32-.49-.58-.34Z"/><path id="code-2" class="cls-10" d="M248.81,397.97l-7.55,16.18c-.13,.28-.4,.45-.71,.45h-1.23c-.29,0-.47-.3-.35-.56l7.55-16.18c.13-.28,.4-.45,.71-.45h1.23c.29,0,.47,.3,.35,.56Zm6.99,7.03l-6.25-3.48c-.26-.15-.58,.04-.58,.34v1.79c0,.14,.08,.27,.2,.34l3.62,2.02-3.62,2.02c-.12,.07-.2,.2-.2,.34v1.79c0,.3,.32,.49,.58,.34l6.25-3.48c.11-.06,.2-.22,.2-.34v-1.33c0-.13-.09-.28-.2-.34Zm-18.35-3.48l-6.25,3.48c-.11,.06-.2,.22-.2,.34v1.33c0,.13,.09,.28,.2,.34l6.25,3.48c.26,.15,.58-.04,.58-.34v-1.79c0-.14-.08-.27-.2-.34l-3.62-2.02,3.62-2.02c.12-.07,.2-.2,.2-.34v-1.79c0-.3-.32-.49-.58-.34Z"/><path id="code-3" class="cls-10" d="M312.04,397.43l-7.55,16.18c-.13,.28-.4,.45-.71,.45h-1.23c-.29,0-.47-.3-.35-.56l7.55-16.18c.13-.28,.4-.45,.71-.45h1.23c.29,0,.47,.3,.35,.56Zm6.99,7.03l-6.25-3.48c-.26-.15-.58,.04-.58,.34v1.79c0,.14,.08,.27,.2,.34l3.62,2.02-3.62,2.02c-.12,.07-.2,.2-.2,.34v1.79c0,.3,.32,.49,.58,.34l6.25-3.48c.11-.06,.2-.22,.2-.34v-1.33c0-.13-.09-.28-.2-.34Zm-18.35-3.48l-6.25,3.48c-.11,.06-.2,.22-.2,.34v1.33c0,.13,.09,.28,.2,.34l6.25,3.48c.26,.15,.58-.04,.58-.34v-1.79c0-.14-.08-.27-.2-.34l-3.62-2.02,3.62-2.02c.12-.07,.2-.2,.2-.34v-1.79c0-.3-.32-.49-.58-.34Z"/><path id="file" class="cls-5" d="M127.3,484.94h5.5c.28,0,.5,.22,.5,.5v15.5c0,.55-.45,1-1,1h-17c-.55,0-1-.45-1-1v-22c0-.55,.45-1,1-1h10.5c.28,0,.5,.22,.5,.5v5.5c0,.55,.45,1,1,1Zm1.5-2h4.5l-5-5v4.5c0,.28,.22,.5,.5,.5Z"/><text class="cls-4" transform="translate(111.09 429.78)"><tspan x="0" y="0">Code</tspan></text><rect class="cls-10" x="469.08" y="360.12" width="40.65" height="107.82" rx="5" ry="5"/><path id="code-4" class="cls-3" d="M494.5,399.64l-7.55,16.18c-.13,.28-.4,.45-.71,.45h-1.23c-.29,0-.47-.3-.35-.56l7.55-16.18c.13-.28,.4-.45,.71-.45h1.23c.29,0,.47,.3,.35,.56Zm6.99,7.03l-6.25-3.48c-.26-.15-.58,.04-.58,.34v1.79c0,.14,.08,.27,.2,.34l3.62,2.02-3.62,2.02c-.12,.07-.2,.2-.2,.34v1.79c0,.3,.32,.49,.58,.34l6.25-3.48c.11-.06,.2-.22,.2-.34v-1.33c0-.13-.09-.28-.2-.34Zm-18.35-3.48l-6.25,3.48c-.11,.06-.2,.22-.2,.34v1.33c0,.13,.09,.28,.2,.34l6.25,3.48c.26,.15,.58-.04,.58-.34v-1.79c0-.14-.08-.27-.2-.34l-3.62-2.02,3.62-2.02c.12-.07,.2-.2,.2-.34v-1.79c0-.3-.32-.49-.58-.34Z"/><text class="cls-4" transform="translate(476.69 429.78)"><tspan x="0" y="0">Code</tspan></text><text class="cls-7" transform="translate(231.08 427.32)"><tspan x="0" y="0">Code</tspan></text><text class="cls-7" transform="translate(287.02 427.32)"><tspan x="0" y="0">I</tspan><tspan class="cls-16" x="2.93" y="0">n</tspan><tspan x="9.11" y="0">f</tspan><tspan class="cls-18" x="12.69" y="0">r</tspan><tspan x="16.59" y="0">a as </tspan><tspan x="6.56" y="14.4">Code</tspan></text><text class="cls-7" transform="translate(349.07 426.67)"><tspan x="0" y="0">Model </tspan><tspan x="1.74" y="14.4">Bina</tspan><tspan class="cls-20" x="22.69" y="14.4">r</tspan><tspan x="26.89" y="14.4">y</tspan></text><text class="cls-7" transform="translate(86.45 514.52)"><tspan x="0" y="0">Docume</tspan><tspan class="cls-17" x="40.3" y="0">n</tspan><tspan class="cls-19" x="46.42" y="0">t</tspan><tspan class="cls-17" x="50.19" y="0">a</tspan><tspan x="55.72" y="0">tion</tspan></text><path id="file-2" class="cls-5" d="M309.51,484.99h5.5c.28,0,.5,.22,.5,.5v15.5c0,.55-.45,1-1,1h-17c-.55,0-1-.45-1-1v-22c0-.55,.45-1,1-1h10.5c.28,0,.5,.22,.5,.5v5.5c0,.55,.45,1,1,1Zm1.5-2h4.5l-5-5v4.5c0,.28,.22,.5,.5,.5Z"/><text class="cls-7" transform="translate(268.66 514.57)"><tspan x="0" y="0">Docume</tspan><tspan class="cls-17" x="40.3" y="0">n</tspan><tspan class="cls-19" x="46.42" y="0">t</tspan><tspan class="cls-17" x="50.19" y="0">a</tspan><tspan x="55.72" y="0">tion</tspan></text><path id="file-3" class="cls-5" d="M492.91,484.94h5.5c.28,0,.5,.22,.5,.5v15.5c0,.55-.45,1-1,1h-17c-.55,0-1-.45-1-1v-22c0-.55,.45-1,1-1h10.5c.28,0,.5,.22,.5,.5v5.5c0,.55,.45,1,1,1Zm1.5-2h4.5l-5-5v4.5c0,.28,.22,.5,.5,.5Z"/><text class="cls-7" transform="translate(452.06 514.52)"><tspan x="0" y="0">Docume</tspan><tspan class="cls-17" x="40.3" y="0">n</tspan><tspan class="cls-19" x="46.42" y="0">t</tspan><tspan class="cls-17" x="50.19" y="0">a</tspan><tspan x="55.72" y="0">tion</tspan></text><text class="cls-7" transform="translate(54.39 445.94) rotate(-90)"><tspan x="0" y="0">D</tspan><tspan class="cls-17" x="7.28" y="0">a</tspan><tspan class="cls-19" x="12.81" y="0">t</tspan><tspan x="16.58" y="0">a Sou</tspan><tspan class="cls-19" x="42.87" y="0">r</tspan><tspan x="46.83" y="0">ces</tspan></text><text class="cls-7" transform="translate(565.83 445.94) rotate(-90)"><tspan x="0" y="0">D</tspan><tspan class="cls-17" x="7.28" y="0">a</tspan><tspan class="cls-19" x="12.81" y="0">t</tspan><tspan x="16.58" y="0">a </tspan><tspan class="cls-17" x="24.94" y="0">P</tspan><tspan class="cls-18" x="30.92" y="0">r</tspan><tspan x="34.82" y="0">oducts</tspan></text><text class="cls-7" transform="translate(169.22 383.55)"><tspan x="0" y="0">Input </tspan><tspan x="3.03" y="14.4">D</tspan><tspan class="cls-17" x="10.31" y="14.4">a</tspan><tspan class="cls-19" x="15.84" y="14.4">t</tspan><tspan x="19.61" y="14.4">a</tspan></text><path id="database-5" class="cls-9" d="M442.86,420.43c.13,.17,.23,.37,.23,.61v1c0,1.82-3.53,3-9,3s-9-1.18-9-3v-1c0-.23,.09-.44,.23-.61,1.85,1.05,4.81,1.61,8.77,1.61s6.93-.56,8.77-1.61Zm-8.77-3.39c-3.96,0-6.93-.56-8.77-1.61-.13,.17-.23,.37-.23,.61v1c0,1.82,3.53,3,9,3s9-1.18,9-3v-1c0-.23-.09-.44-.23-.61-1.85,1.05-4.81,1.61-8.77,1.61Zm0-14c-5.47,0-9,1.18-9,3v1c0,1.82,3.53,3,9,3s9-1.18,9-3v-1c0-1.82-3.53-3-9-3Zm0,9c-3.96,0-6.93-.56-8.77-1.61-.13,.17-.23,.37-.23,.61v1c0,1.82,3.53,3,9,3s9-1.18,9-3v-1c0-.23-.09-.44-.23-.61-1.85,1.05-4.81,1.61-8.77,1.61Z"/><text class="cls-7" transform="translate(415.51 383.64)"><tspan x="0" y="0">Output </tspan><tspan x="7.46" y="14.4">D</tspan><tspan class="cls-17" x="14.75" y="14.4">a</tspan><tspan class="cls-19" x="20.28" y="14.4">t</tspan><tspan x="24.04" y="14.4">a</tspan></text><g><line class="cls-14" x1="77.48" y1="456.96" x2="99.89" y2="456.96"/><polygon class="cls-6" points="99.16 459.45 103.48 456.96 99.16 454.47 99.16 459.45"/></g><g><line class="cls-14" x1="77.48" y1="414.03" x2="99.89" y2="414.03"/><polygon class="cls-6" points="99.16 416.52 103.48 414.03 99.16 411.54 99.16 416.52"/></g><g><line class="cls-14" x1="77.48" y1="371.08" x2="99.89" y2="371.08"/><polygon class="cls-6" points="99.16 373.57 103.48 371.08 99.16 368.58 99.16 373.57"/></g><g><line class="cls-14" x1="443.09" y1="414.03" x2="465.49" y2="414.03"/><polygon class="cls-6" points="464.76 416.52 469.08 414.03 464.76 411.54 464.76 416.52"/></g><g><line class="cls-14" x1="509.73" y1="414.03" x2="525.69" y2="414.03"/><polygon class="cls-6" points="524.96 416.52 529.28 414.03 524.96 411.54 524.96 416.52"/></g><g><line class="cls-14" x1="509.73" y1="372.2" x2="525.69" y2="372.2"/><polygon class="cls-6" points="524.96 374.69 529.28 372.2 524.96 369.7 524.96 374.69"/></g><g><line class="cls-14" x1="509.73" y1="455.78" x2="525.69" y2="455.78"/><polygon class="cls-6" points="524.96 458.27 529.28 455.78 524.96 453.28 524.96 458.27"/></g><g><line class="cls-14" x1="144.13" y1="414.03" x2="170.78" y2="414.03"/><polygon class="cls-6" points="170.05 416.52 174.36 414.03 170.05 411.54 170.05 416.52"/></g><g><g id="rect812"><path class="cls-10" d="M376.88,414.14h-21.69c-.91,0-1.66-.75-1.66-1.66v-21.68c0-.92,.74-1.66,1.66-1.66h21.69c.91,0,1.66,.75,1.66,1.66v21.68c0,.92-.74,1.66-1.66,1.66Zm-21.69-23.55c-.11,0-.2,.09-.2,.21v21.68c0,.12,.09,.21,.2,.21h21.69c.11,0,.2-.09,.2-.21v-21.68c0-.12-.09-.21-.2-.21h-21.69Z"/></g><g id="path843"><path class="cls-10" d="M374.13,396.16c.22,0,.39-.09,.5-.28,.12-.19,.19-.41,.22-.66,.03-.25,.05-.5,.05-.73s-.02-.5-.05-.75c-.03-.25-.11-.47-.22-.65-.11-.19-.28-.28-.5-.28s-.39,.09-.51,.28c-.11,.19-.19,.4-.22,.65-.03,.25-.05,.5-.05,.75,0,.42,.05,.81,.15,1.16,.1,.35,.31,.52,.63,.52Zm0,.98c-.45,0-.82-.13-1.11-.4-.28-.27-.49-.6-.61-1-.12-.4-.18-.82-.18-1.26,0-.32,.03-.63,.1-.94,.07-.31,.17-.59,.32-.85,.15-.26,.35-.47,.59-.63,.25-.16,.54-.24,.89-.24s.64,.08,.89,.24c.24,.16,.44,.37,.59,.63,.15,.26,.26,.55,.32,.86,.07,.31,.1,.62,.1,.94s-.03,.63-.1,.94c-.07,.31-.17,.6-.32,.86-.15,.26-.34,.47-.59,.63-.25,.16-.54,.24-.89,.24Zm-4.11-.98c.22,0,.39-.09,.5-.28,.12-.19,.19-.41,.22-.66,.03-.25,.05-.5,.05-.73s-.02-.5-.05-.75c-.03-.25-.11-.47-.22-.65-.11-.19-.28-.28-.5-.28s-.39,.09-.51,.28c-.11,.19-.19,.4-.22,.65-.03,.25-.05,.5-.05,.75,0,.42,.05,.81,.15,1.16,.1,.35,.31,.52,.63,.52Zm0,.98c-.45,0-.82-.13-1.11-.4-.28-.27-.49-.6-.61-1-.12-.4-.18-.82-.18-1.26,0-.32,.03-.63,.1-.94,.07-.31,.17-.59,.32-.85,.15-.26,.35-.47,.59-.63,.25-.16,.54-.24,.89-.24s.64,.08,.88,.24c.25,.16,.44,.37,.59,.63,.15,.26,.26,.55,.32,.86,.07,.31,.1,.62,.1,.94s-.03,.63-.1,.94c-.07,.31-.17,.6-.32,.86-.15,.26-.34,.47-.59,.63-.25,.16-.54,.24-.88,.24Zm-3.62-.61v-3.63h-.42c-.16,0-.28-.05-.36-.14-.08-.1-.12-.21-.12-.35s.04-.25,.13-.35c.09-.1,.21-.15,.36-.15h1.02c.1,0,.19,.02,.26,.07,.07,.04,.13,.1,.16,.18,.04,.07,.06,.16,.06,.27v4.11c0,.18-.05,.32-.15,.42-.1,.1-.23,.15-.39,.15s-.29-.05-.39-.15c-.1-.1-.15-.24-.15-.42Zm-2.65,0v-3.63h-.42c-.16,0-.28-.05-.36-.14-.08-.1-.12-.21-.12-.35s.04-.25,.13-.35c.09-.1,.21-.15,.36-.15h1.02c.1,0,.19,.02,.26,.07,.07,.04,.13,.1,.16,.18,.04,.07,.06,.16,.06,.27v4.11c0,.18-.05,.32-.15,.42s-.23,.15-.39,.15-.29-.05-.39-.15c-.1-.1-.15-.24-.15-.42Zm-3.14-.37c.22,0,.39-.09,.5-.28,.12-.19,.19-.41,.22-.66,.03-.25,.05-.5,.05-.73s-.02-.5-.05-.75c-.03-.25-.11-.47-.22-.65-.11-.19-.28-.28-.5-.28s-.39,.09-.51,.28c-.11,.19-.19,.4-.22,.65-.03,.25-.05,.5-.05,.75,0,.42,.05,.81,.15,1.16,.1,.35,.31,.52,.63,.52Zm0,.98c-.45,0-.82-.13-1.11-.4-.28-.27-.49-.6-.61-1-.12-.4-.18-.82-.18-1.26,0-.32,.03-.63,.1-.94,.07-.31,.17-.59,.32-.85,.15-.26,.35-.47,.59-.63,.25-.16,.54-.24,.89-.24s.64,.08,.89,.24c.24,.16,.44,.37,.59,.63,.15,.26,.26,.55,.32,.86,.07,.31,.1,.62,.1,.94s-.03,.63-.1,.94c-.07,.31-.17,.6-.32,.86-.15,.26-.34,.47-.59,.63s-.54,.24-.89,.24Zm-3.62-.61v-3.63h-.42c-.16,0-.28-.05-.36-.14-.08-.1-.12-.21-.12-.35s.04-.25,.13-.35c.09-.1,.21-.15,.36-.15h1.02c.1,0,.19,.02,.26,.07,.07,.04,.13,.1,.16,.18,.04,.07,.06,.16,.06,.27v4.11c0,.18-.05,.32-.15,.42-.1,.1-.23,.15-.39,.15s-.29-.05-.39-.15c-.1-.1-.15-.24-.15-.42Zm17.15,6.79c.22,0,.39-.09,.5-.28,.12-.19,.19-.41,.22-.66,.03-.25,.05-.5,.05-.73s-.02-.5-.05-.74c-.03-.25-.11-.47-.22-.65-.11-.19-.28-.28-.5-.28s-.39,.09-.51,.28c-.11,.19-.19,.4-.22,.65-.03,.25-.05,.5-.05,.74,0,.42,.05,.81,.15,1.16,.1,.35,.31,.52,.63,.52Zm0,.98c-.45,0-.82-.13-1.11-.4-.28-.27-.49-.6-.61-1-.12-.4-.18-.82-.18-1.26,0-.32,.03-.63,.1-.94,.07-.31,.17-.59,.32-.85,.15-.26,.35-.47,.59-.63,.25-.16,.54-.24,.89-.24s.64,.08,.89,.24c.24,.16,.44,.36,.59,.63,.15,.26,.26,.55,.32,.86,.07,.31,.1,.62,.1,.94s-.03,.63-.1,.94c-.07,.31-.17,.6-.32,.86-.15,.26-.34,.47-.59,.63-.25,.16-.54,.24-.89,.24Zm-3.62-.61v-3.63h-.42c-.16,0-.28-.05-.36-.14-.08-.1-.12-.21-.12-.35s.04-.25,.13-.35c.09-.1,.21-.15,.36-.15h1.02c.1,0,.19,.02,.26,.07,.07,.04,.13,.11,.16,.18,.04,.07,.06,.16,.06,.27v4.11c0,.18-.05,.32-.15,.42-.1,.1-.23,.15-.39,.15s-.29-.05-.39-.15-.15-.24-.15-.42Zm-2.65,0v-3.63h-.42c-.16,0-.28-.05-.36-.14-.08-.1-.12-.21-.12-.35s.04-.25,.13-.35c.09-.1,.21-.15,.36-.15h1.02c.1,0,.19,.02,.26,.07,.07,.04,.13,.11,.16,.18,.04,.07,.06,.16,.06,.27v4.11c0,.18-.05,.32-.15,.42-.1,.1-.23,.15-.39,.15s-.29-.05-.39-.15-.15-.24-.15-.42Zm-3.14-.37c.22,0,.39-.09,.5-.28,.12-.19,.19-.41,.22-.66,.03-.25,.05-.5,.05-.73s-.02-.5-.05-.74c-.03-.25-.11-.47-.22-.65-.11-.19-.28-.28-.5-.28s-.39,.09-.51,.28c-.11,.19-.19,.4-.22,.65-.03,.25-.05,.5-.05,.74,0,.42,.05,.81,.15,1.16,.1,.35,.31,.52,.63,.52Zm0,.98c-.45,0-.82-.13-1.11-.4-.28-.27-.49-.6-.61-1-.12-.4-.18-.82-.18-1.26,0-.32,.03-.63,.1-.94,.07-.31,.17-.59,.32-.85,.15-.26,.35-.47,.59-.63,.25-.16,.54-.24,.89-.24s.64,.08,.88,.24c.25,.16,.44,.36,.59,.63,.15,.26,.26,.55,.32,.86,.07,.31,.1,.62,.1,.94s-.03,.63-.1,.94c-.07,.31-.17,.6-.32,.86-.15,.26-.34,.47-.59,.63-.25,.16-.54,.24-.88,.24Zm-3.62-.61v-3.63h-.42c-.16,0-.28-.05-.36-.14-.08-.1-.12-.21-.12-.35s.04-.25,.13-.35c.09-.1,.21-.15,.36-.15h1.02c.1,0,.19,.02,.26,.07,.07,.04,.13,.11,.16,.18,.04,.07,.06,.16,.06,.27v4.11c0,.18-.05,.32-.15,.42-.1,.1-.23,.15-.39,.15s-.29-.05-.39-.15c-.1-.1-.15-.24-.15-.42Zm-3.14-.37c.22,0,.39-.09,.5-.28,.12-.19,.19-.41,.22-.66,.03-.25,.05-.5,.05-.73s-.02-.5-.05-.74c-.03-.25-.11-.47-.22-.65-.11-.19-.28-.28-.5-.28s-.39,.09-.51,.28c-.11,.19-.19,.4-.22,.65-.03,.25-.05,.5-.05,.74,0,.42,.05,.81,.15,1.16,.1,.35,.31,.52,.63,.52Zm0,.98c-.45,0-.82-.13-1.11-.4-.28-.27-.49-.6-.61-1-.12-.4-.18-.82-.18-1.26,0-.32,.03-.63,.1-.94,.07-.31,.17-.59,.32-.85,.15-.26,.35-.47,.59-.63,.25-.16,.54-.24,.89-.24s.64,.08,.89,.24c.24,.16,.44,.36,.59,.63,.15,.26,.26,.55,.32,.86,.07,.31,.1,.62,.1,.94s-.03,.63-.1,.94c-.07,.31-.17,.6-.32,.86-.15,.26-.34,.47-.59,.63s-.54,.24-.89,.24Zm16.67,6.55v-3.63h-.42c-.16,0-.28-.05-.36-.14-.08-.1-.12-.21-.12-.35s.04-.25,.13-.35c.09-.1,.21-.15,.36-.15h1.02c.1,0,.19,.02,.26,.07,.07,.04,.13,.1,.16,.18,.04,.07,.06,.16,.06,.27v4.11c0,.18-.05,.32-.15,.42-.1,.1-.23,.15-.39,.15s-.29-.05-.39-.15c-.1-.1-.15-.24-.15-.42Zm-3.14-.37c.22,0,.39-.09,.5-.28,.12-.19,.19-.41,.22-.66,.03-.25,.05-.5,.05-.73s-.02-.5-.05-.75c-.03-.25-.11-.47-.22-.65-.11-.19-.28-.28-.5-.28s-.39,.09-.51,.28c-.11,.19-.19,.4-.22,.65-.03,.25-.05,.5-.05,.75,0,.42,.05,.81,.15,1.16,.1,.35,.31,.52,.63,.52Zm0,.98c-.45,0-.82-.13-1.11-.4-.28-.27-.49-.6-.61-1-.12-.4-.18-.82-.18-1.26,0-.32,.03-.63,.1-.94,.07-.31,.17-.59,.32-.85,.15-.26,.35-.47,.59-.63,.25-.16,.54-.24,.89-.24s.64,.08,.89,.24c.24,.16,.44,.37,.59,.63,.15,.26,.26,.55,.32,.86,.07,.31,.1,.62,.1,.94s-.03,.63-.1,.94c-.07,.31-.17,.6-.32,.86-.15,.26-.34,.47-.59,.63-.25,.16-.54,.24-.89,.24Zm-3.62-.61v-3.63h-.42c-.16,0-.28-.05-.36-.14-.08-.1-.12-.21-.12-.35s.04-.25,.13-.35c.09-.1,.21-.15,.36-.15h1.02c.1,0,.19,.02,.26,.07,.07,.04,.13,.1,.16,.18,.04,.07,.06,.16,.06,.27v4.11c0,.18-.05,.32-.15,.42-.1,.1-.23,.15-.39,.15s-.29-.05-.39-.15c-.1-.1-.15-.24-.15-.42Zm-3.14-.37c.22,0,.39-.09,.5-.28,.12-.19,.19-.41,.22-.66,.03-.25,.05-.5,.05-.73s-.02-.5-.05-.75c-.03-.25-.11-.47-.22-.65-.11-.19-.28-.28-.5-.28s-.39,.09-.51,.28c-.11,.19-.19,.4-.22,.65-.03,.25-.05,.5-.05,.75,0,.42,.05,.81,.15,1.16,.1,.35,.31,.52,.63,.52Zm0,.98c-.45,0-.82-.13-1.11-.4-.28-.27-.49-.6-.61-1-.12-.4-.18-.82-.18-1.26,0-.32,.03-.63,.1-.94,.07-.31,.17-.59,.32-.85,.15-.26,.35-.47,.59-.63,.25-.16,.54-.24,.89-.24s.64,.08,.88,.24c.25,.16,.44,.37,.59,.63,.15,.26,.26,.55,.32,.86,.07,.31,.1,.62,.1,.94s-.03,.63-.1,.94c-.07,.31-.17,.6-.32,.86-.15,.26-.34,.47-.59,.63-.25,.16-.54,.24-.88,.24Zm-4.11-.98c.22,0,.39-.09,.5-.28,.12-.19,.19-.41,.22-.66,.03-.25,.05-.5,.05-.73s-.02-.5-.05-.75c-.03-.25-.11-.47-.22-.65-.11-.19-.28-.28-.5-.28s-.39,.09-.51,.28c-.11,.19-.19,.4-.22,.65-.03,.25-.05,.5-.05,.75,0,.42,.05,.81,.15,1.16,.1,.35,.31,.52,.63,.52Zm0,.98c-.45,0-.82-.13-1.11-.4-.28-.27-.49-.6-.61-1-.12-.4-.18-.82-.18-1.26,0-.32,.03-.63,.1-.94,.07-.31,.17-.59,.32-.85,.15-.26,.35-.47,.59-.63,.25-.16,.54-.24,.89-.24s.64,.08,.89,.24c.24,.16,.44,.37,.59,.63,.15,.26,.26,.55,.32,.86,.07,.31,.1,.62,.1,.94s-.03,.63-.1,.94c-.07,.31-.17,.6-.32,.86-.15,.26-.34,.47-.59,.63s-.54,.24-.89,.24Zm-3.62-.61v-3.63h-.42c-.16,0-.28-.05-.36-.14-.08-.1-.12-.21-.12-.35s.04-.25,.13-.35c.09-.1,.21-.15,.36-.15h1.02c.1,0,.19,.02,.26,.07,.07,.04,.13,.1,.16,.18,.04,.07,.06,.16,.06,.27v4.11c0,.18-.05,.32-.15,.42-.1,.1-.23,.15-.39,.15s-.29-.05-.39-.15c-.1-.1-.15-.24-.15-.42Z"/></g></g><path id="dishwasher" class="cls-9" d="M552.28,360.12h-22c-.55,0-1,.45-1,1v22c0,.55,.45,1,1,1h22c.55,0,1-.45,1-1v-22c0-.55-.45-1-1-1Zm-2,20c0,.55-.45,1-1,1h-16c-.55,0-1-.45-1-1v-13c0-.55,.45-1,1-1h16c.55,0,1,.45,1,1v13Zm1-16.5c0,.28-.22,.5-.5,.5h-2c-.28,0-.5-.22-.5-.5v-1c0-.28,.22-.5,.5-.5h2c.28,0,.5,.22,.5,.5v1Z"/><path id="dishwasher-2" class="cls-9" d="M552.28,401.96h-22c-.55,0-1,.45-1,1v22c0,.55,.45,1,1,1h22c.55,0,1-.45,1-1v-22c0-.55-.45-1-1-1Zm-2,20c0,.55-.45,1-1,1h-16c-.55,0-1-.45-1-1v-13c0-.55,.45-1,1-1h16c.55,0,1,.45,1,1v13Zm1-16.5c0,.28-.22,.5-.5,.5h-2c-.28,0-.5-.22-.5-.5v-1c0-.28,.22-.5,.5-.5h2c.28,0,.5,.22,.5,.5v1Z"/><path id="dishwasher-3" class="cls-9" d="M552.28,443.79h-22c-.55,0-1,.45-1,1v22c0,.55,.45,1,1,1h22c.55,0,1-.45,1-1v-22c0-.55-.45-1-1-1Zm-2,20c0,.55-.45,1-1,1h-16c-.55,0-1-.45-1-1v-13c0-.55,.45-1,1-1h16c.55,0,1,.45,1,1v13Zm1-16.5c0,.28-.22,.5-.5,.5h-2c-.28,0-.5-.22-.5-.5v-1c0-.28,.22-.5,.5-.5h2c.28,0,.5,.22,.5,.5v1Z"/><g><line class="cls-14" x1="206" y1="437.32" x2="217.41" y2="437.32"/><polygon class="cls-6" points="216.68 439.81 221 437.32 216.68 434.83 216.68 439.81"/></g><g><line class="cls-14" x1="391" y1="437.32" x2="402.41" y2="437.32"/><polygon class="cls-6" points="401.68 439.81 406 437.32 401.68 434.83 401.68 439.81"/></g></svg>