<svg xmlns="http://www.w3.org/2000/svg" viewBox="0 0 875.83 1140.93"><g id="Layer_2" data-name="Layer 2"><path d="M548.23,887.23V812.3a75,75,0,0,0,0,149.87Z" style="fill:#295ca7"/><path d="M310.49,594.37l59.38,204a123.27,123.27,0,0,0,118.36,88.82h0" style="fill:none;stroke:#bcbec0;stroke-miterlimit:10;stroke-width:5px"/><path d="M779.83,980v56.4l39.88-39.88A62.27,62.27,0,0,0,779.83,980Z" style="fill:#295ca7"/><path d="M779.83,1048.46v56.4a62.19,62.19,0,0,0,39.88-16.51Z" style="fill:#295ca7"/><path d="M783.37,1039.93h56.4A62.28,62.28,0,0,0,823.25,1000Z" style="fill:#295ca7"/><path d="M774.83,1042.43V980a62.48,62.48,0,0,0,0,124.87Z" style="fill:#295ca7"/><path d="M783.37,1044.93l39.88,39.88a62.27,62.27,0,0,0,16.52-39.88Z" style="fill:#295ca7"/><path d="M832.65,916.23a62.27,62.27,0,0,0,7.12-26.59H786.59Z" style="fill:#295ca7"/><path d="M786.59,884.64h53.18a62.2,62.2,0,0,0-7.12-26.59Z" style="fill:#295ca7"/><path d="M784.09,880.31l46-26.59a62.86,62.86,0,0,0-19.48-19.44Z" style="fill:#295ca7"/><path d="M774.76,887.14V824.7a62.49,62.49,0,0,0,0,124.87Z" style="fill:#295ca7"/><path d="M784.09,894l26.57,46a62.64,62.64,0,0,0,19.48-19.44Z" style="fill:#295ca7"/><path d="M779.76,896.47v53.11a62.26,62.26,0,0,0,26.57-7.08Z" style="fill:#295ca7"/><path d="M779.76,824.7v53.11l26.57-46A62,62,0,0,0,779.76,824.7Z" style="fill:#295ca7"/><path d="M783.81,736.6,816,780.92A62.62,62.62,0,0,0,836,753.55Z" style="fill:#295ca7"/><path d="M837.49,748.79a62.49,62.49,0,0,0,0-33.88l-52.14,16.94Z" style="fill:#295ca7"/><path d="M836,710.15A62.59,62.59,0,0,0,816,682.77l-32.2,44.32Z" style="fill:#295ca7"/><path d="M774.76,731.85V669.41a62.49,62.49,0,0,0,0,124.87Z" style="fill:#295ca7"/><path d="M779.76,739.54v54.74A62.16,62.16,0,0,0,812,783.87Z" style="fill:#295ca7"/><path d="M779.76,724.15,812,679.82a62.16,62.16,0,0,0-32.21-10.41Z" style="fill:#295ca7"/><path d="M779.83,572.23l50.32-29.06a62.43,62.43,0,0,0-50.32-29Z" style="fill:#4b5b5e"/><path d="M832.66,605.61a62.45,62.45,0,0,0,0-58.11l-50.33,29.06Z" style="fill:#4b5b5e"/><path d="M779.83,580.89V639a62.46,62.46,0,0,0,50.33-29Z" style="fill:#4b5b5e"/><path d="M774.83,576.56V514.12a62.48,62.48,0,0,0,0,124.87Z" style="fill:#4b5b5e"/><path d="M836,399.59a62.63,62.63,0,0,0-19.91-27.37l-32.18,44.29Z" style="fill:#4b5b5e"/><path d="M783.87,426l32.18,44.29A62.63,62.63,0,0,0,836,442.94Z" style="fill:#4b5b5e"/><path d="M837.49,438.18a62.31,62.31,0,0,0,0-33.83l-52.07,16.92Z" style="fill:#4b5b5e"/><path d="M779.83,413.57,812,369.27a62.14,62.14,0,0,0-32.18-10.44Z" style="fill:#4b5b5e"/><path d="M774.83,421.26V358.83a62.48,62.48,0,0,0,0,124.87Z" style="fill:#4b5b5e"/><path d="M779.83,429V483.7A62.14,62.14,0,0,0,812,473.26Z" style="fill:#4b5b5e"/><path d="M779.76,203.83v56.4l39.92-39.92A62.29,62.29,0,0,0,779.76,203.83Z" style="fill:#4b5b5e"/><path d="M779.76,272.3v56.4a62.29,62.29,0,0,0,39.92-16.48Z" style="fill:#4b5b5e"/><path d="M774.76,266.26V203.83a62.49,62.49,0,0,0,0,124.87Z" style="fill:#4b5b5e"/><path d="M783.3,268.76l39.91,39.93a62.29,62.29,0,0,0,16.56-39.93Z" style="fill:#4b5b5e"/><path d="M783.3,263.76h56.47a62.24,62.24,0,0,0-16.56-39.91Z" style="fill:#4b5b5e"/><path d="M774.76,110.94V48.5a62.49,62.49,0,0,0,0,124.87Z" style="fill:#0b6333"/><path d="M779.76,120.27v53.11a62.05,62.05,0,0,0,26.58-7.08Z" style="fill:#0b6333"/><path d="M784.09,117.77l26.58,46a62.64,62.64,0,0,0,19.47-19.45Z" style="fill:#0b6333"/><path d="M786.59,113.44,832.65,140a62,62,0,0,0,7.12-26.59Z" style="fill:#0b6333"/><path d="M786.59,108.44h53.18a62,62,0,0,0-7.12-26.6Z" style="fill:#0b6333"/><path d="M784.09,104.11l46.06-26.6a62.75,62.75,0,0,0-19.48-19.44Z" style="fill:#0b6333"/><path d="M779.76,48.48v53.13l26.58-46A62.17,62.17,0,0,0,779.76,48.48Z" style="fill:#0b6333"/><path d="M548.23,36a75,75,0,0,0,0,149.87Z" style="fill:#0b6333"/><path d="M553.23,36V185.87a75,75,0,0,0,0-149.87Z" style="fill:#0b6333"/><path d="M311.06,248.12l36.09-58.47a165.78,165.78,0,0,1,141.08-78.71h0" style="fill:none;stroke:#bcbec0;stroke-miterlimit:10;stroke-width:5px"/><line x1="654.83" y1="110.94" x2="722.33" y2="110.94" style="fill:none;stroke:#bcbec0;stroke-miterlimit:10;stroke-width:5px"/><path d="M602.83,796.91h0a123.1,123.1,0,0,1,108.56-65.06h10.94" style="fill:none;stroke:#bcbec0;stroke-miterlimit:10;stroke-width:5px"/><path d="M602.55,977.36l.19.36a123.11,123.11,0,0,0,108.37,64.71h11.22" style="fill:none;stroke:#bcbec0;stroke-miterlimit:10;stroke-width:5px"/><line x1="654.83" y1="887.23" x2="722.33" y2="887.23" style="fill:none;stroke:#bcbec0;stroke-miterlimit:10;stroke-width:5px"/><path d="M603,330.93h0a122.52,122.52,0,0,1,108-64.66h11.36" style="fill:none;stroke:#bcbec0;stroke-miterlimit:10;stroke-width:5px"/><path d="M602.4,511.56h0a124.11,124.11,0,0,0,109.13,65h10.8" style="fill:none;stroke:#bcbec0;stroke-miterlimit:10;stroke-width:5px"/><line x1="654.83" y1="421.41" x2="722.33" y2="421.41" style="fill:none;stroke:#bcbec0;stroke-miterlimit:10;stroke-width:5px"/><path d="M553.23,891.56v70.63a74.92,74.92,0,0,0,61.17-35.31Z" style="fill:#295ca7"/><path d="M616.9,922.55a75.05,75.05,0,0,0,0-70.64l-61.17,35.32Z" style="fill:#295ca7"/><path d="M553.23,882.9l61.17-35.31a74.92,74.92,0,0,0-61.17-35.31Z" style="fill:#295ca7"/><path d="M548.23,421.41V346.48a75,75,0,0,0,0,149.87Z" style="fill:#4b5b5e"/><path d="M553.23,425.74v70.63a75,75,0,0,0,61.17-35.31Z" style="fill:#4b5b5e"/><path d="M616.9,456.73a75.05,75.05,0,0,0,0-70.64l-61.17,35.32Z" style="fill:#4b5b5e"/><path d="M553.23,417.08l61.17-35.31a75,75,0,0,0-61.17-35.32Z" style="fill:#4b5b5e"/><circle cx="310.49" cy="594.37" r="10" style="fill:#bcbec0"/><circle cx="311.06" cy="248.12" r="10" style="fill:#bcbec0"/><path d="M208.5,421.41v-175a175,175,0,0,0,0,349.94Z" style="fill:#bcbec0"/><path d="M213.5,425.74V596.37a174.86,174.86,0,0,0,147.79-85.3Z" style="fill:#295ca7"/><path d="M363.8,506.74a175.06,175.06,0,0,0,0-170.66L216,421.41Z" style="fill:#4b5b5e"/><path d="M213.5,417.08l147.79-85.33a174.91,174.91,0,0,0-147.79-85.3Z" style="fill:#0b6333"/><circle cx="211" cy="421.41" r="167.5" style="fill:#fff"/><circle cx="550.73" cy="421.41" r="62.5" style="fill:#fff"/><polygon points="395.73 421.41 385.73 415.64 385.73 427.19 395.73 421.41" style="fill:#4b5b5e"/><polygon points="634.89 421.41 624.89 415.64 624.89 427.19 634.89 421.41" style="fill:#4b5b5e"/><polygon points="634.89 887.23 624.89 881.46 624.89 893 634.89 887.23" style="fill:#295ca7"/><polygon points="592.66 960.14 592.66 948.59 582.66 954.37 592.66 960.14" style="fill:#295ca7"/><polygon points="592.87 814.2 582.87 819.98 592.87 825.75 592.87 814.2" style="fill:#295ca7"/><polygon points="592.51 494.34 592.51 482.8 582.51 488.57 592.51 494.34" style="fill:#4b5b5e"/><polygon points="592.92 348.24 582.92 354.02 592.92 359.79 592.92 348.24" style="fill:#4b5b5e"/><polygon points="634.89 110.94 624.89 105.16 624.89 116.71 634.89 110.94" style="fill:#0b6333"/><polygon points="303.53 261.24 293.53 267.01 303.53 272.79 303.53 261.24" style="fill:#0b6333"/><circle cx="410.73" cy="421.41" r="10" style="fill:#bcbec0"/><line x1="410.73" y1="421.41" x2="488.23" y2="421.41" style="fill:none;stroke:#bcbec0;stroke-miterlimit:10;stroke-width:5px"/><polygon points="303.11 581.35 303.11 569.8 293.11 575.57 303.11 581.35" style="fill:#295ca7"/><circle cx="410.73" cy="421.41" r="5" style="fill:#4b5b5e;stroke:#fff;stroke-miterlimit:10"/><circle cx="310.49" cy="594.37" r="5" style="fill:#295ca7;stroke:#fff;stroke-miterlimit:10"/><circle cx="311.06" cy="248.12" r="5" style="fill:#0b6333;stroke:#fff;stroke-miterlimit:10"/><circle cx="654.83" cy="110.94" r="10" style="fill:#bcbec0"/><circle cx="654.83" cy="110.94" r="5" style="fill:#0b6333;stroke:#fff;stroke-miterlimit:10"/><circle cx="654.83" cy="421.41" r="10" style="fill:#bcbec0"/><circle cx="654.83" cy="421.41" r="5" style="fill:#4b5b5e;stroke:#fff;stroke-miterlimit:10"/><circle cx="654.83" cy="887.23" r="10" style="fill:#bcbec0"/><circle cx="654.83" cy="887.23" r="5" style="fill:#295ca7;stroke:#fff;stroke-miterlimit:10"/><circle cx="602.83" cy="796.91" r="10" transform="translate(-388.73 920.52) rotate(-60)" style="fill:#bcbec0"/><circle cx="602.83" cy="796.91" r="5" style="fill:#295ca7;stroke:#fff;stroke-miterlimit:10"/><circle cx="602.55" cy="977.36" r="10" transform="translate(-407.95 432.21) rotate(-30)" style="fill:#bcbec0"/><circle cx="602.55" cy="977.36" r="5" style="fill:#295ca7;stroke:#fff;stroke-miterlimit:10"/><circle cx="602.97" cy="330.93" r="10" transform="translate(14.89 687.65) rotate(-60)" style="fill:#bcbec0"/><circle cx="602.97" cy="330.93" r="5" style="fill:#4b5b5e;stroke:#fff;stroke-miterlimit:10"/><circle cx="602.4" cy="511.56" r="10" transform="translate(-175.08 369.73) rotate(-30)" style="fill:#bcbec0"/><circle cx="602.4" cy="511.56" r="5" style="fill:#4b5b5e;stroke:#fff;stroke-miterlimit:10"/><path d="M535.06,425.35a6.26,6.26,0,0,1-1.2,4.27c-.8.89-2.16,1.33-4.09,1.33h-5.23V411.63h5.23a5.43,5.43,0,0,1,4,1.25,5.51,5.51,0,0,1,1.21,4,5.65,5.65,0,0,1-.48,2.44,3.25,3.25,0,0,1-1.62,1.54,3.08,3.08,0,0,1,1.71,1.65A7.71,7.71,0,0,1,535.06,425.35Zm-7.11-6h1.46a2.13,2.13,0,0,0,1.68-.55,2.64,2.64,0,0,0,.47-1.77,2.71,2.71,0,0,0-.47-1.82,2.17,2.17,0,0,0-1.68-.54H528Zm3.67,5.71a3.34,3.34,0,0,0-.52-2.1,2.07,2.07,0,0,0-1.72-.64H528v5.51h1.43a2.07,2.07,0,0,0,1.76-.63A3.61,3.61,0,0,0,531.62,425.1Z" style="fill:#4b5b5e"/><path d="M538,428.66a5.51,5.51,0,0,1-.69-2.78V411.63h3.45V425.8a2.66,2.66,0,0,0,.45,1.72,1.64,1.64,0,0,0,1.37.55c1.21,0,1.82-.76,1.82-2.27V411.63h3.44v14.25a5.61,5.61,0,0,1-.67,2.78,4.67,4.67,0,0,1-1.88,1.86,5.52,5.52,0,0,1-2.71.66,5.45,5.45,0,0,1-2.7-.66A4.8,4.8,0,0,1,538,428.66Z" style="fill:#4b5b5e"/><path d="M553.71,411.63V431H550.3V411.63Z" style="fill:#4b5b5e"/><path d="M559.62,411.63v16.24h5.18V431h-8.62V411.63Z" style="fill:#4b5b5e"/><path d="M571.8,411.63a5,5,0,0,1,5.38,5.55v8.23a5.35,5.35,0,0,1-1.54,4.13,5.72,5.72,0,0,1-4,1.41h-5.18V411.63Zm1.41,15.49a3.67,3.67,0,0,0,.52-2.1v-7.25a4.21,4.21,0,0,0-.5-2.26,1.7,1.7,0,0,0-1.51-.77h-1.85v13.13h1.85A1.69,1.69,0,0,0,573.21,427.12Z" style="fill:#4b5b5e"/><circle cx="550.73" cy="110.94" r="62.5" style="fill:#fff"/><circle cx="550.73" cy="887.23" r="62.5" style="fill:#fff"/><path d="M515.47,883.38a7.12,7.12,0,0,1-1.24,4.59,5,5,0,0,1-4.05,1.51h-1.79v7.14H505V877.3h5.21c1.91,0,3.26.5,4.08,1.51A7.21,7.21,0,0,1,515.47,883.38Zm-3.44,0a4.67,4.67,0,0,0-.43-2.27,1.63,1.63,0,0,0-1.53-.73h-1.68v6h1.68a1.63,1.63,0,0,0,1.53-.73A4.65,4.65,0,0,0,512,883.38Z" style="fill:#295ca7"/><path d="M517,891.3v-8.71a5.4,5.4,0,0,1,1.54-4.16,5.78,5.78,0,0,1,4.06-1.41,5.41,5.41,0,0,1,3.91,1.41,5.52,5.52,0,0,1,1.47,4.16v8.71a5.35,5.35,0,0,1-1.55,4.12,5.73,5.73,0,0,1-4,1.42,5.44,5.44,0,0,1-3.95-1.41A5.5,5.5,0,0,1,517,891.3Zm7.54-.39v-7.76a4.07,4.07,0,0,0-.51-2.25,1.67,1.67,0,0,0-1.51-.77,1.74,1.74,0,0,0-1.58.75,4.21,4.21,0,0,0-.49,2.27v7.76c0,1.88.69,2.83,2.07,2.83A1.72,1.72,0,0,0,524,893,3.63,3.63,0,0,0,524.55,890.91Z" style="fill:#295ca7"/><path d="M540.73,883.38a7.12,7.12,0,0,1-1.25,4.59,4.94,4.94,0,0,1-4,1.51h-1.79v7.14h-3.42V877.3h5.21c1.9,0,3.26.5,4.07,1.51A7.21,7.21,0,0,1,540.73,883.38Zm-3.44,0a4.54,4.54,0,0,0-.44-2.27,1.62,1.62,0,0,0-1.52-.73h-1.68v6h1.68a1.62,1.62,0,0,0,1.52-.73A4.52,4.52,0,0,0,537.29,883.38Z" style="fill:#295ca7"/><path d="M543.07,894.32a5.45,5.45,0,0,1-.69-2.77V877.3h3.45v14.17a2.69,2.69,0,0,0,.44,1.72,1.7,1.7,0,0,0,1.38.55c1.21,0,1.81-.76,1.81-2.27V877.3h3.45v14.25a5.65,5.65,0,0,1-.67,2.77,4.7,4.7,0,0,1-1.88,1.87,6,6,0,0,1-5.42,0A4.74,4.74,0,0,1,543.07,894.32Z" style="fill:#295ca7"/><path d="M558.71,877.3v16.24h5.17v3.08h-8.62V877.3Z" style="fill:#295ca7"/><path d="M568.9,892.87l-.79,3.75h-3.58l5-19.32h3.36l4.93,19.32h-3.58l-.79-3.75ZM571.16,882l-1.62,7.84h3.25Z" style="fill:#295ca7"/><path d="M583.62,880.41v16.21h-3.41V880.41h-3.36V877.3H587v3.11Z" style="fill:#295ca7"/><path d="M591.66,885.25h4.48v3.08h-4.48v5.21h5.21v3.08h-8.63V877.3h8.63v3.11h-5.21Z" style="fill:#295ca7"/><path d="M523.28,101a5,5,0,0,1,5.38,5.54v8.23a5.35,5.35,0,0,1-1.54,4.13,5.68,5.68,0,0,1-4,1.42h-5.18V101Zm1.41,15.48a3.62,3.62,0,0,0,.52-2.1v-7.25a4.23,4.23,0,0,0-.5-2.26,1.69,1.69,0,0,0-1.51-.76h-1.85v13.13h1.85A1.68,1.68,0,0,0,524.69,116.46Z" style="fill:#0b6333"/><path d="M534.31,108.93h4.48V112h-4.48v5.21h5.21v3.08h-8.63V101h8.63v3.11h-5.21Z" style="fill:#0b6333"/><path d="M540.75,114.78H544a3.76,3.76,0,0,0,.57,2.1,1.82,1.82,0,0,0,1.53.67,1.72,1.72,0,0,0,1.47-.61,3.29,3.29,0,0,0,.46-2,2.77,2.77,0,0,0-.52-1.78,4.56,4.56,0,0,0-1.75-1.22l-1.31-.59a6.18,6.18,0,0,1-2.7-2.07,5.76,5.76,0,0,1-.83-3.3,5.34,5.34,0,0,1,1.41-3.89,5.06,5.06,0,0,1,3.82-1.46,4.73,4.73,0,0,1,3.69,1.44,6.27,6.27,0,0,1,1.38,4.16h-3.16a3.73,3.73,0,0,0-.46-2,1.6,1.6,0,0,0-1.45-.66c-1.25,0-1.87.73-1.87,2.21a2.57,2.57,0,0,0,.46,1.61,3.94,3.94,0,0,0,1.56,1.08l1.25.56a6.61,6.61,0,0,1,2.93,2.24,6.25,6.25,0,0,1,.91,3.58,5.75,5.75,0,0,1-1.4,4.14,5.23,5.23,0,0,1-4,1.46,5,5,0,0,1-3.89-1.48A6.27,6.27,0,0,1,540.75,114.78Z" style="fill:#0b6333"/><path d="M556.85,101V120.3h-3.42V101Z" style="fill:#0b6333"/><path d="M559.2,115v-8.71a5.39,5.39,0,0,1,1.54-4.16,5.78,5.78,0,0,1,4.06-1.41,5.45,5.45,0,0,1,3.89,1.37,5.26,5.26,0,0,1,1.49,4.06v.59h-3.45v-.59a2.39,2.39,0,0,0-.56-1.72,1.89,1.89,0,0,0-1.45-.61,1.74,1.74,0,0,0-1.58.76,4.21,4.21,0,0,0-.49,2.27v7.76q0,2.82,2.07,2.82a1.77,1.77,0,0,0,1.51-.68,3.29,3.29,0,0,0,.5-2v-2h-2V110h5.49v5a5.32,5.32,0,0,1-1.55,4.11,5.69,5.69,0,0,1-4,1.43,5.44,5.44,0,0,1-4-1.41A5.52,5.52,0,0,1,559.2,115Z" style="fill:#0b6333"/><path d="M583.34,120.3h-3.45l-4-10.31V120.3h-3.44V101h3.44l4,10.75V101h3.45Z" style="fill:#0b6333"/><circle cx="777.33" cy="266.27" r="55" style="fill:#fff"/><path d="M734,267.25v4.43h-2v-11h3a2.92,2.92,0,0,1,2.31.78,3.75,3.75,0,0,1,.68,2.51,4.88,4.88,0,0,1-.3,1.84,2.16,2.16,0,0,1-1,1.11l1.64,4.8h-2l-1.4-4.43Zm1-1.76a.85.85,0,0,0,.82-.4,2.36,2.36,0,0,0,.22-1.16,2.48,2.48,0,0,0-.21-1.15.88.88,0,0,0-.83-.38h-1v3.09Z" style="fill:#4b5b5e"/><path d="M741,268.88c0,.86.28,1.3.84,1.3s.81-.36.81-1.08V269h1.79v.1a2.73,2.73,0,0,1-.67,2,2.61,2.61,0,0,1-1.93.68,2.57,2.57,0,0,1-2-.77,3.71,3.71,0,0,1-.7-2.54v-2.07a4,4,0,0,1,.66-2.53,2.43,2.43,0,0,1,2-.8,2.52,2.52,0,0,1,2,.82,3.76,3.76,0,0,1,.71,2.51v1.68H741Zm0-2.74v.63h1.65v-.63a2,2,0,0,0-.21-1.05.75.75,0,0,0-1.23,0A2,2,0,0,0,741,266.14Z" style="fill:#4b5b5e"/><path d="M748.27,262.88v.35h1.14v1.3h-1.14v7.15h-1.84v-7.15h-.84v-1.3h.84v-.48a1.9,1.9,0,0,1,2.18-2.11h.8V262h-.24a1,1,0,0,0-.7.21A1.05,1.05,0,0,0,748.27,262.88Z" style="fill:#4b5b5e"/><path d="M752.21,268.88c0,.86.28,1.3.83,1.3s.82-.36.82-1.08V269h1.79v.1a2.73,2.73,0,0,1-.67,2,2.62,2.62,0,0,1-1.94.68,2.56,2.56,0,0,1-2-.77,3.71,3.71,0,0,1-.71-2.54v-2.07a4,4,0,0,1,.67-2.53,2.42,2.42,0,0,1,2-.8,2.5,2.5,0,0,1,2,.82,3.71,3.71,0,0,1,.72,2.51v1.68h-3.51Zm0-2.74v.63h1.65v-.63a2,2,0,0,0-.21-1.05.7.7,0,0,0-.62-.32.69.69,0,0,0-.61.32A2,2,0,0,0,752.21,266.14Z" style="fill:#4b5b5e"/><path d="M758.75,263.23V264a2,2,0,0,1,.73-.72,1.92,1.92,0,0,1,.94-.22,2.65,2.65,0,0,1,.58.06v2a2.41,2.41,0,0,0-.85-.16,1.27,1.27,0,0,0-1,.37,1.49,1.49,0,0,0-.36,1.07v5.31H757v-8.45Z" style="fill:#4b5b5e"/><path d="M763.52,268.88c0,.86.28,1.3.83,1.3s.82-.36.82-1.08V269H767v.1a2.73,2.73,0,0,1-.67,2,2.62,2.62,0,0,1-1.94.68,2.56,2.56,0,0,1-2-.77,3.71,3.71,0,0,1-.7-2.54v-2.07a4,4,0,0,1,.66-2.53,2.43,2.43,0,0,1,2-.8,2.52,2.52,0,0,1,2,.82,3.76,3.76,0,0,1,.71,2.51v1.68h-3.51Zm0-2.74v.63h1.65v-.63a2,2,0,0,0-.21-1.05.75.75,0,0,0-1.23,0A2,2,0,0,0,763.52,266.14Z" style="fill:#4b5b5e"/><path d="M770.07,263.23v.62a1.74,1.74,0,0,1,1.41-.75c1.37,0,2.06.85,2.06,2.55v6h-1.86v-6a.93.93,0,0,0-.21-.66.8.8,0,0,0-1.12,0,1,1,0,0,0-.2.66v6h-1.86v-8.45Z" style="fill:#4b5b5e"/><path d="M774.8,268.75v-2.59a3.31,3.31,0,0,1,.69-2.34,2.65,2.65,0,0,1,2-.72,2.6,2.6,0,0,1,1.94.69,2.84,2.84,0,0,1,.67,2.06v.33h-1.79v-.29a1.3,1.3,0,0,0-.22-.84.7.7,0,0,0-.6-.28.68.68,0,0,0-.62.32,2,2,0,0,0-.21,1.05v2.63a2,2,0,0,0,.21,1.05.65.65,0,0,0,.6.32.72.72,0,0,0,.62-.28,1.33,1.33,0,0,0,.22-.85v-.27h1.79V269a2.9,2.9,0,0,1-.67,2.1,2.56,2.56,0,0,1-1.94.7,2.65,2.65,0,0,1-2-.72A3.31,3.31,0,0,1,774.8,268.75Z" style="fill:#4b5b5e"/><path d="M783.17,268.88c0,.86.28,1.3.83,1.3s.82-.36.82-1.08V269h1.79v.1a2.73,2.73,0,0,1-.67,2,2.62,2.62,0,0,1-1.94.68,2.56,2.56,0,0,1-2-.77,3.71,3.71,0,0,1-.71-2.54v-2.07a4,4,0,0,1,.67-2.53,2.42,2.42,0,0,1,2-.8,2.5,2.5,0,0,1,2,.82,3.71,3.71,0,0,1,.72,2.51v1.68h-3.51Zm0-2.74v.63h1.65v-.63a2,2,0,0,0-.21-1.05.7.7,0,0,0-.62-.32.69.69,0,0,0-.61.32A2,2,0,0,0,783.17,266.14Z" style="fill:#4b5b5e"/><path d="M792.72,265.23h2.56V267h-2.56v4.67h-2v-11h4.93v1.77h-3Z" style="fill:#4b5b5e"/><path d="M801.36,265.79v5.89h-1.73V271a2.71,2.71,0,0,1-.65.63,1.59,1.59,0,0,1-.83.2,1.9,1.9,0,0,1-1.6-.69,3.11,3.11,0,0,1-.53-1.92,2.33,2.33,0,0,1,.72-1.83,2.94,2.94,0,0,1,2.06-.65h.71v-1.07a1,1,0,0,0-.2-.68.82.82,0,0,0-1.15,0,.85.85,0,0,0-.21.61v.12h-1.71v-.06a2.44,2.44,0,0,1,.71-1.89,2.58,2.58,0,0,1,1.82-.64,2.47,2.47,0,0,1,1.91.73A2.74,2.74,0,0,1,801.36,265.79Zm-1.85,3.36V268H799a1.28,1.28,0,0,0-.86.25,1.06,1.06,0,0,0-.3.85,1.29,1.29,0,0,0,.21.8.72.72,0,0,0,.61.27.71.71,0,0,0,.58-.28A1.12,1.12,0,0,0,799.51,269.15Z" style="fill:#4b5b5e"/><path d="M804.47,271.09v.59h-1.8v-11h1.86v3.26a1.56,1.56,0,0,1,1.42-.8,1.83,1.83,0,0,1,1.48.66,3.26,3.26,0,0,1,.54,2.08v3.23a3.12,3.12,0,0,1-.57,2.08,1.86,1.86,0,0,1-1.48.66,1.67,1.67,0,0,1-.79-.18A2.15,2.15,0,0,1,804.47,271.09Zm1.64-2.32v-2.63a2,2,0,0,0-.2-1.05.66.66,0,0,0-.6-.32.67.67,0,0,0-.6.32,2,2,0,0,0-.21,1.05v2.63c0,.92.27,1.37.81,1.37a.64.64,0,0,0,.6-.32A2,2,0,0,0,806.11,268.77Z" style="fill:#4b5b5e"/><path d="M811,263.23V264a1.92,1.92,0,0,1,.73-.72,1.88,1.88,0,0,1,.93-.22,2.52,2.52,0,0,1,.58.06v2a2.37,2.37,0,0,0-.85-.16,1.26,1.26,0,0,0-.95.37,1.49,1.49,0,0,0-.36,1.07v5.31h-1.86v-8.45Z" style="fill:#4b5b5e"/><path d="M816.05,260.64v1.55h-1.86v-1.55Zm0,2.59v8.45h-1.86v-8.45Z" style="fill:#4b5b5e"/><path d="M817.38,268.75v-2.59a3.31,3.31,0,0,1,.69-2.34,2.62,2.62,0,0,1,2-.72,2.57,2.57,0,0,1,1.93.69,2.84,2.84,0,0,1,.67,2.06v.33h-1.79v-.29a1.37,1.37,0,0,0-.21-.84.72.72,0,0,0-.6-.28.71.71,0,0,0-.63.32,2,2,0,0,0-.21,1.05v2.63a2,2,0,0,0,.21,1.05.67.67,0,0,0,.61.32.73.73,0,0,0,.62-.28,1.4,1.4,0,0,0,.21-.85v-.27h1.79V269a2.9,2.9,0,0,1-.67,2.1,2.54,2.54,0,0,1-1.93.7,2.62,2.62,0,0,1-2-.72A3.31,3.31,0,0,1,817.38,268.75Z" style="fill:#4b5b5e"/><circle cx="777.33" cy="110.94" r="55" style="fill:#fff"/><path d="M736.74,116.35h-2v-4.74h-2.08v4.74h-2v-11h2v4.54h2.08v-4.54h2Z" style="fill:#0b6333"/><path d="M741.49,117a2.61,2.61,0,0,1-.6,1.2,2.09,2.09,0,0,1-1,.57,7.06,7.06,0,0,1-1.6.15h-.07v-1.63h.68a1.14,1.14,0,0,0,1.07-.43l-2.35-8.92h2l1.14,5.14,1.06-5.14h1.95Z" style="fill:#0b6333"/><path d="M744.24,113.74v-3.23a3.26,3.26,0,0,1,.55-2.08,1.85,1.85,0,0,1,1.48-.66,1.69,1.69,0,0,1,.84.21,1.67,1.67,0,0,1,.59.59v-3.26h1.84v11h-1.78v-.59a1.84,1.84,0,0,1-1.45.72,1.89,1.89,0,0,1-1.5-.66A3.12,3.12,0,0,1,744.24,113.74Zm3.49-2.93a2,2,0,0,0-.21-1,.68.68,0,0,0-.62-.33.65.65,0,0,0-.6.33,2.07,2.07,0,0,0-.2,1v2.63a2.16,2.16,0,0,0,.2,1.06.68.68,0,0,0,.62.32q.81,0,.81-1.38Z" style="fill:#0b6333"/><path d="M752.63,107.9v.79a1.87,1.87,0,0,1,.72-.73,2,2,0,0,1,.94-.22,2.58,2.58,0,0,1,.58.06v2a2.37,2.37,0,0,0-.85-.16,1.24,1.24,0,0,0-.95.37,1.49,1.49,0,0,0-.36,1.07v5.31h-1.86V107.9Z" style="fill:#0b6333"/><path d="M755.54,113.42v-2.59a3.31,3.31,0,0,1,.69-2.34,3.12,3.12,0,0,1,4,0,3.35,3.35,0,0,1,.68,2.34v2.59a3.35,3.35,0,0,1-.68,2.34,3.12,3.12,0,0,1-4,0A3.31,3.31,0,0,1,755.54,113.42Zm3.5,0v-2.63a2.07,2.07,0,0,0-.2-1,.7.7,0,0,0-.63-.33.68.68,0,0,0-.61.33,2,2,0,0,0-.21,1v2.63a2,2,0,0,0,.21,1,.68.68,0,0,0,.61.33.7.7,0,0,0,.63-.33A2.14,2.14,0,0,0,759,113.44Z" style="fill:#0b6333"/><path d="M764.08,105.31v1.55h-1.85v-1.55Zm0,2.59v8.45h-1.85V107.9Z" style="fill:#0b6333"/><path d="M767.23,107.9v.63a1.75,1.75,0,0,1,1.41-.76q2.07,0,2.07,2.55v6h-1.86v-6a1,1,0,0,0-.21-.66.72.72,0,0,0-.56-.23.7.7,0,0,0-.56.23,1,1,0,0,0-.21.66v6h-1.85V107.9Z" style="fill:#0b6333"/><path d="M774.48,107.55v.35h1.14v1.3h-1.14v7.15h-1.84V109.2h-.85v-1.3h.85v-.48a1.9,1.9,0,0,1,2.18-2.11h.8v1.31h-.24a1,1,0,0,0-.7.21A1.05,1.05,0,0,0,774.48,107.55Z" style="fill:#0b6333"/><path d="M776.56,113.42v-2.59a3.31,3.31,0,0,1,.69-2.34,2.65,2.65,0,0,1,2-.72,2.59,2.59,0,0,1,2,.72,3.31,3.31,0,0,1,.68,2.34v2.59a3.31,3.31,0,0,1-.68,2.34,2.59,2.59,0,0,1-2,.72,2.65,2.65,0,0,1-2-.72A3.31,3.31,0,0,1,776.56,113.42Zm3.51,0v-2.63a2,2,0,0,0-.21-1,.7.7,0,0,0-.63-.33.66.66,0,0,0-.6.33,2,2,0,0,0-.21,1v2.63a2,2,0,0,0,.21,1,.66.66,0,0,0,.6.33.7.7,0,0,0,.63-.33A2,2,0,0,0,780.07,113.44Z" style="fill:#0b6333"/><path d="M785,107.9v.79a2,2,0,0,1,.73-.73,1.89,1.89,0,0,1,.94-.22,2.49,2.49,0,0,1,.57.06v2a2.33,2.33,0,0,0-.85-.16,1.26,1.26,0,0,0-1,.37A1.49,1.49,0,0,0,785,111v5.31h-1.85V107.9Z" style="fill:#0b6333"/><path d="M789.86,107.9v.63a1.72,1.72,0,0,1,1.42-.76,2,2,0,0,1,1.65.88,2.9,2.9,0,0,1,.76-.63,1.89,1.89,0,0,1,.91-.25,2,2,0,0,1,1.64.64,3.16,3.16,0,0,1,.48,1.91v6h-1.85v-6a.91.91,0,0,0-.22-.66.77.77,0,0,0-1.1,0,.91.91,0,0,0-.22.66v6h-1.86v-6a1,1,0,0,0-.21-.66.71.71,0,0,0-.55-.23.68.68,0,0,0-.56.23,1,1,0,0,0-.21.66v6h-1.86V107.9Z" style="fill:#0b6333"/><path d="M803.2,110.46v5.89h-1.73v-.7a2.53,2.53,0,0,1-.65.63,1.59,1.59,0,0,1-.83.2,1.9,1.9,0,0,1-1.6-.69,3.11,3.11,0,0,1-.53-1.92,2.33,2.33,0,0,1,.72-1.83,3,3,0,0,1,2.06-.65h.71v-1.07a1,1,0,0,0-.2-.68.85.85,0,0,0-1.15,0,.85.85,0,0,0-.21.61v.13h-1.71v-.07a2.44,2.44,0,0,1,.71-1.89,2.61,2.61,0,0,1,1.82-.64,2.5,2.5,0,0,1,1.91.73A2.74,2.74,0,0,1,803.2,110.46Zm-1.85,3.36v-1.13h-.48a1.28,1.28,0,0,0-.86.25,1.07,1.07,0,0,0-.3.85,1.29,1.29,0,0,0,.21.8.72.72,0,0,0,.61.27.71.71,0,0,0,.58-.28A1.12,1.12,0,0,0,801.35,113.82Z" style="fill:#0b6333"/><path d="M806.8,113.62a1,1,0,0,0,1.08,1.07h.06v1.66h-.06a3.33,3.33,0,0,1-2.19-.63,2.46,2.46,0,0,1-.74-2V109.2h-1v-1.3h1v-1.49l1.85-.75v2.24h1.35v1.3H806.8Z" style="fill:#0b6333"/><path d="M811.11,105.31v1.55h-1.86v-1.55Zm0,2.59v8.45h-1.86V107.9Z" style="fill:#0b6333"/><path d="M812.43,113.42v-2.59a3.31,3.31,0,0,1,.69-2.34,2.65,2.65,0,0,1,2-.72,2.58,2.58,0,0,1,1.94.69,2.85,2.85,0,0,1,.67,2.07v.32h-1.79v-.29a1.3,1.3,0,0,0-.22-.84.7.7,0,0,0-.6-.28.68.68,0,0,0-.62.33,2,2,0,0,0-.21,1v2.63a2,2,0,0,0,.21,1,.68.68,0,0,0,.61.33.74.74,0,0,0,.61-.28,1.38,1.38,0,0,0,.22-.86v-.27h1.79v.27a2.9,2.9,0,0,1-.67,2.1,2.55,2.55,0,0,1-1.94.7,2.65,2.65,0,0,1-2-.72A3.31,3.31,0,0,1,812.43,113.42Z" style="fill:#0b6333"/><path d="M818.82,113.92v-.1h1.79v.1a1,1,0,0,0,.24.74.85.85,0,0,0,.67.27.82.82,0,0,0,.63-.23,1,1,0,0,0,.22-.68.94.94,0,0,0-.2-.59,1.7,1.7,0,0,0-.63-.44l-1-.41a3,3,0,0,1-1.35-1,2.54,2.54,0,0,1-.36-1.41,2.3,2.3,0,0,1,.72-1.73,2.92,2.92,0,0,1,3.77,0,2.37,2.37,0,0,1,.72,1.79v.16h-1.79v-.09a1.1,1.1,0,0,0-.22-.75.79.79,0,0,0-.61-.26.82.82,0,0,0-.59.21.79.79,0,0,0-.21.59.93.93,0,0,0,.16.56,1.4,1.4,0,0,0,.61.42l1,.44a3.07,3.07,0,0,1,1.31,1,2.51,2.51,0,0,1,.4,1.48,2.35,2.35,0,0,1-.73,1.8,2.69,2.69,0,0,1-2,.7,2.74,2.74,0,0,1-2-.68A2.46,2.46,0,0,1,818.82,113.92Z" style="fill:#0b6333"/><circle cx="777.33" cy="421.27" r="55" style="fill:#fff"/><path d="M750.63,410.58h2.56v1.76h-2.56v3h3v1.76h-4.93V406h4.93v1.77h-3Z" style="fill:#4b5b5e"/><path d="M756.43,408.63v.62a1.77,1.77,0,0,1,1.41-.75q2.07,0,2.07,2.55v6h-1.86v-6a.93.93,0,0,0-.21-.66.72.72,0,0,0-.56-.23.7.7,0,0,0-.56.23.93.93,0,0,0-.21.66v6h-1.85v-8.45Z" style="fill:#4b5b5e"/><path d="M763.51,414.34a1,1,0,0,0,1.07,1.08h.06v1.66h-.06a3.33,3.33,0,0,1-2.19-.63,2.49,2.49,0,0,1-.74-2v-4.53h-.94v-1.3h.94v-1.49l1.86-.75v2.24h1.34v1.3h-1.34Z" style="fill:#4b5b5e"/><path d="M767.41,414.28c0,.86.28,1.3.83,1.3s.82-.36.82-1.08v-.08h1.79v.1a2.73,2.73,0,0,1-.67,2,2.62,2.62,0,0,1-1.94.68,2.56,2.56,0,0,1-2-.77,3.71,3.71,0,0,1-.71-2.54v-2.07a3.91,3.91,0,0,1,.67-2.53,2.42,2.42,0,0,1,2-.8,2.5,2.5,0,0,1,2,.82,3.71,3.71,0,0,1,.72,2.51v1.68h-3.51Zm0-2.74v.63h1.65v-.63a2,2,0,0,0-.21-1.05.7.7,0,0,0-.62-.32.69.69,0,0,0-.61.32A2,2,0,0,0,767.41,411.54Z" style="fill:#4b5b5e"/><path d="M774,408.63v.78a2,2,0,0,1,.73-.72,1.92,1.92,0,0,1,.94-.22,2.49,2.49,0,0,1,.57.06v2a2.31,2.31,0,0,0-.84-.16,1.27,1.27,0,0,0-1,.37,1.49,1.49,0,0,0-.36,1.07v5.31h-1.85v-8.45Z" style="fill:#4b5b5e"/><path d="M778.87,408.63v.67a1.7,1.7,0,0,1,1.48-.8,1.83,1.83,0,0,1,1.48.66,3.26,3.26,0,0,1,.54,2.08v3.23a3.12,3.12,0,0,1-.57,2.08,1.86,1.86,0,0,1-1.48.66,1.73,1.73,0,0,1-1.39-.64v3h-1.86v-11Zm1.64,5.54v-2.63a2,2,0,0,0-.2-1.05.66.66,0,0,0-.6-.32.68.68,0,0,0-.6.32,2,2,0,0,0-.21,1.05v2.63q0,1.38.81,1.38a.65.65,0,0,0,.6-.33A2,2,0,0,0,780.51,414.17Z" style="fill:#4b5b5e"/><path d="M785.41,408.63v.78a1.92,1.92,0,0,1,.73-.72,1.88,1.88,0,0,1,.93-.22,2.52,2.52,0,0,1,.58.06v2a2.37,2.37,0,0,0-.85-.16,1.26,1.26,0,0,0-.95.37,1.49,1.49,0,0,0-.36,1.07v5.31h-1.86v-8.45Z" style="fill:#4b5b5e"/><path d="M790.45,406v1.55h-1.86V406Zm0,2.59v8.45h-1.86v-8.45Z" style="fill:#4b5b5e"/><path d="M791.49,414.65v-.1h1.79v.1a1,1,0,0,0,.24.74,1,1,0,0,0,1.31,0,1,1,0,0,0,.21-.69.87.87,0,0,0-.2-.58,1.59,1.59,0,0,0-.63-.44l-1-.42a2.86,2.86,0,0,1-1.34-1,2.51,2.51,0,0,1-.37-1.41,2.29,2.29,0,0,1,.72-1.73,2.62,2.62,0,0,1,1.89-.69,2.65,2.65,0,0,1,1.89.69,2.4,2.4,0,0,1,.71,1.79v.16H795v-.09a1.15,1.15,0,0,0-.22-.76.76.76,0,0,0-.61-.25.78.78,0,0,0-.58.21.74.74,0,0,0-.22.59.93.93,0,0,0,.16.56,1.37,1.37,0,0,0,.61.41l1,.45a3.07,3.07,0,0,1,1.31,1,2.49,2.49,0,0,1,.4,1.48,2.35,2.35,0,0,1-.73,1.8,2.69,2.69,0,0,1-2,.7,2.74,2.74,0,0,1-1.95-.68A2.46,2.46,0,0,1,791.49,414.65Z" style="fill:#4b5b5e"/><path d="M799.75,414.28c0,.86.27,1.3.83,1.3s.81-.36.81-1.08v-.08h1.8v.1a2.73,2.73,0,0,1-.68,2,3,3,0,0,1-3.92-.09,3.71,3.71,0,0,1-.7-2.54v-2.07a4,4,0,0,1,.66-2.53,2.44,2.44,0,0,1,2-.8,2.52,2.52,0,0,1,2,.82,3.76,3.76,0,0,1,.71,2.51v1.68h-3.5Zm0-2.74v.63h1.64v-.63a2.14,2.14,0,0,0-.2-1.05.71.71,0,0,0-.63-.32.7.7,0,0,0-.61.32A2,2,0,0,0,799.75,411.54Z" style="fill:#4b5b5e"/><path d="M757.44,433.13h1.86a2.09,2.09,0,0,0,.33,1.2,1,1,0,0,0,.87.38,1,1,0,0,0,.84-.35,1.85,1.85,0,0,0,.26-1.12,1.65,1.65,0,0,0-.29-1,2.64,2.64,0,0,0-1-.69l-.76-.34A3.56,3.56,0,0,1,758,430a3.39,3.39,0,0,1-.47-1.89,3.07,3.07,0,0,1,.81-2.23,2.89,2.89,0,0,1,2.18-.83,2.73,2.73,0,0,1,2.11.82,3.65,3.65,0,0,1,.79,2.38h-1.81a2.21,2.21,0,0,0-.26-1.13.92.92,0,0,0-.83-.37c-.71,0-1.07.42-1.07,1.26a1.5,1.5,0,0,0,.26.92,2.28,2.28,0,0,0,.89.62l.72.32a3.77,3.77,0,0,1,1.67,1.28,3.56,3.56,0,0,1,.52,2,3.27,3.27,0,0,1-.8,2.37,3,3,0,0,1-2.27.83,2.82,2.82,0,0,1-2.22-.85A3.51,3.51,0,0,1,757.44,433.13Z" style="fill:#4b5b5e"/><path d="M768,436.89a2.61,2.61,0,0,1-.6,1.2,2.12,2.12,0,0,1-1,.57,7,7,0,0,1-1.6.15h-.06v-1.63h.67c.56,0,.91-.15,1.07-.43l-2.35-8.92h2l1.14,5.14,1-5.14h2Z" style="fill:#4b5b5e"/><path d="M771,433.85v-.1h1.79v.1a1,1,0,0,0,.24.74.85.85,0,0,0,.67.27.82.82,0,0,0,.63-.23,1,1,0,0,0,.22-.69.93.93,0,0,0-.2-.58,1.59,1.59,0,0,0-.63-.44l-1-.42a3,3,0,0,1-1.35-1,2.59,2.59,0,0,1-.36-1.41,2.3,2.3,0,0,1,.72-1.73,2.92,2.92,0,0,1,3.77,0,2.37,2.37,0,0,1,.72,1.79v.16h-1.79v-.09a1.15,1.15,0,0,0-.22-.76.78.78,0,0,0-.61-.25.82.82,0,0,0-.59.21.79.79,0,0,0-.21.59.93.93,0,0,0,.16.56,1.37,1.37,0,0,0,.61.41l1,.45a3.07,3.07,0,0,1,1.31,1,2.49,2.49,0,0,1,.4,1.48,2.35,2.35,0,0,1-.73,1.8,2.69,2.69,0,0,1-2,.7,2.74,2.74,0,0,1-1.95-.68A2.46,2.46,0,0,1,771,433.85Z" style="fill:#4b5b5e"/><path d="M779.56,433.54a1,1,0,0,0,1.07,1.08h.06v1.66h-.06a3.33,3.33,0,0,1-2.19-.63,2.49,2.49,0,0,1-.74-2v-4.53h-1v-1.3h1v-1.49l1.86-.75v2.24h1.34v1.3h-1.34Z" style="fill:#4b5b5e"/><path d="M783.46,433.48c0,.86.28,1.3.83,1.3s.82-.36.82-1.08v-.08h1.79v.1a2.73,2.73,0,0,1-.67,2,2.63,2.63,0,0,1-1.94.68,2.56,2.56,0,0,1-2-.77,3.71,3.71,0,0,1-.71-2.54V431a3.91,3.91,0,0,1,.67-2.53,2.42,2.42,0,0,1,2-.8,2.5,2.5,0,0,1,2,.82A3.71,3.71,0,0,1,787,431v1.68h-3.5Zm0-2.74v.63h1.65v-.63a2,2,0,0,0-.21-1.05.71.71,0,0,0-.63-.32.67.67,0,0,0-.6.32A2,2,0,0,0,783.46,430.74Z" style="fill:#4b5b5e"/><path d="M790,427.83v.62a1.75,1.75,0,0,1,1.43-.75,1.95,1.95,0,0,1,1.65.88,2.75,2.75,0,0,1,.76-.63,1.75,1.75,0,0,1,.9-.25,1.94,1.94,0,0,1,1.64.64,3.09,3.09,0,0,1,.49,1.91v6H795v-6a.93.93,0,0,0-.21-.66.78.78,0,0,0-1.11,0,.93.93,0,0,0-.21.66v6h-1.86v-6a.89.89,0,0,0-.22-.66.68.68,0,0,0-.55-.23.7.7,0,0,0-.56.23.93.93,0,0,0-.21.66v6h-1.85v-8.45Z" style="fill:#4b5b5e"/><circle cx="777.33" cy="576.56" r="55" style="fill:#fff"/><path d="M765.72,563.1v9.27h-2V563.1h-1.92v-1.77h5.78v1.77Z" style="fill:#4b5b5e"/><path d="M767.42,569.44v-2.59a3.31,3.31,0,0,1,.69-2.34,3.12,3.12,0,0,1,4,0,3.35,3.35,0,0,1,.68,2.34v2.59a3.35,3.35,0,0,1-.68,2.34,3.12,3.12,0,0,1-4,0A3.31,3.31,0,0,1,767.42,569.44Zm3.5,0v-2.62a2,2,0,0,0-.21-1.05.74.74,0,0,0-1.23,0,2,2,0,0,0-.2,1.05v2.62a2,2,0,0,0,.2,1,.74.74,0,0,0,1.23,0A2,2,0,0,0,770.92,569.46Z" style="fill:#4b5b5e"/><path d="M774,569.44v-2.59a3.31,3.31,0,0,1,.69-2.34,3.14,3.14,0,0,1,4,0,3.35,3.35,0,0,1,.68,2.34v2.59a3.35,3.35,0,0,1-.68,2.34,3.14,3.14,0,0,1-4,0A3.31,3.31,0,0,1,774,569.44Zm3.51,0v-2.62a2,2,0,0,0-.21-1.05.69.69,0,0,0-.62-.33.68.68,0,0,0-.61.33,2,2,0,0,0-.21,1.05v2.62a2,2,0,0,0,.21,1,.68.68,0,0,0,.61.33.69.69,0,0,0,.62-.33A2,2,0,0,0,777.5,569.46Z" style="fill:#4b5b5e"/><path d="M780.62,561.33h1.85v8.31a.93.93,0,0,0,1,1.07h.08v1.66h-.1c-1.91,0-2.86-.87-2.86-2.62Z" style="fill:#4b5b5e"/><path d="M784.28,569.94v-.1h1.79v.1a1,1,0,0,0,.24.74.87.87,0,0,0,.68.27.85.85,0,0,0,.63-.23,1,1,0,0,0,.21-.68.88.88,0,0,0-.2-.59A1.7,1.7,0,0,0,787,569l-1-.42a2.86,2.86,0,0,1-1.34-1,2.47,2.47,0,0,1-.37-1.41,2.3,2.3,0,0,1,.72-1.73,2.93,2.93,0,0,1,3.78,0,2.37,2.37,0,0,1,.72,1.79v.16h-1.8v-.09a1.1,1.1,0,0,0-.22-.75.77.77,0,0,0-.61-.26.79.79,0,0,0-.58.21.76.76,0,0,0-.22.59,1,1,0,0,0,.16.56,1.46,1.46,0,0,0,.61.42l1,.44a3,3,0,0,1,1.31,1,2.51,2.51,0,0,1,.4,1.48,2.38,2.38,0,0,1-.72,1.8,2.7,2.7,0,0,1-2,.7,2.75,2.75,0,0,1-2-.68A2.46,2.46,0,0,1,784.28,569.94Z" style="fill:#4b5b5e"/><path d="M745.46,580.53a2.85,2.85,0,0,1,3.07,3.17v4.7a3,3,0,0,1-.88,2.36,3.24,3.24,0,0,1-2.29.81h-3v-11Zm.81,8.85a2.17,2.17,0,0,0,.29-1.2V584a2.36,2.36,0,0,0-.28-1.28,1,1,0,0,0-.87-.44h-1v7.5h1A1,1,0,0,0,746.27,589.38Z" style="fill:#4b5b5e"/><path d="M751.6,588.77c0,.87.28,1.3.84,1.3s.81-.36.81-1.07v-.08h1.8V589a2.73,2.73,0,0,1-.68,2,2.61,2.61,0,0,1-1.93.68,2.57,2.57,0,0,1-2-.77,3.71,3.71,0,0,1-.7-2.54v-2.07a4,4,0,0,1,.66-2.53,2.43,2.43,0,0,1,2-.8,2.52,2.52,0,0,1,2,.82,3.76,3.76,0,0,1,.71,2.51V588H751.6Zm0-2.74v.63h1.65V586a2,2,0,0,0-.21-1,.74.74,0,0,0-1.23,0A2,2,0,0,0,751.6,586Z" style="fill:#4b5b5e"/><path d="M757.62,583.12l1.06,5.49,1-5.49h2l-2.11,8.45h-2l-2.11-8.45Z" style="fill:#4b5b5e"/><path d="M764.08,588.77c0,.87.28,1.3.84,1.3s.81-.36.81-1.07v-.08h1.8V589a2.73,2.73,0,0,1-.68,2,2.61,2.61,0,0,1-1.93.68,2.57,2.57,0,0,1-2-.77,3.71,3.71,0,0,1-.7-2.54v-2.07a4,4,0,0,1,.66-2.53,2.43,2.43,0,0,1,2-.8,2.52,2.52,0,0,1,2,.82,3.76,3.76,0,0,1,.71,2.51V588h-3.51Zm0-2.74v.63h1.65V586a2,2,0,0,0-.21-1,.74.74,0,0,0-1.23,0A2,2,0,0,0,764.08,586Z" style="fill:#4b5b5e"/><path d="M768.85,580.53h1.86v8.31c0,.71.34,1.07,1,1.07h.08v1.66h-.1c-1.91,0-2.86-.87-2.86-2.62Z" style="fill:#4b5b5e"/><path d="M772.64,588.64v-2.59a3.31,3.31,0,0,1,.69-2.34,2.65,2.65,0,0,1,2-.72,2.59,2.59,0,0,1,2,.72,3.31,3.31,0,0,1,.68,2.34v2.59a3.31,3.31,0,0,1-.68,2.34,2.59,2.59,0,0,1-2,.72,2.65,2.65,0,0,1-2-.72A3.31,3.31,0,0,1,772.64,588.64Zm3.51,0V586a2,2,0,0,0-.21-1,.7.7,0,0,0-.63-.33.67.67,0,0,0-.6.33,2,2,0,0,0-.21,1v2.63a2,2,0,0,0,.21,1.05.67.67,0,0,0,.6.33.7.7,0,0,0,.63-.33A2,2,0,0,0,776.15,588.66Z" style="fill:#4b5b5e"/><path d="M781.06,583.12v.67a1.71,1.71,0,0,1,1.49-.8,1.8,1.8,0,0,1,1.47.66,3.26,3.26,0,0,1,.54,2.08V589A3.12,3.12,0,0,1,784,591a1.87,1.87,0,0,1-1.48.66,1.75,1.75,0,0,1-1.4-.64v3h-1.85v-11Zm1.65,5.54V586a2.07,2.07,0,0,0-.2-1,.66.66,0,0,0-.6-.33.68.68,0,0,0-.61.33,2,2,0,0,0-.21,1v2.63c0,.92.27,1.38.82,1.38a.67.67,0,0,0,.6-.32A2.16,2.16,0,0,0,782.71,588.66Z" style="fill:#4b5b5e"/><path d="M787.6,583.12v.63A1.73,1.73,0,0,1,789,583a1.91,1.91,0,0,1,.94.24,2,2,0,0,1,.71.64,2.75,2.75,0,0,1,.76-.63,1.85,1.85,0,0,1,.9-.25,1.94,1.94,0,0,1,1.64.64,3.11,3.11,0,0,1,.49,1.91v6h-1.86v-6a1,1,0,0,0-.21-.66.78.78,0,0,0-1.11,0,1,1,0,0,0-.21.66v6h-1.86v-6a.91.91,0,0,0-.22-.66.72.72,0,0,0-.55-.23.74.74,0,0,0-.56.23,1,1,0,0,0-.21.66v6h-1.85v-8.45Z" style="fill:#4b5b5e"/><path d="M797.59,588.77c0,.87.27,1.3.83,1.3s.81-.36.81-1.07v-.08H801V589a2.77,2.77,0,0,1-.67,2,2.63,2.63,0,0,1-1.94.68,2.57,2.57,0,0,1-2-.77,3.71,3.71,0,0,1-.7-2.54v-2.07a4,4,0,0,1,.66-2.53,2.46,2.46,0,0,1,2-.8,2.52,2.52,0,0,1,2,.82,3.71,3.71,0,0,1,.71,2.51V588h-3.5Zm0-2.74v.63h1.64V586a2,2,0,0,0-.2-1,.7.7,0,0,0-.63-.33.66.66,0,0,0-.6.33A2,2,0,0,0,797.59,586Z" style="fill:#4b5b5e"/><path d="M804.13,583.12v.63a1.74,1.74,0,0,1,1.41-.76c1.38,0,2.06.85,2.06,2.55v6h-1.85v-6a.91.91,0,0,0-.22-.66.73.73,0,0,0-.55-.23.72.72,0,0,0-.56.23,1,1,0,0,0-.21.66v6h-1.86v-8.45Z" style="fill:#4b5b5e"/><path d="M811.2,588.84a1,1,0,0,0,1.08,1.07h.06v1.66h-.06a3.31,3.31,0,0,1-2.19-.63,2.46,2.46,0,0,1-.74-2v-4.53h-1v-1.3h1v-1.49l1.85-.75v2.24h1.35v1.3H811.2Z" style="fill:#4b5b5e"/><circle cx="777.33" cy="731.85" r="55" style="fill:#fff"/><path d="M746.8,737.24h-2v-4.73h-2.08v4.73h-2v-11h2v4.54h2.08V726.2h2Z" style="fill:#295ca7"/><path d="M751.55,737.85a2.61,2.61,0,0,1-.6,1.2,2.14,2.14,0,0,1-1,.57,7.16,7.16,0,0,1-1.61.15h-.06v-1.63h.67c.56,0,.92-.14,1.08-.43l-2.36-8.92h2.05l1.14,5.14,1-5.14h2Z" style="fill:#295ca7"/><path d="M754.3,734.63V731.4a3.2,3.2,0,0,1,.55-2.08,1.83,1.83,0,0,1,1.48-.66,1.63,1.63,0,0,1,.83.21,1.52,1.52,0,0,1,.59.59V726.2h1.85v11h-1.78v-.59a1.92,1.92,0,0,1-3,.06A3.12,3.12,0,0,1,754.3,734.63Zm3.49-2.93a2,2,0,0,0-.21-1,.69.69,0,0,0-.62-.33.68.68,0,0,0-.61.33,2.07,2.07,0,0,0-.2,1v2.63a2.16,2.16,0,0,0,.2,1.06.69.69,0,0,0,.62.32c.54,0,.82-.46.82-1.38Z" style="fill:#295ca7"/><path d="M762.68,728.79v.79a2,2,0,0,1,.73-.73,1.89,1.89,0,0,1,.94-.22,2.49,2.49,0,0,1,.57.06v2a2.37,2.37,0,0,0-.85-.16,1.26,1.26,0,0,0-1,.37,1.49,1.49,0,0,0-.36,1.07v5.31h-1.85v-8.45Z" style="fill:#295ca7"/><path d="M765.59,734.31v-2.59a3.31,3.31,0,0,1,.69-2.34,3.14,3.14,0,0,1,4,0,3.35,3.35,0,0,1,.68,2.34v2.59a3.35,3.35,0,0,1-.68,2.34,3.14,3.14,0,0,1-4,0A3.31,3.31,0,0,1,765.59,734.31Zm3.51,0V731.7a2,2,0,0,0-.21-1,.69.69,0,0,0-.62-.33.68.68,0,0,0-.61.33,2,2,0,0,0-.21,1v2.63a2,2,0,0,0,.21,1,.68.68,0,0,0,.61.33.69.69,0,0,0,.62-.33A2,2,0,0,0,769.1,734.33Z" style="fill:#295ca7"/><path d="M772.31,737.53H774a.79.79,0,0,0,.21.59.82.82,0,0,0,.61.21.77.77,0,0,0,.62-.25,1.21,1.21,0,0,0,.21-.76v-1.45a1.84,1.84,0,0,1-1.46.72,1.88,1.88,0,0,1-1.49-.66,3.13,3.13,0,0,1-.57-2.08V731.4a3.2,3.2,0,0,1,.55-2.08,1.83,1.83,0,0,1,1.48-.66,1.69,1.69,0,0,1,.84.21,1.67,1.67,0,0,1,.59.59v-.67h1.84v8.36a2.85,2.85,0,0,1-.7,2,2.5,2.5,0,0,1-1.93.75,2.58,2.58,0,0,1-1.83-.61A2.43,2.43,0,0,1,772.31,737.53Zm3.35-5.83a2,2,0,0,0-.21-1,.69.69,0,0,0-.62-.33.65.65,0,0,0-.6.33,2,2,0,0,0-.2,1v1.85a2,2,0,0,0,.2,1.05.66.66,0,0,0,.61.32c.55,0,.82-.46.82-1.37Z" style="fill:#295ca7"/><path d="M780.59,734.44c0,.87.27,1.3.83,1.3s.81-.36.81-1.07v-.08H784v.09a2.77,2.77,0,0,1-.67,2,2.63,2.63,0,0,1-1.94.68,2.57,2.57,0,0,1-2-.77,3.71,3.71,0,0,1-.7-2.54V732a4,4,0,0,1,.66-2.53,2.46,2.46,0,0,1,2-.8,2.52,2.52,0,0,1,2,.82,3.76,3.76,0,0,1,.71,2.51v1.68h-3.5Zm0-2.74v.63h1.64v-.63a2,2,0,0,0-.2-1,.7.7,0,0,0-.63-.33.69.69,0,0,0-.61.33A2.07,2.07,0,0,0,780.59,731.7Z" style="fill:#295ca7"/><path d="M785.31,734.31v-2.59a3.35,3.35,0,0,1,.68-2.34,3.14,3.14,0,0,1,4,0,3.35,3.35,0,0,1,.68,2.34v2.59a3.35,3.35,0,0,1-.68,2.34,3.14,3.14,0,0,1-4,0A3.35,3.35,0,0,1,785.31,734.31Zm3.5,0V731.7a2,2,0,0,0-.21-1,.74.74,0,0,0-1.23,0,2,2,0,0,0-.21,1v2.63a2,2,0,0,0,.21,1,.74.74,0,0,0,1.23,0A2,2,0,0,0,788.81,734.33Z" style="fill:#295ca7"/><path d="M791.93,726.2h1.86v8.31c0,.71.34,1.07,1,1.07h.08v1.66h-.1c-1.91,0-2.86-.87-2.86-2.62Z" style="fill:#295ca7"/><path d="M795.72,734.31v-2.59a3.31,3.31,0,0,1,.69-2.34,3.12,3.12,0,0,1,4,0,3.31,3.31,0,0,1,.68,2.34v2.59a3.31,3.31,0,0,1-.68,2.34,3.12,3.12,0,0,1-4,0A3.31,3.31,0,0,1,795.72,734.31Zm3.51,0V731.7a2,2,0,0,0-.21-1,.7.7,0,0,0-.63-.33.66.66,0,0,0-.6.33,2,2,0,0,0-.21,1v2.63a2,2,0,0,0,.21,1,.66.66,0,0,0,.6.33.7.7,0,0,0,.63-.33A2,2,0,0,0,799.23,734.33Z" style="fill:#295ca7"/><path d="M802.44,737.53h1.73a.79.79,0,0,0,.21.59.82.82,0,0,0,.61.21.75.75,0,0,0,.61-.25,1.15,1.15,0,0,0,.22-.76v-1.45a1.92,1.92,0,0,1-3,.06,3.13,3.13,0,0,1-.57-2.08V731.4a3.2,3.2,0,0,1,.55-2.08,1.83,1.83,0,0,1,1.48-.66,1.63,1.63,0,0,1,.83.21,1.59,1.59,0,0,1,.59.59v-.67h1.84v8.36a2.89,2.89,0,0,1-.69,2,2.52,2.52,0,0,1-1.93.75,2.58,2.58,0,0,1-1.83-.61A2.36,2.36,0,0,1,802.44,737.53Zm3.35-5.83a2,2,0,0,0-.21-1,.7.7,0,0,0-.63-.33.67.67,0,0,0-.6.33,2.07,2.07,0,0,0-.2,1v1.85a2.09,2.09,0,0,0,.2,1.05.67.67,0,0,0,.62.32c.54,0,.82-.46.82-1.37Z" style="fill:#295ca7"/><path d="M812.09,737.85a2.61,2.61,0,0,1-.6,1.2,2.09,2.09,0,0,1-1,.57,7.06,7.06,0,0,1-1.6.15h-.07v-1.63h.68c.55,0,.91-.14,1.07-.43l-2.36-8.92h2.05l1.14,5.14,1.06-5.14h2Z" style="fill:#295ca7"/><circle cx="777.33" cy="887.14" r="55" style="fill:#fff"/><path d="M738.84,888.11v4.44h-2v-11h3a2.93,2.93,0,0,1,2.32.79,3.8,3.8,0,0,1,.68,2.51,4.72,4.72,0,0,1-.31,1.84,2.09,2.09,0,0,1-1,1.1l1.65,4.81h-2.05l-1.39-4.44Zm1-1.76a.85.85,0,0,0,.81-.39,2.37,2.37,0,0,0,.23-1.16,2.32,2.32,0,0,0-.22-1.15.85.85,0,0,0-.82-.39h-1v3.09Z" style="fill:#295ca7"/><path d="M746,881.5v1.55h-1.86V881.5Zm0,2.59v8.46h-1.86v-8.46Z" style="fill:#295ca7"/><path d="M748.73,884.09l1.06,5.49,1-5.49h2l-2.12,8.46h-2l-2.12-8.46Z" style="fill:#295ca7"/><path d="M755.2,889.74c0,.87.27,1.3.83,1.3s.81-.36.81-1.07v-.08h1.8V890a2.73,2.73,0,0,1-.68,2,3,3,0,0,1-3.92-.09,3.71,3.71,0,0,1-.7-2.54V887.3a3.93,3.93,0,0,1,.66-2.53,2.41,2.41,0,0,1,2-.8,2.55,2.55,0,0,1,2,.81,3.79,3.79,0,0,1,.71,2.52V889h-3.5Zm0-2.73v.62h1.64V887a2,2,0,0,0-.21-1,.74.74,0,0,0-1.23,0A2,2,0,0,0,755.2,887Z" style="fill:#295ca7"/><path d="M761.74,884.09v.79a2,2,0,0,1,.73-.73,2,2,0,0,1,.93-.22,2.49,2.49,0,0,1,.58.07v2a2.37,2.37,0,0,0-.85-.16,1.27,1.27,0,0,0-1,.38,1.46,1.46,0,0,0-.36,1.06v5.32H760v-8.46Z" style="fill:#295ca7"/><path d="M767.61,889.5v-5a3.06,3.06,0,0,1,.88-2.38,3.3,3.3,0,0,1,2.32-.81,3.14,3.14,0,0,1,2.23.8,3.21,3.21,0,0,1,.84,2.43v.34h-2v-.32a1.65,1.65,0,0,0-.32-1.11,1,1,0,0,0-.84-.36,1,1,0,0,0-.9.43,2.39,2.39,0,0,0-.28,1.3v4.43c0,1.08.39,1.62,1.18,1.62a1.05,1.05,0,0,0,.84-.37,1.65,1.65,0,0,0,.32-1.09v-.29h2v.31a3.08,3.08,0,0,1-.89,2.4,3.25,3.25,0,0,1-2.28.81,2.85,2.85,0,0,1-3.09-3.17Z" style="fill:#295ca7"/><path d="M775.1,889.62V887a3.29,3.29,0,0,1,.69-2.33,3.12,3.12,0,0,1,4,0,3.34,3.34,0,0,1,.68,2.33v2.6a3.34,3.34,0,0,1-.68,2.33,3.12,3.12,0,0,1-4,0A3.29,3.29,0,0,1,775.1,889.62Zm3.5,0V887a2,2,0,0,0-.21-1,.74.74,0,0,0-1.23,0,2,2,0,0,0-.2,1v2.62a2,2,0,0,0,.2,1,.74.74,0,0,0,1.23,0A2,2,0,0,0,778.6,889.63Z" style="fill:#295ca7"/><path d="M783.5,884.09v.79a2,2,0,0,1,.73-.73,2,2,0,0,1,.93-.22,2.49,2.49,0,0,1,.58.07v2a2.37,2.37,0,0,0-.85-.16,1.27,1.27,0,0,0-.95.38,1.46,1.46,0,0,0-.36,1.06v5.32h-1.86v-8.46Z" style="fill:#295ca7"/><path d="M788.39,884.09v.79a1.82,1.82,0,0,1,1.67-1,2.47,2.47,0,0,1,.57.07v2a2.31,2.31,0,0,0-.84-.16,1.27,1.27,0,0,0-1,.38,1.46,1.46,0,0,0-.36,1.06v5.32h-1.85v-8.46Z" style="fill:#295ca7"/><path d="M793.43,881.5v1.55h-1.85V881.5Zm0,2.59v8.46h-1.85v-8.46Z" style="fill:#295ca7"/><path d="M794.76,889.94V886.7a3.26,3.26,0,0,1,.55-2.08,1.84,1.84,0,0,1,1.48-.65,1.8,1.8,0,0,1,.84.2,1.62,1.62,0,0,1,.59.6V881.5h1.84v11h-1.78V892a1.84,1.84,0,0,1-1.45.72,1.91,1.91,0,0,1-1.5-.65A3.13,3.13,0,0,1,794.76,889.94Zm3.49-2.93a2,2,0,0,0-.21-1,.68.68,0,0,0-.62-.33.65.65,0,0,0-.6.33,2,2,0,0,0-.2,1v2.62a2,2,0,0,0,.2,1.06.68.68,0,0,0,.61.32c.55,0,.82-.46.82-1.38Z" style="fill:#295ca7"/><path d="M801.32,889.62V887a3.29,3.29,0,0,1,.69-2.33,3.12,3.12,0,0,1,4,0,3.29,3.29,0,0,1,.68,2.33v2.6A3.29,3.29,0,0,1,806,892a3.12,3.12,0,0,1-4,0A3.29,3.29,0,0,1,801.32,889.62Zm3.51,0V887a2,2,0,0,0-.21-1,.7.7,0,0,0-.63-.33.69.69,0,0,0-.61.33,2.14,2.14,0,0,0-.2,1v2.62a2.14,2.14,0,0,0,.2,1,.69.69,0,0,0,.61.33.7.7,0,0,0,.63-.33A2,2,0,0,0,804.83,889.63Z" style="fill:#295ca7"/><path d="M809.72,884.09v.79a2,2,0,0,1,.73-.73,2,2,0,0,1,.94-.22,2.47,2.47,0,0,1,.57.07v2a2.37,2.37,0,0,0-.85-.16,1.27,1.27,0,0,0-1,.38,1.46,1.46,0,0,0-.36,1.06v5.32H808v-8.46Z" style="fill:#295ca7"/><path d="M812.67,890.11V890h1.79v.09a1.09,1.09,0,0,0,.24.75.87.87,0,0,0,.67.26.82.82,0,0,0,.63-.23,1.06,1.06,0,0,0,0-1.27,1.88,1.88,0,0,0-.63-.44l-1-.41a3,3,0,0,1-1.35-1,2.55,2.55,0,0,1-.37-1.41,2.3,2.3,0,0,1,.72-1.73,3,3,0,0,1,3.78,0,2.38,2.38,0,0,1,.72,1.8v.16h-1.79v-.1a1.1,1.1,0,0,0-.23-.75.75.75,0,0,0-.6-.26.82.82,0,0,0-.59.21.8.8,0,0,0-.21.59.91.91,0,0,0,.16.56,1.36,1.36,0,0,0,.6.42l1,.45a3,3,0,0,1,1.32,1,2.54,2.54,0,0,1,.4,1.48,2.38,2.38,0,0,1-.73,1.8,3.15,3.15,0,0,1-3.92,0A2.49,2.49,0,0,1,812.67,890.11Z" style="fill:#295ca7"/><circle cx="777.33" cy="1042.43" r="55" style="fill:#fff"/><path d="M87.53,412.41H83.1l-5.18-13.25v13.25H73.49V387.57h4.43L83.1,401.4V387.57h4.43Z" style="fill:#414042"/><path d="M94.87,407.59l-1,4.82h-4.6l6.37-24.84H100l6.33,24.84h-4.6l-1-4.82Zm2.92-14L95.7,403.63h4.18Z" style="fill:#414042"/><path d="M113.81,391.57v20.84h-4.39V391.57H105.1v-4h13v4Z" style="fill:#414042"/><path d="M124.28,387.57v24.84h-4.39V387.57Z" style="fill:#414042"/><path d="M127.31,405.57V394.38a6.89,6.89,0,0,1,2-5.35,7.43,7.43,0,0,1,5.22-1.82,7,7,0,0,1,5,1.82,7.08,7.08,0,0,1,1.89,5.35v11.19a6.82,6.82,0,0,1-2,5.29,7.3,7.3,0,0,1-5.17,1.84,7,7,0,0,1-5.07-1.82A7.06,7.06,0,0,1,127.31,405.57Zm9.68-.5v-10a5.32,5.32,0,0,0-.65-2.9,2.16,2.16,0,0,0-1.94-1,2.24,2.24,0,0,0-2,1,5.44,5.44,0,0,0-.63,2.92v10q0,3.63,2.67,3.63a2.2,2.2,0,0,0,1.92-.95A4.6,4.6,0,0,0,137,405.07Z" style="fill:#414042"/><path d="M158.34,412.41h-4.43l-5.18-13.25v13.25H144.3V387.57h4.43l5.18,13.83V387.57h4.43Z" style="fill:#414042"/><path d="M165.68,407.59l-1,4.82h-4.6l6.37-24.84h4.32l6.33,24.84h-4.6l-1-4.82Zm2.92-14-2.09,10.08h4.18Z" style="fill:#414042"/><path d="M183.25,387.57v20.88h6.66v4H178.82V387.57Z" style="fill:#414042"/><path d="M211.87,412.41h-4.43V401.76h-4.68v10.65h-4.43V387.57h4.43V397.8h4.68V387.57h4.43Z" style="fill:#414042"/><path d="M223.06,412.41h-4.42v-9.75l-5-15.09h4.86l2.37,9.51,2.38-9.51h4.89l-5,15.16Z" style="fill:#414042"/><path d="M236.71,387.57a6.41,6.41,0,0,1,6.91,7.13v10.58a6.84,6.84,0,0,1-2,5.31,7.33,7.33,0,0,1-5.15,1.82h-6.66V387.57Zm1.82,19.91a4.77,4.77,0,0,0,.66-2.7v-9.32a5.32,5.32,0,0,0-.65-2.9,2.16,2.16,0,0,0-1.94-1h-2.38v16.88h2.38A2.2,2.2,0,0,0,238.53,407.48Z" style="fill:#414042"/><path d="M250.93,402.44v10H246.5V387.57h6.77c2.44,0,4.18.59,5.2,1.77S260,392.4,260,395a10.85,10.85,0,0,1-.69,4.14,4.79,4.79,0,0,1-2.23,2.48l3.71,10.8h-4.61l-3.13-10Zm2.3-4a1.93,1.93,0,0,0,1.84-.88,7.14,7.14,0,0,0,0-5.2,2,2,0,0,0-1.86-.87h-2.3v7Z" style="fill:#414042"/><path d="M262.92,405.57V394.38a6.89,6.89,0,0,1,2-5.35,7.43,7.43,0,0,1,5.22-1.82,7,7,0,0,1,5,1.82,7.08,7.08,0,0,1,1.89,5.35v11.19a6.82,6.82,0,0,1-2,5.29,7.3,7.3,0,0,1-5.17,1.84,7,7,0,0,1-5.07-1.82A7.06,7.06,0,0,1,262.92,405.57Zm9.68-.5v-10a5.32,5.32,0,0,0-.65-2.9,2.16,2.16,0,0,0-1.94-1,2.24,2.24,0,0,0-2,1,5.44,5.44,0,0,0-.63,2.92v10q0,3.63,2.67,3.63a2.2,2.2,0,0,0,1.92-.95A4.6,4.6,0,0,0,272.6,405.07Z" style="fill:#414042"/><path d="M284.34,387.57v20.88H291v4H279.91V387.57Z" style="fill:#414042"/><path d="M292.15,405.57V394.38a6.89,6.89,0,0,1,2-5.35,7.43,7.43,0,0,1,5.22-1.82,7,7,0,0,1,5,1.82,7.08,7.08,0,0,1,1.89,5.35v11.19a6.82,6.82,0,0,1-2,5.29,7.3,7.3,0,0,1-5.17,1.84,7,7,0,0,1-5.07-1.82A7.06,7.06,0,0,1,292.15,405.57Zm9.68-.5v-10a5.32,5.32,0,0,0-.65-2.9,2.16,2.16,0,0,0-1.94-1,2.24,2.24,0,0,0-2,1,5.44,5.44,0,0,0-.63,2.92v10q0,3.63,2.67,3.63a2.2,2.2,0,0,0,1.92-.95A4.6,4.6,0,0,0,301.83,405.07Z" style="fill:#414042"/><path d="M309,405.57V394.38a6.89,6.89,0,0,1,2-5.35,7.43,7.43,0,0,1,5.22-1.82,7.07,7.07,0,0,1,5,1.77,6.75,6.75,0,0,1,1.91,5.22V395h-4.43v-.75A3.15,3.15,0,0,0,318,392a2.46,2.46,0,0,0-1.87-.77,2.24,2.24,0,0,0-2,1,5.44,5.44,0,0,0-.63,2.92v10q0,3.63,2.67,3.63a2.24,2.24,0,0,0,1.94-.88,4.25,4.25,0,0,0,.65-2.54v-2.62h-2.63v-3.5h7.06v6.41a6.82,6.82,0,0,1-2,5.29,7.32,7.32,0,0,1-5.17,1.84,7,7,0,0,1-5.07-1.82A7.06,7.06,0,0,1,309,405.57Z" style="fill:#414042"/><path d="M330.52,387.57v24.84h-4.39V387.57Z" style="fill:#414042"/><path d="M333.55,405.57V394.38a6.89,6.89,0,0,1,2-5.35,7.43,7.43,0,0,1,5.22-1.82,7,7,0,0,1,5,1.8c1.27,1.2,1.91,3,1.91,5.47v.76h-4.43v-.72a3.73,3.73,0,0,0-.7-2.5,2.38,2.38,0,0,0-1.89-.81,2.24,2.24,0,0,0-2,1,5.44,5.44,0,0,0-.63,2.92v10q0,3.63,2.67,3.63a2.36,2.36,0,0,0,1.89-.82,3.71,3.71,0,0,0,.7-2.45v-.65h4.39v.68a6.93,6.93,0,0,1-2,5.42,7.33,7.33,0,0,1-5.13,1.82,7,7,0,0,1-5.07-1.82A7.06,7.06,0,0,1,333.55,405.57Z" style="fill:#414042"/><path d="M93,448.77V437.58a6.89,6.89,0,0,1,2-5.35,7.43,7.43,0,0,1,5.22-1.82,7.06,7.06,0,0,1,5,1.77,6.75,6.75,0,0,1,1.91,5.22v.75h-4.43v-.75a3.15,3.15,0,0,0-.72-2.22,2.46,2.46,0,0,0-1.87-.77,2.24,2.24,0,0,0-2,1,5.44,5.44,0,0,0-.63,2.92v10q0,3.63,2.67,3.63A2.24,2.24,0,0,0,102,451a4.25,4.25,0,0,0,.65-2.54v-2.62H100v-3.5h7.06v6.41a6.82,6.82,0,0,1-2,5.29,7.32,7.32,0,0,1-5.17,1.84,7,7,0,0,1-5.07-1.82A7.06,7.06,0,0,1,93,448.77Z" style="fill:#414042"/><path d="M114.33,441h5.76v4h-5.76v6.69H121v4H109.94V430.77H121v4h-6.69Z" style="fill:#414042"/><path d="M123.29,448.77V437.58a6.89,6.89,0,0,1,2-5.35,7.43,7.43,0,0,1,5.22-1.82,6.94,6.94,0,0,1,5,1.82,7.08,7.08,0,0,1,1.89,5.35v11.19a6.81,6.81,0,0,1-2,5.29,7.34,7.34,0,0,1-5.17,1.84,7,7,0,0,1-5.07-1.82A7.06,7.06,0,0,1,123.29,448.77Zm9.69-.5v-10a5.32,5.32,0,0,0-.65-2.9,2.17,2.17,0,0,0-2-1,2.24,2.24,0,0,0-2,1,5.44,5.44,0,0,0-.63,2.92v10q0,3.63,2.66,3.63a2.19,2.19,0,0,0,1.93-.95A4.67,4.67,0,0,0,133,448.27Z" style="fill:#414042"/><path d="M139.46,448.52h4.17a4.81,4.81,0,0,0,.74,2.7,2.31,2.31,0,0,0,2,.86,2.19,2.19,0,0,0,1.89-.79,4.21,4.21,0,0,0,.6-2.52,3.6,3.6,0,0,0-.67-2.28,5.85,5.85,0,0,0-2.25-1.57l-1.69-.76a7.83,7.83,0,0,1-3.47-2.66,7.51,7.51,0,0,1-1.07-4.25,6.89,6.89,0,0,1,1.82-5,6.52,6.52,0,0,1,4.91-1.87,6.09,6.09,0,0,1,4.74,1.85,8.15,8.15,0,0,1,1.78,5.35h-4.07a4.82,4.82,0,0,0-.59-2.54,2,2,0,0,0-1.86-.85c-1.6,0-2.41.95-2.41,2.85a3.31,3.31,0,0,0,.6,2.07,5,5,0,0,0,2,1.38l1.62.72a8.65,8.65,0,0,1,3.77,2.88,8.09,8.09,0,0,1,1.17,4.61,7.39,7.39,0,0,1-1.8,5.33,6.81,6.81,0,0,1-5.12,1.87,6.41,6.41,0,0,1-5-1.91A8,8,0,0,1,139.46,448.52Z" style="fill:#414042"/><path d="M169.12,438.59q0,3.95-1.6,5.9t-5.2,1.94H160v9.18h-4.39V430.77h6.7c2.44,0,4.19.65,5.23,2S169.12,436,169.12,438.59Zm-4.43,0a5.77,5.77,0,0,0-.56-2.92,2.09,2.09,0,0,0-2-.94H160v7.71h2.16a2.09,2.09,0,0,0,2-.94A5.78,5.78,0,0,0,164.69,438.59Z" style="fill:#414042"/><path d="M174.12,450.79l-1,4.82h-4.61l6.37-24.84h4.32l6.34,24.84h-4.61l-1-4.82Zm2.92-14L175,446.83h4.18Z" style="fill:#414042"/><path d="M193.06,434.77v20.84h-4.39V434.77h-4.32v-4h13v4Z" style="fill:#414042"/><path d="M203.54,430.77v24.84h-4.4V430.77Z" style="fill:#414042"/><path d="M211,450.79l-1,4.82h-4.6l6.37-24.84h4.32l6.33,24.84h-4.6l-1-4.82Zm2.92-14-2.09,10.08H216Z" style="fill:#414042"/><path d="M228.59,430.77v20.88h6.66v4H224.16V430.77Z" style="fill:#414042"/><path d="M248.1,441.1h5.76v4H248.1v10.51h-4.43V430.77h11.09v4H248.1Z" style="fill:#414042"/><path d="M260.27,450.79l-1,4.82h-4.61L261,430.77h4.32l6.34,24.84h-4.61l-1-4.82Zm2.91-14-2.08,10.08h4.17Z" style="fill:#414042"/><path d="M286.94,448.41q0,3.78-1.54,5.49t-5.26,1.71h-6.73V430.77h6.73q3.63,0,5.18,1.61c1,1.06,1.55,2.76,1.55,5.09a7.25,7.25,0,0,1-.61,3.13,4.13,4.13,0,0,1-2.09,2,4,4,0,0,1,2.2,2.12A10.07,10.07,0,0,1,286.94,448.41Zm-9.14-7.67h1.87a2.76,2.76,0,0,0,2.16-.7,3.44,3.44,0,0,0,.61-2.28,3.48,3.48,0,0,0-.61-2.34,2.8,2.8,0,0,0-2.16-.69H277.8Zm4.72,7.35a4.34,4.34,0,0,0-.67-2.7,2.68,2.68,0,0,0-2.21-.83H277.8v7.09h1.84a2.67,2.67,0,0,0,2.26-.81A4.66,4.66,0,0,0,282.52,448.09Z" style="fill:#414042"/><path d="M294.25,445.64v10h-4.42V430.77h6.76q3.68,0,5.2,1.77c1,1.17,1.53,3.06,1.53,5.65a10.87,10.87,0,0,1-.68,4.14,4.83,4.83,0,0,1-2.23,2.48l3.71,10.8h-4.61l-3.13-10Zm2.31-4a1.92,1.92,0,0,0,1.83-.88,5.33,5.33,0,0,0,.51-2.61,5.45,5.45,0,0,0-.49-2.59,1.92,1.92,0,0,0-1.85-.87h-2.31v6.95Z" style="fill:#414042"/><path d="M310.92,430.77v24.84h-4.39V430.77Z" style="fill:#414042"/><path d="M313.94,448.77V437.58a6.89,6.89,0,0,1,2-5.35,7.43,7.43,0,0,1,5.22-1.82,7,7,0,0,1,5,1.8c1.27,1.2,1.9,3,1.9,5.47v.76h-4.42v-.72a3.73,3.73,0,0,0-.71-2.5,2.34,2.34,0,0,0-1.88-.81,2.24,2.24,0,0,0-2,1,5.44,5.44,0,0,0-.63,2.92v10q0,3.63,2.67,3.63a2.32,2.32,0,0,0,1.88-.82,3.71,3.71,0,0,0,.71-2.45V448H328v.68a7,7,0,0,1-2,5.42,7.33,7.33,0,0,1-5.13,1.82,7,7,0,0,1-5.07-1.82A7.06,7.06,0,0,1,313.94,448.77Z" style="fill:#414042"/><path d="M756.29,1017.66a2.85,2.85,0,0,1,3.08,3.17v4.71a3.08,3.08,0,0,1-.88,2.36,3.25,3.25,0,0,1-2.29.81h-3v-11.05Zm.81,8.85a2,2,0,0,0,.3-1.2v-4.14a2.37,2.37,0,0,0-.29-1.29,1,1,0,0,0-.86-.44h-1.06V1027h1.06A1,1,0,0,0,757.1,1026.51Z" style="fill:#295ca7"/><path d="M764.05,1029.32a2.51,2.51,0,0,1-.6,1.2,2.11,2.11,0,0,1-1,.56,6.47,6.47,0,0,1-1.6.16h-.06v-1.64h.67c.55,0,.91-.14,1.07-.43l-2.35-8.91h2.05l1.13,5.13,1.06-5.13h2Z" style="fill:#295ca7"/><path d="M768.79,1020.26v.62a1.74,1.74,0,0,1,1.41-.75c1.37,0,2.06.85,2.06,2.54v6h-1.85v-6a1,1,0,0,0-.22-.67.73.73,0,0,0-.55-.23.71.71,0,0,0-.56.23,1,1,0,0,0-.21.67v6H767v-8.45Z" style="fill:#295ca7"/><path d="M778.74,1022.82v5.89H777V1028a2.53,2.53,0,0,1-.65.63,1.52,1.52,0,0,1-.84.21,1.9,1.9,0,0,1-1.59-.69,3,3,0,0,1-.53-1.92,2.37,2.37,0,0,1,.72-1.84,3,3,0,0,1,2.06-.64h.7v-1.08a1,1,0,0,0-.2-.68.72.72,0,0,0-.58-.23.77.77,0,0,0-.56.22.87.87,0,0,0-.21.61v.13h-1.71v-.06a2.4,2.4,0,0,1,.7-1.89,2.6,2.6,0,0,1,1.83-.64,2.47,2.47,0,0,1,1.91.73A2.76,2.76,0,0,1,778.74,1022.82Zm-1.86,3.36V1025h-.48a1.27,1.27,0,0,0-.85.26,1.06,1.06,0,0,0-.3.85,1.31,1.31,0,0,0,.21.8.72.72,0,0,0,.61.27.71.71,0,0,0,.58-.28A1.13,1.13,0,0,0,776.88,1026.18Z" style="fill:#295ca7"/><path d="M781.83,1020.26v.62a1.73,1.73,0,0,1,1.42-.75,2.05,2.05,0,0,1,1,.23,1.82,1.82,0,0,1,.7.65,2.69,2.69,0,0,1,.76-.63,1.81,1.81,0,0,1,.91-.25,1.93,1.93,0,0,1,1.64.64,3.13,3.13,0,0,1,.49,1.9v6h-1.86v-6a.93.93,0,0,0-.22-.67.77.77,0,0,0-1.1,0,.93.93,0,0,0-.22.67v6h-1.85v-6a1,1,0,0,0-.22-.67.73.73,0,0,0-.55-.23.71.71,0,0,0-.56.23,1,1,0,0,0-.21.67v6h-1.86v-8.45Z" style="fill:#295ca7"/><path d="M791.92,1017.66v1.56h-1.85v-1.56Zm0,2.6v8.45h-1.85v-8.45Z" style="fill:#295ca7"/><path d="M793.25,1025.78v-2.6a3.29,3.29,0,0,1,.69-2.33,2.65,2.65,0,0,1,2-.72,2.6,2.6,0,0,1,1.94.69,2.81,2.81,0,0,1,.67,2.06v.32h-1.79v-.29a1.34,1.34,0,0,0-.22-.84.72.72,0,0,0-.6-.28.68.68,0,0,0-.62.33,2,2,0,0,0-.21,1v2.62a2,2,0,0,0,.21,1,.67.67,0,0,0,.6.33.72.72,0,0,0,.62-.28,1.36,1.36,0,0,0,.22-.86v-.27h1.79v.27a2.92,2.92,0,0,1-.67,2.11,2.6,2.6,0,0,1-1.94.7,2.69,2.69,0,0,1-2-.72A3.32,3.32,0,0,1,793.25,1025.78Z" style="fill:#295ca7"/><path d="M751,1036.86v9.29h3v1.76h-4.93v-11.05Z" style="fill:#295ca7"/><path d="M759.94,1042v5.89h-1.73v-.71a2.77,2.77,0,0,1-.65.64,1.61,1.61,0,0,1-.84.2,1.9,1.9,0,0,1-1.59-.69,3,3,0,0,1-.53-1.92,2.37,2.37,0,0,1,.72-1.84,3,3,0,0,1,2.06-.64h.71v-1.08a1,1,0,0,0-.21-.68.72.72,0,0,0-.58-.23.77.77,0,0,0-.56.22.87.87,0,0,0-.21.61v.13h-1.71v-.06a2.4,2.4,0,0,1,.7-1.89,2.6,2.6,0,0,1,1.83-.64,2.47,2.47,0,0,1,1.91.73A2.76,2.76,0,0,1,759.94,1042Zm-1.85,3.36v-1.14h-.49a1.27,1.27,0,0,0-.85.26,1.06,1.06,0,0,0-.3.85,1.29,1.29,0,0,0,.21.8.72.72,0,0,0,.61.27.71.71,0,0,0,.58-.28A1.14,1.14,0,0,0,758.09,1045.38Z" style="fill:#295ca7"/><path d="M763,1039.46v.62a1.74,1.74,0,0,1,1.41-.75c1.37,0,2.06.85,2.06,2.54v6h-1.86v-6a1,1,0,0,0-.21-.67.75.75,0,0,0-.55-.23.71.71,0,0,0-.56.23,1,1,0,0,0-.21.67v6h-1.86v-8.45Z" style="fill:#295ca7"/><path d="M767.76,1045.3v-3.24a3.21,3.21,0,0,1,.56-2.08,1.84,1.84,0,0,1,1.48-.65,1.65,1.65,0,0,1,.83.21,1.59,1.59,0,0,1,.59.59v-3.27h1.84v11.05h-1.77v-.59a1.93,1.93,0,0,1-3,.06A3.13,3.13,0,0,1,767.76,1045.3Zm3.49-2.93a2.14,2.14,0,0,0-.2-1,.7.7,0,0,0-.63-.33.65.65,0,0,0-.6.33,2.14,2.14,0,0,0-.2,1V1045a2.1,2.1,0,0,0,.2,1.06.68.68,0,0,0,.62.32q.81,0,.81-1.38Z" style="fill:#295ca7"/><path d="M774.2,1045.47v-.09H776v.09a1.09,1.09,0,0,0,.24.75.87.87,0,0,0,.67.26.79.79,0,0,0,.63-.23.93.93,0,0,0,.22-.68.91.91,0,0,0-.2-.58,1.56,1.56,0,0,0-.63-.44l-1-.42a2.9,2.9,0,0,1-1.35-1,2.53,2.53,0,0,1-.37-1.4A2.27,2.27,0,0,1,775,1040a2.93,2.93,0,0,1,3.78,0,2.34,2.34,0,0,1,.72,1.79v.16h-1.79v-.1a1.1,1.1,0,0,0-.23-.75.75.75,0,0,0-.6-.26.73.73,0,0,0-.8.81.88.88,0,0,0,.16.55,1.36,1.36,0,0,0,.6.42l1,.45a3.11,3.11,0,0,1,1.32,1,2.56,2.56,0,0,1,.4,1.48,2.4,2.4,0,0,1-.73,1.8,3.11,3.11,0,0,1-3.91,0A2.49,2.49,0,0,1,774.2,1045.47Z" style="fill:#295ca7"/><path d="M780.6,1045v-2.6a3.34,3.34,0,0,1,.68-2.33,2.65,2.65,0,0,1,2-.72,2.58,2.58,0,0,1,1.94.69,2.81,2.81,0,0,1,.67,2.06v.32H784.1v-.29a1.34,1.34,0,0,0-.22-.84.72.72,0,0,0-.6-.28.69.69,0,0,0-.62.33,2,2,0,0,0-.21,1V1045a2,2,0,0,0,.21,1,.68.68,0,0,0,.61.33.7.7,0,0,0,.61-.28,1.36,1.36,0,0,0,.22-.86V1045h1.79v.27a2.92,2.92,0,0,1-.67,2.11,2.59,2.59,0,0,1-1.94.7,2.65,2.65,0,0,1-2-.72A3.35,3.35,0,0,1,780.6,1045Z" style="fill:#295ca7"/><path d="M792.33,1042v5.89H790.6v-.71a3,3,0,0,1-.66.64,1.57,1.57,0,0,1-.83.2,1.87,1.87,0,0,1-1.59-.69,3,3,0,0,1-.54-1.92,2.37,2.37,0,0,1,.72-1.84,3,3,0,0,1,2.06-.64h.71v-1.08a1,1,0,0,0-.2-.68.76.76,0,0,0-.59-.23.77.77,0,0,0-.56.22.91.91,0,0,0-.2.61v.13H787.2v-.06a2.41,2.41,0,0,1,.71-1.89,2.59,2.59,0,0,1,1.82-.64,2.5,2.5,0,0,1,1.92.73A2.76,2.76,0,0,1,792.33,1042Zm-1.86,3.36v-1.14H790a1.3,1.3,0,0,0-.86.26,1.05,1.05,0,0,0-.29.85,1.37,1.37,0,0,0,.2.8.79.79,0,0,0,1.2,0A1.19,1.19,0,0,0,790.47,1045.38Z" style="fill:#295ca7"/><path d="M795.43,1039.46v.67a1.69,1.69,0,0,1,1.49-.8,1.82,1.82,0,0,1,1.47.65,3.28,3.28,0,0,1,.54,2.08v3.24a3.13,3.13,0,0,1-.57,2.08,1.85,1.85,0,0,1-1.48.66,1.77,1.77,0,0,1-1.39-.64v3h-1.86v-11Zm1.65,5.53v-2.62a2.14,2.14,0,0,0-.2-1,.72.72,0,0,0-1.21,0,2,2,0,0,0-.21,1V1045c0,.92.27,1.38.82,1.38a.68.68,0,0,0,.6-.32A2.1,2.1,0,0,0,797.08,1045Z" style="fill:#295ca7"/><path d="M802,1045.11q0,1.29.84,1.29c.54,0,.81-.35.81-1.07v-.08h1.79v.1a2.76,2.76,0,0,1-.67,2,2.61,2.61,0,0,1-1.93.68,2.57,2.57,0,0,1-2-.77,3.72,3.72,0,0,1-.7-2.55v-2.06a4,4,0,0,1,.66-2.53,2.4,2.4,0,0,1,2-.8,2.55,2.55,0,0,1,2,.81,3.81,3.81,0,0,1,.71,2.52v1.68H802Zm0-2.74v.62h1.65v-.62a2,2,0,0,0-.21-1,.74.74,0,0,0-1.23,0A2,2,0,0,0,802,1042.37Z" style="fill:#295ca7"/><path d="M739.11,1064.07v-5a3.06,3.06,0,0,1,.88-2.38,3.28,3.28,0,0,1,2.32-.81,3.1,3.1,0,0,1,2.22.8,3.2,3.2,0,0,1,.85,2.44v.33h-2v-.32a1.65,1.65,0,0,0-.31-1.11,1.06,1.06,0,0,0-.84-.36,1,1,0,0,0-.9.43,2.39,2.39,0,0,0-.28,1.3v4.43c0,1.08.39,1.62,1.18,1.62a1,1,0,0,0,.84-.37,1.65,1.65,0,0,0,.31-1.09v-.29h2v.31a3.1,3.1,0,0,1-.89,2.41,3.26,3.26,0,0,1-2.28.81,3.1,3.1,0,0,1-2.26-.81A3.13,3.13,0,0,1,739.11,1064.07Z" style="fill:#295ca7"/><path d="M748.5,1056.06v3.14a1.75,1.75,0,0,1,1.33-.67,1.86,1.86,0,0,1,1.57.65,3.11,3.11,0,0,1,.49,1.89v6H750v-6a.94.94,0,0,0-.22-.66.71.71,0,0,0-.55-.24.7.7,0,0,0-.56.24.93.93,0,0,0-.21.66v6h-1.86v-11Z" style="fill:#295ca7"/><path d="M758.37,1061.22v5.89h-1.73v-.71a2.77,2.77,0,0,1-.65.64,1.59,1.59,0,0,1-.83.2,1.9,1.9,0,0,1-1.6-.69,3.11,3.11,0,0,1-.53-1.92,2.37,2.37,0,0,1,.72-1.84,3,3,0,0,1,2.06-.64h.71v-1.08a1,1,0,0,0-.2-.68.76.76,0,0,0-.59-.23.77.77,0,0,0-.56.22.87.87,0,0,0-.21.61v.13h-1.71v-.06a2.41,2.41,0,0,1,.71-1.89,2.56,2.56,0,0,1,1.82-.64,2.47,2.47,0,0,1,1.91.73A2.72,2.72,0,0,1,758.37,1061.22Zm-1.85,3.36v-1.14H756a1.28,1.28,0,0,0-.86.26,1.06,1.06,0,0,0-.3.85,1.29,1.29,0,0,0,.21.8.72.72,0,0,0,.61.27.71.71,0,0,0,.58-.28A1.14,1.14,0,0,0,756.52,1064.58Z" style="fill:#295ca7"/><path d="M761.46,1058.66v.78a2,2,0,0,1,.73-.73,2,2,0,0,1,.93-.21,2.52,2.52,0,0,1,.58.06v2a2.6,2.6,0,0,0-.85-.16,1.27,1.27,0,0,0-1,.38,1.46,1.46,0,0,0-.36,1.06v5.32h-1.86v-8.45Z" style="fill:#295ca7"/><path d="M769.51,1061.22v5.89h-1.73v-.71a2.62,2.62,0,0,1-.66.64,1.57,1.57,0,0,1-.83.2,1.9,1.9,0,0,1-1.59-.69,3,3,0,0,1-.54-1.92,2.37,2.37,0,0,1,.72-1.84,3,3,0,0,1,2.07-.64h.7v-1.08a1,1,0,0,0-.2-.68.74.74,0,0,0-.58-.23.75.75,0,0,0-.56.22.87.87,0,0,0-.21.61v.13h-1.71v-.06a2.4,2.4,0,0,1,.7-1.89,2.6,2.6,0,0,1,1.83-.64,2.47,2.47,0,0,1,1.91.73A2.76,2.76,0,0,1,769.51,1061.22Zm-1.86,3.36v-1.14h-.48a1.25,1.25,0,0,0-.85.26,1.06,1.06,0,0,0-.3.85,1.29,1.29,0,0,0,.21.8.72.72,0,0,0,.61.27.71.71,0,0,0,.58-.28A1.13,1.13,0,0,0,767.65,1064.58Z" style="fill:#295ca7"/><path d="M773.11,1064.37a.94.94,0,0,0,1.07,1.07h.07v1.67h-.07a3.28,3.28,0,0,1-2.18-.63,2.49,2.49,0,0,1-.75-2V1060h-.94v-1.29h.94v-1.49l1.86-.75v2.24h1.34V1060h-1.34Z" style="fill:#295ca7"/><path d="M777,1064.31c0,.86.28,1.29.83,1.29s.82-.35.82-1.07v-.08h1.79v.1a2.76,2.76,0,0,1-.67,2,2.62,2.62,0,0,1-1.94.68,2.56,2.56,0,0,1-2-.77,3.72,3.72,0,0,1-.7-2.55v-2.06a4,4,0,0,1,.66-2.53,2.43,2.43,0,0,1,2-.8,2.51,2.51,0,0,1,2,.81,3.75,3.75,0,0,1,.72,2.52v1.68H777Zm0-2.74v.62h1.65v-.62a2,2,0,0,0-.21-1,.74.74,0,0,0-1.23,0A2,2,0,0,0,777,1061.57Z" style="fill:#295ca7"/><path d="M783.55,1058.66v.78a2.11,2.11,0,0,1,.73-.73,2.06,2.06,0,0,1,.94-.21,2.58,2.58,0,0,1,.58.06v2a2.65,2.65,0,0,0-.85-.16,1.25,1.25,0,0,0-1,.38,1.43,1.43,0,0,0-.37,1.06v5.32h-1.85v-8.45Z" style="fill:#295ca7"/><path d="M788.6,1056.06v1.56h-1.86v-1.56Zm0,2.6v8.45h-1.86v-8.45Z" style="fill:#295ca7"/><path d="M789.63,1064.68v-.1h1.8v.1a1.08,1.08,0,0,0,.24.74.87.87,0,0,0,.67.26.79.79,0,0,0,.63-.23.93.93,0,0,0,.22-.68.91.91,0,0,0-.2-.58,1.64,1.64,0,0,0-.63-.44l-1-.42a2.9,2.9,0,0,1-1.35-1,2.53,2.53,0,0,1-.37-1.4,2.29,2.29,0,0,1,.72-1.73,2.93,2.93,0,0,1,3.78,0,2.36,2.36,0,0,1,.72,1.79v.16h-1.79v-.1a1.1,1.1,0,0,0-.23-.75.76.76,0,0,0-.6-.26.73.73,0,0,0-.8.81.93.93,0,0,0,.16.56,1.44,1.44,0,0,0,.6.41l1,.45a3.11,3.11,0,0,1,1.32,1,2.56,2.56,0,0,1,.4,1.48,2.4,2.4,0,0,1-.73,1.8,2.75,2.75,0,0,1-2,.7,2.78,2.78,0,0,1-2-.68A2.52,2.52,0,0,1,789.63,1064.68Z" style="fill:#295ca7"/><path d="M798.21,1064.37a.94.94,0,0,0,1.07,1.07h.07v1.67h-.07a3.3,3.3,0,0,1-2.18-.63,2.49,2.49,0,0,1-.75-2V1060h-.94v-1.29h.94v-1.49l1.86-.75v2.24h1.35V1060h-1.35Z" style="fill:#295ca7"/><path d="M802.52,1056.06v1.56h-1.86v-1.56Zm0,2.6v8.45h-1.86v-8.45Z" style="fill:#295ca7"/><path d="M803.84,1064.18v-2.59a3.31,3.31,0,0,1,.69-2.34,2.65,2.65,0,0,1,2-.72,2.58,2.58,0,0,1,1.94.69,2.82,2.82,0,0,1,.67,2.06v.32h-1.79v-.29a1.34,1.34,0,0,0-.22-.84.72.72,0,0,0-.6-.28.68.68,0,0,0-.62.33,2,2,0,0,0-.21,1v2.62a2,2,0,0,0,.21,1,.68.68,0,0,0,.61.33.72.72,0,0,0,.61-.28,1.36,1.36,0,0,0,.22-.86v-.27h1.79v.27a2.92,2.92,0,0,1-.67,2.11,2.59,2.59,0,0,1-1.94.7,2.65,2.65,0,0,1-2-.72A3.31,3.31,0,0,1,803.84,1064.18Z" style="fill:#295ca7"/><path d="M810.23,1064.68v-.1H812v.1a1.08,1.08,0,0,0,.24.74.87.87,0,0,0,.67.26.79.79,0,0,0,.63-.23.93.93,0,0,0,.22-.68.91.91,0,0,0-.2-.58,1.49,1.49,0,0,0-.63-.44l-1-.42a3,3,0,0,1-1.35-1,2.53,2.53,0,0,1-.37-1.4,2.29,2.29,0,0,1,.72-1.73,2.93,2.93,0,0,1,3.78,0,2.36,2.36,0,0,1,.72,1.79v.16H813.7v-.1a1.1,1.1,0,0,0-.22-.75.79.79,0,0,0-.61-.26.73.73,0,0,0-.8.81.93.93,0,0,0,.16.56,1.49,1.49,0,0,0,.61.41l1,.45a3.14,3.14,0,0,1,1.31,1,2.49,2.49,0,0,1,.4,1.48,2.37,2.37,0,0,1-.73,1.8,3.11,3.11,0,0,1-3.91,0A2.49,2.49,0,0,1,810.23,1064.68Z" style="fill:#295ca7"/></g></svg>