<svg id="Layer_1" data-name="Layer 1" xmlns="http://www.w3.org/2000/svg" viewBox="0 0 886.63 602"><path d="M850.63,96a60,60,0,0,0-60-60H546.2c-30,0-55.08,26.23-55.47,59.2C490.34,128.71,515,156,545.39,156H790.63a60,60,0,0,0,60-60Z" style="fill:#0b6333"/><path d="M311.06,127.71h0A72.06,72.06,0,0,1,370.77,96h130" style="fill:none;stroke:#bcbec0;stroke-miterlimit:10;stroke-width:5px"/><path d="M850.63,506a60,60,0,0,0-60-60H546.2c-30,0-55.08,26.23-55.47,59.2C490.34,538.71,515,566,545.39,566H790.63a60,60,0,0,0,60-60Z" style="fill:#295ca7"/><path d="M310.49,474h0a52.27,52.27,0,0,0,48.19,32H500.73" style="fill:none;stroke:#bcbec0;stroke-miterlimit:10;stroke-width:5px"/><circle cx="310.49" cy="473.96" r="10" style="fill:#bcbec0"/><circle cx="311.06" cy="127.71" r="10" style="fill:#bcbec0"/><path d="M208.5,301V126a175,175,0,0,0,0,349.94Z" style="fill:#bcbec0"/><path d="M213.5,305.33V476a174.86,174.86,0,0,0,147.79-85.3Z" style="fill:#295ca7"/><path d="M363.8,386.33a175.06,175.06,0,0,0,0-170.66L216,301Z" style="fill:#4b5b5e"/><path d="M213.5,296.67l147.79-85.33A174.91,174.91,0,0,0,213.5,126Z" style="fill:#0b6333"/><circle cx="211" cy="301" r="167.5" style="fill:#fff"/><path d="M850.63,301a60,60,0,0,0-60-60H546.2c-30,0-55.08,26.23-55.47,59.2C490.34,333.71,515,361,545.39,361H790.63a60,60,0,0,0,60-60Z" style="fill:#4b5b5e"/><circle cx="550.73" cy="301" r="50" style="fill:#fff"/><polygon points="395.73 301 385.73 295.23 385.73 306.77 395.73 301" style="fill:#4b5b5e"/><polygon points="303.53 140.83 293.53 146.6 303.53 152.37 303.53 140.83" style="fill:#0b6333"/><circle cx="410.73" cy="301" r="10" style="fill:#bcbec0"/><line x1="410.73" y1="301" x2="500.73" y2="301" style="fill:none;stroke:#bcbec0;stroke-miterlimit:10;stroke-width:5px"/><polygon points="303.11 460.94 303.11 449.39 293.11 455.16 303.11 460.94" style="fill:#295ca7"/><circle cx="410.73" cy="301" r="5" style="fill:#4b5b5e;stroke:#fff;stroke-miterlimit:10"/><circle cx="310.49" cy="473.96" r="5" style="fill:#295ca7;stroke:#fff;stroke-miterlimit:10"/><circle cx="311.06" cy="127.71" r="5" style="fill:#0b6333;stroke:#fff;stroke-miterlimit:10"/><path id="cogwheel" d="M576.39,298.43a1.11,1.11,0,0,0-.83-.94L569.48,296a19.4,19.4,0,0,0-1.93-4.68l3.22-5.36a1.1,1.1,0,0,0-.09-1.25,24.91,24.91,0,0,0-3.63-3.63,1.1,1.1,0,0,0-1.25-.09l-5.36,3.22a19.4,19.4,0,0,0-4.68-1.93l-1.52-6.08a1.12,1.12,0,0,0-.94-.83,24.13,24.13,0,0,0-2.57-.15,24.48,24.48,0,0,0-2.58.15,1.1,1.1,0,0,0-.93.83l-1.52,6.08a19,19,0,0,0-4.67,1.93L535.66,281a1.1,1.1,0,0,0-1.25.08,25.49,25.49,0,0,0-3.63,3.64,1.1,1.1,0,0,0-.09,1.25l3.22,5.36A19.07,19.07,0,0,0,532,296l-6.09,1.52a1.1,1.1,0,0,0-.82.94,24.13,24.13,0,0,0-.15,2.57,24.48,24.48,0,0,0,.15,2.58,1.09,1.09,0,0,0,.82.93L532,306a19.07,19.07,0,0,0,1.93,4.68l-3.22,5.36a1.1,1.1,0,0,0,.08,1.25,26.09,26.09,0,0,0,3.64,3.64,1.1,1.1,0,0,0,1.25.08l5.36-3.22a19.07,19.07,0,0,0,4.68,1.93l1.52,6.09a1.09,1.09,0,0,0,.93.82,24.48,24.48,0,0,0,2.58.15,24.13,24.13,0,0,0,2.57-.15,1.11,1.11,0,0,0,.94-.82l1.52-6.09a19.07,19.07,0,0,0,4.68-1.93L565.8,321a1.12,1.12,0,0,0,1.26-.09,26,26,0,0,0,3.63-3.63,1.1,1.1,0,0,0,.08-1.25l-3.22-5.36a19.23,19.23,0,0,0,1.93-4.68l6.08-1.52a1.1,1.1,0,0,0,.83-.93,24.48,24.48,0,0,0,.15-2.58A24.13,24.13,0,0,0,576.39,298.43ZM550.73,310a9,9,0,1,1,9-9A9,9,0,0,1,550.73,310Z" style="fill:#4b5b5e"/><path d="M630,288.15a5.41,5.41,0,0,1-1,3.66,4.57,4.57,0,0,1-3.51,1.14H621V276.38h4.49a4.68,4.68,0,0,1,3.46,1.07,4.82,4.82,0,0,1,1,3.4,4.9,4.9,0,0,1-.41,2.09,2.76,2.76,0,0,1-1.39,1.32,2.63,2.63,0,0,1,1.46,1.41A6.57,6.57,0,0,1,630,288.15Zm-6.1-5.12h1.25a1.84,1.84,0,0,0,1.44-.46,3.12,3.12,0,0,0,0-3.09,1.88,1.88,0,0,0-1.44-.45h-1.25Zm3.15,4.9a2.86,2.86,0,0,0-.45-1.8,1.78,1.78,0,0,0-1.48-.55h-1.22v4.73h1.22a1.82,1.82,0,0,0,1.52-.54A3.16,3.16,0,0,0,627.07,287.93Z" style="fill:#fff"/><path d="M632.52,291a4.74,4.74,0,0,1-.58-2.38V276.38h2.95v12.15a2.38,2.38,0,0,0,.38,1.48,1.45,1.45,0,0,0,1.18.46c1,0,1.56-.64,1.56-1.94V276.38h3V288.6a4.74,4.74,0,0,1-.58,2.38,4,4,0,0,1-1.6,1.59,4.76,4.76,0,0,1-2.33.57,4.67,4.67,0,0,1-2.32-.57A4.1,4.1,0,0,1,632.52,291Z" style="fill:#fff"/><path d="M646,276.38V293h-2.93V276.38Z" style="fill:#fff"/><path d="M651.06,276.38v13.93h4.44V293h-7.39V276.38Z" style="fill:#fff"/><path d="M661.5,276.38a4.29,4.29,0,0,1,4.61,4.76v7.05a4.54,4.54,0,0,1-1.32,3.54,4.86,4.86,0,0,1-3.43,1.22h-4.44V276.38Zm1.22,13.28a3.19,3.19,0,0,0,.44-1.8v-6.22a3.52,3.52,0,0,0-.43-1.93,1.45,1.45,0,0,0-1.3-.66h-1.58v11.26h1.58A1.48,1.48,0,0,0,662.72,289.66Z" style="fill:#fff"/><path d="M627.66,310a2.49,2.49,0,0,1-.78,2,3.16,3.16,0,0,1-2.15.7h-3.62v-9.67h3.54a3,3,0,0,1,2.11.67,2.38,2.38,0,0,1,.75,1.88,2.34,2.34,0,0,1-.39,1.33,2.05,2.05,0,0,1-1.1.81,2.28,2.28,0,0,1,1.23.86A2.57,2.57,0,0,1,627.66,310Zm-5.53-2.75h2.41a2.23,2.23,0,0,0,1.43-.41,1.52,1.52,0,0,0,.52-1.25,1.56,1.56,0,0,0-.51-1.27,2.12,2.12,0,0,0-1.43-.43h-2.42Zm4.51,2.68a1.65,1.65,0,0,0-.53-1.32,2.21,2.21,0,0,0-1.49-.45h-2.49v3.58h2.48a2.23,2.23,0,0,0,1.5-.47A1.68,1.68,0,0,0,626.64,309.89Z" style="fill:#fff"/><path d="M629.44,310v-4.49h.95v4.37a2.35,2.35,0,0,0,.38,1.47,1.52,1.52,0,0,0,1.27.49,1.55,1.55,0,0,0,1.28-.48,2.39,2.39,0,0,0,.37-1.48v-4.37h1V310a2.83,2.83,0,0,1-.65,2,2.61,2.61,0,0,1-2,.69,2.54,2.54,0,0,1-1.94-.69A2.79,2.79,0,0,1,629.44,310Z" style="fill:#fff"/><path d="M637.64,303.08v1.26h-1v-1.26Zm0,2.43v7.1h-1v-7.1Z" style="fill:#fff"/><path d="M639.63,310.74v-7.8h1v7.75a1.25,1.25,0,0,0,.21.8.88.88,0,0,0,.69.25h.57v.87h-.67a1.68,1.68,0,0,1-1.3-.48A2,2,0,0,1,639.63,310.74Z" style="fill:#fff"/><path d="M643,309.78v-1.46a3.13,3.13,0,0,1,.67-2.21,2.3,2.3,0,0,1,1.74-.7,2,2,0,0,1,1.9,1.09v-3.56h1v9.67h-1v-.94a1.85,1.85,0,0,1-.76.76,2.45,2.45,0,0,1-1.16.26,2.24,2.24,0,0,1-1.72-.71A3.08,3.08,0,0,1,643,309.78Zm4.31-.07v-1.25a2.65,2.65,0,0,0-.43-1.59,1.48,1.48,0,0,0-1.29-.59q-1.62,0-1.62,2.1v1.34c0,1.41.52,2.12,1.57,2.12a1.59,1.59,0,0,0,1.33-.59A2.53,2.53,0,0,0,647.34,309.71Z" style="fill:#fff"/><path d="M652.83,309.78v-1.46a2.92,2.92,0,0,1,.74-2.21,2.78,2.78,0,0,1,2-.7,2.72,2.72,0,0,1,2,.7,2.91,2.91,0,0,1,.73,2.21v1.46a2.93,2.93,0,0,1-.73,2.21,2.72,2.72,0,0,1-2,.7,2.82,2.82,0,0,1-2-.69A2.93,2.93,0,0,1,652.83,309.78Zm4.47-.06v-1.34a2.31,2.31,0,0,0-.47-1.64,1.72,1.72,0,0,0-1.27-.46,1.78,1.78,0,0,0-1.3.46,2.26,2.26,0,0,0-.48,1.64v1.34a2.27,2.27,0,0,0,.48,1.65,1.79,1.79,0,0,0,1.3.47,1.73,1.73,0,0,0,1.27-.47A2.32,2.32,0,0,0,657.3,309.72Z" style="fill:#fff"/><path d="M659.93,310v-4.49h1v4.37a2.41,2.41,0,0,0,.38,1.47,1.92,1.92,0,0,0,2.55,0,2.38,2.38,0,0,0,.38-1.48v-4.37h.95V310a2.83,2.83,0,0,1-.65,2,2.59,2.59,0,0,1-2,.69,2.54,2.54,0,0,1-1.94-.69A2.83,2.83,0,0,1,659.93,310Z" style="fill:#fff"/><path d="M668.54,310.8c0,.64.3,1,.91,1H670v.84h-.72a1.67,1.67,0,0,1-1.26-.47,1.78,1.78,0,0,1-.46-1.3v-4.58h-1.1v-.75h1.1v-1.63l1-.45v2.08h1.6v.75h-1.6Z" style="fill:#fff"/><path d="M674.22,309.78v-1.46a2.92,2.92,0,0,1,.74-2.21,2.78,2.78,0,0,1,2-.7,2.7,2.7,0,0,1,2,.7,2.91,2.91,0,0,1,.73,2.21v1.46a2.93,2.93,0,0,1-.73,2.21,2.7,2.7,0,0,1-2,.7,2.82,2.82,0,0,1-2-.69A2.93,2.93,0,0,1,674.22,309.78Zm4.47-.06v-1.34a2.31,2.31,0,0,0-.47-1.64,1.71,1.71,0,0,0-1.27-.46,1.78,1.78,0,0,0-1.3.46,2.26,2.26,0,0,0-.48,1.64v1.34a2.27,2.27,0,0,0,.48,1.65,1.79,1.79,0,0,0,1.3.47,1.71,1.71,0,0,0,1.27-.47A2.32,2.32,0,0,0,678.69,309.72Z" style="fill:#fff"/><path d="M682.83,305.51h1.49v.75h-1.49v6.35h-1v-6.35H681v-.75h.9v-.8a1.79,1.79,0,0,1,.45-1.29,1.64,1.64,0,0,1,1.26-.48h.74v.76h-.59q-.9,0-.9,1Z" style="fill:#fff"/><path d="M689.48,305.51v.86a2,2,0,0,1,.81-.7,2.63,2.63,0,0,1,2.36.06,2.07,2.07,0,0,1,.8.88,2.59,2.59,0,0,1,3.92-.52,2.58,2.58,0,0,1,.63,1.85v4.67h-1v-4.53a1.88,1.88,0,0,0-.43-1.34,1.55,1.55,0,0,0-1.2-.46,1.59,1.59,0,0,0-1.22.46,1.81,1.81,0,0,0-.44,1.3v4.57h-1v-4.53a1.88,1.88,0,0,0-.43-1.34,1.53,1.53,0,0,0-1.2-.46,1.63,1.63,0,0,0-1.21.46,1.87,1.87,0,0,0-.45,1.34v4.53h-1v-7.1Z" style="fill:#fff"/><path d="M700.63,309.67a2.29,2.29,0,0,0,.49,1.68,1.85,1.85,0,0,0,1.36.49,1.74,1.74,0,0,0,1.18-.37,1.27,1.27,0,0,0,.43-1v0H705v.07a2,2,0,0,1-.69,1.6,2.82,2.82,0,0,1-1.91.6,2.69,2.69,0,0,1-2-.74,3.15,3.15,0,0,1-.75-2.31V308.4a3.05,3.05,0,0,1,.75-2.26,3,3,0,0,1,3.91,0,3.09,3.09,0,0,1,.74,2.26v.84h-4.44Zm0-1.29v.15h3.48v-.25a2.12,2.12,0,0,0-.46-1.56,1.74,1.74,0,0,0-1.27-.44,1.76,1.76,0,0,0-1.28.46A2.31,2.31,0,0,0,700.63,308.38Z" style="fill:#fff"/><path d="M708.24,310.8c0,.64.31,1,.91,1h.56v.84H709a1.71,1.71,0,0,1-1.27-.47,1.82,1.82,0,0,1-.45-1.3v-4.58h-1.11v-.75h1.11v-1.63l1-.45v2.08h1.6v.75h-1.6Z" style="fill:#fff"/><path d="M712.26,302.94v3.43a2.17,2.17,0,0,1,1.91-.95,2.28,2.28,0,0,1,1.73.66,2.63,2.63,0,0,1,.62,1.86v4.67h-.95v-4.53a1.88,1.88,0,0,0-.44-1.34,1.56,1.56,0,0,0-1.2-.46,1.6,1.6,0,0,0-1.21.46,1.83,1.83,0,0,0-.46,1.34v4.53h-1v-9.67Z" style="fill:#fff"/><path d="M718.2,309.78v-1.46a2.88,2.88,0,0,1,.74-2.21,2.76,2.76,0,0,1,2-.7,2.7,2.7,0,0,1,2,.7,2.92,2.92,0,0,1,.74,2.21v1.46a2.93,2.93,0,0,1-.74,2.21,2.7,2.7,0,0,1-2,.7,2.8,2.8,0,0,1-2-.69A2.89,2.89,0,0,1,718.2,309.78Zm4.46-.06v-1.34a2.26,2.26,0,0,0-.47-1.64,1.7,1.7,0,0,0-1.26-.46,1.81,1.81,0,0,0-1.31.46,2.31,2.31,0,0,0-.47,1.64v1.34a2.32,2.32,0,0,0,.47,1.65,1.81,1.81,0,0,0,1.31.47,1.71,1.71,0,0,0,1.26-.47A2.28,2.28,0,0,0,722.66,309.72Z" style="fill:#fff"/><path d="M725.07,309.78v-1.46a3.13,3.13,0,0,1,.67-2.21,2.3,2.3,0,0,1,1.74-.7,2,2,0,0,1,1.9,1.09v-3.56h1v9.67h-1v-.94a1.85,1.85,0,0,1-.76.76,2.45,2.45,0,0,1-1.16.26,2.24,2.24,0,0,1-1.72-.71A3.08,3.08,0,0,1,725.07,309.78Zm4.31-.07v-1.25a2.65,2.65,0,0,0-.43-1.59,1.48,1.48,0,0,0-1.29-.59q-1.62,0-1.62,2.1v1.34c0,1.41.52,2.12,1.56,2.12a1.59,1.59,0,0,0,1.34-.59A2.53,2.53,0,0,0,729.38,309.71Z" style="fill:#fff"/><path d="M731.86,310.62v-.06h.92v0a1.12,1.12,0,0,0,.46.94,2,2,0,0,0,1.22.34,2.19,2.19,0,0,0,1.26-.32,1.09,1.09,0,0,0,.45-.93.93.93,0,0,0-.31-.78,2.24,2.24,0,0,0-1-.38l-.88-.16a3,3,0,0,1-1.51-.61,1.61,1.61,0,0,1-.48-1.26,1.8,1.8,0,0,1,.69-1.48,2.74,2.74,0,0,1,1.78-.55,3,3,0,0,1,1.87.54,1.67,1.67,0,0,1,.7,1.4v.09h-.92v0a1,1,0,0,0-.43-.89,2,2,0,0,0-1.2-.32,1.85,1.85,0,0,0-1.15.32,1.06,1.06,0,0,0-.41.89.91.91,0,0,0,.29.72,2,2,0,0,0,.94.37l.92.17a3.25,3.25,0,0,1,1.55.63,1.64,1.64,0,0,1,.5,1.29,1.84,1.84,0,0,1-.73,1.56,3.13,3.13,0,0,1-2,.55,2.92,2.92,0,0,1-1.86-.56A1.82,1.82,0,0,1,731.86,310.62Z" style="fill:#fff"/><path d="M746.23,307.77v4.84h-.94v-.76a2,2,0,0,1-.8.64,3.09,3.09,0,0,1-1.16.2,2.6,2.6,0,0,1-1.74-.53,2,2,0,0,1-.62-1.56,1.86,1.86,0,0,1,.63-1.49,2.58,2.58,0,0,1,1.75-.54h1.92v-.81a1.51,1.51,0,0,0-.42-1.16,1.67,1.67,0,0,0-1.19-.39,1.8,1.8,0,0,0-1.14.32,1.11,1.11,0,0,0-.41.91v0h-.93v-.07a1.81,1.81,0,0,1,.66-1.46,3.32,3.32,0,0,1,3.72.06A2.27,2.27,0,0,1,746.23,307.77Zm-1,2.43v-.93h-1.78q-1.56,0-1.56,1.32c0,.89.51,1.33,1.55,1.33a1.86,1.86,0,0,0,1.37-.43A1.76,1.76,0,0,0,745.27,310.2Z" style="fill:#fff"/><path d="M749.07,305.51v.86a2,2,0,0,1,.8-.71,2.52,2.52,0,0,1,1.12-.24,2.23,2.23,0,0,1,1.74.67,2.61,2.61,0,0,1,.61,1.85v4.67h-1v-4.53a1.88,1.88,0,0,0-.44-1.34,1.56,1.56,0,0,0-1.2-.46,1.6,1.6,0,0,0-1.21.46,1.83,1.83,0,0,0-.46,1.34v4.53h-1v-7.1Z" style="fill:#fff"/><path d="M755,309.78v-1.46a3.13,3.13,0,0,1,.68-2.21,2.28,2.28,0,0,1,1.73-.7,2,2,0,0,1,1.91,1.09v-3.56h1v9.67h-1v-.94a1.92,1.92,0,0,1-.76.76,2.48,2.48,0,0,1-1.16.26,2.24,2.24,0,0,1-1.72-.71A3.08,3.08,0,0,1,755,309.78Zm4.32-.07v-1.25a2.72,2.72,0,0,0-.43-1.59,1.48,1.48,0,0,0-1.29-.59c-1.09,0-1.63.7-1.63,2.1v1.34c0,1.41.52,2.12,1.57,2.12a1.57,1.57,0,0,0,1.33-.59A2.47,2.47,0,0,0,759.33,309.71Z" style="fill:#fff"/><path d="M622.13,319.88v1.26h-1v-1.26Zm0,2.42v7.11h-1V322.3Z" style="fill:#fff"/><path d="M625.05,322.3v.87a2.05,2.05,0,0,1,.81-.71,2.51,2.51,0,0,1,1.11-.24,2.24,2.24,0,0,1,1.75.67,2.66,2.66,0,0,1,.61,1.85v4.67h-1v-4.53a1.88,1.88,0,0,0-.43-1.34,1.56,1.56,0,0,0-1.2-.46,1.64,1.64,0,0,0-1.22.46,1.87,1.87,0,0,0-.45,1.34v4.53h-1V322.3Z" style="fill:#fff"/><path d="M632.74,322.3h1.49v.76h-1.49v6.35h-1v-6.35h-.89v-.76h.89v-.79a1.8,1.8,0,0,1,.46-1.29,1.63,1.63,0,0,1,1.25-.48h.75v.76h-.59q-.9,0-.9,1Z" style="fill:#fff"/><path d="M636.55,322.3v1a1.86,1.86,0,0,1,.78-.79,2.16,2.16,0,0,1,1.08-.26,3,3,0,0,1,.52,0v.95a2.43,2.43,0,0,0-.73-.11,1.53,1.53,0,0,0-1.18.5,1.88,1.88,0,0,0-.46,1.32v4.5h-.95V322.3Z" style="fill:#fff"/><path d="M645,324.57v4.84h-.94v-.76a1.92,1.92,0,0,1-.8.64,3,3,0,0,1-1.16.2,2.59,2.59,0,0,1-1.73-.53,2,2,0,0,1-.62-1.56,1.89,1.89,0,0,1,.62-1.49,2.61,2.61,0,0,1,1.76-.54H644v-.81a1.51,1.51,0,0,0-.42-1.16,1.69,1.69,0,0,0-1.19-.39,1.76,1.76,0,0,0-1.14.32,1.09,1.09,0,0,0-.42.91v0H640v-.07a1.81,1.81,0,0,1,.66-1.46,3.32,3.32,0,0,1,3.72.06A2.26,2.26,0,0,1,645,324.57ZM644,327v-.93h-1.78c-1,0-1.57.44-1.57,1.32s.52,1.33,1.56,1.33a1.83,1.83,0,0,0,1.36-.43A1.72,1.72,0,0,0,644,327Z" style="fill:#fff"/><path d="M646.5,327.42v-.06h.93v0a1.12,1.12,0,0,0,.45.94,2,2,0,0,0,1.23.34,2.16,2.16,0,0,0,1.25-.32,1.09,1.09,0,0,0,.46-.93.93.93,0,0,0-.32-.78,2.24,2.24,0,0,0-1-.38l-.88-.16a3,3,0,0,1-1.51-.61,1.61,1.61,0,0,1-.48-1.26,1.8,1.8,0,0,1,.69-1.48,2.74,2.74,0,0,1,1.78-.55,3,3,0,0,1,1.87.54,1.68,1.68,0,0,1,.71,1.4v.09h-.93v0a1,1,0,0,0-.43-.89,2,2,0,0,0-1.19-.32,1.88,1.88,0,0,0-1.16.32,1.08,1.08,0,0,0-.41.89,1,1,0,0,0,.29.72,2,2,0,0,0,.94.37l.93.17a3.21,3.21,0,0,1,1.54.63,1.64,1.64,0,0,1,.5,1.29,1.84,1.84,0,0,1-.73,1.56,3.12,3.12,0,0,1-2,.55,2.92,2.92,0,0,1-1.86-.56A1.82,1.82,0,0,1,646.5,327.42Z" style="fill:#fff"/><path d="M654.66,327.6c0,.64.31,1,.92,1h.56v.84h-.72a1.71,1.71,0,0,1-1.27-.47,1.82,1.82,0,0,1-.45-1.3v-4.58h-1.11v-.76h1.11v-1.62l1-.45v2.07h1.6v.76h-1.6Z" style="fill:#fff"/><path d="M658.67,322.3v1a1.81,1.81,0,0,1,.78-.79,2.16,2.16,0,0,1,1.08-.26,3,3,0,0,1,.52,0v.95a2.43,2.43,0,0,0-.73-.11,1.52,1.52,0,0,0-1.18.5,1.88,1.88,0,0,0-.46,1.32v4.5h-.95V322.3Z" style="fill:#fff"/><path d="M662.25,326.8v-4.5h1v4.37a2.42,2.42,0,0,0,.38,1.48,1.92,1.92,0,0,0,2.55,0,2.4,2.4,0,0,0,.38-1.49V322.3h1v4.5a2.83,2.83,0,0,1-.65,2,2.58,2.58,0,0,1-2,.69,2.55,2.55,0,0,1-1.94-.69A2.83,2.83,0,0,1,662.25,326.8Z" style="fill:#fff"/><path d="M669.14,326.58v-1.46a2.88,2.88,0,0,1,.75-2.21,2.81,2.81,0,0,1,2-.7,2.73,2.73,0,0,1,1.92.64,2.18,2.18,0,0,1,.71,1.72v.07h-.92v-.07a1.38,1.38,0,0,0-.45-1.1,1.81,1.81,0,0,0-1.22-.39,1.9,1.9,0,0,0-1.36.46,2.22,2.22,0,0,0-.49,1.64v1.34a2.24,2.24,0,0,0,.49,1.65,1.86,1.86,0,0,0,1.35.47,1.77,1.77,0,0,0,1.23-.4,1.38,1.38,0,0,0,.45-1.1v-.07h.92v.05a2.24,2.24,0,0,1-.71,1.73,2.74,2.74,0,0,1-1.91.64,2.86,2.86,0,0,1-2-.69A2.9,2.9,0,0,1,669.14,326.58Z" style="fill:#fff"/><path d="M677.71,327.6c0,.64.3,1,.91,1h.56v.84h-.72a1.67,1.67,0,0,1-1.26-.47,1.78,1.78,0,0,1-.46-1.3v-4.58h-1.11v-.76h1.11v-1.62l1-.45v2.07h1.59v.76h-1.59Z" style="fill:#fff"/><path d="M680.77,326.8v-4.5h1v4.37a2.42,2.42,0,0,0,.38,1.48,1.55,1.55,0,0,0,1.28.49,1.51,1.51,0,0,0,1.27-.48,2.4,2.4,0,0,0,.38-1.49V322.3h1v4.5a2.79,2.79,0,0,1-.65,2,2.58,2.58,0,0,1-2,.69,2.55,2.55,0,0,1-1.94-.69A2.83,2.83,0,0,1,680.77,326.8Z" style="fill:#fff"/><path d="M688.82,322.3v1a1.92,1.92,0,0,1,.78-.79,2.17,2.17,0,0,1,1.09-.26,2.85,2.85,0,0,1,.51,0v.95a2.36,2.36,0,0,0-.72-.11,1.55,1.55,0,0,0-1.19.5,1.92,1.92,0,0,0-.45,1.32v4.5h-1V322.3Z" style="fill:#fff"/><path d="M693.13,326.47a2.34,2.34,0,0,0,.49,1.68,1.87,1.87,0,0,0,1.36.49,1.8,1.8,0,0,0,1.19-.37,1.26,1.26,0,0,0,.42-1v0h.93v.07a2,2,0,0,1-.69,1.6,2.85,2.85,0,0,1-1.92.6,2.72,2.72,0,0,1-2-.74,3.19,3.19,0,0,1-.74-2.31V325.2a3.09,3.09,0,0,1,.74-2.26,2.68,2.68,0,0,1,2-.73,2.63,2.63,0,0,1,2,.73,3.09,3.09,0,0,1,.74,2.26v.85h-4.45Zm0-1.29v.15h3.49v-.25a2.12,2.12,0,0,0-.46-1.56,2,2,0,0,0-2.55,0A2.26,2.26,0,0,0,693.13,325.18Z" style="fill:#fff"/><path d="M625.58,70.28A4.29,4.29,0,0,1,630.19,75v7.06a4.57,4.57,0,0,1-1.32,3.54,4.93,4.93,0,0,1-3.44,1.21H621V70.28Zm1.21,13.27a3.19,3.19,0,0,0,.44-1.8V75.53a3.52,3.52,0,0,0-.43-1.93,1.45,1.45,0,0,0-1.3-.66h-1.58V84.2h1.58A1.48,1.48,0,0,0,626.79,83.55Z" style="fill:#fff"/><path d="M635,77.09h3.84v2.64H635V84.2h4.47v2.64h-7.4V70.28h7.4v2.66H635Z" style="fill:#fff"/><path d="M640.55,82.11h2.79a3.14,3.14,0,0,0,.49,1.8,1.55,1.55,0,0,0,1.31.57A1.49,1.49,0,0,0,646.4,84a2.87,2.87,0,0,0,.39-1.68,2.4,2.4,0,0,0-.44-1.53,4.12,4.12,0,0,0-1.5-1l-1.13-.51a5.29,5.29,0,0,1-2.31-1.77,5,5,0,0,1-.71-2.83,4.57,4.57,0,0,1,1.21-3.34A4.37,4.37,0,0,1,645.19,70a4,4,0,0,1,3.15,1.24,5.37,5.37,0,0,1,1.19,3.56h-2.71a3.26,3.26,0,0,0-.4-1.69,1.36,1.36,0,0,0-1.23-.56c-1.08,0-1.61.63-1.61,1.89a2.22,2.22,0,0,0,.39,1.38,3.41,3.41,0,0,0,1.33.93l1.08.48a5.67,5.67,0,0,1,2.51,1.92,5.37,5.37,0,0,1,.78,3.07,4.92,4.92,0,0,1-1.2,3.55,4.5,4.5,0,0,1-3.4,1.25,4.3,4.3,0,0,1-3.34-1.27A5.36,5.36,0,0,1,640.55,82.11Z" style="fill:#fff"/><path d="M654.35,70.28V86.84h-2.93V70.28Z" style="fill:#fff"/><path d="M656.37,82.28V74.81a4.59,4.59,0,0,1,1.32-3.56A4.93,4.93,0,0,1,661.17,70a4.72,4.72,0,0,1,3.33,1.17,4.52,4.52,0,0,1,1.28,3.48v.51h-3v-.51a2.07,2.07,0,0,0-.48-1.47,1.59,1.59,0,0,0-1.24-.52,1.5,1.5,0,0,0-1.36.65,3.61,3.61,0,0,0-.42,1.94v6.65c0,1.62.59,2.42,1.78,2.42a1.5,1.5,0,0,0,1.29-.58,2.83,2.83,0,0,0,.43-1.69V80.33h-1.75V78h4.71v4.28a4.56,4.56,0,0,1-1.33,3.52A4.89,4.89,0,0,1,661,87a4.63,4.63,0,0,1-3.38-1.21A4.69,4.69,0,0,1,656.37,82.28Z" style="fill:#fff"/><path d="M677.06,86.84h-3L670.65,78v8.84H667.7V70.28h2.95l3.45,9.21V70.28h3Z" style="fill:#fff"/><circle cx="550.73" cy="96" r="50" style="fill:#fff"/><path id="book-library-search" d="M551.85,79.32a13.1,13.1,0,0,1,.14-1.79.58.58,0,0,0-.14,0h-9.13a1.82,1.82,0,0,0-1.82,1.82v40.17a1.83,1.83,0,0,0,1.82,1.83h9.13a1.83,1.83,0,0,0,1.83-1.83V85.87A12.69,12.69,0,0,1,551.85,79.32ZM550,116.75a.92.92,0,0,1-.92.92h-3.65a.92.92,0,0,1-.91-.92v-1.82a.91.91,0,0,1,.91-.91h3.65a.91.91,0,0,1,.92.91Zm0-32.86a.92.92,0,0,1-.92.91h-3.65a.91.91,0,0,1-.91-.91V82.06a.91.91,0,0,1,.91-.91h3.65a.92.92,0,0,1,.92.91Zm18.72,7.52a12.5,12.5,0,0,1-4.12.69,12.64,12.64,0,0,1-7.26-2.28l5.37,30.48a1.83,1.83,0,0,0,2.12,1.48l9-1.59a1.83,1.83,0,0,0,1.48-2.11L571,93.69Zm1.77,25.66-3.6.64a.93.93,0,0,1-1.06-.74l-.31-1.8a.91.91,0,0,1,.74-1.06l3.59-.63a.91.91,0,0,1,1.06.74l.32,1.79A.93.93,0,0,1,570.52,117.07ZM535.42,77.5h-9.13a1.82,1.82,0,0,0-1.83,1.82v40.17a1.83,1.83,0,0,0,1.83,1.83h9.13a1.83,1.83,0,0,0,1.83-1.83V79.32A1.82,1.82,0,0,0,535.42,77.5Zm-1.83,39.25a.91.91,0,0,1-.91.92H529a.92.92,0,0,1-.91-.92v-1.82A.91.91,0,0,1,529,114h3.65a.9.9,0,0,1,.91.91Zm0-32.86a.91.91,0,0,1-.91.91H529a.91.91,0,0,1-.91-.91V82.06a.91.91,0,0,1,.91-.91h3.65a.91.91,0,0,1,.91.91Zm43.14,4.72-4.41-4.41a9,9,0,0,0,1.44-4.88,9.13,9.13,0,1,0-9.13,9.13A9,9,0,0,0,569.51,87l4.41,4.4a.91.91,0,0,0,1.29,0l1.52-1.51A.92.92,0,0,0,576.73,88.61Zm-17.57-9.29a5.48,5.48,0,1,1,5.47,5.48A5.47,5.47,0,0,1,559.16,79.32Z" style="fill:#0b6333"/><path d="M627.68,106.5h-1V102h-4.52v4.49h-1V96.83h1v4.26h4.52V96.83h1Z" style="fill:#fff"/><path d="M631.82,107.27a2.07,2.07,0,0,1-.7,1,1.89,1.89,0,0,1-1.17.33h-.42v-.87h.35a1.21,1.21,0,0,0,.78-.21,1.52,1.52,0,0,0,.43-.69l.14-.43-2.44-7h1l1.86,5.64,1.86-5.64h1Z" style="fill:#fff"/><path d="M635.37,103.67v-1.46A3.17,3.17,0,0,1,636,100a2.3,2.3,0,0,1,1.74-.7,2.05,2.05,0,0,1,1.91,1.09V96.83h1v9.67h-1v-.94a1.94,1.94,0,0,1-.77.76,2.44,2.44,0,0,1-1.15.26,2.26,2.26,0,0,1-1.73-.71A3.13,3.13,0,0,1,635.37,103.67Zm4.32-.07v-1.25a2.65,2.65,0,0,0-.44-1.59,1.48,1.48,0,0,0-1.29-.59q-1.62,0-1.62,2.1v1.34c0,1.41.52,2.12,1.57,2.12a1.57,1.57,0,0,0,1.33-.59A2.47,2.47,0,0,0,639.69,103.6Z" style="fill:#fff"/><path d="M643.49,99.4v.95a1.92,1.92,0,0,1,.78-.79,2.17,2.17,0,0,1,1.09-.26,2.92,2.92,0,0,1,.51,0v1a2.38,2.38,0,0,0-.73-.11,1.53,1.53,0,0,0-1.18.5,1.92,1.92,0,0,0-.45,1.32v4.5h-1V99.4Z" style="fill:#fff"/><path d="M646.85,103.67v-1.46a2.92,2.92,0,0,1,.74-2.21,2.78,2.78,0,0,1,2-.7,2.72,2.72,0,0,1,2,.7,2.91,2.91,0,0,1,.73,2.21v1.46a2.93,2.93,0,0,1-.73,2.21,2.72,2.72,0,0,1-2,.7,2.82,2.82,0,0,1-2-.69A2.93,2.93,0,0,1,646.85,103.67Zm4.47-.06v-1.34a2.31,2.31,0,0,0-.47-1.64,1.72,1.72,0,0,0-1.27-.46,1.78,1.78,0,0,0-1.3.46,2.26,2.26,0,0,0-.48,1.64v1.34a2.27,2.27,0,0,0,.48,1.65,1.79,1.79,0,0,0,1.3.47,1.73,1.73,0,0,0,1.27-.47A2.32,2.32,0,0,0,651.32,103.61Z" style="fill:#fff"/><path d="M655,97v1.26h-1V97Zm0,2.43v7.1h-1V99.4Z" style="fill:#fff"/><path d="M658,99.4v.86a2,2,0,0,1,.8-.71,2.59,2.59,0,0,1,1.12-.24,2.22,2.22,0,0,1,1.74.67,2.61,2.61,0,0,1,.61,1.85v4.67h-1V102a1.88,1.88,0,0,0-.44-1.34,1.56,1.56,0,0,0-1.2-.46,1.61,1.61,0,0,0-1.21.46A1.83,1.83,0,0,0,658,102v4.53h-1V99.4Z" style="fill:#fff"/><path d="M665.65,99.4h1.49v.75h-1.49v6.35h-1v-6.35h-.9V99.4h.9v-.8a1.79,1.79,0,0,1,.45-1.29,1.66,1.66,0,0,1,1.26-.48h.74v.76h-.59q-.9,0-.9,1Z" style="fill:#fff"/><path d="M668.3,103.67v-1.46A2.92,2.92,0,0,1,669,100a2.78,2.78,0,0,1,2-.7,2.7,2.7,0,0,1,2,.7,2.92,2.92,0,0,1,.74,2.21v1.46a2.93,2.93,0,0,1-.74,2.21,2.7,2.7,0,0,1-2,.7,2.82,2.82,0,0,1-2-.69A2.93,2.93,0,0,1,668.3,103.67Zm4.47-.06v-1.34a2.31,2.31,0,0,0-.47-1.64,1.72,1.72,0,0,0-1.27-.46,1.77,1.77,0,0,0-1.3.46,2.26,2.26,0,0,0-.48,1.64v1.34a2.27,2.27,0,0,0,.48,1.65,1.77,1.77,0,0,0,1.3.47,1.73,1.73,0,0,0,1.27-.47A2.32,2.32,0,0,0,672.77,103.61Z" style="fill:#fff"/><path d="M676.34,99.4v.95a1.84,1.84,0,0,1,.77-.79,2.22,2.22,0,0,1,1.09-.26,3,3,0,0,1,.52,0v1a2.48,2.48,0,0,0-.73-.11,1.52,1.52,0,0,0-1.18.5,1.88,1.88,0,0,0-.46,1.32v4.5h-1V99.4Z" style="fill:#fff"/><path d="M680.86,99.4v.86a1.93,1.93,0,0,1,.8-.7,2.46,2.46,0,0,1,1.12-.25,2.33,2.33,0,0,1,1.24.31,2,2,0,0,1,.8.88A2.35,2.35,0,0,1,687,99.31a2.28,2.28,0,0,1,1.76.67,2.58,2.58,0,0,1,.63,1.85v4.67h-1V102a1.92,1.92,0,0,0-.42-1.34,1.56,1.56,0,0,0-1.2-.46,1.61,1.61,0,0,0-1.23.46,1.86,1.86,0,0,0-.44,1.3v4.57h-1V102a1.92,1.92,0,0,0-.42-1.34,1.56,1.56,0,0,0-1.2-.46,1.61,1.61,0,0,0-1.21.46,1.83,1.83,0,0,0-.46,1.34v4.53h-1V99.4Z" style="fill:#fff"/><path d="M696.13,101.66v4.84h-.93v-.76a2.05,2.05,0,0,1-.8.64,3.11,3.11,0,0,1-1.17.2,2.59,2.59,0,0,1-1.73-.53,2,2,0,0,1-.62-1.56,1.89,1.89,0,0,1,.62-1.49,2.63,2.63,0,0,1,1.76-.54h1.92v-.81a1.51,1.51,0,0,0-.42-1.16,1.69,1.69,0,0,0-1.19-.39,1.76,1.76,0,0,0-1.14.32,1.09,1.09,0,0,0-.41.91v0h-.93v-.07a1.81,1.81,0,0,1,.66-1.46,3.32,3.32,0,0,1,3.72.06A2.26,2.26,0,0,1,696.13,101.66Zm-1,2.43v-.93H693.4c-1,0-1.57.44-1.57,1.32s.52,1.33,1.56,1.33a1.83,1.83,0,0,0,1.36-.43A1.72,1.72,0,0,0,695.18,104.09Z" style="fill:#fff"/><path d="M699.54,104.69c0,.64.3,1,.91,1H701v.84h-.72A1.71,1.71,0,0,1,699,106a1.82,1.82,0,0,1-.45-1.3v-4.58h-1.11V99.4h1.11V97.77l1-.45V99.4h1.59v.75h-1.59Z" style="fill:#fff"/><path d="M703.69,97v1.26h-1V97Zm0,2.43v7.1h-.95V99.4Z" style="fill:#fff"/><path d="M705.45,103.67v-1.46a2.88,2.88,0,0,1,.75-2.21,2.81,2.81,0,0,1,2-.7,2.74,2.74,0,0,1,1.93.64,2.23,2.23,0,0,1,.71,1.72v.07h-.93v-.07a1.41,1.41,0,0,0-.44-1.1,1.81,1.81,0,0,0-1.22-.39,1.88,1.88,0,0,0-1.36.46,2.22,2.22,0,0,0-.49,1.64v1.34a2.27,2.27,0,0,0,.48,1.65,1.86,1.86,0,0,0,1.35.47,1.78,1.78,0,0,0,1.24-.4,1.41,1.41,0,0,0,.44-1.1v-.07h.93v0a2.21,2.21,0,0,1-.72,1.73,2.72,2.72,0,0,1-1.9.64,2.53,2.53,0,0,1-2.78-2.91Z" style="fill:#fff"/><path d="M712.13,104.51v-.06h.93v0a1.12,1.12,0,0,0,.45.94,2.06,2.06,0,0,0,1.23.34,2.16,2.16,0,0,0,1.25-.32,1.07,1.07,0,0,0,.46-.93.93.93,0,0,0-.32-.78,2.24,2.24,0,0,0-1-.38l-.89-.16a3,3,0,0,1-1.51-.61,1.61,1.61,0,0,1-.47-1.26,1.79,1.79,0,0,1,.68-1.48,2.74,2.74,0,0,1,1.78-.55,3,3,0,0,1,1.88.54,1.7,1.7,0,0,1,.7,1.4v.09h-.93v0a1,1,0,0,0-.43-.89,2,2,0,0,0-1.19-.32,1.88,1.88,0,0,0-1.16.32,1.08,1.08,0,0,0-.41.89,1,1,0,0,0,.29.72,2,2,0,0,0,.94.37l.93.17a3.21,3.21,0,0,1,1.54.63,1.61,1.61,0,0,1,.5,1.29,1.84,1.84,0,0,1-.73,1.56,3.1,3.1,0,0,1-1.94.55,2.93,2.93,0,0,1-1.87-.56A1.85,1.85,0,0,1,712.13,104.51Z" style="fill:#fff"/><path d="M722.58,99.4v.95a1.81,1.81,0,0,1,.78-.79,2.16,2.16,0,0,1,1.08-.26,3,3,0,0,1,.52,0v1a2.43,2.43,0,0,0-.73-.11,1.53,1.53,0,0,0-1.18.5,1.88,1.88,0,0,0-.46,1.32v4.5h-1V99.4Z" style="fill:#fff"/><path d="M726.89,103.56a2.29,2.29,0,0,0,.49,1.68,1.83,1.83,0,0,0,1.36.49,1.72,1.72,0,0,0,1.18-.37,1.24,1.24,0,0,0,.43-1v0h.92v.07a2,2,0,0,1-.69,1.6,2.82,2.82,0,0,1-1.91.6,2.7,2.7,0,0,1-2-.74,3.14,3.14,0,0,1-.74-2.31v-1.24a3,3,0,0,1,.74-2.26,3,3,0,0,1,3.91,0,3.09,3.09,0,0,1,.74,2.26v.84h-4.44Zm0-1.29v.15h3.49v-.25a2.12,2.12,0,0,0-.47-1.56,1.77,1.77,0,0,0-1.27-.44,1.72,1.72,0,0,0-1.27.46A2.26,2.26,0,0,0,726.89,102.27Z" style="fill:#fff"/><path d="M732.62,104.51v-.06h.92v0a1.1,1.1,0,0,0,.46.94,2,2,0,0,0,1.22.34,2.16,2.16,0,0,0,1.25-.32,1.07,1.07,0,0,0,.46-.93.93.93,0,0,0-.32-.78,2.19,2.19,0,0,0-1-.38l-.88-.16a3,3,0,0,1-1.52-.61,1.64,1.64,0,0,1-.47-1.26,1.82,1.82,0,0,1,.68-1.48,2.74,2.74,0,0,1,1.78-.55,3,3,0,0,1,1.88.54,1.67,1.67,0,0,1,.7,1.4v.09h-.92v0a1.05,1.05,0,0,0-.44-.89,2,2,0,0,0-1.19-.32,1.85,1.85,0,0,0-1.15.32,1.06,1.06,0,0,0-.42.89.92.92,0,0,0,.3.72,1.93,1.93,0,0,0,.93.37l.93.17a3.25,3.25,0,0,1,1.55.63,1.64,1.64,0,0,1,.49,1.29,1.86,1.86,0,0,1-.72,1.56,3.15,3.15,0,0,1-2,.55,2.88,2.88,0,0,1-1.86-.56A1.82,1.82,0,0,1,732.62,104.51Z" style="fill:#fff"/><path d="M740,103.56a2.29,2.29,0,0,0,.49,1.68,1.81,1.81,0,0,0,1.36.49,1.74,1.74,0,0,0,1.18-.37,1.24,1.24,0,0,0,.43-1v0h.92v.07a2,2,0,0,1-.69,1.6,2.82,2.82,0,0,1-1.91.6,2.69,2.69,0,0,1-2-.74,3.15,3.15,0,0,1-.75-2.31v-1.24a3.05,3.05,0,0,1,.75-2.26,3,3,0,0,1,3.91,0,3.09,3.09,0,0,1,.74,2.26v.84H740Zm0-1.29v.15h3.49v-.25a2.12,2.12,0,0,0-.47-1.56,1.78,1.78,0,0,0-1.27-.44,1.76,1.76,0,0,0-1.28.46A2.31,2.31,0,0,0,740,102.27Z" style="fill:#fff"/><path d="M751,101.66v4.84h-.94v-.76a2,2,0,0,1-.8.64,3.09,3.09,0,0,1-1.16.2,2.6,2.6,0,0,1-1.74-.53,2,2,0,0,1-.62-1.56,1.86,1.86,0,0,1,.63-1.49,2.58,2.58,0,0,1,1.75-.54H750v-.81a1.51,1.51,0,0,0-.42-1.16,1.67,1.67,0,0,0-1.19-.39,1.8,1.8,0,0,0-1.14.32,1.09,1.09,0,0,0-.41.91v0h-.93v-.07a1.81,1.81,0,0,1,.66-1.46,3.32,3.32,0,0,1,3.72.06A2.27,2.27,0,0,1,751,101.66Zm-1,2.43v-.93h-1.78q-1.56,0-1.56,1.32c0,.89.51,1.33,1.55,1.33a1.86,1.86,0,0,0,1.37-.43A1.76,1.76,0,0,0,750,104.09Z" style="fill:#fff"/><path d="M753.83,99.4v.95a1.84,1.84,0,0,1,.77-.79,2.22,2.22,0,0,1,1.09-.26,3,3,0,0,1,.52,0v1a2.48,2.48,0,0,0-.73-.11,1.55,1.55,0,0,0-1.19.5,1.92,1.92,0,0,0-.45,1.32v4.5h-1V99.4Z" style="fill:#fff"/><path d="M757.18,103.67v-1.46a2.88,2.88,0,0,1,.75-2.21,2.81,2.81,0,0,1,2-.7,2.74,2.74,0,0,1,1.93.64,2.23,2.23,0,0,1,.71,1.72v.07h-.93v-.07a1.38,1.38,0,0,0-.45-1.1,1.76,1.76,0,0,0-1.21-.39,1.88,1.88,0,0,0-1.36.46,2.22,2.22,0,0,0-.49,1.64v1.34a2.27,2.27,0,0,0,.48,1.65,1.86,1.86,0,0,0,1.35.47,1.74,1.74,0,0,0,1.23-.4,1.38,1.38,0,0,0,.45-1.1v-.07h.93v0a2.21,2.21,0,0,1-.72,1.73,2.72,2.72,0,0,1-1.9.64,2.53,2.53,0,0,1-2.78-2.91Z" style="fill:#fff"/><path d="M765.21,96.83v3.43a2.15,2.15,0,0,1,1.9-1,2.25,2.25,0,0,1,1.73.66,2.59,2.59,0,0,1,.63,1.86v4.67h-1V102a1.88,1.88,0,0,0-.43-1.34,1.57,1.57,0,0,0-1.21-.46,1.63,1.63,0,0,0-1.21.46,1.87,1.87,0,0,0-.45,1.34v4.53h-1V96.83Z" style="fill:#fff"/><path d="M779.07,101.66v4.84h-.94v-.76a1.92,1.92,0,0,1-.8.64,3.05,3.05,0,0,1-1.16.2,2.6,2.6,0,0,1-1.74-.53,2,2,0,0,1-.61-1.56,1.86,1.86,0,0,1,.62-1.49,2.61,2.61,0,0,1,1.76-.54h1.92v-.81a1.51,1.51,0,0,0-.42-1.16,1.69,1.69,0,0,0-1.19-.39,1.81,1.81,0,0,0-1.15.32,1.12,1.12,0,0,0-.41.91v0H774v-.07a1.83,1.83,0,0,1,.65-1.46,2.79,2.79,0,0,1,1.81-.54,2.75,2.75,0,0,1,1.91.6A2.23,2.23,0,0,1,779.07,101.66Zm-1,2.43v-.93h-1.78c-1.05,0-1.57.44-1.57,1.32s.52,1.33,1.55,1.33a1.85,1.85,0,0,0,1.37-.43A1.76,1.76,0,0,0,778.12,104.09Z" style="fill:#fff"/><path d="M781.91,99.4v.86a2,2,0,0,1,.8-.71,2.59,2.59,0,0,1,1.12-.24,2.22,2.22,0,0,1,1.74.67,2.61,2.61,0,0,1,.61,1.85v4.67h-.95V102a1.88,1.88,0,0,0-.44-1.34,1.56,1.56,0,0,0-1.2-.46,1.61,1.61,0,0,0-1.21.46,1.88,1.88,0,0,0-.46,1.34v4.53H781V99.4Z" style="fill:#fff"/><path d="M787.86,103.67v-1.46a3.13,3.13,0,0,1,.67-2.21,2.3,2.3,0,0,1,1.74-.7,2,2,0,0,1,1.9,1.09V96.83h1v9.67h-1v-.94a1.85,1.85,0,0,1-.76.76,2.45,2.45,0,0,1-1.16.26,2.24,2.24,0,0,1-1.72-.71A3.08,3.08,0,0,1,787.86,103.67Zm4.31-.07v-1.25a2.65,2.65,0,0,0-.43-1.59,1.48,1.48,0,0,0-1.29-.59c-1.08,0-1.63.7-1.63,2.1v1.34c0,1.41.53,2.12,1.57,2.12a1.57,1.57,0,0,0,1.33-.59A2.47,2.47,0,0,0,792.17,103.6Z" style="fill:#fff"/><path d="M620.81,120.47V119a3.17,3.17,0,0,1,.67-2.21,2.3,2.3,0,0,1,1.74-.7,2.05,2.05,0,0,1,1.91,1.09v-3.56h1v9.67h-1v-.94a1.94,1.94,0,0,1-.77.76,2.41,2.41,0,0,1-1.15.26,2.26,2.26,0,0,1-1.73-.71A3.13,3.13,0,0,1,620.81,120.47Zm4.32-.07v-1.25a2.65,2.65,0,0,0-.44-1.59,1.48,1.48,0,0,0-1.29-.59q-1.62,0-1.62,2.1v1.34c0,1.41.52,2.12,1.57,2.12a1.57,1.57,0,0,0,1.33-.59A2.47,2.47,0,0,0,625.13,120.4Z" style="fill:#fff"/><path d="M628.72,120.36a2.34,2.34,0,0,0,.49,1.68,1.87,1.87,0,0,0,1.36.49,1.75,1.75,0,0,0,1.18-.37,1.24,1.24,0,0,0,.43-1v0h.93v.07a2,2,0,0,1-.7,1.6,2.82,2.82,0,0,1-1.91.6,2.72,2.72,0,0,1-2-.74,3.19,3.19,0,0,1-.74-2.31v-1.24a3.09,3.09,0,0,1,.74-2.26,2.67,2.67,0,0,1,2-.73,2.64,2.64,0,0,1,2,.73,3.09,3.09,0,0,1,.73,2.26v.85h-4.44Zm0-1.29v.15h3.49V119a2.12,2.12,0,0,0-.46-1.56,1.76,1.76,0,0,0-1.28-.44,1.74,1.74,0,0,0-1.27.46A2.26,2.26,0,0,0,628.72,119.07Z" style="fill:#fff"/><path d="M635,116.2l1.85,5.7,1.85-5.7h1l-2.45,7.1h-.85L634,116.2Z" style="fill:#fff"/><path d="M641.52,120.36A2.29,2.29,0,0,0,642,122a1.85,1.85,0,0,0,1.36.49,1.77,1.77,0,0,0,1.18-.37,1.24,1.24,0,0,0,.43-1v0h.92v.07a2,2,0,0,1-.69,1.6,2.82,2.82,0,0,1-1.91.6,2.7,2.7,0,0,1-2-.74,3.14,3.14,0,0,1-.74-2.31v-1.24a3,3,0,0,1,.74-2.26,3,3,0,0,1,3.91,0,3.09,3.09,0,0,1,.74,2.26v.85h-4.44Zm0-1.29v.15H645V119a2.12,2.12,0,0,0-.47-1.56,1.72,1.72,0,0,0-1.27-.44,1.76,1.76,0,0,0-1.28.46A2.31,2.31,0,0,0,641.52,119.07Z" style="fill:#fff"/><path d="M647.64,121.43v-7.8h1v7.75a1.25,1.25,0,0,0,.21.8.87.87,0,0,0,.68.25h.58v.87h-.67a1.71,1.71,0,0,1-1.31-.48A2,2,0,0,1,647.64,121.43Z" style="fill:#fff"/><path d="M651,120.47V119a2.92,2.92,0,0,1,.74-2.21,2.76,2.76,0,0,1,2-.7,2.7,2.7,0,0,1,2,.7,2.92,2.92,0,0,1,.74,2.21v1.46a2.93,2.93,0,0,1-.74,2.21,2.7,2.7,0,0,1-2,.7,2.8,2.8,0,0,1-2-.69A2.93,2.93,0,0,1,651,120.47Zm4.47-.06v-1.34a2.31,2.31,0,0,0-.47-1.64,1.74,1.74,0,0,0-1.27-.46,1.77,1.77,0,0,0-1.3.46,2.26,2.26,0,0,0-.48,1.64v1.34a2.27,2.27,0,0,0,.48,1.65,1.77,1.77,0,0,0,1.3.47,1.75,1.75,0,0,0,1.27-.47A2.32,2.32,0,0,0,655.51,120.41Z" style="fill:#fff"/><path d="M659.09,116.2v1a2,2,0,0,1,.76-.81,2.15,2.15,0,0,1,1.09-.27,2.37,2.37,0,0,1,1.78.7,3.08,3.08,0,0,1,.68,2.2v1.46a3.09,3.09,0,0,1-.67,2.21,2.27,2.27,0,0,1-1.72.7,2,2,0,0,1-1.92-1v3.07h-1V116.2Zm3.36,2.88c0-1.41-.55-2.11-1.64-2.11a1.48,1.48,0,0,0-1.29.59,2.65,2.65,0,0,0-.43,1.59v1.25a2.48,2.48,0,0,0,.45,1.53,1.58,1.58,0,0,0,1.33.6c1,0,1.58-.71,1.58-2.12Z" style="fill:#fff"/><path d="M666,116.2v.86a1.93,1.93,0,0,1,.8-.7,2.46,2.46,0,0,1,1.12-.25,2.33,2.33,0,0,1,1.24.31,2,2,0,0,1,.8.88,2.35,2.35,0,0,1,2.16-1.19,2.28,2.28,0,0,1,1.76.67,2.54,2.54,0,0,1,.64,1.85v4.67h-1v-4.53a1.92,1.92,0,0,0-.42-1.34A1.56,1.56,0,0,0,672,117a1.61,1.61,0,0,0-1.23.46,1.86,1.86,0,0,0-.44,1.3v4.57h-1v-4.53a1.92,1.92,0,0,0-.42-1.34,1.56,1.56,0,0,0-1.2-.46,1.61,1.61,0,0,0-1.21.46,1.83,1.83,0,0,0-.46,1.34v4.53h-.95v-7.1Z" style="fill:#fff"/><path d="M677.16,120.36a2.34,2.34,0,0,0,.49,1.68,1.87,1.87,0,0,0,1.36.49,1.77,1.77,0,0,0,1.18-.37,1.24,1.24,0,0,0,.43-1v0h.93v.07a2,2,0,0,1-.7,1.6,2.82,2.82,0,0,1-1.91.6,2.72,2.72,0,0,1-2-.74,3.19,3.19,0,0,1-.74-2.31v-1.24a3.09,3.09,0,0,1,.74-2.26,2.67,2.67,0,0,1,2-.73,2.64,2.64,0,0,1,2,.73,3.09,3.09,0,0,1,.73,2.26v.85h-4.44Zm0-1.29v.15h3.49V119a2.12,2.12,0,0,0-.46-1.56,1.76,1.76,0,0,0-1.28-.44,1.72,1.72,0,0,0-1.27.46A2.26,2.26,0,0,0,677.16,119.07Z" style="fill:#fff"/><path d="M684.22,116.2v.86a2,2,0,0,1,.8-.71,2.59,2.59,0,0,1,1.12-.24,2.22,2.22,0,0,1,1.74.67,2.61,2.61,0,0,1,.61,1.85v4.67h-1v-4.53a1.88,1.88,0,0,0-.44-1.34,1.56,1.56,0,0,0-1.2-.46,1.61,1.61,0,0,0-1.21.46,1.83,1.83,0,0,0-.46,1.34v4.53h-1v-7.1Z" style="fill:#fff"/><path d="M691.89,121.49c0,.64.3,1,.91,1h.56v.84h-.71a1.68,1.68,0,0,1-1.27-.47,1.82,1.82,0,0,1-.46-1.3V117h-1.1v-.75h1.1v-1.63l1-.45v2.08h1.6V117h-1.6Z" style="fill:#fff"/><circle cx="550.73" cy="506" r="50" style="fill:#fff"/><path id="user-family" d="M537.21,515.15c-2.12,1.75-4.68,3.86-5.74,4.72H531a6.26,6.26,0,0,1-5.5-3.89l-1-2.8a6.57,6.57,0,0,1-3.51-3.12,2.37,2.37,0,0,1,.41-2.94v-5.83c0-4.7,2.4-8.2,6.7-9.62a1.81,1.81,0,0,1,.21-.18,4.26,4.26,0,0,0,1.32-2.81,2,2,0,0,1,1-1.49,2.08,2.08,0,0,1,1.8-.14,9.42,9.42,0,0,1,2.33,1.37,15.9,15.9,0,0,0-.65,4.61v3.45a6.92,6.92,0,0,0-1.06,7l.58,1.56a9.68,9.68,0,0,0,2.88,4l1,4.75a7.92,7.92,0,0,0,.23.87Zm-8.71,8.49a11.13,11.13,0,0,1-4.85-2.92c-1,1.17-2,2.35-2.48,2.82-1,1.09-1.84,1.88-1.84,3.79v.8a2.06,2.06,0,0,0,2.06,2.06H528a5,5,0,0,1-.11-1v-2.61A7.75,7.75,0,0,1,528.5,523.64Zm9-20a6.18,6.18,0,0,0,2.71,3l1.37,6.3a6.19,6.19,0,0,0,6,4.88h3.92a6.19,6.19,0,0,0,6.05-4.88l1.37-6.3a6.18,6.18,0,0,0,2.71-3l.58-1.55a2.63,2.63,0,0,0-1.32-3.6V493c0-6.19-4.12-10.32-11.35-10.32s-11.36,4.13-11.36,10.32v5.43a2.64,2.64,0,0,0-1.31,3.6Zm44.29,5.33c-5.64-8.16.65-24.17-10.85-24.17a10.08,10.08,0,0,0-10.42-2.44,13.86,13.86,0,0,1,4.55,10.7v3.45a6.9,6.9,0,0,1,1,7l-.57,1.55a9.73,9.73,0,0,1-2.88,4l-1,4.75a8.93,8.93,0,0,1-.23.89l.57.48,3.18,2.63h1.34a6,6,0,0,0,5.24-3.69A35.07,35.07,0,0,0,580.8,512,2,2,0,0,0,581.79,508.94Zm-7.44,8.91a10.41,10.41,0,0,1-4.94,3.58,7.23,7.23,0,0,1,1.86,5.12v2.61a5,5,0,0,1-.11,1h9.07a1,1,0,0,0,1-1v-2.61c0-1.13-.52-2-1.72-3.21C578.81,522.6,576.22,519.84,574.35,517.85Zm-8.92,5.49c-.9-.68-3.78-3.06-6.1-5a10.36,10.36,0,0,1-7.78,3.58h-3.92a10.33,10.33,0,0,1-7.79-3.6c-2.38,1.95-5.32,4.38-6.09,5a3.83,3.83,0,0,0-1.71,3.21v2.61a1,1,0,0,0,1,1h33a1,1,0,0,0,1-1v-2.61A3.41,3.41,0,0,0,565.43,523.34Z" style="fill:#295ca7"/><path d="M630,485.65a6,6,0,0,1-1.07,3.93,4.21,4.21,0,0,1-3.46,1.3h-1.54V497H621V480.44h4.47a4.25,4.25,0,0,1,3.49,1.29A6.16,6.16,0,0,1,630,485.65Zm-3,0a3.93,3.93,0,0,0-.37-1.95,1.4,1.4,0,0,0-1.31-.62h-1.44v5.13h1.44a1.39,1.39,0,0,0,1.31-.62A3.89,3.89,0,0,0,627,485.65Z" style="fill:#fff"/><path d="M631.31,492.44V485a4.6,4.6,0,0,1,1.32-3.56,4.93,4.93,0,0,1,3.48-1.21,4.62,4.62,0,0,1,3.35,1.21,4.73,4.73,0,0,1,1.26,3.56v7.47a4.55,4.55,0,0,1-1.33,3.53,4.92,4.92,0,0,1-3.44,1.22,4.64,4.64,0,0,1-3.39-1.21A4.73,4.73,0,0,1,631.31,492.44Zm6.46-.34v-6.65a3.63,3.63,0,0,0-.43-1.93,1.45,1.45,0,0,0-1.3-.66,1.51,1.51,0,0,0-1.36.65,3.61,3.61,0,0,0-.42,1.94v6.65c0,1.62.6,2.43,1.78,2.43a1.47,1.47,0,0,0,1.29-.64A3.13,3.13,0,0,0,637.77,492.1Z" style="fill:#fff"/><path d="M651.64,485.65a6,6,0,0,1-1.07,3.93,4.23,4.23,0,0,1-3.47,1.3h-1.53V497h-2.93V480.44h4.46a4.26,4.26,0,0,1,3.5,1.29A6.22,6.22,0,0,1,651.64,485.65Zm-2.95,0a4.05,4.05,0,0,0-.37-1.95,1.42,1.42,0,0,0-1.31-.62h-1.44v5.13H647a1.4,1.4,0,0,0,1.31-.62A4,4,0,0,0,648.69,485.65Z" style="fill:#fff"/><path d="M653.64,495a4.74,4.74,0,0,1-.58-2.38V480.44h3v12.14a2.35,2.35,0,0,0,.38,1.48,1.45,1.45,0,0,0,1.18.47q1.56,0,1.56-1.95V480.44h3v12.21a4.74,4.74,0,0,1-.58,2.38,4,4,0,0,1-1.6,1.6,4.86,4.86,0,0,1-2.33.56,4.77,4.77,0,0,1-2.32-.56A4.19,4.19,0,0,1,653.64,495Z" style="fill:#fff"/><path d="M667.05,480.44v13.92h4.44V497H664.1V480.44Z" style="fill:#fff"/><path d="M675.78,493.78l-.67,3.22H672l4.25-16.56h2.88L683.39,497h-3.07l-.67-3.22Zm2-9.36-1.39,6.72h2.78Z" style="fill:#fff"/><path d="M688.41,483.1V497h-2.93V483.1H682.6v-2.66h8.66v2.66Z" style="fill:#fff"/><path d="M695.29,487.25h3.84v2.65h-3.84v4.46h4.47V497h-7.39V480.44h7.39v2.66h-4.47Z" style="fill:#fff"/><path d="M627.68,516.66h-1v-4.48h-4.52v4.48h-1V507h1v4.26h4.52V507h1Z" style="fill:#fff"/><path d="M630.74,507.13v1.27h-1v-1.27Zm0,2.43v7.1h-1v-7.1Z" style="fill:#fff"/><path d="M632.63,517h1a1.1,1.1,0,0,0,.48.75,1.9,1.9,0,0,0,1.09.29c1.11,0,1.67-.62,1.67-1.87v-1a2,2,0,0,1-.77.77,2.51,2.51,0,0,1-2.88-.44,3.17,3.17,0,0,1-.67-2.22v-1a3.13,3.13,0,0,1,.67-2.2,2.3,2.3,0,0,1,1.74-.7,2,2,0,0,1,1.91,1.08v-1h1v6.6a2.85,2.85,0,0,1-.69,2,2.5,2.5,0,0,1-1.94.74,3,3,0,0,1-1.79-.5A1.81,1.81,0,0,1,632.63,517Zm4.19-3.78v-.77a2.61,2.61,0,0,0-.44-1.59,1.49,1.49,0,0,0-1.29-.6c-1.08,0-1.62.71-1.62,2.12v.85c0,1.41.52,2.12,1.57,2.12a1.57,1.57,0,0,0,1.33-.59A2.47,2.47,0,0,0,636.82,513.23Z" style="fill:#fff"/><path d="M640.64,507v3.44a2.14,2.14,0,0,1,1.9-1,2.25,2.25,0,0,1,1.73.66,2.6,2.6,0,0,1,.63,1.87v4.66h-1v-4.52a1.9,1.9,0,0,0-.43-1.35,1.57,1.57,0,0,0-1.21-.46,1.64,1.64,0,0,0-1.21.47,1.86,1.86,0,0,0-.45,1.34v4.52h-1V507Z" style="fill:#fff"/><path d="M650.42,511.34v.92h-3.85v-.92Z" style="fill:#fff"/><path d="M652.28,509.56l1.85,5.7,1.85-5.7h1l-2.45,7.1h-.85l-2.45-7.1Z" style="fill:#fff"/><path d="M662.91,511.83v4.83H662v-.76a1.92,1.92,0,0,1-.8.64,2.84,2.84,0,0,1-1.16.2,2.54,2.54,0,0,1-1.73-.53,1.93,1.93,0,0,1-.62-1.55,1.89,1.89,0,0,1,.62-1.5,2.66,2.66,0,0,1,1.76-.53H662v-.82a1.51,1.51,0,0,0-.42-1.16,1.69,1.69,0,0,0-1.19-.39,1.76,1.76,0,0,0-1.14.33,1.08,1.08,0,0,0-.42.9v0h-.92v-.07a1.79,1.79,0,0,1,.66-1.45,2.71,2.71,0,0,1,1.8-.55,2.78,2.78,0,0,1,1.92.6A2.27,2.27,0,0,1,662.91,511.83Zm-.95,2.42v-.92h-1.78c-1,0-1.57.44-1.57,1.31s.52,1.33,1.56,1.33a1.88,1.88,0,0,0,1.36-.42A1.76,1.76,0,0,0,662,514.25Z" style="fill:#fff"/><path d="M664.81,514.8V507h1v7.75a1.24,1.24,0,0,0,.21.8.82.82,0,0,0,.68.25h.58v.87h-.68a1.69,1.69,0,0,1-1.3-.48A1.93,1.93,0,0,1,664.81,514.8Z" style="fill:#fff"/><path d="M668.44,514.05v-4.49h.95v4.37a2.41,2.41,0,0,0,.38,1.47,1.5,1.5,0,0,0,1.27.49,1.54,1.54,0,0,0,1.28-.48,2.36,2.36,0,0,0,.38-1.48v-4.37h.95v4.49a2.83,2.83,0,0,1-.65,2,2.59,2.59,0,0,1-2,.69,2.54,2.54,0,0,1-1.94-.69A2.83,2.83,0,0,1,668.44,514.05Z" style="fill:#fff"/><path d="M676.28,513.72a2.34,2.34,0,0,0,.49,1.69,1.87,1.87,0,0,0,1.36.48,1.77,1.77,0,0,0,1.18-.36,1.25,1.25,0,0,0,.43-1v0h.92v.07a2,2,0,0,1-.69,1.6,2.82,2.82,0,0,1-1.91.6,2.66,2.66,0,0,1-2-.74,3.16,3.16,0,0,1-.74-2.31v-1.23a3.07,3.07,0,0,1,.74-2.26,3,3,0,0,1,3.92,0,3.07,3.07,0,0,1,.73,2.26v.84h-4.44Zm0-1.29v.15h3.49v-.25a2.14,2.14,0,0,0-.46-1.55,1.77,1.77,0,0,0-1.28-.45,1.73,1.73,0,0,0-1.27.47A2.22,2.22,0,0,0,676.28,512.43Z" style="fill:#fff"/><path d="M685,513.83v-1.46a3.08,3.08,0,0,1,.68-2.2,2.28,2.28,0,0,1,1.73-.71,2,2,0,0,1,1.91,1.09V507h1v9.67h-1v-.94a1.94,1.94,0,0,1-.76.77,2.48,2.48,0,0,1-1.16.25,2.27,2.27,0,0,1-1.72-.7A3.11,3.11,0,0,1,685,513.83Zm4.32-.07v-1.25a2.72,2.72,0,0,0-.43-1.59,1.51,1.51,0,0,0-1.29-.59c-1.09,0-1.63.7-1.63,2.1v1.34c0,1.41.52,2.12,1.57,2.12a1.57,1.57,0,0,0,1.33-.59A2.45,2.45,0,0,0,689.33,513.76Z" style="fill:#fff"/><path d="M697.06,511.83v4.83h-.94v-.76a1.92,1.92,0,0,1-.8.64,2.87,2.87,0,0,1-1.16.2,2.55,2.55,0,0,1-1.74-.53,1.93,1.93,0,0,1-.61-1.55,1.86,1.86,0,0,1,.62-1.5,2.64,2.64,0,0,1,1.76-.53h1.92v-.82a1.51,1.51,0,0,0-.42-1.16,1.69,1.69,0,0,0-1.19-.39,1.81,1.81,0,0,0-1.15.33,1.1,1.1,0,0,0-.41.9v0H692v-.07a1.81,1.81,0,0,1,.65-1.45,3.3,3.3,0,0,1,3.72.05A2.24,2.24,0,0,1,697.06,511.83Zm-.95,2.42v-.92h-1.78c-1.05,0-1.57.44-1.57,1.31s.52,1.33,1.55,1.33a1.9,1.9,0,0,0,1.37-.42A1.8,1.8,0,0,0,696.11,514.25Z" style="fill:#fff"/><path d="M700.46,514.85c0,.65.3,1,.91,1h.56v.84h-.72a1.67,1.67,0,0,1-1.26-.47,1.74,1.74,0,0,1-.46-1.29v-4.59h-1.1v-.75h1.1v-1.63l1-.44v2.07h1.6v.75h-1.6Z" style="fill:#fff"/><path d="M708.38,511.83v4.83h-.93v-.76a2.05,2.05,0,0,1-.8.64,2.92,2.92,0,0,1-1.17.2,2.54,2.54,0,0,1-1.73-.53,1.93,1.93,0,0,1-.62-1.55,1.89,1.89,0,0,1,.62-1.5,2.68,2.68,0,0,1,1.76-.53h1.92v-.82a1.51,1.51,0,0,0-.42-1.16,1.69,1.69,0,0,0-1.19-.39,1.76,1.76,0,0,0-1.14.33,1.08,1.08,0,0,0-.41.9v0h-.93v-.07A1.79,1.79,0,0,1,704,510a2.72,2.72,0,0,1,1.81-.55,2.75,2.75,0,0,1,1.91.6A2.27,2.27,0,0,1,708.38,511.83Zm-1,2.42v-.92h-1.78c-1,0-1.57.44-1.57,1.31s.52,1.33,1.56,1.33a1.88,1.88,0,0,0,1.36-.42A1.76,1.76,0,0,0,707.43,514.25Z" style="fill:#fff"/><path d="M714.63,514.85c0,.65.3,1,.91,1h.56v.84h-.72a1.67,1.67,0,0,1-1.26-.47,1.74,1.74,0,0,1-.46-1.29v-4.59h-1.11v-.75h1.11v-1.63l1-.44v2.07h1.59v.75h-1.59Z" style="fill:#fff"/><path d="M718.64,507v3.44a2.16,2.16,0,0,1,1.91-1,2.27,2.27,0,0,1,1.73.66,2.64,2.64,0,0,1,.62,1.87v4.66H722v-4.52a2,2,0,0,0-.43-1.35,1.58,1.58,0,0,0-1.21-.46,1.62,1.62,0,0,0-1.21.47,1.86,1.86,0,0,0-.46,1.34v4.52h-.95V507Z" style="fill:#fff"/><path d="M725.53,513.72a2.34,2.34,0,0,0,.49,1.69,1.87,1.87,0,0,0,1.36.48,1.77,1.77,0,0,0,1.18-.36,1.25,1.25,0,0,0,.43-1v0h.92v.07a2,2,0,0,1-.69,1.6,2.82,2.82,0,0,1-1.91.6,2.68,2.68,0,0,1-2-.74,3.16,3.16,0,0,1-.74-2.31v-1.23a3.07,3.07,0,0,1,.74-2.26,3,3,0,0,1,3.92,0,3.07,3.07,0,0,1,.73,2.26v.84h-4.44Zm0-1.29v.15H729v-.25a2.14,2.14,0,0,0-.46-1.55,1.77,1.77,0,0,0-1.28-.45,1.73,1.73,0,0,0-1.27.47A2.22,2.22,0,0,0,725.53,512.43Z" style="fill:#fff"/><path d="M732.59,509.56v.87a2,2,0,0,1,.8-.71,2.56,2.56,0,0,1,1.12-.25,2.43,2.43,0,0,1,1.24.31,2,2,0,0,1,.8.88,2.35,2.35,0,0,1,2.16-1.19,2.31,2.31,0,0,1,1.76.67,2.59,2.59,0,0,1,.63,1.86v4.66h-1v-4.52a1.9,1.9,0,0,0-.43-1.35,1.52,1.52,0,0,0-1.19-.46,1.62,1.62,0,0,0-1.23.47,1.82,1.82,0,0,0-.44,1.29v4.57h-1v-4.52a2,2,0,0,0-.42-1.35,1.56,1.56,0,0,0-1.2-.46,1.6,1.6,0,0,0-1.21.47,1.82,1.82,0,0,0-.46,1.34v4.52h-1v-7.1Z" style="fill:#fff"/><path d="M743.73,513.72a2.34,2.34,0,0,0,.49,1.69,1.87,1.87,0,0,0,1.36.48,1.77,1.77,0,0,0,1.18-.36,1.25,1.25,0,0,0,.43-1v0h.93v.07a2,2,0,0,1-.7,1.6,2.82,2.82,0,0,1-1.91.6,2.68,2.68,0,0,1-2-.74,3.16,3.16,0,0,1-.74-2.31v-1.23a3.07,3.07,0,0,1,.74-2.26,3,3,0,0,1,3.92,0,3.07,3.07,0,0,1,.73,2.26v.84h-4.44Zm0-1.29v.15h3.49v-.25a2.14,2.14,0,0,0-.46-1.55,1.77,1.77,0,0,0-1.28-.45,1.73,1.73,0,0,0-1.27.47A2.22,2.22,0,0,0,743.73,512.43Z" style="fill:#fff"/><path d="M749.46,514.67v-.06h.92v0a1.09,1.09,0,0,0,.46.93,2,2,0,0,0,1.22.34,2.22,2.22,0,0,0,1.26-.32,1.07,1.07,0,0,0,.45-.92,1,1,0,0,0-.32-.79,2.26,2.26,0,0,0-1-.38l-.88-.15a3,3,0,0,1-1.52-.62,1.64,1.64,0,0,1-.47-1.26,1.82,1.82,0,0,1,.68-1.48,2.76,2.76,0,0,1,1.78-.55,3,3,0,0,1,1.88.54,1.69,1.69,0,0,1,.7,1.41v.08h-.92v0a1,1,0,0,0-.44-.88,1.91,1.91,0,0,0-1.19-.33,1.79,1.79,0,0,0-1.15.33,1,1,0,0,0-.42.88.89.89,0,0,0,.3.72,1.88,1.88,0,0,0,.94.37l.92.17a3.15,3.15,0,0,1,1.55.64,1.62,1.62,0,0,1,.5,1.28,1.86,1.86,0,0,1-.73,1.56,3.15,3.15,0,0,1-2,.55,2.83,2.83,0,0,1-1.86-.56A1.81,1.81,0,0,1,749.46,514.67Z" style="fill:#fff"/><path d="M620.81,530.63v-1.46a2.89,2.89,0,0,1,.75-2.21,2.81,2.81,0,0,1,2-.7,2.76,2.76,0,0,1,1.93.64,2.23,2.23,0,0,1,.7,1.73v.07h-.92v-.07a1.39,1.39,0,0,0-.45-1.11,1.79,1.79,0,0,0-1.22-.39,1.86,1.86,0,0,0-1.36.47,2.22,2.22,0,0,0-.49,1.63v1.34a2.26,2.26,0,0,0,.49,1.65,1.86,1.86,0,0,0,1.35.47,1.81,1.81,0,0,0,1.23-.39,1.39,1.39,0,0,0,.45-1.11v-.07h.92v.06a2.18,2.18,0,0,1-.71,1.72,2.74,2.74,0,0,1-1.91.64,2.53,2.53,0,0,1-2.77-2.91Z" style="fill:#fff"/><path d="M627.66,530.63v-1.46a2.93,2.93,0,0,1,.74-2.21,2.76,2.76,0,0,1,2-.7,2.7,2.7,0,0,1,2,.7,2.93,2.93,0,0,1,.74,2.21v1.46a2.92,2.92,0,0,1-.74,2.21,2.7,2.7,0,0,1-2,.7,2.8,2.8,0,0,1-2-.69A2.93,2.93,0,0,1,627.66,530.63Zm4.47-.06v-1.34a2.27,2.27,0,0,0-.47-1.63,1.71,1.71,0,0,0-1.27-.47,1.73,1.73,0,0,0-1.3.47,2.22,2.22,0,0,0-.48,1.63v1.34a2.26,2.26,0,0,0,.48,1.65,1.77,1.77,0,0,0,1.3.47,1.75,1.75,0,0,0,1.27-.47A2.31,2.31,0,0,0,632.13,530.57Z" style="fill:#fff"/><path d="M635.7,526.36v.87a2,2,0,0,1,.8-.71,2.52,2.52,0,0,1,1.11-.25,2.44,2.44,0,0,1,1.25.31,2.07,2.07,0,0,1,.8.88,2.59,2.59,0,0,1,3.92-.52,2.59,2.59,0,0,1,.63,1.86v4.66h-1v-4.52a1.9,1.9,0,0,0-.43-1.35,1.53,1.53,0,0,0-1.2-.46,1.56,1.56,0,0,0-1.22.47,1.77,1.77,0,0,0-.44,1.29v4.57h-1v-4.52a1.9,1.9,0,0,0-.43-1.35,1.52,1.52,0,0,0-1.19-.46,1.6,1.6,0,0,0-1.22.47,1.86,1.86,0,0,0-.45,1.34v4.52h-1v-7.1Z" style="fill:#fff"/><path d="M647.05,526.36v.87a2,2,0,0,1,.8-.71,2.59,2.59,0,0,1,1.12-.25,2.43,2.43,0,0,1,1.24.31,2,2,0,0,1,.8.88,2.35,2.35,0,0,1,2.16-1.19,2.31,2.31,0,0,1,1.76.67,2.55,2.55,0,0,1,.64,1.86v4.66h-1v-4.52a2,2,0,0,0-.42-1.35,1.56,1.56,0,0,0-1.2-.46,1.58,1.58,0,0,0-1.23.47,1.82,1.82,0,0,0-.44,1.29v4.57h-1v-4.52a2,2,0,0,0-.42-1.35,1.56,1.56,0,0,0-1.2-.46,1.58,1.58,0,0,0-1.21.47,1.82,1.82,0,0,0-.46,1.34v4.52h-.95v-7.1Z" style="fill:#fff"/><path d="M657.46,530.85v-4.49h1v4.37a2.42,2.42,0,0,0,.37,1.47,1.92,1.92,0,0,0,2.55,0,2.3,2.3,0,0,0,.38-1.48v-4.37h.95v4.49a2.79,2.79,0,0,1-.65,2,2.58,2.58,0,0,1-2,.69,2.53,2.53,0,0,1-1.93-.69A2.79,2.79,0,0,1,657.46,530.85Z" style="fill:#fff"/><path d="M665.51,526.36v.87a2,2,0,0,1,.81-.72,2.51,2.51,0,0,1,1.11-.24,2.27,2.27,0,0,1,1.75.67,2.67,2.67,0,0,1,.61,1.86v4.66h-1v-4.52a1.9,1.9,0,0,0-.43-1.35,1.57,1.57,0,0,0-1.21-.46,1.6,1.6,0,0,0-1.21.47,1.86,1.86,0,0,0-.45,1.34v4.52h-.95v-7.1Z" style="fill:#fff"/><path d="M672.78,523.93v1.27h-1v-1.27Zm0,2.43v7.1h-1v-7.1Z" style="fill:#fff"/><path d="M676.27,531.65c0,.65.3,1,.91,1h.56v.84H677a1.71,1.71,0,0,1-1.27-.47,1.78,1.78,0,0,1-.45-1.29v-4.59h-1.11v-.75h1.11v-1.63l1-.45v2.08h1.59v.75h-1.59Z" style="fill:#fff"/><path d="M680.42,523.93v1.27h-1v-1.27Zm0,2.43v7.1h-1v-7.1Z" style="fill:#fff"/><path d="M683.14,530.52a2.34,2.34,0,0,0,.49,1.69,1.87,1.87,0,0,0,1.36.48,1.72,1.72,0,0,0,1.18-.37,1.22,1.22,0,0,0,.43-1v-.05h.92v.07a2,2,0,0,1-.69,1.6,2.82,2.82,0,0,1-1.91.6,2.66,2.66,0,0,1-2-.74,3.16,3.16,0,0,1-.74-2.31v-1.23a3.12,3.12,0,0,1,.74-2.27,3,3,0,0,1,3.92,0,3.11,3.11,0,0,1,.73,2.27v.84h-4.44Zm0-1.29v.15h3.49v-.25a2.14,2.14,0,0,0-.46-1.55,1.77,1.77,0,0,0-1.28-.45,1.69,1.69,0,0,0-1.27.47A2.22,2.22,0,0,0,683.14,529.23Z" style="fill:#fff"/><path d="M688.87,531.47v-.06h.92v.05a1.09,1.09,0,0,0,.46.93,2,2,0,0,0,1.22.34,2.16,2.16,0,0,0,1.25-.32,1.05,1.05,0,0,0,.46-.92,1,1,0,0,0-.32-.79,2.31,2.31,0,0,0-1-.38l-.88-.15a3,3,0,0,1-1.52-.62,1.64,1.64,0,0,1-.47-1.26,1.82,1.82,0,0,1,.68-1.48,2.74,2.74,0,0,1,1.78-.55,3,3,0,0,1,1.88.54,1.69,1.69,0,0,1,.7,1.41v.08h-.92v0a1,1,0,0,0-.44-.88,1.93,1.93,0,0,0-1.19-.33,1.79,1.79,0,0,0-1.15.33,1,1,0,0,0-.42.88.89.89,0,0,0,.3.72,1.84,1.84,0,0,0,.93.37l.93.17a3.15,3.15,0,0,1,1.55.64,1.62,1.62,0,0,1,.49,1.28,1.86,1.86,0,0,1-.72,1.56,3.15,3.15,0,0,1-2,.55,2.83,2.83,0,0,1-1.86-.56A1.81,1.81,0,0,1,688.87,531.47Z" style="fill:#fff"/><path d="M698.15,530.63v-1.46a2.93,2.93,0,0,1,.74-2.21,2.76,2.76,0,0,1,2-.7,2.7,2.7,0,0,1,2,.7,2.93,2.93,0,0,1,.74,2.21v1.46a2.92,2.92,0,0,1-.74,2.21,2.7,2.7,0,0,1-2,.7,2.8,2.8,0,0,1-2-.69A2.93,2.93,0,0,1,698.15,530.63Zm4.47-.06v-1.34a2.27,2.27,0,0,0-.47-1.63,1.71,1.71,0,0,0-1.27-.47,1.73,1.73,0,0,0-1.3.47,2.22,2.22,0,0,0-.48,1.63v1.34a2.26,2.26,0,0,0,.48,1.65,1.77,1.77,0,0,0,1.3.47,1.75,1.75,0,0,0,1.27-.47A2.31,2.31,0,0,0,702.62,530.57Z" style="fill:#fff"/><path d="M706.76,526.36h1.48v.75h-1.48v6.35h-1v-6.35h-.89v-.75h.89v-.8a1.77,1.77,0,0,1,.46-1.29,1.63,1.63,0,0,1,1.25-.48h.74v.76h-.58c-.6,0-.9.32-.9,1Z" style="fill:#fff"/><path d="M713.42,526.36v1a2,2,0,0,1,.76-.8,2.08,2.08,0,0,1,1.09-.28,2.41,2.41,0,0,1,1.78.7,3,3,0,0,1,.69,2.2v1.46a3.08,3.08,0,0,1-.68,2.21,2.25,2.25,0,0,1-1.72.7,2,2,0,0,1-1.92-1v3.07h-.95v-9.23Zm3.36,2.88c0-1.41-.54-2.11-1.64-2.11a1.5,1.5,0,0,0-1.28.59,2.65,2.65,0,0,0-.44,1.59v1.25a2.38,2.38,0,0,0,.46,1.53,1.55,1.55,0,0,0,1.32.6c1.06,0,1.58-.71,1.58-2.12Z" style="fill:#fff"/><path d="M720.35,526.36v.95a2,2,0,0,1,.78-.79,2.28,2.28,0,0,1,1.09-.26,2.85,2.85,0,0,1,.51,0v1a2.38,2.38,0,0,0-.73-.11,1.51,1.51,0,0,0-1.18.51,1.88,1.88,0,0,0-.45,1.31v4.5h-1v-7.1Z" style="fill:#fff"/><path d="M728.8,528.63v4.83h-.94v-.76a2,2,0,0,1-.8.64,2.9,2.9,0,0,1-1.16.2,2.55,2.55,0,0,1-1.74-.53,1.93,1.93,0,0,1-.62-1.55,1.87,1.87,0,0,1,.63-1.5,2.63,2.63,0,0,1,1.75-.53h1.92v-.82a1.51,1.51,0,0,0-.42-1.16,1.67,1.67,0,0,0-1.19-.39,1.8,1.8,0,0,0-1.14.33,1.1,1.1,0,0,0-.41.9v0h-.93v-.07a1.79,1.79,0,0,1,.66-1.45,2.72,2.72,0,0,1,1.81-.55,2.75,2.75,0,0,1,1.91.6A2.28,2.28,0,0,1,728.8,528.63Zm-1,2.42v-.92h-1.78c-1,0-1.56.44-1.56,1.31s.51,1.33,1.55,1.33a1.9,1.9,0,0,0,1.37-.42A1.8,1.8,0,0,0,727.84,531.05Z" style="fill:#fff"/><path d="M730.47,530.63v-1.46a2.89,2.89,0,0,1,.75-2.21,2.81,2.81,0,0,1,2-.7,2.76,2.76,0,0,1,1.93.64,2.24,2.24,0,0,1,.71,1.73v.07h-.93v-.07a1.39,1.39,0,0,0-.45-1.11,1.79,1.79,0,0,0-1.22-.39,1.84,1.84,0,0,0-1.35.47,2.18,2.18,0,0,0-.49,1.63v1.34a2.26,2.26,0,0,0,.48,1.65,1.86,1.86,0,0,0,1.35.47,1.81,1.81,0,0,0,1.23-.39,1.39,1.39,0,0,0,.45-1.11v-.07h.93v.06a2.19,2.19,0,0,1-.72,1.72,2.73,2.73,0,0,1-1.9.64,2.53,2.53,0,0,1-2.78-2.91Z" style="fill:#fff"/><path d="M739,531.65c0,.65.31,1,.91,1h.56v.84h-.71a1.7,1.7,0,0,1-1.27-.47,1.78,1.78,0,0,1-.45-1.29v-4.59H737v-.75h1.11v-1.63l1-.45v2.08h1.6v.75H739Z" style="fill:#fff"/><path d="M743.2,523.93v1.27h-1v-1.27Zm0,2.43v7.1h-.95v-7.1Z" style="fill:#fff"/><path d="M745,530.63v-1.46a2.89,2.89,0,0,1,.75-2.21,2.81,2.81,0,0,1,2-.7,2.74,2.74,0,0,1,1.93.64,2.24,2.24,0,0,1,.71,1.73v.07h-.93v-.07a1.39,1.39,0,0,0-.45-1.11,1.79,1.79,0,0,0-1.22-.39,1.84,1.84,0,0,0-1.35.47,2.18,2.18,0,0,0-.49,1.63v1.34a2.26,2.26,0,0,0,.48,1.65,1.86,1.86,0,0,0,1.35.47,1.81,1.81,0,0,0,1.23-.39,1.39,1.39,0,0,0,.45-1.11v-.07h.93v.06a2.19,2.19,0,0,1-.72,1.72,2.73,2.73,0,0,1-1.9.64,2.53,2.53,0,0,1-2.78-2.91Z" style="fill:#fff"/><path d="M752.76,530.52a2.38,2.38,0,0,0,.49,1.69,1.87,1.87,0,0,0,1.36.48,1.7,1.7,0,0,0,1.18-.37,1.22,1.22,0,0,0,.43-1v-.05h.93v.07a2,2,0,0,1-.7,1.6,2.82,2.82,0,0,1-1.91.6,2.68,2.68,0,0,1-2-.74,3.16,3.16,0,0,1-.74-2.31v-1.23a3.12,3.12,0,0,1,.74-2.27,2.67,2.67,0,0,1,2-.73,2.64,2.64,0,0,1,2,.73,3.11,3.11,0,0,1,.73,2.27v.84h-4.44Zm0-1.29v.15h3.49v-.25a2.1,2.1,0,0,0-.46-1.55,1.77,1.77,0,0,0-1.28-.45,1.71,1.71,0,0,0-1.27.47A2.22,2.22,0,0,0,752.76,529.23Z" style="fill:#fff"/><path d="M110.51,233.46a4.27,4.27,0,0,1,4.61,4.75v7.06a4.57,4.57,0,0,1-1.32,3.54,4.86,4.86,0,0,1-3.43,1.21h-4.44V233.46Zm1.22,13.28a3.25,3.25,0,0,0,.44-1.81v-6.21a3.52,3.52,0,0,0-.43-1.93,1.45,1.45,0,0,0-1.3-.66h-1.58v11.25h1.58A1.47,1.47,0,0,0,111.73,246.74Z" style="fill:#414042"/><path d="M119.73,245.82c0,1.3.42,2,1.25,2s1.22-.54,1.22-1.61V246h2.69v.14a4.14,4.14,0,0,1-1,3,3.94,3.94,0,0,1-2.9,1,3.83,3.83,0,0,1-3-1.16,5.6,5.6,0,0,1-1-3.81v-3.1a5.91,5.91,0,0,1,1-3.79,3.64,3.64,0,0,1,3-1.2,3.8,3.8,0,0,1,3,1.22,5.64,5.64,0,0,1,1.07,3.77v2.52h-5.26Zm0-4.1v.93h2.47v-.93a3,3,0,0,0-.31-1.57,1,1,0,0,0-.94-.5,1,1,0,0,0-.91.5A3,3,0,0,0,119.73,241.72Z" style="fill:#414042"/><path d="M128.75,237.35l1.59,8.23,1.56-8.23H135L131.8,250h-3l-3.17-12.67Z" style="fill:#414042"/><path d="M138.45,245.82c0,1.3.42,2,1.25,2s1.22-.54,1.22-1.61V246h2.69v.14a4.14,4.14,0,0,1-1,3,3.94,3.94,0,0,1-2.9,1,3.85,3.85,0,0,1-3-1.16,5.6,5.6,0,0,1-1.05-3.81v-3.1a5.91,5.91,0,0,1,1-3.79,3.64,3.64,0,0,1,3-1.2,3.8,3.8,0,0,1,3,1.22,5.64,5.64,0,0,1,1.07,3.77v2.52h-5.26Zm0-4.1v.93h2.47v-.93a3,3,0,0,0-.31-1.57,1,1,0,0,0-.94-.5,1,1,0,0,0-.91.5A3,3,0,0,0,138.45,241.72Z" style="fill:#414042"/><path d="M145.6,233.46h2.79v12.46c0,1.07.51,1.61,1.53,1.61H150V250h-.14q-4.31,0-4.3-3.93Z" style="fill:#414042"/><path d="M151.29,245.63v-3.89a5,5,0,0,1,1-3.5,4.69,4.69,0,0,1,6,0,5,5,0,0,1,1,3.5v3.89a5,5,0,0,1-1,3.51,4.69,4.69,0,0,1-6,0A5,5,0,0,1,151.29,245.63Zm5.26,0v-3.93a3,3,0,0,0-.32-1.57,1,1,0,0,0-.93-.5,1,1,0,0,0-.91.5,3,3,0,0,0-.32,1.57v3.93a3,3,0,0,0,.32,1.58,1,1,0,0,0,.91.49,1,1,0,0,0,.93-.49A3,3,0,0,0,156.55,245.65Z" style="fill:#414042"/><path d="M163.91,237.35v1a2.58,2.58,0,0,1,2.24-1.2,2.71,2.71,0,0,1,2.2,1,4.83,4.83,0,0,1,.82,3.12v4.85a4.71,4.71,0,0,1-.85,3.12,2.8,2.8,0,0,1-2.22,1,2.59,2.59,0,0,1-2.09-1v4.57h-2.78V237.35Zm2.48,8.3v-3.93a3.1,3.1,0,0,0-.3-1.57,1,1,0,0,0-.9-.5,1,1,0,0,0-.92.5,3.09,3.09,0,0,0-.31,1.57v3.93q0,2.07,1.23,2.07a1,1,0,0,0,.9-.48A3.14,3.14,0,0,0,166.39,245.65Z" style="fill:#414042"/><path d="M187.36,250h-3.19l-1.8-10.17L180.55,250h-3.17l-3-16.56h3l1.6,12.39,1.56-12.39h3.6l1.56,12.39,1.61-12.39h2.95Z" style="fill:#414042"/><path d="M193.75,245.82c0,1.3.41,2,1.24,2s1.23-.54,1.23-1.61V246h2.69v.14a4.14,4.14,0,0,1-1,3,4,4,0,0,1-2.91,1,3.81,3.81,0,0,1-3-1.16,5.54,5.54,0,0,1-1.06-3.81v-3.1a5.85,5.85,0,0,1,1-3.79,3.62,3.62,0,0,1,3-1.2,3.79,3.79,0,0,1,3,1.22,5.58,5.58,0,0,1,1.07,3.77v2.52h-5.25Zm0-4.1v.93h2.47v-.93a3.09,3.09,0,0,0-.31-1.57,1,1,0,0,0-.94-.5,1,1,0,0,0-.91.5A3,3,0,0,0,193.75,241.72Z" style="fill:#414042"/><path d="M203.58,249.14V250H200.9V233.46h2.78v4.9a2.42,2.42,0,0,1,.88-.89,2.45,2.45,0,0,1,1.26-.31,2.74,2.74,0,0,1,2.21,1,4.9,4.9,0,0,1,.81,3.12v4.85a4.71,4.71,0,0,1-.85,3.12,2.8,2.8,0,0,1-2.22,1,2.54,2.54,0,0,1-1.19-.27A3.6,3.6,0,0,1,203.58,249.14Zm2.48-3.49v-3.93a3.1,3.1,0,0,0-.3-1.57,1,1,0,0,0-.9-.5,1,1,0,0,0-.91.5,3,3,0,0,0-.32,1.57v3.93q0,2.07,1.23,2.07a1,1,0,0,0,.9-.48A3.14,3.14,0,0,0,206.06,245.65Z" style="fill:#414042"/><path d="M217.27,240.4V243h-6.61V240.4Z" style="fill:#414042"/><path d="M222.07,246.81l-.68,3.21h-3.07l4.25-16.56h2.88L229.67,250H226.6l-.67-3.21Zm1.94-9.36-1.39,6.72h2.78Z" style="fill:#414042"/><path d="M230.73,245.63v-3.89a5,5,0,0,1,1-3.5,4,4,0,0,1,3-1.08,3.85,3.85,0,0,1,2.9,1,4.24,4.24,0,0,1,1,3.1v.48H236v-.44a2,2,0,0,0-.33-1.26,1.07,1.07,0,0,0-.9-.42,1,1,0,0,0-.93.5,3,3,0,0,0-.32,1.57v3.93a3,3,0,0,0,.32,1.58,1,1,0,0,0,.91.49,1.08,1.08,0,0,0,.92-.42A2.08,2.08,0,0,0,236,246v-.4h2.68v.4a4.35,4.35,0,0,1-1,3.16,3.82,3.82,0,0,1-2.9,1.05,4,4,0,0,1-3-1.08A5,5,0,0,1,230.73,245.63Z" style="fill:#414042"/><path d="M240.5,245.63v-3.89a5,5,0,0,1,1-3.5,4,4,0,0,1,3-1.08,3.86,3.86,0,0,1,2.9,1,4.28,4.28,0,0,1,1,3.1v.48h-2.69v-.44a2.09,2.09,0,0,0-.32-1.26,1.08,1.08,0,0,0-.9-.42,1,1,0,0,0-.94.5,3,3,0,0,0-.31,1.57v3.93a3.05,3.05,0,0,0,.31,1.58,1,1,0,0,0,.91.49,1.11,1.11,0,0,0,.93-.42,2.15,2.15,0,0,0,.32-1.29v-.4h2.69v.4a4.39,4.39,0,0,1-1,3.16,3.83,3.83,0,0,1-2.9,1.05,4,4,0,0,1-3-1.08A5,5,0,0,1,240.5,245.63Z" style="fill:#414042"/><path d="M253.05,245.82c0,1.3.41,2,1.25,2s1.22-.54,1.22-1.61V246h2.69v.14a4.14,4.14,0,0,1-1,3,3.94,3.94,0,0,1-2.9,1,3.83,3.83,0,0,1-3-1.16,5.6,5.6,0,0,1-1.06-3.81v-3.1a5.91,5.91,0,0,1,1-3.79,3.62,3.62,0,0,1,3-1.2,3.82,3.82,0,0,1,3,1.22,5.64,5.64,0,0,1,1.06,3.77v2.52h-5.25Zm0-4.1v.93h2.47v-.93a3,3,0,0,0-.31-1.57,1,1,0,0,0-.94-.5,1,1,0,0,0-.91.5A3,3,0,0,0,253.05,241.72Z" style="fill:#414042"/><path d="M259.94,246.37v-.14h2.68v.14a1.59,1.59,0,0,0,.36,1.12,1.32,1.32,0,0,0,1,.4,1.25,1.25,0,0,0,.95-.35,1.42,1.42,0,0,0,.32-1,1.36,1.36,0,0,0-.3-.88A2.55,2.55,0,0,0,264,245l-1.44-.62a4.43,4.43,0,0,1-2-1.47,3.74,3.74,0,0,1-.55-2.11,3.43,3.43,0,0,1,1.08-2.59,4.4,4.4,0,0,1,5.66,0,3.55,3.55,0,0,1,1.08,2.69v.24h-2.69V241a1.66,1.66,0,0,0-.33-1.12,1.15,1.15,0,0,0-.91-.39,1.26,1.26,0,0,0-.88.31,1.17,1.17,0,0,0-.32.89,1.39,1.39,0,0,0,.24.84,2.14,2.14,0,0,0,.91.63l1.56.67a4.58,4.58,0,0,1,2,1.45,3.78,3.78,0,0,1,.6,2.22,3.56,3.56,0,0,1-1.1,2.7,4,4,0,0,1-2.94,1.05,4.12,4.12,0,0,1-2.92-1A3.71,3.71,0,0,1,259.94,246.37Z" style="fill:#414042"/><path d="M269.1,246.37v-.14h2.69v.14a1.59,1.59,0,0,0,.36,1.12,1.32,1.32,0,0,0,1,.4,1.25,1.25,0,0,0,.95-.35,1.47,1.47,0,0,0,.32-1,1.36,1.36,0,0,0-.3-.88,2.51,2.51,0,0,0-.95-.66l-1.44-.62a4.45,4.45,0,0,1-2-1.47,3.74,3.74,0,0,1-.55-2.11,3.43,3.43,0,0,1,1.08-2.59,4.4,4.4,0,0,1,5.66,0,3.55,3.55,0,0,1,1.08,2.69v.24h-2.69V241a1.66,1.66,0,0,0-.33-1.12,1.16,1.16,0,0,0-.92-.39,1.23,1.23,0,0,0-.87.31,1.18,1.18,0,0,0-.33.89,1.39,1.39,0,0,0,.24.84,2.19,2.19,0,0,0,.92.63l1.56.67a4.55,4.55,0,0,1,2,1.45,3.78,3.78,0,0,1,.6,2.22,3.56,3.56,0,0,1-1.09,2.7,4.07,4.07,0,0,1-2.94,1.05,4.14,4.14,0,0,1-2.93-1A3.71,3.71,0,0,1,269.1,246.37Z" style="fill:#414042"/><path d="M281.66,233.46v2.33h-2.79v-2.33Zm0,3.89V250h-2.79V237.35Z" style="fill:#414042"/><path d="M286.41,249.14V250h-2.69V233.46h2.78v4.9a2.42,2.42,0,0,1,.88-.89,2.45,2.45,0,0,1,1.26-.31,2.74,2.74,0,0,1,2.21,1,4.9,4.9,0,0,1,.81,3.12v4.85a4.71,4.71,0,0,1-.85,3.12,2.78,2.78,0,0,1-2.22,1,2.54,2.54,0,0,1-1.19-.27A3.43,3.43,0,0,1,286.41,249.14Zm2.47-3.49v-3.93a3.1,3.1,0,0,0-.3-1.57,1,1,0,0,0-.9-.5,1,1,0,0,0-.91.5,3,3,0,0,0-.31,1.57v3.93c0,1.38.4,2.07,1.22,2.07a1,1,0,0,0,.9-.48A3.14,3.14,0,0,0,288.88,245.65Z" style="fill:#414042"/><path d="M293.56,233.46h2.78v12.46c0,1.07.52,1.61,1.54,1.61H298V250h-.14q-4.31,0-4.3-3.93Z" style="fill:#414042"/><path d="M302,245.82c0,1.3.42,2,1.25,2s1.22-.54,1.22-1.61V246h2.69v.14a4.1,4.1,0,0,1-1,3,3.94,3.94,0,0,1-2.9,1,3.85,3.85,0,0,1-3-1.16,5.6,5.6,0,0,1-1.05-3.81v-3.1a5.91,5.91,0,0,1,1-3.79,3.65,3.65,0,0,1,3-1.2,3.8,3.8,0,0,1,3,1.22,5.64,5.64,0,0,1,1.07,3.77v2.52H302Zm0-4.1v.93h2.47v-.93a3,3,0,0,0-.31-1.57,1.11,1.11,0,0,0-1.85,0A3.09,3.09,0,0,0,302,241.72Z" style="fill:#414042"/><path d="M311.61,246.83v4.85l-2.71,2.18v-7Z" style="fill:#414042"/><path d="M85.6,278.82H82.65v-9.69l-2.11,6.48H79l-2.08-6.41v9.62h-3V262.26h3L79.75,271l2.9-8.74H85.6Z" style="fill:#414042"/><path d="M90.47,262.26v2.33H87.69v-2.33Zm0,3.89v12.67H87.69V266.15Z" style="fill:#414042"/><path d="M92.46,274.91v-4.85a4.83,4.83,0,0,1,.83-3.12,2.76,2.76,0,0,1,2.22-1,2.47,2.47,0,0,1,1.25.31,2.38,2.38,0,0,1,.89.89v-4.9h2.76v16.56H97.75v-.88a2.89,2.89,0,0,1-4.43.09A4.71,4.71,0,0,1,92.46,274.91Zm5.24-4.39a3,3,0,0,0-.32-1.57,1,1,0,0,0-.93-.5,1,1,0,0,0-.9.5,3.1,3.1,0,0,0-.3,1.57v3.93a3.14,3.14,0,0,0,.3,1.59,1,1,0,0,0,.92.48q1.23,0,1.23-2.07Z" style="fill:#414042"/><path d="M102.3,274.91v-4.85a4.83,4.83,0,0,1,.83-3.12,2.76,2.76,0,0,1,2.22-1,2.47,2.47,0,0,1,1.25.31,2.38,2.38,0,0,1,.89.89v-4.9h2.76v16.56h-2.67v-.88a2.88,2.88,0,0,1-4.42.09A4.71,4.71,0,0,1,102.3,274.91Zm5.24-4.39a3,3,0,0,0-.32-1.57,1,1,0,0,0-.93-.5,1,1,0,0,0-.9.5,3.1,3.1,0,0,0-.3,1.57v3.93a3.14,3.14,0,0,0,.3,1.59,1,1,0,0,0,.92.48q1.23,0,1.23-2.07Z" style="fill:#414042"/><path d="M112.22,262.26H115v12.46c0,1.07.51,1.61,1.54,1.61h.12v2.49h-.15q-4.29,0-4.29-3.93Z" style="fill:#414042"/><path d="M120.69,274.62c0,1.3.41,1.95,1.25,1.95s1.22-.54,1.22-1.61v-.12h2.69V275a4.1,4.1,0,0,1-1,3,3.9,3.9,0,0,1-2.9,1,3.83,3.83,0,0,1-3-1.16,5.6,5.6,0,0,1-1.06-3.81V271a5.91,5.91,0,0,1,1-3.79,3.62,3.62,0,0,1,3-1.2,3.82,3.82,0,0,1,3,1.22A5.64,5.64,0,0,1,126,271v2.52h-5.26Zm0-4.1v.93h2.47v-.93a3,3,0,0,0-.31-1.57,1,1,0,0,0-.94-.5,1,1,0,0,0-.91.5A3,3,0,0,0,120.69,270.52Z" style="fill:#414042"/><path d="M134.37,269.2v2.64h-6.6V269.2Z" style="fill:#414042"/><path d="M141.18,264.93v13.89h-2.92V264.93h-2.88v-2.67H144v2.67Z" style="fill:#414042"/><path d="M146.8,262.26v2.33H144v-2.33Zm0,3.89v12.67H144V266.15Z" style="fill:#414042"/><path d="M151.58,274.62c0,1.3.41,1.95,1.25,1.95s1.22-.54,1.22-1.61v-.12h2.69V275a4.1,4.1,0,0,1-1,3,3.9,3.9,0,0,1-2.9,1,3.82,3.82,0,0,1-3-1.16,5.54,5.54,0,0,1-1.06-3.81V271a5.85,5.85,0,0,1,1-3.79,3.62,3.62,0,0,1,3-1.2,3.82,3.82,0,0,1,3,1.22,5.64,5.64,0,0,1,1.06,3.77v2.52h-5.25Zm0-4.1v.93h2.47v-.93a3,3,0,0,0-.31-1.57,1,1,0,0,0-.94-.5,1,1,0,0,0-.91.5A3,3,0,0,0,151.58,270.52Z" style="fill:#414042"/><path d="M161.39,266.15v1.18a3,3,0,0,1,1.09-1.1,3.05,3.05,0,0,1,1.41-.32,3.22,3.22,0,0,1,.86.1v2.92a3.61,3.61,0,0,0-1.27-.24,1.88,1.88,0,0,0-1.43.57,2.2,2.2,0,0,0-.54,1.59v8h-2.78V266.15Z" style="fill:#414042"/><path d="M174.88,262.26a4.27,4.27,0,0,1,4.61,4.75v7.06a4.57,4.57,0,0,1-1.32,3.54,4.86,4.86,0,0,1-3.43,1.21H170.3V262.26Zm1.21,13.27a3.11,3.11,0,0,0,.45-1.8v-6.21a3.61,3.61,0,0,0-.43-1.93,1.45,1.45,0,0,0-1.3-.66h-1.58v11.25h1.58A1.43,1.43,0,0,0,176.09,275.53Z" style="fill:#414042"/><path d="M189.14,270v8.83h-2.6v-1.05a3.69,3.69,0,0,1-1,.94,2.31,2.31,0,0,1-1.25.31,2.86,2.86,0,0,1-2.39-1,4.63,4.63,0,0,1-.8-2.88,3.52,3.52,0,0,1,1.08-2.75,4.52,4.52,0,0,1,3.1-1h1v-1.61a1.55,1.55,0,0,0-.3-1,1.26,1.26,0,0,0-1.71,0,1.29,1.29,0,0,0-.32.91v.2h-2.56v-.1a3.64,3.64,0,0,1,1-2.83,3.93,3.93,0,0,1,2.74-1,3.73,3.73,0,0,1,2.87,1.09A4.14,4.14,0,0,1,189.14,270Zm-2.79,5v-1.7h-.72a1.87,1.87,0,0,0-1.28.38,1.59,1.59,0,0,0-.45,1.27,1.93,1.93,0,0,0,.32,1.2,1.16,1.16,0,0,0,1.78,0A1.69,1.69,0,0,0,186.35,275Z" style="fill:#414042"/><path d="M194.54,274.72a1.42,1.42,0,0,0,1.61,1.61h.09v2.49h-.09a4.88,4.88,0,0,1-3.28-.95,3.67,3.67,0,0,1-1.12-3v-6.8h-1.41v-1.94h1.41v-2.23l2.79-1.13v3.36h2v1.94h-2Z" style="fill:#414042"/><path d="M205.5,270v8.83h-2.59v-1.05a3.69,3.69,0,0,1-1,.94,2.34,2.34,0,0,1-1.25.31,2.84,2.84,0,0,1-2.39-1,4.63,4.63,0,0,1-.8-2.88,3.52,3.52,0,0,1,1.08-2.75,4.5,4.5,0,0,1,3.09-1h1.06v-1.61a1.55,1.55,0,0,0-.3-1,1.1,1.1,0,0,0-.88-.34,1.11,1.11,0,0,0-.84.33,1.34,1.34,0,0,0-.31.91v.2h-2.57v-.1a3.64,3.64,0,0,1,1.06-2.83,3.91,3.91,0,0,1,2.74-1,3.75,3.75,0,0,1,2.87,1.09A4.18,4.18,0,0,1,205.5,270Zm-2.78,5v-1.7H202a1.87,1.87,0,0,0-1.28.38,1.59,1.59,0,0,0-.45,1.27,2,2,0,0,0,.31,1.2,1.1,1.1,0,0,0,.92.41,1.08,1.08,0,0,0,.87-.42A1.69,1.69,0,0,0,202.72,275Z" style="fill:#414042"/><path d="M211.14,274.09h2.79a3.1,3.1,0,0,0,.49,1.8,1.54,1.54,0,0,0,1.31.58,1.49,1.49,0,0,0,1.26-.53,2.85,2.85,0,0,0,.39-1.68,2.35,2.35,0,0,0-.44-1.52,4,4,0,0,0-1.5-1.05l-1.13-.5a5.24,5.24,0,0,1-2.31-1.78,4.92,4.92,0,0,1-.71-2.83,4.56,4.56,0,0,1,1.21-3.33,4.33,4.33,0,0,1,3.28-1.25,4,4,0,0,1,3.15,1.23,5.42,5.42,0,0,1,1.19,3.57h-2.71a3.23,3.23,0,0,0-.4-1.69,1.36,1.36,0,0,0-1.23-.57c-1.08,0-1.61.63-1.61,1.9a2.26,2.26,0,0,0,.39,1.38,3.37,3.37,0,0,0,1.34.92l1.08.48a5.78,5.78,0,0,1,2.51,1.92,5.47,5.47,0,0,1,.78,3.07,4.93,4.93,0,0,1-1.2,3.56,4.52,4.52,0,0,1-3.41,1.25,4.27,4.27,0,0,1-3.34-1.28A5.33,5.33,0,0,1,211.14,274.09Z" style="fill:#414042"/><path d="M227,279.74a3.73,3.73,0,0,1-.9,1.79,3.12,3.12,0,0,1-1.55.86,10.54,10.54,0,0,1-2.4.22h-.09v-2.44h1c.83,0,1.36-.22,1.6-.65l-3.52-13.37h3.07l1.7,7.7,1.59-7.7h2.92Z" style="fill:#414042"/><path d="M231.45,275.17V275h2.69v.14a1.6,1.6,0,0,0,.36,1.12,1.29,1.29,0,0,0,1,.4,1.23,1.23,0,0,0,.95-.35,1.42,1.42,0,0,0,.33-1,1.36,1.36,0,0,0-.3-.88,2.59,2.59,0,0,0-.95-.66l-1.44-.62a4.43,4.43,0,0,1-2-1.47,3.74,3.74,0,0,1-.55-2.11A3.43,3.43,0,0,1,232.6,267a4.4,4.4,0,0,1,5.66,0,3.55,3.55,0,0,1,1.08,2.69v.24h-2.68v-.15a1.66,1.66,0,0,0-.34-1.12,1.14,1.14,0,0,0-.91-.39,1.26,1.26,0,0,0-.88.31,1.21,1.21,0,0,0-.32.89,1.39,1.39,0,0,0,.24.84,2.14,2.14,0,0,0,.91.63l1.56.67a4.58,4.58,0,0,1,2,1.45,3.78,3.78,0,0,1,.6,2.22,3.59,3.59,0,0,1-1.09,2.7,4.66,4.66,0,0,1-5.87,0A3.68,3.68,0,0,1,231.45,275.17Z" style="fill:#414042"/><path d="M244.31,274.72a1.43,1.43,0,0,0,1.61,1.61h.1v2.49h-.1a4.92,4.92,0,0,1-3.28-.95,3.7,3.7,0,0,1-1.11-3v-6.8h-1.42v-1.94h1.42v-2.23l2.78-1.13v3.36h2v1.94h-2Z" style="fill:#414042"/><path d="M250.17,274.62c0,1.3.41,1.95,1.25,1.95s1.22-.54,1.22-1.61v-.12h2.69V275a4.1,4.1,0,0,1-1,3,3.9,3.9,0,0,1-2.9,1,3.83,3.83,0,0,1-3-1.16,5.6,5.6,0,0,1-1.06-3.81V271a5.91,5.91,0,0,1,1-3.79,3.62,3.62,0,0,1,3-1.2,3.81,3.81,0,0,1,3,1.22,5.64,5.64,0,0,1,1.07,3.77v2.52h-5.26Zm0-4.1v.93h2.47v-.93a3,3,0,0,0-.31-1.57,1,1,0,0,0-.94-.5,1,1,0,0,0-.91.5A3,3,0,0,0,250.17,270.52Z" style="fill:#414042"/><path d="M260,266.15v.94a2.56,2.56,0,0,1,2.13-1.13,2.87,2.87,0,0,1,1.42.35,2.79,2.79,0,0,1,1,1,4,4,0,0,1,1.14-.95,2.73,2.73,0,0,1,1.36-.37,2.91,2.91,0,0,1,2.46,1,4.64,4.64,0,0,1,.73,2.85v9.05H267.5v-9a1.4,1.4,0,0,0-.33-1,1.15,1.15,0,0,0-1.65,0,1.4,1.4,0,0,0-.33,1v9h-2.78v-9a1.4,1.4,0,0,0-.33-1,1.16,1.16,0,0,0-1.66,0,1.44,1.44,0,0,0-.31,1v9h-2.79V266.15Z" style="fill:#414042"/><path d="M280.12,274.72a1.43,1.43,0,0,0,1.61,1.61h.1v2.49h-.1a4.92,4.92,0,0,1-3.28-.95,3.7,3.7,0,0,1-1.11-3v-6.8h-1.42v-1.94h1.42v-2.23l2.78-1.13v3.36h2v1.94h-2Z" style="fill:#414042"/><path d="M286.48,262.26V267a2.6,2.6,0,0,1,2-1,2.78,2.78,0,0,1,2.36,1,4.68,4.68,0,0,1,.74,2.83v9.05h-2.78v-9a1.4,1.4,0,0,0-.33-1,1.17,1.17,0,0,0-1.67,0,1.44,1.44,0,0,0-.31,1v9H283.7V262.26Z" style="fill:#414042"/><path d="M301.29,270v8.83H298.7v-1.05a3.87,3.87,0,0,1-1,.94,2.31,2.31,0,0,1-1.25.31,2.83,2.83,0,0,1-2.38-1,4.57,4.57,0,0,1-.81-2.88,3.52,3.52,0,0,1,1.08-2.75,4.53,4.53,0,0,1,3.1-1h1.05v-1.61a1.5,1.5,0,0,0-.3-1,1.09,1.09,0,0,0-.87-.34,1.11,1.11,0,0,0-.84.33,1.29,1.29,0,0,0-.31.91v.2h-2.57v-.1a3.64,3.64,0,0,1,1.05-2.83,3.93,3.93,0,0,1,2.74-1,3.73,3.73,0,0,1,2.87,1.09A4.14,4.14,0,0,1,301.29,270Zm-2.79,5v-1.7h-.71a1.91,1.91,0,0,0-1.29.38,1.59,1.59,0,0,0-.44,1.27,1.93,1.93,0,0,0,.31,1.2,1.08,1.08,0,0,0,.91.41,1.11,1.11,0,0,0,.88-.42A1.74,1.74,0,0,0,298.5,275Z" style="fill:#414042"/><path d="M306.69,274.72a1.42,1.42,0,0,0,1.61,1.61h.09v2.49h-.09a4.9,4.9,0,0,1-3.28-.95,3.7,3.7,0,0,1-1.12-3v-6.8h-1.41v-1.94h1.41v-2.23l2.79-1.13v3.36h2v1.94h-2Z" style="fill:#414042"/><path d="M316.82,266.15l1.27,8.23,1.53-8.23h2.31l1.53,8.23,1.28-8.23h3.09l-2.9,12.67h-2.71l-1.44-7.75-1.47,7.75h-2.69l-2.88-12.67Z" style="fill:#414042"/><path d="M331.72,262.26v2.33h-2.78v-2.33Zm0,3.89v12.67h-2.78V266.15Z" style="fill:#414042"/><path d="M333.79,262.26h2.78v12.46c0,1.07.51,1.61,1.54,1.61h.12v2.49h-.15q-4.29,0-4.29-3.93Z" style="fill:#414042"/><path d="M339.55,262.26h2.78v12.46c0,1.07.51,1.61,1.54,1.61H344v2.49h-.15q-4.29,0-4.29-3.93Z" style="fill:#414042"/><path d="M104.5,296.27a6.08,6.08,0,0,1-1.07,3.94A4.24,4.24,0,0,1,100,301.5H98.43v6.12H95.5V291.06H100a4.22,4.22,0,0,1,3.49,1.3A6.19,6.19,0,0,1,104.5,296.27Zm-3,0a3.87,3.87,0,0,0-.37-1.94,1.4,1.4,0,0,0-1.31-.63H98.43v5.14h1.44a1.4,1.4,0,0,0,1.31-.63A3.87,3.87,0,0,0,101.55,296.27Z" style="fill:#414042"/><path d="M108.56,295v1.18a2.94,2.94,0,0,1,1.09-1.1,3,3,0,0,1,1.4-.32,3.35,3.35,0,0,1,.87.1v2.93a3.45,3.45,0,0,0-1.27-.25,1.87,1.87,0,0,0-1.43.57,2.22,2.22,0,0,0-.54,1.59v8h-2.79V295Z" style="fill:#414042"/><path d="M112.92,303.23v-3.89a5,5,0,0,1,1-3.5,4.69,4.69,0,0,1,6,0,5,5,0,0,1,1,3.5v3.89a5.06,5.06,0,0,1-1,3.51,4.69,4.69,0,0,1-6,0A5,5,0,0,1,112.92,303.23Zm5.26,0v-3.94a3,3,0,0,0-.31-1.57,1,1,0,0,0-.94-.5,1,1,0,0,0-.91.5,3,3,0,0,0-.31,1.57v3.94a3,3,0,0,0,.31,1.57,1,1,0,0,0,.91.49,1,1,0,0,0,.94-.49A3,3,0,0,0,118.18,303.26Z" style="fill:#414042"/><path d="M124.73,295l1.59,8.23,1.56-8.23H131l-3.17,12.67h-3L121.66,295Z" style="fill:#414042"/><path d="M134.84,291.06v2.33h-2.79v-2.33Zm0,3.89v12.67h-2.79V295Z" style="fill:#414042"/><path d="M136.83,303.71v-4.85a4.83,4.83,0,0,1,.83-3.12,2.76,2.76,0,0,1,2.22-1,2.49,2.49,0,0,1,1.25.31,2.35,2.35,0,0,1,.88.89v-4.9h2.76v16.56h-2.66v-.88a2.78,2.78,0,0,1-2.18,1.08,2.83,2.83,0,0,1-2.25-1A4.67,4.67,0,0,1,136.83,303.71Zm5.23-4.39a3,3,0,0,0-.31-1.57,1,1,0,0,0-.94-.5,1,1,0,0,0-.9.5,3.1,3.1,0,0,0-.3,1.57v3.94a3.12,3.12,0,0,0,.3,1.58,1,1,0,0,0,.93.48c.81,0,1.22-.69,1.22-2.06Z" style="fill:#414042"/><path d="M149.45,303.42c0,1.3.42,1.95,1.25,1.95s1.23-.54,1.23-1.61v-.12h2.68v.14a4.14,4.14,0,0,1-1,3,3.92,3.92,0,0,1-2.91,1,3.81,3.81,0,0,1-3-1.16,5.53,5.53,0,0,1-1.06-3.81v-3.1a5.85,5.85,0,0,1,1-3.79,3.62,3.62,0,0,1,3-1.2,3.79,3.79,0,0,1,3,1.22,5.65,5.65,0,0,1,1.07,3.77v2.52h-5.26Zm0-4.1v.94h2.48v-.94a3,3,0,0,0-.32-1.57,1,1,0,0,0-.93-.5,1,1,0,0,0-.91.5A3,3,0,0,0,149.45,299.32Z" style="fill:#414042"/><path d="M161.42,305.66a4.75,4.75,0,0,1-.59-2.38V291.06h2.95v12.15a2.27,2.27,0,0,0,.39,1.47,1.39,1.39,0,0,0,1.17.47c1,0,1.56-.65,1.56-1.94V291.06h3v12.22a4.85,4.85,0,0,1-.58,2.38,4,4,0,0,1-1.61,1.59,4.73,4.73,0,0,1-2.33.57,4.65,4.65,0,0,1-2.31-.57A4.1,4.1,0,0,1,161.42,305.66Z" style="fill:#414042"/><path d="M171.58,304v-.15h2.69V304a1.58,1.58,0,0,0,.36,1.11,1.28,1.28,0,0,0,1,.4,1.26,1.26,0,0,0,1-.35,1.47,1.47,0,0,0,.32-1,1.36,1.36,0,0,0-.3-.88,2.72,2.72,0,0,0-1-.66l-1.44-.62a4.42,4.42,0,0,1-2-1.47,3.8,3.8,0,0,1-.55-2.11,3.43,3.43,0,0,1,1.08-2.59,4.42,4.42,0,0,1,5.67,0,3.55,3.55,0,0,1,1.08,2.69v.24h-2.69v-.15a1.61,1.61,0,0,0-.34-1.12,1.12,1.12,0,0,0-.91-.39,1.21,1.21,0,0,0-.87.31,1.18,1.18,0,0,0-.33.89,1.39,1.39,0,0,0,.24.84,2.21,2.21,0,0,0,.91.63l1.56.67a4.52,4.52,0,0,1,2,1.45,3.78,3.78,0,0,1,.6,2.22,3.54,3.54,0,0,1-1.09,2.7,4.68,4.68,0,0,1-5.87,0A3.69,3.69,0,0,1,171.58,304Z" style="fill:#414042"/><path d="M184,303.42c0,1.3.41,1.95,1.24,1.95s1.23-.54,1.23-1.61v-.12h2.69v.14a4.14,4.14,0,0,1-1,3,3.91,3.91,0,0,1-2.91,1,3.81,3.81,0,0,1-3-1.16,5.53,5.53,0,0,1-1.06-3.81v-3.1a5.85,5.85,0,0,1,1-3.79,3.62,3.62,0,0,1,3-1.2,3.79,3.79,0,0,1,3,1.22,5.6,5.6,0,0,1,1.07,3.77v2.52H184Zm0-4.1v.94h2.47v-.94a3.09,3.09,0,0,0-.31-1.57,1,1,0,0,0-.94-.5,1,1,0,0,0-.91.5A3,3,0,0,0,184,299.32Z" style="fill:#414042"/><path d="M193.78,295v1.18a3,3,0,0,1,1.09-1.1,3.05,3.05,0,0,1,1.41-.32,3.22,3.22,0,0,1,.86.1v2.93a3.42,3.42,0,0,0-1.27-.25,1.88,1.88,0,0,0-1.43.57,2.22,2.22,0,0,0-.54,1.59v8h-2.78V295Z" style="fill:#414042"/><path d="M198.2,304v-.15h2.69V304a1.58,1.58,0,0,0,.36,1.11,1.26,1.26,0,0,0,1,.4,1.23,1.23,0,0,0,.95-.35,1.42,1.42,0,0,0,.33-1,1.36,1.36,0,0,0-.3-.88,2.72,2.72,0,0,0-.95-.66l-1.44-.62a4.36,4.36,0,0,1-2-1.47,3.72,3.72,0,0,1-.55-2.11,3.43,3.43,0,0,1,1.08-2.59,3.91,3.91,0,0,1,2.83-1,4,4,0,0,1,2.84,1,3.55,3.55,0,0,1,1.08,2.69v.24h-2.69v-.15a1.66,1.66,0,0,0-.34-1.12,1.14,1.14,0,0,0-.91-.39,1.26,1.26,0,0,0-.88.31,1.21,1.21,0,0,0-.32.89,1.39,1.39,0,0,0,.24.84,2.14,2.14,0,0,0,.91.63l1.56.67a4.58,4.58,0,0,1,2,1.45,3.78,3.78,0,0,1,.6,2.22,3.58,3.58,0,0,1-1.09,2.7,4.68,4.68,0,0,1-5.87,0A3.69,3.69,0,0,1,198.2,304Z" style="fill:#414042"/><path d="M215,304.41l-.67,3.21h-3.07l4.25-16.56h2.88l4.22,16.56h-3.07l-.67-3.21Zm1.95-9.36-1.39,6.72h2.78Z" style="fill:#414042"/><path d="M223.64,303.23v-3.89a5,5,0,0,1,1-3.5,4,4,0,0,1,3-1.08,3.86,3.86,0,0,1,2.9,1,4.24,4.24,0,0,1,1,3.1v.48h-2.69v-.43a2,2,0,0,0-.32-1.27,1.11,1.11,0,0,0-.9-.42,1,1,0,0,0-.94.5,3.09,3.09,0,0,0-.31,1.57v3.94a3.11,3.11,0,0,0,.31,1.57,1,1,0,0,0,.92.49,1.11,1.11,0,0,0,.92-.42,2.08,2.08,0,0,0,.32-1.29v-.4h2.69v.4a4.35,4.35,0,0,1-1,3.16,3.83,3.83,0,0,1-2.9,1.05,4,4,0,0,1-3-1.08A5,5,0,0,1,223.64,303.23Z" style="fill:#414042"/><path d="M233.4,303.23v-3.89a5,5,0,0,1,1-3.5,3.93,3.93,0,0,1,3-1.08,3.86,3.86,0,0,1,2.9,1,4.28,4.28,0,0,1,1,3.1v.48h-2.69v-.43a2.1,2.1,0,0,0-.32-1.27,1.11,1.11,0,0,0-.9-.42,1,1,0,0,0-.94.5,3,3,0,0,0-.31,1.57v3.94a3,3,0,0,0,.31,1.57,1,1,0,0,0,.91.49,1.11,1.11,0,0,0,.93-.42,2.15,2.15,0,0,0,.32-1.29v-.4h2.69v.4a4.39,4.39,0,0,1-1,3.16,3.83,3.83,0,0,1-2.9,1.05,3.93,3.93,0,0,1-3-1.08A5,5,0,0,1,233.4,303.23Z" style="fill:#414042"/><path d="M246,303.42c0,1.3.41,1.95,1.24,1.95s1.23-.54,1.23-1.61v-.12h2.69v.14a4.14,4.14,0,0,1-1,3,3.91,3.91,0,0,1-2.91,1,3.81,3.81,0,0,1-3-1.16,5.53,5.53,0,0,1-1.06-3.81v-3.1a5.85,5.85,0,0,1,1-3.79,3.62,3.62,0,0,1,3-1.2,3.79,3.79,0,0,1,3,1.22,5.6,5.6,0,0,1,1.07,3.77v2.52H246Zm0-4.1v.94h2.47v-.94a3.09,3.09,0,0,0-.31-1.57,1,1,0,0,0-.94-.5,1,1,0,0,0-.91.5A3,3,0,0,0,246,299.32Z" style="fill:#414042"/><path d="M252.84,304v-.15h2.69V304a1.58,1.58,0,0,0,.36,1.11,1.28,1.28,0,0,0,1,.4,1.25,1.25,0,0,0,1-.35,1.42,1.42,0,0,0,.32-1,1.36,1.36,0,0,0-.3-.88,2.67,2.67,0,0,0-.94-.66l-1.44-.62a4.36,4.36,0,0,1-2-1.47,3.72,3.72,0,0,1-.55-2.11,3.43,3.43,0,0,1,1.08-2.59,4.4,4.4,0,0,1,5.66,0,3.55,3.55,0,0,1,1.08,2.69v.24h-2.69v-.15a1.66,1.66,0,0,0-.33-1.12,1.15,1.15,0,0,0-.91-.39,1.26,1.26,0,0,0-.88.31,1.17,1.17,0,0,0-.32.89,1.39,1.39,0,0,0,.24.84,2.08,2.08,0,0,0,.91.63l1.56.67a4.58,4.58,0,0,1,2,1.45,3.78,3.78,0,0,1,.6,2.22,3.55,3.55,0,0,1-1.1,2.7,4,4,0,0,1-2.94,1.05,4.12,4.12,0,0,1-2.93-1A3.69,3.69,0,0,1,252.84,304Z" style="fill:#414042"/><path d="M262,304v-.15h2.69V304a1.58,1.58,0,0,0,.36,1.11,1.28,1.28,0,0,0,1,.4,1.25,1.25,0,0,0,.95-.35,1.47,1.47,0,0,0,.32-1,1.36,1.36,0,0,0-.3-.88,2.63,2.63,0,0,0-1-.66l-1.44-.62a4.33,4.33,0,0,1-2-1.47,3.72,3.72,0,0,1-.56-2.11,3.47,3.47,0,0,1,1.08-2.59,4.42,4.42,0,0,1,5.67,0,3.55,3.55,0,0,1,1.08,2.69v.24h-2.69v-.15a1.66,1.66,0,0,0-.33-1.12,1.16,1.16,0,0,0-.92-.39,1.23,1.23,0,0,0-.87.31,1.18,1.18,0,0,0-.33.89,1.39,1.39,0,0,0,.24.84,2.19,2.19,0,0,0,.92.63l1.56.67a4.55,4.55,0,0,1,2,1.45,3.78,3.78,0,0,1,.6,2.22,3.54,3.54,0,0,1-1.09,2.7,4.68,4.68,0,0,1-5.87,0A3.69,3.69,0,0,1,262,304Z" style="fill:#414042"/><path d="M279.56,303.52a1.42,1.42,0,0,0,1.6,1.61h.1v2.49h-.1a4.93,4.93,0,0,1-3.27-.94,3.71,3.71,0,0,1-1.12-3V296.9h-1.41V295h1.41v-2.23l2.79-1.13V295h2v1.95h-2Z" style="fill:#414042"/><path d="M282.63,303.23v-3.89a5,5,0,0,1,1-3.5,4.69,4.69,0,0,1,6,0,5,5,0,0,1,1,3.5v3.89a5,5,0,0,1-1,3.51,4.69,4.69,0,0,1-6,0A5,5,0,0,1,282.63,303.23Zm5.26,0v-3.94a3,3,0,0,0-.32-1.57,1,1,0,0,0-.93-.5,1,1,0,0,0-.91.5,3,3,0,0,0-.32,1.57v3.94a3,3,0,0,0,.32,1.57,1,1,0,0,0,.91.49,1,1,0,0,0,.93-.49A3,3,0,0,0,287.89,303.26Z" style="fill:#414042"/><path d="M300.44,303.52a1.42,1.42,0,0,0,1.61,1.61h.09v2.49h-.09a5,5,0,0,1-3.28-.94,3.74,3.74,0,0,1-1.12-3V296.9h-1.41V295h1.41v-2.23l2.79-1.13V295h2v1.95h-2Z" style="fill:#414042"/><path d="M306.8,291.06v4.71a2.58,2.58,0,0,1,2-1,2.76,2.76,0,0,1,2.35,1,4.61,4.61,0,0,1,.75,2.83v9.05H309.1v-9a1.45,1.45,0,0,0-.32-1,1.17,1.17,0,0,0-1.67,0,1.44,1.44,0,0,0-.31,1v9H304V291.06Z" style="fill:#414042"/><path d="M316.57,303.42c0,1.3.41,1.95,1.24,1.95s1.23-.54,1.23-1.61v-.12h2.69v.14a4.14,4.14,0,0,1-1,3,3.91,3.91,0,0,1-2.91,1,3.81,3.81,0,0,1-3-1.16,5.53,5.53,0,0,1-1.06-3.81v-3.1a5.85,5.85,0,0,1,1-3.79,3.62,3.62,0,0,1,3-1.2,3.79,3.79,0,0,1,3,1.22,5.6,5.6,0,0,1,1.07,3.77v2.52h-5.25Zm0-4.1v.94H319v-.94a3.09,3.09,0,0,0-.31-1.57,1,1,0,0,0-.94-.5,1,1,0,0,0-.91.5A3,3,0,0,0,316.57,299.32Z" style="fill:#414042"/><path d="M77.44,331.62a5.35,5.35,0,0,1-1,3.66,4.56,4.56,0,0,1-3.5,1.14H68.42V319.86h4.49a4.67,4.67,0,0,1,3.45,1.07,4.74,4.74,0,0,1,1,3.4,4.85,4.85,0,0,1-.4,2.08,2.8,2.8,0,0,1-1.4,1.33,2.65,2.65,0,0,1,1.47,1.41A6.78,6.78,0,0,1,77.44,331.62Zm-6.09-5.11h1.24A1.84,1.84,0,0,0,74,326a2.25,2.25,0,0,0,.41-1.52A2.28,2.28,0,0,0,74,323a1.84,1.84,0,0,0-1.44-.46H71.35Zm3.14,4.9a2.92,2.92,0,0,0-.44-1.8,1.79,1.79,0,0,0-1.48-.55H71.35v4.72h1.22a1.78,1.78,0,0,0,1.51-.54A3.13,3.13,0,0,0,74.49,331.41Z" style="fill:#414042"/><path d="M82.05,332.22c0,1.3.42,1.95,1.25,1.95s1.22-.54,1.22-1.61v-.12h2.69v.14a4.14,4.14,0,0,1-1,3,3.9,3.9,0,0,1-2.9,1,3.85,3.85,0,0,1-3-1.16,5.58,5.58,0,0,1-1-3.81v-3.1a5.91,5.91,0,0,1,1-3.79,3.64,3.64,0,0,1,3-1.2,3.8,3.8,0,0,1,3,1.22,5.65,5.65,0,0,1,1.07,3.77v2.52H82.05Zm0-4.1v.94h2.47v-.94a3,3,0,0,0-.31-1.57,1,1,0,0,0-.94-.5,1,1,0,0,0-.91.5A3,3,0,0,0,82.05,328.12Z" style="fill:#414042"/><path d="M88.94,332.78v-.15h2.69v.15a1.58,1.58,0,0,0,.36,1.11,1.29,1.29,0,0,0,1,.4,1.23,1.23,0,0,0,1-.35,1.42,1.42,0,0,0,.33-1A1.36,1.36,0,0,0,94,332a2.59,2.59,0,0,0-1-.66l-1.44-.62a4.36,4.36,0,0,1-2-1.47,3.72,3.72,0,0,1-.55-2.11,3.43,3.43,0,0,1,1.08-2.59,4.4,4.4,0,0,1,5.66,0,3.55,3.55,0,0,1,1.08,2.69v.24H94.15v-.15a1.66,1.66,0,0,0-.34-1.12,1.14,1.14,0,0,0-.91-.39,1.26,1.26,0,0,0-.88.31,1.21,1.21,0,0,0-.32.89,1.39,1.39,0,0,0,.24.84,2.14,2.14,0,0,0,.91.63l1.56.67a4.58,4.58,0,0,1,2,1.45,3.78,3.78,0,0,1,.6,2.22,3.58,3.58,0,0,1-1.09,2.7,4.68,4.68,0,0,1-5.87,0A3.69,3.69,0,0,1,88.94,332.78Z" style="fill:#414042"/><path d="M101.8,332.32a1.43,1.43,0,0,0,1.61,1.61h.1v2.49h-.1a5,5,0,0,1-3.28-.94,3.74,3.74,0,0,1-1.11-3V325.7H97.6v-1.95H99v-2.23l2.78-1.13v3.36h2v1.95h-2Z" style="fill:#414042"/><path d="M111.91,326.8v2.64h-6.6V326.8Z" style="fill:#414042"/><path d="M116.71,333.21l-.68,3.21H113l4.25-16.56h2.88l4.23,16.56h-3.08l-.67-3.21Zm1.94-9.36-1.39,6.72H120Z" style="fill:#414042"/><path d="M127,323.75l1.59,8.23,1.56-8.23h3.07L130,336.42h-3l-3.17-12.67Z" style="fill:#414042"/><path d="M141.69,327.59v8.83H139.1v-1.05a4.1,4.1,0,0,1-1,.95,2.34,2.34,0,0,1-1.25.3,2.84,2.84,0,0,1-2.39-1,4.53,4.53,0,0,1-.81-2.88,3.55,3.55,0,0,1,1.08-2.75,4.55,4.55,0,0,1,3.1-1h1.06v-1.61a1.55,1.55,0,0,0-.3-1,1.1,1.1,0,0,0-.88-.34,1.11,1.11,0,0,0-.84.33,1.29,1.29,0,0,0-.31.91v.2H134v-.1a3.61,3.61,0,0,1,1.06-2.83,3.89,3.89,0,0,1,2.73-1,3.72,3.72,0,0,1,2.87,1.09A4.14,4.14,0,0,1,141.69,327.59Zm-2.78,5v-1.7h-.72a2,2,0,0,0-1.29.38,1.63,1.63,0,0,0-.44,1.27,1.93,1.93,0,0,0,.31,1.2,1.06,1.06,0,0,0,.91.41,1.08,1.08,0,0,0,.88-.42A1.74,1.74,0,0,0,138.91,332.63Z" style="fill:#414042"/><path d="M146.54,319.86v2.33h-2.79v-2.33Zm0,3.89v12.67h-2.79V323.75Z" style="fill:#414042"/><path d="M148.6,319.86h2.79v12.46c0,1.07.51,1.61,1.53,1.61H153v2.49h-.14c-2.86,0-4.3-1.31-4.3-3.93Z" style="fill:#414042"/><path d="M162.12,327.59v8.83h-2.6v-1.05a3.92,3.92,0,0,1-1,.95,2.34,2.34,0,0,1-1.25.3,2.86,2.86,0,0,1-2.39-1,4.59,4.59,0,0,1-.8-2.88,3.52,3.52,0,0,1,1.08-2.75,4.52,4.52,0,0,1,3.1-1h1.05v-1.61a1.55,1.55,0,0,0-.3-1,1.26,1.26,0,0,0-1.71,0,1.29,1.29,0,0,0-.32.91v.2h-2.57v-.1a3.64,3.64,0,0,1,1.06-2.83,3.93,3.93,0,0,1,2.74-1,3.75,3.75,0,0,1,2.87,1.09A4.14,4.14,0,0,1,162.12,327.59Zm-2.79,5v-1.7h-.72a1.92,1.92,0,0,0-1.28.38,1.59,1.59,0,0,0-.45,1.27,1.93,1.93,0,0,0,.32,1.2,1,1,0,0,0,.91.41,1.08,1.08,0,0,0,.87-.42A1.69,1.69,0,0,0,159.33,332.63Z" style="fill:#414042"/><path d="M166.77,335.54v.88h-2.69V319.86h2.79v4.9a2.33,2.33,0,0,1,.87-.89,2.45,2.45,0,0,1,1.26-.31,2.73,2.73,0,0,1,2.21,1,4.83,4.83,0,0,1,.82,3.12v4.85a4.73,4.73,0,0,1-.85,3.12,2.8,2.8,0,0,1-2.23,1,2.5,2.5,0,0,1-1.18-.27A3.34,3.34,0,0,1,166.77,335.54Zm2.47-3.48v-3.94a3.1,3.1,0,0,0-.3-1.57,1,1,0,0,0-.9-.5,1,1,0,0,0-.91.5,3,3,0,0,0-.31,1.57v3.94c0,1.37.41,2.06,1.22,2.06a1,1,0,0,0,.9-.48A3.12,3.12,0,0,0,169.24,332.06Z" style="fill:#414042"/><path d="M173.92,319.86h2.79v12.46c0,1.07.51,1.61,1.53,1.61h.12v2.49h-.14q-4.31,0-4.3-3.93Z" style="fill:#414042"/><path d="M182.39,332.22c0,1.3.42,1.95,1.25,1.95s1.23-.54,1.23-1.61v-.12h2.68v.14a4.14,4.14,0,0,1-1,3,3.92,3.92,0,0,1-2.91,1,3.81,3.81,0,0,1-3-1.16,5.53,5.53,0,0,1-1.06-3.81v-3.1a5.85,5.85,0,0,1,1-3.79,3.62,3.62,0,0,1,3-1.2,3.79,3.79,0,0,1,3,1.22,5.65,5.65,0,0,1,1.07,3.77v2.52h-5.26Zm0-4.1v.94h2.48v-.94a3,3,0,0,0-.32-1.57,1,1,0,0,0-.93-.5,1,1,0,0,0-.91.5A3,3,0,0,0,182.39,328.12Z" style="fill:#414042"/><path d="M193.67,331.86V324.4a4.61,4.61,0,0,1,1.32-3.57,5,5,0,0,1,3.48-1.21,4.7,4.7,0,0,1,3.34,1.18,4.49,4.49,0,0,1,1.27,3.48v.5h-3v-.5a2.11,2.11,0,0,0-.48-1.48,1.64,1.64,0,0,0-1.25-.51,1.49,1.49,0,0,0-1.35.64,3.64,3.64,0,0,0-.42,1.95v6.65c0,1.61.59,2.42,1.77,2.42a1.49,1.49,0,0,0,1.3-.59,2.79,2.79,0,0,0,.43-1.69v-1.75h-1.75v-2.33h4.7v4.27a4.55,4.55,0,0,1-1.33,3.53,4.88,4.88,0,0,1-3.44,1.23,4.65,4.65,0,0,1-3.39-1.22A4.7,4.7,0,0,1,193.67,331.86Z" style="fill:#414042"/><path d="M207.69,332.22c0,1.3.42,1.95,1.25,1.95s1.22-.54,1.22-1.61v-.12h2.69v.14a4.14,4.14,0,0,1-1,3,3.9,3.9,0,0,1-2.9,1,3.83,3.83,0,0,1-3-1.16,5.58,5.58,0,0,1-1.05-3.81v-3.1a5.91,5.91,0,0,1,1-3.79,3.64,3.64,0,0,1,3-1.2,3.8,3.8,0,0,1,3,1.22,5.65,5.65,0,0,1,1.07,3.77v2.52h-5.26Zm0-4.1v.94h2.47v-.94a3,3,0,0,0-.31-1.57,1,1,0,0,0-.94-.5,1,1,0,0,0-.91.5A3,3,0,0,0,207.69,328.12Z" style="fill:#414042"/><path d="M214.77,332v-3.89a5,5,0,0,1,1-3.5,4.69,4.69,0,0,1,6,0,5,5,0,0,1,1,3.5V332a5,5,0,0,1-1,3.51,4.69,4.69,0,0,1-6,0A5,5,0,0,1,214.77,332Zm5.26,0v-3.94a3,3,0,0,0-.32-1.57,1,1,0,0,0-.93-.5,1,1,0,0,0-.91.5,3,3,0,0,0-.32,1.57v3.94a3,3,0,0,0,.32,1.57,1,1,0,0,0,.91.49,1,1,0,0,0,.93-.49A3,3,0,0,0,220,332.06Z" style="fill:#414042"/><path d="M224.44,332.78v-.15h2.69v.15a1.58,1.58,0,0,0,.36,1.11,1.32,1.32,0,0,0,1,.4,1.26,1.26,0,0,0,.95-.35,1.47,1.47,0,0,0,.32-1,1.36,1.36,0,0,0-.3-.88,2.59,2.59,0,0,0-.95-.66l-1.44-.62a4.33,4.33,0,0,1-2-1.47,3.72,3.72,0,0,1-.56-2.11,3.43,3.43,0,0,1,1.08-2.59,4.42,4.42,0,0,1,5.67,0,3.55,3.55,0,0,1,1.08,2.69v.24h-2.69v-.15a1.61,1.61,0,0,0-.34-1.12,1.12,1.12,0,0,0-.91-.39,1.21,1.21,0,0,0-.87.31,1.18,1.18,0,0,0-.33.89,1.39,1.39,0,0,0,.24.84,2.21,2.21,0,0,0,.91.63l1.56.67a4.52,4.52,0,0,1,2,1.45,3.78,3.78,0,0,1,.6,2.22,3.54,3.54,0,0,1-1.09,2.7,4.68,4.68,0,0,1-5.87,0A3.69,3.69,0,0,1,224.44,332.78Z" style="fill:#414042"/><path d="M236.8,323.75v1a2.57,2.57,0,0,1,2.23-1.2,2.73,2.73,0,0,1,2.21,1,4.83,4.83,0,0,1,.82,3.12v4.85a4.73,4.73,0,0,1-.85,3.12,2.8,2.8,0,0,1-2.22,1,2.59,2.59,0,0,1-2.09-1v4.57h-2.79V323.75Zm2.47,8.31v-3.94a3.1,3.1,0,0,0-.3-1.57,1,1,0,0,0-.9-.5,1,1,0,0,0-.91.5,3,3,0,0,0-.31,1.57v3.94c0,1.37.41,2.06,1.22,2.06a1,1,0,0,0,.9-.48A3.12,3.12,0,0,0,239.27,332.06Z" style="fill:#414042"/><path d="M251.71,327.59v8.83h-2.6v-1.05a3.92,3.92,0,0,1-1,.95,2.34,2.34,0,0,1-1.25.3,2.86,2.86,0,0,1-2.39-1,4.59,4.59,0,0,1-.8-2.88,3.52,3.52,0,0,1,1.08-2.75,4.52,4.52,0,0,1,3.1-1h1v-1.61a1.55,1.55,0,0,0-.3-1,1.26,1.26,0,0,0-1.71,0,1.29,1.29,0,0,0-.32.91v.2H244v-.1a3.64,3.64,0,0,1,1.05-2.83,3.93,3.93,0,0,1,2.74-1,3.73,3.73,0,0,1,2.87,1.09A4.14,4.14,0,0,1,251.71,327.59Zm-2.79,5v-1.7h-.72a1.92,1.92,0,0,0-1.28.38,1.59,1.59,0,0,0-.45,1.27,1.93,1.93,0,0,0,.32,1.2,1,1,0,0,0,.91.41,1.08,1.08,0,0,0,.87-.42A1.69,1.69,0,0,0,248.92,332.63Z" style="fill:#414042"/><path d="M257.11,332.32a1.42,1.42,0,0,0,1.6,1.61h.1v2.49h-.1a4.93,4.93,0,0,1-3.27-.94,3.71,3.71,0,0,1-1.12-3V325.7h-1.41v-1.95h1.41v-2.23l2.79-1.13v3.36h2v1.95h-2Z" style="fill:#414042"/><path d="M263.56,319.86v2.33h-2.78v-2.33Zm0,3.89v12.67h-2.78V323.75Z" style="fill:#414042"/><path d="M273.38,327.59v8.83h-2.59v-1.05a4.12,4.12,0,0,1-1,.95,2.31,2.31,0,0,1-1.25.3,2.86,2.86,0,0,1-2.39-1,4.59,4.59,0,0,1-.8-2.88,3.52,3.52,0,0,1,1.08-2.75,4.52,4.52,0,0,1,3.1-1h1v-1.61a1.55,1.55,0,0,0-.3-1,1.09,1.09,0,0,0-.87-.34,1.11,1.11,0,0,0-.84.33,1.29,1.29,0,0,0-.32.91v.2H265.7v-.1a3.64,3.64,0,0,1,1.05-2.83,3.93,3.93,0,0,1,2.74-1,3.73,3.73,0,0,1,2.87,1.09A4.14,4.14,0,0,1,273.38,327.59Zm-2.79,5v-1.7h-.72a1.92,1.92,0,0,0-1.28.38,1.59,1.59,0,0,0-.45,1.27,1.93,1.93,0,0,0,.32,1.2,1,1,0,0,0,.91.41,1.11,1.11,0,0,0,.88-.42A1.74,1.74,0,0,0,270.59,332.63Z" style="fill:#414042"/><path d="M275.34,319.86h2.79v12.46c0,1.07.51,1.61,1.53,1.61h.13v2.49h-.15c-2.86,0-4.3-1.31-4.3-3.93Z" style="fill:#414042"/><path d="M289.91,319.86a4.27,4.27,0,0,1,4.61,4.75v7.06a4.57,4.57,0,0,1-1.32,3.54,4.86,4.86,0,0,1-3.43,1.21h-4.44V319.86Zm1.21,13.28a3.17,3.17,0,0,0,.45-1.81v-6.21a3.61,3.61,0,0,0-.43-1.93,1.45,1.45,0,0,0-1.3-.66h-1.58v11.25h1.58A1.44,1.44,0,0,0,291.12,333.14Z" style="fill:#414042"/><path d="M304.17,327.59v8.83h-2.59v-1.05a4.12,4.12,0,0,1-1,.95,2.31,2.31,0,0,1-1.25.3,2.83,2.83,0,0,1-2.38-1,4.53,4.53,0,0,1-.81-2.88,3.52,3.52,0,0,1,1.08-2.75,4.53,4.53,0,0,1,3.1-1h1.05v-1.61a1.5,1.5,0,0,0-.3-1,1.09,1.09,0,0,0-.87-.34,1.11,1.11,0,0,0-.84.33,1.29,1.29,0,0,0-.31.91v.2h-2.57v-.1a3.64,3.64,0,0,1,1.05-2.83,3.93,3.93,0,0,1,2.74-1,3.73,3.73,0,0,1,2.87,1.09A4.14,4.14,0,0,1,304.17,327.59Zm-2.79,5v-1.7h-.72a2,2,0,0,0-1.28.38,1.59,1.59,0,0,0-.44,1.27,1.93,1.93,0,0,0,.31,1.2,1.06,1.06,0,0,0,.91.41,1.11,1.11,0,0,0,.88-.42A1.74,1.74,0,0,0,301.38,332.63Z" style="fill:#414042"/><path d="M309.57,332.32a1.42,1.42,0,0,0,1.61,1.61h.09v2.49h-.09a5,5,0,0,1-3.28-.94,3.74,3.74,0,0,1-1.12-3V325.7h-1.41v-1.95h1.41v-2.23l2.79-1.13v3.36h2v1.95h-2Z" style="fill:#414042"/><path d="M320.54,327.59v8.83H318v-1.05a4.12,4.12,0,0,1-1,.95,2.31,2.31,0,0,1-1.25.3,2.83,2.83,0,0,1-2.38-1,4.53,4.53,0,0,1-.81-2.88A3.52,3.52,0,0,1,313.6,330a4.52,4.52,0,0,1,3.1-1h1.05v-1.61a1.55,1.55,0,0,0-.3-1,1.09,1.09,0,0,0-.87-.34,1.11,1.11,0,0,0-.84.33,1.29,1.29,0,0,0-.32.91v.2h-2.56v-.1a3.64,3.64,0,0,1,1.05-2.83,3.93,3.93,0,0,1,2.74-1,3.73,3.73,0,0,1,2.87,1.09A4.14,4.14,0,0,1,320.54,327.59Zm-2.79,5v-1.7H317a1.92,1.92,0,0,0-1.28.38,1.59,1.59,0,0,0-.45,1.27,1.93,1.93,0,0,0,.32,1.2,1.06,1.06,0,0,0,.91.41,1.11,1.11,0,0,0,.88-.42A1.74,1.74,0,0,0,317.75,332.63Z" style="fill:#414042"/><path d="M330.4,323.22v.53h1.71v1.95H330.4v10.72h-2.76V325.7h-1.27v-1.95h1.27V323q0-3.16,3.27-3.17h1.2v2h-.36a1.42,1.42,0,0,0-1.05.31A1.55,1.55,0,0,0,330.4,323.22Z" style="fill:#414042"/><path d="M333.52,332v-3.89a5,5,0,0,1,1-3.5,4,4,0,0,1,3-1.08,3.91,3.91,0,0,1,3,1.08,5,5,0,0,1,1,3.5V332a5,5,0,0,1-1,3.51,3.91,3.91,0,0,1-3,1.08,4,4,0,0,1-3-1.08A5,5,0,0,1,333.52,332Zm5.26,0v-3.94a3,3,0,0,0-.32-1.57,1.1,1.1,0,0,0-1.84,0,3,3,0,0,0-.32,1.57v3.94a3,3,0,0,0,.32,1.57,1.11,1.11,0,0,0,1.84,0A3,3,0,0,0,338.78,332.06Z" style="fill:#414042"/><path d="M346.12,323.75v1.18a2.94,2.94,0,0,1,1.09-1.1,3.05,3.05,0,0,1,1.41-.32,3.22,3.22,0,0,1,.86.1v2.92a3.65,3.65,0,0,0-1.27-.24,1.88,1.88,0,0,0-1.43.57,2.22,2.22,0,0,0-.54,1.59v8h-2.78V323.75Z" style="fill:#414042"/><path d="M90.4,365.22h-3v-7.1H84.33v7.1h-3V348.66h3v6.82h3.12v-6.82h3Z" style="fill:#414042"/><path d="M97.53,366.14a3.82,3.82,0,0,1-.9,1.8,3.18,3.18,0,0,1-1.55.85,10.46,10.46,0,0,1-2.4.23h-.09v-2.45h1c.84,0,1.37-.22,1.61-.65l-3.53-13.37h3.08l1.7,7.7,1.59-7.7H101Z" style="fill:#414042"/><path d="M101.66,361.31v-4.85a4.83,4.83,0,0,1,.83-3.12,2.76,2.76,0,0,1,2.22-1,2.43,2.43,0,0,1,1.24.31,2.31,2.31,0,0,1,.89.89v-4.9h2.76v16.56h-2.66v-.88a2.78,2.78,0,0,1-2.18,1.08,2.83,2.83,0,0,1-2.25-1A4.67,4.67,0,0,1,101.66,361.31Zm5.23-4.39a3,3,0,0,0-.31-1.57,1,1,0,0,0-.94-.5,1,1,0,0,0-.9.5,3.1,3.1,0,0,0-.3,1.57v3.94a3.12,3.12,0,0,0,.3,1.58,1,1,0,0,0,.93.48c.81,0,1.22-.69,1.22-2.06Z" style="fill:#414042"/><path d="M114.24,352.55v1.18a2.94,2.94,0,0,1,1.09-1.1,3,3,0,0,1,1.4-.32,3.35,3.35,0,0,1,.87.1v2.92a3.71,3.71,0,0,0-1.28-.24,1.85,1.85,0,0,0-1.42.57,2.2,2.2,0,0,0-.54,1.59v8h-2.79V352.55Z" style="fill:#414042"/><path d="M118.6,360.83v-3.89a5,5,0,0,1,1-3.5,4,4,0,0,1,3-1.08,3.91,3.91,0,0,1,3,1.08,5,5,0,0,1,1,3.5v3.89a5,5,0,0,1-1,3.51,3.91,3.91,0,0,1-3,1.08,4,4,0,0,1-3-1.08A5,5,0,0,1,118.6,360.83Zm5.26,0v-3.94a3.09,3.09,0,0,0-.31-1.57,1,1,0,0,0-.94-.5,1,1,0,0,0-.91.5,3,3,0,0,0-.31,1.57v3.94a3,3,0,0,0,.31,1.57,1,1,0,0,0,.91.49,1,1,0,0,0,.94-.49A3.14,3.14,0,0,0,123.86,360.86Z" style="fill:#414042"/><path d="M128.54,348.66h2.78v12.46c0,1.07.51,1.61,1.54,1.61H133v2.49h-.15q-4.29,0-4.29-3.93Z" style="fill:#414042"/><path d="M134.23,360.83v-3.89a5,5,0,0,1,1-3.5,4.69,4.69,0,0,1,6,0,5,5,0,0,1,1,3.5v3.89a5,5,0,0,1-1,3.51,4.69,4.69,0,0,1-6,0A5,5,0,0,1,134.23,360.83Zm5.25,0v-3.94a3,3,0,0,0-.31-1.57,1,1,0,0,0-.93-.5,1,1,0,0,0-.92.5,3.09,3.09,0,0,0-.31,1.57v3.94a3.14,3.14,0,0,0,.31,1.57,1,1,0,0,0,.92.49,1,1,0,0,0,.93-.49A3,3,0,0,0,139.48,360.86Z" style="fill:#414042"/><path d="M144.31,365.65h2.59a1.18,1.18,0,0,0,.31.89,1.23,1.23,0,0,0,.91.32,1.15,1.15,0,0,0,.93-.39,1.73,1.73,0,0,0,.32-1.13v-2.18a2.76,2.76,0,0,1-2.18,1.08,2.85,2.85,0,0,1-2.25-1,4.72,4.72,0,0,1-.85-3.13v-3.67a4.83,4.83,0,0,1,.83-3.12,2.76,2.76,0,0,1,2.22-1,2.49,2.49,0,0,1,1.25.31,2.45,2.45,0,0,1,.89.89v-1H152v12.53a4.3,4.3,0,0,1-1,3.05,3.76,3.76,0,0,1-2.89,1.13,3.91,3.91,0,0,1-2.75-.92A3.59,3.59,0,0,1,144.31,365.65Zm5-8.73a3,3,0,0,0-.31-1.57,1,1,0,0,0-.93-.5,1,1,0,0,0-.91.5,3.1,3.1,0,0,0-.3,1.57v2.76a3.12,3.12,0,0,0,.3,1.58,1,1,0,0,0,.93.48c.81,0,1.22-.68,1.22-2.06Z" style="fill:#414042"/><path d="M156.88,348.66V351H154.1v-2.33Zm0,3.89v12.67H154.1V352.55Z" style="fill:#414042"/><path d="M158.87,360.83v-3.89a5,5,0,0,1,1-3.5,3.93,3.93,0,0,1,3-1.08,3.86,3.86,0,0,1,2.9,1,4.28,4.28,0,0,1,1,3.1V357h-2.69v-.44a2.09,2.09,0,0,0-.32-1.26,1.08,1.08,0,0,0-.9-.42,1,1,0,0,0-.94.5,3,3,0,0,0-.31,1.57v3.94a3,3,0,0,0,.31,1.57,1,1,0,0,0,.91.49,1.11,1.11,0,0,0,.93-.42,2.15,2.15,0,0,0,.32-1.29v-.4h2.69v.4a4.39,4.39,0,0,1-1,3.16,3.83,3.83,0,0,1-2.9,1.05,3.93,3.93,0,0,1-3-1.08A5,5,0,0,1,158.87,360.83Z" style="fill:#414042"/><path d="M172.38,360.49h2.79a3.17,3.17,0,0,0,.49,1.8,1.54,1.54,0,0,0,1.31.58,1.47,1.47,0,0,0,1.26-.53,2.85,2.85,0,0,0,.39-1.68,2.35,2.35,0,0,0-.44-1.52,4,4,0,0,0-1.5-1.05l-1.13-.5a5.24,5.24,0,0,1-2.31-1.78,4.92,4.92,0,0,1-.71-2.83,4.56,4.56,0,0,1,1.21-3.33A4.33,4.33,0,0,1,177,348.4a4,4,0,0,1,3.15,1.23,5.42,5.42,0,0,1,1.19,3.57h-2.71a3.23,3.23,0,0,0-.4-1.69,1.36,1.36,0,0,0-1.23-.57c-1.07,0-1.61.63-1.61,1.9a2.26,2.26,0,0,0,.39,1.38,3.37,3.37,0,0,0,1.34.92l1.08.48a5.78,5.78,0,0,1,2.51,1.92,5.39,5.39,0,0,1,.78,3.07,4.93,4.93,0,0,1-1.2,3.56,4.52,4.52,0,0,1-3.41,1.25,4.27,4.27,0,0,1-3.34-1.28A5.33,5.33,0,0,1,172.38,360.49Z" style="fill:#414042"/><path d="M186,348.66V351h-2.79v-2.33Zm0,3.89v12.67h-2.79V352.55Z" style="fill:#414042"/><path d="M190.75,352.55v.94a2.56,2.56,0,0,1,2.13-1.13,2.87,2.87,0,0,1,1.42.35,2.79,2.79,0,0,1,1,1,4,4,0,0,1,1.14-.95,2.73,2.73,0,0,1,1.36-.37,2.91,2.91,0,0,1,2.46,1,4.64,4.64,0,0,1,.73,2.85v9.05h-2.78v-9a1.4,1.4,0,0,0-.33-1,1.15,1.15,0,0,0-1.65,0,1.4,1.4,0,0,0-.33,1v9h-2.78v-9a1.4,1.4,0,0,0-.33-1,1.07,1.07,0,0,0-.82-.35,1.06,1.06,0,0,0-.84.35,1.44,1.44,0,0,0-.31,1v9h-2.79V352.55Z" style="fill:#414042"/><path d="M203,361v-8.43h2.78v7.85a12.81,12.81,0,0,0,.06,1.46,1.45,1.45,0,0,0,.3.77,1,1,0,0,0,.8.29,1.1,1.1,0,0,0,.79-.25,1.29,1.29,0,0,0,.3-.73,14.1,14.1,0,0,0,.06-1.54v-7.85h2.78V361a7.4,7.4,0,0,1-.34,2.46,2.71,2.71,0,0,1-1.18,1.46,4.71,4.71,0,0,1-2.41.52,3.66,3.66,0,0,1-3.11-1.12A5.47,5.47,0,0,1,203,361Z" style="fill:#414042"/><path d="M212.85,348.66h2.78v12.46c0,1.07.51,1.61,1.54,1.61h.12v2.49h-.15q-4.29,0-4.29-3.93Z" style="fill:#414042"/><path d="M226.36,356.39v8.83h-2.59v-1.05a3.87,3.87,0,0,1-1,.94,2.21,2.21,0,0,1-1.24.31,2.83,2.83,0,0,1-2.39-1,4.53,4.53,0,0,1-.81-2.88,3.52,3.52,0,0,1,1.08-2.75,4.53,4.53,0,0,1,3.1-1h1.06v-1.61a1.55,1.55,0,0,0-.3-1,1.27,1.27,0,0,0-1.72,0,1.29,1.29,0,0,0-.31.91v.2h-2.57v-.1a3.61,3.61,0,0,1,1.06-2.83,3.89,3.89,0,0,1,2.73-1,3.73,3.73,0,0,1,2.87,1.09A4.14,4.14,0,0,1,226.36,356.39Zm-2.78,5v-1.7h-.72a2,2,0,0,0-1.29.38,1.63,1.63,0,0,0-.44,1.27,1.93,1.93,0,0,0,.31,1.2,1.06,1.06,0,0,0,.91.41,1.1,1.1,0,0,0,.88-.42A1.74,1.74,0,0,0,223.58,361.43Z" style="fill:#414042"/><path d="M231.76,361.12a1.43,1.43,0,0,0,1.61,1.61h.09v2.49h-.09a5,5,0,0,1-3.28-.94,3.74,3.74,0,0,1-1.11-3v-6.8h-1.42v-1.94H229v-2.23l2.78-1.13v3.36h2v1.94h-2Z" style="fill:#414042"/><path d="M238.22,348.66V351h-2.79v-2.33Zm0,3.89v12.67h-2.79V352.55Z" style="fill:#414042"/><path d="M240.21,360.83v-3.89a5,5,0,0,1,1-3.5,4.69,4.69,0,0,1,6,0,5,5,0,0,1,1,3.5v3.89a5,5,0,0,1-1,3.51,4.69,4.69,0,0,1-6,0A5,5,0,0,1,240.21,360.83Zm5.26,0v-3.94a3,3,0,0,0-.32-1.57,1,1,0,0,0-.93-.5,1,1,0,0,0-.91.5,3,3,0,0,0-.32,1.57v3.94a3,3,0,0,0,.32,1.57,1,1,0,0,0,.91.49,1,1,0,0,0,.93-.49A3,3,0,0,0,245.47,360.86Z" style="fill:#414042"/><path d="M252.81,352.55v.94a2.59,2.59,0,0,1,2.11-1.13c2.06,0,3.1,1.27,3.1,3.81v9.05h-2.79v-9a1.45,1.45,0,0,0-.32-1,1.17,1.17,0,0,0-1.67,0,1.44,1.44,0,0,0-.31,1v9h-2.79V352.55Z" style="fill:#414042"/><path d="M275.9,365.22H273v-9.69L270.83,362h-1.58l-2.09-6.41v9.62h-3V348.66h3L270,357.4l2.91-8.74h2.95Z" style="fill:#414042"/><path d="M277.82,360.83v-3.89a5,5,0,0,1,1-3.5,4.69,4.69,0,0,1,6,0,5,5,0,0,1,1,3.5v3.89a5,5,0,0,1-1,3.51,4.69,4.69,0,0,1-6,0A5,5,0,0,1,277.82,360.83Zm5.25,0v-3.94a3,3,0,0,0-.31-1.57,1,1,0,0,0-.93-.5,1,1,0,0,0-.92.5,3,3,0,0,0-.31,1.57v3.94a3,3,0,0,0,.31,1.57,1,1,0,0,0,.92.49,1,1,0,0,0,.93-.49A3,3,0,0,0,283.07,360.86Z" style="fill:#414042"/><path d="M287.68,361.31v-4.85a4.83,4.83,0,0,1,.83-3.12,2.76,2.76,0,0,1,2.22-1,2.49,2.49,0,0,1,1.25.31,2.38,2.38,0,0,1,.89.89v-4.9h2.76v16.56H293v-.88a2.76,2.76,0,0,1-2.18,1.08,2.83,2.83,0,0,1-2.25-1A4.73,4.73,0,0,1,287.68,361.31Zm5.23-4.39a3,3,0,0,0-.31-1.57,1,1,0,0,0-.93-.5,1,1,0,0,0-.9.5,3.1,3.1,0,0,0-.3,1.57v3.94a3.12,3.12,0,0,0,.3,1.58,1,1,0,0,0,.92.48c.82,0,1.22-.69,1.22-2.06Z" style="fill:#414042"/><path d="M300.31,361c0,1.3.41,2,1.24,2s1.23-.54,1.23-1.61v-.12h2.69v.14a4.14,4.14,0,0,1-1,3,4,4,0,0,1-2.91,1,3.81,3.81,0,0,1-3-1.16,5.54,5.54,0,0,1-1.06-3.81v-3.1a5.85,5.85,0,0,1,1-3.79,3.62,3.62,0,0,1,3-1.2,3.79,3.79,0,0,1,3,1.22,5.58,5.58,0,0,1,1.07,3.77v2.52h-5.25Zm0-4.1v.94h2.47v-.94a3.09,3.09,0,0,0-.31-1.57,1,1,0,0,0-.94-.5,1,1,0,0,0-.91.5A3,3,0,0,0,300.31,356.92Z" style="fill:#414042"/><path d="M307.46,348.66h2.78v12.46c0,1.07.51,1.61,1.54,1.61h.12v2.49h-.15q-4.29,0-4.29-3.93Z" style="fill:#414042"/><path d="M316.1,348.66V351h-2.79v-2.33Zm0,3.89v12.67h-2.79V352.55Z" style="fill:#414042"/><path d="M320.83,352.55v.94a2.59,2.59,0,0,1,2.11-1.13q3.09,0,3.09,3.81v9.05h-2.78v-9a1.45,1.45,0,0,0-.32-1,1.11,1.11,0,0,0-.83-.35,1.09,1.09,0,0,0-.84.35,1.44,1.44,0,0,0-.31,1v9h-2.79V352.55Z" style="fill:#414042"/><path d="M328.15,365.65h2.59a1.18,1.18,0,0,0,.31.89,1.23,1.23,0,0,0,.91.32,1.15,1.15,0,0,0,.93-.39,1.73,1.73,0,0,0,.32-1.13v-2.18a2.78,2.78,0,0,1-2.18,1.08,2.85,2.85,0,0,1-2.25-1,4.72,4.72,0,0,1-.85-3.13v-3.67a4.83,4.83,0,0,1,.83-3.12,2.76,2.76,0,0,1,2.22-1,2.49,2.49,0,0,1,1.25.31,2.35,2.35,0,0,1,.88.89v-1h2.76v12.53a4.29,4.29,0,0,1-1,3.05,3.76,3.76,0,0,1-2.89,1.13,3.91,3.91,0,0,1-2.75-.92A3.59,3.59,0,0,1,328.15,365.65Zm5-8.73a3,3,0,0,0-.31-1.57,1,1,0,0,0-.94-.5,1,1,0,0,0-.9.5,3.1,3.1,0,0,0-.3,1.57v2.76a3.12,3.12,0,0,0,.3,1.58,1,1,0,0,0,.93.48c.81,0,1.22-.68,1.22-2.06Z" style="fill:#414042"/></svg>