<?xml version="1.0" encoding="UTF-8"?><svg id="Layer_1" xmlns="http://www.w3.org/2000/svg" viewBox="0 0 49.89 44.9"><path d="M49.89,19.11V.84c0-.47-.38-.84-.84-.84h-15.77c-.47,0-.84,.38-.84,.84V6.64c0,.47-.38,.84-.84,.84h-13.28c-.47,0-.84-.38-.84-.84V.84c0-.47-.38-.84-.84-.84H.84C.38,0,0,.38,0,.84V19.11c0,.47,.38,.84,.84,.84h15.77c.47,0,.84-.38,.84-.84v-5.8c0-.47,.38-.84,.84-.84h3.3c.47,0,.84,.38,.84,.84v23.26c0,.47,.38,.84,.84,.84h8.29c.47,0,.84,.38,.84,.84v5.8c0,.47,.38,.84,.84,.84h15.77c.47,0,.84-.38,.84-.84V25.79c0-.47-.38-.84-.84-.84h-15.77c-.47,0-.84,.38-.84,.84v5.8c0,.47-.38,.84-.84,.84h-3.3c-.47,0-.84-.38-.84-.84V13.32c0-.47,.38-.84,.84-.84h3.3c.47,0,.84,.38,.84,.84v5.8c0,.47,.38,.84,.84,.84h15.77c.47,0,.84-.38,.84-.84Z" style="fill:#fff;"/></svg>