<?xml version="1.0" encoding="UTF-8"?><svg id="Layer_1" xmlns="http://www.w3.org/2000/svg" viewBox="0 0 40.69 50"><path id="chemistry-alt" d="M40.03,40.95l-11.13-22.26c-.14-.29-.22-.61-.22-.93V2.08c0-1.15-.93-2.08-2.08-2.08H14.1c-1.15,0-2.08,.93-2.08,2.08v15.68c0,.32-.08,.64-.22,.93L.67,40.95c-.98,1.95-.87,4.23,.27,6.08,1.15,1.86,3.14,2.96,5.32,2.96h28.18c2.18,0,4.17-1.11,5.32-2.96,1.15-1.86,1.25-4.13,.27-6.08Zm-15.52-5.54c0-1.15-.93-2.08-2.08-2.08s-2.08,.93-2.08,2.08H8.09l7.43-14.86c.43-.86,.66-1.83,.66-2.79V4.17h8.33v13.6c0,.96,.23,1.93,.66,2.79l7.43,14.86h-8.09Zm-2.08-14.58c0,1.15-.93,2.08-2.08,2.08s-2.08-.93-2.08-2.08,.93-2.08,2.08-2.08,2.08,.93,2.08,2.08Zm-2.08,9.38c0,1.73-1.4,3.12-3.12,3.12s-3.12-1.4-3.12-3.12,1.4-3.13,3.12-3.13,3.12,1.4,3.12,3.13Z" style="fill:#fff;"/></svg>