<?xml version="1.0" encoding="UTF-8"?><svg id="Layer_1" xmlns="http://www.w3.org/2000/svg" viewBox="0 0 49.89 44.9"><path d="M32.68,43.2v-6.09h-7.9c-.94,0-1.7-.76-1.7-1.7V11.54h-5.8v6.41c0,.94-.76,1.7-1.7,1.7H1.7c-.94,0-1.7-.76-1.7-1.7V1.7C0,.76,.76,0,1.7,0H15.57C16.51,0,17.27,.76,17.27,1.7V7.8h15.4V1.7C32.68,.76,33.44,0,34.38,0h13.81C49.13,0,49.89,.76,49.89,1.7V17.94c0,.94-.76,1.7-1.7,1.7h-13.81c-.94,0-1.7-.76-1.7-1.7v-6.41h-5.86v21.83h5.86v-6.41c0-.94,.76-1.7,1.7-1.7h13.81c.94,0,1.7,.76,1.7,1.7v16.24c0,.94-.76,1.7-1.7,1.7h-13.81c-.94,0-1.7-.76-1.7-1.7ZM3.74,3.74v0ZM36.42,29v0Zm0-25.26v0Zm1.7,12.16h6.33c.94,0,1.7-.76,1.7-1.7V5.44c0-.94-.76-1.7-1.7-1.7h-6.33c-.94,0-1.7,.76-1.7,1.7V14.2c0,.94,.76,1.7,1.7,1.7Zm0,25.26h6.33c.94,0,1.7-.76,1.7-1.7v-8.76c0-.94-.76-1.7-1.7-1.7h-6.33c-.94,0-1.7,.76-1.7,1.7v8.76c0,.94,.76,1.7,1.7,1.7ZM5.44,15.9h6.39c.94,0,1.7-.76,1.7-1.7V5.44c0-.94-.76-1.7-1.7-1.7H5.44c-.94,0-1.7,.76-1.7,1.7V14.2c0,.94,.76,1.7,1.7,1.7Z" style="fill:#fff;"/></svg>