<?xml version="1.0" encoding="UTF-8"?><svg id="Layer_1" xmlns="http://www.w3.org/2000/svg" viewBox="0 0 56.52 50"><path id="book-open-text" d="M50,0h-13.04c-3.55,0-6.71,1.71-8.7,4.35C26.28,1.71,23.12,0,19.57,0H6.52C2.93,0,0,2.93,0,6.52V39.13c0,3.6,2.92,6.52,6.52,6.52h13.04c1.1,0,2.09,.66,2.51,1.68,.66,1.57,2.2,2.66,4,2.67h4.36c1.8,0,3.35-1.1,4.01-2.67,.42-1.01,1.41-1.68,2.51-1.68h13.05c3.6,0,6.52-2.92,6.52-6.52V6.52c0-3.6-2.93-6.52-6.52-6.52ZM26.09,41.31h-.4c-.9-2.53-3.29-4.35-6.12-4.35H6.52c-1.2,0-2.17-.97-2.17-2.17V6.52c0-1.2,.97-2.17,2.17-2.17h13.04c3.6,0,6.52,2.92,6.52,6.52v30.44Zm26.09-6.52c0,1.2-.97,2.17-2.17,2.17h-13.04c-2.84,0-5.22,1.82-6.12,4.35h-.4V10.87c0-3.6,2.92-6.52,6.52-6.52h13.04c1.2,0,2.17,.97,2.17,2.17v28.26Zm-30.43-7.61v2.17c0,.6-.49,1.09-1.09,1.09H9.78c-.6,0-1.09-.49-1.09-1.09v-2.17c0-.6,.49-1.09,1.09-1.09h10.87c.6,0,1.09,.49,1.09,1.09Zm0-8.7v2.17c0,.6-.49,1.09-1.09,1.09H9.78c-.6,0-1.09-.49-1.09-1.09v-2.17c0-.6,.49-1.09,1.09-1.09h10.87c.6,0,1.09,.49,1.09,1.09Zm0-8.7v2.17c0,.6-.49,1.09-1.09,1.09H9.78c-.6,0-1.09-.49-1.09-1.09v-2.17c0-.6,.49-1.09,1.09-1.09h10.87c.6,0,1.09,.49,1.09,1.09Zm26.09,0v2.17c0,.6-.49,1.09-1.09,1.09h-10.87c-.6,0-1.09-.49-1.09-1.09v-2.17c0-.6,.49-1.09,1.09-1.09h10.87c.6,0,1.09,.49,1.09,1.09Zm-4.35,17.39v2.17c0,.6-.49,1.09-1.09,1.09h-6.52c-.6,0-1.09-.49-1.09-1.09v-2.17c0-.6,.49-1.09,1.09-1.09h6.52c.6,0,1.09,.49,1.09,1.09Zm4.35-8.7v2.17c0,.6-.49,1.09-1.09,1.09h-10.87c-.6,0-1.09-.49-1.09-1.09v-2.17c0-.6,.49-1.09,1.09-1.09h10.87c.6,0,1.09,.49,1.09,1.09Z" style="fill:#fff;"/></svg>