<?xml version="1.0" encoding="UTF-8"?><svg id="Layer_1" xmlns="http://www.w3.org/2000/svg" viewBox="0 0 50.01 50"><defs><style>.cls-1{fill:#fff;}</style></defs><path id="cogwheels" class="cls-1" d="M31.13,25.94c.61-1.06,1.09-2.21,1.41-3.42l4.44-1.11c.32-.08,.57-.35,.6-.68,.07-.62,.11-1.24,.11-1.88s-.04-1.26-.11-1.88c-.04-.33-.28-.6-.6-.68l-4.44-1.11c-.32-1.21-.8-2.36-1.41-3.42l2.35-3.92c.17-.29,.15-.66-.06-.91-.79-.97-1.68-1.86-2.65-2.65-.26-.21-.63-.23-.91-.06l-3.92,2.35c-1.06-.61-2.21-1.09-3.42-1.41l-1.11-4.44c-.08-.32-.35-.57-.68-.6-.62-.07-1.24-.11-1.88-.11s-1.26,.04-1.88,.11c-.33,.04-.6,.28-.68,.6l-1.11,4.44c-1.21,.32-2.35,.8-3.41,1.41l-3.92-2.35c-.29-.17-.66-.15-.91,.06-.97,.79-1.86,1.68-2.65,2.65-.21,.26-.23,.63-.06,.91l2.35,3.92c-.61,1.06-1.09,2.21-1.41,3.42l-4.44,1.11c-.32,.08-.57,.35-.6,.68-.07,.62-.11,1.24-.11,1.88s.04,1.26,.11,1.88c.04,.33,.28,.6,.6,.68l4.44,1.11c.32,1.21,.8,2.36,1.41,3.42l-2.35,3.92c-.17,.29-.15,.66,.06,.91,.79,.97,1.68,1.86,2.65,2.65,.26,.21,.63,.23,.91,.06l3.92-2.35c1.06,.61,2.21,1.09,3.42,1.41l1.11,4.44c.08,.32,.35,.57,.68,.6,.62,.07,1.24,.11,1.88,.11s1.26-.04,1.88-.11c.33-.04,.6-.28,.68-.6l1.11-4.44c1.21-.32,2.36-.8,3.42-1.41l3.92,2.35c.29,.17,.66,.15,.91-.06,.97-.79,1.86-1.68,2.65-2.65,.21-.26,.23-.63,.06-.91l-2.35-3.92Zm-12.28-.5c-3.64,0-6.59-2.95-6.59-6.59s2.95-6.59,6.59-6.59,6.59,2.95,6.59,6.59-2.95,6.59-6.59,6.59Zm31.15,14.99c0-.36-.25-.66-.6-.74l-1.82-.46c-.16-.57-.38-1.13-.68-1.64l.98-1.63c.17-.29,.15-.66-.07-.92-.26-.29-.54-.57-.85-.85-.25-.22-.63-.25-.92-.07l-1.62,.97c-.51-.29-1.07-.53-1.64-.68l-.46-1.82c-.09-.34-.39-.59-.74-.6-.35,0-.77,0-1.13,0-.36,0-.66,.25-.74,.6l-.46,1.83c-.57,.16-1.13,.38-1.64,.68l-1.63-.98c-.29-.17-.66-.15-.92,.07-.3,.26-.58,.54-.85,.85-.22,.25-.25,.63-.07,.92l.97,1.62c-.29,.51-.53,1.07-.68,1.64l-1.82,.46c-.34,.09-.59,.39-.6,.74,0,.35,0,.77,0,1.13,0,.36,.25,.66,.6,.74l1.83,.46c.16,.57,.38,1.13,.68,1.64l-.98,1.63c-.17,.29-.15,.66,.07,.92,.26,.29,.54,.58,.85,.85,.25,.22,.64,.25,.93,.07l1.62-.97c.51,.29,1.07,.53,1.64,.68l.46,1.82c.09,.34,.39,.59,.74,.6,.35,0,.77,0,1.13,0,.36,0,.66-.25,.74-.6l.46-1.82c.57-.16,1.13-.38,1.64-.68l1.62,.98c.29,.17,.66,.16,.92-.07,.29-.26,.57-.54,.85-.85,.22-.25,.25-.63,.07-.92l-.97-1.62c.29-.52,.53-1.07,.68-1.64l1.82-.46c.34-.09,.59-.39,.6-.74,0-.35,0-.77,0-1.13Zm-9,3.95c-1.87,0-3.39-1.52-3.39-3.39s1.52-3.39,3.39-3.39,3.39,1.52,3.39,3.39-1.52,3.39-3.39,3.39Z"/></svg>