<?xml version="1.0" encoding="UTF-8"?><svg id="Layer_1" xmlns="http://www.w3.org/2000/svg" xmlns:xlink="http://www.w3.org/1999/xlink" viewBox="0 0 792 274.92"><defs><style>.cls-1{fill:none;}.cls-2{clip-path:url(#clippath);}.cls-3{fill:#007251;}.cls-4{fill:#f26a6c;}.cls-5{fill:#e6e7e8;}.cls-6{fill:#ed1c24;}.cls-7{fill:#8bc63f;}.cls-8{fill:#a4dbee;}.cls-9{fill:#a97c50;}.cls-10{fill:#bd3a39;}.cls-11{fill:#d2d2d1;}.cls-12{fill:#d2d0d0;}.cls-13{fill:#d1d3d4;}.cls-14{fill:#1e95c7;}.cls-15,.cls-16{fill:#414042;}.cls-17{fill:#6d6e71;}.cls-18{fill:#808285;}.cls-19{fill:#2a6432;}.cls-20{fill:#377e3d;}.cls-21{fill:#37813f;}.cls-22{fill:#58595b;}.cls-23{fill:#603913;}.cls-24{clip-path:url(#clippath-1);}.cls-25{clip-path:url(#clippath-2);}.cls-26{letter-spacing:-.02em;}.cls-16{font-size:14px;}.cls-16,.cls-27{font-family:HelveticaNeue-Bold, 'Helvetica Neue';font-weight:700;}.cls-28{letter-spacing:0em;}.cls-29{letter-spacing:-.06em;}.cls-27{fill:#fff;font-size:18px;}</style><clipPath id="clippath"><rect class="cls-1" width="253.83" height="274.92" rx="5" ry="5"/></clipPath><clipPath id="clippath-1"><rect class="cls-1" x="269.09" width="253.83" height="274.92" rx="5" ry="5"/></clipPath><clipPath id="clippath-2"><rect class="cls-1" x="538.17" width="253.83" height="274.92" rx="5" ry="5"/></clipPath></defs><g class="cls-2"><rect class="cls-6" x="0" y="25.43" width="253.83" height="249.49"/><rect class="cls-8" width="253.83" height="274.92"/><rect class="cls-7" x="0" y="49.84" width="253.83" height="15.31"/><rect class="cls-23" x="0" y="65.15" width="253.83" height="42.47"/><rect class="cls-9" x="0" y="105.76" width="253.83" height="44.41"/><rect class="cls-14" x="0" y="150.18" width="253.83" height="80.23"/><rect class="cls-22" x="0" y="230.41" width="253.83" height="44.51"/><text class="cls-27" transform="translate(86.81 196.99)"><tspan x="0" y="0">AQUIFER</tspan></text><text class="cls-16" transform="translate(166.42 44.85)"><tspan class="cls-29" x="0" y="0">W</tspan><tspan x="12.42" y="0">ell</tspan></text><rect class="cls-13" x="120.22" y="43.42" width="13.4" height="125.41"/><rect class="cls-18" x="107.61" y="31.59" width="38.6" height="18.16"/><rect class="cls-18" x="104.31" y="25.43" width="45.21" height="7.28" rx=".82" ry=".82"/><polygon class="cls-15" points="150.69 39.66 161.58 45.53 161.58 33.8 150.69 39.66"/></g><g class="cls-24"><rect class="cls-8" x="269.09" width="253.83" height="274.92"/><rect class="cls-14" x="269.09" y="132.07" width="253.83" height="142.85"/><path class="cls-7" d="m522.91,274.92h-253.83v-73.43l47,13.6c52.21,15.1,107.63,15.1,159.84,0l47-13.6v73.43Z"/><path class="cls-7" d="m522.91,132.07h-253.83v-57l31.58-9c9.39-2.68,19.34-2.65,28.71.08l52.6,15.3c9.18,2.67,18.91,2.75,28.13.24l57.46-15.65c9.73-2.65,20.02-2.41,29.62.7l25.74,8.33v57Z"/><text class="cls-27" transform="translate(372.09 194.94)"><tspan x="0" y="0">LAKE</tspan></text><text class="cls-16" transform="translate(409.15 86.97)"><tspan x="0" y="0">Buoy</tspan></text><g><path class="cls-10" d="m426.2,108.53h0c1.96,0,3.55,1.59,3.55,3.55v4.18h-7.1v-4.18c0-1.96,1.59-3.55,3.55-3.55Z"/><path class="cls-12" d="m421.14,116.26h10.11c.3,0,.55.25.55.55v.79h-11.2v-.79c0-.3.25-.55.55-.55Z"/><rect class="cls-4" x="418.19" y="117.61" width="16.01" height="4.02" rx=".55" ry=".55"/><g><polygon class="cls-10" points="421.27 136.89 432.97 144.51 433.9 148.13 420.59 139.62 421.27 136.89"/><polygon class="cls-10" points="431.02 136.89 419.46 144.21 418.49 148.13 431.8 139.92 431.02 136.89"/><polygon class="cls-4" points="421.23 121.63 413.1 153.5 417.16 153.5 424.15 125.26 424.15 153.5 428.09 153.5 428.09 125.42 435.27 153.5 439.29 153.5 431.09 121.63 421.23 121.63"/></g><path class="cls-11" d="m439.24,162.19c1.66-2.49,2.63-5.47,2.63-8.68h-31.35c0,2.14.43,4.18,1.21,6.04l1.08-.03c8.89-.21,17.76.68,26.43,2.66h0Z"/></g><polygon class="cls-15" points="426.18 103.42 432.04 92.53 420.31 92.53 426.18 103.42"/></g><g class="cls-25"><rect class="cls-7" x="538.17" y="25.43" width="253.83" height="249.49"/><text class="cls-16" transform="translate(582.42 138.57)"><tspan x="0" y="0">St</tspan><tspan class="cls-26" x="14.01" y="0">r</tspan><tspan class="cls-28" x="19.21" y="0">eamgage</tspan></text><polygon class="cls-15" points="677.97 135.15 667.08 129.28 667.08 141.01 677.97 135.15"/><rect class="cls-14" x="538.17" y="165.69" width="253.83" height="109.23"/><rect class="cls-23" x="538.17" y="157.84" width="253.83" height="7.84"/><rect class="cls-8" x="538.17" width="253.83" height="77.29"/><text class="cls-27" transform="translate(638.44 223.96)"><tspan x="0" y="0">RIVER</tspan></text><rect class="cls-21" x="538.17" y="91.5" width="253.83" height="10.59"/><path class="cls-9" d="m692.1,114.88h1.3c1.1,0,2,.9,2,2v48.81h-5.3v-48.81c0-1.1.9-2,2-2Z"/><polygon class="cls-19" points="734.52 32.77 707.79 95.4 761.24 95.4 734.52 32.77"/><polygon class="cls-19" points="714.53 45.1 693.07 95.4 735.99 95.4 714.53 45.1"/><polyline class="cls-19" points="792 95.4 747.54 95.4 774.27 32.77 792 74.33 792 95.4"/><polygon class="cls-19" points="692.36 32.77 665.63 95.4 719.08 95.4 692.36 32.77"/><polygon class="cls-19" points="645.8 32.77 619.08 95.4 672.53 95.4 645.8 32.77"/><polygon class="cls-19" points="615.22 43.49 593.08 95.4 637.37 95.4 615.22 43.49"/><polyline class="cls-19" points="538.17 91.85 573.64 91.85 551.41 39.75 538.17 70.78 538.17 91.5"/><polygon class="cls-19" points="583.61 29.22 556.88 91.85 610.33 91.85 583.61 29.22"/><polygon class="cls-20" points="687.8 60.53 670.07 102.09 705.54 102.09 687.8 60.53"/><rect class="cls-5" x="682.01" y="119.62" width="21.95" height="31.06" rx="2" ry="2"/><path class="cls-13" d="m699.16,93.31h.85c.43,0,.79.35.79.79v25.52h-2.42v-25.52c0-.43.35-.79.79-.79Z"/><polygon class="cls-20" points="664.66 47.85 641.51 102.09 687.8 102.09 664.66 47.85"/><polygon class="cls-20" points="642.37 60.53 624.63 102.09 660.1 102.09 642.37 60.53"/><polygon class="cls-20" points="751.12 47.85 727.97 102.09 774.27 102.09 751.12 47.85"/><polygon class="cls-20" points="728.83 60.53 711.1 102.09 746.57 102.09 728.83 60.53"/><polygon class="cls-20" points="774.27 60.53 756.53 102.09 792 102.09 774.27 60.53"/><rect class="cls-13" x="704.12" y="84.43" width="1.21" height="14.14" transform="translate(271.11 -471.51) rotate(45)"/><rect class="cls-5" x="692.56" y="96.93" width="14.05" height="8.13" rx="1" ry="1"/><rect class="cls-22" x="693.61" y="97.92" width="11.96" height="6.14" rx="1" ry="1"/><rect class="cls-13" x="702.83" y="89.83" width="1.21" height="5.92" rx=".5" ry=".5" transform="translate(140.42 524.58) rotate(-45)"/><rect class="cls-13" x="702.83" y="89.83" width="1.21" height="5.92" rx=".5" ry=".5"/><rect class="cls-13" x="705.79" y="86.87" width="1.21" height="5.92" rx=".5" ry=".5" transform="translate(143.38 525.81) rotate(-45)"/><polygon class="cls-20" points="578.19 47.85 555.05 102.09 601.34 102.09 578.19 47.85"/><polygon class="cls-20" points="555.91 60.53 538.17 102.09 573.64 102.09 555.91 60.53"/><polygon class="cls-20" points="601.34 60.53 583.61 102.09 619.08 102.09 601.34 60.53"/><rect class="cls-13" x="705.79" y="86.87" width="1.21" height="5.92" rx=".5" ry=".5"/><rect class="cls-13" x="708.75" y="83.9" width="1.21" height="5.92" rx=".5" ry=".5" transform="translate(146.34 527.03) rotate(-45)"/><rect class="cls-13" x="708.75" y="83.9" width="1.21" height="5.92" rx=".5" ry=".5"/><g><path class="cls-3" d="m692.46,123.41v2.72c0,.57-.33,1.18-1.3,1.18-.88,0-1.31-.46-1.31-1.18v-2.72h.8v2.67c0,.47.2.66.5.66.35,0,.51-.24.51-.66v-2.67h.8m1.31,3.91c-.99,0-1.18-.59-1.14-1.25h.8c0,.37.02.68.46.68.27,0,.4-.18.4-.44,0-.69-1.62-.73-1.62-1.88,0-.6.29-1.08,1.27-1.08.78,0,1.17.35,1.12,1.16h-.78c0-.29-.05-.58-.37-.58-.26,0-.42.14-.42.41,0,.73,1.62.66,1.62,1.87,0,1-.73,1.11-1.34,1.11m5.4,0c-.99,0-1.18-.59-1.14-1.25h.8c0,.37.02.68.46.68.27,0,.4-.18.4-.44,0-.69-1.62-.73-1.62-1.88,0-.6.29-1.08,1.27-1.08.78,0,1.17.35,1.12,1.16h-.78c0-.29-.05-.58-.37-.58-.26,0-.42.14-.42.41,0,.73,1.62.66,1.62,1.87,0,1-.73,1.11-1.34,1.11m-2.56-1.49h.47v.85l-.04.02c-.12.04-.26.07-.4.07-.46,0-.57-.21-.57-1.42,0-.75,0-1.42.5-1.42.39,0,.47.26.48.58h.8c0-.75-.47-1.16-1.23-1.16-1.32,0-1.36.99-1.36,1.95,0,1.46.16,2.02,1.51,2.02.31,0,.81-.07,1.04-.13.01,0,.04-.02.04-.04v-1.91h-1.24v.58"/><path class="cls-3" d="m686.49,124.7h.01c.38.33.78.3,1.09.09.19-.13,1.08-.72,1.58-1.05v-.33h-3.72v.88c.23-.04.59,0,1.04.41m1.4,1.46l-.44-.42c-.06-.06-.12-.1-.12-.11-.36-.25-.69-.18-.84-.12-.05.02-.09.04-.12.06l-.92.62v1.11h3.72v-.8c-.09.05-.59.33-1.29-.33m-1.43-1.36s-.04-.04-.06-.05c-.44-.34-.85-.17-.94-.13v.38l.21-.14s.33-.25.85,0l-.06-.06m.52.5s-.04-.03-.06-.05c-.39-.33-.77-.25-.92-.19-.05.02-.09.04-.12.06l-.42.28v.39l.7-.47s.33-.24.84,0l-.02-.02m2.2.41c-.14.1-.29.2-.35.24-.13.09-.44.31-.95.07l.06.06s.05.05.08.07c.37.27.76.24,1.05.04.04-.03.08-.05.11-.07v-.4m0-.79c-.32.21-.76.51-.84.56-.13.09-.44.31-.94.07l.06.05s.01.01.02.02h0c.39.33.81.28,1.11.08.17-.11.4-.27.59-.4v-.39m0-.78c-.46.31-1.22.82-1.32.88-.13.09-.45.31-.94.08l.06.06s.08.07.14.11c.34.22.7.18.99-.02.21-.14.72-.48,1.07-.71v-.39"/><path class="cls-3" d="m685.65,128.44s-.01.06,0,.08c0,.02.02.03.06.03s.07-.02.09-.07c.03-.14-.31-.11-.26-.33.03-.14.19-.19.31-.19s.23.06.19.21h-.19s.01-.07,0-.09c0-.01-.02-.02-.05-.02-.04,0-.07.03-.08.07-.02.11.31.1.26.32-.02.12-.14.21-.3.21-.17,0-.27-.04-.21-.23h.18m.81-.22c.02-.1,0-.14-.06-.14-.08,0-.1.07-.13.21-.05.21-.04.25.03.25.06,0,.1-.05.12-.14h.19c-.04.19-.16.26-.33.26-.24,0-.24-.15-.2-.36.04-.19.1-.34.35-.34.17,0,.26.08.22.26h-.19m.59-.5l-.03.15h-.19l.03-.15h.19m-.2.94h-.19l.14-.68h.19l-.14.68h0Zm9.06-.94l-.03.15h-.19l.03-.15h.19m-.2.94h-.19l.14-.68h.19l-.14.68h0Zm-8.3-.42c.01-.07.04-.16-.05-.16s-.11.1-.12.16h.17m-.2.11c-.02.08-.04.2.04.2.07,0,.09-.07.11-.12h.19c-.02.07-.05.14-.11.18-.05.04-.12.07-.21.07-.24,0-.24-.15-.2-.36.04-.19.1-.34.35-.34s.25.17.19.38h-.36Zm.72-.31h0c.05-.06.11-.08.18-.08.09,0,.16.05.14.15l-.12.54h-.19l.1-.47c.01-.06.01-.11-.05-.11s-.08.05-.09.11l-.1.47h-.19l.14-.68h.19v.07m.74.17c.02-.1,0-.14-.06-.14-.08,0-.1.07-.13.21-.05.21-.04.25.03.25.06,0,.1-.05.12-.14h.19c-.04.19-.16.26-.33.26-.24,0-.24-.15-.2-.36.04-.19.1-.34.35-.34.17,0,.26.08.22.26h-.19m.63.02c.01-.07.04-.16-.05-.16s-.11.1-.12.16h.17m-.19.11c-.02.08-.04.2.04.2.07,0,.09-.07.11-.12h.19c-.02.07-.05.14-.11.18-.05.04-.12.07-.21.07-.24,0-.24-.15-.2-.36.04-.19.1-.34.35-.34s.25.17.19.38h-.36Zm1.16-.52c-.07,0-.1.02-.11.09v.05s.08,0,.08,0l-.02.12h-.09l-.12.56h-.19l.12-.56h-.08l.02-.12h.09c.04-.17.07-.26.27-.26.02,0,.05,0,.07,0l-.03.12m.31.46c.03-.14.04-.21-.04-.21-.08,0-.1.07-.13.21-.05.21-.04.25.03.25.07,0,.09-.05.14-.25m-.37.01c.04-.19.1-.34.35-.34s.24.16.2.34c-.05.21-.11.36-.35.36-.24,0-.24-.15-.2-.36h0Zm.89-.33l-.02.09h0c.05-.08.12-.1.2-.1l-.04.17c-.17-.01-.19.09-.2.15l-.08.37h-.19l.14-.68h.18m.57.47s-.02.11.05.11c.11,0,.13-.15.14-.22-.09,0-.16,0-.19.12m.33.08s-.01.09-.02.13h-.18v-.09s0,0,0,0c-.05.07-.12.1-.2.1-.13,0-.16-.1-.13-.21.05-.22.22-.24.4-.23v-.05c.02-.06.02-.1-.04-.1s-.08.05-.09.1h-.19c.02-.08.05-.14.1-.17.05-.03.12-.05.19-.05.24,0,.25.1.22.23l-.07.34h0Zm.75-.31c.02-.1,0-.14-.06-.14-.08,0-.1.07-.13.21-.05.21-.04.25.03.25.06,0,.1-.05.12-.14h.19c-.04.19-.16.26-.33.26-.24,0-.24-.15-.2-.36.04-.19.1-.34.35-.34.17,0,.26.08.22.26h-.19m1.04.23s-.02.11.05.11c.11,0,.13-.15.14-.22-.09,0-.16,0-.19.12m.33.08s-.01.09-.02.13h-.18v-.09s0,0,0,0c-.05.07-.12.1-.2.1-.13,0-.16-.1-.13-.21.05-.22.22-.24.4-.23v-.05c.02-.06.02-.1-.04-.1s-.08.05-.09.1h-.19c.02-.08.05-.14.1-.17.05-.03.12-.05.19-.05.24,0,.25.1.22.23l-.07.34h0Zm.42-.48h0c.05-.06.11-.08.18-.08.09,0,.16.05.14.15l-.12.54h-.19l.1-.47c.01-.06.01-.11-.05-.11s-.08.05-.09.11l-.1.47h-.19l.14-.68h.19v.07m.58.48c.07,0,.09-.07.12-.21.03-.15.04-.24-.03-.24s-.09.05-.14.26c-.01.07-.05.19.04.19m.38-.55l-.15.71s-.05.23-.31.23c-.14,0-.26-.04-.22-.2h.19s0,.05,0,.07c0,.02.03.03.06.03.05,0,.08-.05.09-.11l.03-.13h0c-.04.05-.1.08-.16.08-.21,0-.16-.19-.13-.34.03-.15.07-.34.27-.34.07,0,.12.03.13.09h0l.02-.08h.18Zm.64.07h0c.05-.06.11-.08.18-.08.09,0,.16.05.14.15l-.12.54h-.19l.1-.47c.01-.06.01-.11-.05-.11s-.08.05-.09.11l-.1.47h-.19l.14-.68h.19v.07m.59.48c.07,0,.09-.07.12-.21.03-.15.04-.24-.02-.24-.07,0-.09.05-.14.26-.02.07-.05.19.04.19m.38-.55l-.15.71s-.05.23-.31.23c-.14,0-.26-.04-.22-.2h.19s0,.05,0,.07c0,.02.03.03.06.03.05,0,.08-.05.09-.11l.03-.13h0c-.04.05-.1.08-.16.08-.21,0-.16-.19-.13-.34.03-.15.07-.34.27-.34.07,0,.12.03.13.09h0l.02-.08h.18Zm.3,0h.19l-.02.51h0l.23-.51h.2v.51h0l.21-.51h.18l-.32.68h-.2l-.02-.45h-.01l-.23.45h-.2l-.02-.68m1.32.32c.03-.14.04-.21-.04-.21-.08,0-.1.07-.13.21-.05.21-.04.25.03.25s.09-.05.14-.25m-.37.01c.04-.19.1-.34.35-.34s.24.16.2.34c-.05.21-.11.36-.35.36s-.24-.15-.2-.36h0Zm.9-.33l-.02.09h0c.05-.08.12-.1.2-.1l-.04.17c-.17-.01-.19.09-.2.15l-.08.37h-.19l.14-.68h.18m-5.85-.02c-.07,0-.13.02-.18.08h0l.07-.33h-.19l-.2.94h.19l.1-.47c.01-.06.03-.11.09-.11s.06.05.05.11l-.1.47h.19l.12-.54c.02-.09-.05-.15-.14-.15m6.16-.25l-.2.94h.19l.2-.94h-.19m.5.59c-.04.17-.06.24-.13.24-.07,0-.07-.07-.03-.24.03-.14.05-.23.13-.23.08,0,.06.09.03.23m.13-.59l-.07.33h0c-.02-.06-.07-.08-.14-.08-.19,0-.23.21-.26.35-.03.14-.08.36.11.36.07,0,.13-.02.18-.09h0l-.02.07h.18l.2-.94h-.19Z"/></g><rect class="cls-17" x="698.03" y="150.68" width="1.2" height="15.01"/></g></svg>