<svg id="Layer_1" data-name="Layer 1" xmlns="http://www.w3.org/2000/svg" xmlns:xlink="http://www.w3.org/1999/xlink" viewBox="0 0 253.83 274.92"><defs><clipPath id="clip-path"><rect width="253.83" height="274.92" rx="5" style="fill:none"/></clipPath></defs><g style="clip-path:url(#clip-path)"><rect width="253.83" height="274.92" style="fill:#a4dbee"/><rect y="132.07" width="253.83" height="142.85" style="fill:#1e95c7"/><path d="M253.83,274.92H0V201.48l47,13.6a287.44,287.44,0,0,0,159.83,0l47-13.6Z" style="fill:#8bc63f"/><path d="M253.83,132.07H0v-57l31.58-9a51.8,51.8,0,0,1,28.71.08l52.59,15.3a51.89,51.89,0,0,0,28.13.24L198.47,66a51.87,51.87,0,0,1,29.62.69l25.74,8.34Z" style="fill:#8bc63f"/><path d="M107.07,182.09v10.48h6.26v2.37h-9.09V182.09Z" style="fill:#fff"/><path d="M121.32,182.09l4.81,12.85H123.2l-1-2.86h-4.8l-1,2.86h-2.84l4.86-12.85Zm.17,7.88-1.62-4.71h0L118.16,190Z" style="fill:#fff"/><path d="M130.07,182.09v5.33l5-5.33h3.53l-5,5.08,5.51,7.77h-3.55l-3.87-5.78-1.62,1.64v4.14h-2.82V182.09Z" style="fill:#fff"/><path d="M149.85,182.09v2.38h-6.78v2.75h6.23v2.2h-6.23v3.15H150v2.37h-9.76V182.09Z" style="fill:#fff"/><path d="M145.73,77a5.78,5.78,0,0,1,1.3.13,2.79,2.79,0,0,1,1,.41,1.85,1.85,0,0,1,.65.76,2.76,2.76,0,0,1,.23,1.18,2.2,2.2,0,0,1-.34,1.26,2.5,2.5,0,0,1-1,.82,2.41,2.41,0,0,1,1.38.93,3,3,0,0,1,.16,2.92,2.46,2.46,0,0,1-.79.9,3.54,3.54,0,0,1-1.13.52,5.23,5.23,0,0,1-1.31.17H141V77Zm-.28,4a1.66,1.66,0,0,0,1-.28,1.06,1.06,0,0,0,.37-.91,1.22,1.22,0,0,0-.12-.58,1,1,0,0,0-.34-.35,1.44,1.44,0,0,0-.48-.17,2.63,2.63,0,0,0-.57,0h-2.06V81Zm.13,4.24a2.43,2.43,0,0,0,.61-.07,1.42,1.42,0,0,0,.52-.21,1,1,0,0,0,.36-.39,1.53,1.53,0,0,0,.13-.65,1.3,1.3,0,0,0-.44-1.1,1.82,1.82,0,0,0-1.14-.33h-2.4v2.75Z" style="fill:#414042"/><path d="M150.71,81.78a3.33,3.33,0,0,1,1.93-2,4.56,4.56,0,0,1,3.09,0,3.59,3.59,0,0,1,1.19.77,3.64,3.64,0,0,1,.75,1.21,4.7,4.7,0,0,1,0,3.14,3.49,3.49,0,0,1-.75,1.2,3.42,3.42,0,0,1-1.19.76,4.56,4.56,0,0,1-3.09,0,3.34,3.34,0,0,1-1.17-.76,3.37,3.37,0,0,1-.76-1.2,4.87,4.87,0,0,1,0-3.14Zm1.81,2.42a2.2,2.2,0,0,0,.29.74,1.5,1.5,0,0,0,.53.53,2,2,0,0,0,1.69,0,1.55,1.55,0,0,0,.55-.53,2.43,2.43,0,0,0,.29-.74,4.71,4.71,0,0,0,.08-.85,4.8,4.8,0,0,0-.08-.85,2.33,2.33,0,0,0-.29-.74,1.64,1.64,0,0,0-.55-.53,1.89,1.89,0,0,0-1.69,0,1.58,1.58,0,0,0-.53.53,2.12,2.12,0,0,0-.29.74,4,4,0,0,0-.09.85A4,4,0,0,0,152.52,84.2Z" style="fill:#414042"/><path d="M164.12,87V86h0a2.25,2.25,0,0,1-1,.91,3,3,0,0,1-1.23.28,3.49,3.49,0,0,1-1.31-.21,1.82,1.82,0,0,1-.8-.6,2.25,2.25,0,0,1-.42-.94,5.67,5.67,0,0,1-.12-1.22V79.73h2v4.09a2.58,2.58,0,0,0,.28,1.33,1.08,1.08,0,0,0,1,.44,1.37,1.37,0,0,0,1.17-.48,2.62,2.62,0,0,0,.37-1.59V79.73h2V87Z" style="fill:#414042"/><path d="M170.2,89.12a2.89,2.89,0,0,1-1.6.38l-.6,0-.61,0V87.79l.57.06a3.88,3.88,0,0,0,.59,0,.78.78,0,0,0,.58-.31,1,1,0,0,0,.19-.58,1.13,1.13,0,0,0-.09-.45l-2.53-6.79h2.11l1.64,5h0l1.58-5h2.06l-3,8.13A2.48,2.48,0,0,1,170.2,89.12Z" style="fill:#414042"/><path d="M157.11,108.53h0a3.55,3.55,0,0,1,3.55,3.55v4.18a0,0,0,0,1,0,0h-7.1a0,0,0,0,1,0,0v-4.18A3.55,3.55,0,0,1,157.11,108.53Z" style="fill:#bd3a39"/><path d="M152.06,116.26h10.11a.55.55,0,0,1,.55.55v.79a0,0,0,0,1,0,0h-11.2a0,0,0,0,1,0,0v-.79A.55.55,0,0,1,152.06,116.26Z" style="fill:#d2d0d0"/><rect x="149.11" y="117.61" width="16.01" height="4.02" rx="0.55" style="fill:#f26a6c"/><polygon points="152.18 136.89 163.88 144.51 164.81 148.13 151.51 139.62 152.18 136.89" style="fill:#bd3a39"/><polygon points="161.94 136.89 150.37 144.21 149.41 148.13 162.71 139.92 161.94 136.89" style="fill:#bd3a39"/><polygon points="152.14 121.63 144.01 153.5 148.08 153.5 155.06 125.26 155.06 153.5 159 153.5 159 125.42 166.18 153.5 170.21 153.5 162 121.63 152.14 121.63" style="fill:#f26a6c"/><path d="M170.16,162.19a15.59,15.59,0,0,0,2.62-8.69H141.43a15.78,15.78,0,0,0,1.21,6.05l1.09,0a107.33,107.33,0,0,1,26.43,2.67Z" style="fill:#d2d2d1"/><polygon points="157.09 103.42 162.96 92.53 151.22 92.53 157.09 103.42" style="fill:#414042"/></g></svg>