<svg id="Layer_1" data-name="Layer 1" xmlns="http://www.w3.org/2000/svg" xmlns:xlink="http://www.w3.org/1999/xlink" viewBox="0 0 253.83 274.92"><defs><clipPath id="clip-path"><rect width="253.83" height="274.92" rx="5" style="fill:none"/></clipPath></defs><g style="clip-path:url(#clip-path)"><rect y="25.43" width="253.83" height="249.49" style="fill:#8bc63f"/><path d="M41.67,136.1a1.58,1.58,0,0,0,.48.57,2.2,2.2,0,0,0,.71.32,3.34,3.34,0,0,0,.84.11,5,5,0,0,0,.63,0,2.7,2.7,0,0,0,.63-.19,1.33,1.33,0,0,0,.49-.39,1,1,0,0,0,.19-.62.86.86,0,0,0-.26-.66,2,2,0,0,0-.67-.42,6.84,6.84,0,0,0-1-.29l-1.08-.28a10.56,10.56,0,0,1-1.09-.34,3.81,3.81,0,0,1-.95-.53,2.4,2.4,0,0,1-.68-.8,2.52,2.52,0,0,1-.26-1.17A2.61,2.61,0,0,1,40,130a3.13,3.13,0,0,1,.86-1,4.07,4.07,0,0,1,1.21-.56,5.15,5.15,0,0,1,1.34-.18,6.24,6.24,0,0,1,1.51.18,3.7,3.7,0,0,1,1.28.56,3,3,0,0,1,.89,1,3,3,0,0,1,.32,1.47H45.31a1.91,1.91,0,0,0-.19-.74,1.19,1.19,0,0,0-.43-.46,1.94,1.94,0,0,0-.61-.24,3.54,3.54,0,0,0-.75-.07,2.46,2.46,0,0,0-.53.06,1.27,1.27,0,0,0-.48.19,1.2,1.2,0,0,0-.36.35,1,1,0,0,0-.14.53,1,1,0,0,0,.11.48,1.1,1.1,0,0,0,.44.34,6,6,0,0,0,.91.3l1.52.4a6.42,6.42,0,0,1,.78.2,3.71,3.71,0,0,1,1,.47,2.88,2.88,0,0,1,.84.86,2.44,2.44,0,0,1,.36,1.38,3,3,0,0,1-.27,1.27,2.76,2.76,0,0,1-.79,1,3.88,3.88,0,0,1-1.3.66,6.13,6.13,0,0,1-1.8.24,6.55,6.55,0,0,1-1.6-.2,4,4,0,0,1-1.37-.64,3.2,3.2,0,0,1-1-1.11,3.3,3.3,0,0,1-.33-1.59h2.12A1.72,1.72,0,0,0,41.67,136.1Z" style="fill:#414042"/><path d="M52.84,131.33v1.33H51.38v3.58a1,1,0,0,0,.17.67.93.93,0,0,0,.67.17h.32l.3,0v1.54l-.56.05-.6,0a5,5,0,0,1-.88-.07,2.09,2.09,0,0,1-.73-.24,1.29,1.29,0,0,1-.49-.52,1.85,1.85,0,0,1-.19-.88v-4.27h-1.2v-1.33h1.2v-2.17h2v2.17Z" style="fill:#414042"/><path d="M55.68,131.33v1.34h0a2.35,2.35,0,0,1,.38-.62,2.5,2.5,0,0,1,.54-.49,2.87,2.87,0,0,1,.66-.32,2.53,2.53,0,0,1,.73-.11,1.82,1.82,0,0,1,.43.07v1.85l-.33-.05-.38,0a2.17,2.17,0,0,0-.93.18,1.55,1.55,0,0,0-.6.5,1.81,1.81,0,0,0-.33.73,3.79,3.79,0,0,0-.1.91v3.27h-2v-7.24Z" style="fill:#414042"/><path d="M61.11,136.83a2.06,2.06,0,0,0,2.33.13,1.27,1.27,0,0,0,.53-.63h1.75a3.33,3.33,0,0,1-1.29,1.86,3.83,3.83,0,0,1-2.1.56,4.18,4.18,0,0,1-1.54-.27,3.39,3.39,0,0,1-1.16-.78,3.61,3.61,0,0,1-.74-1.21,4.44,4.44,0,0,1-.26-1.54,4.17,4.17,0,0,1,.27-1.51,3.6,3.6,0,0,1,.76-1.21,3.34,3.34,0,0,1,1.17-.8,3.65,3.65,0,0,1,1.5-.3,3.41,3.41,0,0,1,1.61.36,3.29,3.29,0,0,1,1.13,1,4,4,0,0,1,.63,1.37,5,5,0,0,1,.14,1.61H60.62A2,2,0,0,0,61.11,136.83ZM63.36,133a1.41,1.41,0,0,0-1.09-.39,1.71,1.71,0,0,0-.79.16,1.55,1.55,0,0,0-.5.4,1.44,1.44,0,0,0-.27.5,2.48,2.48,0,0,0-.09.48h3.24A2.36,2.36,0,0,0,63.36,133Z" style="fill:#414042"/><path d="M66.94,133.55a2.21,2.21,0,0,1,.35-1.16,2.3,2.3,0,0,1,.78-.74,3.34,3.34,0,0,1,1.07-.4,6.11,6.11,0,0,1,1.2-.12,8.26,8.26,0,0,1,1.1.08,3.34,3.34,0,0,1,1,.3,2.07,2.07,0,0,1,.75.62,1.73,1.73,0,0,1,.3,1.06V137a9.16,9.16,0,0,0,0,.93,1.67,1.67,0,0,0,.2.68h-2a2.25,2.25,0,0,1-.09-.35c0-.11,0-.23,0-.35a2.65,2.65,0,0,1-1.12.68,4.53,4.53,0,0,1-1.31.2,3.35,3.35,0,0,1-1-.13,2,2,0,0,1-.78-.39,1.84,1.84,0,0,1-.53-.67,2.36,2.36,0,0,1-.19-1,2,2,0,0,1,.22-1,1.75,1.75,0,0,1,.56-.64,2.53,2.53,0,0,1,.78-.36c.3-.08.59-.14.89-.19l.88-.11a6.61,6.61,0,0,0,.77-.12,1.36,1.36,0,0,0,.54-.25.54.54,0,0,0,.18-.47,1.07,1.07,0,0,0-.11-.51.78.78,0,0,0-.28-.29,1,1,0,0,0-.4-.14,2.67,2.67,0,0,0-.5,0,1.55,1.55,0,0,0-.92.25,1.13,1.13,0,0,0-.4.84ZM71.53,135a.83.83,0,0,1-.32.18,2.34,2.34,0,0,1-.4.1,3.4,3.4,0,0,1-.46.07l-.47.07a3.17,3.17,0,0,0-.44.12,1,1,0,0,0-.38.19.76.76,0,0,0-.26.3.9.9,0,0,0-.1.46.88.88,0,0,0,.1.45.7.7,0,0,0,.26.28,1.28,1.28,0,0,0,.4.15,2.32,2.32,0,0,0,.46,0,1.79,1.79,0,0,0,.91-.19,1.32,1.32,0,0,0,.47-.47,1.33,1.33,0,0,0,.19-.56,2.73,2.73,0,0,0,0-.44Z" style="fill:#414042"/><path d="M77,131.33v1h0a2.88,2.88,0,0,1,.94-.87,2.62,2.62,0,0,1,1.27-.31,2.86,2.86,0,0,1,1.25.27,1.74,1.74,0,0,1,.86.94,3.08,3.08,0,0,1,.88-.84,2.27,2.27,0,0,1,1.31-.37,4,4,0,0,1,1.06.14,2.26,2.26,0,0,1,.84.45,2.08,2.08,0,0,1,.55.81,3.27,3.27,0,0,1,.19,1.19v4.85h-2v-4.11c0-.24,0-.47,0-.68a1.36,1.36,0,0,0-.16-.56.9.9,0,0,0-.37-.38,1.35,1.35,0,0,0-.66-.14,1.25,1.25,0,0,0-.68.16,1.18,1.18,0,0,0-.41.42,1.79,1.79,0,0,0-.2.59,4.87,4.87,0,0,0,0,.66v4h-2v-4.06c0-.22,0-.43,0-.64a1.81,1.81,0,0,0-.12-.58.82.82,0,0,0-.35-.43,1.28,1.28,0,0,0-.72-.16,1.62,1.62,0,0,0-.37.06,1.41,1.41,0,0,0-.45.24,1.6,1.6,0,0,0-.37.51,2,2,0,0,0-.15.86v4.2h-2v-7.24Z" style="fill:#414042"/><path d="M97.76,138.49a3.65,3.65,0,0,1-1.44.3,5,5,0,0,1-2.06-.4,4.33,4.33,0,0,1-1.55-1.1,4.88,4.88,0,0,1-1-1.64,6.15,6.15,0,0,1-.33-2,6.34,6.34,0,0,1,.33-2.08,5,5,0,0,1,1-1.67,4.38,4.38,0,0,1,1.55-1.12,5.05,5.05,0,0,1,2.06-.41,5,5,0,0,1,1.49.23,4.41,4.41,0,0,1,1.31.68,3.78,3.78,0,0,1,.95,1.11,3.67,3.67,0,0,1,.47,1.51h-2.1a2.12,2.12,0,0,0-.76-1.26,2.2,2.2,0,0,0-1.36-.42,2.61,2.61,0,0,0-1.26.29,2.48,2.48,0,0,0-.84.77,3.52,3.52,0,0,0-.47,1.1,5.88,5.88,0,0,0-.14,1.27,5.59,5.59,0,0,0,.14,1.23,3.56,3.56,0,0,0,.47,1.07,2.56,2.56,0,0,0,.84.76,2.61,2.61,0,0,0,1.26.29A2.39,2.39,0,0,0,98,136.4a2.36,2.36,0,0,0,.69-1.6H96.49v-1.64h4.2v5.41h-1.4l-.22-1.14A3.29,3.29,0,0,1,97.76,138.49Z" style="fill:#414042"/><path d="M102.17,133.55a2.41,2.41,0,0,1,.35-1.16,2.43,2.43,0,0,1,.79-.74,3.26,3.26,0,0,1,1.07-.4,6,6,0,0,1,1.2-.12,8.26,8.26,0,0,1,1.1.08,3.28,3.28,0,0,1,1,.3,2.1,2.1,0,0,1,.76.62,1.73,1.73,0,0,1,.29,1.06V137a6.92,6.92,0,0,0,.06.93,1.67,1.67,0,0,0,.2.68h-2a2.25,2.25,0,0,1-.09-.35,2,2,0,0,1-.05-.35,2.65,2.65,0,0,1-1.12.68,4.54,4.54,0,0,1-1.32.2,3.32,3.32,0,0,1-1-.13,2.17,2.17,0,0,1-.79-.39,1.81,1.81,0,0,1-.52-.67,2.21,2.21,0,0,1-.19-1,2,2,0,0,1,.22-1,1.75,1.75,0,0,1,.56-.64,2.53,2.53,0,0,1,.78-.36,8.79,8.79,0,0,1,.89-.19l.88-.11a6.61,6.61,0,0,0,.77-.12,1.31,1.31,0,0,0,.53-.25.57.57,0,0,0,.19-.47,1.07,1.07,0,0,0-.11-.51.78.78,0,0,0-.28-.29,1,1,0,0,0-.41-.14,2.49,2.49,0,0,0-.49,0,1.6,1.6,0,0,0-.93.25,1.15,1.15,0,0,0-.39.84Zm4.6,1.47a.83.83,0,0,1-.32.18,2.24,2.24,0,0,1-.41.1,3,3,0,0,1-.45.07l-.48.07a3.6,3.6,0,0,0-.44.12,1.23,1.23,0,0,0-.38.19.82.82,0,0,0-.25.3.9.9,0,0,0-.1.46.88.88,0,0,0,.1.45.7.7,0,0,0,.26.28,1.13,1.13,0,0,0,.39.15,2.42,2.42,0,0,0,.47,0,1.79,1.79,0,0,0,.91-.19,1.32,1.32,0,0,0,.47-.47,1.49,1.49,0,0,0,.19-.56c0-.18,0-.33,0-.44Z" style="fill:#414042"/><path d="M117.13,139.1a2.47,2.47,0,0,1-.51,1,3,3,0,0,1-1.13.82,5,5,0,0,1-2,.34,4.66,4.66,0,0,1-1.09-.14,3.4,3.4,0,0,1-1-.41,2.49,2.49,0,0,1-.76-.72,2.11,2.11,0,0,1-.34-1.06h2a1.13,1.13,0,0,0,.55.78,2,2,0,0,0,.94.22,1.43,1.43,0,0,0,1.22-.51,1.94,1.94,0,0,0,.37-1.27v-.95h0a2,2,0,0,1-.91.84,2.9,2.9,0,0,1-1.26.28,3.21,3.21,0,0,1-1.4-.29,2.63,2.63,0,0,1-1-.78,3.24,3.24,0,0,1-.55-1.17,5.32,5.32,0,0,1-.18-1.4,4.64,4.64,0,0,1,.2-1.35,3.59,3.59,0,0,1,.6-1.15,2.77,2.77,0,0,1,1-.79,2.88,2.88,0,0,1,1.34-.3,2.77,2.77,0,0,1,1.25.27,2.14,2.14,0,0,1,.9.89h0v-1h1.89v6.77A4.83,4.83,0,0,1,117.13,139.1Zm-2.72-2.41a1.54,1.54,0,0,0,.53-.45,2,2,0,0,0,.32-.63,2.66,2.66,0,0,0,.1-.75,4.63,4.63,0,0,0-.08-.85,2.24,2.24,0,0,0-.28-.71,1.53,1.53,0,0,0-.52-.49,1.67,1.67,0,0,0-.81-.18,1.47,1.47,0,0,0-.72.17,1.57,1.57,0,0,0-.51.45,2,2,0,0,0-.29.66,3.33,3.33,0,0,0-.09.78,4.11,4.11,0,0,0,.07.78,2.31,2.31,0,0,0,.27.69,1.59,1.59,0,0,0,.5.5,1.4,1.4,0,0,0,.77.2A1.58,1.58,0,0,0,114.41,136.69Z" style="fill:#414042"/><path d="M121,136.83a1.74,1.74,0,0,0,1.28.43,1.79,1.79,0,0,0,1-.3,1.22,1.22,0,0,0,.53-.63h1.75a3.33,3.33,0,0,1-1.29,1.86,3.83,3.83,0,0,1-2.1.56,4.18,4.18,0,0,1-1.54-.27,3.49,3.49,0,0,1-1.16-.78,3.44,3.44,0,0,1-.73-1.21,4.22,4.22,0,0,1-.26-1.54,4.39,4.39,0,0,1,.26-1.51,3.6,3.6,0,0,1,.76-1.21,3.53,3.53,0,0,1,1.17-.8,3.65,3.65,0,0,1,1.5-.3,3.39,3.39,0,0,1,1.61.36,3.2,3.2,0,0,1,1.13,1,4,4,0,0,1,.64,1.37,5,5,0,0,1,.14,1.61h-5.22A2,2,0,0,0,121,136.83Zm2.24-3.81a1.4,1.4,0,0,0-1.08-.39,1.68,1.68,0,0,0-.79.16,1.43,1.43,0,0,0-.77.9,2.48,2.48,0,0,0-.09.48h3.23A2.27,2.27,0,0,0,123.22,133Z" style="fill:#414042"/><polygon points="139.8 135.15 128.91 129.28 128.91 141.01 139.8 135.15" style="fill:#414042"/><rect y="165.69" width="253.83" height="109.23" style="fill:#1e95c7"/><rect y="157.84" width="253.83" height="7.84" style="fill:#603913"/><rect width="253.83" height="77.29" style="fill:#a4dbee"/><path d="M108.43,211.11a4.25,4.25,0,0,1,1.56.28,3.59,3.59,0,0,1,1.19.77,3.42,3.42,0,0,1,.76,1.12,3.72,3.72,0,0,1,.26,1.38,3.85,3.85,0,0,1-.48,2,3,3,0,0,1-1.56,1.26v0a2.1,2.1,0,0,1,.87.44,2.51,2.51,0,0,1,.55.7,3.25,3.25,0,0,1,.32.89,8.06,8.06,0,0,1,.13,1c0,.21,0,.45,0,.72s0,.56.06.85a5.18,5.18,0,0,0,.15.82,1.76,1.76,0,0,0,.29.65h-2.82a4.9,4.9,0,0,1-.29-1.45c0-.57-.09-1.11-.16-1.62a2.57,2.57,0,0,0-.61-1.48,2.14,2.14,0,0,0-1.53-.47h-2.83v5H101.5V211.11Zm-1,5.82a2.11,2.11,0,0,0,1.45-.44,1.75,1.75,0,0,0,.49-1.4,1.7,1.7,0,0,0-.49-1.36,2.16,2.16,0,0,0-1.45-.42h-3.1v3.62Z" style="fill:#fff"/><path d="M117.33,211.11V224H114.5V211.11Z" style="fill:#fff"/><path d="M122.6,224l-4.16-12.85h2.9l2.86,9h0l2.9-9h2.91L125.79,224Z" style="fill:#fff"/><path d="M140.76,211.11v2.38H134v2.75h6.22v2.2H134v3.15h6.93V224h-9.76V211.11Z" style="fill:#fff"/><path d="M149.74,211.11a4.25,4.25,0,0,1,1.56.28,3.59,3.59,0,0,1,1.19.77,3.25,3.25,0,0,1,.75,1.12,3.54,3.54,0,0,1,.27,1.38,3.85,3.85,0,0,1-.48,2,3,3,0,0,1-1.56,1.26v0a2.1,2.1,0,0,1,.87.44,2.51,2.51,0,0,1,.55.7,3.25,3.25,0,0,1,.32.89,8.06,8.06,0,0,1,.13,1c0,.21,0,.45,0,.72s0,.56.06.85a5.18,5.18,0,0,0,.15.82,1.76,1.76,0,0,0,.29.65h-2.82a4.9,4.9,0,0,1-.29-1.45c0-.57-.09-1.11-.16-1.62a2.57,2.57,0,0,0-.61-1.48,2.14,2.14,0,0,0-1.53-.47h-2.83v5h-2.83V211.11Zm-1,5.82a2.11,2.11,0,0,0,1.45-.44,1.75,1.75,0,0,0,.49-1.4,1.7,1.7,0,0,0-.49-1.36,2.16,2.16,0,0,0-1.45-.42h-3.1v3.62Z" style="fill:#fff"/><rect y="91.5" width="253.83" height="10.59" style="fill:#37813f"/><path d="M153.93,114.88h1.3a2,2,0,0,1,2,2v48.81a0,0,0,0,1,0,0h-5.3a0,0,0,0,1,0,0V116.88A2,2,0,0,1,153.93,114.88Z" style="fill:#a97c50"/><polygon points="196.34 32.77 169.62 95.39 223.07 95.39 196.34 32.77" style="fill:#2a6432"/><polygon points="176.36 45.1 154.9 95.39 197.82 95.39 176.36 45.1" style="fill:#2a6432"/><polyline points="253.83 95.39 209.37 95.39 236.09 32.77 253.83 74.33 253.83 95.39" style="fill:#2a6432"/><polygon points="154.18 32.77 127.46 95.39 180.91 95.39 154.18 32.77" style="fill:#2a6432"/><polygon points="107.63 32.77 80.9 95.39 134.35 95.39 107.63 32.77" style="fill:#2a6432"/><polygon points="77.05 43.49 54.9 95.39 99.2 95.39 77.05 43.49" style="fill:#2a6432"/><polyline points="0 91.85 35.47 91.85 13.24 39.75 0 70.78 0 91.5" style="fill:#2a6432"/><polygon points="45.44 29.22 18.71 91.85 72.16 91.85 45.44 29.22" style="fill:#2a6432"/><polygon points="149.63 60.53 131.9 102.09 167.37 102.09 149.63 60.53" style="fill:#377e3d"/><rect x="143.83" y="119.62" width="21.95" height="31.06" rx="2" style="fill:#e6e7e8"/><path d="M161,93.31h.85a.79.79,0,0,1,.79.79v25.52a0,0,0,0,1,0,0H160.2a0,0,0,0,1,0,0V94.1A.79.79,0,0,1,161,93.31Z" style="fill:#d1d3d4"/><polygon points="126.48 47.85 103.33 102.09 149.63 102.09 126.48 47.85" style="fill:#377e3d"/><polygon points="104.2 60.53 86.46 102.09 121.93 102.09 104.2 60.53" style="fill:#377e3d"/><polygon points="212.94 47.85 189.79 102.09 236.09 102.09 212.94 47.85" style="fill:#377e3d"/><polygon points="190.66 60.53 172.92 102.09 208.39 102.09 190.66 60.53" style="fill:#377e3d"/><polygon points="236.09 60.53 218.36 102.09 253.83 102.09 236.09 60.53" style="fill:#377e3d"/><rect x="165.94" y="84.43" width="1.21" height="14.14" transform="translate(113.48 -90.97) rotate(45)" style="fill:#d1d3d4"/><rect x="154.39" y="96.93" width="14.05" height="8.13" rx="1" style="fill:#e6e7e8"/><rect x="155.44" y="97.92" width="11.96" height="6.14" rx="1" style="fill:#58595b"/><rect x="164.66" y="89.83" width="1.21" height="5.92" rx="0.5" transform="translate(-17.21 144.03) rotate(-45)" style="fill:#d1d3d4"/><rect x="164.66" y="89.83" width="1.21" height="5.92" rx="0.5" style="fill:#d1d3d4"/><rect x="167.62" y="86.87" width="1.21" height="5.92" rx="0.5" transform="translate(-14.25 145.26) rotate(-45)" style="fill:#d1d3d4"/><polygon points="40.02 47.85 16.87 102.09 63.17 102.09 40.02 47.85" style="fill:#377e3d"/><polygon points="17.73 60.53 0 102.09 35.47 102.09 17.73 60.53" style="fill:#377e3d"/><polygon points="63.17 60.53 45.44 102.09 80.9 102.09 63.17 60.53" style="fill:#377e3d"/><rect x="167.62" y="86.87" width="1.21" height="5.92" rx="0.5" style="fill:#d1d3d4"/><rect x="170.58" y="83.9" width="1.21" height="5.92" rx="0.5" transform="translate(-11.28 146.49) rotate(-45)" style="fill:#d1d3d4"/><rect x="170.58" y="83.9" width="1.21" height="5.92" rx="0.5" style="fill:#d1d3d4"/><path d="M154.29,123.41v2.73a1.15,1.15,0,0,1-1.31,1.18c-.88,0-1.31-.46-1.31-1.18v-2.73h.81v2.67c0,.48.2.66.5.66s.51-.23.51-.66v-2.67h.8m1.31,3.91c-1,0-1.18-.59-1.14-1.25h.8c0,.37,0,.68.46.68.27,0,.4-.18.4-.44,0-.69-1.61-.74-1.61-1.88,0-.6.29-1.08,1.26-1.08.79,0,1.18.35,1.12,1.16h-.78c0-.29-.05-.59-.37-.59a.38.38,0,0,0-.42.41c0,.73,1.62.67,1.62,1.88,0,1-.73,1.11-1.34,1.11m5.4,0c-1,0-1.18-.59-1.14-1.25h.81c0,.37,0,.68.45.68a.39.39,0,0,0,.41-.44c0-.69-1.62-.74-1.62-1.88,0-.6.29-1.08,1.27-1.08.78,0,1.17.35,1.12,1.16h-.79c0-.29,0-.59-.37-.59a.38.38,0,0,0-.42.41c0,.73,1.62.67,1.62,1.88,0,1-.73,1.11-1.34,1.11m-2.56-1.49h.48v.84l0,0a1.29,1.29,0,0,1-.4.07c-.45,0-.57-.21-.57-1.41,0-.75,0-1.42.5-1.42s.47.26.48.58h.8a1.09,1.09,0,0,0-1.23-1.16c-1.32,0-1.36,1-1.36,2,0,1.45.15,2,1.51,2a5.27,5.27,0,0,0,1-.13s0,0,0,0v-1.91h-1.24v.58" style="fill:#007251"/><path d="M148.32,124.7h0a.87.87,0,0,0,1.1.08l1.57-1.05v-.33h-3.72v.88a1.22,1.22,0,0,1,1,.41m1.4,1.46-.44-.42-.12-.11a.92.92,0,0,0-.84-.13l-.12.07-.91.61v1.11H151v-.8c-.09.05-.59.33-1.29-.33m-1.43-1.36-.07-.06a.92.92,0,0,0-.94-.13V125l.22-.15a.8.8,0,0,1,.84,0l-.05-.06m.51.49-.06-.05a.89.89,0,0,0-.92-.19l-.11.06-.42.28v.4l.7-.48a.84.84,0,0,1,.84,0l0,0m2.2.42-.35.24a.87.87,0,0,1-1,.06l.06.06.08.07a.89.89,0,0,0,1,0l.11-.08v-.39m0-.79c-.32.21-.75.51-.84.56a.84.84,0,0,1-.94.07l.06.06h0a.9.9,0,0,0,1.11.09l.59-.4v-.39m0-.79c-.46.31-1.22.83-1.31.88a.86.86,0,0,1-.95.08l.06.06.14.11a.86.86,0,0,0,1,0l1.08-.71v-.4" style="fill:#007251"/><path d="M147.47,128.44a.22.22,0,0,0,0,.08s0,0,.07,0a.08.08,0,0,0,.08-.07c0-.14-.31-.11-.26-.33a.29.29,0,0,1,.31-.19c.13,0,.23.07.19.21h-.19s0-.07,0-.09h0a.08.08,0,0,0-.08.07c0,.11.31.11.26.32a.28.28,0,0,1-.29.21c-.17,0-.27,0-.22-.23h.18m.81-.22c0-.1,0-.14-.06-.14s-.1.07-.13.21,0,.25,0,.25.1,0,.12-.14h.19a.31.31,0,0,1-.33.27c-.25,0-.25-.15-.2-.37s.1-.34.35-.34.25.08.22.26h-.19m.59-.51,0,.15h-.19l0-.15h.19m-.2.94h-.19l.15-.67h.19l-.15.67Zm9.07-.94,0,.15h-.19l0-.15h.19m-.2.94h-.19l.14-.67h.19l-.14.67Zm-8.3-.41c0-.07,0-.16-.06-.16s-.11.1-.12.16h.18m-.2.1c0,.09,0,.21,0,.21s.09-.07.11-.12h.19a.28.28,0,0,1-.11.17.32.32,0,0,1-.22.07c-.24,0-.24-.15-.19-.36s.09-.35.35-.35.24.17.19.39Zm.72-.3h0a.22.22,0,0,1,.18-.08c.09,0,.16,0,.14.15l-.12.54h-.19l.1-.46c0-.06,0-.11-.05-.11s-.08,0-.09.11l-.1.46h-.19l.14-.67h.19V128m.75.18c0-.1,0-.14-.06-.14s-.1.07-.13.21,0,.25,0,.25.1,0,.12-.14h.19a.31.31,0,0,1-.33.27c-.25,0-.25-.15-.2-.37s.1-.34.35-.34.25.08.22.26h-.19m.63,0c0-.07,0-.16-.06-.16s-.1.1-.12.16h.18m-.2.1c0,.09,0,.21.05.21s.09-.07.1-.12h.2a.34.34,0,0,1-.11.17.32.32,0,0,1-.22.07c-.24,0-.24-.15-.2-.36s.1-.35.35-.35.25.17.2.39Zm1.16-.51a.1.1,0,0,0-.11.09v0h.09l0,.12H152l-.12.56h-.19l.12-.56h-.09l0-.12h.08c0-.17.07-.26.28-.26h.06l0,.12m.31.46c0-.14,0-.21,0-.21s-.1.07-.13.21,0,.26,0,.26.09-.05.14-.26m-.37,0c0-.19.1-.35.35-.35s.25.16.21.35-.11.36-.36.36-.24-.15-.2-.36Zm.89-.34v.09h0a.21.21,0,0,1,.2-.1l0,.17a.17.17,0,0,0-.2.15l-.08.37h-.19l.15-.68h.17m.58.47c0,.05,0,.11,0,.11s.13-.15.14-.22-.16,0-.18.11m.33.09s0,.08,0,.12h-.18l0-.09h0a.23.23,0,0,1-.2.11c-.13,0-.16-.1-.13-.22s.22-.23.4-.23v-.05c0-.06,0-.1,0-.1s-.08.05-.09.1h-.19c0-.08,0-.14.1-.16a.3.3,0,0,1,.19,0c.24,0,.25.1.22.23l-.07.34Zm.75-.31c0-.1,0-.14-.06-.14s-.1.07-.13.21,0,.25,0,.25.1,0,.12-.14h.19a.31.31,0,0,1-.34.27c-.24,0-.24-.15-.19-.37s.09-.34.35-.34.25.08.21.26h-.18m1,.22c0,.05,0,.11,0,.11s.13-.15.15-.22-.17,0-.19.11m.33.09s0,.08,0,.12h-.17v-.09h0a.23.23,0,0,1-.19.11c-.14,0-.17-.1-.14-.22s.23-.23.4-.23l0-.05c0-.06,0-.1-.06-.1s-.08.05-.09.1h-.19a.22.22,0,0,1,.11-.16.26.26,0,0,1,.18,0c.24,0,.25.1.22.23l-.07.34Zm.42-.49h0a.21.21,0,0,1,.18-.08c.09,0,.15,0,.13.15l-.11.54h-.19l.1-.46c0-.06,0-.11-.05-.11s-.08,0-.1.11l-.1.46h-.19l.15-.67h.19V128m.59.49c.07,0,.1-.07.12-.22s0-.23,0-.23-.1,0-.14.25-.05.2,0,.2m.38-.55-.14.7a.28.28,0,0,1-.31.23c-.14,0-.26,0-.22-.2h.18v.07a.06.06,0,0,0,.06,0c.05,0,.08,0,.1-.11l0-.13h0a.21.21,0,0,1-.16.08c-.21,0-.16-.19-.13-.35s.07-.34.27-.34a.11.11,0,0,1,.13.1h0V128Zm.64.06h0a.22.22,0,0,1,.18-.08c.09,0,.16,0,.14.15l-.12.54H158l.1-.46c0-.06,0-.11,0-.11s-.08,0-.09.11l-.1.46h-.19l.14-.67H158V128m.6.49c.07,0,.09-.07.12-.22s0-.23,0-.23-.1,0-.14.25-.05.2,0,.2M159,128l-.15.7s0,.23-.3.23-.26,0-.22-.2h.18s0,.06,0,.07a.06.06,0,0,0,.06,0s.08,0,.09-.11l0-.13h0a.21.21,0,0,1-.16.08c-.21,0-.16-.19-.13-.35s.07-.34.27-.34a.11.11,0,0,1,.13.1h0l0-.08Zm.3,0h.19l0,.51h0l.22-.51h.21v.51h0l.2-.51h.18l-.32.67h-.2l0-.45h0l-.23.45h-.2l0-.67m1.32.31c0-.14,0-.21,0-.21s-.1.07-.13.21,0,.26,0,.26.1-.05.14-.26m-.37,0c0-.19.1-.35.35-.35s.25.16.21.35-.11.36-.36.36-.24-.15-.2-.36Zm.91-.33,0,.08h0a.23.23,0,0,1,.2-.1l0,.17c-.16,0-.18.09-.2.16l-.08.36h-.19L161,128h.18m-5.85,0a.19.19,0,0,0-.17.08h0l.07-.33H155l-.2.94H155l.1-.46c0-.06,0-.11.1-.11s.06,0,.05.11l-.1.46h.19l.11-.54c0-.1,0-.15-.14-.15m6.17-.25-.2.94h.19l.2-.94h-.19m.5.6c0,.17-.06.24-.13.24s-.06-.07,0-.24.05-.23.13-.23.06.09,0,.23m.13-.6L162,128h0a.12.12,0,0,0-.13-.08c-.19,0-.23.21-.26.35s-.09.36.11.36a.23.23,0,0,0,.18-.09h0l0,.07h.18l.2-.94Z" style="fill:#007251"/><rect x="159.86" y="150.68" width="1.2" height="15.01" style="fill:#6d6e71"/></g></svg>