<svg id="Layer_1" data-name="Layer 1" xmlns="http://www.w3.org/2000/svg" xmlns:xlink="http://www.w3.org/1999/xlink" viewBox="0 0 253.83 274.92"><defs><clipPath id="clip-path"><rect width="253.83" height="274.92" rx="5" style="fill:none"/></clipPath></defs><g style="clip-path:url(#clip-path)"><rect y="25.43" width="253.83" height="249.49" style="fill:#ed1c24"/><rect width="253.83" height="274.92" style="fill:#a4dbee"/><rect y="49.84" width="253.83" height="15.31" style="fill:#8bc63f"/><rect y="65.15" width="253.83" height="42.47" style="fill:#603913"/><rect y="105.76" width="253.83" height="44.41" style="fill:#a97c50"/><rect y="150.18" width="253.83" height="80.23" style="fill:#1e95c7"/><rect y="230.41" width="253.83" height="44.51" style="fill:#58595b"/><path d="M94.46,184.14,99.27,197H96.33l-1-2.86H90.55l-1,2.86H86.7l4.86-12.85Zm.16,7.88L93,187.31h0L91.29,192Z" style="fill:#fff"/><path d="M109.26,196.54a6.18,6.18,0,0,1-3.12.74,6.43,6.43,0,0,1-2.65-.52,5.62,5.62,0,0,1-2-1.41,6.1,6.1,0,0,1-1.24-2.11,7.75,7.75,0,0,1-.44-2.62,8.06,8.06,0,0,1,.44-2.68,6.28,6.28,0,0,1,1.24-2.15,5.7,5.7,0,0,1,2-1.44,7.06,7.06,0,0,1,5.32,0,5.85,5.85,0,0,1,2,1.44,6.45,6.45,0,0,1,1.24,2.15,8.32,8.32,0,0,1,.43,2.68,7.94,7.94,0,0,1-.43,2.61,6.51,6.51,0,0,1-1.24,2.12l1.6,1.46-1.32,1.37Zm-.42-3a4.13,4.13,0,0,0,.58-1.21,6.28,6.28,0,0,0,.21-1.74,6.82,6.82,0,0,0-.19-1.64,4.06,4.06,0,0,0-.6-1.41,2.94,2.94,0,0,0-1.08-1,3.73,3.73,0,0,0-3.24,0,3.08,3.08,0,0,0-1.08,1,4.45,4.45,0,0,0-.6,1.41,6.88,6.88,0,0,0-.19,1.64,6.31,6.31,0,0,0,.19,1.57,4.14,4.14,0,0,0,.6,1.37,3.08,3.08,0,0,0,1.08,1,3.23,3.23,0,0,0,1.62.37,6,6,0,0,0,.69,0,1.91,1.91,0,0,0,.45-.13l-1.21-1.1,1.31-1.4Z" style="fill:#fff"/><path d="M123.83,196a7.07,7.07,0,0,1-8.07,0,4.94,4.94,0,0,1-1.43-3.89v-8h2.83v8a5.69,5.69,0,0,0,.09,1,2.12,2.12,0,0,0,.37.9,2.28,2.28,0,0,0,.81.63,3.27,3.27,0,0,0,1.37.24,2.64,2.64,0,0,0,2.09-.68,3.22,3.22,0,0,0,.58-2.11v-8h2.82v8A4.85,4.85,0,0,1,123.83,196Z" style="fill:#fff"/><path d="M130.55,184.14V197h-2.83V184.14Z" style="fill:#fff"/><path d="M142.07,184.14v2.37h-6.21v3h5.38v2.2h-5.38V197H133V184.14Z" style="fill:#fff"/><path d="M153.32,184.14v2.37h-6.79v2.76h6.23v2.19h-6.23v3.15h6.93V197h-9.75V184.14Z" style="fill:#fff"/><path d="M162.3,184.14a4.05,4.05,0,0,1,1.56.28,3.57,3.57,0,0,1,1.19.76,3.29,3.29,0,0,1,.75,1.13,3.45,3.45,0,0,1,.26,1.37,4,4,0,0,1-.47,2A3,3,0,0,1,164,190.9v0a2.19,2.19,0,0,1,.86.44,2.37,2.37,0,0,1,.56.7,3.55,3.55,0,0,1,.32.9,7.8,7.8,0,0,1,.13,1c0,.2,0,.44,0,.72s0,.56.06.84a6.67,6.67,0,0,0,.14.82,2,2,0,0,0,.3.66h-2.83a5,5,0,0,1-.28-1.46c0-.56-.09-1.1-.17-1.62a2.51,2.51,0,0,0-.61-1.47A2.06,2.06,0,0,0,161,192H158.2v5h-2.83V184.14Zm-1,5.81a2.12,2.12,0,0,0,1.46-.43,1.82,1.82,0,0,0,.49-1.41,1.71,1.71,0,0,0-.49-1.35,2.12,2.12,0,0,0-1.46-.43H158.2V190Z" style="fill:#fff"/><path d="M174.72,44.85,173,38.05h0l-1.67,6.8h-2.22l-2.65-10h2.2l1.58,6.8h0l1.74-6.8h2.05l1.71,6.89h0l1.64-6.89h2.15l-2.68,10Z" style="fill:#414042"/><path d="M181.72,43.12a2.06,2.06,0,0,0,2.33.13,1.24,1.24,0,0,0,.53-.64h1.75A3.36,3.36,0,0,1,185,44.48a3.83,3.83,0,0,1-2.1.56,4.18,4.18,0,0,1-1.54-.28,3.23,3.23,0,0,1-1.16-.77,3.61,3.61,0,0,1-.74-1.21,4.44,4.44,0,0,1-.26-1.54,4.17,4.17,0,0,1,.27-1.51,3.55,3.55,0,0,1,1.93-2,3.82,3.82,0,0,1,1.5-.29,3.41,3.41,0,0,1,1.61.36,3.09,3.09,0,0,1,1.13,1,3.91,3.91,0,0,1,.63,1.37,5,5,0,0,1,.15,1.61h-5.23A2,2,0,0,0,181.72,43.12ZM184,39.31a1.41,1.41,0,0,0-1.09-.39,1.71,1.71,0,0,0-.79.16,1.55,1.55,0,0,0-.5.4,1.53,1.53,0,0,0-.27.5,2.48,2.48,0,0,0-.09.48h3.24A2.32,2.32,0,0,0,184,39.31Z" style="fill:#414042"/><path d="M189.67,34.86v10h-2v-10Z" style="fill:#414042"/><path d="M193.29,34.86v10h-2v-10Z" style="fill:#414042"/><rect x="120.22" y="43.42" width="13.4" height="125.41" style="fill:#d1d3d4"/><rect x="107.61" y="31.59" width="38.6" height="18.16" style="fill:#808285"/><rect x="104.31" y="25.43" width="45.21" height="7.28" rx="0.82" style="fill:#808285"/><polygon points="150.69 39.66 161.58 45.53 161.58 33.8 150.69 39.66" style="fill:#414042"/></g></svg>