<svg id="Layer_1" data-name="Layer 1" xmlns="http://www.w3.org/2000/svg" xmlns:xlink="http://www.w3.org/1999/xlink" viewBox="0 0 792 274.92"><defs><clipPath id="clip-path"><rect width="253.83" height="274.92" rx="5" style="fill:none"/></clipPath><clipPath id="clip-path-2"><rect x="269.09" width="253.83" height="274.92" rx="5" style="fill:none"/></clipPath><clipPath id="clip-path-3"><rect x="538.17" width="253.83" height="274.92" rx="5" style="fill:none"/></clipPath></defs><g style="clip-path:url(#clip-path)"><rect y="25.43" width="253.83" height="249.49" style="fill:#ed1c24"/><rect width="253.83" height="274.92" style="fill:#a4dbee"/><rect y="49.84" width="253.83" height="15.31" style="fill:#8bc63f"/><rect y="65.15" width="253.83" height="42.47" style="fill:#603913"/><rect y="105.76" width="253.83" height="44.41" style="fill:#a97c50"/><rect y="150.18" width="253.83" height="80.23" style="fill:#1e95c7"/><rect y="230.41" width="253.83" height="44.51" style="fill:#58595b"/><path d="M94.46,184.14,99.27,197H96.33l-1-2.86H90.55l-1,2.86H86.7l4.86-12.85Zm.16,7.88L93,187.31h0L91.29,192Z" style="fill:#fff"/><path d="M109.26,196.54a6.18,6.18,0,0,1-3.12.74,6.43,6.43,0,0,1-2.65-.52,5.62,5.62,0,0,1-2-1.41,6.1,6.1,0,0,1-1.24-2.11,7.75,7.75,0,0,1-.44-2.62,8.06,8.06,0,0,1,.44-2.68,6.28,6.28,0,0,1,1.24-2.15,5.7,5.7,0,0,1,2-1.44,7.06,7.06,0,0,1,5.32,0,5.85,5.85,0,0,1,2,1.44,6.45,6.45,0,0,1,1.24,2.15,8.32,8.32,0,0,1,.43,2.68,7.94,7.94,0,0,1-.43,2.61,6.51,6.51,0,0,1-1.24,2.12l1.6,1.46-1.32,1.37Zm-.42-3a4.13,4.13,0,0,0,.58-1.21,6.28,6.28,0,0,0,.21-1.74,6.82,6.82,0,0,0-.19-1.64,4.06,4.06,0,0,0-.6-1.41,2.94,2.94,0,0,0-1.08-1,3.73,3.73,0,0,0-3.24,0,3.08,3.08,0,0,0-1.08,1,4.45,4.45,0,0,0-.6,1.41,6.88,6.88,0,0,0-.19,1.64,6.31,6.31,0,0,0,.19,1.57,4.14,4.14,0,0,0,.6,1.37,3.08,3.08,0,0,0,1.08,1,3.23,3.23,0,0,0,1.62.37,6,6,0,0,0,.69,0,1.91,1.91,0,0,0,.45-.13l-1.21-1.1,1.31-1.4Z" style="fill:#fff"/><path d="M123.83,196a7.07,7.07,0,0,1-8.07,0,4.94,4.94,0,0,1-1.43-3.89v-8h2.83v8a5.69,5.69,0,0,0,.09,1,2,2,0,0,0,.38.9,2.16,2.16,0,0,0,.8.63,3.27,3.27,0,0,0,1.37.24,2.64,2.64,0,0,0,2.09-.68,3.22,3.22,0,0,0,.58-2.11v-8h2.82v8A4.85,4.85,0,0,1,123.83,196Z" style="fill:#fff"/><path d="M130.55,184.14V197h-2.83V184.14Z" style="fill:#fff"/><path d="M142.07,184.14v2.37h-6.21v3h5.38v2.2h-5.38V197H133V184.14Z" style="fill:#fff"/><path d="M153.32,184.14v2.37h-6.79v2.76h6.23v2.19h-6.23v3.15h6.93V197h-9.75V184.14Z" style="fill:#fff"/><path d="M162.3,184.14a4.05,4.05,0,0,1,1.56.28,3.57,3.57,0,0,1,1.19.76,3.29,3.29,0,0,1,.75,1.13,3.45,3.45,0,0,1,.26,1.37,4,4,0,0,1-.47,2A3,3,0,0,1,164,190.9v0a2.19,2.19,0,0,1,.86.44,2.37,2.37,0,0,1,.56.7,3.55,3.55,0,0,1,.32.9,7.8,7.8,0,0,1,.13,1c0,.2,0,.44,0,.72s0,.56.06.84a6.67,6.67,0,0,0,.14.82,2,2,0,0,0,.3.66h-2.83a5,5,0,0,1-.28-1.46c0-.56-.09-1.1-.17-1.62a2.51,2.51,0,0,0-.61-1.47A2.06,2.06,0,0,0,161,192H158.2v5h-2.83V184.14Zm-1,5.81a2.12,2.12,0,0,0,1.46-.43,1.82,1.82,0,0,0,.49-1.41,1.71,1.71,0,0,0-.49-1.35,2.12,2.12,0,0,0-1.46-.43H158.2V190Z" style="fill:#fff"/><path d="M174.72,44.85,173,38.05h0l-1.67,6.8h-2.22l-2.65-10h2.2l1.58,6.8h0l1.74-6.8h2.05l1.71,6.89h0l1.64-6.89h2.15l-2.68,10Z" style="fill:#414042"/><path d="M181.72,43.12a2.06,2.06,0,0,0,2.33.13,1.24,1.24,0,0,0,.53-.64h1.75A3.36,3.36,0,0,1,185,44.48a3.83,3.83,0,0,1-2.1.56,4.18,4.18,0,0,1-1.54-.28,3.23,3.23,0,0,1-1.16-.77,3.61,3.61,0,0,1-.74-1.21,4.44,4.44,0,0,1-.26-1.54,4.17,4.17,0,0,1,.27-1.51,3.55,3.55,0,0,1,1.93-2,3.82,3.82,0,0,1,1.5-.29,3.41,3.41,0,0,1,1.61.36,3.09,3.09,0,0,1,1.13,1,3.91,3.91,0,0,1,.63,1.37,5,5,0,0,1,.15,1.61h-5.23A2,2,0,0,0,181.72,43.12ZM184,39.31a1.41,1.41,0,0,0-1.09-.39,1.71,1.71,0,0,0-.79.16,1.55,1.55,0,0,0-.5.4,1.53,1.53,0,0,0-.27.5,2.48,2.48,0,0,0-.09.48h3.24A2.32,2.32,0,0,0,184,39.31Z" style="fill:#414042"/><path d="M189.67,34.86v10h-2v-10Z" style="fill:#414042"/><path d="M193.29,34.86v10h-2v-10Z" style="fill:#414042"/><rect x="120.22" y="43.42" width="13.4" height="125.41" style="fill:#d1d3d4"/><rect x="107.61" y="31.59" width="38.6" height="18.16" style="fill:#808285"/><rect x="104.31" y="25.43" width="45.21" height="7.28" rx="0.82" style="fill:#808285"/><polygon points="150.69 39.66 161.58 45.53 161.58 33.8 150.69 39.66" style="fill:#414042"/></g><g style="clip-path:url(#clip-path-2)"><rect x="269.09" width="253.83" height="274.92" style="fill:#a4dbee"/><rect x="269.09" y="132.07" width="253.83" height="142.85" style="fill:#1e95c7"/><path d="M522.91,274.92H269.09V201.48l47,13.6a287.48,287.48,0,0,0,159.84,0l47-13.6Z" style="fill:#8bc63f"/><path d="M522.91,132.07H269.09v-57l31.57-9a51.8,51.8,0,0,1,28.71.08L382,81.45a51.89,51.89,0,0,0,28.13.24L467.56,66a51.87,51.87,0,0,1,29.62.69l25.73,8.34Z" style="fill:#8bc63f"/><path d="M376.16,182.09v10.48h6.26v2.37h-9.09V182.09Z" style="fill:#fff"/><path d="M390.41,182.09l4.81,12.85h-2.94l-1-2.86h-4.8l-1,2.86h-2.85l4.86-12.85Zm.16,7.88L389,185.26h0L387.24,190Z" style="fill:#fff"/><path d="M399.16,182.09v5.33l5-5.33h3.53l-5,5.08,5.51,7.77h-3.55l-3.87-5.78-1.62,1.64v4.14h-2.83V182.09Z" style="fill:#fff"/><path d="M418.94,182.09v2.38h-6.78v2.75h6.22v2.2h-6.22v3.15h6.92v2.37h-9.75V182.09Z" style="fill:#fff"/><path d="M414.82,77a5.84,5.84,0,0,1,1.3.13,2.79,2.79,0,0,1,1,.41,1.93,1.93,0,0,1,.65.76,2.76,2.76,0,0,1,.23,1.18,2.28,2.28,0,0,1-.34,1.26,2.5,2.5,0,0,1-1,.82,2.41,2.41,0,0,1,1.38.93,2.82,2.82,0,0,1,.45,1.61,2.72,2.72,0,0,1-.29,1.31,2.55,2.55,0,0,1-.79.9,3.5,3.5,0,0,1-1.14.52A5.15,5.15,0,0,1,415,87h-4.85V77Zm-.28,4a1.61,1.61,0,0,0,1-.28,1.07,1.07,0,0,0,.38-.91,1.11,1.11,0,0,0-.13-.58.93.93,0,0,0-.33-.35,1.42,1.42,0,0,0-.49-.17,2.59,2.59,0,0,0-.56,0h-2.06V81Zm.12,4.24a2.51,2.51,0,0,0,.62-.07,1.5,1.5,0,0,0,.52-.21,1,1,0,0,0,.35-.39,1.39,1.39,0,0,0,.14-.65,1.3,1.3,0,0,0-.44-1.1,1.85,1.85,0,0,0-1.15-.33h-2.39v2.75Z" style="fill:#414042"/><path d="M424.66,87V86h0a2.31,2.31,0,0,1-1,.91,3.06,3.06,0,0,1-1.24.28,3.52,3.52,0,0,1-1.31-.21,1.88,1.88,0,0,1-.8-.6,2.24,2.24,0,0,1-.41-.94,5.67,5.67,0,0,1-.12-1.22V79.73h2v4.09a2.48,2.48,0,0,0,.28,1.33,1.05,1.05,0,0,0,1,.44,1.4,1.4,0,0,0,1.18-.48,2.7,2.7,0,0,0,.36-1.59V79.73h2V87Z" style="fill:#414042"/><path d="M428.1,81.78a3.33,3.33,0,0,1,1.93-2,4.18,4.18,0,0,1,1.54-.27,4.24,4.24,0,0,1,1.55.27,3.45,3.45,0,0,1,1.18.77,3.51,3.51,0,0,1,.76,1.21,4.7,4.7,0,0,1,0,3.14,3.37,3.37,0,0,1-.76,1.2,3.29,3.29,0,0,1-1.18.76,4.24,4.24,0,0,1-1.55.27,4.18,4.18,0,0,1-1.54-.27,3.34,3.34,0,0,1-1.17-.76,3.37,3.37,0,0,1-.76-1.2,4.87,4.87,0,0,1,0-3.14Zm1.81,2.42a2.19,2.19,0,0,0,.28.74,1.61,1.61,0,0,0,.54.53,2,2,0,0,0,1.69,0,1.55,1.55,0,0,0,.55-.53,2.19,2.19,0,0,0,.28-.74,4,4,0,0,0,.09-.85,4,4,0,0,0-.09-.85,2.11,2.11,0,0,0-.28-.74,1.64,1.64,0,0,0-.55-.53,1.64,1.64,0,0,0-2.23.53,2.11,2.11,0,0,0-.28.74,4,4,0,0,0-.09.85A4,4,0,0,0,429.91,84.2Z" style="fill:#414042"/><path d="M439.29,89.12a2.93,2.93,0,0,1-1.6.38l-.61,0-.61,0V87.79l.58.06a3.75,3.75,0,0,0,.58,0,.78.78,0,0,0,.59-.31,1,1,0,0,0,.19-.58,1.13,1.13,0,0,0-.09-.45l-2.53-6.79h2.11l1.64,5h0l1.58-5h2.06l-3,8.13A2.41,2.41,0,0,1,439.29,89.12Z" style="fill:#414042"/><path d="M426.2,108.53h0a3.55,3.55,0,0,1,3.55,3.55v4.18a0,0,0,0,1,0,0h-7.1a0,0,0,0,1,0,0v-4.18a3.55,3.55,0,0,1,3.55-3.55Z" style="fill:#bd3a39"/><path d="M421.14,116.26h10.11a.55.55,0,0,1,.55.55v.79a0,0,0,0,1,0,0h-11.2a0,0,0,0,1,0,0v-.79A.55.55,0,0,1,421.14,116.26Z" style="fill:#d2d0d0"/><rect x="418.19" y="117.61" width="16.01" height="4.02" rx="0.55" style="fill:#f26a6c"/><polygon points="421.27 136.89 432.97 144.51 433.89 148.13 420.6 139.62 421.27 136.89" style="fill:#bd3a39"/><polygon points="431.02 136.89 419.46 144.21 418.49 148.13 431.8 139.92 431.02 136.89" style="fill:#bd3a39"/><polygon points="421.23 121.63 413.1 153.5 417.16 153.5 424.14 125.26 424.14 153.5 428.09 153.5 428.09 125.42 435.27 153.5 439.29 153.5 431.09 121.63 421.23 121.63" style="fill:#f26a6c"/><path d="M439.24,162.19a15.6,15.6,0,0,0,2.63-8.69H410.52a15.59,15.59,0,0,0,1.21,6.05l1.09,0a107.2,107.2,0,0,1,26.42,2.67Z" style="fill:#d2d2d1"/><polygon points="426.18 103.42 432.04 92.53 420.31 92.53 426.18 103.42" style="fill:#414042"/></g><g style="clip-path:url(#clip-path-3)"><rect x="538.17" y="25.43" width="253.83" height="249.49" style="fill:#8bc63f"/><path d="M579.84,136.1a1.58,1.58,0,0,0,.48.57,2.2,2.2,0,0,0,.71.32,3.34,3.34,0,0,0,.84.11,4.7,4.7,0,0,0,.63,0,2.7,2.7,0,0,0,.63-.19,1.25,1.25,0,0,0,.49-.39,1,1,0,0,0,.2-.62.9.9,0,0,0-.26-.66,2.07,2.07,0,0,0-.68-.42,6.69,6.69,0,0,0-1-.29l-1.08-.28a9.85,9.85,0,0,1-1.09-.34,3.71,3.71,0,0,1-1-.53,2.37,2.37,0,0,1-.67-.8,2.41,2.41,0,0,1-.26-1.17,2.61,2.61,0,0,1,.33-1.34,3,3,0,0,1,.86-1,3.9,3.9,0,0,1,1.2-.56,5.2,5.2,0,0,1,1.34-.18,6.18,6.18,0,0,1,1.51.18,3.62,3.62,0,0,1,1.28.56,3,3,0,0,1,.89,1,3,3,0,0,1,.33,1.47h-2.13a1.75,1.75,0,0,0-.19-.74,1.19,1.19,0,0,0-.43-.46,1.89,1.89,0,0,0-.6-.24,3.54,3.54,0,0,0-.75-.07,2.48,2.48,0,0,0-.54.06,1.42,1.42,0,0,0-.48.19,1.5,1.5,0,0,0-.36.35,1,1,0,0,0-.14.53.85.85,0,0,0,.12.48,1,1,0,0,0,.44.34,5.67,5.67,0,0,0,.91.3c.38.11.89.24,1.52.4a6.86,6.86,0,0,1,.77.2,3.71,3.71,0,0,1,1,.47,2.91,2.91,0,0,1,.85.86,2.44,2.44,0,0,1,.35,1.38,3,3,0,0,1-.26,1.27,2.87,2.87,0,0,1-.79,1,4,4,0,0,1-1.3.66,6.13,6.13,0,0,1-1.8.24,6.64,6.64,0,0,1-1.61-.2,4.21,4.21,0,0,1-1.37-.64,3.16,3.16,0,0,1-1.28-2.7h2.13A1.84,1.84,0,0,0,579.84,136.1Z" style="fill:#414042"/><path d="M591,131.33v1.33h-1.45v3.58a1,1,0,0,0,.16.67,1,1,0,0,0,.68.17h.32l.29,0v1.54l-.56.05-.6,0a4.79,4.79,0,0,1-.87-.07,2,2,0,0,1-.73-.24,1.32,1.32,0,0,1-.5-.52,1.86,1.86,0,0,1-.18-.88v-4.27h-1.21v-1.33h1.21v-2.17h2v2.17Z" style="fill:#414042"/><path d="M593.85,131.33v1.34h0a2.65,2.65,0,0,1,.38-.62,2.33,2.33,0,0,1,.55-.49,2.62,2.62,0,0,1,.65-.32,2.58,2.58,0,0,1,.73-.11,1.9,1.9,0,0,1,.44.07v1.85l-.34-.05-.38,0a2.13,2.13,0,0,0-.92.18,1.58,1.58,0,0,0-.61.5,2.12,2.12,0,0,0-.33.73,3.79,3.79,0,0,0-.1.91v3.27h-2v-7.24Z" style="fill:#414042"/><path d="M599.29,136.83a1.74,1.74,0,0,0,1.28.43,1.77,1.77,0,0,0,1-.3,1.22,1.22,0,0,0,.53-.63h1.75a3.33,3.33,0,0,1-1.29,1.86,3.78,3.78,0,0,1-2.1.56,4.18,4.18,0,0,1-1.54-.27,3.49,3.49,0,0,1-1.16-.78,3.44,3.44,0,0,1-.73-1.21,4.22,4.22,0,0,1-.26-1.54,4.39,4.39,0,0,1,.26-1.51,3.6,3.6,0,0,1,.76-1.21,3.53,3.53,0,0,1,1.17-.8,3.65,3.65,0,0,1,1.5-.3,3.39,3.39,0,0,1,1.61.36,3.2,3.2,0,0,1,1.13,1,3.84,3.84,0,0,1,.64,1.37,5,5,0,0,1,.14,1.61H598.8A2,2,0,0,0,599.29,136.83Zm2.24-3.81a1.4,1.4,0,0,0-1.08-.39,1.68,1.68,0,0,0-.79.16,1.43,1.43,0,0,0-.77.9,2.48,2.48,0,0,0-.09.48H602A2.27,2.27,0,0,0,601.53,133Z" style="fill:#414042"/><path d="M605.11,133.55a2.3,2.3,0,0,1,.35-1.16,2.5,2.5,0,0,1,.78-.74,3.4,3.4,0,0,1,1.08-.4,5.93,5.93,0,0,1,1.19-.12,8.29,8.29,0,0,1,1.11.08,3.36,3.36,0,0,1,1,.3,2.1,2.1,0,0,1,.76.62,1.8,1.8,0,0,1,.29,1.06V137a6.92,6.92,0,0,0,.06.93,1.68,1.68,0,0,0,.19.68h-2c0-.12-.07-.23-.1-.35s0-.23,0-.35a2.65,2.65,0,0,1-1.12.68,4.54,4.54,0,0,1-1.32.2,3.35,3.35,0,0,1-1-.13,2,2,0,0,1-.78-.39,1.81,1.81,0,0,1-.52-.67,2.21,2.21,0,0,1-.19-1,2.13,2.13,0,0,1,.21-1,1.84,1.84,0,0,1,.56-.64,2.48,2.48,0,0,1,.79-.36,8.79,8.79,0,0,1,.89-.19l.88-.11a7,7,0,0,0,.77-.12,1.38,1.38,0,0,0,.53-.25.54.54,0,0,0,.18-.47,1.08,1.08,0,0,0-.1-.51.86.86,0,0,0-.28-.29,1,1,0,0,0-.41-.14,2.6,2.6,0,0,0-.5,0,1.55,1.55,0,0,0-.92.25,1.15,1.15,0,0,0-.39.84ZM609.7,135a.79.79,0,0,1-.31.18,2.46,2.46,0,0,1-.41.1,3.25,3.25,0,0,1-.45.07l-.48.07a3.17,3.17,0,0,0-.44.12,1.13,1.13,0,0,0-.38.19.85.85,0,0,0-.26.3,1,1,0,0,0-.1.46,1,1,0,0,0,.1.45.81.81,0,0,0,.27.28,1.13,1.13,0,0,0,.39.15,2.32,2.32,0,0,0,.46,0,1.76,1.76,0,0,0,.91-.19,1.28,1.28,0,0,0,.48-.47,1.69,1.69,0,0,0,.19-.56,4.21,4.21,0,0,0,0-.44Z" style="fill:#414042"/><path d="M615.16,131.33v1h0a3,3,0,0,1,.94-.87,2.65,2.65,0,0,1,1.27-.31,2.91,2.91,0,0,1,1.26.27,1.81,1.81,0,0,1,.86.94,2.92,2.92,0,0,1,.87-.84,2.29,2.29,0,0,1,1.31-.37,3.94,3.94,0,0,1,1.06.14,2.26,2.26,0,0,1,.84.45,2,2,0,0,1,.55.81,3.26,3.26,0,0,1,.2,1.19v4.85h-2v-4.11c0-.24,0-.47,0-.68a1.53,1.53,0,0,0-.15-.56.93.93,0,0,0-.38-.38,1.35,1.35,0,0,0-.66-.14,1.25,1.25,0,0,0-.68.16,1.27,1.27,0,0,0-.41.42,1.78,1.78,0,0,0-.19.59,4.89,4.89,0,0,0-.05.66v4h-2v-4.06c0-.22,0-.43,0-.64a1.81,1.81,0,0,0-.12-.58.92.92,0,0,0-.35-.43,1.28,1.28,0,0,0-.72-.16,1.48,1.48,0,0,0-.37.06,1.23,1.23,0,0,0-.45.24,1.35,1.35,0,0,0-.37.51,2,2,0,0,0-.16.86v4.2h-2v-7.24Z" style="fill:#414042"/><path d="M635.94,138.49a3.72,3.72,0,0,1-1.44.3,5.06,5.06,0,0,1-2.07-.4,4.33,4.33,0,0,1-1.55-1.1,4.7,4.7,0,0,1-1-1.64,5.9,5.9,0,0,1-.34-2,6.09,6.09,0,0,1,.34-2.08,4.84,4.84,0,0,1,1-1.67,4.38,4.38,0,0,1,1.55-1.12,5.06,5.06,0,0,1,2.07-.41,5,5,0,0,1,1.49.23,4.36,4.36,0,0,1,1.3.68,3.67,3.67,0,0,1,1,1.11,3.82,3.82,0,0,1,.46,1.51h-2.1a2.07,2.07,0,0,0-.76-1.26,2.17,2.17,0,0,0-1.35-.42,2.55,2.55,0,0,0-1.26.29,2.31,2.31,0,0,0-.84.77,3.3,3.3,0,0,0-.47,1.1,5.32,5.32,0,0,0-.15,1.27,5.05,5.05,0,0,0,.15,1.23,3.32,3.32,0,0,0,.47,1.07,2.37,2.37,0,0,0,.84.76,2.55,2.55,0,0,0,1.26.29,2.37,2.37,0,0,0,1.68-.56,2.41,2.41,0,0,0,.7-1.6h-2.22v-1.64h4.2v5.41h-1.4l-.22-1.14A3.27,3.27,0,0,1,635.94,138.49Z" style="fill:#414042"/><path d="M640.35,133.55a2.23,2.23,0,0,1,1.13-1.9,3.43,3.43,0,0,1,1.07-.4,6.11,6.11,0,0,1,1.2-.12,8.53,8.53,0,0,1,1.11.08,3.36,3.36,0,0,1,1,.3,2,2,0,0,1,.75.62,1.73,1.73,0,0,1,.3,1.06V137a9.16,9.16,0,0,0,.05.93,1.84,1.84,0,0,0,.2.68h-2l-.09-.35c0-.11,0-.23-.05-.35a2.59,2.59,0,0,1-1.12.68,4.48,4.48,0,0,1-1.31.2,3.35,3.35,0,0,1-1-.13,2,2,0,0,1-.78-.39,1.84,1.84,0,0,1-.53-.67,2.36,2.36,0,0,1-.19-1,2.13,2.13,0,0,1,.22-1,1.84,1.84,0,0,1,.56-.64,2.53,2.53,0,0,1,.78-.36c.3-.08.59-.14.89-.19l.89-.11a7,7,0,0,0,.77-.12,1.38,1.38,0,0,0,.53-.25.54.54,0,0,0,.18-.47,1.07,1.07,0,0,0-.11-.51.78.78,0,0,0-.28-.29,1,1,0,0,0-.4-.14,2.67,2.67,0,0,0-.5,0,1.55,1.55,0,0,0-.92.25,1.09,1.09,0,0,0-.39.84Zm4.59,1.47a.79.79,0,0,1-.31.18,2.73,2.73,0,0,1-.41.1,3.4,3.4,0,0,1-.46.07l-.47.07a3.17,3.17,0,0,0-.44.12,1.13,1.13,0,0,0-.38.19.76.76,0,0,0-.26.3.9.9,0,0,0-.1.46.88.88,0,0,0,.1.45.66.66,0,0,0,.27.28,1.13,1.13,0,0,0,.39.15,2.32,2.32,0,0,0,.46,0,1.79,1.79,0,0,0,.91-.19,1.44,1.44,0,0,0,.48-.47,1.47,1.47,0,0,0,.18-.56,2.73,2.73,0,0,0,0-.44Z" style="fill:#414042"/><path d="M655.31,139.1a2.47,2.47,0,0,1-.51,1,3.08,3.08,0,0,1-1.14.82,5,5,0,0,1-2,.34,4.57,4.57,0,0,1-1.08-.14,3.35,3.35,0,0,1-1-.41,2.74,2.74,0,0,1-.76-.72,2.11,2.11,0,0,1-.34-1.06h2a1.12,1.12,0,0,0,.54.78,2,2,0,0,0,.94.22,1.45,1.45,0,0,0,1.23-.51,2.06,2.06,0,0,0,.37-1.27v-.95h0a2,2,0,0,1-.92.84,2.85,2.85,0,0,1-1.25.28,3.18,3.18,0,0,1-1.4-.29,2.66,2.66,0,0,1-1-.78,3.42,3.42,0,0,1-.55-1.17,5.32,5.32,0,0,1-.18-1.4,4.33,4.33,0,0,1,.21-1.35,3.39,3.39,0,0,1,.59-1.15,2.86,2.86,0,0,1,1-.79,2.91,2.91,0,0,1,1.34-.3,2.71,2.71,0,0,1,1.25.27,2.21,2.21,0,0,1,.91.89h0v-1h1.89v6.77A4.83,4.83,0,0,1,655.31,139.1Zm-2.73-2.41a1.48,1.48,0,0,0,.54-.45,2,2,0,0,0,.31-.63,2.67,2.67,0,0,0,.11-.75,3.89,3.89,0,0,0-.09-.85,2,2,0,0,0-.28-.71,1.44,1.44,0,0,0-.52-.49,1.62,1.62,0,0,0-.81-.18,1.47,1.47,0,0,0-.72.17,1.44,1.44,0,0,0-.5.45,1.81,1.81,0,0,0-.3.66,3.33,3.33,0,0,0-.09.78,4.13,4.13,0,0,0,.08.78,2.29,2.29,0,0,0,.26.69,1.7,1.7,0,0,0,.5.5,1.42,1.42,0,0,0,.77.2A1.58,1.58,0,0,0,652.58,136.69Z" style="fill:#414042"/><path d="M659.15,136.83a1.78,1.78,0,0,0,1.29.43,1.76,1.76,0,0,0,1-.3,1.29,1.29,0,0,0,.54-.63h1.75a3.33,3.33,0,0,1-1.29,1.86,3.83,3.83,0,0,1-2.1.56,4.15,4.15,0,0,1-1.54-.27,3.29,3.29,0,0,1-1.16-.78,3.46,3.46,0,0,1-.74-1.21,4.44,4.44,0,0,1-.26-1.54,4.17,4.17,0,0,1,.27-1.51,3.58,3.58,0,0,1,.75-1.21,3.53,3.53,0,0,1,1.17-.8,3.73,3.73,0,0,1,1.51-.3,3.44,3.44,0,0,1,1.61.36,3.26,3.26,0,0,1,1.12,1,3.84,3.84,0,0,1,.64,1.37,5,5,0,0,1,.14,1.61h-5.22A2,2,0,0,0,659.15,136.83ZM661.4,133a1.41,1.41,0,0,0-1.09-.39,1.68,1.68,0,0,0-.79.16,1.52,1.52,0,0,0-.77.9,2.48,2.48,0,0,0-.09.48h3.23A2.36,2.36,0,0,0,661.4,133Z" style="fill:#414042"/><polygon points="677.98 135.15 667.08 129.28 667.08 141.01 677.98 135.15" style="fill:#414042"/><rect x="538.17" y="165.69" width="253.83" height="109.23" style="fill:#1e95c7"/><rect x="538.17" y="157.84" width="253.83" height="7.84" style="fill:#603913"/><rect x="538.17" width="253.83" height="77.29" style="fill:#a4dbee"/><path d="M646.61,211.11a4.33,4.33,0,0,1,1.56.28,3.55,3.55,0,0,1,1.18.77,3.27,3.27,0,0,1,.76,1.12,3.72,3.72,0,0,1,.26,1.38,3.85,3.85,0,0,1-.48,2,3,3,0,0,1-1.55,1.26v0a2.13,2.13,0,0,1,.86.44,2.54,2.54,0,0,1,.56.7,3.23,3.23,0,0,1,.31.89,8.09,8.09,0,0,1,.14,1q0,.32,0,.72c0,.28,0,.56.07.85a5.19,5.19,0,0,0,.14.82,2,2,0,0,0,.3.65h-2.83a5.24,5.24,0,0,1-.29-1.45c0-.57-.09-1.11-.16-1.62a2.51,2.51,0,0,0-.61-1.48,2.11,2.11,0,0,0-1.53-.47H642.5v5h-2.82V211.11Zm-1,5.82a2.14,2.14,0,0,0,1.46-.44,1.78,1.78,0,0,0,.48-1.4,1.73,1.73,0,0,0-.48-1.36,2.19,2.19,0,0,0-1.46-.42h-3.1v3.62Z" style="fill:#fff"/><path d="M655.5,211.11V224h-2.83V211.11Z" style="fill:#fff"/><path d="M660.77,224l-4.15-12.85h2.89l2.87,9h0l2.9-9h2.92L664,224Z" style="fill:#fff"/><path d="M678.94,211.11v2.38h-6.79v2.75h6.23v2.2h-6.23v3.15h6.93V224h-9.76V211.11Z" style="fill:#fff"/><path d="M687.92,211.11a4.24,4.24,0,0,1,1.55.28,3.49,3.49,0,0,1,1.19.77,3.42,3.42,0,0,1,.76,1.12,3.72,3.72,0,0,1,.26,1.38,3.85,3.85,0,0,1-.48,2,3,3,0,0,1-1.55,1.26v0a2.13,2.13,0,0,1,.86.44,2.54,2.54,0,0,1,.56.7,3.23,3.23,0,0,1,.31.89,8.09,8.09,0,0,1,.14,1q0,.32,0,.72c0,.28,0,.56.07.85a5.19,5.19,0,0,0,.14.82,2,2,0,0,0,.3.65h-2.83a5.24,5.24,0,0,1-.29-1.45c0-.57-.09-1.11-.16-1.62a2.51,2.51,0,0,0-.61-1.48,2.11,2.11,0,0,0-1.53-.47h-2.83v5H681V211.11Zm-1,5.82a2.14,2.14,0,0,0,1.46-.44,1.78,1.78,0,0,0,.48-1.4,1.73,1.73,0,0,0-.48-1.36,2.19,2.19,0,0,0-1.46-.42h-3.1v3.62Z" style="fill:#fff"/><rect x="538.17" y="91.5" width="253.83" height="10.59" style="fill:#37813f"/><path d="M692.1,114.88h1.3a2,2,0,0,1,2,2v48.81a0,0,0,0,1,0,0h-5.3a0,0,0,0,1,0,0V116.88A2,2,0,0,1,692.1,114.88Z" style="fill:#a97c50"/><polygon points="734.52 32.77 707.79 95.39 761.24 95.39 734.52 32.77" style="fill:#2a6432"/><polygon points="714.53 45.1 693.07 95.39 735.99 95.39 714.53 45.1" style="fill:#2a6432"/><polyline points="792 95.39 747.54 95.39 774.26 32.77 792 74.33 792 95.39" style="fill:#2a6432"/><polygon points="692.36 32.77 665.63 95.39 719.08 95.39 692.36 32.77" style="fill:#2a6432"/><polygon points="645.8 32.77 619.08 95.39 672.53 95.39 645.8 32.77" style="fill:#2a6432"/><polygon points="615.22 43.49 593.08 95.39 637.37 95.39 615.22 43.49" style="fill:#2a6432"/><polyline points="538.17 91.85 573.64 91.85 551.41 39.75 538.17 70.78 538.17 91.5" style="fill:#2a6432"/><polygon points="583.61 29.22 556.88 91.85 610.33 91.85 583.61 29.22" style="fill:#2a6432"/><polygon points="687.8 60.53 670.07 102.09 705.54 102.09 687.8 60.53" style="fill:#377e3d"/><rect x="682.01" y="119.62" width="21.95" height="31.06" rx="2" style="fill:#e6e7e8"/><path d="M699.16,93.31H700a.79.79,0,0,1,.79.79v25.52a0,0,0,0,1,0,0h-2.42a0,0,0,0,1,0,0V94.1A.79.79,0,0,1,699.16,93.31Z" style="fill:#d1d3d4"/><polygon points="664.66 47.85 641.51 102.09 687.8 102.09 664.66 47.85" style="fill:#377e3d"/><polygon points="642.37 60.53 624.63 102.09 660.1 102.09 642.37 60.53" style="fill:#377e3d"/><polygon points="751.12 47.85 727.97 102.09 774.26 102.09 751.12 47.85" style="fill:#377e3d"/><polygon points="728.83 60.53 711.1 102.09 746.57 102.09 728.83 60.53" style="fill:#377e3d"/><polygon points="774.26 60.53 756.53 102.09 792 102.09 774.26 60.53" style="fill:#377e3d"/><rect x="704.12" y="84.43" width="1.21" height="14.14" transform="translate(271.11 -471.51) rotate(45)" style="fill:#d1d3d4"/><rect x="692.56" y="96.93" width="14.05" height="8.13" rx="1" style="fill:#e6e7e8"/><rect x="693.61" y="97.92" width="11.96" height="6.14" rx="1" style="fill:#58595b"/><rect x="702.83" y="89.83" width="1.21" height="5.92" rx="0.5" transform="translate(140.42 524.58) rotate(-45)" style="fill:#d1d3d4"/><rect x="702.83" y="89.83" width="1.21" height="5.92" rx="0.5" style="fill:#d1d3d4"/><rect x="705.79" y="86.87" width="1.21" height="5.92" rx="0.5" transform="translate(143.38 525.81) rotate(-45)" style="fill:#d1d3d4"/><polygon points="578.2 47.85 555.05 102.09 601.34 102.09 578.2 47.85" style="fill:#377e3d"/><polygon points="555.91 60.53 538.17 102.09 573.64 102.09 555.91 60.53" style="fill:#377e3d"/><polygon points="601.34 60.53 583.61 102.09 619.08 102.09 601.34 60.53" style="fill:#377e3d"/><rect x="705.79" y="86.87" width="1.21" height="5.92" rx="0.5" style="fill:#d1d3d4"/><rect x="708.75" y="83.9" width="1.21" height="5.92" rx="0.5" transform="translate(146.34 527.03) rotate(-45)" style="fill:#d1d3d4"/><rect x="708.75" y="83.9" width="1.21" height="5.92" rx="0.5" style="fill:#d1d3d4"/><path d="M692.46,123.41v2.73a1.14,1.14,0,0,1-1.3,1.18c-.89,0-1.31-.46-1.31-1.18v-2.73h.8v2.67c0,.48.21.66.5.66s.51-.23.51-.66v-2.67h.8m1.31,3.91c-1,0-1.18-.59-1.14-1.25h.81c0,.37,0,.68.45.68a.39.39,0,0,0,.41-.44c0-.69-1.62-.74-1.62-1.88,0-.6.29-1.08,1.27-1.08.78,0,1.17.35,1.12,1.16h-.79c0-.29,0-.59-.37-.59a.38.38,0,0,0-.42.41c0,.73,1.62.67,1.62,1.88,0,1-.73,1.11-1.34,1.11m5.4,0c-1,0-1.18-.59-1.14-1.25h.81c0,.37,0,.68.46.68.27,0,.4-.18.4-.44,0-.69-1.62-.74-1.62-1.88,0-.6.29-1.08,1.27-1.08.79,0,1.17.35,1.12,1.16h-.78c0-.29-.05-.59-.38-.59a.37.37,0,0,0-.41.41c0,.73,1.62.67,1.62,1.88,0,1-.74,1.11-1.35,1.11m-2.56-1.49h.48v.84l0,0a1.4,1.4,0,0,1-.4.07c-.46,0-.58-.21-.58-1.41,0-.75,0-1.42.5-1.42s.47.26.48.58h.8a1.09,1.09,0,0,0-1.23-1.16c-1.31,0-1.36,1-1.36,2,0,1.45.16,2,1.51,2a5.48,5.48,0,0,0,1.05-.13s0,0,0,0v-1.91h-1.24v.58" style="fill:#007251"/><path d="M686.49,124.7h0a.86.86,0,0,0,1.09.08l1.58-1.05v-.33h-3.72v.88a1.21,1.21,0,0,1,1,.41m1.4,1.46-.44-.42-.12-.11a.92.92,0,0,0-.84-.13l-.11.07-.92.61v1.11h3.72v-.8c-.09.05-.59.33-1.29-.33m-1.43-1.36-.06-.06a.92.92,0,0,0-.94-.13V125l.21-.15a.82.82,0,0,1,.85,0l-.06-.06m.52.49-.06-.05a.9.9,0,0,0-.92-.19l-.12.06-.42.28v.4l.7-.48a.84.84,0,0,1,.84,0l0,0m2.2.42c-.15.1-.3.19-.36.24a.86.86,0,0,1-1,.06l.06.06.08.07a.89.89,0,0,0,1,0l.11-.08v-.39m0-.79-.84.56a.84.84,0,0,1-.94.07l.05.06h0a.89.89,0,0,0,1.1.09l.6-.4v-.39m0-.79c-.47.31-1.23.83-1.32.88a.85.85,0,0,1-.94.08l.06.06.13.11a.87.87,0,0,0,1,0l1.07-.71v-.4" style="fill:#007251"/><path d="M685.65,128.44a.11.11,0,0,0,0,.08s0,0,.06,0a.09.09,0,0,0,.09-.07c0-.14-.31-.11-.27-.33a.3.3,0,0,1,.31-.19c.13,0,.23.07.19.21h-.18s0-.07,0-.09h-.05a.08.08,0,0,0-.08.07c0,.11.31.11.27.32a.29.29,0,0,1-.3.21c-.17,0-.27,0-.21-.23h.18m.81-.22c0-.1,0-.14-.06-.14s-.11.07-.13.21,0,.25,0,.25.1,0,.11-.14h.19a.3.3,0,0,1-.33.27c-.24,0-.24-.15-.2-.37s.1-.34.35-.34.26.08.22.26h-.18m.59-.51,0,.15h-.19l0-.15h.19m-.2.94h-.19l.14-.67H687l-.14.67Zm9.06-.94,0,.15h-.19l0-.15h.19m-.2.94h-.19l.14-.67h.19l-.14.67Zm-8.3-.41c0-.07,0-.16,0-.16s-.11.1-.12.16h.17m-.2.1c0,.09,0,.21,0,.21s.1-.07.11-.12h.19a.25.25,0,0,1-.11.17.28.28,0,0,1-.21.07c-.25,0-.25-.15-.2-.36s.1-.35.35-.35.25.17.19.39Zm.72-.3h0a.24.24,0,0,1,.19-.08c.09,0,.15,0,.13.15l-.11.54H688l.09-.46c0-.06,0-.11,0-.11s-.09,0-.1.11l-.1.46h-.19l.15-.67H688l0,.06m.75.18c0-.1,0-.14,0-.14s-.11.07-.14.21,0,.25,0,.25.1,0,.11-.14h.19a.3.3,0,0,1-.33.27c-.24,0-.24-.15-.2-.37s.1-.34.35-.34.26.08.22.26h-.19m.63,0c0-.07,0-.16,0-.16s-.11.1-.12.16h.17m-.19.1c0,.09,0,.21,0,.21s.09-.07.11-.12h.19a.28.28,0,0,1-.11.17.29.29,0,0,1-.22.07c-.24,0-.24-.15-.19-.36s.1-.35.35-.35.25.17.19.39Zm1.15-.51a.1.1,0,0,0-.11.09v0h.09l0,.12h-.09l-.12.56h-.19l.12-.56h-.08l0-.12H690c0-.17.07-.26.27-.26h.07l0,.12m.31.46c0-.14,0-.21,0-.21s-.1.07-.13.21,0,.26,0,.26.1-.05.14-.26m-.36,0c0-.19.1-.35.35-.35s.24.16.2.35-.11.36-.36.36-.24-.15-.19-.36Zm.89-.34,0,.09h0a.2.2,0,0,1,.19-.1l0,.17a.18.18,0,0,0-.21.15l-.07.37h-.19l.14-.68h.18m.57.47c0,.05,0,.11.05.11s.12-.15.14-.22-.16,0-.19.11m.33.09a.49.49,0,0,0,0,.12h-.18v-.09h0a.26.26,0,0,1-.2.11c-.13,0-.16-.1-.13-.22s.22-.23.4-.23v-.05c0-.06,0-.1-.06-.1s-.08.05-.09.1h-.19a.22.22,0,0,1,.11-.16.27.27,0,0,1,.18,0c.24,0,.25.1.23.23l-.08.34Zm.75-.31c0-.1,0-.14,0-.14s-.11.07-.14.21,0,.25,0,.25.1,0,.11-.14h.19a.31.31,0,0,1-.33.27c-.25,0-.25-.15-.2-.37s.1-.34.35-.34.26.08.22.26h-.19m1,.22c0,.05,0,.11.05.11s.13-.15.14-.22-.16,0-.19.11m.33.09s0,.08,0,.12h-.18v-.09h0a.26.26,0,0,1-.2.11c-.13,0-.16-.1-.13-.22s.22-.23.4-.23v-.05c0-.06,0-.1,0-.1s-.09.05-.1.1h-.18a.19.19,0,0,1,.1-.16.27.27,0,0,1,.18,0c.24,0,.25.1.23.23l-.08.34Zm.42-.49h0a.22.22,0,0,1,.18-.08c.09,0,.16,0,.14.15l-.12.54h-.19l.1-.46c0-.06,0-.11,0-.11s-.08,0-.09.11l-.1.46h-.19l.14-.67h.19V128m.59.49c.07,0,.1-.07.13-.22s0-.23,0-.23-.1,0-.14.25-.05.2,0,.2m.39-.55-.15.7a.28.28,0,0,1-.31.23c-.14,0-.25,0-.22-.2H695a.08.08,0,0,0,0,.07.06.06,0,0,0,.06,0s.07,0,.09-.11l0-.13h0a.21.21,0,0,1-.16.08c-.21,0-.16-.19-.13-.35s.08-.34.27-.34a.13.13,0,0,1,.14.1h0l0-.08Zm.63.06h0a.24.24,0,0,1,.19-.08c.09,0,.15,0,.13.15l-.11.54h-.19l.1-.46c0-.06,0-.11,0-.11s-.09,0-.1.11l-.1.46h-.19L696,128h.19l0,.06m.6.49c.07,0,.1-.07.13-.22s0-.23,0-.23-.09,0-.13.25-.06.2,0,.2m.39-.55-.15.7a.28.28,0,0,1-.31.23c-.14,0-.25,0-.22-.2h.19a.08.08,0,0,0,0,.07s0,0,.05,0,.08,0,.1-.11l0-.13h0a.21.21,0,0,1-.16.08c-.2,0-.15-.19-.13-.35s.08-.34.28-.34a.12.12,0,0,1,.13.1h0l0-.08Zm.29,0h.19v.51h0l.23-.51h.2v.51h0l.21-.51h.18l-.32.67h-.2l0-.45h0l-.22.45h-.21l0-.67m1.32.31c0-.14,0-.21,0-.21s-.1.07-.13.21,0,.26,0,.26.1-.05.14-.26m-.36,0c0-.19.1-.35.35-.35s.24.16.2.35-.11.36-.35.36-.25-.15-.2-.36Zm.9-.33,0,.08h0a.23.23,0,0,1,.2-.1l0,.17a.18.18,0,0,0-.21.16l-.07.36H699l.14-.67h.18m-5.84,0a.22.22,0,0,0-.18.08h0l.08-.33h-.19l-.2.94h.19l.1-.46c0-.06,0-.11.09-.11s.06,0,0,.11l-.1.46h.19l.12-.54a.13.13,0,0,0-.14-.15m6.16-.25-.2.94h.19l.2-.94h-.19m.5.6c0,.17-.06.24-.13.24s-.06-.07,0-.24,0-.23.12-.23.06.09,0,.23m.13-.6-.07.33h0A.13.13,0,0,0,700,128c-.19,0-.23.21-.26.35s-.08.36.11.36a.21.21,0,0,0,.18-.09h0v.07h.18l.2-.94Z" style="fill:#007251"/><rect x="698.03" y="150.68" width="1.2" height="15.01" style="fill:#6d6e71"/></g></svg>