<?xml version="1.0" encoding="UTF-8"?><svg id="Layer_1" xmlns="http://www.w3.org/2000/svg" viewBox="0 0 426.6 177.86"><polygon points="25.3 39.07 0 142.51 31.63 142.51 42.42 99.35 51.35 99.72 39.81 142.51 72.93 142.51 97.86 39.07 65.86 39.07 56.93 75.91 48.93 75.91 57.67 39.07 25.3 39.07" style="fill:#fff;"/><path d="M97.86,58.79l-1.42,77.38c-.04,2.08-1.73,3.74-3.81,3.74h-7.42l-4.47,14.14h30.89c11.31,0,21.45-6.99,25.47-17.56l29.59-77.7h-27.16l-18.6,56.56,4.47-56.56h-27.53Z" style="fill:#fff;"/><polygon points="171.35 39.07 165.86 60.99 185.3 60.99 164.46 142.51 196.46 142.51 216.37 61.02 235.53 61.02 240.93 39.07 171.35 39.07" style="fill:#fff;"/><polygon points="246.88 39.07 221.21 142.51 276.28 142.51 281.49 121.12 258.23 121.12 263.63 99.53 283.16 99.53 288.19 79.63 268.46 79.63 273.12 61.02 294.51 61.02 299.91 39.07 246.88 39.07" style="fill:#fff;"/><polygon points="354.98 0 281.86 106.79 314.05 99.91 292.65 177.86 362.05 69.58 326.88 85.58 354.98 0" style="fill:#fff;"/><polygon points="357.39 39.81 352.56 61.4 370.98 61.4 350.51 142.51 382.51 142.51 402.98 60.84 421.21 60.84 426.6 39.81 357.39 39.81" style="fill:#fff;"/></svg>