<svg id="Layer_1" data-name="Layer 1" xmlns="http://www.w3.org/2000/svg" viewBox="0 0 200 46.19"><defs><style>.cls-1{fill:#010101;}.cls-2{fill:#fff;}</style></defs><path class="cls-1" d="M23.1.92V23.1H.92A22.19,22.19,0,0,1,23.1.92Z"/><path class="cls-1" d="M45.27,23.1A22.19,22.19,0,0,1,23.1,45.27V23.1H45.27Z"/><path class="cls-2" d="M5.25,23.1H23.1V45.27A22.19,22.19,0,0,1,.92,23.1Z"/><path class="cls-2" d="M45.27,23.1H23.1V.92A22.19,22.19,0,0,1,45.27,23.1Z"/><path class="cls-1" d="M23.1,46.19A23.1,23.1,0,1,1,46.19,23.1,23.12,23.12,0,0,1,23.1,46.19Zm0-44.34A21.25,21.25,0,1,0,44.34,23.1,21.27,21.27,0,0,0,23.1,1.85Z"/><path class="cls-1" d="M119,1.53V44.66a1.54,1.54,0,0,1-1.54,1.53H109a1.54,1.54,0,0,1-1.53-1.53V17.44h-.12L98.57,45.12a1.54,1.54,0,0,1-1.47,1.07H89.48A1.55,1.55,0,0,1,88,45.13L79.1,17.32H79V44.66a1.53,1.53,0,0,1-1.53,1.53H69.33a1.54,1.54,0,0,1-1.54-1.53V1.53A1.54,1.54,0,0,1,69.33,0H82.25a1.53,1.53,0,0,1,1.46,1.08L93.3,31.7h.12l9.52-30.62A1.55,1.55,0,0,1,104.41,0h13A1.54,1.54,0,0,1,119,1.53Z"/><path class="cls-1" d="M125.3,0H134a1.54,1.54,0,0,1,1.54,1.53V35.58a1.53,1.53,0,0,0,1.53,1.53h17.68a1.54,1.54,0,0,1,1.54,1.53v6a1.54,1.54,0,0,1-1.54,1.53H125.3a1.53,1.53,0,0,1-1.53-1.53V1.53A1.53,1.53,0,0,1,125.3,0Z"/><path class="cls-1" d="M179.27,28.69h-4.93a1.54,1.54,0,0,0-1.54,1.53V44.66a1.53,1.53,0,0,1-1.53,1.53h-8.66a1.53,1.53,0,0,1-1.53-1.53V1.53A1.53,1.53,0,0,1,162.61,0h21.32c9,0,15.52,5.05,15.52,14a12.15,12.15,0,0,1-6.81,11.38,1.52,1.52,0,0,0-.69,2L199.85,44a1.53,1.53,0,0,1-1.39,2.19H189a1.53,1.53,0,0,1-1.4-.91l-7-15.68A1.55,1.55,0,0,0,179.27,28.69ZM172.8,18.37a1.54,1.54,0,0,0,1.54,1.54h7.73c3.06,0,5.53-1.69,5.53-5.48s-2.47-5.53-5.53-5.53h-7.73a1.54,1.54,0,0,0-1.54,1.53Z"/><rect class="cls-1" x="55.89" width="2.21" height="46.19"/></svg>