<?xml version="1.0" encoding="UTF-8"?><svg id="Layer_1" xmlns="http://www.w3.org/2000/svg" viewBox="0 0 603.74 310.29"><defs><style>.cls-1{letter-spacing:-.05em;}.cls-2{letter-spacing:-.01em;}.cls-3{letter-spacing:0em;}.cls-4{letter-spacing:-.02em;}.cls-5{font-size:16px;}.cls-5,.cls-6{fill:#fff;}.cls-5,.cls-6,.cls-7{font-family:D-DIN-Bold, D-DIN;font-weight:700;}.cls-8{letter-spacing:-.02em;}.cls-9{letter-spacing:-.02em;}.cls-10{letter-spacing:-.02em;}.cls-11{letter-spacing:-.03em;}.cls-12{letter-spacing:-.03em;}.cls-13{letter-spacing:-.01em;}.cls-14{letter-spacing:-.01em;}.cls-15{fill:#d1d3d4;}.cls-16{fill:#d76a43;}.cls-17{fill:#205d99;}.cls-18{fill:#11375c;}.cls-19{fill:#6f9bc3;}.cls-20{fill:#3a6479;}.cls-21{letter-spacing:-.01em;}.cls-22{letter-spacing:-.01em;}.cls-23{letter-spacing:-.05em;}.cls-6{font-size:18px;}.cls-7{fill:#231f20;font-size:17px;}.cls-24{stroke:#fff;}.cls-24,.cls-25{fill:none;stroke-miterlimit:10;}.cls-25{stroke:#293241;}.cls-26{letter-spacing:-.03em;}.cls-27{letter-spacing:0em;}.cls-28{letter-spacing:0em;}.cls-29{letter-spacing:0em;}.cls-30{letter-spacing:0em;}.cls-31{letter-spacing:-.01em;}.cls-32{letter-spacing:0em;}.cls-33{letter-spacing:-.07em;}.cls-34{letter-spacing:0em;}.cls-35{letter-spacing:0em;}.cls-36{letter-spacing:0em;}.cls-37{letter-spacing:0em;}</style></defs><rect class="cls-15" x="15" y="15" width="252.11" height="280.29" rx="5" ry="5"/><rect class="cls-15" x="296.63" y="15" width="292.11" height="280.29" rx="5" ry="5"/><text class="cls-7" transform="translate(352.08 36.73)"><tspan x="0" y="0">I</tspan><tspan class="cls-30" x="4.44" y="0">n</tspan><tspan class="cls-13" x="13.19" y="0">t</tspan><tspan x="18.92" y="0">eg</tspan><tspan class="cls-34" x="36.45" y="0">r</tspan><tspan class="cls-30" x="42.36" y="0">a</tspan><tspan class="cls-13" x="50.79" y="0">t</tspan><tspan x="56.52" y="0">ed</tspan><tspan class="cls-34" x="74.05" y="0"> </tspan><tspan class="cls-31" x="77.77" y="0">De</tspan><tspan class="cls-9" x="96.25" y="0">v</tspan><tspan x="104.09" y="0">elopeme</tspan><tspan class="cls-30" x="166.5" y="0">n</tspan><tspan class="cls-32" x="175.25" y="0">t</tspan></text><rect class="cls-20" x="39.75" y="46.73" width="202.11" height="50.24" rx="5" ry="5"/><rect class="cls-20" x="39.62" y="104.71" width="202.11" height="50.24" rx="5" ry="5"/><rect class="cls-20" x="39.5" y="162.7" width="202.11" height="50.24" rx="5" ry="5"/><rect class="cls-16" x="40" y="220.05" width="202.11" height="50.24" rx="5" ry="5"/><line class="cls-25" x1="241.87" y1="129.83" x2="256.14" y2="129.83"/><line class="cls-25" x1="241.73" y1="187.86" x2="256.14" y2="187.86"/><text class="cls-5" transform="translate(69.69 75.79)"><tspan class="cls-10" x="0" y="0">D</tspan><tspan x="9.28" y="0">ynamic</tspan><tspan class="cls-2" x="58.19" y="0" xml:space="preserve"> L</tspan><tspan class="cls-28" x="69.79" y="0">an</tspan><tspan class="cls-37" x="86.13" y="0">d</tspan><tspan x="94.27" y="0">scapes</tspan></text><text class="cls-7" transform="translate(95.11 36.73)"><tspan class="cls-31" x="0" y="0">D</tspan><tspan class="cls-30" x="9.95" y="0">a</tspan><tspan class="cls-34" x="18.38" y="0">t</tspan><tspan class="cls-32" x="24.19" y="0">a</tspan><tspan class="cls-12" x="32.71" y="0"> </tspan><tspan class="cls-23" x="36.09" y="0">T</tspan><tspan x="43.6" y="0">hemes</tspan></text><text class="cls-5" transform="translate(94.52 134.25)"><tspan x="0" y="0">H</tspan><tspan class="cls-4" x="9.74" y="0">y</tspan><tspan class="cls-28" x="17.14" y="0">d</tspan><tspan class="cls-8" x="25.36" y="0">r</tspan><tspan x="30.77" y="0">ogeolo</tspan><tspan class="cls-14" x="76.33" y="0">g</tspan><tspan x="84.32" y="0">y</tspan></text><text class="cls-5" transform="translate(90.4 192.33)"><tspan class="cls-2" x="0" y="0">R</tspan><tspan class="cls-21" x="9.44" y="0">i</tspan><tspan class="cls-8" x="13.06" y="0">v</tspan><tspan class="cls-27" x="20.43" y="0">er </tspan><tspan class="cls-14" x="38.1" y="0">C</tspan><tspan class="cls-27" x="47.46" y="0">orridors</tspan></text><text class="cls-5" transform="translate(83.91 249.59)"><tspan class="cls-26" x="0" y="0">R</tspan><tspan class="cls-21" x="9.2" y="0">e</tspan><tspan class="cls-11" x="17.23" y="0">f</tspan><tspan class="cls-27" x="22.1" y="0">e</tspan><tspan class="cls-8" x="30.37" y="0">r</tspan><tspan x="35.78" y="0">ence</tspan><tspan class="cls-36" x="68.72" y="0"> </tspan><tspan class="cls-1" x="72.22" y="0">F</tspan><tspan x="79.92" y="0">abric</tspan></text><rect class="cls-17" x="327.6" y="127.49" width="238.72" height="61.55"/><path class="cls-18" d="m327.6,188.82h238.72v56.55c0,2.76-2.24,5-5,5h-228.72c-2.76,0-5-2.24-5-5v-56.55h0Z"/><path class="cls-19" d="m332.6,66.38h228.72c2.76,0,5,2.24,5,5v56.55h-238.72v-56.55c0-2.76,2.24-5,5-5Z"/><line class="cls-24" x1="327.6" y1="127.93" x2="566.32" y2="127.93"/><line class="cls-24" x1="327.6" y1="188.82" x2="566.32" y2="188.82"/><text class="cls-6" transform="translate(407.73 225.45)"><tspan x="0" y="0">E</tspan><tspan class="cls-29" x="9.58" y="0">n</tspan><tspan class="cls-22" x="18.85" y="0">t</tspan><tspan x="24.91" y="0">erpr</tspan><tspan class="cls-29" x="56.38" y="0">i</tspan><tspan x="60.62" y="0">se</tspan></text><text class="cls-6" transform="translate(417.84 102.54)"><tspan class="cls-22" x="0" y="0">C</tspan><tspan class="cls-29" x="10.53" y="0">a</tspan><tspan class="cls-35" x="19.46" y="0">t</tspan><tspan x="25.61" y="0">alog</tspan></text><text class="cls-6" transform="translate(427.07 164.34)"><tspan class="cls-33" x="0" y="0">T</tspan><tspan class="cls-3" x="7.72" y="0">ools</tspan></text><path class="cls-25" d="m241.61,71.85h11.83c1.49,0,2.7,1.21,2.7,2.7v167.92c0,1.49-1.21,2.7-2.7,2.7h-11.33"/><path class="cls-25" d="m256.14,158.84h61.46V61.37c0-2.75,2.23-4.99,4.99-4.99h248.74c2.75,0,4.99,2.23,4.99,4.99v194.01c0,2.75-2.23,4.99-4.99,4.99h-248.74c-2.75,0-4.99-2.23-4.99-4.99v-96.54"/></svg>