<?xml version="1.0" encoding="UTF-8"?><svg id="Layer_1" xmlns="http://www.w3.org/2000/svg" viewBox="0 0 603.74 310.29"><defs><style>.cls-1{fill:#fff;}.cls-2{fill:#e85b24;}.cls-3{fill:#d1d3d4;}.cls-4{fill:#231f20;}.cls-5{fill:#205d99;}.cls-6{fill:#11375c;}.cls-7{fill:#6f9bc3;}.cls-8{fill:#3a6479;}.cls-9{stroke:#fff;}.cls-9,.cls-10{fill:none;stroke-miterlimit:10;}.cls-10{stroke:#293241;}</style></defs><rect class="cls-3" x="15" y="15" width="252.11" height="280.29" rx="5" ry="5"/><rect class="cls-3" x="296.63" y="15" width="292.11" height="280.29" rx="5" ry="5"/><g><path class="cls-4" d="M355.41,25v11.73h-2.23v-11.73h2.23Z"/><path class="cls-4" d="M359.49,27.89v.8c.26-.29,.58-.52,.94-.67,.37-.15,.75-.23,1.15-.23,.91,0,1.61,.28,2.11,.85,.5,.57,.75,1.34,.75,2.33v5.76h-2.11v-5.51c0-.5-.12-.88-.37-1.16-.25-.27-.58-.41-1-.41s-.75,.14-1.01,.41c-.27,.27-.4,.66-.4,1.16v5.51h-2.11v-8.84h2.06Z"/><path class="cls-4" d="M369.01,34.04c0,.6,.29,.9,.87,.9h.66v1.79h-1c-.8,0-1.44-.23-1.91-.69-.47-.46-.71-1.08-.71-1.86v-4.81h-1.22v-1.48h1.22v-1.73l2.09-.73v2.46h1.7v1.48h-1.7v4.67Z"/><path class="cls-4" d="M373.85,33.18c0,.66,.15,1.13,.44,1.41s.71,.42,1.26,.42c.42,0,.75-.09,.99-.26,.24-.18,.37-.42,.39-.74l.02-.05h2.01v.08c0,.84-.31,1.51-.93,2.02s-1.47,.76-2.55,.76c-1.13,0-2.03-.33-2.7-.98-.67-.65-1-1.66-1-3.02v-1.07c0-1.33,.32-2.32,.97-2.98,.65-.66,1.54-1,2.67-1s1.99,.33,2.64,1c.65,.67,.98,1.66,.98,2.97v1.17h-5.17v.24Zm0-1.73v.05h3.06v-.22c0-1.12-.5-1.68-1.51-1.68-.5,0-.88,.14-1.15,.43-.27,.28-.4,.76-.4,1.43Z"/><path class="cls-4" d="M380.67,36.95h2.02c.06,.27,.21,.49,.45,.65,.24,.17,.56,.25,.96,.25,.96,0,1.45-.54,1.45-1.63v-1.09c-.49,.61-1.18,.92-2.07,.92s-1.55-.3-2.1-.91c-.55-.61-.82-1.52-.82-2.75v-.97c0-1.22,.27-2.14,.81-2.74s1.24-.9,2.1-.9,1.57,.33,2.06,1v-.9h2.09v8.19c0,1.05-.32,1.89-.95,2.51s-1.51,.93-2.63,.93c-1.03,0-1.83-.23-2.41-.68-.57-.45-.89-1.08-.94-1.89Zm4.84-4.62v-.82c0-.6-.13-1.06-.38-1.38s-.61-.48-1.06-.48c-.94,0-1.41,.62-1.41,1.85v.82c0,1.24,.45,1.85,1.36,1.85,.48,0,.84-.16,1.11-.48,.26-.32,.39-.78,.39-1.38Z"/><path class="cls-4" d="M391.5,27.89v.92c.22-.37,.5-.65,.87-.83,.36-.18,.77-.27,1.22-.27,.26,0,.5,.02,.71,.07v1.97c-.4-.12-.75-.19-1.05-.19-.51,0-.92,.16-1.23,.48-.31,.32-.47,.78-.47,1.38v5.3h-2.11v-8.84h2.06Z"/><path class="cls-4" d="M402.04,30.92v5.81h-2.04v-.76c-.29,.31-.6,.53-.91,.66-.31,.14-.71,.2-1.18,.2-.91,0-1.61-.24-2.11-.73-.5-.49-.75-1.16-.75-2.02,0-.79,.27-1.42,.8-1.88,.53-.46,1.27-.69,2.23-.69h1.87v-.7c0-.94-.47-1.41-1.41-1.41-.4,0-.71,.1-.94,.3-.23,.2-.35,.46-.35,.79v.05h-1.96v-.07c0-.83,.29-1.48,.88-1.96,.59-.48,1.38-.72,2.38-.72,1.12,0,1.98,.26,2.58,.79,.6,.53,.9,1.31,.9,2.34Zm-2.09,2.67v-.63h-1.53c-.88,0-1.33,.36-1.33,1.07s.43,1.11,1.29,1.11c.56,0,.96-.13,1.2-.38,.24-.25,.37-.64,.37-1.16Z"/><path class="cls-4" d="M406.61,34.04c0,.6,.29,.9,.87,.9h.66v1.79h-1c-.8,0-1.44-.23-1.91-.69-.47-.46-.71-1.08-.71-1.86v-4.81h-1.22v-1.48h1.22v-1.73l2.09-.73v2.46h1.7v1.48h-1.7v4.67Z"/><path class="cls-4" d="M411.46,33.18c0,.66,.15,1.13,.44,1.41s.71,.42,1.26,.42c.42,0,.75-.09,.99-.26,.24-.18,.37-.42,.39-.74l.02-.05h2.01v.08c0,.84-.31,1.51-.93,2.02s-1.47,.76-2.55,.76c-1.13,0-2.03-.33-2.7-.98-.67-.65-1-1.66-1-3.02v-1.07c0-1.33,.32-2.32,.97-2.98,.65-.66,1.54-1,2.67-1s1.99,.33,2.64,1c.65,.67,.98,1.66,.98,2.97v1.17h-5.17v.24Zm0-1.73v.05h3.06v-.22c0-1.12-.5-1.68-1.51-1.68-.5,0-.88,.14-1.15,.43-.27,.28-.4,.76-.4,1.43Z"/><path class="cls-4" d="M418.16,33.18v-1.75c0-1.22,.27-2.14,.81-2.74s1.24-.9,2.1-.9,1.57,.33,2.06,1v-3.79h2.09v11.73h-2.06v-.82c-.49,.61-1.18,.92-2.07,.92s-1.55-.3-2.1-.91c-.55-.61-.82-1.52-.82-2.75Zm4.96-.07v-1.6c0-.6-.13-1.06-.38-1.38s-.61-.48-1.06-.48c-.94,0-1.41,.62-1.41,1.85v1.6c0,1.24,.45,1.85,1.36,1.85,.48,0,.84-.16,1.11-.48,.26-.32,.39-.78,.39-1.38Z"/><path class="cls-4" d="M434.99,25c1.3,0,2.33,.36,3.08,1.09,.75,.72,1.13,1.92,1.13,3.57v2.4c0,1.65-.38,2.85-1.16,3.58-.77,.73-1.81,1.1-3.13,1.1h-4.06v-11.73h4.13Zm1.49,9.13c.33-.44,.5-1.14,.5-2.09v-2.26c0-1-.16-1.72-.49-2.17-.33-.45-.83-.67-1.51-.67h-1.89v7.85h1.89c.67,0,1.17-.22,1.5-.66Z"/><path class="cls-4" d="M442.65,33.18c0,.66,.15,1.13,.44,1.41s.71,.42,1.26,.42c.42,0,.75-.09,.99-.26,.24-.18,.37-.42,.39-.74l.02-.05h2.01v.08c0,.84-.31,1.51-.93,2.02s-1.47,.76-2.55,.76c-1.13,0-2.03-.33-2.7-.98-.67-.65-1-1.66-1-3.02v-1.07c0-1.33,.32-2.32,.97-2.98,.65-.66,1.54-1,2.67-1s1.99,.33,2.64,1c.65,.67,.98,1.66,.98,2.97v1.17h-5.17v.24Zm0-1.73v.05h3.06v-.22c0-1.12-.5-1.68-1.51-1.68-.5,0-.88,.14-1.15,.43-.27,.28-.4,.76-.4,1.43Z"/><path class="cls-4" d="M450.71,27.89l1.72,5.61,1.7-5.61h2.23l-3.08,8.84h-1.73l-3.06-8.84h2.23Z"/><path class="cls-4" d="M459.02,33.18c0,.66,.15,1.13,.44,1.41s.71,.42,1.26,.42c.42,0,.75-.09,.99-.26,.24-.18,.37-.42,.39-.74l.02-.05h2.01v.08c0,.84-.31,1.51-.93,2.02s-1.47,.76-2.55,.76c-1.13,0-2.03-.33-2.7-.98-.67-.65-1-1.66-1-3.02v-1.07c0-1.33,.32-2.32,.97-2.98,.65-.66,1.54-1,2.67-1s1.99,.33,2.64,1c.65,.67,.98,1.66,.98,2.97v1.17h-5.17v.24Zm0-1.73v.05h3.06v-.22c0-1.12-.5-1.68-1.51-1.68-.5,0-.88,.14-1.15,.43-.27,.28-.4,.76-.4,1.43Z"/><path class="cls-4" d="M465.87,34.04v-9.04h2.11v8.91c0,.36,.07,.62,.2,.77,.13,.15,.34,.23,.64,.23h.71v1.82h-.97c-.85,0-1.51-.23-1.98-.7-.47-.46-.71-1.13-.71-1.99Z"/><path class="cls-4" d="M470.6,33.13v-1.65c0-1.26,.32-2.19,.96-2.79,.64-.6,1.52-.9,2.63-.9s1.97,.3,2.6,.9,.95,1.53,.95,2.79v1.65c0,1.27-.32,2.2-.95,2.8s-1.5,.9-2.6,.9-1.99-.3-2.63-.9c-.64-.6-.96-1.54-.96-2.8Zm5.05-1.62c0-1.24-.49-1.85-1.46-1.85s-1.5,.62-1.5,1.85v1.6c0,1.24,.5,1.85,1.5,1.85s1.46-.62,1.46-1.85v-1.6Z"/><path class="cls-4" d="M481.48,27.89v.9c.52-.67,1.2-1,2.02-1,.88,0,1.6,.3,2.16,.9s.83,1.51,.83,2.74v1.75c0,1.22-.28,2.14-.83,2.75s-1.25,.91-2.09,.91-1.55-.3-2.04-.9v3.45h-2.11v-11.49h2.06Zm2.91,3.62c0-.66-.13-1.13-.38-1.42s-.6-.43-1.03-.43c-.45,0-.81,.16-1.07,.48s-.39,.78-.39,1.38v1.6c0,.6,.13,1.06,.4,1.38s.64,.48,1.11,.48c.91,0,1.36-.62,1.36-1.85v-1.6Z"/><path class="cls-4" d="M490.12,33.18c0,.66,.15,1.13,.44,1.41s.71,.42,1.26,.42c.42,0,.75-.09,.99-.26,.24-.18,.37-.42,.39-.74l.02-.05h2.01v.08c0,.84-.31,1.51-.93,2.02s-1.47,.76-2.55,.76c-1.13,0-2.03-.33-2.7-.98-.67-.65-1-1.66-1-3.02v-1.07c0-1.33,.32-2.32,.97-2.98,.65-.66,1.54-1,2.67-1s1.99,.33,2.64,1c.65,.67,.98,1.66,.98,2.97v1.17h-5.17v.24Zm0-1.73v.05h3.06v-.22c0-1.12-.5-1.68-1.51-1.68-.5,0-.88,.14-1.15,.43-.27,.28-.4,.76-.4,1.43Z"/><path class="cls-4" d="M499.02,27.89v.8c.26-.28,.58-.5,.94-.66s.75-.24,1.15-.24c.99,0,1.74,.37,2.26,1.11,.68-.74,1.51-1.11,2.5-1.11s1.67,.28,2.2,.85c.53,.57,.79,1.34,.79,2.33v5.76h-2.11v-5.51c0-.51-.13-.9-.38-1.16s-.59-.4-.99-.4c-.43,0-.77,.14-1.03,.42-.25,.28-.38,.64-.38,1.1v5.56h-2.11v-5.51c0-.51-.13-.9-.38-1.16s-.59-.4-.99-.4-.76,.14-1.02,.41c-.26,.27-.39,.66-.39,1.16v5.51h-2.11v-8.84h2.06Z"/><path class="cls-4" d="M512.64,33.18c0,.66,.15,1.13,.44,1.41s.71,.42,1.26,.42c.42,0,.75-.09,.99-.26,.24-.18,.37-.42,.39-.74l.02-.05h2.01v.08c0,.84-.31,1.51-.93,2.02s-1.47,.76-2.55,.76c-1.13,0-2.03-.33-2.7-.98-.67-.65-1-1.66-1-3.02v-1.07c0-1.33,.32-2.32,.97-2.98,.65-.66,1.54-1,2.67-1s1.99,.33,2.64,1c.65,.67,.98,1.66,.98,2.97v1.17h-5.17v.24Zm0-1.73v.05h3.06v-.22c0-1.12-.5-1.68-1.51-1.68-.5,0-.88,.14-1.15,.43-.27,.28-.4,.76-.4,1.43Z"/><path class="cls-4" d="M521.55,27.89v.8c.26-.29,.58-.52,.94-.67,.37-.15,.75-.23,1.15-.23,.91,0,1.61,.28,2.11,.85,.5,.57,.75,1.34,.75,2.33v5.76h-2.11v-5.51c0-.5-.12-.88-.37-1.16-.25-.27-.58-.41-1-.41s-.75,.14-1.01,.41c-.27,.27-.4,.66-.4,1.16v5.51h-2.11v-8.84h2.06Z"/><path class="cls-4" d="M531.07,34.04c0,.6,.29,.9,.87,.9h.66v1.79h-1c-.8,0-1.44-.23-1.91-.69-.47-.46-.71-1.08-.71-1.86v-4.81h-1.22v-1.48h1.22v-1.73l2.09-.73v2.46h1.7v1.48h-1.7v4.67Z"/></g><rect class="cls-8" x="39.75" y="46.73" width="202.11" height="50.24" rx="5" ry="5"/><rect class="cls-8" x="39.62" y="104.71" width="202.11" height="50.24" rx="5" ry="5"/><rect class="cls-8" x="39.5" y="162.7" width="202.11" height="50.24" rx="5" ry="5"/><rect class="cls-2" x="40" y="220.05" width="202.11" height="50.24" rx="5" ry="5"/><line class="cls-10" x1="241.87" y1="129.83" x2="256.14" y2="129.83"/><line class="cls-10" x1="241.73" y1="187.86" x2="256.14" y2="187.86"/><g><path class="cls-1" d="M74.53,64.74c1.23,0,2.2,.34,2.91,1.02,.71,.68,1.06,1.8,1.06,3.36v2.26c0,1.56-.36,2.68-1.09,3.37-.73,.69-1.71,1.03-2.95,1.03h-3.83v-11.04h3.89Zm1.4,8.6c.32-.42,.47-1.07,.47-1.97v-2.13c0-.94-.16-1.62-.46-2.04-.31-.42-.79-.63-1.42-.63h-1.78v7.39h1.78c.63,0,1.1-.21,1.42-.62Z"/><path class="cls-1" d="M83.39,76.51c-.21,.61-.52,1.05-.92,1.33-.4,.28-.93,.42-1.59,.42h-.69v-1.78h.62c.32,0,.56-.06,.71-.17,.15-.11,.28-.32,.38-.63l.03-.11-2.82-8.1h2.1l1.63,5.23,1.66-5.23h2.03l-3.15,9.04Z"/><path class="cls-1" d="M89.49,67.46v.75c.25-.28,.54-.49,.89-.63,.35-.14,.71-.22,1.08-.22,.85,0,1.51,.27,1.98,.8s.7,1.26,.7,2.19v5.43h-1.98v-5.19c0-.47-.12-.83-.35-1.09-.23-.26-.55-.38-.94-.38s-.7,.13-.95,.38-.38,.62-.38,1.09v5.19h-1.99v-8.32h1.94Z"/><path class="cls-1" d="M102.16,70.31v5.47h-1.92v-.72c-.28,.29-.56,.5-.86,.62-.29,.13-.66,.19-1.11,.19-.85,0-1.52-.23-1.99-.69-.47-.46-.7-1.09-.7-1.91,0-.75,.25-1.34,.75-1.77,.5-.43,1.2-.65,2.1-.65h1.76v-.66c0-.89-.44-1.33-1.33-1.33-.37,0-.67,.09-.89,.28-.22,.19-.33,.44-.33,.75v.05h-1.84v-.06c0-.78,.28-1.39,.83-1.85,.55-.45,1.3-.68,2.24-.68,1.06,0,1.87,.25,2.43,.74s.85,1.23,.85,2.2Zm-1.97,2.51v-.59h-1.44c-.83,0-1.25,.34-1.25,1.01s.41,1.04,1.22,1.04c.52,0,.9-.12,1.13-.36,.23-.24,.34-.61,.34-1.1Z"/><path class="cls-1" d="M105.82,67.46v.75c.25-.27,.54-.47,.89-.62s.71-.22,1.08-.22c.93,0,1.64,.35,2.13,1.04,.64-.69,1.42-1.04,2.35-1.04s1.58,.27,2.07,.8,.74,1.26,.74,2.19v5.43h-1.98v-5.19c0-.48-.12-.85-.36-1.1-.24-.25-.55-.38-.94-.38-.41,0-.73,.13-.97,.39-.24,.26-.36,.61-.36,1.03v5.23h-1.99v-5.19c0-.48-.12-.85-.36-1.1-.24-.25-.55-.38-.94-.38s-.71,.13-.96,.38c-.25,.26-.37,.62-.37,1.09v5.19h-1.98v-8.32h1.94Z"/><path class="cls-1" d="M118.88,64.74v1.58h-2.02v-1.58h2.02Zm-.02,2.72v8.32h-1.97v-8.32h1.97Z"/><path class="cls-1" d="M120.52,72.39v-1.55c0-1.18,.3-2.06,.9-2.62s1.43-.85,2.47-.85,1.83,.26,2.4,.78c.58,.52,.86,1.25,.86,2.18v.16h-1.89v-.1c0-.39-.12-.7-.36-.93-.24-.22-.57-.34-.98-.34-.96,0-1.44,.58-1.44,1.75v1.5c0,.63,.12,1.08,.38,1.34,.25,.27,.61,.4,1.06,.4,.42,0,.74-.11,.98-.32,.24-.21,.36-.51,.36-.9v-.1h1.89v.11c0,.92-.29,1.64-.86,2.17s-1.38,.79-2.4,.79-1.87-.28-2.47-.85-.9-1.45-.9-2.64Z"/><path class="cls-1" d="M134.43,64.74v9.22h4.83v1.83h-6.93v-11.04h2.1Z"/><path class="cls-1" d="M146.64,70.31v5.47h-1.92v-.72c-.28,.29-.56,.5-.86,.62-.29,.13-.66,.19-1.11,.19-.85,0-1.52-.23-1.99-.69-.47-.46-.7-1.09-.7-1.91,0-.75,.25-1.34,.75-1.77,.5-.43,1.2-.65,2.1-.65h1.76v-.66c0-.89-.44-1.33-1.33-1.33-.37,0-.67,.09-.89,.28-.22,.19-.33,.44-.33,.75v.05h-1.84v-.06c0-.78,.28-1.39,.83-1.85,.55-.45,1.3-.68,2.24-.68,1.06,0,1.87,.25,2.43,.74s.85,1.23,.85,2.2Zm-1.97,2.51v-.59h-1.44c-.83,0-1.25,.34-1.25,1.01s.41,1.04,1.22,1.04c.52,0,.9-.12,1.13-.36,.23-.24,.34-.61,.34-1.1Z"/><path class="cls-1" d="M150.3,67.46v.75c.25-.28,.54-.49,.89-.63,.35-.14,.71-.22,1.08-.22,.85,0,1.52,.27,1.99,.8,.47,.53,.7,1.26,.7,2.19v5.43h-1.99v-5.19c0-.47-.12-.83-.35-1.09-.24-.26-.55-.38-.94-.38s-.7,.13-.95,.38c-.25,.26-.38,.62-.38,1.09v5.19h-1.98v-8.32h1.94Z"/><path class="cls-1" d="M156.54,72.44v-1.65c0-1.15,.25-2.01,.76-2.58s1.17-.85,1.98-.85,1.48,.31,1.94,.94v-3.57h1.97v11.04h-1.94v-.77c-.46,.58-1.11,.86-1.95,.86s-1.46-.29-1.98-.86c-.52-.57-.78-1.43-.78-2.58Zm4.67-.06v-1.5c0-.57-.12-1-.36-1.3s-.57-.45-1-.45c-.89,0-1.33,.58-1.33,1.75v1.5c0,1.16,.43,1.74,1.28,1.74,.45,0,.79-.15,1.04-.45s.37-.73,.37-1.3Z"/><path class="cls-1" d="M164.54,73.32v-.06h1.86v.03c0,.31,.13,.55,.38,.73,.25,.18,.58,.26,.98,.26,.44,0,.78-.08,1.02-.23,.25-.16,.37-.39,.37-.7,0-.26-.09-.45-.27-.59-.18-.14-.49-.24-.91-.3l-.88-.14c-.83-.14-1.45-.39-1.84-.77-.39-.37-.59-.91-.59-1.6,0-.79,.29-1.42,.87-1.88,.58-.46,1.33-.7,2.23-.7,.62,0,1.17,.1,1.64,.31,.48,.21,.84,.5,1.1,.86,.26,.37,.39,.78,.39,1.24v.1h-1.84v-.05c0-.29-.12-.51-.34-.67-.23-.16-.55-.24-.95-.24s-.71,.08-.93,.24c-.21,.16-.32,.37-.32,.64,0,.25,.08,.44,.25,.58s.43,.23,.81,.29l.98,.14c.83,.12,1.46,.37,1.87,.77,.42,.4,.62,.94,.62,1.63,0,.85-.31,1.51-.93,1.98-.62,.46-1.42,.7-2.42,.7s-1.71-.23-2.29-.7c-.58-.46-.86-1.08-.86-1.86Z"/><path class="cls-1" d="M172.27,72.39v-1.55c0-1.18,.3-2.06,.9-2.62,.6-.57,1.43-.85,2.47-.85s1.82,.26,2.4,.78c.58,.52,.86,1.25,.86,2.18v.16h-1.89v-.1c0-.39-.12-.7-.36-.93-.24-.22-.57-.34-.98-.34-.96,0-1.44,.58-1.44,1.75v1.5c0,.63,.13,1.08,.38,1.34,.25,.27,.61,.4,1.06,.4,.42,0,.74-.11,.98-.32,.24-.21,.36-.51,.36-.9v-.1h1.89v.11c0,.92-.29,1.64-.86,2.17s-1.38,.79-2.4,.79-1.87-.28-2.47-.85c-.6-.57-.9-1.45-.9-2.64Z"/><path class="cls-1" d="M186.78,70.31v5.47h-1.92v-.72c-.28,.29-.56,.5-.86,.62-.29,.13-.66,.19-1.11,.19-.85,0-1.52-.23-1.99-.69-.47-.46-.7-1.09-.7-1.91,0-.75,.25-1.34,.75-1.77,.5-.43,1.2-.65,2.1-.65h1.76v-.66c0-.89-.44-1.33-1.33-1.33-.37,0-.67,.09-.89,.28-.22,.19-.33,.44-.33,.75v.05h-1.84v-.06c0-.78,.28-1.39,.83-1.85,.55-.45,1.3-.68,2.24-.68,1.06,0,1.87,.25,2.43,.74s.85,1.23,.85,2.2Zm-1.97,2.51v-.59h-1.44c-.83,0-1.25,.34-1.25,1.01s.41,1.04,1.22,1.04c.52,0,.9-.12,1.13-.36,.23-.24,.34-.61,.34-1.1Z"/><path class="cls-1" d="M190.44,67.46v.85c.49-.63,1.13-.94,1.91-.94,.83,0,1.51,.28,2.03,.85,.52,.57,.78,1.42,.78,2.58v1.65c0,1.15-.26,2.01-.78,2.58-.52,.57-1.18,.86-1.97,.86s-1.46-.28-1.92-.85v3.25h-1.98v-10.82h1.94Zm2.74,3.41c0-.62-.12-1.06-.36-1.34-.24-.27-.56-.41-.97-.41-.43,0-.76,.15-1.01,.45s-.37,.73-.37,1.3v1.5c0,.57,.12,1,.38,1.3s.6,.45,1.05,.45c.85,0,1.28-.58,1.28-1.74v-1.5Z"/><path class="cls-1" d="M198.57,72.44c0,.62,.14,1.06,.42,1.33s.67,.4,1.18,.4c.39,0,.7-.08,.93-.25,.22-.17,.35-.4,.37-.7l.02-.05h1.89v.08c0,.79-.29,1.42-.88,1.91-.59,.48-1.39,.72-2.4,.72-1.07,0-1.92-.31-2.54-.92s-.94-1.56-.94-2.84v-1.01c0-1.25,.3-2.18,.91-2.81,.61-.62,1.45-.94,2.51-.94s1.88,.31,2.49,.94c.61,.63,.92,1.56,.92,2.8v1.1h-4.87v.22Zm0-1.63v.05h2.88v-.21c0-1.06-.47-1.58-1.42-1.58-.47,0-.83,.13-1.08,.4s-.38,.71-.38,1.34Z"/><path class="cls-1" d="M204.73,73.32v-.06h1.86v.03c0,.31,.12,.55,.38,.73s.58,.26,.98,.26c.44,0,.78-.08,1.02-.23,.25-.16,.37-.39,.37-.7,0-.26-.09-.45-.27-.59s-.49-.24-.91-.3l-.88-.14c-.83-.14-1.45-.39-1.84-.77-.39-.37-.59-.91-.59-1.6,0-.79,.29-1.42,.87-1.88,.58-.46,1.33-.7,2.23-.7,.62,0,1.17,.1,1.64,.31s.84,.5,1.1,.86,.39,.78,.39,1.24v.1h-1.84v-.05c0-.29-.11-.51-.34-.67s-.55-.24-.95-.24-.71,.08-.93,.24c-.21,.16-.32,.37-.32,.64,0,.25,.08,.44,.25,.58,.17,.14,.44,.23,.81,.29l.98,.14c.83,.12,1.46,.37,1.87,.77,.42,.4,.62,.94,.62,1.63,0,.85-.31,1.51-.93,1.98-.62,.46-1.42,.7-2.42,.7s-1.71-.23-2.29-.7c-.58-.46-.86-1.08-.86-1.86Z"/></g><g><path class="cls-4" d="M100.25,25c1.3,0,2.33,.36,3.08,1.09,.75,.72,1.13,1.92,1.13,3.57v2.4c0,1.65-.38,2.85-1.16,3.58-.77,.73-1.81,1.1-3.13,1.1h-4.06v-11.73h4.13Zm1.49,9.13c.33-.44,.5-1.14,.5-2.09v-2.26c0-1-.16-1.72-.49-2.17-.33-.45-.83-.67-1.51-.67h-1.89v7.85h1.89c.67,0,1.17-.22,1.5-.66Z"/><path class="cls-4" d="M112.66,30.92v5.81h-2.04v-.76c-.29,.31-.6,.53-.91,.66-.31,.14-.71,.2-1.18,.2-.91,0-1.61-.24-2.11-.73-.5-.49-.75-1.16-.75-2.02,0-.79,.27-1.42,.8-1.88,.53-.46,1.27-.69,2.23-.69h1.87v-.7c0-.94-.47-1.41-1.41-1.41-.4,0-.71,.1-.94,.3-.23,.2-.35,.46-.35,.79v.05h-1.96v-.07c0-.83,.29-1.48,.88-1.96,.59-.48,1.38-.72,2.38-.72,1.12,0,1.98,.26,2.58,.79,.6,.53,.9,1.31,.9,2.34Zm-2.09,2.67v-.63h-1.53c-.88,0-1.33,.36-1.33,1.07s.43,1.11,1.29,1.11c.56,0,.96-.13,1.2-.38,.24-.25,.37-.64,.37-1.16Z"/><path class="cls-4" d="M117.23,34.04c0,.6,.29,.9,.87,.9h.66v1.79h-1c-.8,0-1.44-.23-1.91-.69-.47-.46-.71-1.08-.71-1.86v-4.81h-1.22v-1.48h1.22v-1.73l2.09-.73v2.46h1.7v1.48h-1.7v4.67Z"/><path class="cls-4" d="M126.9,30.92v5.81h-2.04v-.76c-.29,.31-.6,.53-.91,.66-.31,.14-.71,.2-1.18,.2-.91,0-1.61-.24-2.11-.73-.5-.49-.75-1.16-.75-2.02,0-.79,.27-1.42,.8-1.88,.53-.46,1.27-.69,2.23-.69h1.87v-.7c0-.94-.47-1.41-1.41-1.41-.4,0-.71,.1-.94,.3-.23,.2-.35,.46-.35,.79v.05h-1.96v-.07c0-.83,.29-1.48,.88-1.96,.59-.48,1.38-.72,2.38-.72,1.12,0,1.98,.26,2.58,.79,.6,.53,.9,1.31,.9,2.34Zm-2.09,2.67v-.63h-1.53c-.88,0-1.33,.36-1.33,1.07s.43,1.11,1.29,1.11c.56,0,.96-.13,1.2-.38,.24-.25,.37-.64,.37-1.16Z"/><path class="cls-4" d="M136.54,26.94v9.79h-2.24v-9.79h-2.99v-1.94h8.23v1.94h-2.99Z"/><path class="cls-4" d="M141.74,25v3.67c.26-.29,.57-.52,.92-.66,.35-.15,.73-.22,1.12-.22,.91,0,1.61,.28,2.11,.84,.5,.56,.75,1.34,.75,2.34v5.76h-2.11v-5.51c0-.51-.12-.9-.37-1.16s-.58-.4-1-.4-.75,.14-1.01,.41c-.27,.27-.4,.66-.4,1.16v5.51h-2.11v-11.73h2.11Z"/><path class="cls-4" d="M150.41,33.18c0,.66,.15,1.13,.44,1.41s.71,.42,1.26,.42c.42,0,.75-.09,.99-.26,.24-.18,.37-.42,.39-.74l.02-.05h2.01v.08c0,.84-.31,1.51-.93,2.02s-1.47,.76-2.55,.76c-1.13,0-2.03-.33-2.7-.98-.67-.65-1-1.66-1-3.02v-1.07c0-1.33,.32-2.32,.97-2.98,.65-.66,1.54-1,2.67-1s1.99,.33,2.64,1c.65,.67,.98,1.66,.98,2.97v1.17h-5.17v.24Zm0-1.73v.05h3.06v-.22c0-1.12-.5-1.68-1.51-1.68-.5,0-.88,.14-1.15,.43-.27,.28-.4,.76-.4,1.43Z"/><path class="cls-4" d="M159.32,27.89v.8c.26-.28,.58-.5,.94-.66s.75-.24,1.15-.24c.99,0,1.74,.37,2.26,1.11,.68-.74,1.51-1.11,2.5-1.11s1.67,.28,2.2,.85c.53,.57,.79,1.34,.79,2.33v5.76h-2.11v-5.51c0-.51-.13-.9-.38-1.16s-.59-.4-.99-.4c-.43,0-.77,.14-1.03,.42-.25,.28-.38,.64-.38,1.1v5.56h-2.11v-5.51c0-.51-.13-.9-.38-1.16s-.59-.4-.99-.4-.76,.14-1.02,.41c-.26,.27-.39,.66-.39,1.16v5.51h-2.11v-8.84h2.06Z"/><path class="cls-4" d="M172.94,33.18c0,.66,.15,1.13,.44,1.41s.71,.42,1.26,.42c.42,0,.75-.09,.99-.26,.24-.18,.37-.42,.39-.74l.02-.05h2.01v.08c0,.84-.31,1.51-.93,2.02s-1.47,.76-2.55,.76c-1.13,0-2.03-.33-2.7-.98-.67-.65-1-1.66-1-3.02v-1.07c0-1.33,.32-2.32,.97-2.98,.65-.66,1.54-1,2.67-1s1.99,.33,2.64,1c.65,.67,.98,1.66,.98,2.97v1.17h-5.17v.24Zm0-1.73v.05h3.06v-.22c0-1.12-.5-1.68-1.51-1.68-.5,0-.88,.14-1.15,.43-.27,.28-.4,.76-.4,1.43Z"/><path class="cls-4" d="M179.48,34.11v-.07h1.97v.03c0,.33,.13,.59,.4,.77,.27,.19,.61,.28,1.04,.28,.46,0,.83-.08,1.09-.25,.26-.16,.39-.41,.39-.74,0-.27-.1-.48-.29-.63-.19-.15-.52-.25-.97-.32l-.94-.15c-.88-.15-1.54-.42-1.96-.82-.42-.4-.63-.96-.63-1.7,0-.84,.31-1.5,.93-2,.62-.49,1.41-.74,2.37-.74,.66,0,1.24,.11,1.74,.33,.5,.22,.9,.53,1.17,.92,.28,.39,.42,.83,.42,1.32v.1h-1.96v-.05c0-.31-.12-.54-.37-.71-.24-.17-.58-.25-1.01-.25s-.76,.08-.99,.25-.34,.4-.34,.68c0,.26,.09,.46,.26,.61,.18,.15,.46,.25,.86,.31l1.04,.15c.88,.12,1.55,.4,1.99,.82,.44,.42,.66,1,.66,1.73,0,.91-.33,1.61-.99,2.1s-1.51,.74-2.57,.74-1.82-.25-2.43-.74c-.61-.49-.92-1.15-.92-1.98Z"/></g><g><path class="cls-1" d="M103.33,134.25h-2.1v-4.67h-3.67v4.67h-2.1v-11.04h2.1v4.55h3.67v-4.55h2.1v11.04Z"/><path class="cls-1" d="M108.69,134.97c-.21,.61-.52,1.05-.92,1.33-.4,.28-.93,.42-1.59,.42h-.69v-1.78h.62c.32,0,.56-.06,.71-.17,.15-.11,.28-.32,.38-.63l.03-.11-2.82-8.1h2.1l1.63,5.23,1.66-5.23h2.03l-3.15,9.04Z"/><path class="cls-1" d="M112.38,130.91v-1.65c0-1.15,.25-2.01,.76-2.58s1.17-.85,1.98-.85,1.48,.31,1.94,.94v-3.57h1.97v11.04h-1.94v-.77c-.46,.58-1.11,.86-1.95,.86s-1.46-.29-1.98-.86c-.52-.57-.78-1.43-.78-2.58Zm4.67-.06v-1.5c0-.57-.12-1-.36-1.3s-.57-.45-1-.45c-.89,0-1.33,.58-1.33,1.75v1.5c0,1.16,.43,1.74,1.28,1.74,.45,0,.79-.15,1.04-.45s.37-.73,.37-1.3Z"/><path class="cls-1" d="M122.68,125.93v.86c.2-.35,.47-.61,.82-.78s.73-.26,1.15-.26c.25,0,.47,.02,.67,.06v1.86c-.37-.12-.71-.18-.99-.18-.48,0-.87,.15-1.16,.46-.29,.3-.44,.74-.44,1.3v4.99h-1.98v-8.32h1.94Z"/><path class="cls-1" d="M126.01,130.86v-1.55c0-1.18,.3-2.06,.9-2.62s1.43-.85,2.47-.85,1.85,.28,2.45,.85,.9,1.44,.9,2.62v1.55c0,1.2-.3,2.08-.9,2.64s-1.41,.85-2.45,.85-1.87-.28-2.47-.85-.9-1.45-.9-2.64Zm4.75-1.52c0-1.16-.46-1.75-1.38-1.75s-1.41,.58-1.41,1.75v1.5c0,1.16,.47,1.74,1.41,1.74s1.38-.58,1.38-1.74v-1.5Z"/><path class="cls-1" d="M134.28,134.46h1.9c.05,.26,.19,.46,.42,.62,.23,.16,.53,.23,.9,.23,.91,0,1.36-.51,1.36-1.54v-1.02c-.46,.58-1.11,.86-1.95,.86s-1.46-.29-1.98-.86c-.52-.57-.78-1.43-.78-2.58v-.91c0-1.15,.25-2.01,.76-2.58s1.17-.85,1.98-.85,1.48,.31,1.94,.94v-.85h1.97v7.71c0,.99-.3,1.78-.9,2.36-.6,.58-1.42,.87-2.48,.87-.97,0-1.73-.21-2.27-.64-.54-.43-.83-1.02-.89-1.78Zm4.56-4.35v-.77c0-.57-.12-1-.36-1.3s-.57-.45-1-.45c-.89,0-1.33,.58-1.33,1.75v.77c0,1.16,.43,1.74,1.28,1.74,.45,0,.79-.15,1.04-.45,.25-.3,.37-.73,.37-1.3Z"/><path class="cls-1" d="M144.36,130.91c0,.62,.14,1.06,.42,1.33s.67,.4,1.18,.4c.39,0,.7-.08,.93-.25,.22-.17,.35-.4,.37-.7l.02-.05h1.89v.08c0,.79-.29,1.42-.88,1.91-.59,.48-1.39,.72-2.4,.72-1.07,0-1.92-.31-2.54-.92s-.94-1.56-.94-2.84v-1.01c0-1.25,.3-2.18,.91-2.81,.61-.62,1.45-.94,2.51-.94s1.88,.31,2.49,.94c.61,.63,.92,1.56,.92,2.8v1.1h-4.87v.22Zm0-1.63v.05h2.88v-.21c0-1.06-.47-1.58-1.42-1.58-.47,0-.83,.13-1.08,.4s-.38,.71-.38,1.34Z"/><path class="cls-1" d="M150.67,130.86v-1.55c0-1.18,.3-2.06,.9-2.62s1.43-.85,2.47-.85,1.85,.28,2.45,.85,.9,1.44,.9,2.62v1.55c0,1.2-.3,2.08-.9,2.64s-1.41,.85-2.45,.85-1.87-.28-2.47-.85-.9-1.45-.9-2.64Zm4.75-1.52c0-1.16-.46-1.75-1.38-1.75s-1.41,.58-1.41,1.75v1.5c0,1.16,.47,1.74,1.41,1.74s1.38-.58,1.38-1.74v-1.5Z"/><path class="cls-1" d="M158.97,131.72v-8.52h1.98v8.39c0,.34,.06,.58,.18,.73,.12,.14,.32,.22,.6,.22h.67v1.71h-.91c-.8,0-1.42-.22-1.87-.66-.44-.44-.66-1.06-.66-1.87Z"/><path class="cls-1" d="M163.42,130.86v-1.55c0-1.18,.3-2.06,.9-2.62,.6-.57,1.43-.85,2.47-.85s1.85,.28,2.45,.85c.6,.57,.9,1.44,.9,2.62v1.55c0,1.2-.3,2.08-.9,2.64-.6,.57-1.41,.85-2.45,.85s-1.87-.28-2.47-.85c-.6-.57-.9-1.45-.9-2.64Zm4.75-1.52c0-1.16-.46-1.75-1.38-1.75s-1.41,.58-1.41,1.75v1.5c0,1.16,.47,1.74,1.41,1.74s1.38-.58,1.38-1.74v-1.5Z"/><path class="cls-1" d="M171.69,134.46h1.9c.05,.26,.19,.46,.42,.62,.23,.16,.53,.23,.9,.23,.91,0,1.36-.51,1.36-1.54v-1.02c-.46,.58-1.11,.86-1.95,.86s-1.46-.29-1.98-.86c-.52-.57-.78-1.43-.78-2.58v-.91c0-1.15,.25-2.01,.76-2.58s1.17-.85,1.98-.85,1.48,.31,1.94,.94v-.85h1.97v7.71c0,.99-.3,1.78-.9,2.36-.6,.58-1.42,.87-2.48,.87-.97,0-1.73-.21-2.27-.64-.54-.43-.83-1.02-.89-1.78Zm4.56-4.35v-.77c0-.57-.12-1-.36-1.3s-.57-.45-1-.45c-.89,0-1.33,.58-1.33,1.75v.77c0,1.16,.43,1.74,1.28,1.74,.45,0,.79-.15,1.04-.45,.25-.3,.37-.73,.37-1.3Z"/><path class="cls-1" d="M183.26,134.97c-.21,.61-.52,1.05-.92,1.33-.4,.28-.93,.42-1.59,.42h-.69v-1.78h.62c.32,0,.56-.06,.71-.17,.15-.11,.28-.32,.38-.63l.03-.11-2.82-8.1h2.1l1.63,5.23,1.66-5.23h2.03l-3.15,9.04Z"/></g><g><path class="cls-1" d="M93.44,187.85v4.48h-2.1v-11.04h4.19c1.08,0,1.94,.3,2.58,.89,.64,.59,.96,1.4,.96,2.41,0,.73-.17,1.34-.5,1.84-.34,.5-.82,.87-1.45,1.1l2.4,4.8h-2.42l-2.1-4.48h-1.57Zm1.99-1.75c.49,0,.87-.13,1.14-.39,.27-.26,.41-.64,.41-1.13,0-.45-.14-.81-.42-1.07s-.66-.4-1.14-.4h-1.99v2.99h1.99Z"/><path class="cls-1" d="M102.77,181.29v1.58h-2.02v-1.58h2.02Zm-.02,2.72v8.32h-1.97v-8.32h1.97Z"/><path class="cls-1" d="M105.7,184.01l1.62,5.28,1.6-5.28h2.1l-2.9,8.32h-1.63l-2.88-8.32h2.1Z"/><path class="cls-1" d="M113.52,188.98c0,.62,.14,1.06,.42,1.33,.28,.27,.67,.4,1.18,.4,.4,0,.71-.08,.93-.25,.22-.17,.35-.4,.37-.7l.02-.05h1.89v.08c0,.79-.29,1.42-.88,1.91-.59,.48-1.39,.72-2.4,.72-1.07,0-1.92-.31-2.54-.92-.63-.61-.94-1.56-.94-2.84v-1.01c0-1.25,.3-2.18,.91-2.81,.61-.62,1.45-.94,2.51-.94s1.88,.31,2.49,.94c.61,.63,.92,1.56,.92,2.8v1.1h-4.87v.22Zm0-1.63v.05h2.88v-.21c0-1.06-.48-1.58-1.42-1.58-.47,0-.83,.13-1.08,.4-.25,.27-.38,.71-.38,1.34Z"/><path class="cls-1" d="M121.91,184.01v.86c.2-.35,.47-.61,.82-.78s.73-.26,1.15-.26c.25,0,.47,.02,.67,.06v1.86c-.37-.12-.71-.18-.99-.18-.48,0-.87,.15-1.16,.46-.29,.3-.44,.74-.44,1.3v4.99h-1.98v-8.32h1.94Z"/><path class="cls-1" d="M129.3,185.53c0-2.93,1.35-4.4,4.05-4.4,1.21,0,2.17,.32,2.88,.96,.72,.64,1.07,1.54,1.07,2.71v.11h-2.1v-.1c0-.57-.16-1.01-.49-1.34-.33-.33-.79-.5-1.38-.5-.67,0-1.16,.21-1.46,.62s-.46,1.1-.46,2.05v2.38c0,.9,.16,1.55,.47,1.95,.32,.41,.81,.61,1.48,.61,.6,0,1.05-.16,1.37-.48s.47-.76,.47-1.31v-.13h2.07v.11c0,1.18-.35,2.09-1.06,2.73s-1.67,.95-2.9,.95c-2.68,0-4.02-1.47-4.02-4.4v-2.53Z"/><path class="cls-1" d="M138.58,188.94v-1.55c0-1.18,.3-2.06,.9-2.62,.6-.57,1.43-.85,2.47-.85s1.85,.28,2.45,.85c.6,.57,.9,1.44,.9,2.62v1.55c0,1.2-.3,2.08-.9,2.64-.6,.57-1.41,.85-2.45,.85s-1.87-.28-2.47-.85c-.6-.57-.9-1.45-.9-2.64Zm4.75-1.52c0-1.16-.46-1.75-1.38-1.75s-1.41,.58-1.41,1.75v1.5c0,1.16,.47,1.74,1.41,1.74s1.38-.58,1.38-1.74v-1.5Z"/><path class="cls-1" d="M148.82,184.01v.86c.2-.35,.47-.61,.82-.78,.34-.17,.73-.26,1.15-.26,.25,0,.47,.02,.67,.06v1.86c-.37-.12-.7-.18-.99-.18-.48,0-.87,.15-1.16,.46-.29,.3-.44,.74-.44,1.3v4.99h-1.99v-8.32h1.94Z"/><path class="cls-1" d="M154.55,184.01v.86c.2-.35,.47-.61,.82-.78s.73-.26,1.15-.26c.25,0,.47,.02,.67,.06v1.86c-.37-.12-.71-.18-.99-.18-.48,0-.87,.15-1.16,.46-.29,.3-.44,.74-.44,1.3v4.99h-1.98v-8.32h1.94Z"/><path class="cls-1" d="M160.4,181.29v1.58h-2.02v-1.58h2.02Zm-.02,2.72v8.32h-1.97v-8.32h1.97Z"/><path class="cls-1" d="M162.05,188.98v-1.65c0-1.15,.25-2.01,.76-2.58s1.17-.85,1.98-.85,1.48,.31,1.94,.94v-3.57h1.97v11.04h-1.94v-.77c-.46,.58-1.11,.86-1.95,.86s-1.46-.29-1.98-.86c-.52-.57-.78-1.43-.78-2.58Zm4.67-.06v-1.5c0-.57-.12-1-.36-1.3s-.57-.45-1-.45c-.89,0-1.33,.58-1.33,1.75v1.5c0,1.16,.43,1.74,1.28,1.74,.45,0,.79-.15,1.04-.45s.37-.73,.37-1.3Z"/><path class="cls-1" d="M170.27,188.94v-1.55c0-1.18,.3-2.06,.9-2.62,.6-.57,1.43-.85,2.47-.85s1.85,.28,2.45,.85c.6,.57,.9,1.44,.9,2.62v1.55c0,1.2-.3,2.08-.9,2.64-.6,.57-1.41,.85-2.45,.85s-1.87-.28-2.47-.85c-.6-.57-.9-1.45-.9-2.64Zm4.75-1.52c0-1.16-.46-1.75-1.38-1.75s-1.41,.58-1.41,1.75v1.5c0,1.16,.47,1.74,1.41,1.74s1.38-.58,1.38-1.74v-1.5Z"/><path class="cls-1" d="M180.52,184.01v.86c.2-.35,.47-.61,.82-.78,.34-.17,.73-.26,1.15-.26,.25,0,.47,.02,.67,.06v1.86c-.37-.12-.7-.18-.99-.18-.48,0-.87,.15-1.16,.46-.29,.3-.44,.74-.44,1.3v4.99h-1.99v-8.32h1.94Z"/><path class="cls-1" d="M184.02,189.87v-.06h1.86v.03c0,.31,.13,.55,.38,.73,.25,.18,.58,.26,.98,.26,.44,0,.78-.08,1.02-.23,.25-.16,.37-.39,.37-.7,0-.26-.09-.45-.27-.59-.18-.14-.49-.24-.91-.3l-.88-.14c-.83-.14-1.45-.39-1.84-.77-.39-.37-.59-.91-.59-1.6,0-.79,.29-1.42,.87-1.88,.58-.46,1.33-.7,2.23-.7,.62,0,1.17,.1,1.64,.31,.48,.21,.84,.5,1.1,.86,.26,.37,.39,.78,.39,1.24v.1h-1.84v-.05c0-.29-.11-.51-.34-.67s-.55-.24-.95-.24-.71,.08-.93,.24c-.21,.16-.32,.37-.32,.64,0,.25,.08,.44,.25,.58s.43,.23,.81,.29l.98,.14c.83,.12,1.46,.37,1.87,.77,.42,.4,.62,.94,.62,1.63,0,.85-.31,1.51-.93,1.98-.62,.46-1.42,.7-2.42,.7s-1.71-.23-2.29-.7c-.58-.46-.86-1.08-.86-1.86Z"/></g><g><path class="cls-1" d="M86.95,245.11v4.48h-2.1v-11.04h4.19c1.08,0,1.94,.3,2.58,.89,.64,.59,.96,1.4,.96,2.41,0,.73-.17,1.34-.5,1.84-.34,.5-.82,.87-1.45,1.1l2.4,4.8h-2.42l-2.1-4.48h-1.57Zm1.99-1.75c.49,0,.87-.13,1.14-.39,.27-.26,.41-.64,.41-1.13,0-.45-.14-.81-.42-1.07s-.66-.4-1.14-.4h-1.99v2.99h1.99Z"/><path class="cls-1" d="M95.8,246.25c0,.62,.14,1.06,.42,1.33,.28,.27,.67,.4,1.18,.4,.4,0,.71-.08,.93-.25,.22-.17,.35-.4,.37-.7l.02-.05h1.89v.08c0,.79-.29,1.42-.88,1.91-.59,.48-1.39,.72-2.4,.72-1.07,0-1.92-.31-2.54-.92-.63-.61-.94-1.56-.94-2.84v-1.01c0-1.25,.3-2.18,.91-2.81,.61-.62,1.45-.94,2.51-.94s1.88,.31,2.49,.94c.61,.63,.92,1.56,.92,2.8v1.1h-4.87v.22Zm0-1.63v.05h2.88v-.21c0-1.06-.48-1.58-1.42-1.58-.47,0-.83,.13-1.08,.4-.25,.27-.38,.71-.38,1.34Z"/><path class="cls-1" d="M104.57,240.69v.58h1.49v1.39h-1.49v6.93h-1.97v-6.93h-.88v-1.39h.88v-.5c0-.7,.2-1.25,.6-1.64s.97-.58,1.71-.58h1.15v1.34h-.66c-.29,0-.5,.07-.63,.2-.13,.13-.2,.33-.2,.6Z"/><path class="cls-1" d="M108.7,246.25c0,.62,.14,1.06,.42,1.33,.28,.27,.67,.4,1.18,.4,.4,0,.71-.08,.93-.25,.22-.17,.35-.4,.37-.7l.02-.05h1.89v.08c0,.79-.29,1.42-.88,1.91-.59,.48-1.39,.72-2.4,.72-1.07,0-1.92-.31-2.54-.92-.63-.61-.94-1.56-.94-2.84v-1.01c0-1.25,.3-2.18,.91-2.81,.61-.62,1.45-.94,2.51-.94s1.88,.31,2.49,.94c.61,.63,.92,1.56,.92,2.8v1.1h-4.87v.22Zm0-1.63v.05h2.88v-.21c0-1.06-.48-1.58-1.42-1.58-.47,0-.83,.13-1.08,.4-.25,.27-.38,.71-.38,1.34Z"/><path class="cls-1" d="M117.08,241.27v.86c.2-.35,.47-.61,.82-.78s.73-.26,1.15-.26c.25,0,.47,.02,.67,.06v1.86c-.37-.12-.71-.18-.99-.18-.48,0-.87,.15-1.16,.46-.29,.3-.44,.74-.44,1.3v4.99h-1.98v-8.32h1.94Z"/><path class="cls-1" d="M122.38,246.25c0,.62,.14,1.06,.42,1.33,.28,.27,.67,.4,1.18,.4,.4,0,.71-.08,.93-.25,.22-.17,.35-.4,.37-.7l.02-.05h1.89v.08c0,.79-.29,1.42-.88,1.91-.59,.48-1.39,.72-2.4,.72-1.07,0-1.92-.31-2.54-.92-.63-.61-.94-1.56-.94-2.84v-1.01c0-1.25,.3-2.18,.91-2.81,.61-.62,1.45-.94,2.51-.94s1.88,.31,2.49,.94c.61,.63,.92,1.56,.92,2.8v1.1h-4.87v.22Zm0-1.63v.05h2.88v-.21c0-1.06-.48-1.58-1.42-1.58-.47,0-.83,.13-1.08,.4-.25,.27-.38,.71-.38,1.34Z"/><path class="cls-1" d="M130.76,241.27v.75c.25-.28,.54-.49,.89-.63,.35-.14,.71-.22,1.08-.22,.85,0,1.51,.27,1.98,.8s.7,1.26,.7,2.19v5.43h-1.98v-5.19c0-.47-.12-.83-.35-1.09-.23-.26-.55-.38-.94-.38s-.7,.13-.95,.38-.38,.62-.38,1.09v5.19h-1.99v-8.32h1.94Z"/><path class="cls-1" d="M137,246.2v-1.55c0-1.18,.3-2.06,.9-2.62,.6-.57,1.43-.85,2.47-.85s1.82,.26,2.4,.78c.58,.52,.86,1.25,.86,2.18v.16h-1.89v-.1c0-.39-.12-.7-.36-.93-.24-.22-.57-.34-.98-.34-.96,0-1.44,.58-1.44,1.75v1.5c0,.63,.13,1.08,.38,1.34,.25,.27,.61,.4,1.06,.4,.42,0,.74-.11,.98-.32,.24-.21,.36-.51,.36-.9v-.1h1.89v.11c0,.92-.29,1.64-.86,2.17s-1.38,.79-2.4,.79-1.87-.28-2.47-.85c-.6-.57-.9-1.45-.9-2.64Z"/><path class="cls-1" d="M147.05,246.25c0,.62,.14,1.06,.42,1.33,.28,.27,.67,.4,1.18,.4,.4,0,.71-.08,.93-.25,.22-.17,.35-.4,.37-.7l.02-.05h1.89v.08c0,.79-.29,1.42-.88,1.91-.59,.48-1.39,.72-2.4,.72-1.07,0-1.92-.31-2.54-.92-.63-.61-.94-1.56-.94-2.84v-1.01c0-1.25,.3-2.18,.91-2.81,.61-.62,1.45-.94,2.51-.94s1.88,.31,2.49,.94c.61,.63,.92,1.56,.92,2.8v1.1h-4.87v.22Zm0-1.63v.05h2.88v-.21c0-1.06-.48-1.58-1.42-1.58-.47,0-.83,.13-1.08,.4-.25,.27-.38,.71-.38,1.34Z"/><path class="cls-1" d="M159.18,243.21h4.21v1.83h-4.21v4.56h-2.1v-11.04h7.01v1.83h-4.91v2.83Z"/><path class="cls-1" d="M170.99,244.12v5.47h-1.92v-.72c-.28,.29-.56,.5-.86,.62-.29,.13-.67,.19-1.11,.19-.85,0-1.51-.23-1.98-.69-.47-.46-.7-1.09-.7-1.91,0-.75,.25-1.34,.75-1.77,.5-.43,1.2-.65,2.1-.65h1.76v-.66c0-.89-.44-1.33-1.33-1.33-.37,0-.67,.09-.89,.28-.22,.19-.33,.44-.33,.75v.05h-1.84v-.06c0-.78,.28-1.39,.83-1.85,.55-.45,1.3-.68,2.24-.68,1.06,0,1.87,.25,2.43,.74s.85,1.23,.85,2.2Zm-1.97,2.51v-.59h-1.44c-.83,0-1.25,.34-1.25,1.01s.41,1.04,1.22,1.04c.52,0,.9-.12,1.13-.36,.23-.24,.34-.61,.34-1.1Z"/><path class="cls-1" d="M174.65,249.59h-1.94v-11.04h1.98v3.57c.46-.63,1.08-.94,1.86-.94,.83,0,1.51,.28,2.03,.85,.52,.57,.78,1.42,.78,2.58v1.65c0,1.15-.26,2.01-.78,2.58-.52,.57-1.18,.86-1.97,.86-.84,0-1.5-.29-1.97-.86v.77Zm2.74-4.91c0-.62-.12-1.06-.36-1.34-.24-.27-.56-.41-.97-.41-.43,0-.76,.15-1.01,.45s-.37,.73-.37,1.3v1.5c0,.57,.12,1,.38,1.3s.6,.45,1.05,.45c.85,0,1.28-.58,1.28-1.74v-1.5Z"/><path class="cls-1" d="M182.89,241.27v.86c.2-.35,.47-.61,.82-.78s.73-.26,1.15-.26c.25,0,.47,.02,.67,.06v1.86c-.37-.12-.71-.18-.99-.18-.48,0-.87,.15-1.16,.46-.29,.3-.44,.74-.44,1.3v4.99h-1.98v-8.32h1.94Z"/><path class="cls-1" d="M188.74,238.55v1.58h-2.02v-1.58h2.02Zm-.02,2.72v8.32h-1.97v-8.32h1.97Z"/><path class="cls-1" d="M190.39,246.2v-1.55c0-1.18,.3-2.06,.9-2.62,.6-.57,1.43-.85,2.47-.85s1.82,.26,2.4,.78c.58,.52,.86,1.25,.86,2.18v.16h-1.89v-.1c0-.39-.12-.7-.36-.93-.24-.22-.57-.34-.98-.34-.96,0-1.44,.58-1.44,1.75v1.5c0,.63,.13,1.08,.38,1.34,.25,.27,.61,.4,1.06,.4,.42,0,.74-.11,.98-.32,.24-.21,.36-.51,.36-.9v-.1h1.89v.11c0,.92-.29,1.64-.86,2.17s-1.38,.79-2.4,.79-1.87-.28-2.47-.85c-.6-.57-.9-1.45-.9-2.64Z"/></g><rect class="cls-5" x="327.6" y="127.49" width="238.72" height="61.55"/><path class="cls-6" d="M327.6,188.82h238.72v56.55c0,2.76-2.24,5-5,5h-228.72c-2.76,0-5-2.24-5-5v-56.55h0Z"/><path class="cls-7" d="M332.6,66.38h228.72c2.76,0,5,2.24,5,5v56.55h-238.72v-56.55c0-2.76,2.24-5,5-5Z"/><line class="cls-9" x1="327.6" y1="127.93" x2="566.32" y2="127.93"/><line class="cls-9" x1="327.6" y1="188.82" x2="566.32" y2="188.82"/><g><path class="cls-1" d="M411.15,218.16h4.72v2.05h-4.72v3.19h5.53v2.05h-7.89v-12.42h7.89v2.05h-5.53v3.08Z"/><path class="cls-1" d="M420.45,216.09v.85c.28-.31,.61-.55,1-.71,.39-.16,.79-.24,1.21-.24,.96,0,1.71,.3,2.23,.9,.53,.6,.79,1.42,.79,2.47v6.1h-2.23v-5.83c0-.53-.13-.94-.4-1.22-.26-.29-.62-.43-1.06-.43s-.79,.14-1.07,.43c-.28,.29-.42,.7-.42,1.22v5.83h-2.23v-9.36h2.18Z"/><path class="cls-1" d="M430.53,222.61c0,.64,.31,.95,.92,.95h.7v1.89h-1.06c-.85,0-1.53-.24-2.03-.73-.5-.49-.75-1.14-.75-1.97v-5.09h-1.3v-1.57h1.3v-1.84l2.21-.77v2.61h1.8v1.57h-1.8v4.95Z"/><path class="cls-1" d="M435.66,221.69c0,.7,.16,1.19,.47,1.49,.31,.3,.76,.45,1.33,.45,.44,0,.79-.09,1.04-.28,.25-.19,.39-.45,.41-.78l.02-.05h2.12v.09c0,.89-.33,1.6-.99,2.14s-1.56,.81-2.7,.81c-1.2,0-2.15-.35-2.86-1.04-.71-.69-1.06-1.75-1.06-3.2v-1.13c0-1.4,.34-2.46,1.03-3.16,.68-.7,1.63-1.05,2.83-1.05s2.11,.35,2.8,1.06c.69,.71,1.04,1.76,1.04,3.15v1.24h-5.47v.25Zm0-1.84v.05h3.24v-.23c0-1.19-.53-1.78-1.6-1.78-.53,0-.93,.15-1.21,.45s-.42,.8-.42,1.51Z"/><path class="cls-1" d="M445.1,216.09v.97c.23-.4,.53-.69,.92-.88,.38-.19,.82-.29,1.3-.29,.28,0,.53,.02,.76,.07v2.09c-.42-.13-.79-.2-1.12-.2-.54,0-.98,.17-1.31,.51s-.5,.83-.5,1.47v5.62h-2.23v-9.36h2.18Z"/><path class="cls-1" d="M451.54,216.09v.96c.55-.71,1.27-1.06,2.14-1.06,.94,0,1.7,.32,2.29,.95,.59,.64,.88,1.6,.88,2.9v1.85c0,1.3-.29,2.27-.88,2.91-.59,.64-1.33,.96-2.21,.96s-1.64-.32-2.16-.96v3.66h-2.23v-12.17h2.18Zm3.08,3.84c0-.7-.13-1.2-.4-1.5-.27-.31-.63-.46-1.09-.46-.48,0-.86,.17-1.13,.5-.28,.34-.41,.82-.41,1.46v1.69c0,.64,.14,1.12,.42,1.46s.67,.5,1.18,.5c.96,0,1.44-.65,1.44-1.96v-1.69Z"/><path class="cls-1" d="M460.81,216.09v.97c.23-.4,.53-.69,.92-.88,.38-.19,.82-.29,1.3-.29,.28,0,.53,.02,.76,.07v2.09c-.42-.13-.79-.2-1.12-.2-.54,0-.98,.17-1.31,.51s-.5,.83-.5,1.47v5.62h-2.23v-9.36h2.18Z"/><path class="cls-1" d="M467.4,213.03v1.78h-2.27v-1.78h2.27Zm-.02,3.06v9.36h-2.21v-9.36h2.21Z"/><path class="cls-1" d="M469,222.68v-.07h2.09v.04c0,.35,.14,.62,.42,.82,.28,.2,.65,.3,1.11,.3,.49,0,.88-.09,1.15-.26,.28-.17,.41-.44,.41-.78,0-.29-.1-.51-.31-.67-.2-.16-.55-.27-1.03-.34l-.99-.16c-.94-.16-1.63-.44-2.07-.86s-.67-1.02-.67-1.8c0-.89,.33-1.59,.98-2.12s1.49-.78,2.51-.78c.7,0,1.31,.12,1.85,.35,.53,.23,.95,.56,1.24,.97s.44,.88,.44,1.4v.11h-2.07v-.05c0-.32-.13-.58-.39-.76-.26-.18-.62-.27-1.07-.27s-.8,.09-1.04,.27c-.24,.18-.36,.42-.36,.72,0,.28,.09,.49,.28,.65,.19,.16,.49,.26,.91,.32l1.1,.16c.94,.13,1.64,.42,2.11,.86,.47,.44,.7,1.06,.7,1.84,0,.96-.35,1.7-1.04,2.22-.7,.52-1.6,.78-2.72,.78s-1.93-.26-2.58-.78c-.65-.52-.97-1.22-.97-2.1Z"/><path class="cls-1" d="M479.91,221.69c0,.7,.16,1.19,.47,1.49,.31,.3,.76,.45,1.33,.45,.44,0,.79-.09,1.04-.28,.25-.19,.39-.45,.41-.78l.02-.05h2.12v.09c0,.89-.33,1.6-.99,2.14s-1.56,.81-2.7,.81c-1.2,0-2.15-.35-2.86-1.04-.71-.69-1.06-1.75-1.06-3.2v-1.13c0-1.4,.34-2.46,1.03-3.16,.68-.7,1.63-1.05,2.83-1.05s2.11,.35,2.8,1.06c.69,.71,1.04,1.76,1.04,3.15v1.24h-5.47v.25Zm0-1.84v.05h3.24v-.23c0-1.19-.53-1.78-1.6-1.78-.53,0-.93,.15-1.21,.45s-.42,.8-.42,1.51Z"/></g><g><path class="cls-1" d="M418.74,94.89c0-3.3,1.52-4.95,4.56-4.95,1.36,0,2.44,.36,3.24,1.08,.8,.72,1.21,1.73,1.21,3.04v.13h-2.36v-.11c0-.64-.18-1.14-.55-1.51s-.89-.56-1.56-.56c-.76,0-1.31,.23-1.65,.7s-.51,1.24-.51,2.3v2.68c0,1.01,.18,1.74,.53,2.2,.35,.46,.91,.68,1.67,.68,.67,0,1.19-.18,1.54-.54,.35-.36,.53-.85,.53-1.48v-.14h2.32v.13c0,1.33-.4,2.36-1.19,3.07-.79,.71-1.88,1.07-3.26,1.07-3.01,0-4.52-1.65-4.52-4.95v-2.84Z"/><path class="cls-1" d="M436.42,96.38v6.16h-2.16v-.81c-.31,.32-.63,.56-.96,.7-.33,.14-.75,.22-1.25,.22-.96,0-1.7-.26-2.23-.77-.53-.52-.79-1.23-.79-2.14,0-.84,.28-1.5,.85-1.99,.56-.49,1.35-.73,2.36-.73h1.98v-.74c0-1-.5-1.5-1.5-1.5-.42,0-.75,.11-1,.32s-.37,.49-.37,.84v.05h-2.07v-.07c0-.88,.31-1.57,.94-2.08,.62-.51,1.46-.76,2.52-.76,1.19,0,2.1,.28,2.74,.84,.64,.56,.96,1.38,.96,2.48Zm-2.21,2.83v-.67h-1.62c-.94,0-1.4,.38-1.4,1.13s.46,1.17,1.37,1.17c.59,0,1.01-.13,1.27-.41,.26-.27,.39-.68,.39-1.23Z"/><path class="cls-1" d="M441.26,99.69c0,.64,.31,.95,.92,.95h.7v1.89h-1.06c-.85,0-1.53-.24-2.03-.73-.5-.49-.75-1.14-.75-1.97v-5.09h-1.3v-1.57h1.3v-1.84l2.21-.77v2.61h1.8v1.57h-1.8v4.95Z"/><path class="cls-1" d="M451.51,96.38v6.16h-2.16v-.81c-.31,.32-.63,.56-.96,.7-.33,.14-.75,.22-1.25,.22-.96,0-1.7-.26-2.23-.77-.53-.52-.79-1.23-.79-2.14,0-.84,.28-1.5,.85-1.99,.56-.49,1.35-.73,2.36-.73h1.98v-.74c0-1-.5-1.5-1.5-1.5-.42,0-.75,.11-1,.32s-.37,.49-.37,.84v.05h-2.07v-.07c0-.88,.31-1.57,.94-2.08,.62-.51,1.46-.76,2.52-.76,1.19,0,2.1,.28,2.74,.84,.64,.56,.96,1.38,.96,2.48Zm-2.21,2.83v-.67h-1.62c-.94,0-1.4,.38-1.4,1.13s.46,1.17,1.37,1.17c.59,0,1.01-.13,1.27-.41,.26-.27,.39-.68,.39-1.23Z"/><path class="cls-1" d="M453.45,99.69v-9.58h2.23v9.43c0,.38,.07,.66,.21,.82s.36,.24,.67,.24h.76v1.93h-1.03c-.9,0-1.6-.25-2.1-.74s-.75-1.19-.75-2.11Z"/><path class="cls-1" d="M458.45,98.72v-1.75c0-1.33,.34-2.32,1.02-2.95,.68-.64,1.61-.95,2.78-.95s2.08,.32,2.75,.95c.67,.64,1.01,1.62,1.01,2.95v1.75c0,1.34-.34,2.33-1.01,2.97-.67,.64-1.59,.96-2.75,.96s-2.1-.32-2.78-.96c-.68-.64-1.02-1.63-1.02-2.97Zm5.35-1.71c0-1.31-.52-1.96-1.55-1.96s-1.58,.65-1.58,1.96v1.69c0,1.31,.53,1.96,1.58,1.96s1.55-.65,1.55-1.96v-1.69Z"/><path class="cls-1" d="M467.76,102.77h2.14c.06,.29,.22,.52,.48,.69,.26,.17,.6,.26,1.02,.26,1.02,0,1.53-.58,1.53-1.73v-1.15c-.52,.65-1.25,.97-2.2,.97s-1.64-.32-2.22-.96-.87-1.61-.87-2.91v-1.03c0-1.3,.29-2.26,.85-2.9,.57-.64,1.31-.95,2.22-.95s1.66,.35,2.18,1.06v-.96h2.21v8.68c0,1.12-.34,2-1.01,2.66-.67,.65-1.6,.98-2.79,.98-1.09,0-1.94-.24-2.55-.72-.61-.48-.94-1.15-1-2Zm5.13-4.9v-.86c0-.64-.13-1.12-.4-1.46-.27-.34-.65-.5-1.13-.5-1,0-1.49,.65-1.49,1.96v.86c0,1.31,.48,1.96,1.44,1.96,.5,0,.89-.17,1.17-.5,.28-.34,.41-.82,.41-1.46Z"/></g><g><path class="cls-1" d="M432.72,153.96v10.37h-2.38v-10.37h-3.17v-2.05h8.71v2.05h-3.17Z"/><path class="cls-1" d="M435.6,160.52v-1.75c0-1.33,.34-2.32,1.02-2.95,.68-.64,1.61-.95,2.78-.95s2.08,.32,2.75,.95c.67,.64,1.01,1.62,1.01,2.95v1.75c0,1.34-.34,2.33-1.01,2.97-.67,.64-1.59,.96-2.75,.96s-2.1-.32-2.78-.96c-.68-.64-1.02-1.63-1.02-2.97Zm5.35-1.71c0-1.31-.52-1.96-1.55-1.96s-1.58,.65-1.58,1.96v1.69c0,1.31,.53,1.96,1.58,1.96s1.55-.65,1.55-1.96v-1.69Z"/><path class="cls-1" d="M444.78,160.52v-1.75c0-1.33,.34-2.32,1.02-2.95,.68-.64,1.61-.95,2.78-.95s2.08,.32,2.75,.95c.67,.64,1.01,1.62,1.01,2.95v1.75c0,1.34-.34,2.33-1.01,2.97-.67,.64-1.59,.96-2.75,.96s-2.1-.32-2.78-.96c-.68-.64-1.02-1.63-1.02-2.97Zm5.35-1.71c0-1.31-.52-1.96-1.55-1.96s-1.58,.65-1.58,1.96v1.69c0,1.31,.53,1.96,1.58,1.96s1.55-.65,1.55-1.96v-1.69Z"/><path class="cls-1" d="M454.12,161.49v-9.58h2.23v9.43c0,.38,.07,.66,.21,.82s.36,.24,.67,.24h.76v1.93h-1.03c-.9,0-1.6-.25-2.1-.74s-.75-1.19-.75-2.11Z"/><path class="cls-1" d="M458.96,161.56v-.07h2.09v.04c0,.35,.14,.62,.42,.82,.28,.2,.65,.3,1.11,.3,.49,0,.88-.09,1.15-.26,.28-.17,.41-.44,.41-.78,0-.29-.1-.51-.31-.67-.2-.16-.55-.27-1.03-.34l-.99-.16c-.94-.16-1.63-.44-2.07-.86s-.67-1.02-.67-1.8c0-.89,.33-1.59,.98-2.12s1.49-.78,2.51-.78c.7,0,1.31,.12,1.85,.35,.53,.23,.95,.56,1.24,.97s.44,.88,.44,1.4v.11h-2.07v-.05c0-.32-.13-.58-.39-.76-.26-.18-.62-.27-1.07-.27s-.8,.09-1.04,.27c-.24,.18-.36,.42-.36,.72,0,.28,.09,.49,.28,.65,.19,.16,.49,.26,.91,.32l1.1,.16c.94,.13,1.64,.42,2.11,.86,.47,.44,.7,1.06,.7,1.84,0,.96-.35,1.7-1.04,2.22-.7,.52-1.6,.78-2.72,.78s-1.93-.26-2.58-.78c-.65-.52-.97-1.22-.97-2.1Z"/></g><path class="cls-10" d="M241.61,71.85h11.83c1.49,0,2.7,1.21,2.7,2.7V242.47c0,1.49-1.21,2.7-2.7,2.7h-11.33"/><path class="cls-10" d="M256.14,158.84h61.46V61.37c0-2.75,2.23-4.99,4.99-4.99h248.74c2.75,0,4.99,2.23,4.99,4.99V255.38c0,2.75-2.23,4.99-4.99,4.99h-248.74c-2.75,0-4.99-2.23-4.99-4.99v-96.54"/></svg>