<svg id="Layer_1" data-name="Layer 1" xmlns="http://www.w3.org/2000/svg" viewBox="0 0 489.33 536.13"><path d="M283,286.58a80.58,80.58,0,0,0,10.54,40L255.1,348.74a125.52,125.52,0,0,1,.61-125.37l38.44,22.19A80.53,80.53,0,0,0,283,286.58Z" style="fill:#69bfea"/><path d="M364,161.23V205.6a80.92,80.92,0,0,0-69.83,40l-38.44-22.19A125.3,125.3,0,0,1,364,161.23Z" style="fill:#016797"/><path d="M472.25,223.37l-38.44,22.19a80.92,80.92,0,0,0-69.83-40V161.23A125.3,125.3,0,0,1,472.25,223.37Z" style="fill:#1f94d2"/><path d="M489.33,286.58a124.79,124.79,0,0,1-16.47,62.16l-38.43-22.19a81,81,0,0,0-.62-81l38.44-22.19A124.74,124.74,0,0,1,489.33,286.58Z" style="fill:#69bfea"/><path d="M472.86,348.74A125.31,125.31,0,0,1,364,411.93V367.57a81,81,0,0,0,70.45-41Z" style="fill:#016797"/><path d="M364,367.57v44.36A125.31,125.31,0,0,1,255.1,348.74l38.43-22.19A81,81,0,0,0,364,367.57Z" style="fill:#1f94d2"/><polygon points="363.98 205.6 380.09 183.41 363.98 161.23 358.65 183.09 363.98 205.6" style="fill:#016797"/><polygon points="293.9 246.19 282.75 221.14 255.48 224 271.75 239.55 293.9 246.19" style="fill:#69bfea"/><polygon points="294.02 327.17 266.75 324.3 255.59 349.35 277.19 343.03 294.02 327.17" style="fill:#1f94d2"/><polygon points="364.21 367.56 348.09 389.74 364.21 411.93 369.53 390.06 364.21 367.56" style="fill:#016797"/><polygon points="434.28 326.97 445.43 352.01 472.7 349.15 456.43 333.61 434.28 326.97" style="fill:#69bfea"/><polygon points="434.16 245.99 461.43 248.85 472.59 223.8 450.99 230.12 434.16 245.99" style="fill:#1f94d2"/><polygon points="361.07 212.15 358.65 210.38 378.24 183.41 359.28 157.32 361.71 155.56 381.94 183.41 361.07 212.15" style="fill:#fff"/><polygon points="298.12 251.97 295.38 253.19 281.82 222.74 249.75 226.11 249.44 223.13 283.67 219.53 298.12 251.97" style="fill:#fff"/><polygon points="301.14 326.4 300.83 329.39 267.67 325.91 254.55 355.37 251.81 354.15 265.82 322.7 301.14 326.4" style="fill:#fff"/><polygon points="367.11 361.01 369.54 362.77 349.94 389.74 368.9 415.83 366.47 417.6 346.24 389.74 367.11 361.01" style="fill:#fff"/><polygon points="430.06 321.18 432.8 319.96 446.36 350.41 478.43 347.04 478.75 350.03 444.51 353.62 430.06 321.18" style="fill:#fff"/><polygon points="427.04 246.75 427.35 243.76 460.51 247.25 473.63 217.78 476.37 219.01 462.36 250.46 427.04 246.75" style="fill:#fff"/><path d="M323.14,262.91a2.32,2.32,0,0,0,.73.85,2.94,2.94,0,0,0,1.06.48,4.73,4.73,0,0,0,1.26.16,6.32,6.32,0,0,0,.94-.07,3.38,3.38,0,0,0,.95-.29,2.16,2.16,0,0,0,.73-.57,1.45,1.45,0,0,0,.3-.94,1.34,1.34,0,0,0-.39-1,3.17,3.17,0,0,0-1-.63,12.21,12.21,0,0,0-1.43-.44q-.79-.18-1.62-.42a14.7,14.7,0,0,1-1.63-.51,5.48,5.48,0,0,1-1.43-.79,3.54,3.54,0,0,1-1.41-3,4,4,0,0,1,.49-2,4.49,4.49,0,0,1,1.3-1.41,5.51,5.51,0,0,1,1.8-.84,7.81,7.81,0,0,1,2-.28,9.24,9.24,0,0,1,2.25.27,5.54,5.54,0,0,1,1.93.85,4.27,4.27,0,0,1,1.33,1.5,4.6,4.6,0,0,1,.49,2.21H328.6a2.74,2.74,0,0,0-.28-1.11,1.93,1.93,0,0,0-.64-.69,2.68,2.68,0,0,0-.92-.36,5.55,5.55,0,0,0-1.12-.1,3.62,3.62,0,0,0-.8.08,2.18,2.18,0,0,0-.72.29,1.82,1.82,0,0,0-.54.53,1.42,1.42,0,0,0-.21.8,1.36,1.36,0,0,0,.17.71,1.46,1.46,0,0,0,.66.5,8.51,8.51,0,0,0,1.37.47l2.28.59a11.22,11.22,0,0,1,1.16.3,5.68,5.68,0,0,1,1.48.7,4.73,4.73,0,0,1,1.27,1.29,3.66,3.66,0,0,1,.54,2.07,4.63,4.63,0,0,1-.4,1.91,4.18,4.18,0,0,1-1.19,1.53,5.59,5.59,0,0,1-1.95,1,9.19,9.19,0,0,1-2.7.36,9.51,9.51,0,0,1-2.4-.3,6,6,0,0,1-2.06-1,4.66,4.66,0,0,1-1.42-1.66,4.87,4.87,0,0,1-.5-2.39h3.19A2.78,2.78,0,0,0,323.14,262.91Z" style="fill:#272727"/><path d="M334,258.82a5.05,5.05,0,0,1,1.13-1.8,5.14,5.14,0,0,1,1.77-1.16,6.22,6.22,0,0,1,2.31-.41,6.38,6.38,0,0,1,2.32.41A5.14,5.14,0,0,1,343.3,257a5.22,5.22,0,0,1,1.14,1.8,6.85,6.85,0,0,1,.39,2.37,6.7,6.7,0,0,1-.39,2.35,5.09,5.09,0,0,1-1.14,1.79,5,5,0,0,1-1.77,1.15,6.6,6.6,0,0,1-2.32.4,6.43,6.43,0,0,1-2.31-.4,4.94,4.94,0,0,1-2.9-2.94,6.47,6.47,0,0,1-.4-2.35A6.62,6.62,0,0,1,334,258.82Zm2.71,3.64a3.38,3.38,0,0,0,.43,1.11,2.27,2.27,0,0,0,.81.79,2.5,2.5,0,0,0,1.26.29,2.62,2.62,0,0,0,1.27-.29,2.39,2.39,0,0,0,.82-.79,3.62,3.62,0,0,0,.43-1.11,6.83,6.83,0,0,0,0-2.55,3.58,3.58,0,0,0-.43-1.12,2.45,2.45,0,0,0-.82-.78,2.42,2.42,0,0,0-1.27-.31,2.33,2.33,0,0,0-2.07,1.09,3.35,3.35,0,0,0-.43,1.12,6.32,6.32,0,0,0,0,2.55Z" style="fill:#272727"/><path d="M345.63,257.74v-2h1.79v-.84a3.24,3.24,0,0,1,.9-2.37,3.64,3.64,0,0,1,2.73-.93c.27,0,.53,0,.8,0l.78.05v2.23a9.87,9.87,0,0,0-1.1-.06,1.15,1.15,0,0,0-.87.28,1.43,1.43,0,0,0-.26,1v.65h2.06v2H350.4v8.87h-3v-8.87Z" style="fill:#272727"/><path d="M359.72,255.75v2h-2.18v5.38a1.47,1.47,0,0,0,.25,1,1.5,1.5,0,0,0,1,.25l.48,0,.44-.07v2.32c-.25,0-.53.06-.84.08l-.9,0a9.09,9.09,0,0,1-1.31-.09,3.32,3.32,0,0,1-1.1-.37,1.92,1.92,0,0,1-.74-.78,2.81,2.81,0,0,1-.27-1.32v-6.41h-1.81v-2h1.81v-3.26h3v3.26Z" style="fill:#272727"/><path d="M370.49,266.61l-1.93-7.29h0l-1.85,7.29h-3.08l-3.45-10.86h3.15l2,7.37h0l1.81-7.37H370l1.85,7.35h0l2-7.35H377l-3.42,10.86Z" style="fill:#272727"/><path d="M378.12,259.09a3.31,3.31,0,0,1,1.7-2.86,5.16,5.16,0,0,1,1.61-.6,9,9,0,0,1,1.79-.18,11.69,11.69,0,0,1,1.66.12,5.24,5.24,0,0,1,1.53.45,3.09,3.09,0,0,1,1.14.94,2.6,2.6,0,0,1,.44,1.58v5.65a12.74,12.74,0,0,0,.08,1.41,2.64,2.64,0,0,0,.3,1h-3a4.39,4.39,0,0,1-.13-.52,4.51,4.51,0,0,1-.08-.53,3.75,3.75,0,0,1-1.68,1,6.58,6.58,0,0,1-2,.3,5.59,5.59,0,0,1-1.45-.19,3.36,3.36,0,0,1-1.18-.59,2.72,2.72,0,0,1-.78-1,3.38,3.38,0,0,1-.29-1.45,3.14,3.14,0,0,1,.33-1.52,2.68,2.68,0,0,1,.84-.95,3.7,3.7,0,0,1,1.17-.54,12.26,12.26,0,0,1,1.34-.28c.45-.07.89-.13,1.32-.17a8.51,8.51,0,0,0,1.16-.19,1.94,1.94,0,0,0,.79-.37.8.8,0,0,0,.28-.7,1.66,1.66,0,0,0-.16-.77,1.27,1.27,0,0,0-.42-.44,1.91,1.91,0,0,0-.61-.21,5.78,5.78,0,0,0-.75-.05,2.26,2.26,0,0,0-1.38.38,1.68,1.68,0,0,0-.59,1.26Zm6.89,2.2a1.38,1.38,0,0,1-.48.26,3.51,3.51,0,0,1-.6.16l-.69.11-.71.1a4.91,4.91,0,0,0-.66.17,1.9,1.9,0,0,0-.57.28,1.35,1.35,0,0,0-.39.46,1.41,1.41,0,0,0-.14.69,1.38,1.38,0,0,0,.14.67,1.11,1.11,0,0,0,.4.43,1.54,1.54,0,0,0,.59.22,3.85,3.85,0,0,0,.69.06,2.63,2.63,0,0,0,1.37-.29,2,2,0,0,0,.71-.7,2.27,2.27,0,0,0,.28-.83,5.07,5.07,0,0,0,.06-.68Z" style="fill:#272727"/><path d="M393.13,255.75v2h.05a3.44,3.44,0,0,1,.56-.93,3.85,3.85,0,0,1,.82-.74,4.08,4.08,0,0,1,1-.47,3.6,3.6,0,0,1,1.09-.17,2.33,2.33,0,0,1,.65.11v2.77a5,5,0,0,0-.5-.07l-.57,0a3.22,3.22,0,0,0-1.39.27,2.46,2.46,0,0,0-.91.74,2.94,2.94,0,0,0-.49,1.11,5.84,5.84,0,0,0-.15,1.36v4.9h-3V255.75Z" style="fill:#272727"/><path d="M401.28,264a2.64,2.64,0,0,0,1.93.65,2.7,2.7,0,0,0,1.56-.45,1.92,1.92,0,0,0,.8-.95h2.62a5,5,0,0,1-1.93,2.79,5.7,5.7,0,0,1-3.15.84,6.22,6.22,0,0,1-2.31-.41,4.61,4.61,0,0,1-1.74-1.17,5.15,5.15,0,0,1-1.11-1.8,6.59,6.59,0,0,1-.39-2.31,6.49,6.49,0,0,1,.4-2.27,5.4,5.4,0,0,1,1.14-1.82,5.25,5.25,0,0,1,1.75-1.2,5.53,5.53,0,0,1,2.26-.45,5.1,5.1,0,0,1,2.41.54,4.83,4.83,0,0,1,1.69,1.44,6,6,0,0,1,1,2.06,7.41,7.41,0,0,1,.21,2.41h-7.83A3,3,0,0,0,401.28,264Zm3.37-5.71a2.09,2.09,0,0,0-1.63-.59,2.58,2.58,0,0,0-1.18.24,2.2,2.2,0,0,0-.76.6,2.23,2.23,0,0,0-.4.76,3.47,3.47,0,0,0-.13.71h4.85A3.39,3.39,0,0,0,404.65,258.29Z" style="fill:#272727"/><path d="M305.71,276.81a7.89,7.89,0,0,1,2.7.46,5.86,5.86,0,0,1,2.16,1.39A6.42,6.42,0,0,1,312,281a9.39,9.39,0,0,1,.52,3.25,10.42,10.42,0,0,1-.42,3,6.78,6.78,0,0,1-1.28,2.39,6,6,0,0,1-2.12,1.59,7.21,7.21,0,0,1-3,.58h-6.47v-15ZM305.48,289a4.1,4.1,0,0,0,1.39-.23,3.1,3.1,0,0,0,1.19-.76,3.93,3.93,0,0,0,.84-1.4,6.1,6.1,0,0,0,.32-2.1,8.59,8.59,0,0,0-.22-2.05,4,4,0,0,0-.73-1.56,3.13,3.13,0,0,0-1.33-1,5.35,5.35,0,0,0-2.05-.35h-2.35V289Z" style="fill:#272727"/><path d="M317.68,289.2a2.64,2.64,0,0,0,1.93.65,2.7,2.7,0,0,0,1.56-.45,1.92,1.92,0,0,0,.8-.95h2.62a5,5,0,0,1-1.93,2.79,5.7,5.7,0,0,1-3.15.84,6.22,6.22,0,0,1-2.31-.41,4.73,4.73,0,0,1-1.75-1.17,5.28,5.28,0,0,1-1.1-1.8,6.59,6.59,0,0,1-.39-2.31,6.49,6.49,0,0,1,.4-2.27,5.4,5.4,0,0,1,1.14-1.82,5.25,5.25,0,0,1,1.75-1.2,5.53,5.53,0,0,1,2.26-.45,5.1,5.1,0,0,1,2.41.54,4.83,4.83,0,0,1,1.69,1.44,6,6,0,0,1,1,2.06,7.69,7.69,0,0,1,.21,2.41H317A3,3,0,0,0,317.68,289.2Zm3.37-5.71a2.11,2.11,0,0,0-1.63-.59,2.58,2.58,0,0,0-1.18.24,2.2,2.2,0,0,0-.76.6,2.23,2.23,0,0,0-.4.76,3.47,3.47,0,0,0-.13.71h4.85A3.43,3.43,0,0,0,321.05,283.49Z" style="fill:#272727"/><path d="M329.23,291.81,325.51,281h3.13l2.29,7.41h0l2.29-7.41h3l-3.67,10.86Z" style="fill:#272727"/><path d="M340.65,289.2a3.07,3.07,0,0,0,3.49.2,1.92,1.92,0,0,0,.8-.95h2.62a5,5,0,0,1-1.93,2.79,5.7,5.7,0,0,1-3.15.84,6.29,6.29,0,0,1-2.31-.41,4.69,4.69,0,0,1-1.74-1.17,5.13,5.13,0,0,1-1.1-1.8,6.59,6.59,0,0,1-.39-2.31,6.27,6.27,0,0,1,.4-2.27,5.19,5.19,0,0,1,2.88-3,5.56,5.56,0,0,1,2.26-.45,5.14,5.14,0,0,1,2.42.54,4.92,4.92,0,0,1,1.69,1.44,5.81,5.81,0,0,1,1,2.06,7.41,7.41,0,0,1,.21,2.41h-7.83A3,3,0,0,0,340.65,289.2Zm3.37-5.71a2.07,2.07,0,0,0-1.62-.59,2.63,2.63,0,0,0-1.19.24,2.16,2.16,0,0,0-.75.6,2.07,2.07,0,0,0-.4.76,3,3,0,0,0-.14.71h4.85A3.43,3.43,0,0,0,344,283.49Z" style="fill:#272727"/><path d="M352.58,276.81v15h-3v-15Z" style="fill:#272727"/><path d="M355,284a5.05,5.05,0,0,1,1.13-1.8,5.14,5.14,0,0,1,1.77-1.16,6.22,6.22,0,0,1,2.31-.41,6.38,6.38,0,0,1,2.32.41,5.14,5.14,0,0,1,1.77,1.16,5.05,5.05,0,0,1,1.13,1.8,6.62,6.62,0,0,1,.4,2.37,6.47,6.47,0,0,1-.4,2.35,4.94,4.94,0,0,1-2.9,2.94,6.6,6.6,0,0,1-2.32.4,6.43,6.43,0,0,1-2.31-.4,4.94,4.94,0,0,1-2.9-2.94,6.47,6.47,0,0,1-.4-2.35A6.62,6.62,0,0,1,355,284Zm2.71,3.64a3.17,3.17,0,0,0,.43,1.11,2.33,2.33,0,0,0,.8.79,2.57,2.57,0,0,0,1.27.29,2.62,2.62,0,0,0,1.27-.29,2.27,2.27,0,0,0,.81-.79,3.39,3.39,0,0,0,.44-1.11,6.67,6.67,0,0,0,.12-1.27,6.77,6.77,0,0,0-.12-1.28,3.36,3.36,0,0,0-.44-1.12,2.33,2.33,0,0,0-.81-.78,2.42,2.42,0,0,0-1.27-.31,2.3,2.3,0,0,0-2.07,1.09,3.15,3.15,0,0,0-.43,1.12,6,6,0,0,0-.13,1.28A6,6,0,0,0,357.71,287.66Z" style="fill:#272727"/><path d="M370.6,281v1.38h0a3.4,3.4,0,0,1,1.39-1.28,4.32,4.32,0,0,1,1.85-.4,4.7,4.7,0,0,1,2.2.49,4.44,4.44,0,0,1,1.53,1.28,5.39,5.39,0,0,1,.91,1.86,8.42,8.42,0,0,1,.29,2.21,7.66,7.66,0,0,1-.29,2.1,5.48,5.48,0,0,1-.9,1.79,4.29,4.29,0,0,1-1.49,1.24,4.57,4.57,0,0,1-2.09.46,4.22,4.22,0,0,1-1.85-.41,3.48,3.48,0,0,1-1.4-1.21h0v5.15h-3V281Zm3.88,8.61a2.42,2.42,0,0,0,.79-.77,2.91,2.91,0,0,0,.43-1.1,6.11,6.11,0,0,0,.13-1.28,6,6,0,0,0-.14-1.28,3.43,3.43,0,0,0-.45-1.13,2.45,2.45,0,0,0-.81-.79,2.19,2.19,0,0,0-1.2-.31,2.22,2.22,0,0,0-1.23.31,2.39,2.39,0,0,0-.8.78,3.35,3.35,0,0,0-.43,1.12,6.23,6.23,0,0,0,0,2.58,3.29,3.29,0,0,0,.44,1.1,2.3,2.3,0,0,0,.81.77,2.73,2.73,0,0,0,2.45,0Z" style="fill:#272727"/><path d="M383.49,281v1.47h.05a4.15,4.15,0,0,1,1.41-1.3,3.85,3.85,0,0,1,1.9-.47,4.43,4.43,0,0,1,1.88.4,2.69,2.69,0,0,1,1.3,1.41,4.4,4.4,0,0,1,1.31-1.26,3.52,3.52,0,0,1,2-.55,5.79,5.79,0,0,1,1.6.21,3.2,3.2,0,0,1,1.26.68,3.09,3.09,0,0,1,.82,1.2,5.07,5.07,0,0,1,.29,1.8v7.27h-3v-6.16c0-.36,0-.7,0-1a2.36,2.36,0,0,0-.23-.84,1.5,1.5,0,0,0-.56-.56,2,2,0,0,0-1-.21,1.93,1.93,0,0,0-1,.24,1.75,1.75,0,0,0-.61.63,2.68,2.68,0,0,0-.29.88,6.63,6.63,0,0,0-.07,1v6.05h-3v-6.09c0-.33,0-.65,0-1a2.41,2.41,0,0,0-.18-.87,1.31,1.31,0,0,0-.52-.64,2,2,0,0,0-1.08-.24,2.35,2.35,0,0,0-.56.09,1.76,1.76,0,0,0-.67.36,2,2,0,0,0-.56.75,3.15,3.15,0,0,0-.23,1.3v6.3h-3V281Z" style="fill:#272727"/><path d="M402.81,289.2a3.07,3.07,0,0,0,3.49.2,1.92,1.92,0,0,0,.8-.95h2.62a5,5,0,0,1-1.93,2.79,5.7,5.7,0,0,1-3.15.84,6.29,6.29,0,0,1-2.31-.41,4.69,4.69,0,0,1-1.74-1.17,5.15,5.15,0,0,1-1.11-1.8,6.82,6.82,0,0,1-.38-2.31,6.27,6.27,0,0,1,.4-2.27,5.19,5.19,0,0,1,2.88-3,5.53,5.53,0,0,1,2.26-.45,5.17,5.17,0,0,1,2.42.54,4.92,4.92,0,0,1,1.69,1.44,5.81,5.81,0,0,1,.95,2.06,7.41,7.41,0,0,1,.21,2.41h-7.83A3,3,0,0,0,402.81,289.2Zm3.37-5.71a2.09,2.09,0,0,0-1.62-.59,2.63,2.63,0,0,0-1.19.24,2.3,2.3,0,0,0-.76.6,2.2,2.2,0,0,0-.39.76,3,3,0,0,0-.14.71h4.85A3.43,3.43,0,0,0,406.18,283.49Z" style="fill:#272727"/><path d="M414.51,281v1.51h.06a3.47,3.47,0,0,1,1.47-1.38,4.39,4.39,0,0,1,1.85-.43,5.06,5.06,0,0,1,2,.33,2.93,2.93,0,0,1,1.2.9,3.49,3.49,0,0,1,.62,1.41,8.7,8.7,0,0,1,.18,1.84v6.68h-3v-6.14a3.79,3.79,0,0,0-.42-2A1.63,1.63,0,0,0,417,283a2.09,2.09,0,0,0-1.77.72,4.06,4.06,0,0,0-.54,2.38v5.7h-3V281Z" style="fill:#272727"/><path d="M430.09,281v2h-2.18v5.38a1.47,1.47,0,0,0,.25,1,1.45,1.45,0,0,0,1,.25l.48,0,.44-.06v2.31a6.67,6.67,0,0,1-.84.08l-.9,0a9.09,9.09,0,0,1-1.31-.09,3.32,3.32,0,0,1-1.1-.37,1.92,1.92,0,0,1-.74-.78,2.79,2.79,0,0,1-.27-1.32v-6.41h-1.81v-2h1.81v-3.26h3V281Z" style="fill:#272727"/><path d="M347.16,306a3.38,3.38,0,0,0-.73-.83,3.51,3.51,0,0,0-2.16-.75,3.77,3.77,0,0,0-1.89.43,3.49,3.49,0,0,0-1.26,1.15,4.91,4.91,0,0,0-.71,1.65,8.6,8.6,0,0,0-.22,1.91,8.06,8.06,0,0,0,.22,1.84,4.83,4.83,0,0,0,.71,1.6,3.58,3.58,0,0,0,1.26,1.15,3.77,3.77,0,0,0,1.89.43,3.08,3.08,0,0,0,2.36-.92,4.3,4.3,0,0,0,1-2.44h3.19a7.53,7.53,0,0,1-.65,2.54,5.93,5.93,0,0,1-1.39,1.93,5.86,5.86,0,0,1-2,1.22,7.4,7.4,0,0,1-2.54.42,7.69,7.69,0,0,1-3.1-.6,6.62,6.62,0,0,1-2.32-1.65,7.22,7.22,0,0,1-1.45-2.46,9,9,0,0,1-.5-3.06,9.28,9.28,0,0,1,.5-3.12,7.44,7.44,0,0,1,1.45-2.51,6.7,6.7,0,0,1,2.32-1.68,7.69,7.69,0,0,1,3.1-.61,7.54,7.54,0,0,1,2.34.36,6.52,6.52,0,0,1,2,1,5.75,5.75,0,0,1,1.44,1.69,5.85,5.85,0,0,1,.71,2.31h-3.19A2.56,2.56,0,0,0,347.16,306Z" style="fill:#272727"/><path d="M356.8,320.24a4.29,4.29,0,0,1-2.39.57,9.1,9.1,0,0,1-.91,0l-.92-.07v-2.46l.86.09a6.5,6.5,0,0,0,.88,0,1.18,1.18,0,0,0,.88-.46,1.49,1.49,0,0,0,.28-.89,1.7,1.7,0,0,0-.13-.67l-3.8-10.18h3.17l2.46,7.43h0l2.38-7.43h3.08l-4.53,12.2A3.71,3.71,0,0,1,356.8,320.24Z" style="fill:#272727"/><path d="M368.88,308.1a2.07,2.07,0,0,0-1.2.33,2.55,2.55,0,0,0-.79.84,3.84,3.84,0,0,0-.43,1.13,6.41,6.41,0,0,0-.12,1.23,6.26,6.26,0,0,0,.12,1.2,3.91,3.91,0,0,0,.41,1.1,2.39,2.39,0,0,0,.77.81,2.08,2.08,0,0,0,1.17.31,2.17,2.17,0,0,0,1.65-.6,2.81,2.81,0,0,0,.73-1.6h2.87a4.88,4.88,0,0,1-1.67,3.29,5.42,5.42,0,0,1-3.55,1.14,6,6,0,0,1-2.24-.41,4.86,4.86,0,0,1-1.73-1.15,5.2,5.2,0,0,1-1.12-1.75,6.2,6.2,0,0,1-.39-2.24,7.36,7.36,0,0,1,.36-2.34,5.5,5.5,0,0,1,1.08-1.87,5.13,5.13,0,0,1,1.75-1.23,6,6,0,0,1,2.35-.44,6.79,6.79,0,0,1,1.86.26,4.87,4.87,0,0,1,1.59.76,4.27,4.27,0,0,1,1.15,1.28A4.12,4.12,0,0,1,374,310h-2.92A2,2,0,0,0,368.88,308.1Z" style="fill:#272727"/><path d="M378.81,302v15h-3V302Z" style="fill:#272727"/><path d="M384.36,314.4a3.05,3.05,0,0,0,3.48.2,1.92,1.92,0,0,0,.8-1h2.62a5,5,0,0,1-1.93,2.79,5.7,5.7,0,0,1-3.15.84,6.29,6.29,0,0,1-2.31-.41,4.77,4.77,0,0,1-1.74-1.17,5.13,5.13,0,0,1-1.1-1.8,6.59,6.59,0,0,1-.39-2.31,6.23,6.23,0,0,1,.4-2.27,5.23,5.23,0,0,1,1.13-1.82,5.43,5.43,0,0,1,1.75-1.21,5.73,5.73,0,0,1,2.26-.44,5.14,5.14,0,0,1,2.42.54,4.92,4.92,0,0,1,1.69,1.44,5.81,5.81,0,0,1,.95,2.06,7.41,7.41,0,0,1,.21,2.41h-7.83A3,3,0,0,0,384.36,314.4Zm3.37-5.71a2.11,2.11,0,0,0-1.63-.59,2.63,2.63,0,0,0-1.19.24,2.16,2.16,0,0,0-.75.6,2.07,2.07,0,0,0-.4.76,3,3,0,0,0-.14.71h4.85A3.47,3.47,0,0,0,387.73,308.69Z" style="fill:#272727"/><rect x="75.72" y="37.09" width="116.52" height="51.15" rx="5" style="fill:#e6e7e8"/><line x1="133.98" y1="88.17" x2="133.98" y2="109.44" style="fill:none;stroke:#58595b;stroke-miterlimit:10;stroke-width:5px"/><polygon points="126.5 107.25 133.98 120.2 141.46 107.25 126.5 107.25" style="fill:#58595b"/><rect x="75.72" y="120.21" width="116.52" height="51.15" rx="5" style="fill:#e6e7e8"/><line x1="133.98" y1="171.35" x2="133.98" y2="192.63" style="fill:none;stroke:#58595b;stroke-miterlimit:10;stroke-width:5px"/><polygon points="126.5 190.44 133.98 203.39 141.46 190.44 126.5 190.44" style="fill:#58595b"/><rect x="75.72" y="203.39" width="116.52" height="51.15" rx="5" style="fill:#e6e7e8"/><line x1="133.98" y1="254.54" x2="133.98" y2="275.81" style="fill:none;stroke:#58595b;stroke-miterlimit:10;stroke-width:5px"/><polygon points="126.5 273.62 133.98 286.58 141.46 273.62 126.5 273.62" style="fill:#58595b"/><rect x="75.72" y="286.58" width="116.52" height="51.15" rx="5" style="fill:#e6e7e8"/><line x1="133.98" y1="337.72" x2="133.98" y2="359" style="fill:none;stroke:#58595b;stroke-miterlimit:10;stroke-width:5px"/><polygon points="126.5 356.81 133.98 369.76 141.46 356.81 126.5 356.81" style="fill:#58595b"/><rect x="75.72" y="369.76" width="116.52" height="51.15" rx="5" style="fill:#e6e7e8"/><line x1="133.98" y1="420.91" x2="133.98" y2="442.18" style="fill:none;stroke:#58595b;stroke-miterlimit:10;stroke-width:5px"/><polygon points="126.5 440 133.98 452.95 141.46 440 126.5 440" style="fill:#58595b"/><rect x="75.72" y="452.95" width="116.52" height="51.15" rx="5" style="fill:#e6e7e8"/><line x1="133.98" y1="504.1" x2="133.98" y2="525.37" style="fill:none;stroke:#58595b;stroke-miterlimit:10;stroke-width:5px"/><polygon points="126.5 523.18 133.98 536.13 141.46 523.18 126.5 523.18" style="fill:#58595b"/><path d="M90,472.63a4.56,4.56,0,0,1,1.71.29,3.34,3.34,0,0,1,1.15.78,2.94,2.94,0,0,1,.64,1.09,3.94,3.94,0,0,1,.2,1.28,3.86,3.86,0,0,1-.2,1.26,2.94,2.94,0,0,1-.64,1.11,3.32,3.32,0,0,1-1.15.77,4.56,4.56,0,0,1-1.71.29H87.5v3.84H85.15V472.63Zm-.65,5a4.93,4.93,0,0,0,.78-.06,1.91,1.91,0,0,0,.66-.23,1.28,1.28,0,0,0,.46-.49,1.64,1.64,0,0,0,.17-.82,1.68,1.68,0,0,0-.17-.83,1.28,1.28,0,0,0-.46-.49,1.91,1.91,0,0,0-.66-.23,4.93,4.93,0,0,0-.78-.06H87.5v3.21Z" style="fill:#272727"/><path d="M100.18,483.34v-1.08h-.05a2.41,2.41,0,0,1-1,1,3.1,3.1,0,0,1-1.32.3,3.72,3.72,0,0,1-1.4-.23,2,2,0,0,1-.86-.64,2.41,2.41,0,0,1-.44-1,5.94,5.94,0,0,1-.13-1.31v-4.77h2.13V480a2.72,2.72,0,0,0,.3,1.43,1.16,1.16,0,0,0,1.06.47,1.46,1.46,0,0,0,1.26-.52,2.86,2.86,0,0,0,.39-1.7v-4.06h2.13v7.75Z" style="fill:#272727"/><path d="M106,472.63v3.9h0a2.34,2.34,0,0,1,1.06-.88,3.7,3.7,0,0,1,1.39-.27,3,3,0,0,1,2.18,1,3.64,3.64,0,0,1,.74,1.27,5.3,5.3,0,0,1,.29,1.84,5.24,5.24,0,0,1-.29,1.83,3.64,3.64,0,0,1-.74,1.27,2.95,2.95,0,0,1-2.18,1,4.09,4.09,0,0,1-1.53-.27,2,2,0,0,1-1-.92h0v1h-2V472.63Zm3.45,5.9a2.5,2.5,0,0,0-.33-.8,1.73,1.73,0,0,0-.56-.55,1.76,1.76,0,0,0-1.63,0,1.76,1.76,0,0,0-.57.55,2.5,2.5,0,0,0-.33.8,4.42,4.42,0,0,0,0,1.87,2.5,2.5,0,0,0,.33.8,1.63,1.63,0,0,0,.57.54,1.69,1.69,0,0,0,1.63,0,1.61,1.61,0,0,0,.56-.54,2.5,2.5,0,0,0,.33-.8,4,4,0,0,0,0-1.87Z" style="fill:#272727"/><path d="M115.18,472.63v10.71h-2.13V472.63Z" style="fill:#272727"/><path d="M116.92,474.39v-1.76h2.13v1.76Zm2.13,1.2v7.75h-2.13v-7.75Z" style="fill:#272727"/><path d="M122.52,481.41a1.33,1.33,0,0,0,.37.41,1.64,1.64,0,0,0,.52.23,2.35,2.35,0,0,0,.6.08,2.1,2.1,0,0,0,.48-.06,1.72,1.72,0,0,0,.45-.16,1.18,1.18,0,0,0,.33-.3.79.79,0,0,0,.14-.47c0-.32-.21-.56-.64-.72a12.59,12.59,0,0,0-1.78-.48c-.31-.07-.61-.16-.9-.25a3,3,0,0,1-.79-.38,1.82,1.82,0,0,1-.56-.58,1.66,1.66,0,0,1-.21-.86,2.29,2.29,0,0,1,.3-1.23,2.08,2.08,0,0,1,.77-.76,3.16,3.16,0,0,1,1.08-.39,6.25,6.25,0,0,1,1.23-.11,6.08,6.08,0,0,1,1.22.12,3.2,3.2,0,0,1,1.06.4,2.33,2.33,0,0,1,.77.76,2.46,2.46,0,0,1,.37,1.19h-2a.92.92,0,0,0-.46-.83,2.07,2.07,0,0,0-1-.22l-.39,0a1.41,1.41,0,0,0-.38.1.73.73,0,0,0-.3.22.56.56,0,0,0-.12.38.59.59,0,0,0,.21.47,1.78,1.78,0,0,0,.55.29c.23.07.48.14.77.2l.89.2a9.41,9.41,0,0,1,.91.25,2.87,2.87,0,0,1,.78.4,1.92,1.92,0,0,1,.56.61,1.83,1.83,0,0,1,.21.91,2.39,2.39,0,0,1-1.11,2.12,3.42,3.42,0,0,1-1.13.44,7.07,7.07,0,0,1-1.3.13,6.43,6.43,0,0,1-1.32-.14,3.54,3.54,0,0,1-1.15-.45,2.5,2.5,0,0,1-1.18-2.13h2A1.2,1.2,0,0,0,122.52,481.41Z" style="fill:#272727"/><path d="M130.91,472.63v4H131a2.51,2.51,0,0,1,1-1,2.85,2.85,0,0,1,1.23-.3,3.59,3.59,0,0,1,1.41.23,2.09,2.09,0,0,1,.86.64,2.45,2.45,0,0,1,.44,1,5.87,5.87,0,0,1,.13,1.31v4.77h-2.13V479a2.7,2.7,0,0,0-.3-1.43,1.16,1.16,0,0,0-1.07-.47,1.49,1.49,0,0,0-1.26.51,2.91,2.91,0,0,0-.39,1.71v4.06h-2.13V472.63Z" style="fill:#272727"/><path d="M142.6,472.38l-4.19,11.2h-1.69l4.17-11.2Z" style="fill:#272727"/><path d="M145.27,480.7a1.71,1.71,0,0,0,.52.61,2.15,2.15,0,0,0,.75.34,3.37,3.37,0,0,0,.9.12,4.18,4.18,0,0,0,.68-.06,2.17,2.17,0,0,0,.67-.2,1.54,1.54,0,0,0,.53-.41,1.05,1.05,0,0,0,.21-.67.91.91,0,0,0-.28-.7,2.16,2.16,0,0,0-.73-.45,7.24,7.24,0,0,0-1-.32l-1.15-.3a9.36,9.36,0,0,1-1.17-.37,3.87,3.87,0,0,1-1-.56,2.76,2.76,0,0,1-.73-.86,2.68,2.68,0,0,1-.28-1.25,2.8,2.8,0,0,1,.36-1.44,3.17,3.17,0,0,1,.92-1,4,4,0,0,1,1.29-.6,5.48,5.48,0,0,1,1.44-.19,7,7,0,0,1,1.61.18,4.07,4.07,0,0,1,1.37.61,3.18,3.18,0,0,1,1,1.07,3.39,3.39,0,0,1,.35,1.59h-2.28a2,2,0,0,0-.2-.8,1.36,1.36,0,0,0-.46-.49,2,2,0,0,0-.65-.26,4.14,4.14,0,0,0-.81-.07,2.76,2.76,0,0,0-.57.06,1.45,1.45,0,0,0-.51.21,1.26,1.26,0,0,0-.39.37,1,1,0,0,0-.15.57,1,1,0,0,0,.12.51,1.07,1.07,0,0,0,.48.36,6,6,0,0,0,1,.33l1.63.42a8.24,8.24,0,0,1,.83.22,3.78,3.78,0,0,1,1.06.5,3.32,3.32,0,0,1,.91.92,2.69,2.69,0,0,1,.38,1.48,3.3,3.3,0,0,1-.29,1.37,2.93,2.93,0,0,1-.84,1.08,4,4,0,0,1-1.4.72,6.6,6.6,0,0,1-1.93.25,6.47,6.47,0,0,1-1.71-.22,4.14,4.14,0,0,1-1.47-.68,3.32,3.32,0,0,1-1-1.18,3.54,3.54,0,0,1-.36-1.71h2.28A1.94,1.94,0,0,0,145.27,480.7Z" style="fill:#272727"/><path d="M155.11,472.63v4h0a2.53,2.53,0,0,1,1-1,2.85,2.85,0,0,1,1.23-.3,3.53,3.53,0,0,1,1.4.23,2,2,0,0,1,.86.64,2.6,2.6,0,0,1,.45,1,6.57,6.57,0,0,1,.12,1.31v4.77h-2.13V479a2.7,2.7,0,0,0-.3-1.43,1.14,1.14,0,0,0-1.06-.47,1.49,1.49,0,0,0-1.26.51,2.91,2.91,0,0,0-.39,1.71v4.06H153V472.63Z" style="fill:#272727"/><path d="M161.78,478a2.46,2.46,0,0,1,.38-1.24,2.57,2.57,0,0,1,.84-.8,3.8,3.8,0,0,1,1.14-.43,7,7,0,0,1,1.29-.12,7.89,7.89,0,0,1,1.18.08,3.52,3.52,0,0,1,1.1.32,2.12,2.12,0,0,1,.81.67,1.85,1.85,0,0,1,.31,1.13v4a8,8,0,0,0,.06,1,1.82,1.82,0,0,0,.21.72h-2.16a2.22,2.22,0,0,1-.09-.37,2.32,2.32,0,0,1-.06-.38,2.79,2.79,0,0,1-1.2.74,4.82,4.82,0,0,1-1.41.21,3.77,3.77,0,0,1-1-.14,2.37,2.37,0,0,1-.84-.42,2,2,0,0,1-.57-.72,2.49,2.49,0,0,1-.2-1,2.32,2.32,0,0,1,.23-1.09,2,2,0,0,1,.6-.68,2.94,2.94,0,0,1,.84-.39c.32-.08.64-.15,1-.2l.94-.12a5.8,5.8,0,0,0,.83-.13,1.38,1.38,0,0,0,.57-.27.56.56,0,0,0,.19-.5,1.22,1.22,0,0,0-.11-.55.89.89,0,0,0-.3-.31,1,1,0,0,0-.44-.15,2.93,2.93,0,0,0-.53,0,1.62,1.62,0,0,0-1,.27,1.21,1.21,0,0,0-.42.9Zm4.92,1.58a.88.88,0,0,1-.33.18,3.17,3.17,0,0,1-.44.12l-.49.07-.51.08a3.59,3.59,0,0,0-.47.12,1.31,1.31,0,0,0-.41.2.94.94,0,0,0-.27.32,1.06,1.06,0,0,0-.11.5,1,1,0,0,0,.11.48.74.74,0,0,0,.28.3,1.11,1.11,0,0,0,.42.16,2.73,2.73,0,0,0,.5.05,1.86,1.86,0,0,0,1-.21,1.38,1.38,0,0,0,.51-.51,1.48,1.48,0,0,0,.2-.59,3.28,3.28,0,0,0,0-.48Z" style="fill:#272727"/><path d="M172.51,475.59V477h0a2.53,2.53,0,0,1,.4-.67,2.7,2.7,0,0,1,.59-.53,3,3,0,0,1,.7-.33,2.54,2.54,0,0,1,.78-.12,1.67,1.67,0,0,1,.47.07v2l-.36-.05a2.88,2.88,0,0,0-.41,0,2.27,2.27,0,0,0-1,.19,1.71,1.71,0,0,0-.65.53,2.1,2.1,0,0,0-.35.79,4.32,4.32,0,0,0-.11,1v3.49h-2.13v-7.75Z" style="fill:#272727"/><path d="M178.33,481.48a1.91,1.91,0,0,0,1.38.47,1.87,1.87,0,0,0,1.11-.33,1.31,1.31,0,0,0,.57-.68h1.87a3.57,3.57,0,0,1-1.38,2,4.06,4.06,0,0,1-2.25.6,4.33,4.33,0,0,1-1.65-.3,3.34,3.34,0,0,1-1.24-.83,3.83,3.83,0,0,1-.79-1.29,4.61,4.61,0,0,1-.28-1.65,4.52,4.52,0,0,1,.29-1.62,3.86,3.86,0,0,1,.81-1.3,3.82,3.82,0,0,1,1.25-.86,4,4,0,0,1,1.61-.31,3.65,3.65,0,0,1,1.73.38,3.45,3.45,0,0,1,1.21,1,4.31,4.31,0,0,1,.68,1.47,5.44,5.44,0,0,1,.15,1.72h-5.6A2.15,2.15,0,0,0,178.33,481.48Zm2.41-4.08a1.52,1.52,0,0,0-1.17-.42,2,2,0,0,0-.85.17,1.8,1.8,0,0,0-.54.43,1.55,1.55,0,0,0-.28.54,2.85,2.85,0,0,0-.1.51h3.47A2.51,2.51,0,0,0,180.74,477.4Z" style="fill:#272727"/><path d="M108.3,387.89a4.37,4.37,0,0,1,1.71.29,3.18,3.18,0,0,1,1.15.77,3,3,0,0,1,.64,1.1,3.89,3.89,0,0,1,.21,1.27,3.93,3.93,0,0,1-.21,1.27,2.9,2.9,0,0,1-.64,1.1,3.34,3.34,0,0,1-1.15.78,4.56,4.56,0,0,1-1.71.29h-2.47v3.84h-2.36V387.89Zm-.64,5a4.93,4.93,0,0,0,.78-.06,1.73,1.73,0,0,0,.66-.24,1.16,1.16,0,0,0,.45-.48,1.67,1.67,0,0,0,.18-.83,1.63,1.63,0,0,0-.18-.82,1.19,1.19,0,0,0-.45-.49,1.72,1.72,0,0,0-.66-.23,4.93,4.93,0,0,0-.78-.06h-1.83v3.21Z" style="fill:#272727"/><path d="M115.28,390.84v1.44h0a2.7,2.7,0,0,1,.4-.67,2.9,2.9,0,0,1,1.29-.86,2.54,2.54,0,0,1,.78-.12,1.71,1.71,0,0,1,.47.08v2l-.36-.06-.41,0a2.27,2.27,0,0,0-1,.2,1.62,1.62,0,0,0-.65.53,2,2,0,0,0-.35.79,4.23,4.23,0,0,0-.11,1v3.5h-2.13v-7.76Z" style="fill:#272727"/><path d="M121.1,396.74a1.9,1.9,0,0,0,1.38.46,1.93,1.93,0,0,0,1.11-.32,1.35,1.35,0,0,0,.57-.68H126a3.55,3.55,0,0,1-1.38,2,4.06,4.06,0,0,1-2.25.6,4.53,4.53,0,0,1-1.65-.29,3.47,3.47,0,0,1-1.24-.83,3.68,3.68,0,0,1-.79-1.29,4.61,4.61,0,0,1-.28-1.65,4.52,4.52,0,0,1,.29-1.62,3.86,3.86,0,0,1,.81-1.3,3.67,3.67,0,0,1,1.25-.86,4,4,0,0,1,1.61-.32,3.77,3.77,0,0,1,1.73.38,3.43,3.43,0,0,1,1.2,1,4.15,4.15,0,0,1,.69,1.47,5.51,5.51,0,0,1,.15,1.73h-5.6A2.15,2.15,0,0,0,121.1,396.74Zm2.4-4.08a1.48,1.48,0,0,0-1.16-.42,2,2,0,0,0-.85.17,1.66,1.66,0,0,0-.54.43,1.55,1.55,0,0,0-.28.54,2.17,2.17,0,0,0-.1.51H124A2.42,2.42,0,0,0,123.5,392.66Z" style="fill:#272727"/><path d="M129.22,396.67a1.18,1.18,0,0,0,.37.4,1.5,1.5,0,0,0,.51.24,2.48,2.48,0,0,0,.61.07,2.59,2.59,0,0,0,.47-.05,1.28,1.28,0,0,0,.45-.17.89.89,0,0,0,.34-.3.77.77,0,0,0,.14-.47c0-.32-.22-.56-.64-.72a13,13,0,0,0-1.78-.48,9.41,9.41,0,0,1-.91-.25,3.12,3.12,0,0,1-.78-.37,1.86,1.86,0,0,1-.56-.59,1.64,1.64,0,0,1-.21-.86,2.38,2.38,0,0,1,.29-1.23,2.27,2.27,0,0,1,.78-.76,3.65,3.65,0,0,1,1.08-.39,7.12,7.12,0,0,1,1.23-.11,6.16,6.16,0,0,1,1.22.12,3.3,3.3,0,0,1,1.06.41,2.5,2.5,0,0,1,.77.75,2.65,2.65,0,0,1,.37,1.2h-2a1,1,0,0,0-.46-.84,2.19,2.19,0,0,0-1-.21,2.68,2.68,0,0,0-.39,0,1.24,1.24,0,0,0-.39.1.86.86,0,0,0-.29.21.61.61,0,0,0-.12.39.57.57,0,0,0,.21.46,1.5,1.5,0,0,0,.55.29,5.62,5.62,0,0,0,.77.21l.89.19a8.52,8.52,0,0,1,.9.26,3.06,3.06,0,0,1,.79.39,2,2,0,0,1,.56.62,1.8,1.8,0,0,1,.21.91,2.36,2.36,0,0,1-1.11,2.11,3.19,3.19,0,0,1-1.14.44,6.14,6.14,0,0,1-1.29.13,6.42,6.42,0,0,1-1.32-.13,3.46,3.46,0,0,1-1.15-.45,2.56,2.56,0,0,1-.83-.84,2.61,2.61,0,0,1-.35-1.29h2A1.1,1.1,0,0,0,129.22,396.67Z" style="fill:#272727"/><path d="M137.76,396.74a1.9,1.9,0,0,0,1.38.46,1.93,1.93,0,0,0,1.11-.32,1.35,1.35,0,0,0,.57-.68h1.88a3.55,3.55,0,0,1-1.38,2,4.06,4.06,0,0,1-2.25.6,4.53,4.53,0,0,1-1.65-.29,3.51,3.51,0,0,1-1.25-.83,3.83,3.83,0,0,1-.79-1.29,4.84,4.84,0,0,1-.27-1.65,4.52,4.52,0,0,1,.28-1.62,3.86,3.86,0,0,1,.81-1.3,3.77,3.77,0,0,1,1.25-.86,4,4,0,0,1,1.62-.32,3.73,3.73,0,0,1,1.72.38,3.56,3.56,0,0,1,1.21,1,4.31,4.31,0,0,1,.68,1.47,5.51,5.51,0,0,1,.15,1.73h-5.59A2.15,2.15,0,0,0,137.76,396.74Zm2.41-4.08a1.5,1.5,0,0,0-1.16-.42,1.92,1.92,0,0,0-.85.17,1.47,1.47,0,0,0-.54.43,1.58,1.58,0,0,0-.29.54,2.11,2.11,0,0,0-.09.51h3.46A2.51,2.51,0,0,0,140.17,392.66Z" style="fill:#272727"/><path d="M146.12,390.84v1.44h0a2.54,2.54,0,0,1,1-1.19,2.63,2.63,0,0,1,1.48-.46,1.78,1.78,0,0,1,.47.08v2l-.37-.06-.4,0a2.27,2.27,0,0,0-1,.2,1.62,1.62,0,0,0-.65.53,1.9,1.9,0,0,0-.35.79,4.23,4.23,0,0,0-.11,1v3.5h-2.13v-7.76Z" style="fill:#272727"/><path d="M151.85,398.6l-2.66-7.76h2.24l1.63,5.3h0l1.63-5.3h2.12l-2.62,7.76Z" style="fill:#272727"/><path d="M160,396.74a2.2,2.2,0,0,0,2.49.14,1.35,1.35,0,0,0,.57-.68h1.88a3.55,3.55,0,0,1-1.38,2,4.06,4.06,0,0,1-2.25.6,4.53,4.53,0,0,1-1.65-.29,3.51,3.51,0,0,1-1.25-.83,3.81,3.81,0,0,1-.78-1.29,4.61,4.61,0,0,1-.28-1.65,4.32,4.32,0,0,1,.29-1.62A3.66,3.66,0,0,1,159.7,391a4,4,0,0,1,1.61-.32A3.73,3.73,0,0,1,163,391a3.47,3.47,0,0,1,1.21,1,4.13,4.13,0,0,1,.68,1.47,5.82,5.82,0,0,1,.16,1.73h-5.6A2.15,2.15,0,0,0,160,396.74Zm2.41-4.08a1.48,1.48,0,0,0-1.16-.42,2,2,0,0,0-.85.17,1.66,1.66,0,0,0-.54.43,1.55,1.55,0,0,0-.28.54,2.17,2.17,0,0,0-.1.51h3.46A2.42,2.42,0,0,0,162.41,392.66Z" style="fill:#272727"/><path d="M112.49,304.7l4,10.71h-2.44l-.81-2.38h-4l-.84,2.38H106l4-10.71Zm.13,6.57-1.35-3.93h0l-1.39,3.93Z" style="fill:#272727"/><path d="M119.22,307.66v1.08h0a2.49,2.49,0,0,1,1-1,3.1,3.1,0,0,1,1.32-.3,3.53,3.53,0,0,1,1.4.23,2.09,2.09,0,0,1,.86.64,2.45,2.45,0,0,1,.44,1,5.87,5.87,0,0,1,.13,1.31v4.77h-2.13V311a2.7,2.7,0,0,0-.3-1.43,1.14,1.14,0,0,0-1.06-.47,1.49,1.49,0,0,0-1.26.51,2.91,2.91,0,0,0-.39,1.71v4.06H117.2v-7.75Z" style="fill:#272727"/><path d="M126,310a2.46,2.46,0,0,1,.38-1.24,2.57,2.57,0,0,1,.84-.8,3.8,3.8,0,0,1,1.14-.43,7,7,0,0,1,1.29-.12,7.89,7.89,0,0,1,1.18.08,3.52,3.52,0,0,1,1.1.32,2.12,2.12,0,0,1,.81.67,1.85,1.85,0,0,1,.31,1.13v4a8,8,0,0,0,.06,1,1.82,1.82,0,0,0,.21.72h-2.16c0-.12-.07-.24-.1-.37s0-.25-.05-.38a2.79,2.79,0,0,1-1.2.74,4.82,4.82,0,0,1-1.41.21,3.77,3.77,0,0,1-1-.14,2.37,2.37,0,0,1-.84-.42,2,2,0,0,1-.57-.72,2.49,2.49,0,0,1-.2-1,2.32,2.32,0,0,1,.23-1.09,2,2,0,0,1,.6-.68,2.94,2.94,0,0,1,.84-.39c.32-.08.64-.15,1-.2l.94-.12a5.8,5.8,0,0,0,.83-.13,1.38,1.38,0,0,0,.57-.27.56.56,0,0,0,.19-.5,1.22,1.22,0,0,0-.11-.55.89.89,0,0,0-.3-.31,1,1,0,0,0-.44-.15,2.93,2.93,0,0,0-.53,0,1.62,1.62,0,0,0-1,.27,1.21,1.21,0,0,0-.42.9Zm4.92,1.58a.85.85,0,0,1-.34.18,2.7,2.7,0,0,1-.43.12l-.49.07-.51.08a3.59,3.59,0,0,0-.47.12,1.31,1.31,0,0,0-.41.2.94.94,0,0,0-.27.32,1.06,1.06,0,0,0-.11.5,1,1,0,0,0,.11.48.74.74,0,0,0,.28.3,1.11,1.11,0,0,0,.42.16,2.73,2.73,0,0,0,.5.05,1.86,1.86,0,0,0,1-.21,1.38,1.38,0,0,0,.51-.51,1.48,1.48,0,0,0,.2-.59,3.28,3.28,0,0,0,0-.48Z" style="fill:#272727"/><path d="M136.89,304.7v10.71h-2.13V304.7Z" style="fill:#272727"/><path d="M141.43,317.72a3.09,3.09,0,0,1-1.71.41l-.65,0-.65-.05V316.3l.61.06a4.42,4.42,0,0,0,.63,0,.83.83,0,0,0,.63-.33,1.1,1.1,0,0,0,.2-.63,1.28,1.28,0,0,0-.09-.48l-2.72-7.27H140L141.7,313h0l1.69-5.31h2.21l-3.25,8.71A2.57,2.57,0,0,1,141.43,317.72Z" style="fill:#272727"/><path d="M149.91,309.26h-3.73v-1.6h6.54v1.6l-4,4.55H153v1.6h-7.12v-1.6Z" style="fill:#272727"/><path d="M156.42,313.55a1.91,1.91,0,0,0,1.38.47,1.87,1.87,0,0,0,1.11-.33,1.31,1.31,0,0,0,.57-.68h1.87a3.53,3.53,0,0,1-1.38,2,4.06,4.06,0,0,1-2.25.6,4.28,4.28,0,0,1-1.64-.3,3.3,3.3,0,0,1-1.25-.83,3.83,3.83,0,0,1-.79-1.29,4.84,4.84,0,0,1-.28-1.65,4.52,4.52,0,0,1,.29-1.62,3.86,3.86,0,0,1,.81-1.3,3.93,3.93,0,0,1,1.25-.86,4,4,0,0,1,1.61-.31,3.62,3.62,0,0,1,1.73.38,3.45,3.45,0,0,1,1.21,1,4.31,4.31,0,0,1,.68,1.47,5.44,5.44,0,0,1,.15,1.72h-5.6A2.2,2.2,0,0,0,156.42,313.55Zm2.41-4.08a1.52,1.52,0,0,0-1.17-.42,1.9,1.9,0,0,0-.84.17,1.62,1.62,0,0,0-.83,1,2.85,2.85,0,0,0-.1.51h3.47A2.51,2.51,0,0,0,158.83,309.47Z" style="fill:#272727"/><path d="M110.81,221.52a4.37,4.37,0,0,1,1.71.29,3.1,3.1,0,0,1,1.15.77,3,3,0,0,1,.65,1.1,4.16,4.16,0,0,1,.2,1.27,4.26,4.26,0,0,1-.2,1.27,3,3,0,0,1-.65,1.1,3.1,3.1,0,0,1-1.15.77,4.36,4.36,0,0,1-1.71.3h-2.47v3.84H106V221.52Zm-.64,5a4.93,4.93,0,0,0,.78-.06,1.73,1.73,0,0,0,.66-.24,1.25,1.25,0,0,0,.46-.48,1.8,1.8,0,0,0,.17-.83,1.75,1.75,0,0,0-.17-.82,1.28,1.28,0,0,0-.46-.49,1.72,1.72,0,0,0-.66-.23,4.93,4.93,0,0,0-.78-.06h-1.83v3.21Z" style="fill:#272727"/><path d="M117.79,224.47v1.44h0a2.7,2.7,0,0,1,.4-.67,2.9,2.9,0,0,1,1.29-.86,2.54,2.54,0,0,1,.78-.12,1.71,1.71,0,0,1,.47.08v2l-.36-.06-.41,0a2.27,2.27,0,0,0-1,.2,1.69,1.69,0,0,0-.65.53,2.19,2.19,0,0,0-.35.79,4.23,4.23,0,0,0-.11,1v3.5h-2.13v-7.76Z" style="fill:#272727"/><path d="M121.37,226.67a3.55,3.55,0,0,1,.81-1.29,3.64,3.64,0,0,1,1.26-.83,4.53,4.53,0,0,1,1.65-.29,4.59,4.59,0,0,1,1.66.29,3.59,3.59,0,0,1,1.27.83,3.55,3.55,0,0,1,.81,1.29,4.76,4.76,0,0,1,.28,1.69,4.7,4.7,0,0,1-.28,1.68,3.68,3.68,0,0,1-.81,1.28,3.57,3.57,0,0,1-1.27.82,4.59,4.59,0,0,1-1.66.28,4.53,4.53,0,0,1-1.65-.28,3.62,3.62,0,0,1-1.26-.82,3.68,3.68,0,0,1-.81-1.28,4.7,4.7,0,0,1-.28-1.68A4.76,4.76,0,0,1,121.37,226.67Zm1.94,2.59a2.34,2.34,0,0,0,.31.8,1.61,1.61,0,0,0,.57.56,1.76,1.76,0,0,0,.9.21,1.8,1.8,0,0,0,.91-.21,1.67,1.67,0,0,0,.59-.56,2.55,2.55,0,0,0,.3-.8,4.43,4.43,0,0,0,.09-.9,4.7,4.7,0,0,0-.09-.92,2.41,2.41,0,0,0-.3-.79,1.64,1.64,0,0,0-1.5-.78,1.76,1.76,0,0,0-.9.21,1.73,1.73,0,0,0-.57.57,2.21,2.21,0,0,0-.31.79,4.7,4.7,0,0,0-.09.92A4.43,4.43,0,0,0,123.31,229.26Z" style="fill:#272727"/><path d="M134.2,225.87a1.47,1.47,0,0,0-.86.23,1.8,1.8,0,0,0-.56.6,2.62,2.62,0,0,0-.31.81,4.38,4.38,0,0,0-.09.88,4.17,4.17,0,0,0,.09.85,2.59,2.59,0,0,0,.3.79,1.66,1.66,0,0,0,.54.58,1.5,1.5,0,0,0,.84.22,1.54,1.54,0,0,0,1.18-.43,2,2,0,0,0,.52-1.14h2.05a3.5,3.5,0,0,1-1.2,2.35,3.86,3.86,0,0,1-2.53.81,4.38,4.38,0,0,1-1.6-.29,3.68,3.68,0,0,1-1.24-.82,3.75,3.75,0,0,1-.79-1.25,4.38,4.38,0,0,1-.29-1.6,5,5,0,0,1,.27-1.67,3.71,3.71,0,0,1,.77-1.34,3.56,3.56,0,0,1,1.24-.87,4.23,4.23,0,0,1,1.68-.32,4.85,4.85,0,0,1,1.33.18,3.36,3.36,0,0,1,1.14.55,2.86,2.86,0,0,1,.82.91,3,3,0,0,1,.36,1.3h-2.09A1.42,1.42,0,0,0,134.2,225.87Z" style="fill:#272727"/><path d="M141.38,230.37a1.9,1.9,0,0,0,1.38.46,1.93,1.93,0,0,0,1.11-.32,1.35,1.35,0,0,0,.57-.68h1.88a3.55,3.55,0,0,1-1.38,2,4.06,4.06,0,0,1-2.25.6,4.53,4.53,0,0,1-1.65-.29,3.51,3.51,0,0,1-1.25-.83A3.66,3.66,0,0,1,139,230a4.61,4.61,0,0,1-.28-1.65,4.52,4.52,0,0,1,.28-1.62,3.77,3.77,0,0,1,.81-1.3,3.71,3.71,0,0,1,1.26-.86,4,4,0,0,1,1.61-.32,3.73,3.73,0,0,1,1.72.38,3.47,3.47,0,0,1,1.21,1,4.13,4.13,0,0,1,.68,1.47,5.51,5.51,0,0,1,.15,1.73h-5.59A2.15,2.15,0,0,0,141.38,230.37Zm2.41-4.08a1.48,1.48,0,0,0-1.16-.42,1.82,1.82,0,0,0-.85.17,1.66,1.66,0,0,0-.54.43,1.55,1.55,0,0,0-.28.54,2.17,2.17,0,0,0-.1.51h3.46A2.42,2.42,0,0,0,143.79,226.29Z" style="fill:#272727"/><path d="M149.51,230.3a1.16,1.16,0,0,0,.36.4,1.55,1.55,0,0,0,.52.24,2.48,2.48,0,0,0,.61.07,2.59,2.59,0,0,0,.47,0,1.5,1.5,0,0,0,.45-.17.89.89,0,0,0,.34-.3.77.77,0,0,0,.13-.47q0-.48-.63-.72a13,13,0,0,0-1.78-.48,9.41,9.41,0,0,1-.91-.25,3.19,3.19,0,0,1-.79-.37,1.82,1.82,0,0,1-.55-.59,1.64,1.64,0,0,1-.21-.86,2.38,2.38,0,0,1,.29-1.23,2.24,2.24,0,0,1,.77-.76,3.65,3.65,0,0,1,1.08-.39,7.12,7.12,0,0,1,1.23-.11,6.26,6.26,0,0,1,1.23.12,3.24,3.24,0,0,1,1,.41,2.53,2.53,0,0,1,.78.75,2.65,2.65,0,0,1,.36,1.2h-2a1,1,0,0,0-.47-.84,2.19,2.19,0,0,0-1-.21,2.68,2.68,0,0,0-.39,0,1.18,1.18,0,0,0-.38.1.86.86,0,0,0-.29.21.61.61,0,0,0-.12.39.57.57,0,0,0,.21.46,1.5,1.5,0,0,0,.55.29,5.62,5.62,0,0,0,.77.21l.88.19a8.7,8.7,0,0,1,.91.26,3.06,3.06,0,0,1,.79.39,1.92,1.92,0,0,1,.55.62,1.8,1.8,0,0,1,.21.91,2.53,2.53,0,0,1-.3,1.28,2.57,2.57,0,0,1-.81.83,3.14,3.14,0,0,1-1.13.44,6.23,6.23,0,0,1-1.3.13,6.42,6.42,0,0,1-1.32-.13,3.4,3.4,0,0,1-1.14-.45,2.56,2.56,0,0,1-.83-.84,2.61,2.61,0,0,1-.35-1.29h2A1.13,1.13,0,0,0,149.51,230.3Z" style="fill:#272727"/><path d="M157.56,230.3a1.29,1.29,0,0,0,.37.4,1.46,1.46,0,0,0,.52.24,2.35,2.35,0,0,0,.6.07,2.8,2.8,0,0,0,.48,0,1.74,1.74,0,0,0,.45-.17.94.94,0,0,0,.33-.3.77.77,0,0,0,.14-.47c0-.32-.21-.56-.64-.72a12.59,12.59,0,0,0-1.78-.48,8.5,8.5,0,0,1-.9-.25,3,3,0,0,1-.79-.37,1.86,1.86,0,0,1-.56-.59,1.64,1.64,0,0,1-.21-.86,2.29,2.29,0,0,1,.3-1.23,2.16,2.16,0,0,1,.77-.76,3.65,3.65,0,0,1,1.08-.39,7.12,7.12,0,0,1,1.23-.11,6.08,6.08,0,0,1,1.22.12,3.21,3.21,0,0,1,1.06.41,2.4,2.4,0,0,1,.77.75,2.54,2.54,0,0,1,.37,1.2h-2a1,1,0,0,0-.46-.84,2.19,2.19,0,0,0-1-.21,2.68,2.68,0,0,0-.39,0,1.12,1.12,0,0,0-.38.1.81.81,0,0,0-.3.21.61.61,0,0,0-.12.39.57.57,0,0,0,.21.46,1.59,1.59,0,0,0,.55.29,6,6,0,0,0,.77.21l.89.19a9.46,9.46,0,0,1,.91.26,3.16,3.16,0,0,1,.78.39,2,2,0,0,1,.56.62,1.8,1.8,0,0,1,.21.91,2.36,2.36,0,0,1-1.11,2.11,3.21,3.21,0,0,1-1.13.44,6.3,6.3,0,0,1-1.3.13,6.42,6.42,0,0,1-1.32-.13,3.54,3.54,0,0,1-1.15-.45,2.53,2.53,0,0,1-1.18-2.13h2A1.22,1.22,0,0,0,157.56,230.3Z" style="fill:#272727"/><path d="M112.91,138.33l4,10.71h-2.44l-.81-2.38h-4l-.84,2.38h-2.37l4-10.71Zm.13,6.57L111.69,141h0l-1.39,3.93Z" style="fill:#272727"/><path d="M121.32,142.68a1.52,1.52,0,0,0-.85.23,2,2,0,0,0-.57.6,2.81,2.81,0,0,0-.3.81,4.46,4.46,0,0,0-.09.88,4.26,4.26,0,0,0,.09.86,2.42,2.42,0,0,0,.29.78,1.61,1.61,0,0,0,.55.58,1.51,1.51,0,0,0,.84.23,1.56,1.56,0,0,0,1.17-.43,2,2,0,0,0,.52-1.15H125a3.53,3.53,0,0,1-1.2,2.36,3.89,3.89,0,0,1-2.54.81,4.18,4.18,0,0,1-1.6-.3,3.47,3.47,0,0,1-1.23-.81,3.72,3.72,0,0,1-.8-1.26,4.28,4.28,0,0,1-.28-1.59,5.1,5.1,0,0,1,.26-1.68,3.66,3.66,0,0,1,.77-1.33,3.5,3.5,0,0,1,1.25-.88,4.23,4.23,0,0,1,1.68-.31,4.78,4.78,0,0,1,1.32.18,3.53,3.53,0,0,1,1.14.54A2.84,2.84,0,0,1,125,144H122.9A1.44,1.44,0,0,0,121.32,142.68Z" style="fill:#272727"/><path d="M131.66,151.76v-3.69h0a2.1,2.1,0,0,1-1,.9,3.75,3.75,0,0,1-1.4.27,3.3,3.3,0,0,1-1.12-.21,2.84,2.84,0,0,1-1-.67,3.69,3.69,0,0,1-.8-1.25,5,5,0,0,1-.31-1.89,5.74,5.74,0,0,1,.21-1.55,4,4,0,0,1,.64-1.33,3.14,3.14,0,0,1,2.63-1.26,3.39,3.39,0,0,1,1.35.27,2.09,2.09,0,0,1,1,.93h0v-1h2v10.47Zm-3.54-5.68a2.49,2.49,0,0,0,.3.79,1.8,1.8,0,0,0,2.33.57,1.63,1.63,0,0,0,.57-.54,2.28,2.28,0,0,0,.31-.78,4.19,4.19,0,0,0,0-1.82,2.61,2.61,0,0,0-.3-.81,1.67,1.67,0,0,0-.57-.58,1.51,1.51,0,0,0-.84-.23,1.75,1.75,0,0,0-.89.21,1.73,1.73,0,0,0-.58.56,2.59,2.59,0,0,0-.33.8,4.56,4.56,0,0,0-.09.92A4.6,4.6,0,0,0,128.12,146.08Z" style="fill:#272727"/><path d="M140.64,149V148h0a2.41,2.41,0,0,1-1,1,3.25,3.25,0,0,1-1.32.3,3.78,3.78,0,0,1-1.41-.23,2,2,0,0,1-.86-.64,2.41,2.41,0,0,1-.44-1,5.94,5.94,0,0,1-.13-1.31v-4.77h2.13v4.38a2.72,2.72,0,0,0,.3,1.43,1.18,1.18,0,0,0,1.07.47,1.46,1.46,0,0,0,1.26-.52,2.86,2.86,0,0,0,.39-1.7v-4.06h2.13V149Z" style="fill:#272727"/><path d="M144.35,140.09v-1.76h2.13v1.76Zm2.13,1.2V149h-2.13v-7.75Z" style="fill:#272727"/><path d="M150.18,141.29v1.44h0a2.57,2.57,0,0,1,.41-.67,2.65,2.65,0,0,1,.58-.53,3.06,3.06,0,0,1,.71-.33,2.54,2.54,0,0,1,.78-.12,1.61,1.61,0,0,1,.46.07v2l-.36,0a2.75,2.75,0,0,0-.4,0,2.27,2.27,0,0,0-1,.19,1.82,1.82,0,0,0-.66.53,2.27,2.27,0,0,0-.35.79,4.34,4.34,0,0,0-.1,1V149h-2.13v-7.75Z" style="fill:#272727"/><path d="M156,147.18a1.91,1.91,0,0,0,1.38.47,1.87,1.87,0,0,0,1.11-.33,1.31,1.31,0,0,0,.57-.68h1.88a3.57,3.57,0,0,1-1.38,2,4.06,4.06,0,0,1-2.25.6,4.33,4.33,0,0,1-1.65-.3,3.38,3.38,0,0,1-1.25-.83,3.83,3.83,0,0,1-.79-1.29,4.84,4.84,0,0,1-.27-1.65,4.52,4.52,0,0,1,.28-1.62,3.86,3.86,0,0,1,.81-1.3,3.93,3.93,0,0,1,1.25-.86,4.07,4.07,0,0,1,1.62-.31,3.61,3.61,0,0,1,1.72.38,3.45,3.45,0,0,1,1.21,1,4.31,4.31,0,0,1,.68,1.47,5.44,5.44,0,0,1,.15,1.72h-5.59A2.15,2.15,0,0,0,156,147.18Zm2.41-4.08a1.5,1.5,0,0,0-1.16-.42,1.92,1.92,0,0,0-.85.17,1.62,1.62,0,0,0-.83,1,2.75,2.75,0,0,0-.09.51h3.46A2.51,2.51,0,0,0,158.41,143.1Z" style="fill:#272727"/><path d="M124.16,55.21a4.36,4.36,0,0,1,1.71.3,3.06,3.06,0,0,1,1.14.77,3,3,0,0,1,.65,1.09,4.16,4.16,0,0,1,0,2.55A3,3,0,0,1,127,61a3.06,3.06,0,0,1-1.14.77,4.37,4.37,0,0,1-1.71.29h-2.48v3.84h-2.35V55.21Zm-.65,5a4.93,4.93,0,0,0,.78-.06A1.72,1.72,0,0,0,125,60a1.28,1.28,0,0,0,.46-.49,1.75,1.75,0,0,0,.17-.82,1.8,1.8,0,0,0-.17-.83,1.25,1.25,0,0,0-.46-.48,1.73,1.73,0,0,0-.66-.24,4.93,4.93,0,0,0-.78-.06h-1.83v3.21Z" style="fill:#272727"/><path d="M131.3,55.21V65.92h-2.13V55.21Z" style="fill:#272727"/><path d="M132.89,60.55a2.45,2.45,0,0,1,.37-1.24,2.57,2.57,0,0,1,.84-.8,3.5,3.5,0,0,1,1.15-.42,6.11,6.11,0,0,1,1.28-.13,9.64,9.64,0,0,1,1.19.08,3.74,3.74,0,0,1,1.09.32,2.21,2.21,0,0,1,.81.67,1.87,1.87,0,0,1,.32,1.13v4a8,8,0,0,0,.06,1,1.67,1.67,0,0,0,.21.72h-2.16a2.42,2.42,0,0,1-.1-.36,2.6,2.6,0,0,1,0-.39,2.79,2.79,0,0,1-1.2.74,4.82,4.82,0,0,1-1.41.21,3.84,3.84,0,0,1-1-.14,2.37,2.37,0,0,1-.84-.42,1.9,1.9,0,0,1-.56-.72,2.34,2.34,0,0,1-.2-1,2.23,2.23,0,0,1,.23-1.09,1.88,1.88,0,0,1,.6-.68,2.48,2.48,0,0,1,.84-.38,7.66,7.66,0,0,1,1-.21l.95-.12a5.65,5.65,0,0,0,.82-.13,1.51,1.51,0,0,0,.57-.26.6.6,0,0,0,.2-.51,1,1,0,0,0-.12-.54.77.77,0,0,0-.3-.32,1.36,1.36,0,0,0-.43-.15,4.39,4.39,0,0,0-.53,0,1.62,1.62,0,0,0-1,.27,1.17,1.17,0,0,0-.42.9Zm4.92,1.58a1.11,1.11,0,0,1-.34.19l-.44.11-.48.07-.51.08a4.21,4.21,0,0,0-.48.12,1.5,1.5,0,0,0-.4.2,1,1,0,0,0-.28.32,1.06,1.06,0,0,0-.1.5,1,1,0,0,0,.1.48.86.86,0,0,0,.29.31,1.3,1.3,0,0,0,.42.15,2.63,2.63,0,0,0,.49,0,1.9,1.9,0,0,0,1-.21,1.44,1.44,0,0,0,.51-.5,1.77,1.77,0,0,0,.2-.6c0-.2,0-.36,0-.48Z" style="fill:#272727"/><path d="M143.61,58.17v1.08h0a2.41,2.41,0,0,1,1.05-1A3,3,0,0,1,146,58a3.72,3.72,0,0,1,1.4.23,2.11,2.11,0,0,1,.86.65,2.41,2.41,0,0,1,.44,1,5.94,5.94,0,0,1,.13,1.31v4.77h-2.13V61.54a2.72,2.72,0,0,0-.3-1.43,1.16,1.16,0,0,0-1.06-.47,1.45,1.45,0,0,0-1.26.52,2.86,2.86,0,0,0-.39,1.7v4.06h-2.13V58.17Z" style="fill:#272727"/><path d="M7,4.48a7.64,7.64,0,0,1,2.69.46,5.92,5.92,0,0,1,2.17,1.38,6.4,6.4,0,0,1,1.42,2.31,9.22,9.22,0,0,1,.52,3.26,10.35,10.35,0,0,1-.42,3,6.65,6.65,0,0,1-1.27,2.4A6,6,0,0,1,10,18.89a7.12,7.12,0,0,1-3,.58H.53v-15ZM6.76,16.7a4.36,4.36,0,0,0,1.39-.23,3.09,3.09,0,0,0,1.2-.77,3.84,3.84,0,0,0,.84-1.4,6.12,6.12,0,0,0,.31-2.1,8.5,8.5,0,0,0-.22-2,4.12,4.12,0,0,0-.72-1.57,3.33,3.33,0,0,0-1.34-1,5.31,5.31,0,0,0-2-.34H3.82V16.7Z" style="fill:#272727"/><path d="M15.65,12a3.41,3.41,0,0,1,.52-1.74A3.58,3.58,0,0,1,17.35,9.1,5.1,5.1,0,0,1,19,8.5a9.16,9.16,0,0,1,1.8-.18,13.35,13.35,0,0,1,1.66.11,5,5,0,0,1,1.53.46,3,3,0,0,1,1.14.93,2.65,2.65,0,0,1,.44,1.59v5.64a12.61,12.61,0,0,0,.08,1.41,2.58,2.58,0,0,0,.3,1h-3a4.77,4.77,0,0,1-.13-.51,5,5,0,0,1-.08-.54,3.86,3.86,0,0,1-1.68,1,6.91,6.91,0,0,1-2,.29,5.19,5.19,0,0,1-1.45-.19A3.34,3.34,0,0,1,16.38,19a2.78,2.78,0,0,1-.78-1,3.41,3.41,0,0,1-.29-1.45A3.08,3.08,0,0,1,15.64,15a2.61,2.61,0,0,1,.84-1,3.47,3.47,0,0,1,1.17-.53A12.3,12.3,0,0,1,19,13.21c.44-.07.89-.12,1.32-.17a6.89,6.89,0,0,0,1.15-.19,1.92,1.92,0,0,0,.8-.36.82.82,0,0,0,.28-.71,1.62,1.62,0,0,0-.16-.76,1.19,1.19,0,0,0-.42-.44,1.53,1.53,0,0,0-.61-.21,4.38,4.38,0,0,0-.75-.06,2.26,2.26,0,0,0-1.38.38A1.68,1.68,0,0,0,18.63,12Zm6.89,2.21a1.38,1.38,0,0,1-.48.26c-.19.06-.39.11-.61.16l-.68.1c-.24,0-.47.06-.71.11a4.54,4.54,0,0,0-.66.16,1.91,1.91,0,0,0-.57.29,1.32,1.32,0,0,0-.54,1.14,1.36,1.36,0,0,0,.15.67,1.14,1.14,0,0,0,.4.44,2,2,0,0,0,.59.22,3.85,3.85,0,0,0,.69.06,2.63,2.63,0,0,0,1.37-.3,1.91,1.91,0,0,0,.71-.7,2.21,2.21,0,0,0,.28-.83,5,5,0,0,0,.06-.67Z" style="fill:#272727"/><path d="M33.79,8.61v2H31.61V16a1.45,1.45,0,0,0,.25,1,1.45,1.45,0,0,0,1,.25,3.77,3.77,0,0,0,.48,0,3.11,3.11,0,0,0,.44-.06v2.31a6.67,6.67,0,0,1-.84.08c-.31,0-.61,0-.9,0a9.09,9.09,0,0,1-1.31-.09,2.92,2.92,0,0,1-1.1-.37,2,2,0,0,1-.74-.77A2.83,2.83,0,0,1,28.63,17v-6.4H26.82v-2h1.81V5.36h3V8.61Z" style="fill:#272727"/><path d="M35.09,12a3.41,3.41,0,0,1,.53-1.74A3.65,3.65,0,0,1,36.79,9.1a5.16,5.16,0,0,1,1.61-.6,9,9,0,0,1,1.8-.18,13.32,13.32,0,0,1,1.65.11,5,5,0,0,1,1.54.46,2.94,2.94,0,0,1,1.13.93A2.58,2.58,0,0,1,45,11.41v5.64a10.56,10.56,0,0,0,.09,1.41,2.44,2.44,0,0,0,.29,1h-3a4.84,4.84,0,0,1-.14-.51,5,5,0,0,1-.07-.54,4,4,0,0,1-1.68,1,7,7,0,0,1-2,.29A5.19,5.19,0,0,1,37,19.55,3.29,3.29,0,0,1,35.83,19,2.8,2.8,0,0,1,35,18a3.41,3.41,0,0,1-.28-1.45A3.2,3.2,0,0,1,35.08,15a2.81,2.81,0,0,1,.84-1,3.52,3.52,0,0,1,1.18-.53,12.12,12.12,0,0,1,1.33-.29c.45-.07.89-.12,1.32-.17a7,7,0,0,0,1.16-.19,2,2,0,0,0,.8-.36.84.84,0,0,0,.27-.71,1.51,1.51,0,0,0-.16-.76,1.05,1.05,0,0,0-.42-.44,1.42,1.42,0,0,0-.61-.21,4.35,4.35,0,0,0-.74-.06,2.29,2.29,0,0,0-1.39.38A1.68,1.68,0,0,0,38.08,12ZM42,14.16a1.33,1.33,0,0,1-.47.26c-.19.06-.39.11-.61.16l-.68.1c-.24,0-.48.06-.72.11a5.28,5.28,0,0,0-.66.16,1.91,1.91,0,0,0-.57.29,1.27,1.27,0,0,0-.38.45,1.41,1.41,0,0,0-.15.69,1.36,1.36,0,0,0,.15.67,1.11,1.11,0,0,0,.39.44,2.06,2.06,0,0,0,.59.22,4,4,0,0,0,.7.06,2.59,2.59,0,0,0,1.36-.3,1.91,1.91,0,0,0,.71-.7,2.23,2.23,0,0,0,.29-.83c0-.28,0-.5,0-.67Z" style="fill:#272727"/><path d="M60.19,4.48a6.29,6.29,0,0,1,2.39.4A4.53,4.53,0,0,1,64.19,6a4.24,4.24,0,0,1,.9,1.53,5.8,5.8,0,0,1,0,3.56,4.2,4.2,0,0,1-.9,1.54,4.39,4.39,0,0,1-1.61,1.08,6.09,6.09,0,0,1-2.39.41H56.72v5.38H53.43v-15Zm-.91,7a7.8,7.8,0,0,0,1.1-.08,2.65,2.65,0,0,0,.92-.33,1.75,1.75,0,0,0,.64-.68,2.41,2.41,0,0,0,.24-1.16,2.4,2.4,0,0,0-.24-1.15,1.75,1.75,0,0,0-.64-.68,2.65,2.65,0,0,0-.92-.33A7.8,7.8,0,0,0,59.28,7H56.72v4.49Z" style="fill:#272727"/><path d="M74.47,19.47V18H74.4a3.26,3.26,0,0,1-1.47,1.36,4.3,4.3,0,0,1-1.84.42,5.25,5.25,0,0,1-2-.31,2.83,2.83,0,0,1-1.2-.89,3.36,3.36,0,0,1-.62-1.41,8.7,8.7,0,0,1-.18-1.84V8.61h3v6.13a3.81,3.81,0,0,0,.42,2,1.63,1.63,0,0,0,1.49.66,2.06,2.06,0,0,0,1.76-.72,4,4,0,0,0,.55-2.39V8.61h3V19.47Z" style="fill:#272727"/><path d="M82.55,4.48V9.94h0a3.21,3.21,0,0,1,1.49-1.23A5,5,0,0,1,86,8.32a4.18,4.18,0,0,1,1.61.33,4.11,4.11,0,0,1,1.44,1,5.23,5.23,0,0,1,1,1.78,7.34,7.34,0,0,1,.4,2.57,7.34,7.34,0,0,1-.4,2.57,5.14,5.14,0,0,1-1,1.78,4.11,4.11,0,0,1-1.44,1,4.18,4.18,0,0,1-1.61.33,5.56,5.56,0,0,1-2.14-.38,2.67,2.67,0,0,1-1.43-1.28h0v1.39H79.57v-15Zm4.83,8.25a3.46,3.46,0,0,0-.46-1.11,2.32,2.32,0,0,0-.79-.77A2.14,2.14,0,0,0,85,10.57a2.22,2.22,0,0,0-1.14.28,2.32,2.32,0,0,0-.79.77,3.48,3.48,0,0,0-.47,1.11,6.28,6.28,0,0,0-.14,1.32,6.16,6.16,0,0,0,.14,1.3,3.63,3.63,0,0,0,.47,1.12,2.39,2.39,0,0,0,.79.76,2.22,2.22,0,0,0,1.14.29,2.14,2.14,0,0,0,1.14-.29,2.39,2.39,0,0,0,.79-.76,3.62,3.62,0,0,0,.46-1.12,5.57,5.57,0,0,0,.15-1.3A5.68,5.68,0,0,0,87.38,12.73Z" style="fill:#272727"/><path d="M95.47,4.48v15h-3v-15Z" style="fill:#272727"/><path d="M97.9,6.93V4.48h3V6.93Zm3,1.68V19.47h-3V8.61Z" style="fill:#272727"/><path d="M108.42,10.57a2.06,2.06,0,0,0-1.19.32,2.54,2.54,0,0,0-.79.84,3.55,3.55,0,0,0-.43,1.14,5.69,5.69,0,0,0-.13,1.22,5.51,5.51,0,0,0,.13,1.2,3.53,3.53,0,0,0,.41,1.1,2.36,2.36,0,0,0,.76.81,2.15,2.15,0,0,0,1.18.32,2.18,2.18,0,0,0,1.65-.6,2.83,2.83,0,0,0,.72-1.61h2.88a5,5,0,0,1-1.68,3.3,5.45,5.45,0,0,1-3.55,1.13,5.75,5.75,0,0,1-2.23-.41,5,5,0,0,1-1.74-1.14,5.38,5.38,0,0,1-1.11-1.76,5.94,5.94,0,0,1-.4-2.23,7.09,7.09,0,0,1,.37-2.34A5.11,5.11,0,0,1,104.35,10a4.92,4.92,0,0,1,1.74-1.23,6,6,0,0,1,2.35-.44,6.68,6.68,0,0,1,1.86.25,4.85,4.85,0,0,1,1.6.77A4,4,0,0,1,113,10.62a4,4,0,0,1,.51,1.81h-2.92A2,2,0,0,0,108.42,10.57Z" style="fill:#272727"/><path d="M115.16,12a3.51,3.51,0,0,1,.53-1.74,3.58,3.58,0,0,1,1.18-1.11,5.1,5.1,0,0,1,1.6-.6,9.16,9.16,0,0,1,1.8-.18,13.47,13.47,0,0,1,1.66.11,5,5,0,0,1,1.53.46,2.94,2.94,0,0,1,1.13.93,2.58,2.58,0,0,1,.44,1.59v5.64a10.56,10.56,0,0,0,.09,1.41,2.44,2.44,0,0,0,.29,1h-3a4.84,4.84,0,0,1-.14-.51,5,5,0,0,1-.07-.54,4,4,0,0,1-1.68,1,7,7,0,0,1-2,.29,5.12,5.12,0,0,1-1.44-.19A3.34,3.34,0,0,1,115.9,19a2.8,2.8,0,0,1-.79-1,3.41,3.41,0,0,1-.28-1.45,3.2,3.2,0,0,1,.32-1.52,2.81,2.81,0,0,1,.84-1,3.62,3.62,0,0,1,1.18-.53,12.65,12.65,0,0,1,1.33-.29c.45-.07.89-.12,1.33-.17a6.89,6.89,0,0,0,1.15-.19,2,2,0,0,0,.8-.36.79.79,0,0,0,.27-.71,1.51,1.51,0,0,0-.16-.76,1.05,1.05,0,0,0-.42-.44,1.43,1.43,0,0,0-.6-.21,4.38,4.38,0,0,0-.75-.06,2.29,2.29,0,0,0-1.39.38,1.68,1.68,0,0,0-.58,1.26Zm6.89,2.21a1.25,1.25,0,0,1-.47.26c-.19.06-.39.11-.61.16l-.68.1c-.24,0-.48.06-.72.11a5.28,5.28,0,0,0-.66.16,2,2,0,0,0-.56.29,1.3,1.3,0,0,0-.39.45,1.41,1.41,0,0,0-.15.69,1.36,1.36,0,0,0,.15.67,1.14,1.14,0,0,0,.4.44,1.89,1.89,0,0,0,.58.22,4,4,0,0,0,.7.06,2.56,2.56,0,0,0,1.36-.3,2,2,0,0,0,.72-.7,2.21,2.21,0,0,0,.28-.83c0-.28,0-.5,0-.67Z" style="fill:#272727"/><path d="M133.31,8.61v2h-2.19V16a1.44,1.44,0,0,0,.26,1,1.42,1.42,0,0,0,1,.25,3.93,3.93,0,0,0,.49,0,3.11,3.11,0,0,0,.44-.06v2.31a6.67,6.67,0,0,1-.84.08c-.31,0-.61,0-.9,0a9.23,9.23,0,0,1-1.32-.09,2.93,2.93,0,0,1-1.09-.37,2,2,0,0,1-.74-.77,2.71,2.71,0,0,1-.28-1.33v-6.4h-1.8v-2h1.8V5.36h3V8.61Z" style="fill:#272727"/><path d="M134.82,6.93V4.48h3V6.93Zm3,1.68V19.47h-3V8.61Z" style="fill:#272727"/><path d="M140.22,11.69a5,5,0,0,1,1.13-1.81,5.11,5.11,0,0,1,1.77-1.15,6.22,6.22,0,0,1,2.31-.41,6.38,6.38,0,0,1,2.32.41,5.11,5.11,0,0,1,1.77,1.15,5,5,0,0,1,1.13,1.81,6.57,6.57,0,0,1,.4,2.36,6.47,6.47,0,0,1-.4,2.35,5.05,5.05,0,0,1-1.13,1.8,4.82,4.82,0,0,1-1.77,1.14,6.38,6.38,0,0,1-2.32.4,6.22,6.22,0,0,1-2.31-.4,4.82,4.82,0,0,1-1.77-1.14,5.05,5.05,0,0,1-1.13-1.8,6.47,6.47,0,0,1-.4-2.35A6.57,6.57,0,0,1,140.22,11.69Zm2.71,3.63a3,3,0,0,0,.43,1.11,2.19,2.19,0,0,0,.81.79,2.4,2.4,0,0,0,1.26.3,2.51,2.51,0,0,0,1.27-.3,2.19,2.19,0,0,0,.81-.79,3.23,3.23,0,0,0,.44-1.11,6.59,6.59,0,0,0,.12-1.27,6.85,6.85,0,0,0-.12-1.28,3.23,3.23,0,0,0-.44-1.11,2.36,2.36,0,0,0-.81-.79,2.51,2.51,0,0,0-1.27-.3,2.4,2.4,0,0,0-1.26.3,2.36,2.36,0,0,0-.81.79,3,3,0,0,0-.43,1.11,6.11,6.11,0,0,0-.13,1.28A5.88,5.88,0,0,0,142.93,15.32Z" style="fill:#272727"/><path d="M155.82,8.61v1.51h.06a3.45,3.45,0,0,1,1.47-1.37,4.21,4.21,0,0,1,1.85-.43,5.18,5.18,0,0,1,2,.32,2.83,2.83,0,0,1,1.21.91A3.39,3.39,0,0,1,163,11a8.77,8.77,0,0,1,.18,1.84v6.68h-3V13.34a3.81,3.81,0,0,0-.42-2,1.63,1.63,0,0,0-1.49-.66,2.08,2.08,0,0,0-1.77.72,4.09,4.09,0,0,0-.54,2.39v5.69h-3V8.61Z" style="fill:#272727"/><path d="M174.89,4.48V16.7h7.31v2.77H171.59v-15Z" style="fill:#272727"/><path d="M183.81,6.93V4.48h3V6.93Zm3,1.68V19.47h-3V8.61Z" style="fill:#272727"/><path d="M188,10.61v-2h1.79V7.77a3.27,3.27,0,0,1,.9-2.37,3.64,3.64,0,0,1,2.73-.92c.27,0,.53,0,.8,0l.78,0V6.79a7.82,7.82,0,0,0-1.1-.07A1.15,1.15,0,0,0,193,7a1.4,1.4,0,0,0-.26,1v.65h2.06v2h-2.06v8.86h-3V10.61Z" style="fill:#272727"/><path d="M199.33,16.87a3.07,3.07,0,0,0,3.49.2,1.94,1.94,0,0,0,.8-1h2.62a5,5,0,0,1-1.93,2.79,5.7,5.7,0,0,1-3.15.84,6,6,0,0,1-2.31-.41,4.71,4.71,0,0,1-1.74-1.16A5.29,5.29,0,0,1,196,16.36a6.59,6.59,0,0,1-.39-2.31,6.49,6.49,0,0,1,.4-2.27A5.36,5.36,0,0,1,197.15,10a5.27,5.27,0,0,1,1.75-1.21,5.69,5.69,0,0,1,2.26-.44,5.22,5.22,0,0,1,2.41.53,4.83,4.83,0,0,1,1.69,1.44,6,6,0,0,1,1,2.06,7.76,7.76,0,0,1,.21,2.42H198.6A3,3,0,0,0,199.33,16.87Zm3.37-5.72a2.11,2.11,0,0,0-1.63-.58,2.58,2.58,0,0,0-1.18.24,2.22,2.22,0,0,0-1.16,1.35,3.68,3.68,0,0,0-.13.72h4.85A3.47,3.47,0,0,0,202.7,11.15Z" style="fill:#272727"/><path d="M224,8.48a3.05,3.05,0,0,0-.73-.83,3.27,3.27,0,0,0-1-.56,3.49,3.49,0,0,0-1.16-.2,3.77,3.77,0,0,0-1.89.43,3.51,3.51,0,0,0-1.26,1.16,5,5,0,0,0-.71,1.64A8.69,8.69,0,0,0,217,12a7.9,7.9,0,0,0,.22,1.83,4.88,4.88,0,0,0,.71,1.61,3.46,3.46,0,0,0,1.26,1.14,3.77,3.77,0,0,0,1.89.43,3,3,0,0,0,2.36-.92,4.3,4.3,0,0,0,1-2.44h3.19a7.59,7.59,0,0,1-.65,2.55,6,6,0,0,1-1.39,1.93,5.86,5.86,0,0,1-2,1.22,7.4,7.4,0,0,1-2.54.42,7.69,7.69,0,0,1-3.1-.6,6.62,6.62,0,0,1-2.32-1.65,7.33,7.33,0,0,1-1.45-2.47,8.91,8.91,0,0,1-.5-3.05,9.28,9.28,0,0,1,.5-3.12,7.51,7.51,0,0,1,1.45-2.51A6.45,6.45,0,0,1,218,4.73a8,8,0,0,1,5.44-.25,6.28,6.28,0,0,1,2,1,5.67,5.67,0,0,1,1.44,1.7,5.85,5.85,0,0,1,.71,2.31h-3.19A2.51,2.51,0,0,0,224,8.48Z" style="fill:#272727"/><path d="M233.6,22.7a4.29,4.29,0,0,1-2.39.57c-.31,0-.61,0-.91,0l-.92-.07V20.71l.86.08a5.2,5.2,0,0,0,.88,0,1.14,1.14,0,0,0,.88-.46,1.46,1.46,0,0,0,.28-.88,1.67,1.67,0,0,0-.13-.67l-3.8-10.19h3.17L234,16.05h0l2.38-7.44h3.08L235,20.81A3.62,3.62,0,0,1,233.6,22.7Z" style="fill:#272727"/><path d="M245.68,10.57a2.07,2.07,0,0,0-1.2.32,2.76,2.76,0,0,0-.79.84,3.8,3.8,0,0,0-.43,1.14,6.38,6.38,0,0,0-.12,1.22,6.18,6.18,0,0,0,.12,1.2,3.8,3.8,0,0,0,.41,1.1,2.39,2.39,0,0,0,.77.81,2.09,2.09,0,0,0,1.17.32,2.17,2.17,0,0,0,1.65-.6,2.84,2.84,0,0,0,.73-1.61h2.87a4.89,4.89,0,0,1-1.68,3.3,5.42,5.42,0,0,1-3.54,1.13,5.8,5.8,0,0,1-2.24-.41,4.84,4.84,0,0,1-1.73-1.14,5.25,5.25,0,0,1-1.12-1.76,6.14,6.14,0,0,1-.4-2.23,7.36,7.36,0,0,1,.37-2.34A5.4,5.4,0,0,1,241.6,10a4.87,4.87,0,0,1,1.75-1.23,6,6,0,0,1,2.35-.44,6.79,6.79,0,0,1,1.86.25,4.89,4.89,0,0,1,1.59.77,4.16,4.16,0,0,1,1.15,1.28,4.08,4.08,0,0,1,.5,1.81h-2.92A2,2,0,0,0,245.68,10.57Z" style="fill:#272727"/><path d="M255.61,4.48v15h-3v-15Z" style="fill:#272727"/><path d="M261.15,16.87a2.71,2.71,0,0,0,1.94.65,2.65,2.65,0,0,0,1.55-.45,1.94,1.94,0,0,0,.8-1h2.62a5,5,0,0,1-1.93,2.79,5.7,5.7,0,0,1-3.15.84,6.09,6.09,0,0,1-2.31-.41,4.79,4.79,0,0,1-1.74-1.16,5.12,5.12,0,0,1-1.1-1.81,6.59,6.59,0,0,1-.39-2.31,6.27,6.27,0,0,1,.4-2.27A5.19,5.19,0,0,1,259,10a5.27,5.27,0,0,1,1.75-1.21A5.73,5.73,0,0,1,263,8.32a5.26,5.26,0,0,1,2.42.53,4.92,4.92,0,0,1,1.69,1.44,5.81,5.81,0,0,1,1,2.06,7.47,7.47,0,0,1,.21,2.42h-7.83A3.07,3.07,0,0,0,261.15,16.87Zm3.37-5.72a2.07,2.07,0,0,0-1.62-.58,2.63,2.63,0,0,0-1.19.24,2.3,2.3,0,0,0-.76.6,2.16,2.16,0,0,0-.39.75,3.13,3.13,0,0,0-.14.72h4.85A3.47,3.47,0,0,0,264.52,11.15Z" style="fill:#272727"/></svg>