<svg id="Layer_1" data-name="Layer 1" xmlns="http://www.w3.org/2000/svg" viewBox="0 0 1192.2 250.7"><path d="M985.14,125.35a80.58,80.58,0,0,0,10.54,40l-38.43,22.19a125.52,125.52,0,0,1,.61-125.37L996.3,84.33A80.53,80.53,0,0,0,985.14,125.35Z" style="fill:#69bfea"/><path d="M1066.13,0V44.37a80.92,80.92,0,0,0-69.83,40L957.86,62.14A125.3,125.3,0,0,1,1066.13,0Z" style="fill:#016797"/><path d="M1174.4,62.14,1136,84.33a80.92,80.92,0,0,0-69.83-40V0A125.3,125.3,0,0,1,1174.4,62.14Z" style="fill:#1f94d2"/><path d="M1191.48,125.35A124.79,124.79,0,0,1,1175,187.51l-38.43-22.19a81,81,0,0,0-.62-81l38.44-22.19A124.74,124.74,0,0,1,1191.48,125.35Z" style="fill:#69bfea"/><path d="M1175,187.51a125.31,125.31,0,0,1-108.88,63.19V206.34a81,81,0,0,0,70.45-41Z" style="fill:#016797"/><path d="M1066.13,206.34V250.7a125.31,125.31,0,0,1-108.88-63.19l38.43-22.19A81,81,0,0,0,1066.13,206.34Z" style="fill:#1f94d2"/><polygon points="1066.13 44.37 1082.24 22.18 1066.13 0 1060.8 21.87 1066.13 44.37" style="fill:#016797"/><polygon points="996.06 84.96 984.9 59.91 957.63 62.77 973.9 78.32 996.06 84.96" style="fill:#69bfea"/><polygon points="996.17 165.94 968.9 163.08 957.75 188.12 979.35 181.8 996.17 165.94" style="fill:#1f94d2"/><polygon points="1066.36 206.33 1050.24 228.51 1066.36 250.7 1071.69 228.83 1066.36 206.33" style="fill:#016797"/><polygon points="1136.43 165.74 1147.59 190.79 1174.86 187.93 1158.58 172.38 1136.43 165.74" style="fill:#69bfea"/><polygon points="1136.32 84.76 1163.59 87.62 1174.74 62.58 1153.14 68.9 1136.32 84.76" style="fill:#1f94d2"/><polygon points="1063.23 50.92 1060.8 49.16 1080.39 22.18 1061.44 -3.91 1063.87 -5.67 1084.1 22.18 1063.23 50.92" style="fill:#fff"/><polygon points="1000.28 90.75 997.54 91.97 983.97 61.52 951.9 64.88 951.59 61.9 985.83 58.31 1000.28 90.75" style="fill:#fff"/><polygon points="1003.29 165.18 1002.98 168.16 969.83 164.68 956.71 194.14 953.97 192.92 967.97 161.47 1003.29 165.18" style="fill:#fff"/><polygon points="1069.26 199.78 1071.69 201.54 1052.1 228.51 1071.05 254.61 1068.62 256.37 1048.39 228.51 1069.26 199.78" style="fill:#fff"/><polygon points="1132.21 159.95 1134.95 158.73 1148.52 189.18 1180.59 185.82 1180.9 188.8 1146.66 192.39 1132.21 159.95" style="fill:#fff"/><polygon points="1129.2 85.52 1129.51 82.54 1162.66 86.02 1175.78 56.56 1178.52 57.78 1164.52 89.23 1129.2 85.52" style="fill:#fff"/><path d="M1025.3,101.68a2.31,2.31,0,0,0,.72.85,3.14,3.14,0,0,0,1.06.49,5.3,5.3,0,0,0,1.26.15,6.55,6.55,0,0,0,1-.07,3.3,3.3,0,0,0,.94-.28,2.22,2.22,0,0,0,.74-.58,1.5,1.5,0,0,0,.29-.94,1.3,1.3,0,0,0-.39-1,3.17,3.17,0,0,0-1-.63,9,9,0,0,0-1.43-.44l-1.61-.42a13,13,0,0,1-1.64-.52,5.36,5.36,0,0,1-1.43-.79,3.51,3.51,0,0,1-1.41-3,3.91,3.91,0,0,1,.5-2,4.5,4.5,0,0,1,1.29-1.42,5.47,5.47,0,0,1,1.81-.84,7.72,7.72,0,0,1,2-.27,9.85,9.85,0,0,1,2.26.26,5.77,5.77,0,0,1,1.92.85,4.18,4.18,0,0,1,1.33,1.5,4.61,4.61,0,0,1,.5,2.22h-3.19a2.75,2.75,0,0,0-.29-1.12,1.85,1.85,0,0,0-.64-.69,2.63,2.63,0,0,0-.91-.36,5.73,5.73,0,0,0-1.13-.1,4.23,4.23,0,0,0-.79.08,2.25,2.25,0,0,0-.73.3,1.75,1.75,0,0,0-.53.52,1.42,1.42,0,0,0-.21.8,1.36,1.36,0,0,0,.16.71,1.57,1.57,0,0,0,.67.51,8.13,8.13,0,0,0,1.36.46l2.28.59q.42.09,1.17.3a5.56,5.56,0,0,1,1.48.71,4.6,4.6,0,0,1,1.27,1.29,3.74,3.74,0,0,1,.53,2.07,4.54,4.54,0,0,1-.4,1.91,4.12,4.12,0,0,1-1.18,1.52,5.75,5.75,0,0,1-2,1,9.12,9.12,0,0,1-2.7.35,9.62,9.62,0,0,1-2.4-.3,5.92,5.92,0,0,1-2.06-1,4.73,4.73,0,0,1-1.42-1.65,5,5,0,0,1-.5-2.4H1025A2.63,2.63,0,0,0,1025.3,101.68Z" style="fill:#272727"/><path d="M1036.15,97.6a5.17,5.17,0,0,1,1.14-1.81,5.07,5.07,0,0,1,1.76-1.15,6.74,6.74,0,0,1,4.63,0,4.88,4.88,0,0,1,2.91,3,6.79,6.79,0,0,1,.4,2.36,6.69,6.69,0,0,1-.4,2.35,5.2,5.2,0,0,1-1.13,1.8,4.86,4.86,0,0,1-1.78,1.14,6.9,6.9,0,0,1-4.63,0,4.78,4.78,0,0,1-1.76-1.14,5.22,5.22,0,0,1-1.14-1.8,6.69,6.69,0,0,1-.4-2.35A6.79,6.79,0,0,1,1036.15,97.6Zm2.71,3.63a3.52,3.52,0,0,0,.43,1.11,2.19,2.19,0,0,0,.81.79,2.45,2.45,0,0,0,1.26.3,2.49,2.49,0,0,0,1.27-.3,2.22,2.22,0,0,0,.82-.79,3.3,3.3,0,0,0,.43-1.11A6.67,6.67,0,0,0,1044,100a6.86,6.86,0,0,0-.13-1.28,3.22,3.22,0,0,0-.43-1.11,2.3,2.3,0,0,0-.82-.79,2.49,2.49,0,0,0-1.27-.31,2.45,2.45,0,0,0-1.26.31,2.27,2.27,0,0,0-.81.79,3.43,3.43,0,0,0-.43,1.11,6.85,6.85,0,0,0-.12,1.28A6.67,6.67,0,0,0,1038.86,101.23Z" style="fill:#272727"/><path d="M1047.79,96.52v-2h1.78v-.84a3.27,3.27,0,0,1,.9-2.37,3.67,3.67,0,0,1,2.73-.93c.27,0,.54,0,.8,0l.78,0v2.22a9.56,9.56,0,0,0-1.09-.06,1.12,1.12,0,0,0-.87.29,1.33,1.33,0,0,0-.27,1v.65h2.06v2h-2.06v8.86h-3V96.52Z" style="fill:#272727"/><path d="M1061.88,94.52v2h-2.19v5.37a1.5,1.5,0,0,0,.25,1,1.47,1.47,0,0,0,1,.25,3.93,3.93,0,0,0,.49,0,3.11,3.11,0,0,0,.44-.06v2.31a7.05,7.05,0,0,1-.84.08c-.31,0-.61,0-.91,0a9.09,9.09,0,0,1-1.31-.09,3.05,3.05,0,0,1-1.09-.37,2,2,0,0,1-.75-.78,2.76,2.76,0,0,1-.27-1.32v-6.4h-1.81v-2h1.81V91.27h3v3.25Z" style="fill:#272727"/><path d="M1072.65,105.38l-1.93-7.29h0l-1.85,7.29h-3.09l-3.44-10.86h3.15l2,7.37h0l1.81-7.37h2.9l1.85,7.35h0l2-7.35h3.07l-3.42,10.86Z" style="fill:#272727"/><path d="M1080.27,97.86a3.41,3.41,0,0,1,.53-1.74A3.68,3.68,0,0,1,1082,95a5.24,5.24,0,0,1,1.61-.59,9.08,9.08,0,0,1,1.8-.18,13.32,13.32,0,0,1,1.65.11,5.31,5.31,0,0,1,1.54.45,3.05,3.05,0,0,1,1.13.94,2.57,2.57,0,0,1,.44,1.58V103a10.67,10.67,0,0,0,.09,1.41,2.44,2.44,0,0,0,.29,1h-3a3.07,3.07,0,0,1-.14-.52,4.51,4.51,0,0,1-.07-.53,4,4,0,0,1-1.68,1,7,7,0,0,1-2,.29,5.19,5.19,0,0,1-1.45-.19,3.15,3.15,0,0,1-1.17-.59,2.69,2.69,0,0,1-.79-1,3.41,3.41,0,0,1-.28-1.45,3.2,3.2,0,0,1,.32-1.52,2.81,2.81,0,0,1,.84-1,3.86,3.86,0,0,1,1.18-.54c.44-.11.88-.21,1.33-.28s.89-.13,1.32-.17a7,7,0,0,0,1.16-.19,2,2,0,0,0,.8-.36.81.81,0,0,0,.27-.71,1.51,1.51,0,0,0-.16-.76,1.05,1.05,0,0,0-.42-.44,1.42,1.42,0,0,0-.61-.21,4.35,4.35,0,0,0-.74-.06,2.29,2.29,0,0,0-1.39.38,1.68,1.68,0,0,0-.58,1.26Zm6.89,2.21a1.33,1.33,0,0,1-.47.26c-.19.06-.39.11-.61.16l-.68.1c-.24,0-.48.06-.72.11a5.28,5.28,0,0,0-.66.16,2,2,0,0,0-.57.29,1.27,1.27,0,0,0-.38.45,1.41,1.41,0,0,0-.15.69,1.36,1.36,0,0,0,.15.67,1,1,0,0,0,.4.43,1.49,1.49,0,0,0,.58.22,3.26,3.26,0,0,0,.7.07,2.59,2.59,0,0,0,1.36-.3,1.91,1.91,0,0,0,.71-.7,2.23,2.23,0,0,0,.29-.83c0-.28.05-.5.05-.67Z" style="fill:#272727"/><path d="M1095.29,94.52v2h0a3.64,3.64,0,0,1,.57-.94,3.58,3.58,0,0,1,.82-.73,3.85,3.85,0,0,1,1-.47,3.36,3.36,0,0,1,1.09-.17,2.35,2.35,0,0,1,.66.1V97.1l-.51-.07a5.44,5.44,0,0,0-.57,0,3.2,3.2,0,0,0-1.38.27,2.32,2.32,0,0,0-.91.75,2.84,2.84,0,0,0-.5,1.1,5.93,5.93,0,0,0-.15,1.37v4.89h-3V94.52Z" style="fill:#272727"/><path d="M1103.44,102.77a2.63,2.63,0,0,0,1.93.66,2.58,2.58,0,0,0,1.55-.46,1.87,1.87,0,0,0,.8-1h2.62a4.92,4.92,0,0,1-1.93,2.79,5.7,5.7,0,0,1-3.15.84,6.09,6.09,0,0,1-2.31-.41,4.88,4.88,0,0,1-1.74-1.16,5.27,5.27,0,0,1-1.1-1.81,6.59,6.59,0,0,1-.39-2.31,6.27,6.27,0,0,1,.4-2.27,5.19,5.19,0,0,1,1.13-1.81,5.32,5.32,0,0,1,1.76-1.21,5.48,5.48,0,0,1,2.25-.44,5.26,5.26,0,0,1,2.42.53,4.92,4.92,0,0,1,1.69,1.44,5.81,5.81,0,0,1,1,2.06,7.41,7.41,0,0,1,.21,2.41h-7.83A3,3,0,0,0,1103.44,102.77Zm3.37-5.71a2.11,2.11,0,0,0-1.63-.59,2.62,2.62,0,0,0-1.19.25,2.37,2.37,0,0,0-.75.59,2.07,2.07,0,0,0-.4.76,3.05,3.05,0,0,0-.14.71h4.85A3.52,3.52,0,0,0,1106.81,97.06Z" style="fill:#272727"/><path d="M1007.87,115.58a7.64,7.64,0,0,1,2.69.47,5.8,5.8,0,0,1,2.17,1.38,6.4,6.4,0,0,1,1.42,2.31,9.22,9.22,0,0,1,.52,3.26,10.35,10.35,0,0,1-.42,3,6.65,6.65,0,0,1-1.27,2.4,5.9,5.9,0,0,1-2.12,1.58,7.12,7.12,0,0,1-3,.58h-6.47v-15Zm-.24,12.23a4.36,4.36,0,0,0,1.39-.23,3.09,3.09,0,0,0,1.2-.77,3.84,3.84,0,0,0,.84-1.4,6.12,6.12,0,0,0,.31-2.1,8.5,8.5,0,0,0-.22-2,4.12,4.12,0,0,0-.72-1.57,3.25,3.25,0,0,0-1.34-1,5.31,5.31,0,0,0-2-.34h-2.36v9.45Z" style="fill:#272727"/><path d="M1019.84,128a2.63,2.63,0,0,0,1.93.66,2.58,2.58,0,0,0,1.55-.46,1.87,1.87,0,0,0,.8-.95h2.62a5,5,0,0,1-1.93,2.79,5.7,5.7,0,0,1-3.15.84,6.09,6.09,0,0,1-2.31-.41,4.88,4.88,0,0,1-1.74-1.16,5.27,5.27,0,0,1-1.1-1.81,6.59,6.59,0,0,1-.39-2.31,6.27,6.27,0,0,1,.4-2.27,5.19,5.19,0,0,1,1.13-1.81,5.27,5.27,0,0,1,1.75-1.21,5.73,5.73,0,0,1,2.26-.44,5.26,5.26,0,0,1,2.42.53,4.92,4.92,0,0,1,1.69,1.44,5.81,5.81,0,0,1,1,2.06,7.41,7.41,0,0,1,.21,2.41h-7.83A3,3,0,0,0,1019.84,128Zm3.37-5.71a2.11,2.11,0,0,0-1.63-.58,2.63,2.63,0,0,0-1.19.24,2.26,2.26,0,0,0-.75.59,2.15,2.15,0,0,0-.4.76,3.05,3.05,0,0,0-.14.71H1024A3.56,3.56,0,0,0,1023.21,122.26Z" style="fill:#272727"/><path d="M1031.38,130.58l-3.71-10.86h3.13l2.29,7.42h0l2.29-7.42h3l-3.68,10.86Z" style="fill:#272727"/><path d="M1042.81,128a2.64,2.64,0,0,0,1.93.66,2.58,2.58,0,0,0,1.55-.46,1.87,1.87,0,0,0,.8-.95h2.63a5,5,0,0,1-1.93,2.79,5.7,5.7,0,0,1-3.15.84,6,6,0,0,1-2.31-.41,4.83,4.83,0,0,1-1.75-1.16,5.43,5.43,0,0,1-1.1-1.81,6.59,6.59,0,0,1-.39-2.31,6.27,6.27,0,0,1,.4-2.27,5.24,5.24,0,0,1,2.89-3,5.69,5.69,0,0,1,2.26-.44,5.25,5.25,0,0,1,2.41.53,4.83,4.83,0,0,1,1.69,1.44,6,6,0,0,1,1,2.06,8,8,0,0,1,.21,2.41h-7.84A3,3,0,0,0,1042.81,128Zm3.37-5.71a2.11,2.11,0,0,0-1.63-.58,2.58,2.58,0,0,0-1.18.24,2.15,2.15,0,0,0-1.16,1.35,3.68,3.68,0,0,0-.14.71h4.86A3.56,3.56,0,0,0,1046.18,122.26Z" style="fill:#272727"/><path d="M1054.74,115.58v15h-3v-15Z" style="fill:#272727"/><path d="M1057.15,122.8a5.17,5.17,0,0,1,1.14-1.81,5.07,5.07,0,0,1,1.76-1.15,6.74,6.74,0,0,1,4.63,0,5.11,5.11,0,0,1,1.77,1.15,5.17,5.17,0,0,1,1.14,1.81,6.79,6.79,0,0,1,.4,2.36,6.69,6.69,0,0,1-.4,2.35,5.22,5.22,0,0,1-1.14,1.8,4.82,4.82,0,0,1-1.77,1.14,6.9,6.9,0,0,1-4.63,0,4.78,4.78,0,0,1-1.76-1.14,5.22,5.22,0,0,1-1.14-1.8,6.47,6.47,0,0,1-.4-2.35A6.57,6.57,0,0,1,1057.15,122.8Zm2.71,3.63a3.3,3.3,0,0,0,.43,1.11,2.19,2.19,0,0,0,.81.79,2.45,2.45,0,0,0,1.26.3,2.49,2.49,0,0,0,1.27-.3,2.22,2.22,0,0,0,.82-.79,3.3,3.3,0,0,0,.43-1.11,6.59,6.59,0,0,0,.13-1.27,6.86,6.86,0,0,0-.13-1.28,3.22,3.22,0,0,0-.43-1.11,2.39,2.39,0,0,0-.82-.79,2.49,2.49,0,0,0-1.27-.3,2.45,2.45,0,0,0-1.26.3,2.36,2.36,0,0,0-.81.79,3.22,3.22,0,0,0-.43,1.11,6.86,6.86,0,0,0-.13,1.28A6.59,6.59,0,0,0,1059.86,126.43Z" style="fill:#272727"/><path d="M1072.75,119.72v1.39h0a3.19,3.19,0,0,1,1.38-1.28,4.21,4.21,0,0,1,1.85-.4,4.77,4.77,0,0,1,2.21.48,4.64,4.64,0,0,1,1.53,1.28,5.55,5.55,0,0,1,.9,1.86,8.15,8.15,0,0,1,.3,2.22,7.4,7.4,0,0,1-.3,2.1,5.41,5.41,0,0,1-.89,1.78,4.31,4.31,0,0,1-3.58,1.7,4.15,4.15,0,0,1-1.86-.41,3.47,3.47,0,0,1-1.4-1.21h0v5.15h-3V119.72Zm3.88,8.61a2.42,2.42,0,0,0,.8-.76,3.43,3.43,0,0,0,.43-1.11,6.77,6.77,0,0,0,.12-1.28,6.11,6.11,0,0,0-.13-1.28,3.38,3.38,0,0,0-.45-1.12,2.48,2.48,0,0,0-.81-.8,2.31,2.31,0,0,0-1.21-.3,2.34,2.34,0,0,0-1.23.3,2.51,2.51,0,0,0-.8.79,3.43,3.43,0,0,0-.43,1.11,6.91,6.91,0,0,0-.12,1.3,6,6,0,0,0,.13,1.28,3.44,3.44,0,0,0,.44,1.11,2.46,2.46,0,0,0,.81.76,2.65,2.65,0,0,0,2.45,0Z" style="fill:#272727"/><path d="M1085.65,119.72v1.47h0a4.18,4.18,0,0,1,1.42-1.3,3.79,3.79,0,0,1,1.9-.46,4.34,4.34,0,0,1,1.88.4,2.62,2.62,0,0,1,1.29,1.4,4.79,4.79,0,0,1,1.31-1.26,3.55,3.55,0,0,1,2-.54,5.77,5.77,0,0,1,1.59.21,3.18,3.18,0,0,1,1.26.67,3.13,3.13,0,0,1,.82,1.21,4.76,4.76,0,0,1,.29,1.79v7.27h-3v-6.15c0-.37,0-.71,0-1a2.17,2.17,0,0,0-.23-.84,1.4,1.4,0,0,0-.56-.57,2,2,0,0,0-1-.21,1.93,1.93,0,0,0-1,.24,1.67,1.67,0,0,0-.61.63,2.48,2.48,0,0,0-.3.88,6.73,6.73,0,0,0-.07,1v6.05h-3v-6.09c0-.32,0-.64,0-1a3.06,3.06,0,0,0-.18-.87,1.37,1.37,0,0,0-.53-.64,2,2,0,0,0-1.08-.24,2.29,2.29,0,0,0-.55.09,2.14,2.14,0,0,0-.68.36,2.16,2.16,0,0,0-.55.76,3,3,0,0,0-.23,1.29v6.3h-3V119.72Z" style="fill:#272727"/><path d="M1105,128a2.64,2.64,0,0,0,1.93.66,2.58,2.58,0,0,0,1.55-.46,1.87,1.87,0,0,0,.8-.95h2.63a5,5,0,0,1-1.94,2.79,5.64,5.64,0,0,1-3.14.84,6.11,6.11,0,0,1-2.32-.41,4.88,4.88,0,0,1-1.74-1.16,5.43,5.43,0,0,1-1.1-1.81,6.59,6.59,0,0,1-.39-2.31,6.27,6.27,0,0,1,.4-2.27,5.24,5.24,0,0,1,2.89-3,5.69,5.69,0,0,1,2.26-.44,5.25,5.25,0,0,1,2.41.53,4.83,4.83,0,0,1,1.69,1.44,6,6,0,0,1,1,2.06,8,8,0,0,1,.21,2.41h-7.84A3,3,0,0,0,1105,128Zm3.37-5.71a2.11,2.11,0,0,0-1.63-.58,2.63,2.63,0,0,0-1.19.24,2.37,2.37,0,0,0-.75.59,2.32,2.32,0,0,0-.4.76,3.68,3.68,0,0,0-.14.71h4.85A3.47,3.47,0,0,0,1108.34,122.26Z" style="fill:#272727"/><path d="M1116.66,119.72v1.51h.07a3.39,3.39,0,0,1,1.47-1.37,4.21,4.21,0,0,1,1.85-.43,5.21,5.21,0,0,1,2,.32,3,3,0,0,1,1.21.91,3.52,3.52,0,0,1,.62,1.4,8.79,8.79,0,0,1,.17,1.84v6.68h-3v-6.13a3.81,3.81,0,0,0-.42-2,1.62,1.62,0,0,0-1.49-.66,2.06,2.06,0,0,0-1.76.72,4,4,0,0,0-.55,2.39v5.69h-3V119.72Z" style="fill:#272727"/><path d="M1132.25,119.72v2h-2.19v5.37a1.5,1.5,0,0,0,.25,1,1.47,1.47,0,0,0,1,.25,3.93,3.93,0,0,0,.49,0,3.11,3.11,0,0,0,.44-.06v2.31a7.05,7.05,0,0,1-.84.08c-.31,0-.61,0-.91,0a9.09,9.09,0,0,1-1.31-.09,3.05,3.05,0,0,1-1.09-.37,2,2,0,0,1-.75-.77,2.83,2.83,0,0,1-.27-1.33v-6.4h-1.81v-2h1.81v-3.25h3v3.25Z" style="fill:#272727"/><path d="M1049.32,144.78a3.5,3.5,0,0,0-1.73-1.38,3.51,3.51,0,0,0-1.17-.2,3.83,3.83,0,0,0-1.89.43,3.58,3.58,0,0,0-1.26,1.15,5.08,5.08,0,0,0-.7,1.65,8.11,8.11,0,0,0-.22,1.91,7.48,7.48,0,0,0,.22,1.84,4.86,4.86,0,0,0,.7,1.61,3.55,3.55,0,0,0,1.26,1.14,3.83,3.83,0,0,0,1.89.43,3,3,0,0,0,2.36-.92,4.23,4.23,0,0,0,1-2.44H1053a7.47,7.47,0,0,1-.65,2.54,6.21,6.21,0,0,1-1.38,1.94,6,6,0,0,1-2,1.21,7.4,7.4,0,0,1-2.54.42,7.69,7.69,0,0,1-3.1-.59,6.72,6.72,0,0,1-2.32-1.65,7.33,7.33,0,0,1-1.45-2.47,9.22,9.22,0,0,1-.5-3.06,9.48,9.48,0,0,1,.5-3.11,7.51,7.51,0,0,1,1.45-2.51,6.54,6.54,0,0,1,2.32-1.68,7.52,7.52,0,0,1,3.1-.61,7.74,7.74,0,0,1,2.34.35,6.57,6.57,0,0,1,2,1,5.58,5.58,0,0,1,1.43,1.69,6.14,6.14,0,0,1,.72,2.31h-3.19A3,3,0,0,0,1049.32,144.78Z" style="fill:#272727"/><path d="M1059,159a4.35,4.35,0,0,1-2.4.57c-.3,0-.61,0-.91,0l-.91-.08V157l.86.08a5.15,5.15,0,0,0,.88,0,1.14,1.14,0,0,0,.87-.46,1.49,1.49,0,0,0,.28-.88,1.85,1.85,0,0,0-.12-.67l-3.8-10.19h3.17l2.46,7.44h0l2.37-7.44h3.09l-4.54,12.2A3.7,3.7,0,0,1,1059,159Z" style="fill:#272727"/><path d="M1071,146.87a2.06,2.06,0,0,0-1.19.33,2.54,2.54,0,0,0-.79.84,3.36,3.36,0,0,0-.43,1.13,5.85,5.85,0,0,0-.13,1.23,5.58,5.58,0,0,0,.13,1.2,3.53,3.53,0,0,0,.41,1.1,2.36,2.36,0,0,0,.76.81,2.15,2.15,0,0,0,1.18.32,2.2,2.2,0,0,0,1.65-.6,2.89,2.89,0,0,0,.72-1.61h2.88a5,5,0,0,1-1.68,3.3,5.45,5.45,0,0,1-3.55,1.13,5.84,5.84,0,0,1-2.24-.41,4.92,4.92,0,0,1-1.73-1.14,5.22,5.22,0,0,1-1.11-1.76,5.94,5.94,0,0,1-.4-2.23,7.09,7.09,0,0,1,.37-2.34,5.11,5.11,0,0,1,1.08-1.87,4.75,4.75,0,0,1,1.74-1.23,5.83,5.83,0,0,1,2.35-.44,6.68,6.68,0,0,1,1.86.25,4.85,4.85,0,0,1,1.6.77,4,4,0,0,1,1.14,1.28,4.08,4.08,0,0,1,.51,1.81h-2.92A2,2,0,0,0,1071,146.87Z" style="fill:#272727"/><path d="M1081,140.78v15h-3v-15Z" style="fill:#272727"/><path d="M1086.51,153.17a2.64,2.64,0,0,0,1.93.66,2.58,2.58,0,0,0,1.55-.46,1.87,1.87,0,0,0,.8-1h2.63a5,5,0,0,1-1.93,2.79,5.7,5.7,0,0,1-3.15.84,6,6,0,0,1-2.31-.41,4.83,4.83,0,0,1-1.75-1.16,5.43,5.43,0,0,1-1.1-1.81,6.59,6.59,0,0,1-.39-2.31,6.49,6.49,0,0,1,.4-2.27,5.24,5.24,0,0,1,2.89-3,5.52,5.52,0,0,1,2.26-.44,5.25,5.25,0,0,1,2.41.53,4.83,4.83,0,0,1,1.69,1.44,6,6,0,0,1,1,2.06,8,8,0,0,1,.21,2.41h-7.84A3,3,0,0,0,1086.51,153.17Zm3.37-5.71a2.11,2.11,0,0,0-1.63-.59,2.58,2.58,0,0,0-1.18.25,2.31,2.31,0,0,0-.76.59,2.23,2.23,0,0,0-.4.76,3.68,3.68,0,0,0-.14.71h4.86A3.52,3.52,0,0,0,1089.88,147.46Z" style="fill:#272727"/><rect y="99.78" width="116.52" height="51.15" rx="5" style="fill:#e6e7e8"/><line x1="116.52" y1="125.35" x2="137.79" y2="125.35" style="fill:none;stroke:#58595b;stroke-miterlimit:10;stroke-width:5px"/><polygon points="135.6 132.83 148.56 125.35 135.6 117.87 135.6 132.83" style="fill:#58595b"/><rect x="148.56" y="99.78" width="116.52" height="51.15" rx="5" style="fill:#e6e7e8"/><line x1="265.08" y1="125.35" x2="286.35" y2="125.35" style="fill:none;stroke:#58595b;stroke-miterlimit:10;stroke-width:5px"/><polygon points="284.16 132.83 297.12 125.35 284.16 117.87 284.16 132.83" style="fill:#58595b"/><rect x="297.12" y="99.78" width="116.52" height="51.15" rx="5" style="fill:#e6e7e8"/><line x1="413.64" y1="125.35" x2="434.91" y2="125.35" style="fill:none;stroke:#58595b;stroke-miterlimit:10;stroke-width:5px"/><polygon points="432.72 132.83 445.67 125.35 432.72 117.87 432.72 132.83" style="fill:#58595b"/><rect x="445.67" y="99.78" width="116.52" height="51.15" rx="5" style="fill:#e6e7e8"/><line x1="562.19" y1="125.35" x2="583.47" y2="125.35" style="fill:none;stroke:#58595b;stroke-miterlimit:10;stroke-width:5px"/><polygon points="581.28 132.83 594.23 125.35 581.28 117.87 581.28 132.83" style="fill:#58595b"/><rect x="594.23" y="99.78" width="116.52" height="51.15" rx="5" style="fill:#e6e7e8"/><line x1="710.75" y1="125.35" x2="732.02" y2="125.35" style="fill:none;stroke:#58595b;stroke-miterlimit:10;stroke-width:5px"/><polygon points="729.84 132.83 742.79 125.35 729.84 117.87 729.84 132.83" style="fill:#58595b"/><rect x="743.14" y="99.78" width="116.52" height="51.15" rx="5" style="fill:#e6e7e8"/><line x1="859.66" y1="125.35" x2="880.93" y2="125.35" style="fill:none;stroke:#58595b;stroke-miterlimit:10;stroke-width:5px"/><polygon points="878.74 132.83 891.7 125.35 878.74 117.87 878.74 132.83" style="fill:#58595b"/><path d="M757.4,117.9a4.56,4.56,0,0,1,1.71.29,3.2,3.2,0,0,1,1.14.78,3,3,0,0,1,.65,1.09,4.23,4.23,0,0,1,.2,1.28,4.15,4.15,0,0,1-.2,1.26,3,3,0,0,1-.65,1.11,3.18,3.18,0,0,1-1.14.77,4.56,4.56,0,0,1-1.71.29h-2.48v3.84h-2.35V117.9Zm-.65,5a4.93,4.93,0,0,0,.78-.06,1.91,1.91,0,0,0,.66-.23,1.36,1.36,0,0,0,.46-.49,1.75,1.75,0,0,0,.17-.82,1.8,1.8,0,0,0-.17-.83,1.36,1.36,0,0,0-.46-.49,1.91,1.91,0,0,0-.66-.23,4.93,4.93,0,0,0-.78-.06h-1.83v3.21Z" style="fill:#272727"/><path d="M767.6,128.61v-1.08h-.05a2.41,2.41,0,0,1-1,1,3.1,3.1,0,0,1-1.32.3,3.69,3.69,0,0,1-1.4-.23,2,2,0,0,1-.86-.64,2.55,2.55,0,0,1-.45-1,6.64,6.64,0,0,1-.12-1.31v-4.77h2.13v4.38a2.72,2.72,0,0,0,.3,1.43,1.16,1.16,0,0,0,1.06.47,1.46,1.46,0,0,0,1.26-.52,2.86,2.86,0,0,0,.39-1.7v-4.06h2.13v7.75Z" style="fill:#272727"/><path d="M773.37,117.9v3.9h0a2.29,2.29,0,0,1,1.06-.88,3.66,3.66,0,0,1,1.39-.27,2.93,2.93,0,0,1,1.15.24,3,3,0,0,1,1,.73,3.8,3.8,0,0,1,.74,1.27,5.3,5.3,0,0,1,.29,1.84,5.24,5.24,0,0,1-.29,1.83,3.8,3.8,0,0,1-.74,1.27,3,3,0,0,1-1,.74,2.93,2.93,0,0,1-1.15.24,4.09,4.09,0,0,1-1.53-.27,2,2,0,0,1-1-.92h0v1h-2V117.9Zm3.45,5.9a2.5,2.5,0,0,0-.33-.8,1.83,1.83,0,0,0-.56-.55,1.76,1.76,0,0,0-1.63,0,1.76,1.76,0,0,0-.57.55,2.5,2.5,0,0,0-.33.8,4.42,4.42,0,0,0,0,1.87,2.5,2.5,0,0,0,.33.8,1.63,1.63,0,0,0,.57.54,1.69,1.69,0,0,0,1.63,0,1.7,1.7,0,0,0,.56-.54,2.5,2.5,0,0,0,.33-.8,4,4,0,0,0,0-1.87Z" style="fill:#272727"/><path d="M782.6,117.9v10.71h-2.13V117.9Z" style="fill:#272727"/><path d="M784.34,119.66V117.9h2.13v1.76Zm2.13,1.2v7.75h-2.13v-7.75Z" style="fill:#272727"/><path d="M789.94,126.68a1.22,1.22,0,0,0,.37.41,1.69,1.69,0,0,0,.51.23,2.49,2.49,0,0,0,.61.08,2,2,0,0,0,.47-.06,1.5,1.5,0,0,0,.45-.16,1.1,1.1,0,0,0,.34-.3.79.79,0,0,0,.14-.47c0-.32-.22-.56-.64-.72a13,13,0,0,0-1.78-.48c-.31-.07-.61-.16-.91-.25a3.14,3.14,0,0,1-.78-.38,1.82,1.82,0,0,1-.56-.58,1.66,1.66,0,0,1-.21-.86,2.38,2.38,0,0,1,.29-1.23,2.18,2.18,0,0,1,.78-.76,3.16,3.16,0,0,1,1.08-.39,6.25,6.25,0,0,1,1.23-.11,6.16,6.16,0,0,1,1.22.12,3.28,3.28,0,0,1,1.06.4,2.43,2.43,0,0,1,.77.76,2.57,2.57,0,0,1,.37,1.19h-2a.92.92,0,0,0-.46-.83,2.07,2.07,0,0,0-1-.22l-.39,0a1.59,1.59,0,0,0-.39.1.77.77,0,0,0-.29.22.56.56,0,0,0-.12.38.59.59,0,0,0,.21.47,1.67,1.67,0,0,0,.55.29,7.71,7.71,0,0,0,.77.2l.89.2a8.5,8.5,0,0,1,.9.25,2.79,2.79,0,0,1,.79.4,1.92,1.92,0,0,1,.56.61,1.83,1.83,0,0,1,.21.91,2.39,2.39,0,0,1-1.11,2.12,3.39,3.39,0,0,1-1.14.44,6.88,6.88,0,0,1-1.29.13,6.43,6.43,0,0,1-1.32-.14,3.46,3.46,0,0,1-1.15-.45,2.63,2.63,0,0,1-.83-.83,2.69,2.69,0,0,1-.35-1.3h2A1.1,1.1,0,0,0,789.94,126.68Z" style="fill:#272727"/><path d="M798.33,117.9v4h0a2.51,2.51,0,0,1,1-1,2.85,2.85,0,0,1,1.23-.3,3.5,3.5,0,0,1,1.4.23,2.06,2.06,0,0,1,.87.64,2.59,2.59,0,0,1,.44,1,6.53,6.53,0,0,1,.13,1.31v4.77h-2.13v-4.38a2.7,2.7,0,0,0-.3-1.43,1.16,1.16,0,0,0-1.07-.47,1.49,1.49,0,0,0-1.26.51,2.91,2.91,0,0,0-.39,1.71v4.06H796.2V117.9Z" style="fill:#272727"/><path d="M810,117.65l-4.19,11.2h-1.69l4.17-11.2Z" style="fill:#272727"/><path d="M812.69,126a1.79,1.79,0,0,0,.51.61,2.29,2.29,0,0,0,.76.34,3.37,3.37,0,0,0,.9.12,4.18,4.18,0,0,0,.68-.06,2.17,2.17,0,0,0,.67-.2,1.64,1.64,0,0,0,.53-.41,1.05,1.05,0,0,0,.21-.67,1,1,0,0,0-.28-.7,2.27,2.27,0,0,0-.73-.45,7.24,7.24,0,0,0-1-.32l-1.15-.3a9.36,9.36,0,0,1-1.17-.37,3.87,3.87,0,0,1-1-.56,2.64,2.64,0,0,1-.73-.86,2.57,2.57,0,0,1-.28-1.25,2.9,2.9,0,0,1,.35-1.44,3.32,3.32,0,0,1,.93-1,4,4,0,0,1,1.29-.6,5.48,5.48,0,0,1,1.44-.19,7.09,7.09,0,0,1,1.61.18,4.16,4.16,0,0,1,1.37.61,3.05,3.05,0,0,1,1,1.07,3.28,3.28,0,0,1,.36,1.59h-2.28a1.84,1.84,0,0,0-.21-.8,1.25,1.25,0,0,0-.45-.49,1.94,1.94,0,0,0-.66-.26,4,4,0,0,0-.8-.07,2.76,2.76,0,0,0-.57.06,1.58,1.58,0,0,0-.52.21,1.34,1.34,0,0,0-.38.37,1,1,0,0,0-.15.57,1,1,0,0,0,.12.51,1.09,1.09,0,0,0,.47.36,6.12,6.12,0,0,0,1,.33l1.63.42c.2,0,.47.11.83.22a3.91,3.91,0,0,1,1.06.5,3.16,3.16,0,0,1,.9.92,2.61,2.61,0,0,1,.39,1.48,3.3,3.3,0,0,1-.29,1.37,2.86,2.86,0,0,1-.85,1.08,4,4,0,0,1-1.39.72,7.21,7.21,0,0,1-3.65,0,4.31,4.31,0,0,1-1.47-.68,3.4,3.4,0,0,1-1-1.18,3.54,3.54,0,0,1-.36-1.71h2.28A1.94,1.94,0,0,0,812.69,126Z" style="fill:#272727"/><path d="M822.53,117.9v4h0a2.53,2.53,0,0,1,1-1,2.85,2.85,0,0,1,1.23-.3,3.53,3.53,0,0,1,1.4.23,2.09,2.09,0,0,1,.86.64,2.45,2.45,0,0,1,.44,1,5.87,5.87,0,0,1,.13,1.31v4.77h-2.13v-4.38a2.7,2.7,0,0,0-.3-1.43,1.14,1.14,0,0,0-1.06-.47,1.47,1.47,0,0,0-1.26.51,2.91,2.91,0,0,0-.39,1.71v4.06H820.4V117.9Z" style="fill:#272727"/><path d="M829.2,123.24a2.36,2.36,0,0,1,.38-1.24,2.47,2.47,0,0,1,.84-.8,3.8,3.8,0,0,1,1.14-.43,7,7,0,0,1,1.28-.12,8,8,0,0,1,1.19.08,3.52,3.52,0,0,1,1.1.32,2.09,2.09,0,0,1,.8.67,1.85,1.85,0,0,1,.32,1.13v4a8,8,0,0,0,.06,1,1.82,1.82,0,0,0,.21.72h-2.16c0-.12-.07-.24-.1-.37s0-.25,0-.38a2.79,2.79,0,0,1-1.2.74,4.82,4.82,0,0,1-1.41.21,3.84,3.84,0,0,1-1-.14,2.46,2.46,0,0,1-.84-.42,2,2,0,0,1-.56-.72,2.49,2.49,0,0,1-.2-1,2.32,2.32,0,0,1,.23-1.09,2,2,0,0,1,.6-.68,2.94,2.94,0,0,1,.84-.39c.32-.08.63-.15,1-.2s.63-.09.94-.12a5.65,5.65,0,0,0,.82-.13,1.49,1.49,0,0,0,.58-.27.59.59,0,0,0,.19-.5,1.22,1.22,0,0,0-.11-.55.89.89,0,0,0-.3-.31,1,1,0,0,0-.44-.15,2.93,2.93,0,0,0-.53,0,1.62,1.62,0,0,0-1,.27,1.21,1.21,0,0,0-.42.9Zm4.92,1.58a.85.85,0,0,1-.34.18,2.7,2.7,0,0,1-.43.12l-.49.07-.51.08a3.59,3.59,0,0,0-.47.12,1.31,1.31,0,0,0-.41.2,1,1,0,0,0-.28.32,1.2,1.2,0,0,0-.1.5,1.14,1.14,0,0,0,.1.48.76.76,0,0,0,.29.3,1.11,1.11,0,0,0,.42.16,2.63,2.63,0,0,0,.49.05,1.9,1.9,0,0,0,1-.21,1.38,1.38,0,0,0,.51-.51,1.48,1.48,0,0,0,.2-.59,3.28,3.28,0,0,0,0-.48Z" style="fill:#272727"/><path d="M839.93,120.86v1.44h0a2.29,2.29,0,0,1,.4-.67,2.65,2.65,0,0,1,.58-.53,3.06,3.06,0,0,1,.71-.33,2.54,2.54,0,0,1,.78-.12,1.61,1.61,0,0,1,.46.07v2a2.39,2.39,0,0,0-.36,0,2.75,2.75,0,0,0-.4,0,2.27,2.27,0,0,0-1,.19,1.71,1.71,0,0,0-.65.53,2.11,2.11,0,0,0-.36.79,4.34,4.34,0,0,0-.1,1v3.49H837.9v-7.75Z" style="fill:#272727"/><path d="M845.75,126.75a2.15,2.15,0,0,0,2.49.14,1.24,1.24,0,0,0,.56-.68h1.88a3.57,3.57,0,0,1-1.38,2,4.06,4.06,0,0,1-2.25.6,4.33,4.33,0,0,1-1.65-.3,3.34,3.34,0,0,1-1.24-.83,3.68,3.68,0,0,1-.79-1.29,4.61,4.61,0,0,1-.28-1.65,4.32,4.32,0,0,1,.29-1.62,3.84,3.84,0,0,1,.8-1.3,3.9,3.9,0,0,1,2.87-1.17,3.65,3.65,0,0,1,1.73.38,3.42,3.42,0,0,1,1.2,1,4.33,4.33,0,0,1,.69,1.47,6.1,6.1,0,0,1,.15,1.72h-5.6A2.15,2.15,0,0,0,845.75,126.75Zm2.4-4.08a1.48,1.48,0,0,0-1.16-.42,2,2,0,0,0-.85.17,1.8,1.8,0,0,0-.54.43,1.55,1.55,0,0,0-.28.54,2.17,2.17,0,0,0-.1.51h3.46A2.34,2.34,0,0,0,848.15,122.67Z" style="fill:#272727"/><path d="M626.81,117.9a4.56,4.56,0,0,1,1.71.29,3.34,3.34,0,0,1,1.15.78,2.94,2.94,0,0,1,.64,1.09,4,4,0,0,1,.21,1.28,3.87,3.87,0,0,1-.21,1.26,2.94,2.94,0,0,1-.64,1.11,3.32,3.32,0,0,1-1.15.77,4.56,4.56,0,0,1-1.71.29h-2.47v3.84H622V117.9Zm-.64,5a4.93,4.93,0,0,0,.78-.06,1.91,1.91,0,0,0,.66-.23,1.25,1.25,0,0,0,.45-.49,1.63,1.63,0,0,0,.18-.82,1.67,1.67,0,0,0-.18-.83,1.25,1.25,0,0,0-.45-.49,1.91,1.91,0,0,0-.66-.23,4.93,4.93,0,0,0-.78-.06h-1.83v3.21Z" style="fill:#272727"/><path d="M633.79,120.86v1.44h0a2.53,2.53,0,0,1,.4-.67,2.7,2.7,0,0,1,.59-.53,3,3,0,0,1,.7-.33,2.54,2.54,0,0,1,.78-.12,1.67,1.67,0,0,1,.47.07v2l-.36,0a2.88,2.88,0,0,0-.41,0,2.27,2.27,0,0,0-1,.19,1.71,1.71,0,0,0-.65.53,2.1,2.1,0,0,0-.35.79,4.32,4.32,0,0,0-.11,1v3.49h-2.13v-7.75Z" style="fill:#272727"/><path d="M639.61,126.75a1.91,1.91,0,0,0,1.38.47,1.87,1.87,0,0,0,1.11-.33,1.31,1.31,0,0,0,.57-.68h1.87a3.57,3.57,0,0,1-1.38,2,4.06,4.06,0,0,1-2.25.6,4.33,4.33,0,0,1-1.65-.3,3.34,3.34,0,0,1-1.24-.83,3.68,3.68,0,0,1-.79-1.29,4.61,4.61,0,0,1-.28-1.65,4.52,4.52,0,0,1,.29-1.62,3.86,3.86,0,0,1,.81-1.3,3.82,3.82,0,0,1,1.25-.86,4,4,0,0,1,1.61-.31,3.65,3.65,0,0,1,1.73.38,3.33,3.33,0,0,1,1.2,1,4.15,4.15,0,0,1,.69,1.47,5.44,5.44,0,0,1,.15,1.72h-5.6A2.15,2.15,0,0,0,639.61,126.75Zm2.4-4.08a1.48,1.48,0,0,0-1.16-.42,2,2,0,0,0-.85.17,1.8,1.8,0,0,0-.54.43,1.55,1.55,0,0,0-.28.54,2.17,2.17,0,0,0-.1.51h3.47A2.42,2.42,0,0,0,642,122.67Z" style="fill:#272727"/><path d="M647.73,126.68a1.22,1.22,0,0,0,.37.41,1.69,1.69,0,0,0,.51.23,2.49,2.49,0,0,0,.61.08,2,2,0,0,0,.47-.06,1.5,1.5,0,0,0,.45-.16,1.1,1.1,0,0,0,.34-.3.79.79,0,0,0,.14-.47c0-.32-.22-.56-.64-.72a13,13,0,0,0-1.78-.48c-.31-.07-.61-.16-.91-.25a3.14,3.14,0,0,1-.78-.38A1.82,1.82,0,0,1,646,124a1.66,1.66,0,0,1-.21-.86,2.38,2.38,0,0,1,.29-1.23,2.18,2.18,0,0,1,.78-.76,3.16,3.16,0,0,1,1.08-.39,6.25,6.25,0,0,1,1.23-.11,6.16,6.16,0,0,1,1.22.12,3.28,3.28,0,0,1,1.06.4,2.43,2.43,0,0,1,.77.76,2.57,2.57,0,0,1,.37,1.19h-2a.92.92,0,0,0-.46-.83,2.07,2.07,0,0,0-1-.22l-.39,0a1.59,1.59,0,0,0-.39.1.77.77,0,0,0-.29.22.56.56,0,0,0-.12.38.59.59,0,0,0,.21.47,1.67,1.67,0,0,0,.55.29,7.71,7.71,0,0,0,.77.2l.89.2a8.5,8.5,0,0,1,.9.25,2.79,2.79,0,0,1,.79.4,1.92,1.92,0,0,1,.56.61,1.83,1.83,0,0,1,.21.91,2.39,2.39,0,0,1-1.11,2.12,3.39,3.39,0,0,1-1.14.44,6.88,6.88,0,0,1-1.29.13,6.43,6.43,0,0,1-1.32-.14,3.46,3.46,0,0,1-1.15-.45,2.63,2.63,0,0,1-.83-.83,2.69,2.69,0,0,1-.35-1.3h2A1.1,1.1,0,0,0,647.73,126.68Z" style="fill:#272727"/><path d="M656.27,126.75a1.91,1.91,0,0,0,1.38.47,1.87,1.87,0,0,0,1.11-.33,1.31,1.31,0,0,0,.57-.68h1.88a3.57,3.57,0,0,1-1.38,2,4.06,4.06,0,0,1-2.25.6,4.33,4.33,0,0,1-1.65-.3,3.38,3.38,0,0,1-1.25-.83,3.83,3.83,0,0,1-.79-1.29,4.84,4.84,0,0,1-.27-1.65,4.52,4.52,0,0,1,.28-1.62,3.86,3.86,0,0,1,.81-1.3A3.93,3.93,0,0,1,656,121a4.07,4.07,0,0,1,1.62-.31,3.61,3.61,0,0,1,1.72.38,3.45,3.45,0,0,1,1.21,1,4.31,4.31,0,0,1,.68,1.47,5.44,5.44,0,0,1,.15,1.72h-5.59A2.15,2.15,0,0,0,656.27,126.75Zm2.41-4.08a1.5,1.5,0,0,0-1.16-.42,1.92,1.92,0,0,0-.85.17,1.62,1.62,0,0,0-.83,1,2.75,2.75,0,0,0-.09.51h3.46A2.51,2.51,0,0,0,658.68,122.67Z" style="fill:#272727"/><path d="M664.63,120.86v1.44h0a2.53,2.53,0,0,1,.4-.67,2.7,2.7,0,0,1,.59-.53,3,3,0,0,1,.7-.33,2.54,2.54,0,0,1,.78-.12,1.67,1.67,0,0,1,.47.07v2l-.36,0a2.88,2.88,0,0,0-.41,0,2.27,2.27,0,0,0-1,.19,1.71,1.71,0,0,0-.65.53,2.1,2.1,0,0,0-.35.79,4.32,4.32,0,0,0-.11,1v3.49H662.6v-7.75Z" style="fill:#272727"/><path d="M670.36,128.61l-2.66-7.75h2.24l1.63,5.29h0l1.64-5.29h2.11l-2.62,7.75Z" style="fill:#272727"/><path d="M678.52,126.75a1.91,1.91,0,0,0,1.38.47,1.87,1.87,0,0,0,1.11-.33,1.31,1.31,0,0,0,.57-.68h1.87a3.57,3.57,0,0,1-1.38,2,4.06,4.06,0,0,1-2.25.6,4.33,4.33,0,0,1-1.65-.3,3.34,3.34,0,0,1-1.24-.83,3.68,3.68,0,0,1-.79-1.29,4.61,4.61,0,0,1-.28-1.65,4.52,4.52,0,0,1,.29-1.62,3.86,3.86,0,0,1,.81-1.3,3.82,3.82,0,0,1,1.25-.86,4,4,0,0,1,1.61-.31,3.65,3.65,0,0,1,1.73.38,3.33,3.33,0,0,1,1.2,1,4.15,4.15,0,0,1,.69,1.47,5.44,5.44,0,0,1,.15,1.72H678A2.15,2.15,0,0,0,678.52,126.75Zm2.4-4.08a1.48,1.48,0,0,0-1.16-.42,2,2,0,0,0-.85.17,1.8,1.8,0,0,0-.54.43,1.55,1.55,0,0,0-.28.54,2.17,2.17,0,0,0-.1.51h3.47A2.42,2.42,0,0,0,680.92,122.67Z" style="fill:#272727"/><path d="M482.39,117.9l4,10.71H484l-.81-2.38h-4l-.84,2.38h-2.37L480,117.9Zm.14,6.57-1.35-3.93h0l-1.4,3.93Z" style="fill:#272727"/><path d="M489.13,120.86v1.08h0a2.49,2.49,0,0,1,1.05-1,3.1,3.1,0,0,1,1.32-.3,3.59,3.59,0,0,1,1.41.23,2.09,2.09,0,0,1,.86.64,2.45,2.45,0,0,1,.44,1,5.87,5.87,0,0,1,.13,1.31v4.77h-2.13v-4.38a2.7,2.7,0,0,0-.3-1.43,1.16,1.16,0,0,0-1.07-.47,1.49,1.49,0,0,0-1.26.51,2.91,2.91,0,0,0-.39,1.71v4.06H487.1v-7.75Z" style="fill:#272727"/><path d="M495.91,123.24a2.45,2.45,0,0,1,.37-1.24,2.57,2.57,0,0,1,.84-.8,3.86,3.86,0,0,1,1.15-.43,6.93,6.93,0,0,1,1.28-.12,8,8,0,0,1,1.19.08,3.46,3.46,0,0,1,1.09.32,2.12,2.12,0,0,1,.81.67,1.85,1.85,0,0,1,.32,1.13v4a8,8,0,0,0,.06,1,1.82,1.82,0,0,0,.21.72h-2.16c0-.12-.07-.24-.1-.37s0-.25-.05-.38a2.79,2.79,0,0,1-1.2.74,4.82,4.82,0,0,1-1.41.21,3.84,3.84,0,0,1-1-.14,2.37,2.37,0,0,1-.84-.42,2,2,0,0,1-.56-.72,2.49,2.49,0,0,1-.2-1,2.32,2.32,0,0,1,.23-1.09,2,2,0,0,1,.6-.68,2.94,2.94,0,0,1,.84-.39c.32-.08.63-.15,1-.2l.95-.12a5.65,5.65,0,0,0,.82-.13,1.38,1.38,0,0,0,.57-.27.57.57,0,0,0,.2-.5,1.22,1.22,0,0,0-.11-.55.89.89,0,0,0-.3-.31,1,1,0,0,0-.44-.15,2.93,2.93,0,0,0-.53,0,1.62,1.62,0,0,0-1,.27,1.21,1.21,0,0,0-.42.9Zm4.92,1.58a.85.85,0,0,1-.34.18,2.7,2.7,0,0,1-.43.12l-.49.07-.51.08a3.59,3.59,0,0,0-.47.12,1.31,1.31,0,0,0-.41.2,1,1,0,0,0-.28.32,1.06,1.06,0,0,0-.1.5,1,1,0,0,0,.1.48.76.76,0,0,0,.29.3,1.11,1.11,0,0,0,.42.16,2.63,2.63,0,0,0,.49.05,1.9,1.9,0,0,0,1-.21,1.38,1.38,0,0,0,.51-.51,1.48,1.48,0,0,0,.2-.59,3.28,3.28,0,0,0,0-.48Z" style="fill:#272727"/><path d="M506.8,117.9v10.71h-2.13V117.9Z" style="fill:#272727"/><path d="M511.34,130.92a3.09,3.09,0,0,1-1.71.41c-.22,0-.43,0-.65,0l-.65-.05V129.5l.61.06a4.42,4.42,0,0,0,.63,0,.85.85,0,0,0,.63-.33,1.1,1.1,0,0,0,.2-.63,1.28,1.28,0,0,0-.09-.48l-2.72-7.27h2.27l1.75,5.31h0l1.7-5.31h2.2l-3.24,8.71A2.62,2.62,0,0,1,511.34,130.92Z" style="fill:#272727"/><path d="M519.82,122.46h-3.74v-1.6h6.54v1.6l-4,4.55h4.32v1.6h-7.13V127Z" style="fill:#272727"/><path d="M526.33,126.75a1.91,1.91,0,0,0,1.38.47,1.87,1.87,0,0,0,1.11-.33,1.31,1.31,0,0,0,.57-.68h1.87a3.57,3.57,0,0,1-1.38,2,4.06,4.06,0,0,1-2.25.6,4.33,4.33,0,0,1-1.65-.3,3.34,3.34,0,0,1-1.24-.83,3.83,3.83,0,0,1-.79-1.29,4.84,4.84,0,0,1-.28-1.65,4.52,4.52,0,0,1,.29-1.62,3.86,3.86,0,0,1,.81-1.3A3.93,3.93,0,0,1,526,121a4,4,0,0,1,1.61-.31,3.65,3.65,0,0,1,1.73.38,3.45,3.45,0,0,1,1.21,1,4.31,4.31,0,0,1,.68,1.47,5.44,5.44,0,0,1,.15,1.72h-5.6A2.15,2.15,0,0,0,526.33,126.75Zm2.41-4.08a1.52,1.52,0,0,0-1.17-.42,1.87,1.87,0,0,0-.84.17,1.62,1.62,0,0,0-.83,1,2.85,2.85,0,0,0-.1.51h3.47A2.51,2.51,0,0,0,528.74,122.67Z" style="fill:#272727"/><path d="M332.21,117.9a4.56,4.56,0,0,1,1.71.29,3.34,3.34,0,0,1,1.15.78,2.94,2.94,0,0,1,.64,1.09,3.94,3.94,0,0,1,.2,1.28,3.86,3.86,0,0,1-.2,1.26,2.94,2.94,0,0,1-.64,1.11,3.32,3.32,0,0,1-1.15.77,4.56,4.56,0,0,1-1.71.29h-2.48v3.84h-2.35V117.9Zm-.65,5a4.93,4.93,0,0,0,.78-.06,1.91,1.91,0,0,0,.66-.23,1.28,1.28,0,0,0,.46-.49,1.64,1.64,0,0,0,.17-.82,1.68,1.68,0,0,0-.17-.83A1.28,1.28,0,0,0,333,120a1.91,1.91,0,0,0-.66-.23,4.93,4.93,0,0,0-.78-.06h-1.83v3.21Z" style="fill:#272727"/><path d="M339.18,120.86v1.44h0a2.57,2.57,0,0,1,.41-.67,2.65,2.65,0,0,1,.58-.53,3.06,3.06,0,0,1,.71-.33,2.54,2.54,0,0,1,.78-.12,1.61,1.61,0,0,1,.46.07v2l-.36,0a2.75,2.75,0,0,0-.4,0,2.27,2.27,0,0,0-1,.19,1.71,1.71,0,0,0-.65.53,2.11,2.11,0,0,0-.36.79,4.34,4.34,0,0,0-.1,1v3.49h-2.13v-7.75Z" style="fill:#272727"/><path d="M342.77,123.05a3.72,3.72,0,0,1,.81-1.29,3.62,3.62,0,0,1,1.26-.82,4.33,4.33,0,0,1,1.65-.29,4.42,4.42,0,0,1,1.66.29,3.62,3.62,0,0,1,1.26.82,3.72,3.72,0,0,1,.81,1.29,4.79,4.79,0,0,1,.29,1.69,4.7,4.7,0,0,1-.29,1.68,3.59,3.59,0,0,1-.81,1.28,3.48,3.48,0,0,1-1.26.82,4.63,4.63,0,0,1-1.66.29,4.53,4.53,0,0,1-1.65-.29,3.48,3.48,0,0,1-1.26-.82,3.59,3.59,0,0,1-.81-1.28,4.7,4.7,0,0,1-.29-1.68A4.79,4.79,0,0,1,342.77,123.05Zm1.93,2.6a2.51,2.51,0,0,0,.31.79,1.67,1.67,0,0,0,.58.57,1.76,1.76,0,0,0,.9.21,1.83,1.83,0,0,0,.91-.21,1.59,1.59,0,0,0,.58-.57,2.29,2.29,0,0,0,.31-.79,4.65,4.65,0,0,0,0-1.82,2.27,2.27,0,0,0-.31-.8,1.64,1.64,0,0,0-.58-.56,1.73,1.73,0,0,0-.91-.22,1.67,1.67,0,0,0-.9.22,1.73,1.73,0,0,0-.58.56,2.47,2.47,0,0,0-.31.8,4.65,4.65,0,0,0,0,1.82Z" style="fill:#272727"/><path d="M355.59,122.25a1.52,1.52,0,0,0-.85.23,1.89,1.89,0,0,0-.56.6,2.57,2.57,0,0,0-.31.81,4.46,4.46,0,0,0-.09.88,4.26,4.26,0,0,0,.09.86,2.68,2.68,0,0,0,.29.78,1.7,1.7,0,0,0,.55.58,1.51,1.51,0,0,0,.84.23,1.59,1.59,0,0,0,1.18-.43,2.07,2.07,0,0,0,.51-1.15h2.06a3.53,3.53,0,0,1-1.2,2.36,3.89,3.89,0,0,1-2.54.81,4.09,4.09,0,0,1-1.59-.3,3.42,3.42,0,0,1-1.24-.81,3.72,3.72,0,0,1-.8-1.26,4.28,4.28,0,0,1-.28-1.59,5.38,5.38,0,0,1,.26-1.68,3.81,3.81,0,0,1,.77-1.33,3.5,3.5,0,0,1,1.25-.88,4.23,4.23,0,0,1,1.68-.31,4.91,4.91,0,0,1,1.33.18,3.74,3.74,0,0,1,1.14.54,3,3,0,0,1,.81.92,2.91,2.91,0,0,1,.36,1.3h-2.08A1.44,1.44,0,0,0,355.59,122.25Z" style="fill:#272727"/><path d="M362.78,126.75a1.91,1.91,0,0,0,1.38.47,1.87,1.87,0,0,0,1.11-.33,1.31,1.31,0,0,0,.57-.68h1.87a3.57,3.57,0,0,1-1.38,2,4.06,4.06,0,0,1-2.25.6,4.33,4.33,0,0,1-1.65-.3,3.34,3.34,0,0,1-1.24-.83,3.83,3.83,0,0,1-.79-1.29,4.84,4.84,0,0,1-.28-1.65,4.52,4.52,0,0,1,.29-1.62,3.86,3.86,0,0,1,.81-1.3,3.93,3.93,0,0,1,1.25-.86,4,4,0,0,1,1.61-.31,3.65,3.65,0,0,1,1.73.38,3.45,3.45,0,0,1,1.21,1,4.31,4.31,0,0,1,.68,1.47,5.44,5.44,0,0,1,.15,1.72h-5.6A2.15,2.15,0,0,0,362.78,126.75Zm2.41-4.08a1.52,1.52,0,0,0-1.17-.42,1.87,1.87,0,0,0-.84.17,1.62,1.62,0,0,0-.83,1,2.85,2.85,0,0,0-.1.51h3.47A2.51,2.51,0,0,0,365.19,122.67Z" style="fill:#272727"/><path d="M370.9,126.68a1.33,1.33,0,0,0,.37.41,1.64,1.64,0,0,0,.52.23,2.35,2.35,0,0,0,.6.08,2.1,2.1,0,0,0,.48-.06,1.72,1.72,0,0,0,.45-.16,1.18,1.18,0,0,0,.33-.3.79.79,0,0,0,.14-.47c0-.32-.21-.56-.64-.72a12.59,12.59,0,0,0-1.78-.48c-.31-.07-.61-.16-.9-.25a3,3,0,0,1-.79-.38,1.82,1.82,0,0,1-.56-.58,1.66,1.66,0,0,1-.21-.86,2.29,2.29,0,0,1,.3-1.23,2.08,2.08,0,0,1,.77-.76,3.16,3.16,0,0,1,1.08-.39,6.25,6.25,0,0,1,1.23-.11,6.08,6.08,0,0,1,1.22.12,3.2,3.2,0,0,1,1.06.4,2.33,2.33,0,0,1,.77.76,2.46,2.46,0,0,1,.37,1.19h-2a.92.92,0,0,0-.46-.83,2.07,2.07,0,0,0-1-.22l-.39,0a1.41,1.41,0,0,0-.38.1.73.73,0,0,0-.3.22.56.56,0,0,0-.12.38.59.59,0,0,0,.21.47,1.78,1.78,0,0,0,.55.29c.23.07.48.14.77.2l.89.2a9.41,9.41,0,0,1,.91.25,2.87,2.87,0,0,1,.78.4,1.92,1.92,0,0,1,.56.61,1.83,1.83,0,0,1,.21.91,2.39,2.39,0,0,1-1.11,2.12,3.42,3.42,0,0,1-1.13.44,7.07,7.07,0,0,1-1.3.13,6.43,6.43,0,0,1-1.32-.14,3.54,3.54,0,0,1-1.15-.45,2.5,2.5,0,0,1-1.18-2.13h2A1.2,1.2,0,0,0,370.9,126.68Z" style="fill:#272727"/><path d="M379,126.68a1.19,1.19,0,0,0,.36.41,1.75,1.75,0,0,0,.52.23,2.49,2.49,0,0,0,.61.08,2,2,0,0,0,.47-.06,1.5,1.5,0,0,0,.45-.16,1.1,1.1,0,0,0,.34-.3.79.79,0,0,0,.13-.47q0-.48-.63-.72a13,13,0,0,0-1.78-.48c-.31-.07-.61-.16-.91-.25a3.21,3.21,0,0,1-.79-.38,1.79,1.79,0,0,1-.55-.58,1.66,1.66,0,0,1-.21-.86,2.38,2.38,0,0,1,.29-1.23,2.16,2.16,0,0,1,.77-.76,3.16,3.16,0,0,1,1.08-.39,6.64,6.64,0,0,1,2.46,0,3.23,3.23,0,0,1,1.05.4,2.46,2.46,0,0,1,.78.76,2.57,2.57,0,0,1,.36,1.19h-2a.93.93,0,0,0-.47-.83,2.07,2.07,0,0,0-1-.22l-.39,0a1.51,1.51,0,0,0-.38.1.77.77,0,0,0-.29.22.56.56,0,0,0-.12.38.59.59,0,0,0,.21.47,1.67,1.67,0,0,0,.55.29,7.71,7.71,0,0,0,.77.2l.88.2a8.68,8.68,0,0,1,.91.25,2.79,2.79,0,0,1,.79.4,1.89,1.89,0,0,1,.55.61,1.83,1.83,0,0,1,.21.91,2.34,2.34,0,0,1-1.11,2.12,3.42,3.42,0,0,1-1.13.44,7.07,7.07,0,0,1-1.3.13,6.43,6.43,0,0,1-1.32-.14,3.4,3.4,0,0,1-1.14-.45,2.63,2.63,0,0,1-.83-.83,2.69,2.69,0,0,1-.35-1.3h2A1.1,1.1,0,0,0,379,126.68Z" style="fill:#272727"/><path d="M185.7,117.9l4,10.71h-2.44l-.81-2.38h-4l-.84,2.38h-2.37l4.05-10.71Zm.13,6.57-1.35-3.93h0l-1.39,3.93Z" style="fill:#272727"/><path d="M194.11,122.25a1.52,1.52,0,0,0-.85.23,1.89,1.89,0,0,0-.56.6,2.57,2.57,0,0,0-.31.81,4.46,4.46,0,0,0-.09.88,4.26,4.26,0,0,0,.09.86,2.68,2.68,0,0,0,.29.78,1.7,1.7,0,0,0,.55.58,1.51,1.51,0,0,0,.84.23,1.59,1.59,0,0,0,1.18-.43,2.07,2.07,0,0,0,.51-1.15h2.06a3.53,3.53,0,0,1-1.2,2.36,3.89,3.89,0,0,1-2.54.81,4.09,4.09,0,0,1-1.59-.3,3.42,3.42,0,0,1-1.24-.81,3.72,3.72,0,0,1-.8-1.26,4.28,4.28,0,0,1-.28-1.59,5.38,5.38,0,0,1,.26-1.68,3.81,3.81,0,0,1,.77-1.33,3.5,3.5,0,0,1,1.25-.88,4.23,4.23,0,0,1,1.68-.31,4.91,4.91,0,0,1,1.33.18,3.74,3.74,0,0,1,1.14.54,3,3,0,0,1,.81.92,2.91,2.91,0,0,1,.36,1.3h-2.08A1.44,1.44,0,0,0,194.11,122.25Z" style="fill:#272727"/><path d="M204.45,131.33v-3.69h0a2.1,2.1,0,0,1-1,.9,3.75,3.75,0,0,1-1.4.27,3.2,3.2,0,0,1-1.11-.21,2.8,2.8,0,0,1-1.06-.67,3.69,3.69,0,0,1-.8-1.25,5,5,0,0,1-.31-1.89,5.74,5.74,0,0,1,.21-1.55,4,4,0,0,1,.64-1.33,3.35,3.35,0,0,1,1.09-.92,3.27,3.27,0,0,1,1.54-.34,3.47,3.47,0,0,1,1.36.27,2.12,2.12,0,0,1,1,.93h0v-1h2v10.47Zm-3.54-5.68a2.29,2.29,0,0,0,.31.79,1.56,1.56,0,0,0,.57.57,1.65,1.65,0,0,0,.87.21,1.69,1.69,0,0,0,.88-.21,1.48,1.48,0,0,0,.57-.54,2.29,2.29,0,0,0,.32-.78,4.65,4.65,0,0,0,0-1.82,2.9,2.9,0,0,0-.31-.81,1.73,1.73,0,0,0-.56-.58,1.56,1.56,0,0,0-.85-.23,1.75,1.75,0,0,0-.89.21,1.73,1.73,0,0,0-.58.56,2.36,2.36,0,0,0-.32.8,3.93,3.93,0,0,0-.1.92A4.6,4.6,0,0,0,200.91,125.65Z" style="fill:#272727"/><path d="M213.43,128.61v-1.08h0a2.41,2.41,0,0,1-1,1,3.1,3.1,0,0,1-1.32.3,3.69,3.69,0,0,1-1.4-.23,2,2,0,0,1-.87-.64,2.54,2.54,0,0,1-.44-1,6.61,6.61,0,0,1-.13-1.31v-4.77h2.13v4.38a2.72,2.72,0,0,0,.3,1.43,1.18,1.18,0,0,0,1.07.47,1.46,1.46,0,0,0,1.26-.52,2.86,2.86,0,0,0,.39-1.7v-4.06h2.13v7.75Z" style="fill:#272727"/><path d="M217.14,119.66V117.9h2.13v1.76Zm2.13,1.2v7.75h-2.13v-7.75Z" style="fill:#272727"/><path d="M223,120.86v1.44h0a2.57,2.57,0,0,1,.41-.67,2.65,2.65,0,0,1,.58-.53,3.06,3.06,0,0,1,.71-.33,2.54,2.54,0,0,1,.78-.12,1.61,1.61,0,0,1,.46.07v2l-.36,0a2.75,2.75,0,0,0-.4,0,2.27,2.27,0,0,0-1,.19,1.71,1.71,0,0,0-.65.53,2.11,2.11,0,0,0-.36.79,4.34,4.34,0,0,0-.1,1v3.49H221v-7.75Z" style="fill:#272727"/><path d="M228.79,126.75a1.91,1.91,0,0,0,1.38.47,1.87,1.87,0,0,0,1.11-.33,1.31,1.31,0,0,0,.57-.68h1.88a3.57,3.57,0,0,1-1.38,2,4.06,4.06,0,0,1-2.25.6,4.33,4.33,0,0,1-1.65-.3,3.38,3.38,0,0,1-1.25-.83,3.66,3.66,0,0,1-.78-1.29,4.61,4.61,0,0,1-.28-1.65,4.52,4.52,0,0,1,.28-1.62,3.71,3.71,0,0,1,2.07-2.16,4,4,0,0,1,1.61-.31,3.61,3.61,0,0,1,1.72.38,3.36,3.36,0,0,1,1.21,1,4.13,4.13,0,0,1,.68,1.47,5.44,5.44,0,0,1,.15,1.72h-5.59A2.15,2.15,0,0,0,228.79,126.75Zm2.41-4.08a1.48,1.48,0,0,0-1.16-.42,2,2,0,0,0-.85.17,1.8,1.8,0,0,0-.54.43,1.55,1.55,0,0,0-.28.54,2.17,2.17,0,0,0-.1.51h3.46A2.42,2.42,0,0,0,231.2,122.67Z" style="fill:#272727"/><path d="M48.44,117.9a4.56,4.56,0,0,1,1.71.29,3.2,3.2,0,0,1,1.14.78,3,3,0,0,1,.65,1.09,4.23,4.23,0,0,1,.2,1.28,4.15,4.15,0,0,1-.2,1.26,3,3,0,0,1-.65,1.11,3.18,3.18,0,0,1-1.14.77,4.56,4.56,0,0,1-1.71.29H46v3.84H43.61V117.9Zm-.65,5a4.93,4.93,0,0,0,.78-.06,1.91,1.91,0,0,0,.66-.23,1.36,1.36,0,0,0,.46-.49,1.75,1.75,0,0,0,.17-.82,1.8,1.8,0,0,0-.17-.83,1.36,1.36,0,0,0-.46-.49,1.91,1.91,0,0,0-.66-.23,4.93,4.93,0,0,0-.78-.06H46v3.21Z" style="fill:#272727"/><path d="M55.58,117.9v10.71H53.45V117.9Z" style="fill:#272727"/><path d="M57.17,123.24a2.45,2.45,0,0,1,.37-1.24,2.57,2.57,0,0,1,.84-.8,3.76,3.76,0,0,1,1.15-.43,6.85,6.85,0,0,1,1.28-.12,8,8,0,0,1,1.19.08,3.46,3.46,0,0,1,1.09.32,2.12,2.12,0,0,1,.81.67,1.85,1.85,0,0,1,.32,1.13v4a8,8,0,0,0,.06,1,1.82,1.82,0,0,0,.21.72H62.33a2.24,2.24,0,0,1-.1-.37,2.32,2.32,0,0,1,0-.38,2.79,2.79,0,0,1-1.2.74,4.82,4.82,0,0,1-1.41.21,3.84,3.84,0,0,1-1-.14,2.37,2.37,0,0,1-.84-.42,1.9,1.9,0,0,1-.56-.72,2.34,2.34,0,0,1-.2-1,2.2,2.2,0,0,1,.23-1.09,1.8,1.8,0,0,1,.6-.68,2.71,2.71,0,0,1,.84-.39c.31-.08.63-.15.95-.2l1-.12a5.65,5.65,0,0,0,.82-.13,1.38,1.38,0,0,0,.57-.27.57.57,0,0,0,.2-.5,1.09,1.09,0,0,0-.12-.55.75.75,0,0,0-.3-.31,1,1,0,0,0-.43-.15,3,3,0,0,0-.53,0,1.62,1.62,0,0,0-1,.27,1.21,1.21,0,0,0-.42.9Zm4.92,1.58a.92.92,0,0,1-.34.18,2.83,2.83,0,0,1-.44.12l-.48.07-.51.08a4.21,4.21,0,0,0-.48.12,1.25,1.25,0,0,0-.4.2.87.87,0,0,0-.28.32,1.06,1.06,0,0,0-.1.5,1,1,0,0,0,.1.48.76.76,0,0,0,.29.3,1.11,1.11,0,0,0,.42.16,2.63,2.63,0,0,0,.49.05,1.9,1.9,0,0,0,1-.21,1.38,1.38,0,0,0,.51-.51,1.65,1.65,0,0,0,.2-.59c0-.2,0-.36,0-.48Z" style="fill:#272727"/><path d="M67.89,120.86v1.08h0a2.49,2.49,0,0,1,1-1,3.1,3.1,0,0,1,1.32-.3,3.53,3.53,0,0,1,1.4.23,2.09,2.09,0,0,1,.86.64,2.45,2.45,0,0,1,.44,1,5.87,5.87,0,0,1,.13,1.31v4.77H71v-4.38a2.7,2.7,0,0,0-.3-1.43,1.14,1.14,0,0,0-1.06-.47,1.49,1.49,0,0,0-1.26.51,2.91,2.91,0,0,0-.39,1.71v4.06H65.87v-7.75Z" style="fill:#272727"/><path d="M318.69,38.92a7.74,7.74,0,0,1,2.7.47,5.84,5.84,0,0,1,2.16,1.38A6.56,6.56,0,0,1,325,43.08a9.46,9.46,0,0,1,.51,3.26,10.35,10.35,0,0,1-.42,3,6.65,6.65,0,0,1-1.27,2.4,5.82,5.82,0,0,1-2.12,1.58,7.09,7.09,0,0,1-3,.58h-6.47v-15Zm-.23,12.23a4.3,4.3,0,0,0,1.38-.23,3.09,3.09,0,0,0,1.2-.77,3.84,3.84,0,0,0,.84-1.4,6.1,6.1,0,0,0,.32-2.1,9.2,9.2,0,0,0-.22-2,4.09,4.09,0,0,0-.73-1.56,3.28,3.28,0,0,0-1.33-1,5.39,5.39,0,0,0-2.05-.34h-2.35v9.45Z" style="fill:#272727"/><path d="M327.34,46.4a3.41,3.41,0,0,1,.53-1.74A3.58,3.58,0,0,1,329,43.54a4.91,4.91,0,0,1,1.61-.59,9,9,0,0,1,1.79-.18,13.35,13.35,0,0,1,1.66.11,5.4,5.4,0,0,1,1.54.45,3.05,3.05,0,0,1,1.13.94,2.64,2.64,0,0,1,.44,1.58V51.5a12.74,12.74,0,0,0,.08,1.41,2.64,2.64,0,0,0,.3,1h-3a4.39,4.39,0,0,1-.13-.52,4.51,4.51,0,0,1-.08-.53,3.86,3.86,0,0,1-1.68,1,6.91,6.91,0,0,1-2,.29,5.19,5.19,0,0,1-1.45-.19,3.08,3.08,0,0,1-1.17-.59,2.69,2.69,0,0,1-.79-1A3.41,3.41,0,0,1,327,51a3.15,3.15,0,0,1,.33-1.53,2.87,2.87,0,0,1,.84-1,3.65,3.65,0,0,1,1.18-.54c.44-.11.88-.21,1.33-.28s.89-.13,1.32-.17a7,7,0,0,0,1.16-.19,2,2,0,0,0,.8-.36.84.84,0,0,0,.27-.71,1.48,1.48,0,0,0-.16-.76,1.14,1.14,0,0,0-.42-.45,1.83,1.83,0,0,0-.61-.21,5.74,5.74,0,0,0-.74-.05,2.29,2.29,0,0,0-1.39.38,1.68,1.68,0,0,0-.59,1.26Zm6.89,2.21a1.51,1.51,0,0,1-.47.26c-.19.06-.4.11-.61.16l-.69.1c-.23,0-.47.06-.71.11a5.28,5.28,0,0,0-.66.16,1.91,1.91,0,0,0-.57.29,1.41,1.41,0,0,0-.39.45,1.54,1.54,0,0,0-.14.69,1.48,1.48,0,0,0,.14.67,1,1,0,0,0,.4.43,1.61,1.61,0,0,0,.59.22,3.17,3.17,0,0,0,.69.07,2.6,2.6,0,0,0,1.37-.3,1.91,1.91,0,0,0,.71-.7,2.23,2.23,0,0,0,.29-.83c0-.28.05-.5.05-.67Z" style="fill:#272727"/><path d="M345.48,43.06v2H343.3v5.37a1.45,1.45,0,0,0,.25,1,1.47,1.47,0,0,0,1,.25,3.7,3.7,0,0,0,.48,0,2.92,2.92,0,0,0,.44-.06v2.31a6.67,6.67,0,0,1-.84.08c-.3,0-.6,0-.9,0a9.09,9.09,0,0,1-1.31-.09,3.05,3.05,0,0,1-1.09-.37,1.88,1.88,0,0,1-.75-.78,2.76,2.76,0,0,1-.27-1.32v-6.4h-1.81v-2h1.81V39.81h3v3.25Z" style="fill:#272727"/><path d="M346.79,46.4a3.41,3.41,0,0,1,.52-1.74,3.61,3.61,0,0,1,1.18-1.12,4.86,4.86,0,0,1,1.6-.59,9.16,9.16,0,0,1,1.8-.18,13.35,13.35,0,0,1,1.66.11,5.24,5.24,0,0,1,1.53.45,3.17,3.17,0,0,1,1.14.94,2.64,2.64,0,0,1,.44,1.58V51.5a10.7,10.7,0,0,0,.08,1.41,2.65,2.65,0,0,0,.29,1h-3a4.42,4.42,0,0,1-.14-.52,4.51,4.51,0,0,1-.07-.53,4,4,0,0,1-1.68,1,6.91,6.91,0,0,1-2,.29A5.14,5.14,0,0,1,348.7,54a3.2,3.2,0,0,1-1.18-.59,2.79,2.79,0,0,1-.79-1,3.41,3.41,0,0,1-.28-1.45,3.15,3.15,0,0,1,.33-1.53,2.66,2.66,0,0,1,.84-1,3.7,3.7,0,0,1,1.17-.54c.44-.11.89-.21,1.34-.28s.88-.13,1.32-.17a6.89,6.89,0,0,0,1.15-.19,2,2,0,0,0,.8-.36.79.79,0,0,0,.27-.71,1.6,1.6,0,0,0-.15-.76,1.3,1.3,0,0,0-.42-.45,1.91,1.91,0,0,0-.61-.21,5.78,5.78,0,0,0-.75-.05,2.24,2.24,0,0,0-1.38.38,1.65,1.65,0,0,0-.59,1.26Zm6.88,2.21a1.4,1.4,0,0,1-.47.26c-.19.06-.39.11-.61.16l-.68.1c-.24,0-.48.06-.71.11a5,5,0,0,0-.67.16,2,2,0,0,0-.56.29,1.32,1.32,0,0,0-.54,1.14,1.36,1.36,0,0,0,.15.67,1,1,0,0,0,.4.43,1.54,1.54,0,0,0,.59.22,3.11,3.11,0,0,0,.69.07,2.56,2.56,0,0,0,1.36-.3,1.94,1.94,0,0,0,.72-.7,2.21,2.21,0,0,0,.28-.83,4.68,4.68,0,0,0,.05-.67Z" style="fill:#272727"/><path d="M371.88,38.92a6.33,6.33,0,0,1,2.4.41,4.58,4.58,0,0,1,1.6,1.09,4,4,0,0,1,.9,1.53,5.61,5.61,0,0,1,0,3.56,4.06,4.06,0,0,1-.9,1.54,4.43,4.43,0,0,1-1.6,1.08,6.15,6.15,0,0,1-2.4.41h-3.46v5.38h-3.3v-15ZM371,46a7.66,7.66,0,0,0,1.09-.08,2.58,2.58,0,0,0,.92-.33,1.75,1.75,0,0,0,.64-.68,2.32,2.32,0,0,0,.25-1.16,2.28,2.28,0,0,0-.25-1.15,1.68,1.68,0,0,0-.64-.68,2.58,2.58,0,0,0-.92-.33,6.43,6.43,0,0,0-1.09-.08h-2.56V46Z" style="fill:#272727"/><path d="M386.16,53.92V52.41h-.06a3.36,3.36,0,0,1-1.47,1.36,4.34,4.34,0,0,1-1.85.42,5.19,5.19,0,0,1-2-.31,2.8,2.8,0,0,1-1.21-.9,3.52,3.52,0,0,1-.62-1.4,8.77,8.77,0,0,1-.18-1.84V43.06h3v6.13a3.81,3.81,0,0,0,.42,2,1.63,1.63,0,0,0,1.49.66,2.08,2.08,0,0,0,1.77-.72,4.09,4.09,0,0,0,.54-2.39V43.06h3V53.92Z" style="fill:#272727"/><path d="M394.25,38.92v5.46h0a3.11,3.11,0,0,1,1.48-1.22,5,5,0,0,1,1.94-.39,4.19,4.19,0,0,1,1.62.33,4.3,4.3,0,0,1,1.44,1,5.47,5.47,0,0,1,1,1.78,8.66,8.66,0,0,1,0,5.14,5.58,5.58,0,0,1-1,1.78,4.3,4.3,0,0,1-1.44,1,4.19,4.19,0,0,1-1.62.33,5.56,5.56,0,0,1-2.14-.38,2.71,2.71,0,0,1-1.43-1.28h0v1.39h-2.84v-15Zm4.83,8.26a3.63,3.63,0,0,0-.47-1.12,2.46,2.46,0,0,0-.78-.76,2.21,2.21,0,0,0-1.15-.29,2.18,2.18,0,0,0-1.13.29,2.42,2.42,0,0,0-.8.76,3.62,3.62,0,0,0-.46,1.12,5.68,5.68,0,0,0-.15,1.32,5.57,5.57,0,0,0,.15,1.3,3.62,3.62,0,0,0,.46,1.12,2.42,2.42,0,0,0,.8.76,2.18,2.18,0,0,0,1.13.29,2.21,2.21,0,0,0,1.15-.29,2.46,2.46,0,0,0,.78-.76,3.63,3.63,0,0,0,.47-1.12,6.16,6.16,0,0,0,.14-1.3A6.28,6.28,0,0,0,399.08,47.18Z" style="fill:#272727"/><path d="M407.16,38.92v15h-3v-15Z" style="fill:#272727"/><path d="M409.6,41.38V38.92h3v2.46Zm3,1.68V53.92h-3V43.06Z" style="fill:#272727"/><path d="M420.12,45a2.07,2.07,0,0,0-1.2.33,2.76,2.76,0,0,0-.79.84,3.84,3.84,0,0,0-.43,1.13,6.57,6.57,0,0,0-.12,1.23,6.26,6.26,0,0,0,.12,1.2,3.8,3.8,0,0,0,.41,1.1,2.39,2.39,0,0,0,.77.81,2.09,2.09,0,0,0,1.17.32,2.17,2.17,0,0,0,1.65-.6,2.84,2.84,0,0,0,.73-1.61h2.87a4.89,4.89,0,0,1-1.68,3.3,5.43,5.43,0,0,1-3.55,1.13,6,6,0,0,1-2.23-.41,4.84,4.84,0,0,1-1.73-1.14A5.25,5.25,0,0,1,415,50.88a6.18,6.18,0,0,1-.4-2.23,7.36,7.36,0,0,1,.37-2.34A5.31,5.31,0,0,1,416,44.44a4.87,4.87,0,0,1,1.75-1.23,5.8,5.8,0,0,1,2.35-.44A6.79,6.79,0,0,1,422,43a4.89,4.89,0,0,1,1.59.77,4.16,4.16,0,0,1,1.15,1.28,4.08,4.08,0,0,1,.5,1.81h-2.92A2,2,0,0,0,420.12,45Z" style="fill:#272727"/><path d="M426.86,46.4a3.41,3.41,0,0,1,.52-1.74,3.61,3.61,0,0,1,1.18-1.12,4.83,4.83,0,0,1,1.61-.59,9,9,0,0,1,1.79-.18,13.35,13.35,0,0,1,1.66.11,5.24,5.24,0,0,1,1.53.45,3.17,3.17,0,0,1,1.14.94,2.64,2.64,0,0,1,.44,1.58V51.5a12.74,12.74,0,0,0,.08,1.41,2.64,2.64,0,0,0,.3,1h-3a4.39,4.39,0,0,1-.13-.52,4.51,4.51,0,0,1-.08-.53,3.86,3.86,0,0,1-1.68,1,6.91,6.91,0,0,1-2,.29,5.19,5.19,0,0,1-1.45-.19,3.2,3.2,0,0,1-1.18-.59,2.66,2.66,0,0,1-.78-1,3.41,3.41,0,0,1-.29-1.45,3.15,3.15,0,0,1,.33-1.53,2.66,2.66,0,0,1,.84-1,3.7,3.7,0,0,1,1.17-.54c.44-.11.89-.21,1.34-.28s.89-.13,1.32-.17a7.2,7.2,0,0,0,1.16-.19,1.93,1.93,0,0,0,.79-.36.82.82,0,0,0,.28-.71,1.59,1.59,0,0,0-.16-.76,1.3,1.3,0,0,0-.42-.45,1.91,1.91,0,0,0-.61-.21,5.78,5.78,0,0,0-.75-.05,2.26,2.26,0,0,0-1.38.38,1.68,1.68,0,0,0-.59,1.26Zm6.89,2.21a1.57,1.57,0,0,1-.48.26c-.19.06-.39.11-.61.16l-.68.1c-.24,0-.47.06-.71.11a4.54,4.54,0,0,0-.66.16,1.91,1.91,0,0,0-.57.29,1.32,1.32,0,0,0-.54,1.14,1.36,1.36,0,0,0,.15.67,1,1,0,0,0,.4.43,1.54,1.54,0,0,0,.59.22,3.11,3.11,0,0,0,.69.07,2.63,2.63,0,0,0,1.37-.3,1.91,1.91,0,0,0,.71-.7,2.21,2.21,0,0,0,.28-.83,5,5,0,0,0,.06-.67Z" style="fill:#272727"/><path d="M445,43.06v2h-2.18v5.37a1,1,0,0,0,1.26,1.26,3.7,3.7,0,0,0,.48,0,2.92,2.92,0,0,0,.44-.06v2.31a6.67,6.67,0,0,1-.84.08c-.31,0-.61,0-.9,0a9.09,9.09,0,0,1-1.31-.09,3.11,3.11,0,0,1-1.1-.37,1.92,1.92,0,0,1-.74-.78,2.76,2.76,0,0,1-.27-1.32v-6.4H438v-2h1.81V39.81h3v3.25Z" style="fill:#272727"/><path d="M446.51,41.38V38.92h3v2.46Zm3,1.68V53.92h-3V43.06Z" style="fill:#272727"/><path d="M451.91,46.14A5.15,5.15,0,0,1,453,44.33a5,5,0,0,1,1.77-1.15,6,6,0,0,1,2.31-.41,6.14,6.14,0,0,1,2.32.41,5,5,0,0,1,1.77,1.15,5.17,5.17,0,0,1,1.14,1.81,6.79,6.79,0,0,1,.4,2.36,6.69,6.69,0,0,1-.4,2.35,5.22,5.22,0,0,1-1.14,1.8,5,5,0,0,1-1.77,1.14,6.35,6.35,0,0,1-2.32.4,6.22,6.22,0,0,1-2.31-.4A5,5,0,0,1,453,52.65a5.2,5.2,0,0,1-1.13-1.8,6.47,6.47,0,0,1-.4-2.35A6.57,6.57,0,0,1,451.91,46.14Zm2.71,3.63a3.38,3.38,0,0,0,.43,1.11,2.19,2.19,0,0,0,.81.79,2.4,2.4,0,0,0,1.26.3,2.49,2.49,0,0,0,1.27-.3,2.22,2.22,0,0,0,.82-.79,3.62,3.62,0,0,0,.43-1.11,6.67,6.67,0,0,0,.12-1.27,6.85,6.85,0,0,0-.12-1.28,3.43,3.43,0,0,0-.43-1.11,2.3,2.3,0,0,0-.82-.79,2.49,2.49,0,0,0-1.27-.31,2.4,2.4,0,0,0-1.26.31,2.27,2.27,0,0,0-.81.79,3.22,3.22,0,0,0-.43,1.11,6.86,6.86,0,0,0-.13,1.28A6.67,6.67,0,0,0,454.62,49.77Z" style="fill:#272727"/><path d="M467.51,43.06v1.51h.07a3.28,3.28,0,0,1,1.47-1.37,4.17,4.17,0,0,1,1.84-.43,5.23,5.23,0,0,1,2,.32,3,3,0,0,1,1.21.91,3.38,3.38,0,0,1,.61,1.4,8.77,8.77,0,0,1,.18,1.84v6.68h-3V47.79a3.81,3.81,0,0,0-.42-2,1.63,1.63,0,0,0-1.49-.66,2.06,2.06,0,0,0-1.76.72,4,4,0,0,0-.55,2.39v5.69h-3V43.06Z" style="fill:#272727"/><path d="M486.58,38.92V51.15h7.31v2.77H483.28v-15Z" style="fill:#272727"/><path d="M495.51,41.38V38.92h3v2.46Zm3,1.68V53.92h-3V43.06Z" style="fill:#272727"/><path d="M499.71,45.06v-2h1.78v-.84a3.25,3.25,0,0,1,.9-2.37,3.67,3.67,0,0,1,2.73-.93,7,7,0,0,1,.8,0l.78,0v2.22a9.69,9.69,0,0,0-1.09-.06,1.16,1.16,0,0,0-.87.28,1.38,1.38,0,0,0-.27,1v.65h2.06v2h-2.06v8.86h-3V45.06Z" style="fill:#272727"/><path d="M511,51.31a3,3,0,0,0,3.49.2,1.92,1.92,0,0,0,.8-.95h2.62A5,5,0,0,1,516,53.35a5.7,5.7,0,0,1-3.15.84,6.29,6.29,0,0,1-2.31-.41,4.79,4.79,0,0,1-1.74-1.16,5.12,5.12,0,0,1-1.1-1.81,6.59,6.59,0,0,1-.39-2.31,6.27,6.27,0,0,1,.4-2.27,5.19,5.19,0,0,1,1.13-1.81,5.27,5.27,0,0,1,1.75-1.21,5.56,5.56,0,0,1,2.26-.44,5.26,5.26,0,0,1,2.42.53A4.92,4.92,0,0,1,517,44.74a5.81,5.81,0,0,1,.95,2.06,7.41,7.41,0,0,1,.21,2.41h-7.83A3,3,0,0,0,511,51.31Zm3.37-5.71a2.07,2.07,0,0,0-1.62-.59,2.62,2.62,0,0,0-1.19.25,2.41,2.41,0,0,0-.76.59,2.2,2.2,0,0,0-.39.76,3.05,3.05,0,0,0-.14.71h4.85A3.43,3.43,0,0,0,514.39,45.6Z" style="fill:#272727"/><path d="M535.66,42.92a3.5,3.5,0,0,0-1.73-1.38,3.55,3.55,0,0,0-1.17-.2,3.83,3.83,0,0,0-1.89.43,3.58,3.58,0,0,0-1.26,1.15,5.08,5.08,0,0,0-.7,1.65,8.11,8.11,0,0,0-.22,1.91,7.48,7.48,0,0,0,.22,1.84,4.86,4.86,0,0,0,.7,1.61,3.55,3.55,0,0,0,1.26,1.14,3.83,3.83,0,0,0,1.89.43,3,3,0,0,0,2.36-.92,4.23,4.23,0,0,0,1-2.44h3.19a7.47,7.47,0,0,1-.65,2.54,6.21,6.21,0,0,1-1.38,1.94,6,6,0,0,1-2,1.21,7.4,7.4,0,0,1-2.54.42,7.86,7.86,0,0,1-3.1-.59A6.62,6.62,0,0,1,527.34,52a7.43,7.43,0,0,1-1.45-2.47,9.22,9.22,0,0,1-.5-3.06,9.48,9.48,0,0,1,.5-3.11,7.51,7.51,0,0,1,1.45-2.51,6.45,6.45,0,0,1,2.32-1.68,7.52,7.52,0,0,1,3.1-.61,7.74,7.74,0,0,1,2.34.35,6.4,6.4,0,0,1,2,1,5.47,5.47,0,0,1,1.44,1.69,6.14,6.14,0,0,1,.72,2.31H536A3,3,0,0,0,535.66,42.92Z" style="fill:#272727"/><path d="M545.3,57.15a4.35,4.35,0,0,1-2.4.57c-.31,0-.61,0-.91,0l-.92-.08V55.16l.87.08a5.15,5.15,0,0,0,.88,0,1.14,1.14,0,0,0,.87-.46,1.49,1.49,0,0,0,.28-.88,1.85,1.85,0,0,0-.12-.67l-3.8-10.19h3.17l2.45,7.44h.05l2.37-7.44h3.09l-4.54,12.2A3.7,3.7,0,0,1,545.3,57.15Z" style="fill:#272727"/><path d="M557.37,45a2.09,2.09,0,0,0-1.2.33,2.61,2.61,0,0,0-.78.84,3.36,3.36,0,0,0-.43,1.13,5.85,5.85,0,0,0-.13,1.23,5.58,5.58,0,0,0,.13,1.2,3.53,3.53,0,0,0,.41,1.1,2.27,2.27,0,0,0,.76.81,2.12,2.12,0,0,0,1.18.32,2.2,2.2,0,0,0,1.65-.6,2.89,2.89,0,0,0,.72-1.61h2.88a5,5,0,0,1-1.68,3.3,5.47,5.47,0,0,1-3.55,1.13,6,6,0,0,1-2.24-.41,4.92,4.92,0,0,1-1.73-1.14,5.07,5.07,0,0,1-1.11-1.76,6,6,0,0,1-.4-2.23,7.09,7.09,0,0,1,.37-2.34,5,5,0,0,1,1.08-1.87A4.75,4.75,0,0,1,555,43.21a5.83,5.83,0,0,1,2.35-.44,6.68,6.68,0,0,1,1.86.25,4.85,4.85,0,0,1,1.6.77A4,4,0,0,1,562,45.07a4.08,4.08,0,0,1,.5,1.81h-2.91A2,2,0,0,0,557.37,45Z" style="fill:#272727"/><path d="M567.3,38.92v15h-3v-15Z" style="fill:#272727"/><path d="M572.85,51.31a3,3,0,0,0,3.48.2,1.87,1.87,0,0,0,.8-.95h2.63a5,5,0,0,1-1.94,2.79,5.65,5.65,0,0,1-3.15.84,6.29,6.29,0,0,1-2.31-.41,4.88,4.88,0,0,1-1.74-1.16,5.43,5.43,0,0,1-1.1-1.81,6.59,6.59,0,0,1-.39-2.31,6.27,6.27,0,0,1,.4-2.27,5.24,5.24,0,0,1,2.89-3,5.51,5.51,0,0,1,2.25-.44,5.26,5.26,0,0,1,2.42.53,4.83,4.83,0,0,1,1.69,1.44,6,6,0,0,1,1,2.06,8,8,0,0,1,.21,2.41h-7.84A3,3,0,0,0,572.85,51.31Zm3.37-5.71a2.11,2.11,0,0,0-1.63-.59,2.62,2.62,0,0,0-1.19.25,2.37,2.37,0,0,0-.75.59,2.23,2.23,0,0,0-.4.76,3.68,3.68,0,0,0-.14.71H577A3.43,3.43,0,0,0,576.22,45.6Z" style="fill:#272727"/></svg>