<svg id="Layer_1" data-name="Layer 1" xmlns="http://www.w3.org/2000/svg" viewBox="0 0 660.57 174.56"><path d="M307.29,2.72V122.23c0,25.17-14.3,51.79-57.22,51.79-38.75,0-57.4-20.1-57.4-51.79V2.72H228V119.87c0,20.83,8.87,29,21.73,29,15.39,0,22.45-10.32,22.45-29V2.72h35.13m57.4,171.48c-43.64,0-51.79-25.72-50-54.87H350c0,16.12.73,29.7,20.1,29.7,12,0,17.75-7.79,17.75-19.2,0-30.42-71-32.23-71-82.39C316.89,21,329.56,0,372.48,0c34.4,0,51.42,15.39,49.07,50.7h-34.4c0-12.67-2.18-25.53-16.3-25.53-11.41,0-18.29,6.34-18.29,17.93,0,32.05,71,29.15,71,82.21,0,43.82-32.05,48.89-58.85,48.89m237,0c-43.64,0-51.78-25.72-50-54.87h35.31c0,16.12.72,29.7,20.1,29.7,12,0,17.74-7.79,17.74-19.2,0-30.42-71-32.23-71-82.39C553.92,21,566.59,0,609.51,0c34.41,0,51.43,15.39,49.07,50.7h-34.4c0-12.67-2.18-25.53-16.3-25.53-11.41,0-18.29,6.34-18.29,17.93,0,32.05,71,29.15,71,82.21,0,43.82-32.05,48.89-58.85,48.89M489.46,108.65h20.82v37.12l-1.81.72a57,57,0,0,1-17.57,3.26c-20.1,0-25.17-9.41-25.17-62.11,0-32.77,0-62.29,21.91-62.29,17,0,20.65,11.59,21,25.53h35.13c.36-32.77-20.83-50.7-54-50.7-57.77,0-59.76,43.28-59.76,85.65,0,63.92,6.88,88.73,66.28,88.73,13.76,0,35.67-3.08,45.81-5.79.54-.19,1.63-.91,1.63-1.63V83.3H489.46v25.35" style="fill:#fff"/><path d="M45.45,59.21l.54.55C62.47,73.52,80.4,72.25,94,63.2c8.51-5.62,47.26-31.51,69.17-46V2.72H0V41.1c10-1.62,26.08,0,45.45,18.11m61.39,63.92-19.2-18.47c-2.71-2.53-5.07-4.34-5.43-4.7-15.75-11-30.42-7.79-36.76-5.44a22.09,22.09,0,0,0-5.07,2.72l-40.2,27v48.71H163.33V137.8c-3.8,2.35-25.89,14.31-56.49-14.67M44,63.56c-.9-.73-1.81-1.63-2.71-2.36C22.09,46.36,3.8,53.6,0,55.41V72.25l9.42-6.34s14.48-10.86,37.12.36L44,63.56M66.64,85.29a30.39,30.39,0,0,1-2.54-2.36c-17-14.48-33.68-10.86-40.38-8.33a22.49,22.49,0,0,0-5.07,2.72L.18,89.63v17.21L31,86s14.31-10.68,36.76,0l-1.08-.72m96.51,18.11c-6.34,4.34-12.85,8.69-15.57,10.5-5.8,3.8-19.2,13.58-41.65,2.9l2.72,2.53a28.28,28.28,0,0,0,3.44,2.9c16.11,12,33.14,10.32,46,1.81,1.81-1.27,3.44-2.17,4.89-3.26l.18-17.38m0-34.59C149,78.23,130,91.08,126.39,93.44,120.6,97.24,107,107,85.11,96.7l2.53,2.35c.36.18.55.54.91.72h0c17,14.31,35.67,12.14,48.53,3.63,7.24-4.89,17.56-11.77,26.07-17.57v-17m0-34.41C142.87,48,109.55,70.44,105.39,73c-5.8,4-19.74,13.77-41.29,3.45L66.64,79a43.17,43.17,0,0,0,6,4.71c15,9.6,30.6,7.78,43.28-.73,9.24-6.15,31.69-21,47.08-31.32V34.4" style="fill:#fff"/></svg>