<svg id="Layer_1" data-name="Layer 1" xmlns="http://www.w3.org/2000/svg" viewBox="0 0 660.84 244.09"><defs><style>.cls-1{fill:#fff;}</style></defs><path class="cls-1" d="M307.55,2.72V122.23c0,25.17-14.3,51.79-57.22,51.79-38.75,0-57.4-20.1-57.4-51.79V2.72h35.31V119.87c0,20.83,8.88,29,21.73,29,15.39,0,22.46-10.32,22.46-29V2.72h35.12M365,174.2c-43.64,0-51.79-25.72-50-54.87h35.31c0,16.12.72,29.7,20.1,29.7,11.95,0,17.74-7.79,17.74-19.2,0-30.42-71-32.23-71-82.39C317.15,21,329.83,0,372.74,0c34.41,0,51.43,15.39,49.08,50.7H387.41c0-12.67-2.17-25.53-16.3-25.53-11.4,0-18.29,6.34-18.29,17.93,0,32.05,71,29.15,71,82.21,0,43.82-32.05,48.89-58.85,48.89m237,0c-43.64,0-51.79-25.72-50-54.87h35.31c0,16.12.73,29.7,20.1,29.7,12,0,17.75-7.79,17.75-19.2,0-30.42-71-32.23-71-82.39C554.18,21,566.86,0,609.77,0c34.41,0,51.43,15.39,49.08,50.7H624.44c0-12.67-2.17-25.53-16.29-25.53-11.41,0-18.29,6.34-18.29,17.93,0,32.05,71,29.15,71,82.21,0,43.82-32.05,48.89-58.85,48.89M489.72,108.65h20.82v37.12l-1.81.72a57,57,0,0,1-17.56,3.26c-20.1,0-25.17-9.41-25.17-62.11,0-32.77,0-62.29,21.91-62.29,17,0,20.64,11.59,21,25.53H544c.37-32.77-20.82-50.7-54-50.7-57.76,0-59.75,43.28-59.75,85.65,0,63.92,6.88,88.73,66.27,88.73,13.76,0,35.67-3.08,45.81-5.79.55-.19,1.63-.91,1.63-1.63V83.3H489.72v25.35"/><path class="cls-1" d="M45.72,59.21l.54.55c16.48,13.76,34.4,12.49,48,3.44,8.51-5.62,47.27-31.51,69.18-46V2.72H.26V41.1c10-1.62,26.08,0,45.46,18.11m61.38,63.92L87.91,104.66c-2.72-2.53-5.07-4.34-5.44-4.7-15.75-11-30.42-7.79-36.75-5.44a22,22,0,0,0-5.08,2.72l-40.19,27v48.71H163.6V137.8c-3.81,2.35-25.9,14.31-56.5-14.67M44.27,63.56c-.91-.73-1.81-1.63-2.72-2.36C22.36,46.36,4.07,53.6.26,55.41V72.25l9.42-6.34s14.49-10.86,37.12.36l-2.53-2.71M66.9,85.29a30.32,30.32,0,0,1-2.53-2.36C47.34,68.45,30.69,72.07,24,74.6a22.06,22.06,0,0,0-5.07,2.72L.45,89.63v17.21L31.23,86S45.53,75.33,68,86l-1.09-.72m96.52,18.11c-6.34,4.34-12.86,8.69-15.58,10.5-5.79,3.8-19.19,13.58-41.64,2.9l2.71,2.53a29.06,29.06,0,0,0,3.44,2.9c16.12,12,33.14,10.32,46,1.81,1.81-1.27,3.44-2.17,4.89-3.26l.18-17.38m0-34.59c-14.13,9.42-33.14,22.27-36.76,24.63-5.8,3.8-19.38,13.58-41.29,3.26l2.54,2.35c.36.18.54.54.9.72h0c17,14.31,35.67,12.14,48.53,3.63,7.24-4.89,17.57-11.77,26.08-17.57v-17m0-34.41C143.14,48,109.82,70.44,105.65,73c-5.79,4-19.74,13.77-41.28,3.45L66.9,79a42.71,42.71,0,0,0,6,4.71c15,9.6,30.6,7.78,43.27-.73,9.24-6.15,31.69-21,47.09-31.32V34.4"/><path class="cls-1" d="M8.59,223.09a8.82,8.82,0,0,0-.36,3.62c.36.91,1.09,1.45,2.72,1.45a4,4,0,0,0,3.8-3.08c1.27-6.34-13.58-4.89-11.59-14.3,1.45-6.34,8.15-8.33,13.58-8.33,5.62,0,10.14,2.71,8.33,9.05H16.92c.37-2,.55-3.26,0-3.8a2.23,2.23,0,0,0-2-.73c-1.81,0-3.08,1.27-3.44,3.26-1.09,4.71,13.58,4.53,11.59,14-1.09,5.25-6.16,9-13,9-7.24,0-11.77-1.81-9.41-10.14h8m35.5-9.6c.9-4.34.18-6-2.54-6-3.62,0-4.53,3.07-5.79,9.23-2,9.06-1.63,11.05,1.44,11.05,2.54,0,4.35-2.36,5.07-6.16H50.6c-1.63,8.15-6.88,11.59-14.66,11.59-10.69,0-10.69-6.52-8.69-15.94,1.81-8.14,4.34-15,15.39-15,7.6,0,11.22,3.45,9.59,11.23H44.09M70,191.4l-1.45,6.52H60.2l1.45-6.52H70m-8.69,41.29H53L59.3,203h8.33l-6.34,29.7ZM458.94,191.4l-1.45,6.52h-8.33l1.45-6.52h8.33m-8.88,41.29h-8.33l6.34-29.7h8.33l-6.34,29.7ZM85.91,214.4c.55-2.9,1.63-7.06-2.35-7.06-3.8,0-4.71,4.52-5.25,7.06h7.6m-8.69,4.71C76.5,222.73,75.41,228,79,228c2.9,0,4.17-2.9,4.71-5.25h8.51a12.6,12.6,0,0,1-4.89,7.78,15,15,0,0,1-9.41,2.9c-10.69,0-10.69-6.52-8.69-15.93,1.81-8.15,4.34-15,15.39-15,11.22,0,10.86,7.24,8.51,16.84l-15.94-.18Zm31.69-13.22h0a9.5,9.5,0,0,1,8-3.63c4,0,6.88,2.36,6,6.52l-5.07,23.91h-8.33l4.35-20.47c.54-2.71.54-4.7-2.17-4.7s-3.62,2-4.17,4.7l-4.34,20.47H94.79l6.34-29.7h8.32l-.54,2.9m33,7.6c.9-4.34.18-6-2.54-6-3.62,0-4.52,3.07-5.79,9.23-2,9.06-1.63,11.05,1.45,11.05,2.53,0,4.34-2.36,5.07-6.16h8.33c-1.63,8.15-6.88,11.59-14.67,11.59-10.68,0-10.68-6.52-8.69-15.94,1.81-8.14,4.34-15,15.39-15,7.6,0,11.23,3.45,9.6,11.23h-8.15m27.52.91c.55-2.9,1.63-7.06-2.35-7.06-3.8,0-4.71,4.52-5.25,7.06h7.6m-8.51,4.71c-.72,3.62-1.81,8.87,1.81,8.87,2.9,0,4.17-2.9,4.71-5.25h8.51a12.6,12.6,0,0,1-4.89,7.78,15,15,0,0,1-9.41,2.9c-10.69,0-10.69-6.52-8.7-15.93,1.81-8.15,4.35-15,15.4-15,11.22,0,10.86,7.24,8.51,16.84l-15.94-.18Zm50.7-22.46c-3.26-.18-4.34,1.09-4.89,4l-.54,2.17h4l-1.08,5.07h-3.8L200,232.5h-8.33l5.26-24.62h-3.63l1.09-5.07h3.8c1.63-7.43,3.08-11.59,11.95-11.59a14.71,14.71,0,0,1,2.9.18l-1.45,5.25m13.58,20.28c1.27-6.15,1.63-9.23-1.81-9.23-3.62,0-4.52,3.08-5.79,9.23-2,9.06-1.63,11,1.45,11,2.89,0,4.16-2,6.15-11m-16.11.55c1.81-8.15,4.34-15,15.39-15s10.68,6.88,8.87,15c-2,9.23-4.71,15.93-15.57,15.93-10.68-.18-10.68-6.7-8.69-15.93Zm39.11-14.67-.72,3.8h.18c2.17-3.44,5.25-4.35,8.69-4.35l-1.63,7.43c-7.24-.54-8.15,3.8-8.87,6.7l-3.44,16.11H234l6.33-29.69h7.79m25.17,20.64c-.36,2.17-.72,4.71,2,4.71,4.89,0,5.62-6.52,6.16-9.78-4.17,0-7.06-.36-8.15,5.07m14.49,3.62c-.36,1.81-.55,3.81-.73,5.62h-7.78l.54-4h-.18c-2.36,3.08-5.07,4.53-8.69,4.53-5.8,0-7.07-4.35-5.8-9.42,2.18-9.78,9.78-10.32,17.57-10.14l.54-2.35c.54-2.54.54-4.35-2.35-4.35s-3.63,2.18-4.17,4.53h-8.15c.73-3.62,2.36-6,4.53-7.24a14.72,14.72,0,0,1,8.15-2c10.5,0,10.86,4.53,9.78,10l-3.26,14.85Zm32.95-13.58c.91-4.34.18-6-2.53-6-3.62,0-4.53,3.07-5.8,9.23-2,9.06-1.63,11.05,1.45,11.05,2.54,0,4.35-2.36,5.07-6.16h8.33c-1.63,8.15-6.88,11.59-14.66,11.59-10.69,0-10.69-6.52-8.7-15.94,1.81-8.14,4.35-15,15.39-15,7.61,0,11.23,3.45,9.6,11.23h-8.15m45.64,10c-.55,2.17-.73,4.71,2,4.71,4.89,0,5.61-6.52,6.15-9.78-4.16,0-7.06-.36-8.14,5.07m14.48,3.62c-.36,1.81-.54,3.81-.72,5.62h-7.79l.54-4h-.18a10.27,10.27,0,0,1-8.69,4.53c-5.79,0-7.06-4.35-5.79-9.42,2.17-9.78,9.78-10.32,17.56-10.14l.54-2.35c.55-2.54.55-4.35-2.35-4.35s-3.62,2.18-4.16,4.53H361.7c.72-3.62,2.35-6,4.52-7.24a14.74,14.74,0,0,1,8.15-2c10.51,0,10.87,4.53,9.78,10l-3.26,14.85Zm18.29-21.18h0a9.49,9.49,0,0,1,8-3.63c4,0,6.88,2.36,6,6.52l-5.07,23.91h-8.33l4.35-20.47c.54-2.71.54-4.7-2.17-4.7s-3.62,2-4.17,4.7l-4.34,20.47h-8.33l6.33-29.7h8.33l-.54,2.9m26.08,21.18c3.07,0,4.16-3.08,5.43-9.41,1.45-6.52,1.81-10.33-1.27-10.33s-4.16,2.18-6,11.23c-.55,2.9-2.18,8.51,1.81,8.51M442.1,203l-6.52,31c-.36,2-2,10.14-13.4,10.14-6.16,0-11.23-1.63-9.78-8.87h8.15a5.86,5.86,0,0,0,0,3.08,2.71,2.71,0,0,0,2.53,1.27c2,0,3.44-2,4.17-4.89l1.27-5.8h-.37a8.63,8.63,0,0,1-7.06,3.44c-9,0-6.88-8.33-5.61-15,1.45-6.51,3.26-14.84,11.95-14.84,2.9,0,5.25,1.26,5.79,4h.18l.73-3.44Zm27.88,2.9h0a9.5,9.5,0,0,1,8-3.63c4,0,6.88,2.36,6,6.52l-5.07,23.91h-8.33l4.34-20.47c.54-2.71.54-4.7-2.17-4.7s-3.62,2-4.17,4.7l-4.34,20.47h-8.33L462.2,203h8.33l-.55,2.9m26.26,21.18c3.08,0,4.16-3.08,5.43-9.41,1.45-6.52,1.81-10.33-1.09-10.33-3.07,0-4.16,2.18-6,11.23-.73,2.9-2.36,8.51,1.63,8.51M513.08,203l-6.52,31c-.36,2-2,10.14-13.4,10.14-6.16,0-11.23-1.63-9.78-8.87h8.15a5.86,5.86,0,0,0,0,3.08,2.72,2.72,0,0,0,2.54,1.27c2,0,3.44-2,4.16-4.89l1.27-5.8h-.18a8.65,8.65,0,0,1-7.07,3.44c-9.05,0-6.88-8.33-5.61-15,1.45-6.51,3.26-14.84,11.95-14.84,2.9,0,5.25,1.26,5.8,4h.18l.72-3.44Zm13,0h8.33l-.73,22.45h.18l10-22.45h8.88l.18,22.45h.18l9-22.45h8L556,232.69H547.3L546.4,213h-.55l-10,19.74H527l-.9-29.7m57.94,13.94c1.27-6.15,1.63-9.23-1.81-9.23-3.62,0-4.53,3.08-5.79,9.23-2,9.06-1.63,11,1.45,11s4.16-2,6.15-11m-16.11.55c1.81-8.15,4.34-15,15.39-15s10.68,6.88,8.87,15c-2,9.23-4.71,15.93-15.57,15.93S566,226.71,568,217.48ZM607.6,203l-.9,3.8h.18c2.17-3.44,5.25-4.34,8.69-4.34l-1.63,7.42c-7.24-.54-8.15,3.8-8.87,6.7l-3.44,16.12H593.3l6.33-29.7h8m-256.41-.73a9.16,9.16,0,0,0-7.78,3.63h-.18l3.08-14.49H338l-8.7,41.29h8.33L342,212.22c.54-2.71,1.45-4.7,4.16-4.7s2.72,2,2.18,4.7L344,232.69h8.33l5.07-23.91c.73-4.16-2.17-6.52-6.16-6.52M621.55,191.4l-8.7,41.29h8.33l8.69-41.29h-8.32m22.09,26.08c-1.63,7.42-2.72,10.68-5.62,10.68-3.08,0-2.89-3.08-1.26-10.68,1.26-6,2-10.14,5.61-10.14,3.62.18,2.53,4.16,1.27,10.14m5.61-26.08-3.08,14.31H646c-1.09-2.54-3.08-3.45-6-3.45-8.33,0-10.15,9.24-11.41,15.22-1.27,6.15-3.62,15.75,4.89,15.75a9.12,9.12,0,0,0,7.78-3.8h.18l-.72,3.26h8l8.69-41.29Z"/></svg>