<svg id="Layer_1" data-name="Layer 1" xmlns="http://www.w3.org/2000/svg" viewBox="0 0 200 177.85"><defs><style>.cls-1{fill:#010101;}.cls-2{fill:#fff;}</style></defs><path class="cls-1" d="M100,177.85a88.93,88.93,0,1,1,88.92-88.93A89,89,0,0,1,100,177.85ZM100,7.11a81.81,81.81,0,1,0,81.81,81.81A81.9,81.9,0,0,0,100,7.11Z"/><path class="cls-1" d="M100,3.56V88.92H14.63A85.44,85.44,0,0,1,100,3.56Z"/><path class="cls-1" d="M185.37,88.92A85.44,85.44,0,0,1,100,174.29V88.92h85.37Z"/><path class="cls-2" d="M31.28,88.92H100v85.37A85.44,85.44,0,0,1,14.63,88.92Z"/><path class="cls-2" d="M185.37,88.92H100V3.56A85.44,85.44,0,0,1,185.37,88.92Z"/><polygon class="cls-2" points="58.06 124.7 58.06 92.72 47.96 124.7 30.66 124.7 20.28 92.36 20.28 124.7 0 124.7 0 53.15 26.2 53.15 39.39 95.27 52.49 53.15 78.87 53.15 78.87 124.7 58.06 124.7"/><path class="cls-1" d="M76.92,55.09v67.67H60V80.64h-.18l-13.3,42.12H32.08L18.51,80.47h-.17v42.29H2V55.09H24.77L39.3,101.52h.18L53.93,55.09Z"/><polygon class="cls-2" points="81.99 124.7 81.99 53.15 103.15 53.15 103.15 107.5 133.55 107.5 133.55 124.7 81.99 124.7"/><path class="cls-1" d="M83.94,55.09h17.27v54.36H131.6v13.31H83.94Z"/><path class="cls-2" d="M176.79,124.7,165.43,99.06h-7.71V124.7H136.64V53.15h35.43c15,0,24.68,8.82,24.68,22.47,0,8.31-4.19,15.1-11.3,18.53L200,124.7Zm-7.45-42.39c2.3,0,6.15-.79,6.15-6.07s-3.85-6.16-6.15-6.16H157.72V82.31Z"/><path class="cls-1" d="M166.7,97.12H155.77v25.64H138.59V55.09h33.48c13.21,0,22.73,7.4,22.73,20.53,0,8.72-4.85,14.89-12,17.53l14.1,29.61H178.06ZM155.77,84.25h13.57c4.49,0,8.1-2.46,8.1-8s-3.61-8.11-8.1-8.11H155.77Z"/></svg>