<svg id="Layer_2" data-name="Layer 2" xmlns="http://www.w3.org/2000/svg" viewBox="0 0 529.23 407.94"><path d="M152.18,1.65l5.37,8.63h0V1.65h2.65V14.51H157.4L152.06,5.9h0v8.61h-2.65V1.65Z" style="fill:#272727"/><path d="M165.18,12.27a2.23,2.23,0,0,0,1.65.56,2.37,2.37,0,0,0,1.34-.38,1.63,1.63,0,0,0,.68-.82h2.25A4.26,4.26,0,0,1,169.44,14a4.86,4.86,0,0,1-2.7.72,5.41,5.41,0,0,1-2-.35,4.16,4.16,0,0,1-1.49-1,4.42,4.42,0,0,1-.94-1.55,5.49,5.49,0,0,1-.34-2,5.61,5.61,0,0,1,.34-1.94,4.64,4.64,0,0,1,1-1.56,4.51,4.51,0,0,1,1.5-1A4.68,4.68,0,0,1,166.74,5a4.33,4.33,0,0,1,2.07.46,4,4,0,0,1,1.45,1.23,5.08,5.08,0,0,1,.82,1.76,6.45,6.45,0,0,1,.18,2.07h-6.71A2.52,2.52,0,0,0,165.18,12.27Zm2.89-4.89a1.79,1.79,0,0,0-1.4-.51,2.2,2.2,0,0,0-1,.21,2,2,0,0,0-.64.51,1.88,1.88,0,0,0-.35.65,3.17,3.17,0,0,0-.11.61h4.16A3,3,0,0,0,168.07,7.38Z" style="fill:#272727"/><path d="M177.89,5.2V6.91H176v4.61a1.25,1.25,0,0,0,.22.86,1.2,1.2,0,0,0,.86.22l.42,0,.38-.05v2c-.22,0-.46.06-.72.07l-.78,0a6.69,6.69,0,0,1-1.12-.09,2.48,2.48,0,0,1-.94-.31,1.72,1.72,0,0,1-.64-.67,2.41,2.41,0,0,1-.23-1.13V6.91h-1.55V5.2h1.55V2.41H176V5.2Z" style="fill:#272727"/><path d="M187.12,14.51l-1.66-6.25h0l-1.59,6.25H181.2L178.25,5.2H181l1.71,6.32h0l1.55-6.32h2.48l1.59,6.3h0l1.71-6.3h2.63l-2.93,9.31Z" style="fill:#272727"/><path d="M193.82,7.84a4.17,4.17,0,0,1,1-1.55,4.22,4.22,0,0,1,1.51-1,5.21,5.21,0,0,1,2-.35,5.3,5.3,0,0,1,2,.35,4.23,4.23,0,0,1,2.49,2.54,5.63,5.63,0,0,1,.34,2,5.6,5.6,0,0,1-.34,2,4.44,4.44,0,0,1-1,1.54,4.38,4.38,0,0,1-1.52,1,5.51,5.51,0,0,1-2,.34,5.41,5.41,0,0,1-2-.34,4.21,4.21,0,0,1-2.48-2.52,5.59,5.59,0,0,1-.35-2A5.63,5.63,0,0,1,193.82,7.84ZM196.14,11a2.86,2.86,0,0,0,.37,1,1.93,1.93,0,0,0,.69.67,2.11,2.11,0,0,0,1.08.25,2.17,2.17,0,0,0,1.09-.25,2,2,0,0,0,.7-.67,3.09,3.09,0,0,0,.37-1,5.6,5.6,0,0,0,.11-1.09,5.78,5.78,0,0,0-.11-1.1,2.86,2.86,0,0,0-.37-1,2.07,2.07,0,0,0-.7-.68,2.17,2.17,0,0,0-1.09-.26,2.11,2.11,0,0,0-1.08.26,2,2,0,0,0-.69.68,2.66,2.66,0,0,0-.37,1,5.78,5.78,0,0,0-.11,1.1A5.6,5.6,0,0,0,196.14,11Z" style="fill:#272727"/><path d="M207.19,5.2V6.93h0a2.84,2.84,0,0,1,.48-.8,3,3,0,0,1,.7-.63,3.5,3.5,0,0,1,.85-.41A3.24,3.24,0,0,1,210.2,5a2,2,0,0,1,.55.09V7.41l-.43-.06-.49,0a2.64,2.64,0,0,0-1.18.24,2,2,0,0,0-.79.64,2.78,2.78,0,0,0-.42.94,5.39,5.39,0,0,0-.12,1.17v4.2h-2.56V5.2Z" style="fill:#272727"/><path d="M214.55,1.65v6.9l3.22-3.35h3l-3.51,3.42,3.9,5.89H218.1l-2.56-4.16-1,1v3.21H212V1.65Z" style="fill:#272727"/><path d="M230.19,1.65V12.13h6.27v2.38h-9.09V1.65Z" style="fill:#272727"/><path d="M237.84,3.76V1.65h2.56V3.76ZM240.4,5.2v9.31h-2.56V5.2Z" style="fill:#272727"/><path d="M244.84,5.2V6.5h.06a2.86,2.86,0,0,1,1.26-1.18A3.55,3.55,0,0,1,247.74,5a4.29,4.29,0,0,1,1.69.28,2.46,2.46,0,0,1,1,.77A3,3,0,0,1,251,7.21a7.61,7.61,0,0,1,.15,1.57v5.73h-2.55V9.25a3.27,3.27,0,0,0-.36-1.72A1.4,1.4,0,0,0,247,7a1.75,1.75,0,0,0-1.51.63,3.44,3.44,0,0,0-.47,2v4.88h-2.56V5.2Z" style="fill:#272727"/><path d="M255.88,1.65v6.9L259.1,5.2h3l-3.51,3.42,3.91,5.89h-3.1l-2.55-4.16-1,1v3.21h-2.56V1.65Z" style="fill:#272727"/><path d="M266.16,12.27a2.23,2.23,0,0,0,1.65.56,2.31,2.31,0,0,0,1.33-.38,1.65,1.65,0,0,0,.69-.82h2.25A4.26,4.26,0,0,1,270.42,14a4.86,4.86,0,0,1-2.7.72,5.41,5.41,0,0,1-2-.35,4.08,4.08,0,0,1-1.49-1,4.59,4.59,0,0,1-.95-1.55,5.71,5.71,0,0,1-.33-2,5.38,5.38,0,0,1,.34-1.94,4.62,4.62,0,0,1,1-1.56,4.45,4.45,0,0,1,1.51-1A4.65,4.65,0,0,1,267.72,5a4.39,4.39,0,0,1,2.07.46,4,4,0,0,1,1.45,1.23,5.08,5.08,0,0,1,.82,1.76,6.45,6.45,0,0,1,.18,2.07h-6.71A2.52,2.52,0,0,0,266.16,12.27ZM269,7.38a1.77,1.77,0,0,0-1.39-.51,2.2,2.2,0,0,0-1,.21,2,2,0,0,0-.64.51,1.88,1.88,0,0,0-.35.65,3.17,3.17,0,0,0-.11.61h4.15A2.91,2.91,0,0,0,269,7.38Z" style="fill:#272727"/><path d="M280.36,13.32a2.74,2.74,0,0,1-1.18,1.09,4,4,0,0,1-1.65.33,4.08,4.08,0,0,1-1.83-.4,3.8,3.8,0,0,1-1.31-1.1,5,5,0,0,1-.77-1.6,6.45,6.45,0,0,1-.26-1.87A6.1,6.1,0,0,1,273.62,8a4.74,4.74,0,0,1,.77-1.54,3.86,3.86,0,0,1,1.29-1.07,3.79,3.79,0,0,1,1.8-.4,3.53,3.53,0,0,1,1.57.35,2.75,2.75,0,0,1,1.18,1h0V1.65h2.55V14.51h-2.43V13.32Zm-.11-4.6a2.8,2.8,0,0,0-.37-.94,1.93,1.93,0,0,0-1.72-.91,2.06,2.06,0,0,0-1.06.26,1.9,1.9,0,0,0-.69.66,2.87,2.87,0,0,0-.38,1,4.94,4.94,0,0,0-.12,1.1,4.43,4.43,0,0,0,.13,1.08,3,3,0,0,0,.4,1,2.2,2.2,0,0,0,.71.68,1.83,1.83,0,0,0,1,.26,2,2,0,0,0,1-.25,1.9,1.9,0,0,0,.68-.67,3,3,0,0,0,.36-1,5.8,5.8,0,0,0,.11-1.11A5.65,5.65,0,0,0,280.25,8.72Z" style="fill:#272727"/><path d="M295.57,1.65a6.67,6.67,0,0,1,2.31.4,5,5,0,0,1,1.85,1.19,5.5,5.5,0,0,1,1.23,2A8.09,8.09,0,0,1,301.4,8,8.91,8.91,0,0,1,301,10.6,5.6,5.6,0,0,1,300,12.65,5.07,5.07,0,0,1,298.13,14a6.12,6.12,0,0,1-2.56.5H290V1.65Zm-.2,10.48a3.72,3.72,0,0,0,1.19-.2,2.56,2.56,0,0,0,1-.66,3.24,3.24,0,0,0,.72-1.19,5.25,5.25,0,0,0,.27-1.8,7.3,7.3,0,0,0-.19-1.76,3.38,3.38,0,0,0-.62-1.34,2.66,2.66,0,0,0-1.14-.85,4.5,4.5,0,0,0-1.75-.3h-2v8.1Z" style="fill:#272727"/><path d="M303,8.06a3,3,0,0,1,.45-1.49,3.09,3.09,0,0,1,1-1,4.38,4.38,0,0,1,1.38-.51A8,8,0,0,1,307.36,5a9.78,9.78,0,0,1,1.42.1,4.16,4.16,0,0,1,1.31.38,2.74,2.74,0,0,1,1,.8,2.28,2.28,0,0,1,.37,1.36v4.85a9.18,9.18,0,0,0,.08,1.2,2.1,2.1,0,0,0,.25.87h-2.59a3.74,3.74,0,0,1-.12-.45,3.25,3.25,0,0,1-.06-.45,3.37,3.37,0,0,1-1.44.88,5.78,5.78,0,0,1-1.7.25,4.53,4.53,0,0,1-1.24-.16,2.92,2.92,0,0,1-1-.51,2.3,2.3,0,0,1-.67-.86A3,3,0,0,1,302.7,12a2.8,2.8,0,0,1,.27-1.31,2.5,2.5,0,0,1,.72-.82,3.59,3.59,0,0,1,1-.46,11.17,11.17,0,0,1,1.15-.24c.38-.06.76-.11,1.13-.14a7.89,7.89,0,0,0,1-.16,1.72,1.72,0,0,0,.68-.32.7.7,0,0,0,.24-.6,1.35,1.35,0,0,0-.14-.66,1,1,0,0,0-.36-.38,1.39,1.39,0,0,0-.52-.18,4.31,4.31,0,0,0-.64,0A2,2,0,0,0,306,7a1.49,1.49,0,0,0-.5,1.08ZM308.89,10a1.25,1.25,0,0,1-.41.23,3.59,3.59,0,0,1-.52.13,5.4,5.4,0,0,1-.58.09l-.62.09a5.12,5.12,0,0,0-.56.15,1.72,1.72,0,0,0-.49.24,1,1,0,0,0-.33.39,1.38,1.38,0,0,0,0,1.17,1,1,0,0,0,.34.36,1.3,1.3,0,0,0,.5.19,3,3,0,0,0,.6.06A2.37,2.37,0,0,0,308,12.8a1.7,1.7,0,0,0,.61-.61,1.93,1.93,0,0,0,.24-.71,5.07,5.07,0,0,0,.05-.57Z" style="fill:#272727"/><path d="M318.53,5.2V6.91h-1.87v4.61a1.2,1.2,0,0,0,.22.86,1.2,1.2,0,0,0,.86.22l.42,0,.37-.05v2a6.76,6.76,0,0,1-.72.07l-.77,0a6.6,6.6,0,0,1-1.12-.09,2.48,2.48,0,0,1-.94-.31,1.72,1.72,0,0,1-.64-.67,2.29,2.29,0,0,1-.23-1.13V6.91h-1.55V5.2h1.55V2.41h2.55V5.2Z" style="fill:#272727"/><path d="M319.65,8.06a2.88,2.88,0,0,1,1.46-2.45,4.29,4.29,0,0,1,1.38-.51A7.93,7.93,0,0,1,324,5a9.92,9.92,0,0,1,1.43.1,4.24,4.24,0,0,1,1.31.38,2.63,2.63,0,0,1,1,.8,2.28,2.28,0,0,1,.38,1.36v4.85a9.22,9.22,0,0,0,.07,1.2,2.26,2.26,0,0,0,.25.87h-2.59a3.69,3.69,0,0,1-.11-.45,3.25,3.25,0,0,1-.07-.45,3.37,3.37,0,0,1-1.44.88,5.67,5.67,0,0,1-1.69.25,4.48,4.48,0,0,1-1.24-.16,2.83,2.83,0,0,1-1-.51,2.21,2.21,0,0,1-.67-.86,2.8,2.8,0,0,1-.25-1.24,2.79,2.79,0,0,1,.28-1.31,2.5,2.5,0,0,1,.72-.82,3.59,3.59,0,0,1,1-.46,11.56,11.56,0,0,1,1.14-.24c.39-.06.76-.11,1.14-.14a7.89,7.89,0,0,0,1-.16,1.87,1.87,0,0,0,.68-.32.66.66,0,0,0,.23-.6,1.36,1.36,0,0,0-.13-.66,1,1,0,0,0-.36-.38,1.39,1.39,0,0,0-.52-.18,4.31,4.31,0,0,0-.64,0,2,2,0,0,0-1.19.32,1.42,1.42,0,0,0-.5,1.08Zm5.9,1.89a1.11,1.11,0,0,1-.4.23,4,4,0,0,1-.52.13,5.21,5.21,0,0,1-.59.09l-.61.09q-.29.06-.57.15a1.8,1.8,0,0,0-.48.24,1.17,1.17,0,0,0-.34.39,1.26,1.26,0,0,0-.12.59,1.28,1.28,0,0,0,.12.58,1,1,0,0,0,.35.36,1.3,1.3,0,0,0,.5.19,2.88,2.88,0,0,0,.59.06,2.31,2.31,0,0,0,1.17-.25,1.73,1.73,0,0,0,.62-.61,1.93,1.93,0,0,0,.24-.71,4.67,4.67,0,0,0,0-.57Z" style="fill:#272727"/><path d="M338.19,1.65V14.51h-2.83V1.65Z" style="fill:#272727"/><path d="M342.84,5.2V6.5h.05a2.86,2.86,0,0,1,1.26-1.18A3.55,3.55,0,0,1,345.73,5a4.29,4.29,0,0,1,1.69.28,2.46,2.46,0,0,1,1,.77A3,3,0,0,1,349,7.21a7.58,7.58,0,0,1,.16,1.57v5.73h-2.56V9.25a3.27,3.27,0,0,0-.36-1.72A1.4,1.4,0,0,0,344.94,7a1.75,1.75,0,0,0-1.51.63,3.44,3.44,0,0,0-.47,2v4.88H340.4V5.2Z" style="fill:#272727"/><path d="M357.68,13.32a2.67,2.67,0,0,1-1.17,1.09,4,4,0,0,1-1.65.33,4.12,4.12,0,0,1-1.84-.4,3.76,3.76,0,0,1-1.3-1.1,5.18,5.18,0,0,1-.78-1.6,6.81,6.81,0,0,1-.26-1.87A6.44,6.44,0,0,1,350.94,8a5,5,0,0,1,.78-1.54A3.86,3.86,0,0,1,353,5.35a3.79,3.79,0,0,1,1.8-.4,3.56,3.56,0,0,1,1.57.35,2.75,2.75,0,0,1,1.18,1h0V1.65h2.55V14.51h-2.43V13.32Zm-.1-4.6a2.8,2.8,0,0,0-.37-.94,2,2,0,0,0-.68-.65,1.93,1.93,0,0,0-1-.26,2.06,2.06,0,0,0-1.06.26,2,2,0,0,0-.7.66,2.86,2.86,0,0,0-.37,1,5,5,0,0,0,0,2.18,3,3,0,0,0,.41,1,2.27,2.27,0,0,0,.7.68,1.84,1.84,0,0,0,1,.26,1.89,1.89,0,0,0,1.73-.92,3,3,0,0,0,.36-1,5.8,5.8,0,0,0,.1-1.11A5.66,5.66,0,0,0,357.58,8.72Z" style="fill:#272727"/><path d="M364.81,12.27a2.27,2.27,0,0,0,1.66.56,2.34,2.34,0,0,0,1.33-.38,1.63,1.63,0,0,0,.68-.82h2.25A4.29,4.29,0,0,1,369.08,14a4.9,4.9,0,0,1-2.7.72,5.41,5.41,0,0,1-2-.35,4.12,4.12,0,0,1-1.5-1,4.57,4.57,0,0,1-.94-1.55,5.71,5.71,0,0,1-.33-2A5.38,5.38,0,0,1,362,7.92a4.62,4.62,0,0,1,1-1.56,4.51,4.51,0,0,1,1.5-1A4.7,4.7,0,0,1,366.38,5a4.39,4.39,0,0,1,2.07.46,4,4,0,0,1,1.45,1.23,5.27,5.27,0,0,1,.82,1.76,7.08,7.08,0,0,1,.18,2.07h-6.72A2.61,2.61,0,0,0,364.81,12.27Zm2.89-4.89a1.78,1.78,0,0,0-1.39-.51,2.2,2.2,0,0,0-1,.21,2,2,0,0,0-.65.51,1.85,1.85,0,0,0-.34.65,2.61,2.61,0,0,0-.12.61h4.16A2.91,2.91,0,0,0,367.7,7.38Z" style="fill:#272727"/><path d="M371.72,5.2h2.92l1.64,2.43L377.9,5.2h2.82l-3.06,4.36,3.44,4.95h-2.91l-1.95-2.94-1.94,2.94h-2.86l3.34-4.9Z" style="fill:#272727"/><path d="M165,77.75a17.61,17.61,0,0,0-12.19-29.41v-.05a17.65,17.65,0,0,0-33.78-7.16A17.61,17.61,0,0,0,88.3,42.68,18.72,18.72,0,0,0,56.24,47,25.5,25.5,0,0,0,16.48,68.14,25.11,25.11,0,0,0,17,73a18.71,18.71,0,0,0-9.28,33.73,18.72,18.72,0,0,0,16.24,28,19,19,0,0,0,2-.11,24.39,24.39,0,0,0,39.17,8,26.23,26.23,0,0,0,47.8-4.85,24.39,24.39,0,0,0,35.32-20.31A24.38,24.38,0,0,0,165,77.75Z" style="fill:#fff;stroke:#272727;stroke-miterlimit:10;stroke-width:0.5px"/><line x1="170.56" y1="93.2" x2="314.35" y2="93.2" style="fill:none;stroke:#58595b;stroke-miterlimit:10;stroke-width:5px"/><line x1="87.92" y1="198.8" x2="87.92" y2="155.99" style="fill:none;stroke:#58595b;stroke-miterlimit:10;stroke-width:5px"/><line x1="86.07" y1="247.53" x2="153.05" y2="323.99" style="fill:none;stroke:#58595b;stroke-miterlimit:10;stroke-width:5px"/><line x1="208.49" y1="323.99" x2="276.22" y2="249.48" style="fill:none;stroke:#58595b;stroke-miterlimit:10;stroke-width:5px"/><polyline points="276.22 202.32 369.05 129.76 465.22 202.32" style="fill:none;stroke:#58595b;stroke-miterlimit:10;stroke-width:5px"/><line x1="340.23" y1="226.79" x2="401.21" y2="226.79" style="fill:none;stroke:#58595b;stroke-miterlimit:10;stroke-width:5px"/><line x1="465.22" y1="254.78" x2="465.22" y2="319.71" style="fill:none;stroke:#58595b;stroke-miterlimit:10;stroke-width:5px"/><rect x="314.35" y="56.65" width="110.51" height="73.12" rx="5" style="fill:#e6e7e8"/><rect x="212.21" y="198.8" width="128.02" height="55.99" rx="5" style="fill:#e6e7e8"/><rect x="401.21" y="198.8" width="128.02" height="55.99" rx="5" style="fill:#e6e7e8"/><rect x="23.91" y="198.8" width="128.02" height="55.99" rx="5" style="fill:#e6e7e8"/><path d="M245.71,393.29c0,8.09-28.49,14.65-63.63,14.65s-63.63-6.56-63.63-14.65V334.37H245.68v58.48A3.25,3.25,0,0,1,245.71,393.29Z" style="fill:#53afe2;stroke:#272727;stroke-miterlimit:10;stroke-width:0.5px"/><ellipse cx="182.06" cy="334.37" rx="63.63" ry="14.66" style="fill:#53afe2;stroke:#272727;stroke-miterlimit:10;stroke-width:0.5px"/><path d="M528.87,393.29c0,8.09-28.49,14.65-63.63,14.65s-63.63-6.56-63.63-14.65V334.37H528.84v58.48A3.25,3.25,0,0,1,528.87,393.29Z" style="fill:#53afe2;stroke:#272727;stroke-miterlimit:10;stroke-width:0.5px"/><ellipse cx="465.21" cy="334.37" rx="63.63" ry="14.66" style="fill:#53afe2;stroke:#272727;stroke-miterlimit:10;stroke-width:0.5px"/><path d="M333.06,91.67a2.41,2.41,0,0,0-.42-.48,2.16,2.16,0,0,0-.58-.32,2.08,2.08,0,0,0-.66-.11,2.11,2.11,0,0,0-1.08.25,1.91,1.91,0,0,0-.72.66,2.65,2.65,0,0,0-.4.94,4.34,4.34,0,0,0-.13,1.09,4.08,4.08,0,0,0,.13,1,2.63,2.63,0,0,0,.4.92,2,2,0,0,0,.72.65,2.11,2.11,0,0,0,1.08.25,1.75,1.75,0,0,0,1.35-.53,2.46,2.46,0,0,0,.59-1.39h1.83a4.68,4.68,0,0,1-.37,1.45,3.43,3.43,0,0,1-.8,1.1,3.21,3.21,0,0,1-1.15.7,4.2,4.2,0,0,1-1.45.24,4.33,4.33,0,0,1-1.77-.34,3.77,3.77,0,0,1-1.33-.94,4.31,4.31,0,0,1-.83-1.41,5.26,5.26,0,0,1-.28-1.75,5.4,5.4,0,0,1,.28-1.78,4.45,4.45,0,0,1,.83-1.44,4,4,0,0,1,1.33-1,4.33,4.33,0,0,1,1.77-.34,4.22,4.22,0,0,1,1.34.2,3.63,3.63,0,0,1,1.12.59,3.24,3.24,0,0,1,.83,1,3.59,3.59,0,0,1,.41,1.32h-1.83A1.49,1.49,0,0,0,333.06,91.67Z" style="fill:#272727"/><path d="M338,89.38V98h-1.7V89.38Z" style="fill:#272727"/><path d="M339.42,90.78v-1.4h1.7v1.4Zm1.7,1V98h-1.7V91.74Z" style="fill:#272727"/><path d="M344.29,96.46a1.74,1.74,0,0,0,2,.11,1,1,0,0,0,.45-.54h1.5a2.82,2.82,0,0,1-1.1,1.59,3.25,3.25,0,0,1-1.8.48,3.45,3.45,0,0,1-1.32-.23,2.76,2.76,0,0,1-1-.67,2.7,2.7,0,0,1-.63-1,3.73,3.73,0,0,1-.23-1.32,3.65,3.65,0,0,1,.23-1.29,3,3,0,0,1,.65-1,3.08,3.08,0,0,1,1-.69,3.19,3.19,0,0,1,1.29-.25,3,3,0,0,1,1.38.3,2.87,2.87,0,0,1,1,.82,3.44,3.44,0,0,1,.54,1.18,4.5,4.5,0,0,1,.12,1.38h-4.47A1.69,1.69,0,0,0,344.29,96.46Zm1.92-3.26a1.17,1.17,0,0,0-.93-.34,1.52,1.52,0,0,0-.68.14,1.32,1.32,0,0,0-.43.34,1.39,1.39,0,0,0-.23.43,1.68,1.68,0,0,0-.07.41h2.77A1.9,1.9,0,0,0,346.21,93.2Z" style="fill:#272727"/><path d="M351,91.74v.87h0a1.93,1.93,0,0,1,.84-.79,2.44,2.44,0,0,1,1-.24,3,3,0,0,1,1.12.18,1.62,1.62,0,0,1,.69.52,2,2,0,0,1,.36.8,4.93,4.93,0,0,1,.1,1V98h-1.7V94.44a2.15,2.15,0,0,0-.24-1.14,1,1,0,0,0-.86-.38,1.17,1.17,0,0,0-1,.41,2.3,2.3,0,0,0-.32,1.37V98h-1.7V91.74Z" style="fill:#272727"/><path d="M359.87,91.74v1.14h-1.24V96a.85.85,0,0,0,.14.57.82.82,0,0,0,.58.15l.27,0a1.9,1.9,0,0,0,.25,0V98l-.48,0h-.51a4.38,4.38,0,0,1-.75-.06,1.57,1.57,0,0,1-.63-.21,1.05,1.05,0,0,1-.42-.44,1.51,1.51,0,0,1-.16-.76V92.88h-1V91.74h1V89.88h1.71v1.86Z" style="fill:#272727"/><path d="M365.65,95.84a1.28,1.28,0,0,0,.41.48,1.63,1.63,0,0,0,.61.28,2.84,2.84,0,0,0,.72.09c.16,0,.34,0,.54,0a2,2,0,0,0,.54-.17,1.34,1.34,0,0,0,.42-.33.82.82,0,0,0,.16-.53.73.73,0,0,0-.22-.56,1.59,1.59,0,0,0-.58-.36,6.12,6.12,0,0,0-.82-.26l-.92-.24a7.84,7.84,0,0,1-.94-.29,3.52,3.52,0,0,1-.81-.45,2,2,0,0,1-.58-.69,2.08,2.08,0,0,1-.23-1,2.26,2.26,0,0,1,.29-1.15,2.57,2.57,0,0,1,.73-.81,3.54,3.54,0,0,1,1-.48,4.48,4.48,0,0,1,1.15-.15,5.43,5.43,0,0,1,1.29.15,3.31,3.31,0,0,1,1.1.48,2.52,2.52,0,0,1,.76.86,2.62,2.62,0,0,1,.28,1.27h-1.82a1.47,1.47,0,0,0-.17-.64,1.07,1.07,0,0,0-.36-.4,1.71,1.71,0,0,0-.52-.2,3.27,3.27,0,0,0-.65-.06,2.3,2.3,0,0,0-.45,0,1.28,1.28,0,0,0-.42.17,1.07,1.07,0,0,0-.3.3.79.79,0,0,0-.12.45.8.8,0,0,0,.09.41.94.94,0,0,0,.38.29,5,5,0,0,0,.78.26l1.3.34c.16,0,.39.09.67.17a3.62,3.62,0,0,1,.85.4,2.54,2.54,0,0,1,.72.74,2.05,2.05,0,0,1,.31,1.18,2.67,2.67,0,0,1-.23,1.1,2.46,2.46,0,0,1-.68.87,3.42,3.42,0,0,1-1.11.57,5.55,5.55,0,0,1-1.55.2,5.65,5.65,0,0,1-1.37-.17,3.56,3.56,0,0,1-1.18-.55,2.67,2.67,0,0,1-.81-1,2.8,2.8,0,0,1-.28-1.37h1.82A1.53,1.53,0,0,0,365.65,95.84Z" style="fill:#272727"/><path d="M371.85,93.5a2.87,2.87,0,0,1,.65-1,3,3,0,0,1,1-.66,3.45,3.45,0,0,1,1.32-.23,3.49,3.49,0,0,1,1.32.23,3,3,0,0,1,1,.66,2.85,2.85,0,0,1,.64,1,3.68,3.68,0,0,1,.23,1.35,3.61,3.61,0,0,1-.23,1.35,2.81,2.81,0,0,1-.64,1,2.85,2.85,0,0,1-1,.66,3.69,3.69,0,0,1-1.32.22,3.66,3.66,0,0,1-1.32-.22,2.87,2.87,0,0,1-1.66-1.68,3.82,3.82,0,0,1-.23-1.35A3.9,3.9,0,0,1,371.85,93.5Zm1.55,2.08a2.06,2.06,0,0,0,.24.63,1.27,1.27,0,0,0,.47.45,1.33,1.33,0,0,0,.72.17,1.35,1.35,0,0,0,.72-.17,1.27,1.27,0,0,0,.47-.45,1.85,1.85,0,0,0,.25-.63,3.84,3.84,0,0,0,0-1.46,1.9,1.9,0,0,0-.25-.64,1.32,1.32,0,0,0-1.19-.62,1.42,1.42,0,0,0-.72.17,1.45,1.45,0,0,0-.47.45,2.12,2.12,0,0,0-.24.64,3.84,3.84,0,0,0,0,1.46Z" style="fill:#272727"/><path d="M378.5,92.88V91.74h1v-.48a1.86,1.86,0,0,1,.51-1.35,2.12,2.12,0,0,1,1.56-.53l.46,0,.44,0V90.7a6.06,6.06,0,0,0-.62,0,.66.66,0,0,0-.5.17.77.77,0,0,0-.15.54v.37h1.18v1.14h-1.18V98h-1.7V92.88Z" style="fill:#272727"/><path d="M386.55,91.74v1.14H385.3V96a.8.8,0,0,0,.15.57.78.78,0,0,0,.57.15l.28,0a1.9,1.9,0,0,0,.25,0V98l-.48,0h-.52a4.56,4.56,0,0,1-.75-.06,1.57,1.57,0,0,1-.62-.21,1.14,1.14,0,0,1-.43-.44,1.63,1.63,0,0,1-.15-.76V92.88h-1V91.74h1V89.88h1.7v1.86Z" style="fill:#272727"/><path d="M392.71,98l-1.11-4.17h0L390.52,98h-1.76l-2-6.21h1.8L389.73,96h0l1-4.22h1.65l1.06,4.2h0l1.14-4.2h1.75l-2,6.21Z" style="fill:#272727"/><path d="M397.06,93.65a2.07,2.07,0,0,1,.3-1A2,2,0,0,1,398,92a3.07,3.07,0,0,1,.92-.34,5.07,5.07,0,0,1,1-.1,7.69,7.69,0,0,1,.95.06,2.94,2.94,0,0,1,.87.26,1.79,1.79,0,0,1,.65.53,1.49,1.49,0,0,1,.25.91v3.23a6.73,6.73,0,0,0,.05.8,1.43,1.43,0,0,0,.17.58h-1.73c0-.1-.06-.2-.08-.3s0-.2,0-.3a2.28,2.28,0,0,1-1,.59,3.91,3.91,0,0,1-1.13.16,3.2,3.2,0,0,1-.83-.1,2.12,2.12,0,0,1-.67-.34,1.54,1.54,0,0,1-.45-.58,1.88,1.88,0,0,1-.16-.82,1.7,1.7,0,0,1,.19-.87,1.51,1.51,0,0,1,.48-.55,2.06,2.06,0,0,1,.67-.31c.25-.06.5-.12.76-.16l.76-.09a5.67,5.67,0,0,0,.66-.11,1.18,1.18,0,0,0,.45-.21.46.46,0,0,0,.16-.4.9.9,0,0,0-.09-.44.64.64,0,0,0-.24-.25,1,1,0,0,0-.35-.12,2.81,2.81,0,0,0-.43,0,1.32,1.32,0,0,0-.79.21,1,1,0,0,0-.33.72ZM401,94.91a.59.59,0,0,1-.27.15,2,2,0,0,1-.35.09,2.28,2.28,0,0,1-.39.06l-.41.06-.38.1a1.07,1.07,0,0,0-.32.16.7.7,0,0,0-.22.26.75.75,0,0,0-.09.39.78.78,0,0,0,.09.39.59.59,0,0,0,.23.24.82.82,0,0,0,.33.13,2.58,2.58,0,0,0,.4,0,1.56,1.56,0,0,0,.78-.17,1.21,1.21,0,0,0,.41-.4,1.51,1.51,0,0,0,.16-.48,3.29,3.29,0,0,0,0-.38Z" style="fill:#272727"/><path d="M405.64,91.74V92.9h0a2,2,0,0,1,.32-.54,2.36,2.36,0,0,1,.47-.42,2.63,2.63,0,0,1,.56-.27,2.18,2.18,0,0,1,.63-.09,1.35,1.35,0,0,1,.37.06v1.58l-.29,0-.32,0a1.76,1.76,0,0,0-.8.16,1.34,1.34,0,0,0-.52.42,1.81,1.81,0,0,0-.28.63,3.21,3.21,0,0,0-.09.78V98H404V91.74Z" style="fill:#272727"/><path d="M410.3,96.46a1.49,1.49,0,0,0,1.1.37,1.46,1.46,0,0,0,.89-.26,1.08,1.08,0,0,0,.46-.54h1.5a2.83,2.83,0,0,1-1.11,1.59,3.22,3.22,0,0,1-1.8.48,3.45,3.45,0,0,1-1.32-.23,2.76,2.76,0,0,1-1-.67,2.7,2.7,0,0,1-.63-1,3.73,3.73,0,0,1-.23-1.32,3.65,3.65,0,0,1,.23-1.29,3,3,0,0,1,.65-1,3.08,3.08,0,0,1,1-.69,3.19,3.19,0,0,1,1.29-.25,3,3,0,0,1,1.38.3,2.87,2.87,0,0,1,1,.82,3.44,3.44,0,0,1,.54,1.18,4,4,0,0,1,.12,1.38h-4.47A1.69,1.69,0,0,0,410.3,96.46Zm1.92-3.26a1.17,1.17,0,0,0-.93-.34,1.48,1.48,0,0,0-.67.14,1.27,1.27,0,0,0-.44.34,1.35,1.35,0,0,0-.22.43,1.73,1.73,0,0,0-.08.41h2.77A1.9,1.9,0,0,0,412.22,93.2Z" style="fill:#272727"/><path d="M54.32,87.15a4.57,4.57,0,0,1,1.54.26,3.38,3.38,0,0,1,1.23.79,3.84,3.84,0,0,1,.82,1.32,5.27,5.27,0,0,1,.29,1.86A5.93,5.93,0,0,1,58,93.11a3.81,3.81,0,0,1-.72,1.37,3.54,3.54,0,0,1-1.21.91,4.14,4.14,0,0,1-1.71.33h-3.7V87.15Zm-.14,7A2.4,2.4,0,0,0,55,94a1.73,1.73,0,0,0,.68-.44,2.16,2.16,0,0,0,.48-.8,3.45,3.45,0,0,0,.18-1.2,4.71,4.71,0,0,0-.13-1.17,2.35,2.35,0,0,0-.41-.89,1.82,1.82,0,0,0-.76-.57,3.11,3.11,0,0,0-1.17-.2H52.5v5.4Z" style="fill:#231f20"/><path d="M59.26,91.42a1.94,1.94,0,0,1,.3-1,2.12,2.12,0,0,1,.67-.63,2.74,2.74,0,0,1,.92-.34,5.07,5.07,0,0,1,1-.11,7.57,7.57,0,0,1,.94.07,2.73,2.73,0,0,1,.88.26,1.77,1.77,0,0,1,.65.53,1.49,1.49,0,0,1,.25.91v3.23a6.87,6.87,0,0,0,0,.8,1.43,1.43,0,0,0,.17.58H63.39c0-.1-.06-.2-.08-.3s0-.2,0-.3a2.16,2.16,0,0,1-1,.58,4,4,0,0,1-1.13.17,2.78,2.78,0,0,1-.83-.11,1.91,1.91,0,0,1-.67-.33,1.62,1.62,0,0,1-.45-.58,1.92,1.92,0,0,1-.16-.83,1.87,1.87,0,0,1,.18-.87,1.68,1.68,0,0,1,.48-.54,2.12,2.12,0,0,1,.68-.31,6.41,6.41,0,0,1,.76-.16l.75-.1a5.15,5.15,0,0,0,.66-.1,1.16,1.16,0,0,0,.46-.21.51.51,0,0,0,.16-.41.86.86,0,0,0-.09-.43.67.67,0,0,0-.24-.26,1,1,0,0,0-.35-.12,2.9,2.9,0,0,0-.43,0,1.32,1.32,0,0,0-.79.22,1,1,0,0,0-.34.72Zm3.94,1.26a1.17,1.17,0,0,1-.27.15,2,2,0,0,1-.35.09l-.39.06-.41.06a2.66,2.66,0,0,0-.38.1,1.07,1.07,0,0,0-.32.16.7.7,0,0,0-.22.26.75.75,0,0,0-.09.39.8.8,0,0,0,.09.39.64.64,0,0,0,.22.24,1.15,1.15,0,0,0,.34.13,2.6,2.6,0,0,0,.4,0,1.56,1.56,0,0,0,.78-.16,1.11,1.11,0,0,0,.4-.41,1.22,1.22,0,0,0,.17-.47,3.28,3.28,0,0,0,0-.39Z" style="fill:#231f20"/><path d="M69.63,89.51v1.14H68.38v3.07a.89.89,0,0,0,.14.58.83.83,0,0,0,.58.14h.28l.25,0v1.32a3.58,3.58,0,0,1-.48,0h-.52a4.57,4.57,0,0,1-.75,0,1.57,1.57,0,0,1-.62-.21,1.14,1.14,0,0,1-.43-.44,1.66,1.66,0,0,1-.15-.76V90.65h-1V89.51h1V87.65h1.7v1.86Z" style="fill:#231f20"/><path d="M70.37,91.42a2.14,2.14,0,0,1,.3-1,2.12,2.12,0,0,1,.67-.63,2.82,2.82,0,0,1,.92-.34,5.07,5.07,0,0,1,1-.11,7.73,7.73,0,0,1,.95.07,2.68,2.68,0,0,1,.87.26,1.69,1.69,0,0,1,.65.53,1.49,1.49,0,0,1,.25.91v3.23a6.87,6.87,0,0,0,0,.8,1.43,1.43,0,0,0,.17.58H74.5c0-.1-.06-.2-.08-.3s0-.2,0-.3a2.16,2.16,0,0,1-1,.58,3.92,3.92,0,0,1-1.13.17,2.82,2.82,0,0,1-.83-.11,1.91,1.91,0,0,1-.67-.33,1.62,1.62,0,0,1-.45-.58,1.92,1.92,0,0,1-.16-.83,1.75,1.75,0,0,1,.19-.87,1.48,1.48,0,0,1,.48-.54,2.06,2.06,0,0,1,.67-.31,6.41,6.41,0,0,1,.76-.16L73,92a5.76,5.76,0,0,0,.66-.1,1.18,1.18,0,0,0,.45-.21.48.48,0,0,0,.16-.41.86.86,0,0,0-.09-.43.67.67,0,0,0-.24-.26,1,1,0,0,0-.35-.12,2.81,2.81,0,0,0-.43,0,1.32,1.32,0,0,0-.79.22,1,1,0,0,0-.33.72Zm3.94,1.26a.87.87,0,0,1-.27.15,2,2,0,0,1-.35.09L73.3,93l-.41.06a2.66,2.66,0,0,0-.38.1,1.07,1.07,0,0,0-.32.16.7.7,0,0,0-.22.26.75.75,0,0,0-.09.39.8.8,0,0,0,.09.39.59.59,0,0,0,.23.24,1,1,0,0,0,.33.13,2.6,2.6,0,0,0,.4,0,1.56,1.56,0,0,0,.78-.16,1.23,1.23,0,0,0,.41-.41,1.38,1.38,0,0,0,.16-.47,3.28,3.28,0,0,0,0-.39Z" style="fill:#231f20"/><path d="M82.29,93.6a1.31,1.31,0,0,0,.41.49,1.9,1.9,0,0,0,.61.28,2.84,2.84,0,0,0,.72.09,3.5,3.5,0,0,0,.54,0,1.68,1.68,0,0,0,.54-.16,1.14,1.14,0,0,0,.42-.33.84.84,0,0,0,.17-.53.78.78,0,0,0-.23-.57,1.8,1.8,0,0,0-.58-.36,6.5,6.5,0,0,0-.81-.25q-.47-.1-.93-.24a9.15,9.15,0,0,1-.93-.29,3.39,3.39,0,0,1-.82-.45,2.27,2.27,0,0,1-.58-.69,2.08,2.08,0,0,1-.22-1,2.23,2.23,0,0,1,.28-1.15,2.5,2.5,0,0,1,.74-.81,3,3,0,0,1,1-.48,4.56,4.56,0,0,1,1.15-.16,5.43,5.43,0,0,1,1.29.15,3.33,3.33,0,0,1,1.1.49,2.43,2.43,0,0,1,.76.86,2.61,2.61,0,0,1,.28,1.26H85.41a1.57,1.57,0,0,0-.16-.63,1.19,1.19,0,0,0-.37-.4,1.71,1.71,0,0,0-.52-.2,3.24,3.24,0,0,0-.64-.06,1.75,1.75,0,0,0-.46,0,1.13,1.13,0,0,0-.41.16,1,1,0,0,0-.31.3.83.83,0,0,0-.12.46.73.73,0,0,0,.1.41.9.9,0,0,0,.37.29,6.38,6.38,0,0,0,.78.26l1.31.34c.16,0,.38.09.66.17a3.12,3.12,0,0,1,.85.4,2.54,2.54,0,0,1,.72.74,2.05,2.05,0,0,1,.31,1.18,2.63,2.63,0,0,1-.23,1.09,2.29,2.29,0,0,1-.68.87,3.07,3.07,0,0,1-1.11.57,5.17,5.17,0,0,1-1.54.21,5.28,5.28,0,0,1-1.38-.18,3.31,3.31,0,0,1-1.17-.54,2.76,2.76,0,0,1-.81-1,2.8,2.8,0,0,1-.29-1.37h1.82A1.49,1.49,0,0,0,82.29,93.6Z" style="fill:#231f20"/><path d="M88.49,91.27a2.87,2.87,0,0,1,.65-1,2.77,2.77,0,0,1,1-.66,3.75,3.75,0,0,1,2.64,0,2.73,2.73,0,0,1,1,.66,3,3,0,0,1,.65,1,3.82,3.82,0,0,1,.22,1.35A3.77,3.77,0,0,1,94.46,94a3,3,0,0,1-.65,1,2.83,2.83,0,0,1-1,.65,3.9,3.9,0,0,1-2.64,0A2.8,2.8,0,0,1,88.49,94a3.76,3.76,0,0,1-.23-1.34A3.82,3.82,0,0,1,88.49,91.27ZM90,93.35a1.93,1.93,0,0,0,.25.63,1.24,1.24,0,0,0,.46.45,1.61,1.61,0,0,0,1.44,0,1.2,1.2,0,0,0,.47-.45,1.93,1.93,0,0,0,.25-.63,3.84,3.84,0,0,0,0-1.46,1.9,1.9,0,0,0-.25-.64,1.36,1.36,0,0,0-.47-.45,1.4,1.4,0,0,0-1.9.45,1.9,1.9,0,0,0-.25.64,3.84,3.84,0,0,0,0,1.46Z" style="fill:#231f20"/><path d="M100,95.72v-.87h0a1.86,1.86,0,0,1-.84.78,2.44,2.44,0,0,1-1,.24,3,3,0,0,1-1.13-.18,1.64,1.64,0,0,1-.69-.51,2.16,2.16,0,0,1-.35-.8,4.93,4.93,0,0,1-.1-1V89.51h1.7V93a2.15,2.15,0,0,0,.24,1.14.94.94,0,0,0,.85.38,1.19,1.19,0,0,0,1-.41,2.31,2.31,0,0,0,.31-1.37V89.51h1.71v6.21Z" style="fill:#231f20"/><path d="M104.52,89.51v1.15h0a1.92,1.92,0,0,1,.32-.53,2.36,2.36,0,0,1,.47-.42,2.07,2.07,0,0,1,.56-.27,2.19,2.19,0,0,1,.63-.1,1.35,1.35,0,0,1,.37.06V91l-.29,0a1.77,1.77,0,0,0-.32,0,1.82,1.82,0,0,0-.79.15,1.42,1.42,0,0,0-.53.43,1.81,1.81,0,0,0-.28.63,3.81,3.81,0,0,0-.08.78v2.8H102.9V89.51Z" style="fill:#231f20"/><path d="M110.32,90.63a1.21,1.21,0,0,0-.68.18,1.62,1.62,0,0,0-.46.48,2.41,2.41,0,0,0-.24.65,3.39,3.39,0,0,0-.07.7,3.23,3.23,0,0,0,.07.69,2.48,2.48,0,0,0,.23.63,1.38,1.38,0,0,0,.44.46,1.22,1.22,0,0,0,.67.18,1.26,1.26,0,0,0,.94-.34,1.61,1.61,0,0,0,.42-.92h1.64a2.79,2.79,0,0,1-1,1.88,3,3,0,0,1-2,.65,3.51,3.51,0,0,1-1.28-.23,2.87,2.87,0,0,1-1-.66,3,3,0,0,1-.64-1,3.51,3.51,0,0,1-.23-1.28,4.08,4.08,0,0,1,.21-1.33A3,3,0,0,1,108,90.3a2.74,2.74,0,0,1,1-.7,3.34,3.34,0,0,1,1.34-.26,3.72,3.72,0,0,1,1.06.15,2.7,2.7,0,0,1,.92.44,2.28,2.28,0,0,1,.94,1.77h-1.67A1.14,1.14,0,0,0,110.32,90.63Z" style="fill:#231f20"/><path d="M116.07,94.23a1.49,1.49,0,0,0,1.1.37,1.53,1.53,0,0,0,.89-.26,1.08,1.08,0,0,0,.46-.54H120a2.88,2.88,0,0,1-1.11,1.59,3.25,3.25,0,0,1-1.8.48,3.65,3.65,0,0,1-1.32-.23,2.84,2.84,0,0,1-1.62-1.7,3.85,3.85,0,0,1,0-2.62,3,3,0,0,1,.65-1,2.8,2.8,0,0,1,1-.69,3.2,3.2,0,0,1,1.29-.26,3,3,0,0,1,1.38.31,2.76,2.76,0,0,1,1,.82,3.35,3.35,0,0,1,.54,1.18,4.5,4.5,0,0,1,.12,1.38h-4.47A1.69,1.69,0,0,0,116.07,94.23ZM118,91a1.2,1.2,0,0,0-.93-.33,1.33,1.33,0,0,0-.67.14,1.27,1.27,0,0,0-.44.34,1.49,1.49,0,0,0-.23.43,1.68,1.68,0,0,0-.07.41h2.77A2,2,0,0,0,118,91Z" style="fill:#231f20"/><path d="M122.57,94.17a.92.92,0,0,0,.29.33,1.38,1.38,0,0,0,.41.18,2,2,0,0,0,.49.06,1.69,1.69,0,0,0,.38,0,1.4,1.4,0,0,0,.36-.13.78.78,0,0,0,.27-.24.66.66,0,0,0,.11-.38c0-.25-.17-.45-.51-.57a10.14,10.14,0,0,0-1.43-.39,5.9,5.9,0,0,1-.72-.2,2,2,0,0,1-.63-.3,1.44,1.44,0,0,1-.45-.47,1.29,1.29,0,0,1-.16-.68,1.86,1.86,0,0,1,.23-1,1.7,1.7,0,0,1,.62-.6,2.6,2.6,0,0,1,.86-.32,5.36,5.36,0,0,1,1-.09,5.15,5.15,0,0,1,1,.1,2.54,2.54,0,0,1,.85.32,2.12,2.12,0,0,1,.62.61,2,2,0,0,1,.29.95h-1.62a.74.74,0,0,0-.37-.66,1.65,1.65,0,0,0-.79-.18l-.31,0a.94.94,0,0,0-.31.08.66.66,0,0,0-.23.17.45.45,0,0,0-.1.31.47.47,0,0,0,.17.37,1.23,1.23,0,0,0,.44.24,5.92,5.92,0,0,0,.61.16l.71.15c.25.06.49.13.73.21a2.34,2.34,0,0,1,.63.32,1.48,1.48,0,0,1,.44.49,1.45,1.45,0,0,1,.17.72,1.92,1.92,0,0,1-.89,1.7,2.77,2.77,0,0,1-.9.35,5.16,5.16,0,0,1-1,.1,4.71,4.71,0,0,1-1.06-.11,2.76,2.76,0,0,1-.92-.36,2.31,2.31,0,0,1-.66-.66,2.16,2.16,0,0,1-.28-1h1.62A.89.89,0,0,0,122.57,94.17Z" style="fill:#231f20"/><path d="M253.15,222.77l3.58,5.75h0v-5.75h1.76v8.57h-1.88l-3.56-5.73h0v5.73h-1.76v-8.57Z" style="fill:#272727"/><path d="M262.05,222.77v7h4.18v1.58h-6.06v-8.57Z" style="fill:#272727"/><path d="M271,222.77a4.3,4.3,0,0,1,1.54.27,3.29,3.29,0,0,1,1.24.79,3.66,3.66,0,0,1,.82,1.32,5.5,5.5,0,0,1,.29,1.86,6,6,0,0,1-.24,1.73,3.76,3.76,0,0,1-.73,1.37,3.34,3.34,0,0,1-1.21.9,4.08,4.08,0,0,1-1.71.33h-3.69v-8.57Zm-.13,7a2.62,2.62,0,0,0,.79-.13,1.81,1.81,0,0,0,.69-.44,2.25,2.25,0,0,0,.48-.8,3.53,3.53,0,0,0,.18-1.2,5.23,5.23,0,0,0-.13-1.17,2.28,2.28,0,0,0-.41-.89,1.85,1.85,0,0,0-.77-.57,2.86,2.86,0,0,0-1.17-.2h-1.34v5.4Z" style="fill:#272727"/><path d="M278.06,222.77v8.57h-1.88v-8.57Z" style="fill:#272727"/><path d="M287.33,222.77l3.2,8.57h-2l-.64-1.91h-3.21l-.67,1.91h-1.9l3.24-8.57Zm.1,5.26-1.08-3.14h0L285.21,228Z" style="fill:#272727"/><path d="M295.14,222.77a3.53,3.53,0,0,1,1.37.24,2.53,2.53,0,0,1,.91.62,2.27,2.27,0,0,1,.52.87,3.33,3.33,0,0,1,0,2,2.39,2.39,0,0,1-.52.88,2.66,2.66,0,0,1-.91.62,3.74,3.74,0,0,1-1.37.23h-2v3.07h-1.89v-8.57Zm-.52,4a4.23,4.23,0,0,0,.63-.05,1.25,1.25,0,0,0,.52-.19.93.93,0,0,0,.37-.39,1.63,1.63,0,0,0,0-1.32.93.93,0,0,0-.37-.39,1.39,1.39,0,0,0-.52-.18,3.22,3.22,0,0,0-.63,0h-1.46v2.57Z" style="fill:#272727"/><path d="M301.16,222.77v8.57h-1.88v-8.57Z" style="fill:#272727"/><path d="M55.46,226.63v-1.84a2,2,0,0,1,.12-.74,1.88,1.88,0,0,1,.35-.62,1.94,1.94,0,0,1,.55-.43,2,2,0,0,1,.69-.23v.8a1.08,1.08,0,0,0-.63.46,1.54,1.54,0,0,0-.16.75h.79v1.85Zm2.56,0v-1.84a2,2,0,0,1,.11-.74,2.1,2.1,0,0,1,.36-.62A1.9,1.9,0,0,1,59,223a2.16,2.16,0,0,1,.69-.23v.8a1.06,1.06,0,0,0-.62.46,1.54,1.54,0,0,0-.17.75h.79v1.85Z" style="fill:#272727"/><path d="M66.7,225.06a2.11,2.11,0,0,0-.42-.47,1.78,1.78,0,0,0-.57-.32,1.93,1.93,0,0,0-.67-.12,2.27,2.27,0,0,0-1.08.25,2,2,0,0,0-.72.66,2.93,2.93,0,0,0-.4.94,4.4,4.4,0,0,0-.13,1.09,4,4,0,0,0,.13,1,2.74,2.74,0,0,0,.4.92,2,2,0,0,0,.72.66A2.27,2.27,0,0,0,65,230a1.71,1.71,0,0,0,1.35-.53A2.43,2.43,0,0,0,67,228h1.83a4.48,4.48,0,0,1-.37,1.46,3.54,3.54,0,0,1-.8,1.1,3.33,3.33,0,0,1-1.15.69,4,4,0,0,1-1.45.25,4.33,4.33,0,0,1-1.77-.35,3.87,3.87,0,0,1-1.33-.94,4.12,4.12,0,0,1-.82-1.41,5,5,0,0,1-.29-1.75,5.19,5.19,0,0,1,.29-1.78,4.21,4.21,0,0,1,.82-1.43,3.79,3.79,0,0,1,1.33-1,4.33,4.33,0,0,1,1.77-.35,4.52,4.52,0,0,1,1.34.2,3.83,3.83,0,0,1,1.13.6,3.23,3.23,0,0,1,.82,1,3.6,3.6,0,0,1,.41,1.31H66.91A1.55,1.55,0,0,0,66.7,225.06Z" style="fill:#272727"/><path d="M71.53,225.14v1.15h0a1.92,1.92,0,0,1,.32-.53,1.87,1.87,0,0,1,.47-.42,1.93,1.93,0,0,1,.56-.27,1.89,1.89,0,0,1,.63-.1,1.35,1.35,0,0,1,.37.06v1.59l-.29-.05-.32,0a1.9,1.9,0,0,0-.8.16,1.37,1.37,0,0,0-.52.43,1.81,1.81,0,0,0-.28.63,3.22,3.22,0,0,0-.08.78v2.79H69.91v-6.2Z" style="fill:#272727"/><path d="M74.51,227.05a1.91,1.91,0,0,1,.3-1,2,2,0,0,1,.67-.63,2.75,2.75,0,0,1,.92-.35,5,5,0,0,1,1-.1,6.08,6.08,0,0,1,1,.07,3.09,3.09,0,0,1,.88.25,1.8,1.8,0,0,1,.65.54,1.55,1.55,0,0,1,.25.9V230a5.34,5.34,0,0,0,0,.81,1.44,1.44,0,0,0,.16.57H78.64a1.38,1.38,0,0,1-.08-.29,1.55,1.55,0,0,1,0-.31,2.3,2.3,0,0,1-1,.59,4,4,0,0,1-1.13.17,3.14,3.14,0,0,1-.83-.11,1.7,1.7,0,0,1-.67-.34,1.59,1.59,0,0,1-.45-.57,1.92,1.92,0,0,1-.16-.83,1.87,1.87,0,0,1,.18-.87,1.72,1.72,0,0,1,.48-.55,2.4,2.4,0,0,1,.67-.3,7,7,0,0,1,.77-.16c.25,0,.5-.08.75-.1a3.78,3.78,0,0,0,.66-.11,1.09,1.09,0,0,0,.46-.21.45.45,0,0,0,.15-.4.93.93,0,0,0-.09-.44.64.64,0,0,0-.24-.25.92.92,0,0,0-.34-.12,3,3,0,0,0-.43,0,1.24,1.24,0,0,0-.79.22,1,1,0,0,0-.34.72Zm3.93,1.26a.87.87,0,0,1-.27.15l-.34.09-.39.06a2.7,2.7,0,0,0-.41.06,2.34,2.34,0,0,0-.38.09,1.37,1.37,0,0,0-.32.16.82.82,0,0,0-.23.26,1,1,0,0,0-.08.4.86.86,0,0,0,.08.38.7.7,0,0,0,.23.25,1.15,1.15,0,0,0,.34.13,2.56,2.56,0,0,0,.39,0,1.5,1.5,0,0,0,.78-.17,1.05,1.05,0,0,0,.41-.4,1.25,1.25,0,0,0,.16-.47,3.28,3.28,0,0,0,0-.39Z" style="fill:#272727"/><path d="M86.81,231.34l-1.11-4.16h0l-1.06,4.16H82.86l-2-6.2h1.8l1.14,4.21h0l1-4.21h1.65l1.06,4.2h0l1.14-4.2h1.76l-2,6.2Z" style="fill:#272727"/><path d="M93,222.77v8.57H91.28v-8.57Z" style="fill:#272727"/><path d="M96.15,229.85a1.74,1.74,0,0,0,2,.12,1,1,0,0,0,.45-.55h1.5A2.86,2.86,0,0,1,99,231a3.27,3.27,0,0,1-1.8.48,3.45,3.45,0,0,1-1.32-.24,2.65,2.65,0,0,1-1-.66,3.07,3.07,0,0,1-.63-1,3.73,3.73,0,0,1-.22-1.32,3.66,3.66,0,0,1,.23-1.3,3,3,0,0,1,1.65-1.73A3.19,3.19,0,0,1,97.2,225a2.87,2.87,0,0,1,1.38.31,2.75,2.75,0,0,1,1,.82,3.39,3.39,0,0,1,.54,1.17,4.5,4.5,0,0,1,.12,1.38H95.73A1.75,1.75,0,0,0,96.15,229.85Zm1.93-3.26a1.2,1.2,0,0,0-.93-.34,1.52,1.52,0,0,0-.68.14,1.35,1.35,0,0,0-.43.34,1.33,1.33,0,0,0-.23.44,2.45,2.45,0,0,0-.08.41h2.78A2,2,0,0,0,98.08,226.59Z" style="fill:#272727"/><path d="M102.84,225.14v1.15h0a2,2,0,0,1,.33-.53,1.71,1.71,0,0,1,.47-.42,1.93,1.93,0,0,1,.56-.27,1.87,1.87,0,0,1,.62-.1,1.36,1.36,0,0,1,.38.06v1.59l-.29-.05-.33,0a1.88,1.88,0,0,0-.79.16,1.37,1.37,0,0,0-.52.43,1.64,1.64,0,0,0-.28.63,3.21,3.21,0,0,0-.09.78v2.79h-1.7v-6.2Z" style="fill:#272727"/><path d="M107.32,229.8a1.18,1.18,0,0,0,.3.33,1.28,1.28,0,0,0,.41.18,2,2,0,0,0,.49.06,1.61,1.61,0,0,0,.37,0,1.17,1.17,0,0,0,.36-.13.78.78,0,0,0,.27-.24.59.59,0,0,0,.11-.38c0-.26-.17-.45-.51-.58a11.77,11.77,0,0,0-1.42-.38c-.25-.06-.49-.12-.73-.2a2.61,2.61,0,0,1-.63-.3,1.41,1.41,0,0,1-.44-.47,1.36,1.36,0,0,1-.17-.69,1.82,1.82,0,0,1,.24-1,1.7,1.7,0,0,1,.61-.61,2.73,2.73,0,0,1,.87-.31,5.33,5.33,0,0,1,1-.09,4.53,4.53,0,0,1,1,.1,2.54,2.54,0,0,1,.85.32,2,2,0,0,1,.61.61,1.94,1.94,0,0,1,.3.95h-1.62a.74.74,0,0,0-.37-.66,1.69,1.69,0,0,0-.8-.18l-.31,0a1,1,0,0,0-.3.08.59.59,0,0,0-.24.17.5.5,0,0,0-.09.31.47.47,0,0,0,.16.37,1.52,1.52,0,0,0,.44.23,6,6,0,0,0,.62.17l.71.15.72.2a2.33,2.33,0,0,1,.63.32,1.44,1.44,0,0,1,.45.5,1.42,1.42,0,0,1,.17.72,2,2,0,0,1-.25,1,1.93,1.93,0,0,1-.64.66,2.71,2.71,0,0,1-.91.36,5.91,5.91,0,0,1-1,.1,5.19,5.19,0,0,1-1-.11,2.68,2.68,0,0,1-.92-.36,1.95,1.95,0,0,1-.94-1.7h1.62A1,1,0,0,0,107.32,229.8Z" style="fill:#272727"/><path d="M114,222.77v1.84a1.8,1.8,0,0,1-.11.74,1.88,1.88,0,0,1-.35.62,1.94,1.94,0,0,1-.55.43,2,2,0,0,1-.69.23v-.79a1.09,1.09,0,0,0,.63-.47,1.54,1.54,0,0,0,.16-.75h-.79v-1.85Zm2.56,0v1.84a2,2,0,0,1-.11.74,2.1,2.1,0,0,1-.36.62,1.9,1.9,0,0,1-.54.43,2.08,2.08,0,0,1-.69.23v-.79a1.07,1.07,0,0,0,.62-.47,1.54,1.54,0,0,0,.17-.75h-.79v-1.85Z" style="fill:#272727"/><path d="M416.25,231.28a3.2,3.2,0,0,1-1.23.26,4.33,4.33,0,0,1-1.77-.35,3.77,3.77,0,0,1-1.33-.94,4.14,4.14,0,0,1-.83-1.41,5.22,5.22,0,0,1-.29-1.75,5.45,5.45,0,0,1,.29-1.78,4.23,4.23,0,0,1,.83-1.43,3.7,3.7,0,0,1,1.33-1,4.33,4.33,0,0,1,1.77-.35,4.16,4.16,0,0,1,1.27.2,3.41,3.41,0,0,1,1.12.58,3.19,3.19,0,0,1,1.22,2.24h-1.8a1.83,1.83,0,0,0-.65-1.08,1.88,1.88,0,0,0-1.16-.36,2.21,2.21,0,0,0-1.08.25,2,2,0,0,0-.72.66,3,3,0,0,0-.41.94,4.92,4.92,0,0,0-.12,1.09,4.51,4.51,0,0,0,.12,1,2.75,2.75,0,0,0,.41.92,2,2,0,0,0,.72.66A2.21,2.21,0,0,0,415,230a2.06,2.06,0,0,0,1.44-.47,2.1,2.1,0,0,0,.6-1.37h-1.9v-1.41h3.6v4.63h-1.2l-.19-1A3,3,0,0,1,416.25,231.28Z" style="fill:#272727"/><path d="M421.93,229.85a1.5,1.5,0,0,0,1.1.38,1.53,1.53,0,0,0,.89-.26,1.06,1.06,0,0,0,.46-.55h1.5a2.83,2.83,0,0,1-1.11,1.6,3.22,3.22,0,0,1-1.8.48,3.45,3.45,0,0,1-1.32-.24,2.61,2.61,0,0,1-1-.66,2.78,2.78,0,0,1-.63-1,3.73,3.73,0,0,1-.23-1.32A3.66,3.66,0,0,1,420,227a3,3,0,0,1,1.65-1.73A3.19,3.19,0,0,1,423,225a2.87,2.87,0,0,1,1.38.31,2.66,2.66,0,0,1,1,.82,3.39,3.39,0,0,1,.54,1.17,4.21,4.21,0,0,1,.12,1.38h-4.47A1.66,1.66,0,0,0,421.93,229.85Zm1.92-3.26a1.2,1.2,0,0,0-.93-.34,1.48,1.48,0,0,0-.67.14,1.4,1.4,0,0,0-.44.34,1.3,1.3,0,0,0-.22.44,1.73,1.73,0,0,0-.08.41h2.77A1.9,1.9,0,0,0,423.85,226.59Z" style="fill:#272727"/><path d="M427,226.9a2.79,2.79,0,0,1,.65-1,2.73,2.73,0,0,1,1-.66,3.78,3.78,0,0,1,2.65,0,2.69,2.69,0,0,1,1,.66,2.79,2.79,0,0,1,.65,1,4,4,0,0,1,0,2.69,3,3,0,0,1-.65,1,2.79,2.79,0,0,1-1,.65,3.93,3.93,0,0,1-2.65,0,2.84,2.84,0,0,1-1-.65,3,3,0,0,1-.65-1,4,4,0,0,1,0-2.69Zm1.55,2.07a1.89,1.89,0,0,0,.24.64,1.32,1.32,0,0,0,.46.45,1.63,1.63,0,0,0,1.45,0,1.27,1.27,0,0,0,.47-.45,1.89,1.89,0,0,0,.24-.64,3.38,3.38,0,0,0,.08-.72,3.65,3.65,0,0,0-.08-.74,1.76,1.76,0,0,0-.24-.63,1.35,1.35,0,0,0-.47-.45,1.55,1.55,0,0,0-1.45,0,1.41,1.41,0,0,0-.46.45,1.76,1.76,0,0,0-.24.63,3.65,3.65,0,0,0-.08.74A3.38,3.38,0,0,0,428.58,229Z" style="fill:#272727"/><path d="M435.94,225.14v.79h0a1.84,1.84,0,0,1,.79-.73,2.45,2.45,0,0,1,1.05-.23,2.67,2.67,0,0,1,1.27.28,2.47,2.47,0,0,1,.87.73,3.28,3.28,0,0,1,.52,1.06,4.86,4.86,0,0,1,.17,1.27,4.4,4.4,0,0,1-.17,1.2,3.48,3.48,0,0,1-.51,1,2.55,2.55,0,0,1-.86.7,2.46,2.46,0,0,1-1.19.27,2.36,2.36,0,0,1-1.06-.24,2,2,0,0,1-.8-.68h0v2.93h-1.71v-8.37Zm2.22,4.92a1.27,1.27,0,0,0,.45-.44,1.77,1.77,0,0,0,.25-.63,3.59,3.59,0,0,0,0-1.46,2,2,0,0,0-.25-.65,1.55,1.55,0,0,0-.47-.45,1.24,1.24,0,0,0-.69-.18,1.28,1.28,0,0,0-.7.18,1.29,1.29,0,0,0-.45.45,1.77,1.77,0,0,0-.25.63,3.67,3.67,0,0,0-.07.75,3,3,0,0,0,.08.73,1.77,1.77,0,0,0,.25.63,1.3,1.3,0,0,0,.46.44,1.37,1.37,0,0,0,.7.17A1.39,1.39,0,0,0,438.16,230.06Z" style="fill:#272727"/><path d="M443.27,225.14v1.15h0a2.2,2.2,0,0,1,.32-.53,2.06,2.06,0,0,1,.47-.42,2.12,2.12,0,0,1,.57-.27,1.79,1.79,0,0,1,.62-.1,1.29,1.29,0,0,1,.37.06v1.59l-.29-.05-.32,0a1.85,1.85,0,0,0-.79.16,1.4,1.4,0,0,0-.53.43,1.81,1.81,0,0,0-.28.63,3.81,3.81,0,0,0-.08.78v2.79h-1.7v-6.2Z" style="fill:#272727"/><path d="M446.14,226.9a2.92,2.92,0,0,1,.65-1,2.77,2.77,0,0,1,1-.66,3.45,3.45,0,0,1,1.32-.24,3.54,3.54,0,0,1,1.33.24,2.85,2.85,0,0,1,1.66,1.69,4,4,0,0,1,0,2.69,3,3,0,0,1-.65,1,2.88,2.88,0,0,1-1,.65,3.75,3.75,0,0,1-1.33.23,3.65,3.65,0,0,1-1.32-.23,2.88,2.88,0,0,1-1-.65,3.12,3.12,0,0,1-.65-1,4.22,4.22,0,0,1,0-2.69Zm1.55,2.07a1.9,1.9,0,0,0,.25.64,1.24,1.24,0,0,0,.46.45,1.42,1.42,0,0,0,.72.17,1.49,1.49,0,0,0,.73-.17,1.24,1.24,0,0,0,.46-.45,1.9,1.9,0,0,0,.25-.64,3.38,3.38,0,0,0,.07-.72,3.64,3.64,0,0,0-.07-.74,1.77,1.77,0,0,0-.25-.63,1.32,1.32,0,0,0-.46-.45,1.39,1.39,0,0,0-.73-.18,1.32,1.32,0,0,0-1.18.63,1.77,1.77,0,0,0-.25.63,3.64,3.64,0,0,0-.07.74A3.38,3.38,0,0,0,447.69,229Z" style="fill:#272727"/><path d="M456.4,226.25a1.21,1.21,0,0,0-.68.19,1.48,1.48,0,0,0-.45.48,2,2,0,0,0-.25.65,3.49,3.49,0,0,0,0,1.39,2.17,2.17,0,0,0,.24.63,1.38,1.38,0,0,0,.44.46,1.17,1.17,0,0,0,.67.18,1.24,1.24,0,0,0,.94-.35,1.54,1.54,0,0,0,.41-.91h1.65a2.83,2.83,0,0,1-1,1.88,3.13,3.13,0,0,1-2,.65,3.35,3.35,0,0,1-1.28-.24,2.71,2.71,0,0,1-1-.65,3.12,3.12,0,0,1-.64-1,3.55,3.55,0,0,1-.22-1.28,4.18,4.18,0,0,1,.21-1.34,2.92,2.92,0,0,1,.62-1.07,3,3,0,0,1,1-.7,3.35,3.35,0,0,1,1.35-.25,3.77,3.77,0,0,1,1.06.15,2.83,2.83,0,0,1,.91.43,2.32,2.32,0,0,1,.94,1.77h-1.67A1.14,1.14,0,0,0,456.4,226.25Z" style="fill:#272727"/><path d="M462.15,229.85a1.72,1.72,0,0,0,2,.12,1.06,1.06,0,0,0,.46-.55h1.5A2.86,2.86,0,0,1,465,231a3.28,3.28,0,0,1-1.81.48,3.43,3.43,0,0,1-1.31-.24,2.57,2.57,0,0,1-1-.66,3.07,3.07,0,0,1-.63-1,3.73,3.73,0,0,1-.22-1.32,3.45,3.45,0,0,1,.23-1.3,3.08,3.08,0,0,1,.64-1,3.09,3.09,0,0,1,2.29-.94,2.94,2.94,0,0,1,1.39.31,2.63,2.63,0,0,1,1,.82,3.6,3.6,0,0,1,.55,1.17,4.5,4.5,0,0,1,.12,1.38h-4.48A1.7,1.7,0,0,0,462.15,229.85Zm1.93-3.26a1.23,1.23,0,0,0-.93-.34,1.52,1.52,0,0,0-.68.14,1.25,1.25,0,0,0-.43.34,1.17,1.17,0,0,0-.23.44,2.45,2.45,0,0,0-.08.41h2.77A2,2,0,0,0,464.08,226.59Z" style="fill:#272727"/><path d="M468.65,229.8a1.15,1.15,0,0,0,.29.33,1.33,1.33,0,0,0,.42.18,1.91,1.91,0,0,0,.48.06,1.69,1.69,0,0,0,.38,0,1.4,1.4,0,0,0,.36-.13.78.78,0,0,0,.27-.24.66.66,0,0,0,.11-.38c0-.26-.17-.45-.51-.58a11.77,11.77,0,0,0-1.42-.38c-.25-.06-.49-.12-.73-.2a2.61,2.61,0,0,1-.63-.3,1.41,1.41,0,0,1-.44-.47,1.36,1.36,0,0,1-.17-.69,1.92,1.92,0,0,1,.23-1,1.81,1.81,0,0,1,.62-.61,2.73,2.73,0,0,1,.87-.31,5.25,5.25,0,0,1,1-.09,4.53,4.53,0,0,1,1,.1,2.49,2.49,0,0,1,.84.32,1.9,1.9,0,0,1,.62.61,2.05,2.05,0,0,1,.3.95h-1.62a.73.73,0,0,0-.38-.66,1.62,1.62,0,0,0-.79-.18l-.31,0a1.09,1.09,0,0,0-.31.08.55.55,0,0,0-.23.17.5.5,0,0,0-.1.31.48.48,0,0,0,.17.37,1.4,1.4,0,0,0,.44.23,6,6,0,0,0,.62.17l.71.15.72.2a2.33,2.33,0,0,1,.63.32,1.54,1.54,0,0,1,.45.5,1.42,1.42,0,0,1,.16.72,1.85,1.85,0,0,1-.88,1.69,2.71,2.71,0,0,1-.91.36,6,6,0,0,1-1,.1,5.19,5.19,0,0,1-1.05-.11,2.68,2.68,0,0,1-.92-.36,1.95,1.95,0,0,1-.94-1.7h1.62A.88.88,0,0,0,468.65,229.8Z" style="fill:#272727"/><path d="M475.09,229.8a1.18,1.18,0,0,0,.3.33,1.28,1.28,0,0,0,.41.18,2,2,0,0,0,.49.06,1.76,1.76,0,0,0,.38,0,1.21,1.21,0,0,0,.35-.13.92.92,0,0,0,.28-.24.65.65,0,0,0,.1-.38c0-.26-.17-.45-.51-.58a11.77,11.77,0,0,0-1.42-.38c-.25-.06-.49-.12-.72-.2a2.52,2.52,0,0,1-.64-.3,1.41,1.41,0,0,1-.44-.47,1.36,1.36,0,0,1-.17-.69,1.82,1.82,0,0,1,.24-1,1.7,1.7,0,0,1,.61-.61,2.73,2.73,0,0,1,.87-.31,5.33,5.33,0,0,1,1-.09,4.53,4.53,0,0,1,1,.1,2.54,2.54,0,0,1,.85.32,2,2,0,0,1,.61.61,1.94,1.94,0,0,1,.3.95h-1.62a.72.72,0,0,0-.37-.66,1.69,1.69,0,0,0-.8-.18l-.31,0a1,1,0,0,0-.3.08.59.59,0,0,0-.24.17.5.5,0,0,0-.09.31.45.45,0,0,0,.17.37,1.34,1.34,0,0,0,.43.23,6,6,0,0,0,.62.17l.71.15.72.2a2.56,2.56,0,0,1,.64.32,1.52,1.52,0,0,1,.44.5,1.42,1.42,0,0,1,.17.72,2,2,0,0,1-.25,1,1.93,1.93,0,0,1-.64.66,2.63,2.63,0,0,1-.91.36,5.91,5.91,0,0,1-1,.1,5.27,5.27,0,0,1-1-.11,2.76,2.76,0,0,1-.92-.36,2.08,2.08,0,0,1-.66-.66,2.19,2.19,0,0,1-.28-1H475A1,1,0,0,0,475.09,229.8Z" style="fill:#272727"/><path d="M480.15,224.18v-1.41h1.7v1.41Zm1.7,1v6.2h-1.7v-6.2Z" style="fill:#272727"/><path d="M484.82,225.14V226h0a2,2,0,0,1,.84-.78,2.39,2.39,0,0,1,1.06-.25,2.75,2.75,0,0,1,1.12.19,1.58,1.58,0,0,1,.69.51,2,2,0,0,1,.36.81,5.51,5.51,0,0,1,.1,1.05v3.81h-1.71v-3.5a2.31,2.31,0,0,0-.23-1.15,1,1,0,0,0-.86-.38,1.15,1.15,0,0,0-1,.42,2.27,2.27,0,0,0-.32,1.36v3.25h-1.7v-6.2Z" style="fill:#272727"/><path d="M496.18,231.8a2.13,2.13,0,0,1-.44.89,2.61,2.61,0,0,1-1,.7,4.11,4.11,0,0,1-1.71.29,4.36,4.36,0,0,1-.93-.11,2.85,2.85,0,0,1-.86-.36,2.11,2.11,0,0,1-.65-.61,1.82,1.82,0,0,1-.29-.91H492a1,1,0,0,0,.47.67,1.71,1.71,0,0,0,.8.18,1.23,1.23,0,0,0,1-.43,1.68,1.68,0,0,0,.32-1.09v-.82h0a1.67,1.67,0,0,1-.78.73,2.5,2.5,0,0,1-1.08.23,2.79,2.79,0,0,1-1.2-.24,2.35,2.35,0,0,1-.82-.67,2.81,2.81,0,0,1-.48-1,4.72,4.72,0,0,1-.15-1.21,3.8,3.8,0,0,1,.18-1.16,2.78,2.78,0,0,1,.51-1,2.51,2.51,0,0,1,.83-.68,2.47,2.47,0,0,1,1.15-.25,2.44,2.44,0,0,1,1.07.23,1.79,1.79,0,0,1,.77.77h0v-.83h1.62V231A4.74,4.74,0,0,1,496.18,231.8Zm-2.34-2.07a1.22,1.22,0,0,0,.46-.38,1.66,1.66,0,0,0,.27-.55,2.2,2.2,0,0,0,.09-.64,4.18,4.18,0,0,0-.07-.72,1.94,1.94,0,0,0-.24-.61,1.3,1.3,0,0,0-.45-.42,1.41,1.41,0,0,0-.69-.16,1.21,1.21,0,0,0-.62.15,1.34,1.34,0,0,0-.43.39,1.7,1.7,0,0,0-.26.56,2.93,2.93,0,0,0-.07.67,3.68,3.68,0,0,0,.06.66,1.87,1.87,0,0,0,.23.6,1.26,1.26,0,0,0,.43.43,1.2,1.2,0,0,0,.66.17A1.28,1.28,0,0,0,493.84,229.73Z" style="fill:#272727"/><path d="M505.43,222.77l3.21,8.57h-2l-.65-1.91h-3.2l-.67,1.91h-1.9l3.24-8.57Zm.11,5.26-1.08-3.14h0L503.32,228Z" style="fill:#272727"/><path d="M513.25,222.77a3.45,3.45,0,0,1,1.36.24,2.49,2.49,0,0,1,.92.62,2.27,2.27,0,0,1,.52.87,3.33,3.33,0,0,1,0,2,2.39,2.39,0,0,1-.52.88,2.61,2.61,0,0,1-.92.62,3.65,3.65,0,0,1-1.36.23h-2v3.07h-1.89v-8.57Zm-.52,4a4.1,4.1,0,0,0,.62-.05,1.24,1.24,0,0,0,.53-.19,1,1,0,0,0,.37-.39,1.63,1.63,0,0,0,0-1.32,1,1,0,0,0-.37-.39,1.38,1.38,0,0,0-.53-.18,3.12,3.12,0,0,0-.62,0h-1.46v2.57Z" style="fill:#272727"/><path d="M519.27,222.77v8.57h-1.88v-8.57Z" style="fill:#272727"/><path d="M132.42,362.12l3.57,5.75h0v-5.75h1.76v8.57h-1.89L132.33,365h0v5.73h-1.77v-8.57Z" style="fill:#fff"/><path d="M141.32,362.12v3.29h3.47v-3.29h1.88v8.57h-1.88V367h-3.47v3.69h-1.89v-8.57Z" style="fill:#fff"/><path d="M152,362.12a4.35,4.35,0,0,1,1.55.27,3.33,3.33,0,0,1,1.23.79,3.66,3.66,0,0,1,.82,1.32,5.5,5.5,0,0,1,.29,1.86,6,6,0,0,1-.24,1.73,3.9,3.9,0,0,1-.72,1.37,3.47,3.47,0,0,1-1.22.9,4.08,4.08,0,0,1-1.71.33h-3.69v-8.57Zm-.13,7a2.62,2.62,0,0,0,.79-.13,1.81,1.81,0,0,0,.69-.44,2.25,2.25,0,0,0,.48-.8,3.53,3.53,0,0,0,.18-1.2,4.71,4.71,0,0,0-.13-1.17,2.22,2.22,0,0,0-.41-.89,1.79,1.79,0,0,0-.77-.57,2.84,2.84,0,0,0-1.16-.2h-1.35v5.4Z" style="fill:#fff"/><path d="M161.08,362.12a3.5,3.5,0,0,1,1.37.24,2.45,2.45,0,0,1,.92.62,2.4,2.4,0,0,1,.52.87,3.51,3.51,0,0,1,.16,1,3.56,3.56,0,0,1-.16,1,2.53,2.53,0,0,1-.52.88,2.71,2.71,0,0,1-.92.62,3.7,3.7,0,0,1-1.37.23h-2v3.07h-1.88v-8.57Zm-.51,4a4.21,4.21,0,0,0,.62-.05,1.45,1.45,0,0,0,.53-.19,1.07,1.07,0,0,0,.37-.39,1.74,1.74,0,0,0,0-1.32,1.07,1.07,0,0,0-.37-.39,1.44,1.44,0,0,0-.53-.18,3.18,3.18,0,0,0-.62-.05H159.1v2.57Z" style="fill:#fff"/><path d="M166.8,362.12v8.57h-1.71v-8.57Z" style="fill:#fff"/><path d="M172.34,370.69v-.86h0a1.86,1.86,0,0,1-.84.78,2.44,2.44,0,0,1-1.05.24,3,3,0,0,1-1.13-.18,1.64,1.64,0,0,1-.69-.51,2.14,2.14,0,0,1-.35-.81,4.8,4.8,0,0,1-.1-1.05v-3.81h1.7V368a2.19,2.19,0,0,0,.24,1.15.94.94,0,0,0,.85.38,1.17,1.17,0,0,0,1-.42,2.27,2.27,0,0,0,.31-1.36v-3.25H174v6.2Z" style="fill:#fff"/><path d="M176.69,369.15a1,1,0,0,0,.29.32,1.15,1.15,0,0,0,.42.19,1.91,1.91,0,0,0,.48.06,1.69,1.69,0,0,0,.38,0,1.13,1.13,0,0,0,.36-.14.67.67,0,0,0,.27-.23.66.66,0,0,0,.11-.38c0-.26-.17-.45-.51-.58a10.15,10.15,0,0,0-1.42-.38c-.25-.06-.49-.12-.73-.2a2.63,2.63,0,0,1-.63-.3,1.41,1.41,0,0,1-.44-.47,1.26,1.26,0,0,1-.17-.69,1.89,1.89,0,0,1,.23-1,1.73,1.73,0,0,1,.62-.61,2.67,2.67,0,0,1,.86-.31,5.44,5.44,0,0,1,1-.09,4.53,4.53,0,0,1,1,.1,2.57,2.57,0,0,1,.84.32,1.81,1.81,0,0,1,.62.61,2,2,0,0,1,.29.95h-1.62a.73.73,0,0,0-.37-.67,1.74,1.74,0,0,0-.79-.17l-.31,0a1,1,0,0,0-.31.08.55.55,0,0,0-.23.17.45.45,0,0,0-.1.31.48.48,0,0,0,.17.37,1.4,1.4,0,0,0,.44.23,4,4,0,0,0,.62.16l.7.16c.25.06.49.12.73.2a2.33,2.33,0,0,1,.63.32,1.59,1.59,0,0,1,.44.49,1.39,1.39,0,0,1,.17.73,1.83,1.83,0,0,1-.89,1.69,2.58,2.58,0,0,1-.9.36,6,6,0,0,1-1,.1,5.37,5.37,0,0,1-1.06-.11,2.63,2.63,0,0,1-.91-.36,2,2,0,0,1-1-1.7h1.62A.89.89,0,0,0,176.69,369.15Z" style="fill:#fff"/><path d="M191.24,362.12v1.59H187.1v2h3.59v1.46H187.1v3.54h-1.88v-8.57Z" style="fill:#fff"/><path d="M194,369.2a1.74,1.74,0,0,0,2,.12,1.07,1.07,0,0,0,.45-.55h1.5a2.86,2.86,0,0,1-1.1,1.6,3.27,3.27,0,0,1-1.8.48,3.45,3.45,0,0,1-1.32-.24,2.65,2.65,0,0,1-1-.66,3.07,3.07,0,0,1-.63-1,3.73,3.73,0,0,1-.22-1.32,3.66,3.66,0,0,1,.23-1.3,3,3,0,0,1,.65-1,3.08,3.08,0,0,1,1-.69,3.19,3.19,0,0,1,1.29-.25,2.87,2.87,0,0,1,1.38.31,2.63,2.63,0,0,1,1,.82,3.16,3.16,0,0,1,.55,1.17A4.5,4.5,0,0,1,198,368h-4.48A1.75,1.75,0,0,0,194,369.2Zm1.93-3.26a1.2,1.2,0,0,0-.93-.34,1.52,1.52,0,0,0-.68.14,1.35,1.35,0,0,0-.43.34,1.33,1.33,0,0,0-.23.44,2.35,2.35,0,0,0-.08.4h2.78A2,2,0,0,0,195.9,365.94Z" style="fill:#fff"/><path d="M199,366.4a1.91,1.91,0,0,1,.3-1,2.05,2.05,0,0,1,.67-.64,3,3,0,0,1,.92-.34,5,5,0,0,1,1-.1,6.16,6.16,0,0,1,1,.07,3.09,3.09,0,0,1,.88.25,1.68,1.68,0,0,1,.64.54,1.48,1.48,0,0,1,.26.9v3.23a7.09,7.09,0,0,0,0,.81,1.61,1.61,0,0,0,.17.57h-1.73a2.46,2.46,0,0,1-.07-.29,2.87,2.87,0,0,1-.05-.31,2.18,2.18,0,0,1-1,.59,3.85,3.85,0,0,1-1.12.17,3.09,3.09,0,0,1-.83-.11,1.7,1.7,0,0,1-.67-.34,1.4,1.4,0,0,1-.45-.57,1.92,1.92,0,0,1-.17-.83,1.87,1.87,0,0,1,.19-.87,1.51,1.51,0,0,1,.48-.55,2.4,2.4,0,0,1,.67-.3,6.85,6.85,0,0,1,.76-.16c.26,0,.51-.08.76-.1a3.78,3.78,0,0,0,.66-.11,1.31,1.31,0,0,0,.46-.21.45.45,0,0,0,.15-.4.93.93,0,0,0-.09-.44.64.64,0,0,0-.24-.25.91.91,0,0,0-.35-.12,2.77,2.77,0,0,0-.42,0,1.24,1.24,0,0,0-.79.22.92.92,0,0,0-.34.72Zm3.93,1.26a.87.87,0,0,1-.27.15l-.35.09-.39.06a2.76,2.76,0,0,0-.4.06,2.34,2.34,0,0,0-.38.09,1.45,1.45,0,0,0-.33.16.92.92,0,0,0-.22.26,1,1,0,0,0-.08.4.86.86,0,0,0,.08.38.62.62,0,0,0,.23.25.92.92,0,0,0,.34.12,1.67,1.67,0,0,0,.39,0,1.5,1.5,0,0,0,.78-.17,1.05,1.05,0,0,0,.41-.4,1.25,1.25,0,0,0,.16-.47,3.28,3.28,0,0,0,0-.39Z" style="fill:#fff"/><path d="M209.33,364.49v1.14h-1.24v3.07a.57.57,0,0,0,.72.72h.27l.25,0v1.32a3.22,3.22,0,0,1-.48.05h-.51a5.78,5.78,0,0,1-.75-.05,2,2,0,0,1-.63-.21,1.08,1.08,0,0,1-.42-.45,1.49,1.49,0,0,1-.16-.75v-3.66h-1v-1.14h1v-1.86h1.71v1.86Z" style="fill:#fff"/><path d="M214.35,370.69v-.86h0a1.86,1.86,0,0,1-.84.78,2.44,2.44,0,0,1-1.05.24,3,3,0,0,1-1.12-.18,1.53,1.53,0,0,1-.69-.51,2,2,0,0,1-.36-.81,4.8,4.8,0,0,1-.1-1.05v-3.81h1.7V368a2.19,2.19,0,0,0,.24,1.15,1,1,0,0,0,.86.38,1.15,1.15,0,0,0,1-.42,2.27,2.27,0,0,0,.32-1.36v-3.25H216v6.2Z" style="fill:#fff"/><path d="M218.89,364.49v1.15h0a2.2,2.2,0,0,1,.32-.53,2.06,2.06,0,0,1,.47-.42,2.12,2.12,0,0,1,.57-.27,1.83,1.83,0,0,1,.62-.1,1.29,1.29,0,0,1,.37.06V366l-.29,0-.32,0a1.85,1.85,0,0,0-.79.16,1.3,1.3,0,0,0-.52.43,1.66,1.66,0,0,0-.29.63,3.81,3.81,0,0,0-.08.78v2.79h-1.7v-6.2Z" style="fill:#fff"/><path d="M223.54,369.2a1.54,1.54,0,0,0,1.11.38,1.5,1.5,0,0,0,.88-.26,1.1,1.1,0,0,0,.46-.55h1.5a2.86,2.86,0,0,1-1.1,1.6,3.27,3.27,0,0,1-1.8.48,3.45,3.45,0,0,1-1.32-.24,2.57,2.57,0,0,1-1-.66,3.07,3.07,0,0,1-.63-1,3.73,3.73,0,0,1-.22-1.32,3.45,3.45,0,0,1,.23-1.3,3,3,0,0,1,.64-1,3.13,3.13,0,0,1,2.3-.94,2.92,2.92,0,0,1,1.38.31,2.63,2.63,0,0,1,1,.82,3.32,3.32,0,0,1,.55,1.17,4.5,4.5,0,0,1,.12,1.38h-4.48A1.75,1.75,0,0,0,223.54,369.2Zm1.93-3.26a1.23,1.23,0,0,0-.93-.34,1.52,1.52,0,0,0-.68.14,1.35,1.35,0,0,0-.43.34,1.17,1.17,0,0,0-.23.44,2.35,2.35,0,0,0-.08.4h2.77A2,2,0,0,0,225.47,365.94Z" style="fill:#fff"/><path d="M230,369.15a1,1,0,0,0,.29.32,1.15,1.15,0,0,0,.42.19,1.91,1.91,0,0,0,.48.06,1.69,1.69,0,0,0,.38,0,1.13,1.13,0,0,0,.36-.14.67.67,0,0,0,.27-.23.66.66,0,0,0,.11-.38c0-.26-.17-.45-.51-.58a10.15,10.15,0,0,0-1.42-.38c-.25-.06-.49-.12-.73-.2a3.05,3.05,0,0,1-.63-.3,1.41,1.41,0,0,1-.44-.47,1.36,1.36,0,0,1-.17-.69,1.89,1.89,0,0,1,.23-1,1.81,1.81,0,0,1,.62-.61,2.73,2.73,0,0,1,.87-.31,5.25,5.25,0,0,1,1-.09,4.53,4.53,0,0,1,1,.1,2.57,2.57,0,0,1,.84.32,1.81,1.81,0,0,1,.62.61,2.05,2.05,0,0,1,.3.95h-1.62a.76.76,0,0,0-.38-.67,1.74,1.74,0,0,0-.79-.17l-.31,0a1.09,1.09,0,0,0-.31.08.55.55,0,0,0-.23.17.45.45,0,0,0-.1.31.48.48,0,0,0,.17.37,1.4,1.4,0,0,0,.44.23,4,4,0,0,0,.62.16l.71.16c.24.06.49.12.72.2a2.33,2.33,0,0,1,.63.32,1.62,1.62,0,0,1,.45.49,1.49,1.49,0,0,1,.16.73,2,2,0,0,1-.24,1,2.12,2.12,0,0,1-.64.66,2.71,2.71,0,0,1-.91.36,6,6,0,0,1-1,.1,5.19,5.19,0,0,1-1.05-.11,2.68,2.68,0,0,1-.92-.36,2,2,0,0,1-.94-1.7h1.62A.88.88,0,0,0,230,369.15Z" style="fill:#fff"/><path d="M142.87,385a3.45,3.45,0,0,1-1.32.25,3.49,3.49,0,0,1-1.08-.17,2.38,2.38,0,0,1-.88-.5,2.35,2.35,0,0,1-.59-.8,2.53,2.53,0,0,1-.22-1.09,2,2,0,0,1,.16-.83,2.46,2.46,0,0,1,.42-.69,3.59,3.59,0,0,1,.62-.54,5.2,5.2,0,0,1,.72-.42,5.28,5.28,0,0,1-.58-.84,2,2,0,0,1-.23-1,1.77,1.77,0,0,1,.18-.8,1.88,1.88,0,0,1,.5-.62,2.34,2.34,0,0,1,.71-.39,2.39,2.39,0,0,1,.84-.14,3,3,0,0,1,.91.13,2.23,2.23,0,0,1,.75.39,1.85,1.85,0,0,1,.5.64,1.94,1.94,0,0,1,.19.89,1.9,1.9,0,0,1-.44,1.27,3.64,3.64,0,0,1-1.09.87l1.11,1.35a2.18,2.18,0,0,0,.2-.5,3,3,0,0,0,.11-.52h1.48a4.26,4.26,0,0,1-.27,1.12,3.47,3.47,0,0,1-.56,1l1.74,2h-2.09l-.69-.85A3.69,3.69,0,0,1,142.87,385Zm-1.71-3.46a2,2,0,0,0-.39.31,1.56,1.56,0,0,0-.27.4,1.06,1.06,0,0,0-.1.48,1,1,0,0,0,.1.44,1.22,1.22,0,0,0,.27.36,1.58,1.58,0,0,0,.39.24,1.25,1.25,0,0,0,.46.09,1.49,1.49,0,0,0,.8-.21,3,3,0,0,0,.64-.55l-1.46-1.79A3.68,3.68,0,0,0,141.16,381.54Zm1.59-3.73a.75.75,0,0,0-.55-.24.76.76,0,0,0-.54.21.71.71,0,0,0-.23.54,1.15,1.15,0,0,0,.22.7l.45.59a3.19,3.19,0,0,0,.62-.49,1,1,0,0,0,.26-.74A.81.81,0,0,0,142.75,377.81Z" style="fill:#fff"/><path d="M152.66,376.52v8.57h-1.88v-8.57Z" style="fill:#fff"/><path d="M155.76,378.89v.86h0a1.86,1.86,0,0,1,.84-.78,2.32,2.32,0,0,1,1.05-.25,2.75,2.75,0,0,1,1.12.19,1.53,1.53,0,0,1,.69.51,2,2,0,0,1,.36.81,4.8,4.8,0,0,1,.1,1v3.81h-1.7v-3.5a2.19,2.19,0,0,0-.24-1.15,1,1,0,0,0-.86-.38,1.15,1.15,0,0,0-1,.42,2.27,2.27,0,0,0-.32,1.36v3.25h-1.7v-6.2Z" style="fill:#fff"/><path d="M165.66,384.3a1.74,1.74,0,0,1-.79.73,2.72,2.72,0,0,1-1.09.22,2.65,2.65,0,0,1-1.23-.27,2.57,2.57,0,0,1-.87-.73,3.21,3.21,0,0,1-.51-1.07,4.28,4.28,0,0,1-.18-1.24,4.07,4.07,0,0,1,.18-1.21,3,3,0,0,1,.51-1,2.71,2.71,0,0,1,.86-.71,2.66,2.66,0,0,1,2.25,0,1.89,1.89,0,0,1,.79.69h0v-3.12h1.71v8.57h-1.63v-.79Zm-.07-3.07a1.8,1.8,0,0,0-.25-.62,1.27,1.27,0,0,0-.45-.44,1.31,1.31,0,0,0-.69-.17,1.41,1.41,0,0,0-.71.17,1.24,1.24,0,0,0-.46.45,2,2,0,0,0-.26.63,3.48,3.48,0,0,0-.07.73,2.94,2.94,0,0,0,.08.72,2.23,2.23,0,0,0,.27.65,1.55,1.55,0,0,0,.47.45,1.23,1.23,0,0,0,.68.18,1.37,1.37,0,0,0,.7-.17,1.21,1.21,0,0,0,.45-.45,2.12,2.12,0,0,0,.24-.64,4,4,0,0,0,0-1.49Z" style="fill:#fff"/><path d="M170.41,383.6a1.54,1.54,0,0,0,1.11.38,1.5,1.5,0,0,0,.88-.26,1,1,0,0,0,.46-.55h1.5a2.86,2.86,0,0,1-1.1,1.6,3.27,3.27,0,0,1-1.8.48,3.45,3.45,0,0,1-1.32-.24,2.57,2.57,0,0,1-1-.66,3.07,3.07,0,0,1-.63-1,3.73,3.73,0,0,1-.22-1.32,3.45,3.45,0,0,1,.23-1.3,3.06,3.06,0,0,1,2.94-2,2.92,2.92,0,0,1,1.38.31,2.63,2.63,0,0,1,1,.82,3.16,3.16,0,0,1,.55,1.17,4.5,4.5,0,0,1,.12,1.38H170A1.75,1.75,0,0,0,170.41,383.6Zm1.93-3.26a1.22,1.22,0,0,0-.93-.34,1.52,1.52,0,0,0-.68.14,1.35,1.35,0,0,0-.43.34,1.17,1.17,0,0,0-.23.44,2.35,2.35,0,0,0-.08.4h2.78A2.08,2.08,0,0,0,172.34,380.34Z" style="fill:#fff"/><path d="M175,378.89H177l1.1,1.62,1.08-1.62H181l-2,2.9,2.29,3.3h-1.94l-1.3-1.95-1.29,1.95h-1.91l2.23-3.26Z" style="fill:#fff"/><path d="M183.74,383.6a1.74,1.74,0,0,0,2,.12,1.07,1.07,0,0,0,.45-.55h1.5a2.86,2.86,0,0,1-1.1,1.6,3.27,3.27,0,0,1-1.8.48,3.45,3.45,0,0,1-1.32-.24,2.65,2.65,0,0,1-1-.66,3.07,3.07,0,0,1-.63-1,3.73,3.73,0,0,1-.22-1.32,3.66,3.66,0,0,1,.23-1.3,3,3,0,0,1,.65-1,3.08,3.08,0,0,1,1-.69,3.19,3.19,0,0,1,1.29-.25,2.87,2.87,0,0,1,1.38.31,2.63,2.63,0,0,1,1,.82,3.16,3.16,0,0,1,.55,1.17,4.5,4.5,0,0,1,.12,1.38h-4.48A1.75,1.75,0,0,0,183.74,383.6Zm1.93-3.26a1.2,1.2,0,0,0-.93-.34,1.52,1.52,0,0,0-.68.14,1.35,1.35,0,0,0-.43.34,1.33,1.33,0,0,0-.23.44,2.35,2.35,0,0,0-.08.4h2.78A2,2,0,0,0,185.67,380.34Z" style="fill:#fff"/><path d="M193.21,384.3a1.76,1.76,0,0,1-.78.73,2.77,2.77,0,0,1-1.1.22,2.68,2.68,0,0,1-1.23-.27,2.57,2.57,0,0,1-.87-.73,3.42,3.42,0,0,1-.51-1.07,4.28,4.28,0,0,1-.18-1.24,4.07,4.07,0,0,1,.18-1.21,3.2,3.2,0,0,1,.51-1,2.71,2.71,0,0,1,.86-.71,2.59,2.59,0,0,1,1.2-.27,2.51,2.51,0,0,1,1.05.23,1.89,1.89,0,0,1,.79.69h0v-3.12h1.71v8.57h-1.62v-.79Zm-.07-3.07a1.8,1.8,0,0,0-.25-.62,1.27,1.27,0,0,0-.45-.44,1.31,1.31,0,0,0-.69-.17,1.41,1.41,0,0,0-.71.17,1.24,1.24,0,0,0-.46.45,1.77,1.77,0,0,0-.25.63,2.92,2.92,0,0,0-.08.73,3.53,3.53,0,0,0,.08.72,2.23,2.23,0,0,0,.27.65,1.55,1.55,0,0,0,.47.45,1.23,1.23,0,0,0,.68.18,1.37,1.37,0,0,0,.7-.17,1.21,1.21,0,0,0,.45-.45,2.12,2.12,0,0,0,.24-.64,4,4,0,0,0,0-1.49Z" style="fill:#fff"/><path d="M203.35,376.52a4.3,4.3,0,0,1,1.54.27,3.29,3.29,0,0,1,1.24.79,3.66,3.66,0,0,1,.82,1.32,5.5,5.5,0,0,1,.29,1.86,6,6,0,0,1-.24,1.73,3.76,3.76,0,0,1-.73,1.37,3.34,3.34,0,0,1-1.21.9,4.08,4.08,0,0,1-1.71.33h-3.69v-8.57Zm-.13,7a2.62,2.62,0,0,0,.79-.13,1.81,1.81,0,0,0,.69-.44,2.25,2.25,0,0,0,.48-.8,3.53,3.53,0,0,0,.18-1.2,5.23,5.23,0,0,0-.13-1.17,2.22,2.22,0,0,0-.41-.89,1.85,1.85,0,0,0-.77-.57,2.86,2.86,0,0,0-1.17-.2h-1.34v5.4Z" style="fill:#fff"/><path d="M208.3,380.8a1.91,1.91,0,0,1,.3-1,2.05,2.05,0,0,1,.67-.64,3,3,0,0,1,.92-.34,5,5,0,0,1,1-.1,6.16,6.16,0,0,1,.95.07,3.09,3.09,0,0,1,.88.25,1.68,1.68,0,0,1,.64.54,1.48,1.48,0,0,1,.26.9v3.23a7.09,7.09,0,0,0,0,.81,1.61,1.61,0,0,0,.17.57h-1.73a2.46,2.46,0,0,1-.07-.29,2.87,2.87,0,0,1,0-.31,2.18,2.18,0,0,1-1,.59,3.85,3.85,0,0,1-1.12.17,3.09,3.09,0,0,1-.83-.11,1.7,1.7,0,0,1-.67-.34,1.4,1.4,0,0,1-.45-.57,1.92,1.92,0,0,1-.17-.83,1.87,1.87,0,0,1,.19-.87,1.51,1.51,0,0,1,.48-.55,2.4,2.4,0,0,1,.67-.3,6.85,6.85,0,0,1,.76-.16c.26,0,.51-.08.76-.1a3.78,3.78,0,0,0,.66-.11,1.31,1.31,0,0,0,.46-.21.45.45,0,0,0,.15-.4.93.93,0,0,0-.09-.44.64.64,0,0,0-.24-.25.91.91,0,0,0-.35-.12,2.77,2.77,0,0,0-.42,0,1.24,1.24,0,0,0-.79.22.92.92,0,0,0-.34.72Zm3.93,1.26a.87.87,0,0,1-.27.15l-.35.09-.39.06a2.76,2.76,0,0,0-.4.06,2.34,2.34,0,0,0-.38.09,1.45,1.45,0,0,0-.33.16.92.92,0,0,0-.22.26,1,1,0,0,0-.08.4.86.86,0,0,0,.08.38.62.62,0,0,0,.23.25.92.92,0,0,0,.34.12,1.67,1.67,0,0,0,.39,0,1.5,1.5,0,0,0,.78-.17,1.05,1.05,0,0,0,.41-.4,1.25,1.25,0,0,0,.16-.47,3.28,3.28,0,0,0,0-.39Z" style="fill:#fff"/><path d="M218.66,378.89V380h-1.24v3.07a.83.83,0,0,0,.14.58.89.89,0,0,0,.58.14h.27l.25,0v1.32a3.22,3.22,0,0,1-.48.05h-.51a5.78,5.78,0,0,1-.75,0,2,2,0,0,1-.63-.21,1.08,1.08,0,0,1-.42-.45,1.49,1.49,0,0,1-.16-.75V380h-1v-1.14h1V377h1.71v1.86Z" style="fill:#fff"/><path d="M219.41,380.8a1.91,1.91,0,0,1,.3-1,2.05,2.05,0,0,1,.67-.64,3,3,0,0,1,.92-.34,5,5,0,0,1,1-.1,6.08,6.08,0,0,1,1,.07,3.09,3.09,0,0,1,.88.25,1.8,1.8,0,0,1,.65.54,1.55,1.55,0,0,1,.25.9v3.23a5.34,5.34,0,0,0,0,.81,1.44,1.44,0,0,0,.16.57h-1.72a1.38,1.38,0,0,1-.08-.29,1.55,1.55,0,0,1,0-.31,2.3,2.3,0,0,1-1,.59,4,4,0,0,1-1.13.17,3.14,3.14,0,0,1-.83-.11,1.7,1.7,0,0,1-.67-.34,1.59,1.59,0,0,1-.45-.57,1.92,1.92,0,0,1-.16-.83,1.87,1.87,0,0,1,.18-.87,1.61,1.61,0,0,1,.48-.55,2.4,2.4,0,0,1,.67-.3,7,7,0,0,1,.77-.16c.25,0,.5-.08.75-.1a3.78,3.78,0,0,0,.66-.11,1.23,1.23,0,0,0,.46-.21.45.45,0,0,0,.15-.4.93.93,0,0,0-.09-.44A.64.64,0,0,0,223,380a.92.92,0,0,0-.34-.12,3,3,0,0,0-.43,0,1.24,1.24,0,0,0-.79.22,1,1,0,0,0-.34.72Zm3.93,1.26a.87.87,0,0,1-.27.15l-.35.09-.38.06a2.7,2.7,0,0,0-.41.06,2.34,2.34,0,0,0-.38.09,1.68,1.68,0,0,0-.33.16.92.92,0,0,0-.22.26,1,1,0,0,0-.08.4.86.86,0,0,0,.08.38.7.7,0,0,0,.23.25.92.92,0,0,0,.34.12,1.72,1.72,0,0,0,.39,0,1.5,1.5,0,0,0,.78-.17,1.05,1.05,0,0,0,.41-.4,1.25,1.25,0,0,0,.16-.47,3.28,3.28,0,0,0,0-.39Z" style="fill:#fff"/><path d="M431,367.7v1.59h-4.53v1.83h4.16v1.47h-4.16v2.1h4.62v1.58h-6.5V367.7Z" style="fill:#fff"/><path d="M434,367.7v8.57h-1.7V367.7Z" style="fill:#fff"/><path d="M437.13,374.78a1.5,1.5,0,0,0,1.1.38,1.55,1.55,0,0,0,.89-.26,1,1,0,0,0,.45-.55h1.5A2.81,2.81,0,0,1,440,376a3.27,3.27,0,0,1-1.8.48,3.45,3.45,0,0,1-1.32-.24,2.73,2.73,0,0,1-1-.66,3.07,3.07,0,0,1-.63-1,4,4,0,0,1-.22-1.32,3.66,3.66,0,0,1,.23-1.3,3,3,0,0,1,.65-1,3.08,3.08,0,0,1,1-.69,3.19,3.19,0,0,1,1.29-.25,2.87,2.87,0,0,1,1.38.31,2.66,2.66,0,0,1,1,.82,3.31,3.31,0,0,1,.54,1.17,4.5,4.5,0,0,1,.12,1.38h-4.47A1.66,1.66,0,0,0,437.13,374.78Zm1.92-3.26a1.2,1.2,0,0,0-.93-.34,1.52,1.52,0,0,0-.68.14,1.47,1.47,0,0,0-.43.34,1.33,1.33,0,0,0-.23.44,1.61,1.61,0,0,0-.07.4h2.77A1.9,1.9,0,0,0,439.05,371.52Z" style="fill:#fff"/><path d="M443.73,376.27l-2.13-6.2h1.79l1.31,4.23h0l1.31-4.23h1.69l-2.1,6.2Z" style="fill:#fff"/><path d="M448.36,372a1.91,1.91,0,0,1,.3-1,2.05,2.05,0,0,1,.67-.64,3,3,0,0,1,.92-.34,5,5,0,0,1,1-.1,6.08,6.08,0,0,1,1,.07,3.09,3.09,0,0,1,.88.25,1.8,1.8,0,0,1,.65.54,1.55,1.55,0,0,1,.25.9v3.23a7,7,0,0,0,.05.81,1.44,1.44,0,0,0,.16.57h-1.72a1.38,1.38,0,0,1-.08-.29,1.55,1.55,0,0,1,0-.31,2.3,2.3,0,0,1-1,.59,4,4,0,0,1-1.13.17,3.14,3.14,0,0,1-.83-.11,1.7,1.7,0,0,1-.67-.34,1.59,1.59,0,0,1-.45-.57,1.92,1.92,0,0,1-.16-.83,1.87,1.87,0,0,1,.18-.87,1.72,1.72,0,0,1,.48-.55,2.4,2.4,0,0,1,.67-.3,7,7,0,0,1,.77-.16c.25,0,.5-.08.75-.1a3.78,3.78,0,0,0,.66-.11,1.09,1.09,0,0,0,.46-.21.45.45,0,0,0,.15-.4.82.82,0,0,0-.09-.44.64.64,0,0,0-.24-.25.92.92,0,0,0-.34-.12,3,3,0,0,0-.43,0,1.24,1.24,0,0,0-.79.22,1,1,0,0,0-.34.72Zm3.93,1.26a.87.87,0,0,1-.27.15l-.34.09-.39.06a2.9,2.9,0,0,0-.41.06,2.34,2.34,0,0,0-.38.09,1.37,1.37,0,0,0-.32.16.82.82,0,0,0-.23.26,1,1,0,0,0-.08.4.86.86,0,0,0,.08.38.7.7,0,0,0,.23.25.92.92,0,0,0,.34.12,1.72,1.72,0,0,0,.39,0,1.5,1.5,0,0,0,.78-.17,1.05,1.05,0,0,0,.41-.4,1.48,1.48,0,0,0,.17-.47c0-.16,0-.29,0-.39Z" style="fill:#fff"/><path d="M458.73,370.07v1.14h-1.25v3.07a.57.57,0,0,0,.72.72h.27l.26,0v1.32a3.54,3.54,0,0,1-.48.05h-.52a6,6,0,0,1-.75-.05,1.89,1.89,0,0,1-.62-.21,1.1,1.1,0,0,1-.43-.45,1.61,1.61,0,0,1-.16-.75v-3.66h-1v-1.14h1v-1.86h1.71v1.86Z" style="fill:#fff"/><path d="M459.59,369.11V367.7h1.7v1.41Zm1.7,1v6.2h-1.7v-6.2Z" style="fill:#fff"/><path d="M462.67,371.83a2.83,2.83,0,0,1,1.66-1.7,3.65,3.65,0,0,1,1.32-.23,3.75,3.75,0,0,1,1.33.23,3.05,3.05,0,0,1,1,.66,2.92,2.92,0,0,1,.65,1,4,4,0,0,1,0,2.69,3,3,0,0,1-.65,1,2.88,2.88,0,0,1-1,.65,3.75,3.75,0,0,1-1.33.23,3.65,3.65,0,0,1-1.32-.23,2.88,2.88,0,0,1-1-.65,3.12,3.12,0,0,1-.65-1,4.22,4.22,0,0,1,0-2.69Zm1.55,2.07a1.9,1.9,0,0,0,.25.64,1.24,1.24,0,0,0,.46.45,1.42,1.42,0,0,0,.72.17,1.49,1.49,0,0,0,.73-.17,1.24,1.24,0,0,0,.46-.45,1.9,1.9,0,0,0,.25-.64,3.45,3.45,0,0,0,.07-.72,3.64,3.64,0,0,0-.07-.74,1.77,1.77,0,0,0-.25-.63,1.32,1.32,0,0,0-.46-.45,1.39,1.39,0,0,0-.73-.18,1.32,1.32,0,0,0-1.18.63,1.77,1.77,0,0,0-.25.63,3.64,3.64,0,0,0-.07.74A3.45,3.45,0,0,0,464.22,373.9Z" style="fill:#fff"/><path d="M471.59,370.07v.86h0a1.86,1.86,0,0,1,.84-.78,2.32,2.32,0,0,1,1-.25,2.75,2.75,0,0,1,1.12.19,1.53,1.53,0,0,1,.69.51,2,2,0,0,1,.36.81,4.8,4.8,0,0,1,.1,1v3.81h-1.7v-3.5a2.19,2.19,0,0,0-.24-1.15,1,1,0,0,0-.86-.38,1.15,1.15,0,0,0-1,.42,2.27,2.27,0,0,0-.32,1.36v3.25H470v-6.2Z" style="fill:#fff"/><path d="M484.3,367.7a4.34,4.34,0,0,1,1.54.27,3.29,3.29,0,0,1,1.24.79,3.64,3.64,0,0,1,.81,1.32,5.26,5.26,0,0,1,.3,1.86,6,6,0,0,1-.24,1.73,3.92,3.92,0,0,1-.73,1.37,3.43,3.43,0,0,1-1.21.9,4.14,4.14,0,0,1-1.71.33h-3.7V367.7Zm-.13,7a2.67,2.67,0,0,0,.79-.13,1.85,1.85,0,0,0,.68-.44,2.25,2.25,0,0,0,.48-.8,3.53,3.53,0,0,0,.18-1.2,5.26,5.26,0,0,0-.12-1.17,2.37,2.37,0,0,0-.42-.89,1.76,1.76,0,0,0-.76-.57,2.92,2.92,0,0,0-1.17-.2h-1.34v5.4Z" style="fill:#fff"/><path d="M489.24,372a2.11,2.11,0,0,1,.3-1,2.15,2.15,0,0,1,.67-.64,3.07,3.07,0,0,1,.92-.34,5.07,5.07,0,0,1,1-.1,6.16,6.16,0,0,1,.95.07,2.94,2.94,0,0,1,.87.25,1.72,1.72,0,0,1,.65.54,1.48,1.48,0,0,1,.25.9v3.23a7,7,0,0,0,.05.81,1.43,1.43,0,0,0,.17.57h-1.73a2.45,2.45,0,0,1-.08-.29,2.91,2.91,0,0,1,0-.31,2.18,2.18,0,0,1-1,.59,3.92,3.92,0,0,1-1.13.17,3.2,3.2,0,0,1-.83-.11,1.77,1.77,0,0,1-.67-.34,1.59,1.59,0,0,1-.45-.57,1.92,1.92,0,0,1-.16-.83,1.75,1.75,0,0,1,.19-.87,1.51,1.51,0,0,1,.48-.55,2.28,2.28,0,0,1,.67-.3,6.41,6.41,0,0,1,.76-.16c.26,0,.51-.08.76-.1a4.13,4.13,0,0,0,.66-.11,1,1,0,0,0,.45-.21.48.48,0,0,0,.16-.4.93.93,0,0,0-.09-.44.64.64,0,0,0-.24-.25,1,1,0,0,0-.35-.12,2.9,2.9,0,0,0-.43,0,1.26,1.26,0,0,0-.79.22,1,1,0,0,0-.33.72Zm3.94,1.26a.87.87,0,0,1-.27.15l-.35.09-.39.06a2.9,2.9,0,0,0-.41.06,2.62,2.62,0,0,0-.38.09,1.37,1.37,0,0,0-.32.16.78.78,0,0,0-.22.26.82.82,0,0,0-.09.4.74.74,0,0,0,.09.38.56.56,0,0,0,.23.25.81.81,0,0,0,.33.12,1.75,1.75,0,0,0,.4,0,1.56,1.56,0,0,0,.78-.17,1.13,1.13,0,0,0,.41-.4,1.46,1.46,0,0,0,.16-.47,3.28,3.28,0,0,0,0-.39Z" style="fill:#fff"/><path d="M499.61,370.07v1.14h-1.25v3.07a.82.82,0,0,0,.15.58.84.84,0,0,0,.57.14h.28l.25,0v1.32a3.22,3.22,0,0,1-.48.05h-.52a6,6,0,0,1-.75-.05,2,2,0,0,1-.62-.21,1.17,1.17,0,0,1-.43-.45,1.61,1.61,0,0,1-.15-.75v-3.66h-1v-1.14h1v-1.86h1.7v1.86Z" style="fill:#fff"/><path d="M500.35,372a2.11,2.11,0,0,1,.3-1,2.08,2.08,0,0,1,.68-.64,2.91,2.91,0,0,1,.91-.34,5.14,5.14,0,0,1,1-.1,6.16,6.16,0,0,1,1,.07,2.94,2.94,0,0,1,.87.25,1.72,1.72,0,0,1,.65.54,1.48,1.48,0,0,1,.25.9v3.23a7,7,0,0,0,.05.81,1.43,1.43,0,0,0,.17.57h-1.73a2.45,2.45,0,0,1-.08-.29,2.91,2.91,0,0,1,0-.31,2.18,2.18,0,0,1-1,.59,3.92,3.92,0,0,1-1.13.17,3.07,3.07,0,0,1-.82-.11,1.81,1.81,0,0,1-.68-.34,1.59,1.59,0,0,1-.45-.57,2.08,2.08,0,0,1-.16-.83,1.75,1.75,0,0,1,.19-.87,1.51,1.51,0,0,1,.48-.55,2.28,2.28,0,0,1,.67-.3,6.85,6.85,0,0,1,.76-.16c.26,0,.51-.08.76-.1a3.78,3.78,0,0,0,.66-.11,1,1,0,0,0,.45-.21.43.43,0,0,0,.16-.4.93.93,0,0,0-.09-.44.64.64,0,0,0-.24-.25,1,1,0,0,0-.35-.12,2.77,2.77,0,0,0-.42,0,1.29,1.29,0,0,0-.8.22,1,1,0,0,0-.33.72Zm3.94,1.26a.87.87,0,0,1-.27.15l-.35.09-.39.06-.41.06a2.49,2.49,0,0,0-.37.09,1.27,1.27,0,0,0-.33.16.92.92,0,0,0-.22.26.82.82,0,0,0-.08.4.74.74,0,0,0,.08.38.62.62,0,0,0,.23.25.87.87,0,0,0,.33.12,1.75,1.75,0,0,0,.4,0,1.5,1.5,0,0,0,.78-.17,1.13,1.13,0,0,0,.41-.4,1.25,1.25,0,0,0,.16-.47,3.28,3.28,0,0,0,0-.39Z" style="fill:#fff"/></svg>