<?xml version="1.0" encoding="UTF-8"?><svg id="Layer_1" xmlns="http://www.w3.org/2000/svg" viewBox="0 0 762.65 313.83"><defs><style>.cls-1,.cls-2{font-size:12px;}.cls-1,.cls-2,.cls-3{font-family:HelveticaNeue-CondensedBold, 'Helvetica Neue';}.cls-1,.cls-2,.cls-3,.cls-4,.cls-5{font-weight:700;}.cls-1,.cls-3,.cls-4,.cls-5{fill:#272827;}.cls-2,.cls-6{fill:#fff;}.cls-7{fill:#e6e7e8;}.cls-8{fill:#53afe2;}.cls-9{fill:#58595b;}.cls-10{letter-spacing:-.02em;}.cls-11{letter-spacing:.02em;}.cls-12{fill:none;stroke:#58595b;stroke-miterlimit:10;stroke-width:5px;}.cls-13{letter-spacing:-.02em;}.cls-14{letter-spacing:-.02em;}.cls-15{letter-spacing:-.04em;}.cls-16{letter-spacing:-.04em;}.cls-17{letter-spacing:-.07em;}.cls-3,.cls-4{font-size:14px;}.cls-4,.cls-5{font-family:HelveticaNeue-Bold, 'Helvetica Neue';}.cls-18{letter-spacing:0em;}.cls-5{font-size:24px;}</style></defs><rect class="cls-7" x="15" y="15" width="416.93" height="83.72" rx="5" ry="5"/><rect class="cls-7" x="109.89" y="156.52" width="322.04" height="36.33" rx="5" ry="5"/><rect class="cls-8" x="505.69" y="246.25" width="241.95" height="52.58" rx="5" ry="5"/><rect class="cls-7" x="150.29" y="246.25" width="241.95" height="52.58" rx="5" ry="5"/><rect class="cls-7" x="15" y="246.25" width="105.29" height="52.58" rx="5" ry="5"/><text class="cls-5" transform="translate(32.4 63.85)"><tspan x="0" y="0">Integrated </tspan><tspan class="cls-15" x="124.87" y="0">W</tspan><tspan x="146.64" y="0">ater P</tspan><tspan class="cls-13" x="214.65" y="0">r</tspan><tspan x="223.56" y="0">ediction (IWP)</tspan></text><text class="cls-4" transform="translate(118.39 180.26)"><tspan x="0" y="0">National Hyd</tspan><tspan class="cls-14" x="85.54" y="0">r</tspan><tspan class="cls-18" x="90.73" y="0">ologic Geospatial Fabric (NHGF)</tspan></text><text class="cls-1" transform="translate(176.45 268.77)"><tspan x="0" y="0">Unified</tspan><tspan class="cls-16" x="33.32" y="0">,</tspan><tspan x="35.76" y="0" xml:space="preserve"> Coordinated Geospatial Science </tspan><tspan x="3.67" y="14.4">Information Content and</tspan><tspan class="cls-16" x="119.53" y="14.4"> </tspan><tspan class="cls-10" x="121.97" y="14.4">W</tspan><tspan x="130.87" y="14.4">eb Se</tspan><tspan class="cls-11" x="157.09" y="14.4">r</tspan><tspan x="161.3" y="14.4">vices</tspan></text><text class="cls-3" transform="translate(54.82 277.34)"><tspan x="0" y="0">Data</tspan></text><g><text class="cls-2" transform="translate(551.16 268.88)"><tspan x="0" y="0">Advancing Integrated Hydro-</tspan><tspan class="cls-17" x="137.24" y="0">T</tspan><tspan x="142.11" y="0">errestrial </tspan><tspan x="0" y="14.4">Modeling Capabilities</tspan></text><path id="cup" class="cls-6" d="m537.46,284.06v1.2c0,.66-.54,1.2-1.2,1.2h-12.03c-.66,0-1.2-.54-1.2-1.2v-1.2c0-.66.54-1.2,1.2-1.2h12.03c.66,0,1.2.54,1.2,1.2Zm6.73-22.55c-.62-.96-1.76-1.52-3.12-1.52h-2.41v-1.2c0-.66-.54-1.2-1.2-1.2h-14.44c-.66,0-1.2.54-1.2,1.2v1.2h-2.41c-1.36,0-2.5.55-3.12,1.52-.62.96-.65,2.23-.09,3.47l3.03,6.66c1.02,2.24,3.74,3.99,6.2,3.99h2.41v2.41h-1.2c-.66,0-1.2.54-1.2,1.2v1.2h9.63v-1.2c0-.66-.54-1.2-1.2-1.2h-1.2v-2.41h2.41c2.46,0,5.18-1.75,6.2-3.99l3.03-6.66c.56-1.24.53-2.51-.09-3.47Zm-18.77,11.72c-1.51,0-3.39-1.25-4.01-2.58s-3.03-6.66-3.03-6.66c-.22-.48-.25-.91-.08-1.17.17-.26.57-.41,1.1-.41h2.41v1.27c0,1.32.63,3.29,1.41,4.36l3.74,5.2h-1.54Zm16.66-9.25s-2.53,5.59-3.03,6.66-2.5,2.58-4.01,2.58h-1.54l3.74-5.2c.77-1.07,1.41-3.04,1.41-4.36v-1.27h2.41c.53,0,.93.15,1.1.41.17.26.14.69-.08,1.17Z"/></g><polyline class="cls-12" points="62.44 98.72 62.44 174.91 109.89 174.91"/><g><line class="cls-12" x1="270.79" y1="192.85" x2="270.79" y2="235.48"/><polygon class="cls-9" points="263.31 233.3 270.79 246.25 278.26 233.3 263.31 233.3"/></g><g><line class="cls-12" x1="392.24" y1="272.54" x2="494.93" y2="272.54"/><polygon class="cls-9" points="492.74 280.02 505.69 272.54 492.74 265.06 492.74 280.02"/></g><g><line class="cls-12" x1="120.28" y1="272.42" x2="139.52" y2="272.42"/><polygon class="cls-9" points="137.33 279.89 150.29 272.42 137.33 264.94 137.33 279.89"/></g></svg>