<svg id="Layer_1" data-name="Layer 1" xmlns="http://www.w3.org/2000/svg" viewBox="0 0 1121.56 507.48"><path d="M5.1,506.46A4.08,4.08,0,0,1,1,502.38V61.32H1120.54V502.38a4.08,4.08,0,0,1-4.08,4.08Z" style="fill:#fff"/><path d="M1119.52,62.34v440a3.06,3.06,0,0,1-3.06,3.06H5.11A3.07,3.07,0,0,1,2,502.38v-440H1119.52m2-2H0V502.38a5.1,5.1,0,0,0,5.11,5.1H1116.46a5.1,5.1,0,0,0,5.1-5.1V60.3Z" style="fill:#bcbec0"/><path d="M200.78,145.24h720a0,0,0,0,1,0,0V467a4.51,4.51,0,0,1-4.51,4.51h-711a4.51,4.51,0,0,1-4.51-4.51V145.24A0,0,0,0,1,200.78,145.24Z" style="fill:#53aee2"/><path d="M6,0H1115.61a6,6,0,0,1,6,6V42.08a0,0,0,0,1,0,0H0a0,0,0,0,1,0,0V6A6,6,0,0,1,6,0Z"/><rect y="42.08" width="1121.56" height="36.44" style="fill:#353535"/><circle cx="19.06" cy="21.04" r="6.33" style="fill:#f15852"/><circle cx="39.2" cy="21.04" r="6.33" style="fill:#febe2e"/><circle cx="58.91" cy="21.04" r="6.33" style="fill:#50b848"/><line x1="29.03" y1="59.84" x2="16.91" y2="59.84" style="fill:none;stroke:#fff;stroke-miterlimit:10;stroke-width:2px"/><polygon points="22.21 53.3 23.3 54.47 17.52 59.84 23.3 65.21 22.21 66.38 15.17 59.84 22.21 53.3" style="fill:#fff"/><line x1="47.08" y1="59.84" x2="59.2" y2="59.84" style="fill:none;stroke:#8c8c8c;stroke-miterlimit:10;stroke-width:2px"/><polygon points="53.9 66.38 52.81 65.21 58.59 59.84 52.81 54.47 53.9 53.3 60.94 59.84 53.9 66.38" style="fill:#8c8c8c"/><rect x="102.93" y="45.23" width="969.88" height="28.19" rx="13.77" style="fill:#202124"/><path d="M126,55.05V58.2a2.42,2.42,0,0,1,1.9-.93,2.46,2.46,0,0,1,1,.21,1.74,1.74,0,0,1,.69.54,1.9,1.9,0,0,1,.31.73A6.09,6.09,0,0,1,130,60v3.66h-1.65V60.35a5,5,0,0,0-.09-1.24.87.87,0,0,0-.33-.42,1,1,0,0,0-.6-.16,1.38,1.38,0,0,0-.73.2,1.1,1.1,0,0,0-.47.6,3.58,3.58,0,0,0-.15,1.19v3.12h-1.65V55.05Z" style="fill:#fff"/><path d="M134.54,57.41v1.32h-1.12v2.5a6.67,6.67,0,0,0,0,.89.41.41,0,0,0,.14.21.51.51,0,0,0,.28.08,2,2,0,0,0,.67-.16l.14,1.28a3.38,3.38,0,0,1-1.3.25,2.09,2.09,0,0,1-.81-.15,1.13,1.13,0,0,1-.52-.39,1.5,1.5,0,0,1-.23-.64,7,7,0,0,1-.06-1.16V58.73H131V57.41h.75V56.18l1.66-1v2.19Z" style="fill:#fff"/><path d="M138.54,57.41v1.32h-1.13v2.5a6.67,6.67,0,0,0,0,.89.43.43,0,0,0,.15.21.51.51,0,0,0,.28.08,2,2,0,0,0,.66-.16l.14,1.28a3.31,3.31,0,0,1-1.3.25,2,2,0,0,1-.8-.15,1.23,1.23,0,0,1-.53-.39,1.65,1.65,0,0,1-.23-.64,9,9,0,0,1-.05-1.16V58.73H135V57.41h.76V56.18l1.65-1v2.19Z" style="fill:#fff"/><path d="M139.63,57.41h1.54v.92a2.3,2.3,0,0,1,.81-.77,2.26,2.26,0,0,1,1.13-.29,2.41,2.41,0,0,1,1.84.85,3.47,3.47,0,0,1,.75,2.37,3.51,3.51,0,0,1-.76,2.42,2.36,2.36,0,0,1-1.84.87,2.06,2.06,0,0,1-.94-.21,3.24,3.24,0,0,1-.88-.7V66h-1.65Zm1.63,3a2.39,2.39,0,0,0,.42,1.55,1.28,1.28,0,0,0,1,.5,1.2,1.2,0,0,0,1-.46A2.4,2.4,0,0,0,144,60.5a2.18,2.18,0,0,0-.4-1.45,1.2,1.2,0,0,0-1-.48,1.27,1.27,0,0,0-1,.47A2,2,0,0,0,141.26,60.42Z" style="fill:#fff"/><path d="M146.43,61.86l1.65-.25a1.2,1.2,0,0,0,.43.73,1.48,1.48,0,0,0,.9.25,1.58,1.58,0,0,0,1-.24.51.51,0,0,0,.22-.44.43.43,0,0,0-.12-.31,1.18,1.18,0,0,0-.55-.21,9,9,0,0,1-2.52-.81,1.58,1.58,0,0,1-.74-1.4,1.72,1.72,0,0,1,.64-1.36,3,3,0,0,1,2-.55,3.45,3.45,0,0,1,1.9.42,2.13,2.13,0,0,1,.85,1.23l-1.55.29a1,1,0,0,0-.38-.56,1.36,1.36,0,0,0-.79-.19,1.76,1.76,0,0,0-.93.18.37.37,0,0,0-.19.33.35.35,0,0,0,.16.3,6.24,6.24,0,0,0,1.54.46,4.58,4.58,0,0,1,1.84.74,1.52,1.52,0,0,1,.51,1.22,1.89,1.89,0,0,1-.71,1.47,3.17,3.17,0,0,1-2.12.62,3.48,3.48,0,0,1-2-.52A2.37,2.37,0,0,1,146.43,61.86Z" style="fill:#fff"/><path d="M154,59.06V57.41h1.65v1.65Zm0,4.58V62h1.65v1.65Z" style="fill:#fff"/><path d="M156.8,63.78l2.13-8.88h1.23L158,63.78Z" style="fill:#fff"/><path d="M160.13,63.78l2.13-8.88h1.24l-2.15,8.88Z" style="fill:#fff"/><path d="M169.77,59.25l-1.62.3a1.19,1.19,0,0,0-.37-.74,1.16,1.16,0,0,0-.75-.24,1.26,1.26,0,0,0-1,.42,2.2,2.2,0,0,0-.36,1.42,2.53,2.53,0,0,0,.37,1.57,1.23,1.23,0,0,0,1,.45,1.11,1.11,0,0,0,.77-.26,1.61,1.61,0,0,0,.42-.92l1.62.28a2.87,2.87,0,0,1-1,1.68,3,3,0,0,1-1.92.57,2.82,2.82,0,0,1-2.17-.87,3.28,3.28,0,0,1-.82-2.38,3.36,3.36,0,0,1,.82-2.4,2.9,2.9,0,0,1,2.2-.86,3.06,3.06,0,0,1,1.81.49A2.67,2.67,0,0,1,169.77,59.25Z" style="fill:#fff"/><path d="M172.25,59.31,170.76,59a2.29,2.29,0,0,1,.86-1.33,3.19,3.19,0,0,1,1.83-.44,4,4,0,0,1,1.64.26,1.68,1.68,0,0,1,.76.66,3.37,3.37,0,0,1,.22,1.48l0,1.92a6.89,6.89,0,0,0,.08,1.21,4.28,4.28,0,0,0,.3.84H174.8c0-.11-.09-.28-.16-.49a.59.59,0,0,0-.06-.19,3.05,3.05,0,0,1-.9.61,2.52,2.52,0,0,1-1,.21,2.13,2.13,0,0,1-1.52-.53,1.86,1.86,0,0,1-.3-2.25,1.64,1.64,0,0,1,.71-.64,5.87,5.87,0,0,1,1.31-.38,9.21,9.21,0,0,0,1.6-.41v-.16a.85.85,0,0,0-.24-.68,1.44,1.44,0,0,0-.88-.2,1.21,1.21,0,0,0-.69.17A1.25,1.25,0,0,0,172.25,59.31Zm2.21,1.34c-.22.07-.55.15-1,.25a2.89,2.89,0,0,0-.89.29.67.67,0,0,0-.33.58.79.79,0,0,0,.26.59.9.9,0,0,0,.66.26,1.4,1.4,0,0,0,.85-.3,1,1,0,0,0,.39-.54,3.32,3.32,0,0,0,.07-.8Z" style="fill:#fff"/><path d="M180.55,57.41v1.32h-1.13v2.5a4.68,4.68,0,0,0,0,.89.41.41,0,0,0,.14.21.51.51,0,0,0,.28.08,2,2,0,0,0,.66-.16l.14,1.28a3.31,3.31,0,0,1-1.3.25,2.07,2.07,0,0,1-.8-.15,1.13,1.13,0,0,1-.52-.39,1.5,1.5,0,0,1-.24-.64,9,9,0,0,1,0-1.16V58.73H177V57.41h.75V56.18l1.65-1v2.19Z" style="fill:#fff"/><path d="M182.92,59.31,181.43,59a2.29,2.29,0,0,1,.86-1.33,3.19,3.19,0,0,1,1.83-.44,4,4,0,0,1,1.64.26,1.68,1.68,0,0,1,.76.66,3.37,3.37,0,0,1,.22,1.48l0,1.92a6.89,6.89,0,0,0,.08,1.21,4.28,4.28,0,0,0,.3.84h-1.63c0-.11-.09-.28-.16-.49a.59.59,0,0,0-.06-.19,3.05,3.05,0,0,1-.9.61,2.52,2.52,0,0,1-1,.21,2.13,2.13,0,0,1-1.52-.53,1.86,1.86,0,0,1-.3-2.25,1.64,1.64,0,0,1,.71-.64,5.87,5.87,0,0,1,1.31-.38,8.79,8.79,0,0,0,1.59-.41v-.16a.85.85,0,0,0-.23-.68,1.44,1.44,0,0,0-.88-.2,1.21,1.21,0,0,0-.69.17A1.25,1.25,0,0,0,182.92,59.31Zm2.2,1.34c-.21.07-.54.15-1,.25a2.89,2.89,0,0,0-.89.29.67.67,0,0,0-.33.58.79.79,0,0,0,.26.59.9.9,0,0,0,.66.26,1.4,1.4,0,0,0,.85-.3,1,1,0,0,0,.39-.54,3.48,3.48,0,0,0,.06-.8Z" style="fill:#fff"/><path d="M188.37,63.64V55.05H190v8.59Z" style="fill:#fff"/><path d="M191.32,60.44a3.35,3.35,0,0,1,.4-1.59,2.76,2.76,0,0,1,1.15-1.17,3.36,3.36,0,0,1,1.65-.41,3.13,3.13,0,0,1,2.32.92,3.45,3.45,0,0,1,0,4.66,3.08,3.08,0,0,1-2.29.93,3.6,3.6,0,0,1-1.64-.39,2.74,2.74,0,0,1-1.18-1.13A3.79,3.79,0,0,1,191.32,60.44Zm1.69.08a2,2,0,0,0,.44,1.42,1.44,1.44,0,0,0,2.16,0,2.09,2.09,0,0,0,.44-1.43,2,2,0,0,0-.44-1.4,1.42,1.42,0,0,0-2.16,0A2,2,0,0,0,193,60.52Z" style="fill:#fff"/><path d="M198.88,64.05l1.88.22a.69.69,0,0,0,.21.46,1.33,1.33,0,0,0,.74.17,1.94,1.94,0,0,0,1-.19.89.89,0,0,0,.33-.42,2.58,2.58,0,0,0,.07-.75v-.91a2.23,2.23,0,0,1-1.86,1,2.3,2.3,0,0,1-2-1.07,3.59,3.59,0,0,1-.57-2.08,3.44,3.44,0,0,1,.75-2.39,2.46,2.46,0,0,1,1.88-.83,2.28,2.28,0,0,1,1.9,1v-.88h1.54V63a5.57,5.57,0,0,1-.18,1.64,2,2,0,0,1-.51.86,2.12,2.12,0,0,1-.88.48,4.44,4.44,0,0,1-1.38.18,3.6,3.6,0,0,1-2.25-.54,1.7,1.7,0,0,1-.66-1.38A1.34,1.34,0,0,1,198.88,64.05Zm1.47-3.65a2.29,2.29,0,0,0,.38,1.45,1.21,1.21,0,0,0,1,.46,1.31,1.31,0,0,0,1-.48,2.08,2.08,0,0,0,.41-1.39,2.15,2.15,0,0,0-.4-1.44,1.26,1.26,0,0,0-1-.47,1.24,1.24,0,0,0-1,.46A2.22,2.22,0,0,0,200.35,60.4Z" style="fill:#fff"/><path d="M206.36,63.64V62H208v1.65Z" style="fill:#fff"/><path d="M210.85,63.64l-2-6.23h1.6l1.17,4.08,1.07-4.08h1.59l1,4.08,1.19-4.08h1.62l-2,6.23h-1.58l-1.07-4-1.06,4Z" style="fill:#fff"/><path d="M220.26,59.31l-1.5-.27a2.3,2.3,0,0,1,.87-1.33,3.17,3.17,0,0,1,1.83-.44,4,4,0,0,1,1.64.26,1.73,1.73,0,0,1,.76.66,3.52,3.52,0,0,1,.22,1.48l0,1.92a6.89,6.89,0,0,0,.08,1.21,3.29,3.29,0,0,0,.3.84h-1.63a4,4,0,0,1-.16-.49l-.06-.19a3.05,3.05,0,0,1-.9.61,2.53,2.53,0,0,1-1,.21,2.1,2.1,0,0,1-1.51-.53,1.82,1.82,0,0,1-.3-2.25,1.61,1.61,0,0,1,.7-.64,5.87,5.87,0,0,1,1.31-.38,9,9,0,0,0,1.6-.41v-.16a.88.88,0,0,0-.23-.68,1.45,1.45,0,0,0-.89-.2,1.2,1.2,0,0,0-.68.17A1.18,1.18,0,0,0,220.26,59.31Zm2.2,1.34c-.21.07-.54.15-1,.25a2.88,2.88,0,0,0-.9.29.69.69,0,0,0-.32.58.79.79,0,0,0,.26.59.89.89,0,0,0,.65.26,1.4,1.4,0,0,0,.85-.3,1.1,1.1,0,0,0,.4-.54,3.48,3.48,0,0,0,.06-.8Z" style="fill:#fff"/><path d="M228.55,57.41v1.32h-1.12v2.5a6.67,6.67,0,0,0,0,.89.38.38,0,0,0,.15.21.49.49,0,0,0,.28.08,2,2,0,0,0,.66-.16l.14,1.28a3.35,3.35,0,0,1-1.3.25,2,2,0,0,1-.8-.15,1.17,1.17,0,0,1-.53-.39,1.5,1.5,0,0,1-.23-.64,7.43,7.43,0,0,1-.05-1.16V58.73H225V57.41h.76V56.18l1.65-1v2.19Z" style="fill:#fff"/><path d="M233.3,61.65l1.64.28a2.64,2.64,0,0,1-1,1.37,2.88,2.88,0,0,1-1.71.48,2.8,2.8,0,0,1-2.4-1.06,3.59,3.59,0,0,1-.61-2.15,3.42,3.42,0,0,1,.81-2.42,2.63,2.63,0,0,1,2-.88,2.75,2.75,0,0,1,2.19.92A4.05,4.05,0,0,1,235,61H230.9a1.72,1.72,0,0,0,.4,1.14,1.26,1.26,0,0,0,.95.41,1,1,0,0,0,.65-.22A1.25,1.25,0,0,0,233.3,61.65Zm.09-1.66A1.6,1.6,0,0,0,233,58.9a1.17,1.17,0,0,0-.86-.37,1.14,1.14,0,0,0-.89.39,1.53,1.53,0,0,0-.35,1.07Z" style="fill:#fff"/><path d="M238,63.64H236.3V57.41h1.53v.89a2.59,2.59,0,0,1,.71-.83,1.31,1.31,0,0,1,.71-.2,2.16,2.16,0,0,1,1.08.31L239.82,59a1.44,1.44,0,0,0-.77-.27.91.91,0,0,0-.59.19,1.39,1.39,0,0,0-.38.69,10,10,0,0,0-.13,2.08Z" style="fill:#fff"/><path d="M246.75,63.64h-1.53v-.92a2.52,2.52,0,0,1-.9.8,2.39,2.39,0,0,1-1,.26,2.36,2.36,0,0,1-1.83-.87,3.5,3.5,0,0,1-.77-2.41,3.44,3.44,0,0,1,.75-2.4,2.41,2.41,0,0,1,1.88-.83,2.33,2.33,0,0,1,1.8.87V55.05h1.65Zm-4.4-3.25a2.89,2.89,0,0,0,.28,1.44,1.24,1.24,0,0,0,2.08.16,2.25,2.25,0,0,0,.4-1.44,2.45,2.45,0,0,0-.39-1.55,1.27,1.27,0,0,0-2,0A2.11,2.11,0,0,0,242.35,60.39Z" style="fill:#fff"/><path d="M249.6,59.31,248.11,59a2.29,2.29,0,0,1,.86-1.33,3.17,3.17,0,0,1,1.83-.44,4,4,0,0,1,1.64.26,1.68,1.68,0,0,1,.76.66,3.37,3.37,0,0,1,.22,1.48l0,1.92a6.89,6.89,0,0,0,.08,1.21,3.72,3.72,0,0,0,.3.84h-1.63c0-.11-.1-.28-.16-.49a1.07,1.07,0,0,0-.06-.19,3.05,3.05,0,0,1-.9.61,2.52,2.52,0,0,1-1,.21,2.13,2.13,0,0,1-1.52-.53,1.86,1.86,0,0,1-.3-2.25,1.64,1.64,0,0,1,.71-.64,5.71,5.71,0,0,1,1.31-.38,8.79,8.79,0,0,0,1.59-.41v-.16a.85.85,0,0,0-.23-.68,1.44,1.44,0,0,0-.88-.2,1.21,1.21,0,0,0-.69.17A1.25,1.25,0,0,0,249.6,59.31Zm2.2,1.34c-.21.07-.54.15-1,.25a2.89,2.89,0,0,0-.89.29.67.67,0,0,0-.33.58.79.79,0,0,0,.26.59.9.9,0,0,0,.66.26,1.42,1.42,0,0,0,.85-.3,1,1,0,0,0,.39-.54,3.48,3.48,0,0,0,.06-.8Z" style="fill:#fff"/><path d="M257.9,57.41v1.32h-1.13v2.5a4.68,4.68,0,0,0,0,.89.41.41,0,0,0,.14.21.51.51,0,0,0,.28.08,2,2,0,0,0,.66-.16l.14,1.28a3.31,3.31,0,0,1-1.3.25,2.07,2.07,0,0,1-.8-.15,1.13,1.13,0,0,1-.52-.39,1.5,1.5,0,0,1-.24-.64,9,9,0,0,1,0-1.16V58.73h-.75V57.41h.75V56.18l1.65-1v2.19Z" style="fill:#fff"/><path d="M260.27,59.31,258.78,59a2.29,2.29,0,0,1,.86-1.33,3.17,3.17,0,0,1,1.83-.44,4,4,0,0,1,1.64.26,1.68,1.68,0,0,1,.76.66,3.37,3.37,0,0,1,.22,1.48l0,1.92a6.89,6.89,0,0,0,.08,1.21,3.72,3.72,0,0,0,.3.84h-1.63c0-.11-.1-.28-.16-.49a1.07,1.07,0,0,0-.06-.19,3.05,3.05,0,0,1-.9.61,2.52,2.52,0,0,1-1,.21,2.13,2.13,0,0,1-1.52-.53,1.86,1.86,0,0,1-.3-2.25,1.64,1.64,0,0,1,.71-.64,5.71,5.71,0,0,1,1.31-.38,8.79,8.79,0,0,0,1.59-.41v-.16a.85.85,0,0,0-.23-.68,1.44,1.44,0,0,0-.88-.2,1.21,1.21,0,0,0-.69.17A1.25,1.25,0,0,0,260.27,59.31Zm2.2,1.34c-.21.07-.54.15-1,.25a2.89,2.89,0,0,0-.89.29.67.67,0,0,0-.33.58.79.79,0,0,0,.26.59.9.9,0,0,0,.66.26,1.42,1.42,0,0,0,.85-.3,1,1,0,0,0,.39-.54,3.48,3.48,0,0,0,.06-.8Z" style="fill:#fff"/><path d="M265.71,63.64V62h1.65v1.65Z" style="fill:#fff"/><path d="M273.14,63.64V62.7a2.27,2.27,0,0,1-.89.79,2.53,2.53,0,0,1-1.17.29A2.3,2.3,0,0,1,270,63.5a1.54,1.54,0,0,1-.72-.77,3.41,3.41,0,0,1-.23-1.38V57.41h1.65v2.86a8,8,0,0,0,.09,1.61.88.88,0,0,0,.33.47,1.07,1.07,0,0,0,.61.17,1.36,1.36,0,0,0,.76-.23,1.17,1.17,0,0,0,.45-.57A6.2,6.2,0,0,0,273,60V57.41h1.64v6.23Z" style="fill:#fff"/><path d="M275.8,61.86l1.65-.25a1.2,1.2,0,0,0,.43.73,1.46,1.46,0,0,0,.9.25,1.58,1.58,0,0,0,1-.24.51.51,0,0,0,.22-.44.43.43,0,0,0-.12-.31,1.18,1.18,0,0,0-.55-.21,9,9,0,0,1-2.52-.81,1.58,1.58,0,0,1-.74-1.4,1.72,1.72,0,0,1,.64-1.36,3,3,0,0,1,2-.55,3.39,3.39,0,0,1,1.89.42,2.14,2.14,0,0,1,.86,1.23l-1.55.29a1,1,0,0,0-.38-.56,1.38,1.38,0,0,0-.79-.19,1.83,1.83,0,0,0-.94.18.38.38,0,0,0-.18.33.35.35,0,0,0,.16.3,6.24,6.24,0,0,0,1.54.46,4.58,4.58,0,0,1,1.84.74,1.52,1.52,0,0,1,.51,1.22,1.89,1.89,0,0,1-.71,1.47,3.19,3.19,0,0,1-2.12.62,3.48,3.48,0,0,1-2-.52A2.33,2.33,0,0,1,275.8,61.86Z" style="fill:#fff"/><path d="M282.9,64.05l1.88.22a.65.65,0,0,0,.22.46,1.28,1.28,0,0,0,.74.17,1.87,1.87,0,0,0,1-.19.78.78,0,0,0,.33-.42,2.49,2.49,0,0,0,.08-.75v-.91a2.24,2.24,0,0,1-1.87,1,2.29,2.29,0,0,1-2-1.07,3.59,3.59,0,0,1-.58-2.08,3.4,3.4,0,0,1,.76-2.39,2.42,2.42,0,0,1,1.87-.83,2.27,2.27,0,0,1,1.9,1v-.88h1.54V63a5.57,5.57,0,0,1-.18,1.64,2,2,0,0,1-.51.86,2.14,2.14,0,0,1-.87.48,4.55,4.55,0,0,1-1.39.18,3.59,3.59,0,0,1-2.24-.54,1.71,1.71,0,0,1-.67-1.38S282.9,64.12,282.9,64.05Zm1.47-3.65a2.29,2.29,0,0,0,.38,1.45,1.23,1.23,0,0,0,.95.46,1.31,1.31,0,0,0,1-.48,2,2,0,0,0,.42-1.39,2.21,2.21,0,0,0-.4-1.44,1.28,1.28,0,0,0-1-.47,1.26,1.26,0,0,0-1,.46A2.22,2.22,0,0,0,284.37,60.4Z" style="fill:#fff"/><path d="M289.8,61.86l1.66-.25a1.24,1.24,0,0,0,.42.73,1.51,1.51,0,0,0,.91.25,1.62,1.62,0,0,0,1-.24.52.52,0,0,0,.21-.44.47.47,0,0,0-.11-.31,1.29,1.29,0,0,0-.56-.21,9.1,9.1,0,0,1-2.52-.81,1.6,1.6,0,0,1-.74-1.4,1.72,1.72,0,0,1,.64-1.36,3,3,0,0,1,2-.55,3.45,3.45,0,0,1,1.9.42,2.13,2.13,0,0,1,.85,1.23l-1.55.29a.9.9,0,0,0-.38-.56,1.36,1.36,0,0,0-.79-.19,1.81,1.81,0,0,0-.93.18.37.37,0,0,0-.19.33.38.38,0,0,0,.16.3,6.41,6.41,0,0,0,1.54.46,4.58,4.58,0,0,1,1.84.74,1.53,1.53,0,0,1,.52,1.22,1.87,1.87,0,0,1-.72,1.47,3.16,3.16,0,0,1-2.11.62,3.53,3.53,0,0,1-2-.52A2.42,2.42,0,0,1,289.8,61.86Z" style="fill:#fff"/><path d="M297.06,63.64V62h1.64v1.65Z" style="fill:#fff"/><path d="M300.24,64.05l1.88.22a.65.65,0,0,0,.22.46,1.27,1.27,0,0,0,.73.17,1.91,1.91,0,0,0,1-.19.83.83,0,0,0,.33-.42,2.49,2.49,0,0,0,.08-.75v-.91a2.26,2.26,0,0,1-1.87,1,2.28,2.28,0,0,1-2-1.07,3.52,3.52,0,0,1-.58-2.08,3.44,3.44,0,0,1,.75-2.39,2.46,2.46,0,0,1,1.88-.83,2.27,2.27,0,0,1,1.9,1v-.88h1.54V63a5.57,5.57,0,0,1-.18,1.64,2,2,0,0,1-.51.86,2.12,2.12,0,0,1-.88.48,4.44,4.44,0,0,1-1.38.18,3.62,3.62,0,0,1-2.25-.54,1.7,1.7,0,0,1-.66-1.38A1.34,1.34,0,0,1,300.24,64.05Zm1.47-3.65a2.29,2.29,0,0,0,.38,1.45,1.21,1.21,0,0,0,1,.46,1.31,1.31,0,0,0,1-.48,2,2,0,0,0,.41-1.39,2.21,2.21,0,0,0-.39-1.44,1.29,1.29,0,0,0-1-.47,1.24,1.24,0,0,0-1,.46A2.22,2.22,0,0,0,301.71,60.4Z" style="fill:#fff"/><path d="M307.34,60.44a3.35,3.35,0,0,1,.4-1.59,2.82,2.82,0,0,1,1.15-1.17,3.39,3.39,0,0,1,1.65-.41,3.11,3.11,0,0,1,2.32.92,3.45,3.45,0,0,1,0,4.66,3.08,3.08,0,0,1-2.29.93,3.63,3.63,0,0,1-1.64-.39,2.74,2.74,0,0,1-1.18-1.13A3.79,3.79,0,0,1,307.34,60.44Zm1.69.08a2,2,0,0,0,.44,1.42,1.44,1.44,0,0,0,2.16,0,2.09,2.09,0,0,0,.44-1.43,2,2,0,0,0-.44-1.4,1.42,1.42,0,0,0-2.16,0A2,2,0,0,0,309,60.52Z" style="fill:#fff"/><path d="M316.76,63.64l-2.51-6.23H316l1.17,3.18.34,1.06c.09-.27.15-.45.17-.53l.18-.53L319,57.41h1.7l-2.48,6.23Z" style="fill:#fff"/><path d="M344.78,165.36h-144V118.75a4.23,4.23,0,0,1,4.23-4.23H344.78Z" style="fill:#53aee2"/><rect x="345.16" y="114.9" width="143.25" height="50.08" style="fill:#e6e7e8"/><path d="M488,115.27v49.34H345.53V115.27H488m.75-.75h-144v50.84h144V114.52Z" style="fill:#bcbec0"/><rect x="489.16" y="114.9" width="143.25" height="50.08" style="fill:#e6e7e8"/><path d="M632,115.27v49.34H489.53V115.27H632m.75-.75h-144v50.84h144V114.52Z" style="fill:#bcbec0"/><rect x="633.16" y="114.9" width="143.25" height="50.08" style="fill:#e6e7e8"/><path d="M776,115.27v49.34H633.53V115.27H776m.75-.75h-144v50.84h144V114.52Z" style="fill:#bcbec0"/><path d="M777.16,165V114.9h139.4a3.86,3.86,0,0,1,3.85,3.85V165Z" style="fill:#e6e7e8"/><path d="M916.56,115.27a3.48,3.48,0,0,1,3.47,3.48v45.86H777.53V115.27h139m0-.75H776.78v50.84h144V118.75a4.23,4.23,0,0,0-4.22-4.23Z" style="fill:#bcbec0"/><path d="M236.44,134.12a5.79,5.79,0,0,1,2.06.36,4.36,4.36,0,0,1,1.64,1.05,4.82,4.82,0,0,1,1.09,1.76,7.17,7.17,0,0,1,.39,2.48,7.77,7.77,0,0,1-.32,2.31,5,5,0,0,1-1,1.82,4.69,4.69,0,0,1-1.62,1.21,5.55,5.55,0,0,1-2.28.44h-4.93V134.12Zm-.18,9.32a3.15,3.15,0,0,0,1.06-.18,2.32,2.32,0,0,0,.91-.58,3,3,0,0,0,.64-1.07,4.65,4.65,0,0,0,.24-1.6,6.32,6.32,0,0,0-.17-1.56,3,3,0,0,0-.55-1.19,2.44,2.44,0,0,0-1-.76,4,4,0,0,0-1.56-.26H234v7.2Z" style="fill:#fff"/><path d="M243,139.82a2.68,2.68,0,0,1,.4-1.33,2.92,2.92,0,0,1,.9-.85,4,4,0,0,1,1.22-.45,7.08,7.08,0,0,1,1.37-.14,8.9,8.9,0,0,1,1.26.09,3.89,3.89,0,0,1,1.17.34,2.44,2.44,0,0,1,.87.72,2,2,0,0,1,.33,1.2v4.31a7.4,7.4,0,0,0,.07,1.07,1.86,1.86,0,0,0,.22.77h-2.3a2.85,2.85,0,0,1-.11-.39c0-.14,0-.27-.05-.41a3,3,0,0,1-1.28.78,5.17,5.17,0,0,1-1.51.23,3.9,3.9,0,0,1-1.1-.15,2.38,2.38,0,0,1-.9-.45,2.16,2.16,0,0,1-.6-.76,2.68,2.68,0,0,1-.21-1.11,2.49,2.49,0,0,1,.24-1.16,2.27,2.27,0,0,1,.64-.73,2.94,2.94,0,0,1,.9-.4,8.81,8.81,0,0,1,1-.22c.34-.05.67-.1,1-.13a6.26,6.26,0,0,0,.88-.14,1.65,1.65,0,0,0,.61-.28.61.61,0,0,0,.21-.54,1.19,1.19,0,0,0-.12-.58.88.88,0,0,0-.32-.34,1.32,1.32,0,0,0-.46-.16,5.1,5.1,0,0,0-.57,0,1.76,1.76,0,0,0-1.06.29,1.33,1.33,0,0,0-.45,1Zm5.25,1.68a1,1,0,0,1-.36.2,3.09,3.09,0,0,1-.46.12l-.52.08-.55.08a4.07,4.07,0,0,0-.5.13,1.33,1.33,0,0,0-.43.21,1,1,0,0,0-.3.35,1.16,1.16,0,0,0-.11.53,1.13,1.13,0,0,0,.11.51.87.87,0,0,0,.3.33,1.27,1.27,0,0,0,.45.16,2.32,2.32,0,0,0,.53.05,2,2,0,0,0,1-.22,1.4,1.4,0,0,0,.54-.54,1.76,1.76,0,0,0,.22-.63,3.64,3.64,0,0,0,0-.51Z" style="fill:#fff"/><path d="M256.86,137.28v1.52h-1.67v4.09a1.16,1.16,0,0,0,.19.77,1.12,1.12,0,0,0,.77.19h.37l.34-.05v1.76a6.06,6.06,0,0,1-.64.06l-.69,0a7.85,7.85,0,0,1-1-.07,2.32,2.32,0,0,1-.83-.28,1.5,1.5,0,0,1-.57-.6,2.06,2.06,0,0,1-.21-1V138.8h-1.38v-1.52h1.38V134.8h2.27v2.48Z" style="fill:#fff"/><path d="M257.85,139.82a2.58,2.58,0,0,1,.4-1.33,2.78,2.78,0,0,1,.89-.85,4,4,0,0,1,1.23-.45,7,7,0,0,1,1.37-.14,9.11,9.11,0,0,1,1.26.09,3.89,3.89,0,0,1,1.17.34,2.32,2.32,0,0,1,.86.72,1.92,1.92,0,0,1,.34,1.2v4.31a9.2,9.2,0,0,0,.06,1.07,1.85,1.85,0,0,0,.23.77h-2.31a2.79,2.79,0,0,1-.1-.39,2.9,2.9,0,0,1-.06-.41,3,3,0,0,1-1.28.78,5.1,5.1,0,0,1-1.5.23,3.92,3.92,0,0,1-1.11-.15,2.27,2.27,0,0,1-.89-.45,2,2,0,0,1-.6-.76,2.53,2.53,0,0,1-.22-1.11,2.37,2.37,0,0,1,.25-1.16,2.15,2.15,0,0,1,.64-.73,2.84,2.84,0,0,1,.9-.4,8.65,8.65,0,0,1,1-.22c.34-.05.68-.1,1-.13a6.5,6.5,0,0,0,.88-.14,1.65,1.65,0,0,0,.61-.28.61.61,0,0,0,.21-.54,1.19,1.19,0,0,0-.12-.58.88.88,0,0,0-.32-.34,1.37,1.37,0,0,0-.47-.16,4.78,4.78,0,0,0-.57,0,1.72,1.72,0,0,0-1.05.29,1.26,1.26,0,0,0-.45,1Zm5.25,1.68a1,1,0,0,1-.36.2,3.23,3.23,0,0,1-.47.12l-.52.08-.54.08a4.77,4.77,0,0,0-.51.13,1.44,1.44,0,0,0-.43.21,1.09,1.09,0,0,0-.29.35,1,1,0,0,0-.12.53,1,1,0,0,0,.12.51.8.8,0,0,0,.3.33,1.27,1.27,0,0,0,.45.16,2.27,2.27,0,0,0,.53.05,2,2,0,0,0,1-.22,1.55,1.55,0,0,0,.54-.54,1.76,1.76,0,0,0,.22-.63c0-.21,0-.38,0-.51Z" style="fill:#fff"/><path d="M279.85,134.12v2.12h-5.52v2.64h4.78v2h-4.78v4.72h-2.51V134.12Z" style="fill:#fff"/><path d="M281,139.82a2.58,2.58,0,0,1,.4-1.33,2.78,2.78,0,0,1,.89-.85,4,4,0,0,1,1.23-.45,7,7,0,0,1,1.37-.14,9.11,9.11,0,0,1,1.26.09,3.89,3.89,0,0,1,1.17.34,2.32,2.32,0,0,1,.86.72,1.92,1.92,0,0,1,.34,1.2v4.31a9.2,9.2,0,0,0,.06,1.07,1.85,1.85,0,0,0,.23.77h-2.31a2.79,2.79,0,0,1-.1-.39,2.9,2.9,0,0,1-.06-.41,3,3,0,0,1-1.28.78,5.1,5.1,0,0,1-1.5.23,4,4,0,0,1-1.11-.15,2.27,2.27,0,0,1-.89-.45,2,2,0,0,1-.6-.76,2.53,2.53,0,0,1-.22-1.11,2.37,2.37,0,0,1,.25-1.16,2.15,2.15,0,0,1,.64-.73,2.84,2.84,0,0,1,.9-.4,8.65,8.65,0,0,1,1-.22c.34-.05.68-.1,1-.13a6.5,6.5,0,0,0,.88-.14,1.65,1.65,0,0,0,.61-.28.61.61,0,0,0,.21-.54,1.19,1.19,0,0,0-.12-.58.88.88,0,0,0-.32-.34,1.37,1.37,0,0,0-.47-.16,4.78,4.78,0,0,0-.57,0,1.72,1.72,0,0,0-1.05.29,1.26,1.26,0,0,0-.45,1Zm5.25,1.68a1,1,0,0,1-.36.2,3.23,3.23,0,0,1-.47.12l-.52.08-.54.08a4.77,4.77,0,0,0-.51.13,1.44,1.44,0,0,0-.43.21,1.09,1.09,0,0,0-.29.35,1,1,0,0,0-.12.53,1,1,0,0,0,.12.51.8.8,0,0,0,.3.33,1.27,1.27,0,0,0,.45.16,2.27,2.27,0,0,0,.53.05,2,2,0,0,0,1-.22,1.55,1.55,0,0,0,.54-.54,1.76,1.76,0,0,0,.22-.63c0-.21,0-.38,0-.51Z" style="fill:#fff"/><path d="M294.2,138.76a1.63,1.63,0,0,0-.91.25,1.93,1.93,0,0,0-.6.64,2.54,2.54,0,0,0-.33.87,4.9,4.9,0,0,0-.1.93,4.7,4.7,0,0,0,.1.91,2.81,2.81,0,0,0,.31.84,1.75,1.75,0,0,0,.59.62,1.58,1.58,0,0,0,.89.24,1.65,1.65,0,0,0,1.26-.46,2.19,2.19,0,0,0,.55-1.22h2.19a3.71,3.71,0,0,1-1.28,2.51,4.09,4.09,0,0,1-2.7.87,4.53,4.53,0,0,1-1.71-.32,3.71,3.71,0,0,1-1.32-.87,4,4,0,0,1-.84-1.33,4.52,4.52,0,0,1-.31-1.71,5.4,5.4,0,0,1,.28-1.78,4,4,0,0,1,.83-1.43,3.68,3.68,0,0,1,1.32-.93,4.45,4.45,0,0,1,1.8-.34,5.45,5.45,0,0,1,1.41.19,4,4,0,0,1,1.22.59,3.23,3.23,0,0,1,.87,1,3.18,3.18,0,0,1,.38,1.39h-2.22A1.53,1.53,0,0,0,294.2,138.76Z" style="fill:#fff"/><path d="M301.86,143.56a2.34,2.34,0,0,0,2.66.16,1.49,1.49,0,0,0,.61-.73h2a3.79,3.79,0,0,1-1.48,2.13,4.38,4.38,0,0,1-2.4.64,4.62,4.62,0,0,1-1.75-.32,3.52,3.52,0,0,1-1.33-.88,3.88,3.88,0,0,1-.84-1.38,5.22,5.22,0,0,1,0-3.49,4.26,4.26,0,0,1,.87-1.38,4,4,0,0,1,1.33-.92,4.23,4.23,0,0,1,1.72-.34,3.93,3.93,0,0,1,1.84.41,3.54,3.54,0,0,1,1.29,1.1,4.48,4.48,0,0,1,.73,1.56,5.91,5.91,0,0,1,.16,1.84h-6A2.29,2.29,0,0,0,301.86,143.56Zm2.57-4.35a1.58,1.58,0,0,0-1.24-.45,2,2,0,0,0-.9.19,1.67,1.67,0,0,0-.58.45,1.89,1.89,0,0,0-.3.58,2.47,2.47,0,0,0-.11.54H305A2.7,2.7,0,0,0,304.43,139.21Z" style="fill:#fff"/><path d="M313.16,137.28v1.52H311.5v4.09a1.1,1.1,0,0,0,.19.77,1.09,1.09,0,0,0,.77.19h.36l.34-.05v1.76a5.82,5.82,0,0,1-.64.06l-.69,0a8,8,0,0,1-1-.07,2.39,2.39,0,0,1-.83-.28,1.5,1.5,0,0,1-.57-.6,2.06,2.06,0,0,1-.21-1V138.8h-1.37v-1.52h1.37V134.8h2.28v2.48Z" style="fill:#fff"/><path d="M373.29,136.24v-2.12h9.36v2.12h-3.42v9.31h-2.51v-9.31Z" style="fill:#272727"/><path d="M382,139.62a3.89,3.89,0,0,1,.86-1.38,4,4,0,0,1,1.35-.88,5.15,5.15,0,0,1,3.52,0,4.09,4.09,0,0,1,1.36.88,3.89,3.89,0,0,1,.86,1.38,5.15,5.15,0,0,1,.3,1.8,5.05,5.05,0,0,1-.3,1.79,3.85,3.85,0,0,1-.86,1.37,3.78,3.78,0,0,1-1.36.87,5.15,5.15,0,0,1-3.52,0,3.74,3.74,0,0,1-1.35-.87,3.85,3.85,0,0,1-.86-1.37,5.05,5.05,0,0,1-.31-1.79A5.15,5.15,0,0,1,382,139.62Zm2.06,2.77a2.89,2.89,0,0,0,.33.85,1.7,1.7,0,0,0,.62.6,1.84,1.84,0,0,0,1,.22,1.89,1.89,0,0,0,1-.22,1.73,1.73,0,0,0,.63-.6,2.89,2.89,0,0,0,.33-.85,5.23,5.23,0,0,0,.09-1,5.33,5.33,0,0,0-.09-1,2.63,2.63,0,0,0-.33-.84,1.73,1.73,0,0,0-.63-.6,1.8,1.8,0,0,0-1-.24,1.75,1.75,0,0,0-1,.24,1.7,1.7,0,0,0-.62.6,2.63,2.63,0,0,0-.33.84,5.33,5.33,0,0,0-.09,1A5.23,5.23,0,0,0,384.06,142.39Z" style="fill:#272727"/><path d="M391.77,139.62a3.91,3.91,0,0,1,.87-1.38,4,4,0,0,1,1.34-.88,4.88,4.88,0,0,1,1.76-.31,5,5,0,0,1,1.77.31,4,4,0,0,1,1.35.88,4.06,4.06,0,0,1,.87,1.38,5.15,5.15,0,0,1,.3,1.8,5.05,5.05,0,0,1-.3,1.79,4,4,0,0,1-.87,1.37,3.66,3.66,0,0,1-1.35.87,5,5,0,0,1-1.77.31,4.88,4.88,0,0,1-1.76-.31,3.7,3.7,0,0,1-1.34-.87,3.87,3.87,0,0,1-.87-1.37,5.05,5.05,0,0,1-.3-1.79A5.15,5.15,0,0,1,391.77,139.62Zm2.07,2.77a2.43,2.43,0,0,0,.33.85,1.75,1.75,0,0,0,.61.6,2.23,2.23,0,0,0,1.93,0,1.7,1.7,0,0,0,.62-.6,2.43,2.43,0,0,0,.33-.85,4.5,4.5,0,0,0,.1-1,4.59,4.59,0,0,0-.1-1,2.24,2.24,0,0,0-.33-.84,1.7,1.7,0,0,0-.62-.6,2.06,2.06,0,0,0-1.93,0,1.75,1.75,0,0,0-.61.6,2.24,2.24,0,0,0-.33.84,4.59,4.59,0,0,0-.1,1A4.5,4.5,0,0,0,393.84,142.39Z" style="fill:#272727"/><path d="M403.84,134.12v11.43h-2.27V134.12Z" style="fill:#272727"/><path d="M407.54,143.49a1.24,1.24,0,0,0,.39.43,1.5,1.5,0,0,0,.56.25,2.25,2.25,0,0,0,.64.08,3.14,3.14,0,0,0,.51-.05,2,2,0,0,0,.48-.18,1.22,1.22,0,0,0,.36-.32.87.87,0,0,0,.14-.5c0-.35-.23-.6-.68-.77a13.4,13.4,0,0,0-1.89-.51c-.34-.08-.66-.17-1-.27a3,3,0,0,1-.84-.4,1.75,1.75,0,0,1-.59-.62,1.77,1.77,0,0,1-.23-.92,2.56,2.56,0,0,1,.31-1.31,2.38,2.38,0,0,1,.83-.81,3.5,3.5,0,0,1,1.15-.42,6.93,6.93,0,0,1,2.62,0,3.58,3.58,0,0,1,1.12.43,2.57,2.57,0,0,1,.83.81,2.68,2.68,0,0,1,.39,1.27h-2.16a1,1,0,0,0-.5-.89,2.32,2.32,0,0,0-1.05-.23l-.42,0a1.37,1.37,0,0,0-.41.1.87.87,0,0,0-.31.23.65.65,0,0,0-.13.41.64.64,0,0,0,.23.5,1.86,1.86,0,0,0,.58.31,6.67,6.67,0,0,0,.83.21l.94.21c.33.08.65.17,1,.27a3.33,3.33,0,0,1,.84.43,2,2,0,0,1,.59.65,2,2,0,0,1,.22,1,2.48,2.48,0,0,1-1.18,2.26,3.52,3.52,0,0,1-1.21.47,7,7,0,0,1-1.38.14,6.62,6.62,0,0,1-1.41-.15,3.39,3.39,0,0,1-1.22-.48,2.59,2.59,0,0,1-.88-.89,2.71,2.71,0,0,1-.38-1.38h2.16A1.22,1.22,0,0,0,407.54,143.49Z" style="fill:#272727"/><path d="M426.94,134.12v2.12h-5.52v2.64h4.79v2h-4.79v4.72h-2.51V134.12Z" style="fill:#272727"/><path d="M428.06,139.82a2.68,2.68,0,0,1,.4-1.33,2.81,2.81,0,0,1,.9-.85,4,4,0,0,1,1.22-.45,7,7,0,0,1,1.37-.14,8.9,8.9,0,0,1,1.26.09,3.89,3.89,0,0,1,1.17.34,2.44,2.44,0,0,1,.87.72,2,2,0,0,1,.33,1.2v4.31a7.4,7.4,0,0,0,.07,1.07,1.86,1.86,0,0,0,.22.77h-2.3a2.67,2.67,0,0,1-.16-.8,3,3,0,0,1-1.28.78,5.22,5.22,0,0,1-1.51.23,3.9,3.9,0,0,1-1.1-.15,2.38,2.38,0,0,1-.9-.45,2.16,2.16,0,0,1-.6-.76,2.68,2.68,0,0,1-.21-1.11,2.49,2.49,0,0,1,.24-1.16,2.27,2.27,0,0,1,.64-.73,2.84,2.84,0,0,1,.9-.4,8.81,8.81,0,0,1,1-.22c.34-.05.67-.1,1-.13a6.26,6.26,0,0,0,.88-.14,1.65,1.65,0,0,0,.61-.28.61.61,0,0,0,.21-.54,1.19,1.19,0,0,0-.12-.58.88.88,0,0,0-.32-.34,1.32,1.32,0,0,0-.46-.16,5.1,5.1,0,0,0-.57,0,1.76,1.76,0,0,0-1.06.29,1.33,1.33,0,0,0-.45,1Zm5.25,1.68a1,1,0,0,1-.36.2,3.09,3.09,0,0,1-.46.12l-.52.08-.55.08a4.07,4.07,0,0,0-.5.13,1.33,1.33,0,0,0-.43.21,1,1,0,0,0-.3.35,1,1,0,0,0-.11.53,1,1,0,0,0,.11.51.87.87,0,0,0,.3.33,1.27,1.27,0,0,0,.45.16,2.32,2.32,0,0,0,.53.05,2,2,0,0,0,1-.22,1.47,1.47,0,0,0,.54-.54,1.76,1.76,0,0,0,.22-.63,3.64,3.64,0,0,0,0-.51Z" style="fill:#272727"/><path d="M441.29,138.76a1.65,1.65,0,0,0-.91.25,2.16,2.16,0,0,0-.6.64,3,3,0,0,0-.33.87,4.88,4.88,0,0,0-.09.93,4.68,4.68,0,0,0,.09.91,2.82,2.82,0,0,0,.32.84,1.64,1.64,0,0,0,.58.62,1.59,1.59,0,0,0,.9.24,1.63,1.63,0,0,0,1.25-.46,2.13,2.13,0,0,0,.55-1.22h2.2a3.71,3.71,0,0,1-1.29,2.51,4.09,4.09,0,0,1-2.7.87,4.44,4.44,0,0,1-1.7-.32,3.54,3.54,0,0,1-1.32-.87,3.84,3.84,0,0,1-.85-1.33,4.73,4.73,0,0,1-.31-1.71,5.4,5.4,0,0,1,.29-1.78,4,4,0,0,1,.82-1.43,3.63,3.63,0,0,1,1.33-.93,4.4,4.4,0,0,1,1.79-.34,5.59,5.59,0,0,1,1.42.19,3.89,3.89,0,0,1,1.21.59,3.1,3.1,0,0,1,.87,1,3.18,3.18,0,0,1,.39,1.39H443A1.53,1.53,0,0,0,441.29,138.76Z" style="fill:#272727"/><path d="M449,143.56a2,2,0,0,0,1.47.5,2,2,0,0,0,1.18-.34,1.44,1.44,0,0,0,.61-.73h2a3.82,3.82,0,0,1-1.47,2.13,4.38,4.38,0,0,1-2.4.64,4.68,4.68,0,0,1-1.76-.32,3.6,3.6,0,0,1-1.33-.88,4.19,4.19,0,0,1-.84-1.38,5.14,5.14,0,0,1,0-3.49,4,4,0,0,1,2.2-2.3,4.19,4.19,0,0,1,1.72-.34,4,4,0,0,1,1.84.41,3.71,3.71,0,0,1,1.29,1.1,4.46,4.46,0,0,1,.72,1.56,5.62,5.62,0,0,1,.16,1.84h-6A2.29,2.29,0,0,0,449,143.56Zm2.56-4.35a1.58,1.58,0,0,0-1.24-.45,2,2,0,0,0-.9.19,1.77,1.77,0,0,0-.58.45,1.89,1.89,0,0,0-.3.58,2.4,2.4,0,0,0-.1.54h3.69A2.52,2.52,0,0,0,451.52,139.21Z" style="fill:#272727"/><path d="M460.25,137.28v1.52h-1.66v4.09a.77.77,0,0,0,1,1h.37l.33-.05v1.76a5.59,5.59,0,0,1-.64.06l-.69,0a8,8,0,0,1-1-.07,2.39,2.39,0,0,1-.83-.28,1.5,1.5,0,0,1-.57-.6,2.19,2.19,0,0,1-.2-1V138.8h-1.38v-1.52h1.38V134.8h2.27v2.48Z" style="fill:#272727"/><path d="M507.65,142.84a1.75,1.75,0,0,0,.55.65,2.32,2.32,0,0,0,.81.37,3.83,3.83,0,0,0,1,.12,4.76,4.76,0,0,0,.72-.06,2.29,2.29,0,0,0,.72-.21,1.61,1.61,0,0,0,.56-.44,1.11,1.11,0,0,0,.22-.71,1,1,0,0,0-.3-.76,2.31,2.31,0,0,0-.77-.48A7.88,7.88,0,0,0,510,141c-.41-.1-.82-.2-1.23-.32a13,13,0,0,1-1.25-.39,4.57,4.57,0,0,1-1.09-.6,2.85,2.85,0,0,1-.77-.92,2.79,2.79,0,0,1-.3-1.34,3,3,0,0,1,.38-1.53,3.49,3.49,0,0,1,1-1.08,4.26,4.26,0,0,1,1.38-.64,5.76,5.76,0,0,1,1.53-.21,7.43,7.43,0,0,1,1.72.2,4.45,4.45,0,0,1,1.47.65,3.3,3.3,0,0,1,1,1.15,3.48,3.48,0,0,1,.38,1.68h-2.43a2,2,0,0,0-.22-.84,1.32,1.32,0,0,0-.49-.53,1.92,1.92,0,0,0-.69-.27,3.93,3.93,0,0,0-.86-.08,3.15,3.15,0,0,0-.61.06,1.76,1.76,0,0,0-.55.22,1.56,1.56,0,0,0-.41.4,1.15,1.15,0,0,0-.16.61,1.09,1.09,0,0,0,.13.55,1.17,1.17,0,0,0,.5.38,5.93,5.93,0,0,0,1,.35l1.74.45c.21,0,.51.12.89.23a4.16,4.16,0,0,1,1.13.54,3.33,3.33,0,0,1,1,1,2.75,2.75,0,0,1,.41,1.58,3.48,3.48,0,0,1-.3,1.45,3.09,3.09,0,0,1-.91,1.16,4.22,4.22,0,0,1-1.48.76,6.8,6.8,0,0,1-2.06.28,7,7,0,0,1-1.83-.24,4.52,4.52,0,0,1-1.57-.72,3.57,3.57,0,0,1-1.46-3.09h2.43A2,2,0,0,0,507.65,142.84Z" style="fill:#272727"/><path d="M518.3,143.68a2.36,2.36,0,0,0,2.66.15,1.45,1.45,0,0,0,.61-.73h2a3.79,3.79,0,0,1-1.48,2.13,4.3,4.3,0,0,1-2.4.64,4.92,4.92,0,0,1-1.76-.31,3.71,3.71,0,0,1-1.32-.89,3.8,3.8,0,0,1-.84-1.38,5.22,5.22,0,0,1,0-3.49,4.1,4.1,0,0,1,.87-1.38,4,4,0,0,1,1.33-.92,4.36,4.36,0,0,1,1.72-.34,3.93,3.93,0,0,1,1.84.41,3.54,3.54,0,0,1,1.29,1.1,4.44,4.44,0,0,1,.73,1.57,5.88,5.88,0,0,1,.16,1.84h-6A2.3,2.3,0,0,0,518.3,143.68Zm2.57-4.36a1.61,1.61,0,0,0-1.24-.44,2,2,0,0,0-.9.18,1.69,1.69,0,0,0-.58.46,1.57,1.57,0,0,0-.3.57,2.66,2.66,0,0,0-.11.55h3.7A2.69,2.69,0,0,0,520.87,139.32Z" style="fill:#272727"/><path d="M527.21,137.39v1.53h0a2.75,2.75,0,0,1,.43-.71,3,3,0,0,1,.62-.56,3.69,3.69,0,0,1,.75-.36,3,3,0,0,1,.84-.13,1.85,1.85,0,0,1,.49.08v2.12l-.38-.06a3.24,3.24,0,0,0-.43,0,2.57,2.57,0,0,0-1.06.2,1.87,1.87,0,0,0-.7.57,2.29,2.29,0,0,0-.37.84,4.31,4.31,0,0,0-.11,1v3.73h-2.28v-8.27Z" style="fill:#272727"/><path d="M533.33,145.66l-2.84-8.27h2.39l1.74,5.65h0l1.75-5.65h2.25l-2.8,8.27Z" style="fill:#272727"/><path d="M539.66,136.11v-1.87h2.27v1.87Zm2.27,1.28v8.27h-2.27v-8.27Z" style="fill:#272727"/><path d="M547.68,138.88a1.6,1.6,0,0,0-.91.24,1.93,1.93,0,0,0-.6.64,2.62,2.62,0,0,0-.33.87,4.27,4.27,0,0,0-.1.93,4.18,4.18,0,0,0,.1.92,2.81,2.81,0,0,0,.31.84,1.78,1.78,0,0,0,.58.61,1.63,1.63,0,0,0,.9.24,1.7,1.7,0,0,0,1.26-.45,2.26,2.26,0,0,0,.55-1.23h2.19a3.75,3.75,0,0,1-1.28,2.51,4.11,4.11,0,0,1-2.7.87,4.73,4.73,0,0,1-1.71-.31,3.69,3.69,0,0,1-1.32-.88,4,4,0,0,1-.85-1.33,4.73,4.73,0,0,1-.3-1.71,5.4,5.4,0,0,1,.28-1.78,4.07,4.07,0,0,1,.82-1.42,3.83,3.83,0,0,1,1.33-.94,4.57,4.57,0,0,1,1.79-.34,5.13,5.13,0,0,1,1.42.2,3.72,3.72,0,0,1,1.22.58,3.28,3.28,0,0,1,.87,1,3.13,3.13,0,0,1,.38,1.38h-2.22A1.52,1.52,0,0,0,547.68,138.88Z" style="fill:#272727"/><path d="M555.34,143.68a2.36,2.36,0,0,0,2.66.15,1.45,1.45,0,0,0,.61-.73h2a3.84,3.84,0,0,1-1.48,2.13,4.3,4.3,0,0,1-2.4.64,4.92,4.92,0,0,1-1.76-.31,3.71,3.71,0,0,1-1.32-.89,3.8,3.8,0,0,1-.84-1.38,5.22,5.22,0,0,1,0-3.49,4.1,4.1,0,0,1,.87-1.38,4,4,0,0,1,1.33-.92,4.36,4.36,0,0,1,1.72-.34,3.93,3.93,0,0,1,1.84.41,3.54,3.54,0,0,1,1.29,1.1,4.44,4.44,0,0,1,.73,1.57,5.88,5.88,0,0,1,.16,1.84h-6A2.3,2.3,0,0,0,555.34,143.68Zm2.57-4.36a1.63,1.63,0,0,0-1.24-.44,2,2,0,0,0-.9.18,1.69,1.69,0,0,0-.58.46,1.57,1.57,0,0,0-.3.57,2.66,2.66,0,0,0-.11.55h3.7A2.69,2.69,0,0,0,557.91,139.32Z" style="fill:#272727"/><path d="M564,143.6a1.38,1.38,0,0,0,.39.44,1.61,1.61,0,0,0,.55.24,2.32,2.32,0,0,0,.65.08,2.18,2.18,0,0,0,.5-.05,1.71,1.71,0,0,0,.48-.18.93.93,0,0,0,.36-.32.8.8,0,0,0,.15-.5c0-.34-.23-.6-.68-.77a14,14,0,0,0-1.9-.51c-.33-.08-.65-.16-1-.27a3.26,3.26,0,0,1-.84-.4,1.94,1.94,0,0,1-.59-.62,1.77,1.77,0,0,1-.22-.92,2.47,2.47,0,0,1,.31-1.31,2.35,2.35,0,0,1,.82-.81,3.59,3.59,0,0,1,1.15-.42,7.2,7.2,0,0,1,1.32-.12,7,7,0,0,1,1.3.13,3.64,3.64,0,0,1,1.13.43,2.75,2.75,0,0,1,.82.81,2.68,2.68,0,0,1,.39,1.27H567a1,1,0,0,0-.49-.88,2.21,2.21,0,0,0-1.06-.24l-.41,0a1.3,1.3,0,0,0-.41.1.81.81,0,0,0-.31.23.61.61,0,0,0-.13.41.62.62,0,0,0,.22.5,1.73,1.73,0,0,0,.59.31c.24.08.51.15.82.22l.94.2a9.89,9.89,0,0,1,1,.28,2.76,2.76,0,0,1,.84.42,2.07,2.07,0,0,1,.59.66,1.89,1.89,0,0,1,.23,1,2.62,2.62,0,0,1-.33,1.37,2.53,2.53,0,0,1-.86.89,3.54,3.54,0,0,1-1.2.47,7.2,7.2,0,0,1-1.39.14,6.62,6.62,0,0,1-1.41-.15,3.46,3.46,0,0,1-1.22-.48,2.74,2.74,0,0,1-.88-.88,2.78,2.78,0,0,1-.38-1.39h2.16A1.14,1.14,0,0,0,564,143.6Z" style="fill:#272727"/><path d="M583.41,134.24v2.11h-5.52V139h4.78v1.95h-4.78v4.72h-2.52V134.24Z" style="fill:#272727"/><path d="M584.53,139.93a2.61,2.61,0,0,1,.4-1.33,2.65,2.65,0,0,1,.89-.84,3.69,3.69,0,0,1,1.23-.46,7,7,0,0,1,1.36-.14,9.15,9.15,0,0,1,1.27.09,4.08,4.08,0,0,1,1.17.35,2.21,2.21,0,0,1,.86.71,2,2,0,0,1,.34,1.21v4.3a9.2,9.2,0,0,0,.06,1.07,2,2,0,0,0,.22.77H590a2.79,2.79,0,0,1-.1-.39,2.9,2.9,0,0,1-.06-.41,2.89,2.89,0,0,1-1.28.78,5.1,5.1,0,0,1-1.5.23,3.92,3.92,0,0,1-1.11-.15,2.4,2.4,0,0,1-.89-.44,2.06,2.06,0,0,1-.6-.77,2.53,2.53,0,0,1-.22-1.11,2.4,2.4,0,0,1,.25-1.16,2,2,0,0,1,.64-.72,2.9,2.9,0,0,1,.89-.41c.34-.09.68-.16,1-.22l1-.13a6.5,6.5,0,0,0,.88-.14,1.57,1.57,0,0,0,.61-.28.64.64,0,0,0,.2-.54,1.19,1.19,0,0,0-.12-.58.87.87,0,0,0-.32-.34,1.25,1.25,0,0,0-.46-.16,5.1,5.1,0,0,0-.57,0,1.7,1.7,0,0,0-1,.29,1.26,1.26,0,0,0-.45,1Zm5.24,1.68a.89.89,0,0,1-.36.2,2.8,2.8,0,0,1-.46.12l-.52.08-.54.08a4.23,4.23,0,0,0-.51.13,1.45,1.45,0,0,0-.43.22,1.1,1.1,0,0,0-.3.34,1.16,1.16,0,0,0-.11.53,1.13,1.13,0,0,0,.11.51.9.9,0,0,0,.31.33,1.41,1.41,0,0,0,.45.17,3,3,0,0,0,.52,0,2,2,0,0,0,1-.22,1.5,1.5,0,0,0,.55-.54,1.62,1.62,0,0,0,.21-.63,3.64,3.64,0,0,0,0-.51Z" style="fill:#272727"/><path d="M597.76,138.88a1.66,1.66,0,0,0-.92.24,2,2,0,0,0-.59.64,2.62,2.62,0,0,0-.33.87,4.27,4.27,0,0,0-.1.93,4.18,4.18,0,0,0,.1.92,2.56,2.56,0,0,0,.31.84,1.78,1.78,0,0,0,.58.61,1.63,1.63,0,0,0,.9.24,1.66,1.66,0,0,0,1.25-.45,2.2,2.2,0,0,0,.56-1.23h2.19a3.75,3.75,0,0,1-1.28,2.51,4.11,4.11,0,0,1-2.7.87,4.73,4.73,0,0,1-1.71-.31,3.69,3.69,0,0,1-1.32-.88,4,4,0,0,1-.85-1.33,4.73,4.73,0,0,1-.3-1.71,5.4,5.4,0,0,1,.28-1.78,4.07,4.07,0,0,1,.82-1.42,3.83,3.83,0,0,1,1.33-.94,4.57,4.57,0,0,1,1.79-.34,5.13,5.13,0,0,1,1.42.2,3.72,3.72,0,0,1,1.22.58,3.28,3.28,0,0,1,.87,1,3.13,3.13,0,0,1,.38,1.38h-2.22A1.52,1.52,0,0,0,597.76,138.88Z" style="fill:#272727"/><path d="M605.42,143.68a2.36,2.36,0,0,0,2.66.15,1.38,1.38,0,0,0,.6-.73h2a3.78,3.78,0,0,1-1.47,2.13,4.3,4.3,0,0,1-2.4.64,4.92,4.92,0,0,1-1.76-.31,3.84,3.84,0,0,1-1.33-.89,4.09,4.09,0,0,1-.84-1.38,5.2,5.2,0,0,1-.29-1.76,4.91,4.91,0,0,1,.3-1.73,4.1,4.1,0,0,1,.87-1.38,4,4,0,0,1,1.33-.92,4.36,4.36,0,0,1,1.72-.34,3.93,3.93,0,0,1,1.84.41,3.71,3.71,0,0,1,1.29,1.1,4.44,4.44,0,0,1,.73,1.57,5.88,5.88,0,0,1,.16,1.84h-6A2.3,2.3,0,0,0,605.42,143.68Zm2.57-4.36a1.63,1.63,0,0,0-1.24-.44,2,2,0,0,0-.91.18,1.65,1.65,0,0,0-.57.46,1.6,1.6,0,0,0-.31.57,3.41,3.41,0,0,0-.1.55h3.7A2.69,2.69,0,0,0,608,139.32Z" style="fill:#272727"/><path d="M616.72,137.39v1.52h-1.67V143a1.1,1.1,0,0,0,.2.77,1.07,1.07,0,0,0,.76.19h.37l.34,0v1.76a6.06,6.06,0,0,1-.64.06c-.24,0-.47,0-.69,0a6.36,6.36,0,0,1-1-.07,2.32,2.32,0,0,1-.83-.28,1.54,1.54,0,0,1-.57-.59,2.13,2.13,0,0,1-.21-1v-4.88h-1.37v-1.52h1.37v-2.48h2.27v2.48Z" style="fill:#272727"/><path d="M664,124.52,668.25,136h-2.6l-.87-2.55h-4.27l-.9,2.55h-2.52l4.32-11.43Zm.15,7-1.44-4.19h0l-1.48,4.19Z" style="fill:#272727"/><path d="M671.17,127.68v1h0a2.49,2.49,0,0,1,1-1,3.17,3.17,0,0,1,1.41-.31,3.65,3.65,0,0,1,1.68.37,3.49,3.49,0,0,1,1.17,1,4,4,0,0,1,.69,1.41,6.27,6.27,0,0,1,.22,1.69,5.62,5.62,0,0,1-.22,1.6,4.14,4.14,0,0,1-.68,1.36,3.25,3.25,0,0,1-1.14.94,3.33,3.33,0,0,1-1.59.36,3.25,3.25,0,0,1-1.42-.32,2.6,2.6,0,0,1-1.06-.92h0v3.92H669V127.68Zm3,6.56a1.91,1.91,0,0,0,.61-.59,2.41,2.41,0,0,0,.32-.84,4.5,4.5,0,0,0,.1-1,4.59,4.59,0,0,0-.1-1,2.73,2.73,0,0,0-.35-.86,1.84,1.84,0,0,0-.61-.6,1.68,1.68,0,0,0-.92-.24,1.7,1.7,0,0,0-.94.24,1.84,1.84,0,0,0-.61.6,2.63,2.63,0,0,0-.33.84,5.47,5.47,0,0,0-.09,1,4.5,4.5,0,0,0,.1,1,2.43,2.43,0,0,0,.34.84,1.7,1.7,0,0,0,1.54.81A1.79,1.79,0,0,0,674.12,134.24Z" style="fill:#272727"/><path d="M680.94,127.68v1h0a2.46,2.46,0,0,1,1.06-1,3.17,3.17,0,0,1,1.41-.31,3.65,3.65,0,0,1,1.68.37,3.49,3.49,0,0,1,1.17,1,3.86,3.86,0,0,1,.68,1.41,6.27,6.27,0,0,1,.23,1.69,5.63,5.63,0,0,1-.23,1.6,3.78,3.78,0,0,1-.68,1.36,3.22,3.22,0,0,1-1.13.94,3.36,3.36,0,0,1-1.59.36,3.18,3.18,0,0,1-1.42-.32,2.54,2.54,0,0,1-1.06-.92h0v3.92h-2.27V127.68Zm2.95,6.56a1.81,1.81,0,0,0,.61-.59,2.24,2.24,0,0,0,.33-.84,5.23,5.23,0,0,0,.1-1,4.6,4.6,0,0,0-.11-1,2.71,2.71,0,0,0-.34-.86,1.87,1.87,0,0,0-.62-.6,1.9,1.9,0,0,0-1.85,0,1.75,1.75,0,0,0-.61.6,2.24,2.24,0,0,0-.33.84,5.47,5.47,0,0,0-.1,1,4.51,4.51,0,0,0,.11,1,2.63,2.63,0,0,0,.33.84,1.73,1.73,0,0,0,1.55.81A1.78,1.78,0,0,0,683.89,134.24Z" style="fill:#272727"/><path d="M690.89,124.52V136h-2.27V124.52Z" style="fill:#272727"/><path d="M692.75,126.4v-1.88H695v1.88Zm2.27,1.28V136h-2.27v-8.27Z" style="fill:#272727"/><path d="M700.77,129.16a1.66,1.66,0,0,0-.92.25,2.16,2.16,0,0,0-.6.64,2.74,2.74,0,0,0-.32.87,4.2,4.2,0,0,0-.1.93,4,4,0,0,0,.1.91,2.56,2.56,0,0,0,.31.84,1.73,1.73,0,0,0,.58.62A1.88,1.88,0,0,0,702,134a2.14,2.14,0,0,0,.56-1.22h2.19a3.75,3.75,0,0,1-1.28,2.51,4.14,4.14,0,0,1-2.71.87,4.51,4.51,0,0,1-1.7-.32,3.54,3.54,0,0,1-1.32-.87,4,4,0,0,1-.85-1.33,4.73,4.73,0,0,1-.3-1.71,5.4,5.4,0,0,1,.28-1.78,4,4,0,0,1,.82-1.43,3.71,3.71,0,0,1,1.33-.93,4.4,4.4,0,0,1,1.79-.34,5.59,5.59,0,0,1,1.42.19,3.79,3.79,0,0,1,1.21.59,3.27,3.27,0,0,1,.88,1,3.18,3.18,0,0,1,.38,1.39h-2.22A1.53,1.53,0,0,0,700.77,129.16Z" style="fill:#272727"/><path d="M705.9,130.22a2.68,2.68,0,0,1,.4-1.33,2.81,2.81,0,0,1,.9-.85,4,4,0,0,1,1.22-.45,7,7,0,0,1,1.37-.14,8.9,8.9,0,0,1,1.26.09,3.89,3.89,0,0,1,1.17.34,2.44,2.44,0,0,1,.87.72,2,2,0,0,1,.33,1.2v4.31a7.4,7.4,0,0,0,.07,1.07,1.86,1.86,0,0,0,.22.77h-2.3a2.67,2.67,0,0,1-.16-.8,3,3,0,0,1-1.28.78,5.22,5.22,0,0,1-1.51.23,3.9,3.9,0,0,1-1.1-.15,2.38,2.38,0,0,1-.9-.45,2.16,2.16,0,0,1-.6-.76,2.68,2.68,0,0,1-.21-1.11,2.49,2.49,0,0,1,.24-1.16,2.27,2.27,0,0,1,.64-.73,2.84,2.84,0,0,1,.9-.4,8.81,8.81,0,0,1,1-.22c.34-.05.67-.1,1-.13a6.26,6.26,0,0,0,.88-.14,1.65,1.65,0,0,0,.61-.28.61.61,0,0,0,.21-.54,1.19,1.19,0,0,0-.12-.58.88.88,0,0,0-.32-.34,1.32,1.32,0,0,0-.46-.16,5.1,5.1,0,0,0-.57,0,1.76,1.76,0,0,0-1.06.29,1.33,1.33,0,0,0-.45,1Zm5.25,1.68a1,1,0,0,1-.36.2,3.09,3.09,0,0,1-.46.12l-.52.08-.55.08a4.07,4.07,0,0,0-.5.13,1.33,1.33,0,0,0-.43.21,1,1,0,0,0-.3.35,1.16,1.16,0,0,0-.11.53,1.13,1.13,0,0,0,.11.51.87.87,0,0,0,.3.33,1.27,1.27,0,0,0,.45.16,2.32,2.32,0,0,0,.53.05,2,2,0,0,0,1-.22,1.47,1.47,0,0,0,.54-.54,1.76,1.76,0,0,0,.22-.63,3.64,3.64,0,0,0,0-.51Z" style="fill:#272727"/><path d="M719.73,127.68v1.52h-1.67v4.09a1.16,1.16,0,0,0,.19.77,1.12,1.12,0,0,0,.77.19h.37l.34-.05V136a6.06,6.06,0,0,1-.64.06l-.69,0a7.85,7.85,0,0,1-1-.07,2.32,2.32,0,0,1-.83-.28,1.5,1.5,0,0,1-.57-.6,2.06,2.06,0,0,1-.21-1V129.2h-1.38v-1.52h1.38V125.2h2.27v2.48Z" style="fill:#272727"/><path d="M720.88,126.4v-1.88h2.27v1.88Zm2.27,1.28V136h-2.27v-8.27Z" style="fill:#272727"/><path d="M725,130a3.89,3.89,0,0,1,.86-1.38,4,4,0,0,1,1.35-.88,4.88,4.88,0,0,1,1.76-.31,5,5,0,0,1,1.77.31,4.15,4.15,0,0,1,1.35.88,3.89,3.89,0,0,1,.86,1.38,5.15,5.15,0,0,1,.31,1.8,5.05,5.05,0,0,1-.31,1.79,3.71,3.71,0,0,1-2.21,2.24,5,5,0,0,1-1.77.31,4.88,4.88,0,0,1-1.76-.31,3.74,3.74,0,0,1-1.35-.87,3.85,3.85,0,0,1-.86-1.37,5.05,5.05,0,0,1-.3-1.79A5.15,5.15,0,0,1,725,130Zm2.06,2.77a2.89,2.89,0,0,0,.33.85,1.78,1.78,0,0,0,.62.6,1.84,1.84,0,0,0,1,.22,2,2,0,0,0,1-.22,1.78,1.78,0,0,0,.62-.6,2.89,2.89,0,0,0,.33-.85,5.23,5.23,0,0,0,.09-1,5.33,5.33,0,0,0-.09-1,2.63,2.63,0,0,0-.33-.84,1.78,1.78,0,0,0-.62-.6,1.86,1.86,0,0,0-1-.24,1.75,1.75,0,0,0-1,.24,1.78,1.78,0,0,0-.62.6,2.63,2.63,0,0,0-.33.84,5.33,5.33,0,0,0-.09,1A5.23,5.23,0,0,0,727.05,132.79Z" style="fill:#272727"/><path d="M736.88,127.68v1.15h0a2.68,2.68,0,0,1,1.12-1.05,3.24,3.24,0,0,1,1.41-.33,4,4,0,0,1,1.5.25,2.26,2.26,0,0,1,.92.69,2.68,2.68,0,0,1,.47,1.07,6.7,6.7,0,0,1,.14,1.4V136h-2.27v-4.67a2.91,2.91,0,0,0-.32-1.53,1.25,1.25,0,0,0-1.14-.51,1.55,1.55,0,0,0-1.34.56,3,3,0,0,0-.42,1.81V136h-2.27v-8.27Z" style="fill:#272727"/><path d="M746.12,133.89a1.24,1.24,0,0,0,.39.43,1.46,1.46,0,0,0,.55.25,2.36,2.36,0,0,0,.65.08,2.92,2.92,0,0,0,.5-.05,1.71,1.71,0,0,0,.48-.18,1,1,0,0,0,.36-.32.8.8,0,0,0,.15-.5c0-.34-.23-.6-.68-.77a14,14,0,0,0-1.9-.51c-.33-.08-.65-.17-1-.27a3.26,3.26,0,0,1-.84-.4,1.94,1.94,0,0,1-.59-.62,1.77,1.77,0,0,1-.22-.92,2.47,2.47,0,0,1,.31-1.31,2.35,2.35,0,0,1,.82-.81,3.56,3.56,0,0,1,1.16-.42,6.87,6.87,0,0,1,2.61,0A3.64,3.64,0,0,1,750,128a2.64,2.64,0,0,1,.82.81,2.8,2.8,0,0,1,.4,1.27h-2.17a1,1,0,0,0-.49-.89,2.33,2.33,0,0,0-1.06-.23l-.41,0a1.3,1.3,0,0,0-.41.1.79.79,0,0,0-.31.23.59.59,0,0,0-.13.41.63.63,0,0,0,.22.5,1.92,1.92,0,0,0,.59.31,6.49,6.49,0,0,0,.82.21l.94.21c.34.08.66.17,1,.27a3,3,0,0,1,.84.43,2,2,0,0,1,.6.65,2.07,2.07,0,0,1,.22,1,2.62,2.62,0,0,1-.33,1.37,2.68,2.68,0,0,1-.85.89,3.68,3.68,0,0,1-1.21.47,7.2,7.2,0,0,1-1.39.14,6.46,6.46,0,0,1-1.4-.15,3.51,3.51,0,0,1-1.23-.48,2.68,2.68,0,0,1-.88-.89,2.81,2.81,0,0,1-.38-1.38H746A1.23,1.23,0,0,0,746.12,133.89Z" style="fill:#272727"/><path d="M694.58,143.72v2.12h-5.52v2.64h4.79v2h-4.79v4.72h-2.51V143.72Z" style="fill:#272727"/><path d="M695.7,149.42a2.68,2.68,0,0,1,.4-1.33,2.81,2.81,0,0,1,.9-.85,4,4,0,0,1,1.22-.45,7,7,0,0,1,1.37-.14,8.9,8.9,0,0,1,1.26.09,3.89,3.89,0,0,1,1.17.34,2.44,2.44,0,0,1,.87.72,2,2,0,0,1,.33,1.2v4.31a7.4,7.4,0,0,0,.07,1.07,1.86,1.86,0,0,0,.22.77h-2.3a2.85,2.85,0,0,1-.11-.39c0-.14,0-.27-.05-.41a3,3,0,0,1-1.28.78,5.17,5.17,0,0,1-1.51.23,3.9,3.9,0,0,1-1.1-.15,2.38,2.38,0,0,1-.9-.45,2.16,2.16,0,0,1-.6-.76,2.68,2.68,0,0,1-.21-1.11,2.49,2.49,0,0,1,.24-1.16,2.27,2.27,0,0,1,.64-.73,2.84,2.84,0,0,1,.9-.4,8.81,8.81,0,0,1,1-.22c.34,0,.67-.1,1-.13a6.26,6.26,0,0,0,.88-.14,1.65,1.65,0,0,0,.61-.28.61.61,0,0,0,.21-.54,1.19,1.19,0,0,0-.12-.58.88.88,0,0,0-.32-.34,1.32,1.32,0,0,0-.46-.16,5.1,5.1,0,0,0-.57,0,1.76,1.76,0,0,0-1.06.29,1.33,1.33,0,0,0-.45,1ZM701,151.1a1,1,0,0,1-.36.2,3.09,3.09,0,0,1-.46.12l-.52.08-.55.08a4.07,4.07,0,0,0-.5.13,1.33,1.33,0,0,0-.43.21.92.92,0,0,0-.3.35,1,1,0,0,0-.11.53,1,1,0,0,0,.11.51.87.87,0,0,0,.3.33,1.27,1.27,0,0,0,.45.16,2.32,2.32,0,0,0,.53,0,2,2,0,0,0,1-.22,1.4,1.4,0,0,0,.54-.54,1.76,1.76,0,0,0,.22-.63,3.64,3.64,0,0,0,0-.51Z" style="fill:#272727"/><path d="M708.93,148.36a1.65,1.65,0,0,0-.91.25,2.16,2.16,0,0,0-.6.64,3,3,0,0,0-.33.87,4.88,4.88,0,0,0-.09.93,4.68,4.68,0,0,0,.09.91,2.82,2.82,0,0,0,.32.84,1.72,1.72,0,0,0,.58.62,1.61,1.61,0,0,0,.9.24,1.63,1.63,0,0,0,1.25-.46,2.07,2.07,0,0,0,.55-1.22h2.2a3.75,3.75,0,0,1-1.28,2.51,4.14,4.14,0,0,1-2.71.87,4.44,4.44,0,0,1-1.7-.32,3.54,3.54,0,0,1-1.32-.87,4,4,0,0,1-.85-1.33,4.73,4.73,0,0,1-.3-1.71,5.4,5.4,0,0,1,.28-1.78,4,4,0,0,1,.82-1.43,3.63,3.63,0,0,1,1.33-.93,4.4,4.4,0,0,1,1.79-.34,5.59,5.59,0,0,1,1.42.19,3.89,3.89,0,0,1,1.21.59,3,3,0,0,1,.87,1,3.05,3.05,0,0,1,.39,1.39h-2.23A1.53,1.53,0,0,0,708.93,148.36Z" style="fill:#272727"/><path d="M716.6,153.16a2,2,0,0,0,1.47.5,2,2,0,0,0,1.18-.34,1.44,1.44,0,0,0,.61-.73h2a3.82,3.82,0,0,1-1.47,2.13,4.38,4.38,0,0,1-2.4.64,4.68,4.68,0,0,1-1.76-.32,3.6,3.6,0,0,1-1.33-.88,4.19,4.19,0,0,1-.84-1.38,5.31,5.31,0,0,1,0-3.49,4,4,0,0,1,2.2-2.3,4.19,4.19,0,0,1,1.72-.34,4,4,0,0,1,1.84.41,3.71,3.71,0,0,1,1.29,1.1,4.57,4.57,0,0,1,.73,1.56,5.91,5.91,0,0,1,.16,1.84h-6A2.29,2.29,0,0,0,716.6,153.16Zm2.56-4.35a1.57,1.57,0,0,0-1.23-.45,2,2,0,0,0-.91.19,1.63,1.63,0,0,0-.57.45,1.73,1.73,0,0,0-.31.58,2.4,2.4,0,0,0-.1.54h3.69A2.52,2.52,0,0,0,719.16,148.81Z" style="fill:#272727"/><path d="M727.89,146.88v1.52h-1.66v4.09a.77.77,0,0,0,1,1h.37l.33-.05v1.76a5.59,5.59,0,0,1-.64.06l-.68,0a7.72,7.72,0,0,1-1-.07,2.38,2.38,0,0,1-.84-.28,1.5,1.5,0,0,1-.57-.6,2.19,2.19,0,0,1-.2-1V148.4h-1.38v-1.52H724V144.4h2.27v2.48Z" style="fill:#272727"/><path d="M814.71,124.52a3.77,3.77,0,0,1,1.38.25,3.22,3.22,0,0,1,1.06.68,2.93,2.93,0,0,1,.67,1,3.13,3.13,0,0,1,.23,1.23,3.45,3.45,0,0,1-.42,1.74,2.67,2.67,0,0,1-1.38,1.12v0a2,2,0,0,1,.76.39,2.18,2.18,0,0,1,.5.63,2.85,2.85,0,0,1,.28.79,6.58,6.58,0,0,1,.12.86c0,.19,0,.4,0,.64s0,.5.06.76a4.16,4.16,0,0,0,.13.72,1.52,1.52,0,0,0,.26.59h-2.51a4.34,4.34,0,0,1-.26-1.3c0-.5-.08-1-.14-1.44a2.31,2.31,0,0,0-.55-1.31,1.85,1.85,0,0,0-1.36-.42h-2.51V136h-2.51V124.52Zm-.9,5.17a1.94,1.94,0,0,0,1.3-.38,1.59,1.59,0,0,0,.43-1.25,1.53,1.53,0,0,0-.43-1.21,1.94,1.94,0,0,0-1.3-.37h-2.75v3.21Z" style="fill:#272727"/><path d="M822.29,134a2.34,2.34,0,0,0,2.66.16,1.49,1.49,0,0,0,.61-.73h2a3.82,3.82,0,0,1-1.47,2.13,4.43,4.43,0,0,1-2.4.64,4.68,4.68,0,0,1-1.76-.32,3.52,3.52,0,0,1-1.33-.88,4.19,4.19,0,0,1-.84-1.38,5,5,0,0,1-.3-1.76,4.7,4.7,0,0,1,.31-1.73,4.08,4.08,0,0,1,.86-1.38,4,4,0,0,1,1.34-.92,4.16,4.16,0,0,1,1.72-.34,4,4,0,0,1,1.84.41,3.59,3.59,0,0,1,1.28,1.1,4.48,4.48,0,0,1,.73,1.56,5.91,5.91,0,0,1,.16,1.84h-6A2.33,2.33,0,0,0,822.29,134Zm2.57-4.35a1.58,1.58,0,0,0-1.24-.45,2,2,0,0,0-.9.19,1.77,1.77,0,0,0-.58.45,1.89,1.89,0,0,0-.3.58,2.47,2.47,0,0,0-.11.54h3.7A2.7,2.7,0,0,0,824.86,129.61Z" style="fill:#272727"/><path d="M828.18,129.2v-1.52h1.36V127a2.47,2.47,0,0,1,.69-1.81,2.79,2.79,0,0,1,2.08-.71l.61,0,.59,0v1.69a7.45,7.45,0,0,0-.83,0,.91.91,0,0,0-.67.21,1.1,1.1,0,0,0-.2.73v.5h1.57v1.52h-1.57V136h-2.27V129.2Z" style="fill:#272727"/><path d="M836.81,134a2.32,2.32,0,0,0,2.65.16,1.44,1.44,0,0,0,.61-.73h2a3.82,3.82,0,0,1-1.47,2.13,4.38,4.38,0,0,1-2.4.64,4.68,4.68,0,0,1-1.76-.32,3.52,3.52,0,0,1-1.33-.88,4.19,4.19,0,0,1-.84-1.38,5.14,5.14,0,0,1,0-3.49,4.08,4.08,0,0,1,.86-1.38,4,4,0,0,1,1.34-.92,4.19,4.19,0,0,1,1.72-.34,4,4,0,0,1,1.84.41,3.71,3.71,0,0,1,1.29,1.1,4.64,4.64,0,0,1,.72,1.56,5.62,5.62,0,0,1,.16,1.84h-6A2.24,2.24,0,0,0,836.81,134Zm2.56-4.35a1.58,1.58,0,0,0-1.24-.45,2,2,0,0,0-.9.19,1.77,1.77,0,0,0-.58.45,1.89,1.89,0,0,0-.3.58,2.4,2.4,0,0,0-.1.54h3.69A2.61,2.61,0,0,0,839.37,129.61Z" style="fill:#272727"/><path d="M845.72,127.68v1.53h0a3.06,3.06,0,0,1,.43-.71,3,3,0,0,1,.62-.56,3.53,3.53,0,0,1,.76-.36,2.83,2.83,0,0,1,.83-.13,1.85,1.85,0,0,1,.49.08v2.11l-.38,0-.43,0a2.41,2.41,0,0,0-1.06.21,1.84,1.84,0,0,0-.69.57,2.31,2.31,0,0,0-.38.84,4.88,4.88,0,0,0-.11,1V136h-2.27v-8.27Z" style="fill:#272727"/><path d="M851.93,134a2.32,2.32,0,0,0,2.65.16,1.44,1.44,0,0,0,.61-.73h2a3.82,3.82,0,0,1-1.47,2.13,4.38,4.38,0,0,1-2.4.64,4.68,4.68,0,0,1-1.76-.32,3.6,3.6,0,0,1-1.33-.88,4.19,4.19,0,0,1-.84-1.38,5.14,5.14,0,0,1,0-3.49,4.08,4.08,0,0,1,.86-1.38,4,4,0,0,1,1.34-.92,4.19,4.19,0,0,1,1.72-.34,4,4,0,0,1,1.84.41,3.71,3.71,0,0,1,1.29,1.1,4.64,4.64,0,0,1,.72,1.56,5.62,5.62,0,0,1,.16,1.84h-6A2.24,2.24,0,0,0,851.93,134Zm2.56-4.35a1.58,1.58,0,0,0-1.24-.45,2,2,0,0,0-.9.19,1.77,1.77,0,0,0-.58.45,1.89,1.89,0,0,0-.3.58,2.4,2.4,0,0,0-.1.54h3.69A2.52,2.52,0,0,0,854.49,129.61Z" style="fill:#272727"/><path d="M860.84,127.68v1.15h0a2.68,2.68,0,0,1,1.12-1.05,3.24,3.24,0,0,1,1.41-.33,4,4,0,0,1,1.5.25,2.26,2.26,0,0,1,.92.69,2.68,2.68,0,0,1,.47,1.07,6.7,6.7,0,0,1,.14,1.4V136h-2.28v-4.67a2.92,2.92,0,0,0-.31-1.53,1.25,1.25,0,0,0-1.14-.51,1.55,1.55,0,0,0-1.34.56,3,3,0,0,0-.42,1.81V136h-2.27v-8.27Z" style="fill:#272727"/><path d="M872.12,129.16a1.6,1.6,0,0,0-.91.25,1.93,1.93,0,0,0-.6.64,2.54,2.54,0,0,0-.33.87,4.2,4.2,0,0,0-.1.93,4,4,0,0,0,.1.91,2.81,2.81,0,0,0,.31.84,1.73,1.73,0,0,0,.58.62,1.63,1.63,0,0,0,.9.24,1.67,1.67,0,0,0,1.26-.46,2.19,2.19,0,0,0,.55-1.22h2.19a3.75,3.75,0,0,1-1.28,2.51,4.14,4.14,0,0,1-2.71.87,4.51,4.51,0,0,1-1.7-.32,3.54,3.54,0,0,1-1.32-.87,4,4,0,0,1-.85-1.33,4.73,4.73,0,0,1-.3-1.71,5.4,5.4,0,0,1,.28-1.78,4.12,4.12,0,0,1,.82-1.43,3.8,3.8,0,0,1,1.33-.93,4.4,4.4,0,0,1,1.79-.34,5.53,5.53,0,0,1,1.42.19,3.79,3.79,0,0,1,1.21.59,3.27,3.27,0,0,1,.88,1,3.18,3.18,0,0,1,.38,1.39H873.8A1.53,1.53,0,0,0,872.12,129.16Z" style="fill:#272727"/><path d="M879.78,134a2,2,0,0,0,1.47.5,2,2,0,0,0,1.19-.34,1.42,1.42,0,0,0,.6-.73h2a3.78,3.78,0,0,1-1.47,2.13,4.38,4.38,0,0,1-2.4.64,4.71,4.71,0,0,1-1.76-.32,3.68,3.68,0,0,1-1.33-.88,4,4,0,0,1-.83-1.38,5.22,5.22,0,0,1,0-3.49,4.1,4.1,0,0,1,.87-1.38,4,4,0,0,1,1.33-.92,4.19,4.19,0,0,1,1.72-.34,3.93,3.93,0,0,1,1.84.41,3.63,3.63,0,0,1,1.29,1.1,4.48,4.48,0,0,1,.73,1.56,5.91,5.91,0,0,1,.16,1.84h-6A2.29,2.29,0,0,0,879.78,134Zm2.57-4.35a1.6,1.6,0,0,0-1.24-.45,2,2,0,0,0-.9.19,1.58,1.58,0,0,0-.58.45,1.69,1.69,0,0,0-.3.58,2.47,2.47,0,0,0-.11.54h3.7A2.7,2.7,0,0,0,882.35,129.61Z" style="fill:#272727"/><path d="M801,143.72v2.12H795.5v2.64h4.78v2H795.5v4.72H793V143.72Z" style="fill:#272727"/><path d="M804.66,153.16a2.34,2.34,0,0,0,2.66.16,1.49,1.49,0,0,0,.61-.73h2a3.79,3.79,0,0,1-1.48,2.13,4.38,4.38,0,0,1-2.4.64,4.71,4.71,0,0,1-1.76-.32,3.56,3.56,0,0,1-1.32-.88,3.88,3.88,0,0,1-.84-1.38,5.22,5.22,0,0,1,0-3.49,4.1,4.1,0,0,1,.87-1.38,4,4,0,0,1,1.33-.92,4.19,4.19,0,0,1,1.72-.34,3.93,3.93,0,0,1,1.84.41,3.54,3.54,0,0,1,1.29,1.1,4.39,4.39,0,0,1,.73,1.56,5.91,5.91,0,0,1,.16,1.84h-6A2.29,2.29,0,0,0,804.66,153.16Zm2.57-4.35a1.6,1.6,0,0,0-1.24-.45,2,2,0,0,0-.9.19,1.67,1.67,0,0,0-.58.45,1.69,1.69,0,0,0-.3.58,2.47,2.47,0,0,0-.11.54h3.7A2.7,2.7,0,0,0,807.23,148.81Z" style="fill:#272727"/><path d="M811.32,149.42a2.58,2.58,0,0,1,.4-1.33,2.78,2.78,0,0,1,.89-.85,4,4,0,0,1,1.23-.45,7,7,0,0,1,1.37-.14,9.11,9.11,0,0,1,1.26.09,3.89,3.89,0,0,1,1.17.34,2.32,2.32,0,0,1,.86.72,1.92,1.92,0,0,1,.34,1.2v4.31a9.2,9.2,0,0,0,.06,1.07,2,2,0,0,0,.23.77h-2.31c0-.13-.07-.26-.1-.39a2.9,2.9,0,0,1-.06-.41,3,3,0,0,1-1.28.78,5.1,5.1,0,0,1-1.5.23,4,4,0,0,1-1.11-.15,2.27,2.27,0,0,1-.89-.45,2,2,0,0,1-.6-.76,2.53,2.53,0,0,1-.22-1.11,2.49,2.49,0,0,1,.25-1.16A2.27,2.27,0,0,1,812,151a2.84,2.84,0,0,1,.9-.4,8.65,8.65,0,0,1,1-.22c.34,0,.68-.1,1-.13a6.5,6.5,0,0,0,.88-.14,1.65,1.65,0,0,0,.61-.28.61.61,0,0,0,.21-.54,1.19,1.19,0,0,0-.12-.58.88.88,0,0,0-.32-.34,1.37,1.37,0,0,0-.47-.16,4.78,4.78,0,0,0-.57,0,1.72,1.72,0,0,0-1.05.29,1.26,1.26,0,0,0-.45,1Zm5.25,1.68a1,1,0,0,1-.36.2,3.23,3.23,0,0,1-.47.12l-.52.08-.54.08a4.77,4.77,0,0,0-.51.13,1.56,1.56,0,0,0-.43.21,1,1,0,0,0-.29.35,1,1,0,0,0-.12.53,1,1,0,0,0,.12.51.8.8,0,0,0,.3.33,1.27,1.27,0,0,0,.45.16,2.27,2.27,0,0,0,.53,0,2,2,0,0,0,1-.22,1.55,1.55,0,0,0,.54-.54,1.76,1.76,0,0,0,.22-.63c0-.21,0-.38,0-.51Z" style="fill:#272727"/><path d="M825.14,146.88v1.52h-1.66v4.09a.77.77,0,0,0,1,1h.37l.33-.05v1.76a5.59,5.59,0,0,1-.64.06l-.69,0a8,8,0,0,1-1-.07,2.39,2.39,0,0,1-.83-.28,1.5,1.5,0,0,1-.57-.6,2.19,2.19,0,0,1-.2-1V148.4h-1.38v-1.52h1.38V144.4h2.27v2.48Z" style="fill:#272727"/><path d="M831.83,155.15V154h-.05a2.6,2.6,0,0,1-1.12,1,3.37,3.37,0,0,1-1.41.32,4,4,0,0,1-1.49-.24,2.16,2.16,0,0,1-.92-.68,2.6,2.6,0,0,1-.47-1.08,6.63,6.63,0,0,1-.14-1.4v-5.08h2.27v4.67a3,3,0,0,0,.32,1.53,1.26,1.26,0,0,0,1.14.5,1.56,1.56,0,0,0,1.34-.55,3.07,3.07,0,0,0,.42-1.82v-4.33H834v8.27Z" style="fill:#272727"/><path d="M837.88,146.88v1.53h0a3.06,3.06,0,0,1,.43-.71,2.81,2.81,0,0,1,.63-.56,3.24,3.24,0,0,1,.75-.36,2.83,2.83,0,0,1,.83-.13,2,2,0,0,1,.5.08v2.11l-.39-.05-.43,0a2.41,2.41,0,0,0-1.06.21,1.84,1.84,0,0,0-.69.57,2.31,2.31,0,0,0-.38.84,4.88,4.88,0,0,0-.11,1v3.73h-2.27v-8.27Z" style="fill:#272727"/><path d="M844.09,153.16a2,2,0,0,0,1.47.5,2,2,0,0,0,1.18-.34,1.44,1.44,0,0,0,.61-.73h2a3.82,3.82,0,0,1-1.47,2.13,4.38,4.38,0,0,1-2.4.64,4.68,4.68,0,0,1-1.76-.32,3.6,3.6,0,0,1-1.33-.88,4.19,4.19,0,0,1-.84-1.38,5.14,5.14,0,0,1,0-3.49,4.08,4.08,0,0,1,.86-1.38,4,4,0,0,1,1.34-.92,4.19,4.19,0,0,1,1.72-.34,4,4,0,0,1,1.84.41,3.71,3.71,0,0,1,1.29,1.1,4.55,4.55,0,0,1,.72,1.56,5.62,5.62,0,0,1,.16,1.84h-6A2.24,2.24,0,0,0,844.09,153.16Zm2.56-4.35a1.58,1.58,0,0,0-1.24-.45,2,2,0,0,0-.9.19,1.77,1.77,0,0,0-.58.45,1.89,1.89,0,0,0-.3.58,2.4,2.4,0,0,0-.1.54h3.69A2.52,2.52,0,0,0,846.65,148.81Z" style="fill:#272727"/><path d="M852.75,153.09a1.24,1.24,0,0,0,.39.43,1.53,1.53,0,0,0,.55.25,2.36,2.36,0,0,0,.65.08,3.14,3.14,0,0,0,.51,0,2,2,0,0,0,.48-.18,1.22,1.22,0,0,0,.36-.32.87.87,0,0,0,.14-.5c0-.35-.23-.6-.68-.77a13.6,13.6,0,0,0-1.9-.51q-.5-.12-1-.27a3,3,0,0,1-.84-.4,1.87,1.87,0,0,1-.6-.62,1.77,1.77,0,0,1-.22-.92,2.47,2.47,0,0,1,.31-1.31,2.3,2.3,0,0,1,.83-.81,3.5,3.5,0,0,1,1.15-.42,7,7,0,0,1,1.31-.12,6.9,6.9,0,0,1,1.3.13,3.54,3.54,0,0,1,1.13.43,2.57,2.57,0,0,1,.83.81,2.93,2.93,0,0,1,.39,1.27h-2.16a1,1,0,0,0-.5-.89,2.33,2.33,0,0,0-1.06-.23l-.41,0a1.3,1.3,0,0,0-.41.1.79.79,0,0,0-.31.23.59.59,0,0,0-.13.41.67.67,0,0,0,.22.5,1.92,1.92,0,0,0,.59.31,6.49,6.49,0,0,0,.82.21l1,.21c.33.08.65.17,1,.27a3.33,3.33,0,0,1,.84.43,2,2,0,0,1,.59.65,2,2,0,0,1,.22,1,2.62,2.62,0,0,1-.33,1.37,2.68,2.68,0,0,1-.85.89,3.6,3.6,0,0,1-1.21.47,7.1,7.1,0,0,1-1.38.14,6.62,6.62,0,0,1-1.41-.15,3.51,3.51,0,0,1-1.23-.48,2.77,2.77,0,0,1-.88-.89,2.73,2.73,0,0,1-.37-1.38h2.16A1.22,1.22,0,0,0,852.75,153.09Z" style="fill:#272727"/><path d="M872.15,143.72v2.12h-5.52v2.64h4.78v2h-4.78v4.72h-2.51V143.72Z" style="fill:#272727"/><path d="M873.27,149.42a2.58,2.58,0,0,1,.4-1.33,2.72,2.72,0,0,1,.9-.85,4,4,0,0,1,1.22-.45,7,7,0,0,1,1.37-.14,9.11,9.11,0,0,1,1.26.09,3.89,3.89,0,0,1,1.17.34,2.32,2.32,0,0,1,.86.72,1.92,1.92,0,0,1,.34,1.2v4.31a9.2,9.2,0,0,0,.06,1.07,2,2,0,0,0,.23.77h-2.31c0-.13-.07-.26-.1-.39a2.9,2.9,0,0,1-.06-.41,3,3,0,0,1-1.28.78,5.1,5.1,0,0,1-1.5.23,3.85,3.85,0,0,1-1.1-.15,2.25,2.25,0,0,1-.9-.45,2,2,0,0,1-.6-.76,2.53,2.53,0,0,1-.22-1.11,2.49,2.49,0,0,1,.25-1.16,2.27,2.27,0,0,1,.64-.73,2.84,2.84,0,0,1,.9-.4,8.65,8.65,0,0,1,1-.22c.34,0,.68-.1,1-.13a6.26,6.26,0,0,0,.88-.14,1.65,1.65,0,0,0,.61-.28.61.61,0,0,0,.21-.54,1.19,1.19,0,0,0-.12-.58.88.88,0,0,0-.32-.34,1.37,1.37,0,0,0-.47-.16,4.78,4.78,0,0,0-.57,0,1.74,1.74,0,0,0-1,.29,1.26,1.26,0,0,0-.45,1Zm5.25,1.68a1,1,0,0,1-.36.2,3.23,3.23,0,0,1-.47.12l-.52.08-.54.08a4.77,4.77,0,0,0-.51.13,1.56,1.56,0,0,0-.43.21,1,1,0,0,0-.29.35,1,1,0,0,0-.11.53,1,1,0,0,0,.11.51.8.8,0,0,0,.3.33,1.27,1.27,0,0,0,.45.16,2.32,2.32,0,0,0,.53,0,2,2,0,0,0,1-.22,1.55,1.55,0,0,0,.54-.54,1.76,1.76,0,0,0,.22-.63c0-.21,0-.38,0-.51Z" style="fill:#272727"/><path d="M886.5,148.36a1.63,1.63,0,0,0-.91.25,1.93,1.93,0,0,0-.6.64,2.76,2.76,0,0,0-.33.87,4.88,4.88,0,0,0-.09.93,4.68,4.68,0,0,0,.09.91,3.11,3.11,0,0,0,.31.84,1.84,1.84,0,0,0,.59.62,1.58,1.58,0,0,0,.89.24,1.64,1.64,0,0,0,1.26-.46,2.13,2.13,0,0,0,.55-1.22h2.19a3.71,3.71,0,0,1-1.28,2.51,4.09,4.09,0,0,1-2.7.87,4.44,4.44,0,0,1-1.7-.32,3.54,3.54,0,0,1-1.32-.87,3.84,3.84,0,0,1-.85-1.33,4.52,4.52,0,0,1-.31-1.71,5.68,5.68,0,0,1,.28-1.78,4,4,0,0,1,.83-1.43,3.63,3.63,0,0,1,1.33-.93,4.4,4.4,0,0,1,1.79-.34,5.45,5.45,0,0,1,1.41.19,3.84,3.84,0,0,1,1.22.59,3,3,0,0,1,.87,1,3.18,3.18,0,0,1,.39,1.39h-2.23A1.53,1.53,0,0,0,886.5,148.36Z" style="fill:#272727"/><path d="M894.16,153.16a2.07,2.07,0,0,0,1.48.5,2,2,0,0,0,1.18-.34,1.49,1.49,0,0,0,.61-.73h2a3.82,3.82,0,0,1-1.47,2.13,4.41,4.41,0,0,1-2.4.64,4.68,4.68,0,0,1-1.76-.32,3.52,3.52,0,0,1-1.33-.88,4.19,4.19,0,0,1-.84-1.38,5,5,0,0,1-.3-1.76,4.7,4.7,0,0,1,.31-1.73,4.08,4.08,0,0,1,.86-1.38,4,4,0,0,1,1.34-.92,4.16,4.16,0,0,1,1.72-.34,4,4,0,0,1,1.84.41,3.59,3.59,0,0,1,1.28,1.1,4.39,4.39,0,0,1,.73,1.56,5.62,5.62,0,0,1,.16,1.84h-6A2.33,2.33,0,0,0,894.16,153.16Zm2.57-4.35a1.58,1.58,0,0,0-1.24-.45,2,2,0,0,0-.9.19,1.77,1.77,0,0,0-.58.45,1.89,1.89,0,0,0-.3.58,3.24,3.24,0,0,0-.11.54h3.7A2.7,2.7,0,0,0,896.73,148.81Z" style="fill:#272727"/><path d="M905.46,146.88v1.52H903.8v4.09a.77.77,0,0,0,1,1h.36l.34-.05v1.76a5.82,5.82,0,0,1-.64.06l-.69,0a8,8,0,0,1-1-.07,2.39,2.39,0,0,1-.83-.28,1.5,1.5,0,0,1-.57-.6,2.06,2.06,0,0,1-.21-1V148.4h-1.37v-1.52h1.37V144.4h2.28v2.48Z" style="fill:#272727"/><path d="M383,321a2.7,2.7,0,0,0,.83,1,3.45,3.45,0,0,0,1.21.55,5.68,5.68,0,0,0,1.44.18,8.6,8.6,0,0,0,1.08-.08,4,4,0,0,0,1.08-.33,2.47,2.47,0,0,0,.84-.66,1.66,1.66,0,0,0,.33-1.06,1.48,1.48,0,0,0-.44-1.13,3.48,3.48,0,0,0-1.16-.72,12.79,12.79,0,0,0-1.64-.51c-.6-.14-1.22-.3-1.84-.48a17.05,17.05,0,0,1-1.88-.58,7.12,7.12,0,0,1-1.63-.9,4.11,4.11,0,0,1-1.61-3.39,4.45,4.45,0,0,1,.57-2.29,5.07,5.07,0,0,1,1.47-1.62,6.55,6.55,0,0,1,2.07-1,8.66,8.66,0,0,1,2.3-.31,10.85,10.85,0,0,1,2.58.3,6.36,6.36,0,0,1,2.2,1,4.84,4.84,0,0,1,1.52,1.72,5.2,5.2,0,0,1,.57,2.53h-3.65a2.89,2.89,0,0,0-.33-1.27,2,2,0,0,0-.73-.8,3.09,3.09,0,0,0-1-.4,6.43,6.43,0,0,0-1.29-.12,4.76,4.76,0,0,0-.91.09,2.64,2.64,0,0,0-.83.34,2.18,2.18,0,0,0-.61.6,1.6,1.6,0,0,0-.24.91,1.56,1.56,0,0,0,.19.81,1.67,1.67,0,0,0,.76.58,9.92,9.92,0,0,0,1.56.53l2.6.67c.32.07.77.18,1.34.35a6.81,6.81,0,0,1,1.69.8,5.12,5.12,0,0,1,1.45,1.48,4.18,4.18,0,0,1,.61,2.36,5.3,5.3,0,0,1-.45,2.19,4.85,4.85,0,0,1-1.36,1.74,6.42,6.42,0,0,1-2.23,1.14,10.66,10.66,0,0,1-3.09.41,10.83,10.83,0,0,1-2.74-.35,7,7,0,0,1-2.36-1.09,5.43,5.43,0,0,1-1.62-1.9,5.62,5.62,0,0,1-.57-2.74h3.65A3.13,3.13,0,0,0,383,321Z" style="fill:#fff"/><path d="M398.93,322.24a3.07,3.07,0,0,0,2.21.74,3,3,0,0,0,1.78-.52,2.11,2.11,0,0,0,.91-1.09h3a5.69,5.69,0,0,1-2.21,3.19,6.49,6.49,0,0,1-3.6,1,7.1,7.1,0,0,1-2.64-.46,5.55,5.55,0,0,1-2-1.34,5.75,5.75,0,0,1-1.26-2.06,7.46,7.46,0,0,1-.45-2.64,7.31,7.31,0,0,1,.46-2.59,6,6,0,0,1,3.3-3.46,6.56,6.56,0,0,1,2.58-.5,5.85,5.85,0,0,1,2.76.61,5.6,5.6,0,0,1,1.93,1.64,6.63,6.63,0,0,1,1.09,2.36,8.42,8.42,0,0,1,.24,2.76h-9A3.48,3.48,0,0,0,398.93,322.24Zm3.85-6.53a2.36,2.36,0,0,0-1.86-.67,3,3,0,0,0-1.35.27,2.51,2.51,0,0,0-1.32,1.55,3.93,3.93,0,0,0-.16.82h5.55A3.92,3.92,0,0,0,402.78,315.71Z" style="fill:#fff"/><path d="M408.92,316.62a3.81,3.81,0,0,1,.6-2,4.2,4.2,0,0,1,1.34-1.28,6.2,6.2,0,0,1,1.84-.68,10.87,10.87,0,0,1,2.05-.2,13.55,13.55,0,0,1,1.89.13,5.81,5.81,0,0,1,1.76.52,3.43,3.43,0,0,1,1.29,1.06,3,3,0,0,1,.51,1.82v6.45a13.83,13.83,0,0,0,.09,1.61,3,3,0,0,0,.34,1.15h-3.46a5.66,5.66,0,0,1-.15-.59,6,6,0,0,1-.09-.61,4.46,4.46,0,0,1-1.92,1.18,7.81,7.81,0,0,1-2.25.33,6.24,6.24,0,0,1-1.66-.21,3.92,3.92,0,0,1-1.34-.67,3,3,0,0,1-.9-1.16,3.79,3.79,0,0,1-.33-1.65,3.68,3.68,0,0,1,.37-1.74,3.09,3.09,0,0,1,1-1.09,4.28,4.28,0,0,1,1.35-.62c.5-.13,1-.24,1.52-.32s1-.14,1.51-.19a8.63,8.63,0,0,0,1.32-.22,2.18,2.18,0,0,0,.92-.42.94.94,0,0,0,.31-.8,1.83,1.83,0,0,0-.18-.88,1.36,1.36,0,0,0-.48-.5,1.87,1.87,0,0,0-.7-.24,5.67,5.67,0,0,0-.85-.06,2.56,2.56,0,0,0-1.58.43,1.94,1.94,0,0,0-.68,1.44Zm7.87,2.52a1.57,1.57,0,0,1-.54.3,6.49,6.49,0,0,1-.7.18q-.37.08-.78.12t-.81.12a6.49,6.49,0,0,0-.76.19,2.21,2.21,0,0,0-.65.33,1.46,1.46,0,0,0-.44.51,1.68,1.68,0,0,0-.17.79,1.62,1.62,0,0,0,.17.77,1.25,1.25,0,0,0,.45.49,2,2,0,0,0,.68.26,5,5,0,0,0,.79.07,3,3,0,0,0,1.56-.34,2.14,2.14,0,0,0,.81-.8,2.57,2.57,0,0,0,.33-.95,6.57,6.57,0,0,0,.06-.77Z" style="fill:#fff"/><path d="M426.08,312.8v2.31h0a4.27,4.27,0,0,1,1.59-1.91,4.7,4.7,0,0,1,1.13-.54,4,4,0,0,1,1.24-.19,2.65,2.65,0,0,1,.75.12v3.17a5.53,5.53,0,0,0-.58-.09l-.65,0A3.59,3.59,0,0,0,428,316a2.73,2.73,0,0,0-1,.85,3.3,3.3,0,0,0-.57,1.26,7,7,0,0,0-.17,1.56v5.59h-3.4V312.8Z" style="fill:#fff"/><path d="M437.67,315a2.38,2.38,0,0,0-1.37.37,2.86,2.86,0,0,0-.9,1,4,4,0,0,0-.49,1.29,6.83,6.83,0,0,0-.15,1.41,6.37,6.37,0,0,0,.15,1.36,4,4,0,0,0,.47,1.27,2.64,2.64,0,0,0,.87.92,2.43,2.43,0,0,0,1.35.36,2.52,2.52,0,0,0,1.88-.68,3.24,3.24,0,0,0,.83-1.84h3.29a5.69,5.69,0,0,1-1.92,3.77,6.23,6.23,0,0,1-4.06,1.29,6.86,6.86,0,0,1-2.56-.46,5.9,5.9,0,0,1-2-1.31,6.1,6.1,0,0,1-1.27-2,7,7,0,0,1-.45-2.55,8.32,8.32,0,0,1,.42-2.68,6,6,0,0,1,1.23-2.13,5.81,5.81,0,0,1,2-1.41,6.9,6.9,0,0,1,2.69-.5,7.51,7.51,0,0,1,2.13.29,5.68,5.68,0,0,1,1.82.87,4.52,4.52,0,0,1,1.88,3.54h-3.33A2.29,2.29,0,0,0,437.67,315Z" style="fill:#fff"/><path d="M448.92,308.08v6.45H449a3.94,3.94,0,0,1,1.65-1.57,4.44,4.44,0,0,1,2-.49,5.73,5.73,0,0,1,2.24.37,3.26,3.26,0,0,1,1.38,1,3.88,3.88,0,0,1,.71,1.61,9.7,9.7,0,0,1,.21,2.1v7.63h-3.41v-7a4.36,4.36,0,0,0-.48-2.29,1.87,1.87,0,0,0-1.71-.75,2.35,2.35,0,0,0-2,.82,4.59,4.59,0,0,0-.63,2.73v6.5h-3.4V308.08Z" style="fill:#fff"/><path d="M463.68,321.52v3.69a3.65,3.65,0,0,1-.3,1.5,3.78,3.78,0,0,1-.8,1.19,4.23,4.23,0,0,1-1.19.83,5.42,5.42,0,0,1-1.45.44v-1.73a1.92,1.92,0,0,0,.68-.28,2.58,2.58,0,0,0,.57-.52,2.07,2.07,0,0,0,.36-.67,2,2,0,0,0,.09-.76h-1.72v-3.69Z" style="fill:#fff"/><path d="M471.8,315.08V312.8h2v-1a3.72,3.72,0,0,1,1-2.71,4.2,4.2,0,0,1,3.12-1.05c.3,0,.61,0,.91,0l.89.06v2.55a10.1,10.1,0,0,0-1.25-.08,1.31,1.31,0,0,0-1,.33,1.58,1.58,0,0,0-.3,1.09v.74h2.36v2.28h-2.36v10.13h-3.4V315.08Z" style="fill:#fff"/><path d="M481.18,310.88v-2.8h3.41v2.8Zm3.41,1.92v12.41h-3.41V312.8Z" style="fill:#fff"/><path d="M490.78,308.08v17.13h-3.41V308.08Z" style="fill:#fff"/><path d="M500.28,312.8v2.28h-2.49v6.15a1.69,1.69,0,0,0,.28,1.15,1.71,1.71,0,0,0,1.16.29,4.93,4.93,0,0,0,.55,0,4,4,0,0,0,.5-.07v2.64a8.36,8.36,0,0,1-1,.1l-1,0a9,9,0,0,1-1.5-.11,3.48,3.48,0,0,1-1.25-.42,2.19,2.19,0,0,1-.85-.88,3.18,3.18,0,0,1-.31-1.52v-7.32h-2.06V312.8h2.06v-3.72h3.41v3.72Z" style="fill:#fff"/><path d="M505.56,322.24a3.07,3.07,0,0,0,2.21.74,3,3,0,0,0,1.78-.52,2.11,2.11,0,0,0,.91-1.09h3a5.69,5.69,0,0,1-2.21,3.19,6.49,6.49,0,0,1-3.6,1,7.1,7.1,0,0,1-2.64-.46,5.55,5.55,0,0,1-2-1.34,5.75,5.75,0,0,1-1.26-2.06,7.46,7.46,0,0,1-.45-2.64,7.31,7.31,0,0,1,.46-2.59,6,6,0,0,1,3.3-3.46,6.56,6.56,0,0,1,2.58-.5,5.85,5.85,0,0,1,2.76.61,5.6,5.6,0,0,1,1.93,1.64,6.63,6.63,0,0,1,1.09,2.36,8.42,8.42,0,0,1,.24,2.76h-8.95A3.48,3.48,0,0,0,505.56,322.24Zm3.85-6.53a2.36,2.36,0,0,0-1.86-.67,3,3,0,0,0-1.35.27,2.51,2.51,0,0,0-1.32,1.55,3.93,3.93,0,0,0-.16.82h5.55A3.92,3.92,0,0,0,509.41,315.71Z" style="fill:#fff"/><path d="M518.93,312.8v2.31H519a3.93,3.93,0,0,1,.65-1.07,4.12,4.12,0,0,1,.93-.84,4.7,4.7,0,0,1,1.13-.54,4,4,0,0,1,1.25-.19,2.64,2.64,0,0,1,.74.12v3.17a5.74,5.74,0,0,0-.57-.09l-.65,0a3.64,3.64,0,0,0-1.59.31,2.73,2.73,0,0,0-1,.85,3.44,3.44,0,0,0-.56,1.26,6.43,6.43,0,0,0-.17,1.56v5.59h-3.41V312.8Z" style="fill:#fff"/><path d="M526.75,321.52v3.69a3.65,3.65,0,0,1-.3,1.5,3.78,3.78,0,0,1-.8,1.19,4.23,4.23,0,0,1-1.19.83,5.42,5.42,0,0,1-1.45.44v-1.73a1.92,1.92,0,0,0,.68-.28,2.58,2.58,0,0,0,.57-.52,2.07,2.07,0,0,0,.36-.67,2,2,0,0,0,.09-.76H523v-3.69Z" style="fill:#fff"/><path d="M539.67,308.08v17.13h-3.41V308.08Z" style="fill:#fff"/><path d="M546,322.24a3.07,3.07,0,0,0,2.21.74,3,3,0,0,0,1.78-.52,2.11,2.11,0,0,0,.91-1.09h3a5.69,5.69,0,0,1-2.21,3.19,6.49,6.49,0,0,1-3.6,1,7.1,7.1,0,0,1-2.64-.46,5.55,5.55,0,0,1-2-1.34,5.75,5.75,0,0,1-1.26-2.06,7.46,7.46,0,0,1-.45-2.64,7.31,7.31,0,0,1,.46-2.59,6,6,0,0,1,3.3-3.46,6.56,6.56,0,0,1,2.58-.5,5.85,5.85,0,0,1,2.76.61,5.6,5.6,0,0,1,1.93,1.64,6.63,6.63,0,0,1,1.09,2.36,8.42,8.42,0,0,1,.24,2.76h-9A3.48,3.48,0,0,0,546,322.24Zm3.85-6.53A2.36,2.36,0,0,0,548,315a3,3,0,0,0-1.35.27,2.51,2.51,0,0,0-1.32,1.55,3.93,3.93,0,0,0-.16.82h5.55A3.92,3.92,0,0,0,549.85,315.71Z" style="fill:#fff"/><path d="M556,316.62a3.81,3.81,0,0,1,.6-2,4.2,4.2,0,0,1,1.34-1.28,6.2,6.2,0,0,1,1.84-.68,10.87,10.87,0,0,1,2.05-.2,13.55,13.55,0,0,1,1.89.13,5.81,5.81,0,0,1,1.76.52,3.43,3.43,0,0,1,1.29,1.06,3,3,0,0,1,.51,1.82v6.45a13.83,13.83,0,0,0,.09,1.61,3,3,0,0,0,.34,1.15h-3.46a5.66,5.66,0,0,1-.15-.59A6,6,0,0,1,564,324a4.46,4.46,0,0,1-1.92,1.18,7.81,7.81,0,0,1-2.25.33,6.24,6.24,0,0,1-1.66-.21,3.92,3.92,0,0,1-1.34-.67,3,3,0,0,1-.9-1.16,3.79,3.79,0,0,1-.33-1.65,3.68,3.68,0,0,1,.37-1.74,3.09,3.09,0,0,1,1-1.09,4.28,4.28,0,0,1,1.35-.62c.5-.13,1-.24,1.52-.32s1-.14,1.51-.19a8.63,8.63,0,0,0,1.32-.22,2.18,2.18,0,0,0,.92-.42.94.94,0,0,0,.31-.8,1.83,1.83,0,0,0-.18-.88,1.36,1.36,0,0,0-.48-.5,1.87,1.87,0,0,0-.7-.24,5.67,5.67,0,0,0-.85-.06,2.56,2.56,0,0,0-1.58.43,1.94,1.94,0,0,0-.68,1.44Zm7.87,2.52a1.57,1.57,0,0,1-.54.3,6.49,6.49,0,0,1-.7.18q-.37.08-.78.12t-.81.12a6.49,6.49,0,0,0-.76.19,2.21,2.21,0,0,0-.65.33,1.46,1.46,0,0,0-.44.51,1.68,1.68,0,0,0-.17.79,1.62,1.62,0,0,0,.17.77,1.25,1.25,0,0,0,.45.49,2,2,0,0,0,.68.26,5,5,0,0,0,.79.07,3,3,0,0,0,1.56-.34,2.14,2.14,0,0,0,.81-.8,2.57,2.57,0,0,0,.33-.95,6.57,6.57,0,0,0,.06-.77Z" style="fill:#fff"/><path d="M573.15,312.8v2.31h0a4.27,4.27,0,0,1,1.59-1.91,4.7,4.7,0,0,1,1.13-.54,4,4,0,0,1,1.24-.19,2.65,2.65,0,0,1,.75.12v3.17a5.53,5.53,0,0,0-.58-.09l-.65,0a3.59,3.59,0,0,0-1.58.31,2.73,2.73,0,0,0-1,.85,3.3,3.3,0,0,0-.57,1.26,7,7,0,0,0-.17,1.56v5.59h-3.4V312.8Z" style="fill:#fff"/><path d="M582.91,312.8v1.73H583a3.9,3.9,0,0,1,1.68-1.57,4.79,4.79,0,0,1,2.11-.49,5.73,5.73,0,0,1,2.24.37,3.26,3.26,0,0,1,1.38,1,4,4,0,0,1,.71,1.61,9.73,9.73,0,0,1,.2,2.1v7.63h-3.4v-7a4.26,4.26,0,0,0-.49-2.29,1.85,1.85,0,0,0-1.7-.75,2.34,2.34,0,0,0-2,.82,4.59,4.59,0,0,0-.63,2.73v6.5h-3.41V312.8Z" style="fill:#fff"/><path d="M597.84,321.52v3.69a3.65,3.65,0,0,1-.3,1.5,4,4,0,0,1-.8,1.19,4.23,4.23,0,0,1-1.19.83,5.54,5.54,0,0,1-1.45.44v-1.73a1.92,1.92,0,0,0,.68-.28,2.53,2.53,0,0,0,.56-.52,2.09,2.09,0,0,0,.37-.67,2.17,2.17,0,0,0,.09-.76h-1.73v-3.69Z" style="fill:#fff"/><path d="M613.18,315a2.38,2.38,0,0,0-1.37.37,2.86,2.86,0,0,0-.9,1,4,4,0,0,0-.49,1.29,6.83,6.83,0,0,0-.15,1.41,6.37,6.37,0,0,0,.15,1.36,4,4,0,0,0,.47,1.27,2.64,2.64,0,0,0,.87.92,2.42,2.42,0,0,0,1.34.36,2.53,2.53,0,0,0,1.89-.68,3.24,3.24,0,0,0,.83-1.84h3.28a5.6,5.6,0,0,1-1.92,3.77,6.18,6.18,0,0,1-4,1.29,6.86,6.86,0,0,1-2.56-.46,5.9,5.9,0,0,1-2-1.31,6.1,6.1,0,0,1-1.27-2,7,7,0,0,1-.45-2.55,8.32,8.32,0,0,1,.42-2.68,6,6,0,0,1,1.23-2.13,5.81,5.81,0,0,1,2-1.41,6.9,6.9,0,0,1,2.69-.5,7.51,7.51,0,0,1,2.13.29,5.68,5.68,0,0,1,1.82.87,4.75,4.75,0,0,1,1.31,1.47,4.6,4.6,0,0,1,.57,2.07H615.7A2.29,2.29,0,0,0,613.18,315Z" style="fill:#fff"/><path d="M621.1,316.32a5.64,5.64,0,0,1,1.29-2.06,6,6,0,0,1,2-1.33,7.1,7.1,0,0,1,2.64-.46,7.23,7.23,0,0,1,2.65.46,5.92,5.92,0,0,1,2,1.33,5.64,5.64,0,0,1,1.29,2.06,7.5,7.5,0,0,1,.46,2.7,7.41,7.41,0,0,1-.46,2.69,5.59,5.59,0,0,1-3.32,3.36,7.44,7.44,0,0,1-2.65.45,7.31,7.31,0,0,1-2.64-.45,5.61,5.61,0,0,1-3.31-3.36,7.41,7.41,0,0,1-.46-2.69A7.5,7.5,0,0,1,621.1,316.32Zm3.09,4.15a4,4,0,0,0,.49,1.27,2.67,2.67,0,0,0,.93.9,2.74,2.74,0,0,0,1.44.34,2.8,2.8,0,0,0,1.45-.34,2.54,2.54,0,0,0,.94-.9,4,4,0,0,0,.49-1.27,7.67,7.67,0,0,0,.14-1.45,7.85,7.85,0,0,0-.14-1.46,3.92,3.92,0,0,0-.49-1.28,2.9,2.9,0,0,0-.94-.9,2.8,2.8,0,0,0-1.45-.34,2.74,2.74,0,0,0-1.44.34,3.08,3.08,0,0,0-.93.9,3.92,3.92,0,0,0-.49,1.28,7.85,7.85,0,0,0-.14,1.46A7.67,7.67,0,0,0,624.19,320.47Z" style="fill:#fff"/><path d="M638.93,312.8v1.73H639a3.9,3.9,0,0,1,1.68-1.57,4.83,4.83,0,0,1,2.11-.49,5.81,5.81,0,0,1,2.25.37,3.39,3.39,0,0,1,1.38,1,4,4,0,0,1,.7,1.61,9.7,9.7,0,0,1,.21,2.1v7.63h-3.41v-7a4.36,4.36,0,0,0-.48-2.29,1.86,1.86,0,0,0-1.7-.75,2.37,2.37,0,0,0-2,.82,4.6,4.6,0,0,0-.62,2.73v6.5h-3.41V312.8Z" style="fill:#fff"/><path d="M656.74,312.8v2.28h-2.5v6.15a1.68,1.68,0,0,0,.29,1.15,1.66,1.66,0,0,0,1.15.29,4.8,4.8,0,0,0,.55,0,3.92,3.92,0,0,0,.51-.07v2.64a8.6,8.6,0,0,1-1,.1l-1,0a9,9,0,0,1-1.5-.11,3.42,3.42,0,0,1-1.25-.42,2.21,2.21,0,0,1-.86-.88,3.31,3.31,0,0,1-.31-1.52v-7.32h-2.06V312.8h2.06v-3.72h3.41v3.72Z" style="fill:#fff"/><path d="M661.61,312.8v2.31h0a4.16,4.16,0,0,1,.64-1.07,4.39,4.39,0,0,1,.94-.84,4.7,4.7,0,0,1,1.13-.54,4,4,0,0,1,1.25-.19,2.64,2.64,0,0,1,.74.12v3.17a5.53,5.53,0,0,0-.58-.09l-.64,0a3.61,3.61,0,0,0-1.59.31,2.73,2.73,0,0,0-1,.85,3.46,3.46,0,0,0-.57,1.26,7,7,0,0,0-.16,1.56v5.59h-3.41V312.8Z" style="fill:#fff"/><path d="M667.8,310.88v-2.8h3.41v2.8Zm3.41,1.92v12.41H667.8V312.8Z" style="fill:#fff"/><path d="M677.3,308.08v6.23h.05a3.74,3.74,0,0,1,1.69-1.4,5.9,5.9,0,0,1,2.22-.44,4.72,4.72,0,0,1,3.5,1.56,6,6,0,0,1,1.18,2,9.59,9.59,0,0,1,0,5.87,6,6,0,0,1-1.18,2,4.72,4.72,0,0,1-3.5,1.56,6.47,6.47,0,0,1-2.44-.43,3.12,3.12,0,0,1-1.64-1.46h0v1.58H673.9V308.08Zm5.52,9.43a3.81,3.81,0,0,0-.52-1.27,2.8,2.8,0,0,0-.9-.88,2.82,2.82,0,0,0-2.61,0,2.73,2.73,0,0,0-.91.88,3.83,3.83,0,0,0-.53,1.27,6.7,6.7,0,0,0,0,3,3.92,3.92,0,0,0,.53,1.27,2.73,2.73,0,0,0,.91.88,2.82,2.82,0,0,0,2.61,0,2.8,2.8,0,0,0,.9-.88,3.9,3.9,0,0,0,.52-1.27,6.7,6.7,0,0,0,0-3Z" style="fill:#fff"/><path d="M697,325.21v-1.73h-.07a3.81,3.81,0,0,1-1.68,1.56,5,5,0,0,1-2.12.48,5.93,5.93,0,0,1-2.24-.36,3.29,3.29,0,0,1-1.38-1,4.11,4.11,0,0,1-.71-1.6,10.58,10.58,0,0,1-.2-2.11V312.8H692v7a4.32,4.32,0,0,0,.48,2.29,1.85,1.85,0,0,0,1.7.76,2.38,2.38,0,0,0,2-.83,4.64,4.64,0,0,0,.62-2.72V312.8h3.41v12.41Z" style="fill:#fff"/><path d="M709.61,312.8v2.28h-2.5v6.15a1.16,1.16,0,0,0,1.44,1.44,4.8,4.8,0,0,0,.55,0,3.92,3.92,0,0,0,.51-.07v2.64a8.6,8.6,0,0,1-1,.1l-1,0a9,9,0,0,1-1.5-.11,3.42,3.42,0,0,1-1.25-.42,2.21,2.21,0,0,1-.86-.88,3.31,3.31,0,0,1-.31-1.52v-7.32h-2.06V312.8h2.06v-3.72h3.41v3.72Z" style="fill:#fff"/><path d="M714.89,322.24a3.06,3.06,0,0,0,2.2.74,3,3,0,0,0,1.78-.52,2.07,2.07,0,0,0,.91-1.09h3a5.68,5.68,0,0,1-2.2,3.19,6.54,6.54,0,0,1-3.6,1,7.1,7.1,0,0,1-2.64-.46,5.59,5.59,0,0,1-2-1.34,6,6,0,0,1-1.26-2.06,7.7,7.7,0,0,1-.44-2.64,7.3,7.3,0,0,1,.45-2.59A6,6,0,0,1,714.4,313a6.49,6.49,0,0,1,2.58-.5,5.91,5.91,0,0,1,2.76.61,5.69,5.69,0,0,1,1.93,1.64,7,7,0,0,1,1.09,2.36,9,9,0,0,1,.24,2.76h-9A3.39,3.39,0,0,0,714.89,322.24Zm3.85-6.53a2.39,2.39,0,0,0-1.86-.67,3.05,3.05,0,0,0-1.36.27,2.59,2.59,0,0,0-1.32,1.55,3.33,3.33,0,0,0-.15.82h5.54A3.91,3.91,0,0,0,718.74,315.71Z" style="fill:#fff"/><path d="M728.93,321.52v3.69h-3.77v-3.69Z" style="fill:#fff"/><path d="M735.6,321.52v3.69h-3.77v-3.69Z" style="fill:#fff"/><path d="M742.27,321.52v3.69H738.5v-3.69Z" style="fill:#fff"/></svg>