<?xml version="1.0" encoding="UTF-8"?><svg id="Layer_2" xmlns="http://www.w3.org/2000/svg" viewBox="0 0 817 411"><defs><style>.cls-1{letter-spacing:-.01em;}.cls-2{letter-spacing:-.01em;}.cls-3{letter-spacing:-.02em;}.cls-4{letter-spacing:-.02em;}.cls-5{letter-spacing:-.02em;}.cls-6{letter-spacing:-.03em;}.cls-7{letter-spacing:-.01em;}.cls-8{fill:#e6e7e8;}.cls-9{fill:#386479;}.cls-10{fill:#58595b;}.cls-11{letter-spacing:-.01em;}.cls-12{letter-spacing:-.02em;}.cls-13{letter-spacing:-.02em;}.cls-14{fill:#fff;font-size:15.94px;}.cls-14,.cls-15{font-family:D-DINCondensed-Bold, 'D-DIN Condensed';font-weight:700;}.cls-15{fill:#231f20;font-size:16px;}.cls-16,.cls-17{fill:none;stroke:#58595b;stroke-width:5px;}.cls-16,.cls-18,.cls-19,.cls-20{stroke-miterlimit:10;}.cls-21{letter-spacing:-.02em;}.cls-22{letter-spacing:-.02em;}.cls-23{letter-spacing:-.02em;}.cls-24{letter-spacing:-.05em;}.cls-25{letter-spacing:-.06em;}.cls-17{stroke-linejoin:round;}.cls-18{fill:#e95c25;}.cls-18,.cls-19,.cls-20{stroke:#fff;stroke-width:.66px;}.cls-19{fill:#939598;}.cls-26{letter-spacing:-.01em;}.cls-20{fill:#1d5e9b;}.cls-27{letter-spacing:0em;}.cls-28{letter-spacing:-.05em;}.cls-29{letter-spacing:0em;}.cls-30{letter-spacing:0em;}.cls-31{letter-spacing:0em;}.cls-32{letter-spacing:0em;}.cls-33{letter-spacing:0em;}.cls-34{letter-spacing:-.02em;}.cls-35{letter-spacing:-.02em;}.cls-36{letter-spacing:0em;}.cls-37{letter-spacing:0em;}</style></defs><g><circle class="cls-9" cx="611.5" cy="205.5" r="195.5"/><circle class="cls-18" cx="611.5" cy="244.21" r="156.79"/><circle class="cls-20" cx="611.5" cy="283.35" r="117.65"/><circle class="cls-19" cx="611.5" cy="322.6" r="78.4"/><text class="cls-14" transform="translate(547.67 59.56)"><tspan x="0" y="0">High </tspan><tspan class="cls-6" x="26.47" y="0">V</tspan><tspan x="33.15" y="0">alue D</tspan><tspan class="cls-31" x="66.67" y="0">a</tspan><tspan class="cls-35" x="72.97" y="0">t</tspan><tspan x="77.54" y="0">a </tspan><tspan class="cls-28" x="86.79" y="0">T</tspan><tspan x="91.87" y="0">hemes</tspan></text><text class="cls-14" transform="translate(560.24 127.84)"><tspan class="cls-31" x="0" y="0">R</tspan><tspan x="7.17" y="0">efe</tspan><tspan class="cls-31" x="24.84" y="0">r</tspan><tspan x="29.56" y="0">ence </tspan><tspan class="cls-6" x="58.47" y="0">F</tspan><tspan x="63.9" y="0">abric &amp;</tspan><tspan x="-18.84" y="19.12">H</tspan><tspan class="cls-4" x="-11.51" y="19.12">y</tspan><tspan class="cls-33" x="-5.31" y="19.12">d</tspan><tspan class="cls-31" x="1.23" y="19.12">r</tspan><tspan x="5.94" y="19.12">og</tspan><tspan class="cls-7" x="19.03" y="19.12">r</tspan><tspan x="23.67" y="19.12">ap</tspan><tspan class="cls-7" x="36.65" y="19.12">h</tspan><tspan x="42.95" y="19.12">y Coo</tspan><tspan class="cls-37" x="72.81" y="19.12">r</tspan><tspan x="77.53" y="19.12">din</tspan><tspan class="cls-31" x="93.88" y="19.12">a</tspan><tspan x="100.17" y="19.12">tion</tspan></text><text class="cls-14" transform="translate(583.53 206.18)"><tspan x="0" y="0">I</tspan><tspan class="cls-31" x="3.41" y="0">n</tspan><tspan class="cls-13" x="9.78" y="0">t</tspan><tspan x="14.31" y="0">eg</tspan><tspan class="cls-7" x="27.39" y="0">r</tspan><tspan class="cls-1" x="32.03" y="0">a</tspan><tspan class="cls-13" x="38.33" y="0">t</tspan><tspan x="42.85" y="0">ed</tspan><tspan x="-22.84" y="19.12">D</tspan><tspan class="cls-4" x="-15.47" y="19.12">ev</tspan><tspan x="-3.04" y="19.12">elopme</tspan><tspan class="cls-37" x="36.88" y="19.12">n</tspan><tspan class="cls-27" x="43.26" y="19.12">t </tspan><tspan class="cls-24" x="50.86" y="19.12">T</tspan><tspan x="55.86" y="19.12">eam</tspan></text><text class="cls-14" transform="translate(576.44 327.9)"><tspan x="0" y="0">Coo</tspan><tspan class="cls-37" x="20.56" y="0">r</tspan><tspan x="25.27" y="0">din</tspan><tspan class="cls-31" x="41.62" y="0">a</tspan><tspan class="cls-22" x="47.92" y="0">t</tspan><tspan x="52.44" y="0">ors</tspan></text></g><rect class="cls-8" x="29.84" y="10" width="361.16" height="79.64" rx="5" ry="5"/><rect class="cls-8" x="29.84" y="113.79" width="361.16" height="79.64" rx="5" ry="5"/><rect class="cls-8" x="29.84" y="217.57" width="361.16" height="79.64" rx="5" ry="5"/><rect class="cls-8" x="29.84" y="321.36" width="361.16" height="79.64" rx="5" ry="5"/><text class="cls-15" transform="translate(137.35 55.05)"><tspan x="0" y="0">D</tspan><tspan class="cls-2" x="7.41" y="0">i</tspan><tspan x="10.54" y="0">sc</tspan><tspan class="cls-3" x="23.33" y="0">ov</tspan><tspan class="cls-29" x="35.81" y="0">er &amp; Harmoni</tspan><tspan class="cls-21" x="106.22" y="0">z</tspan><tspan x="111.97" y="0">e D</tspan><tspan class="cls-2" x="128.75" y="0">a</tspan><tspan class="cls-11" x="135.07" y="0">t</tspan><tspan class="cls-30" x="139.66" y="0">a</tspan></text><text class="cls-15" transform="translate(151.62 158.51)"><tspan class="cls-26" x="0" y="0">L</tspan><tspan x="5.65" y="0">ink &amp; A</tspan><tspan class="cls-2" x="43.79" y="0">s</tspan><tspan x="49.9" y="0">soci</tspan><tspan class="cls-36" x="72.56" y="0">a</tspan><tspan class="cls-12" x="78.88" y="0">t</tspan><tspan class="cls-29" x="83.42" y="0">e D</tspan><tspan class="cls-36" x="100.21" y="0">a</tspan><tspan class="cls-11" x="106.53" y="0">t</tspan><tspan x="111.12" y="0">a</tspan></text><text class="cls-15" transform="translate(126.55 253.17)"><tspan x="0" y="0">D</tspan><tspan class="cls-36" x="7.41" y="0">a</tspan><tspan class="cls-11" x="13.73" y="0">t</tspan><tspan x="18.32" y="0">a Acce</tspan><tspan class="cls-2" x="54.96" y="0">s</tspan><tspan x="61.07" y="0">s &amp; I</tspan><tspan class="cls-32" x="84.59" y="0">n</tspan><tspan class="cls-23" x="90.99" y="0">t</tspan><tspan class="cls-29" x="95.53" y="0">eg</tspan><tspan class="cls-34" x="108.67" y="0">r</tspan><tspan class="cls-2" x="113.33" y="0">a</tspan><tspan x="119.65" y="0">tion i</tspan><tspan class="cls-36" x="147.01" y="0">n</tspan><tspan class="cls-23" x="153.41" y="0">t</tspan><tspan class="cls-29" x="157.95" y="0">o </tspan><tspan x="5.06" y="19.2">C</tspan><tspan class="cls-2" x="12.54" y="19.2">a</tspan><tspan class="cls-34" x="18.86" y="19.2">t</tspan><tspan class="cls-30" x="23.46" y="19.2">alogs, </tspan><tspan class="cls-25" x="58.72" y="19.2">T</tspan><tspan class="cls-30" x="63.74" y="19.2">ools, and Ser</tspan><tspan class="cls-36" x="133.23" y="19.2">v</tspan><tspan x="139.61" y="19.2">ices</tspan></text><text class="cls-15" transform="translate(137.52 356.36)"><tspan x="0" y="0">Coo</tspan><tspan class="cls-2" x="20.64" y="0">r</tspan><tspan x="25.38" y="0">din</tspan><tspan class="cls-2" x="41.79" y="0">a</tspan><tspan class="cls-12" x="48.11" y="0">t</tspan><tspan class="cls-29" x="52.66" y="0">e </tspan><tspan class="cls-2" x="62.03" y="0">wi</tspan><tspan class="cls-29" x="74.75" y="0">th P</tspan><tspan class="cls-36" x="95.89" y="0">r</tspan><tspan class="cls-29" x="100.62" y="0">oje</tspan><tspan class="cls-5" x="117.07" y="0">c</tspan><tspan x="123.26" y="0">ts &amp;</tspan><tspan x="19.47" y="19.2">D</tspan><tspan class="cls-2" x="26.88" y="19.2">a</tspan><tspan class="cls-11" x="33.2" y="19.2">t</tspan><tspan x="37.79" y="19.2">abase Managers</tspan></text><g><line class="cls-16" x1="210.21" y1="89.64" x2="210.21" y2="103.02"/><polygon class="cls-10" points="202.73 100.83 210.21 113.79 217.69 100.83 202.73 100.83"/></g><g><line class="cls-16" x1="210.21" y1="193.42" x2="210.21" y2="206.81"/><polygon class="cls-10" points="202.73 204.62 210.21 217.57 217.69 204.62 202.73 204.62"/></g><g><line class="cls-16" x1="210.21" y1="297.09" x2="210.21" y2="310.47"/><polygon class="cls-10" points="202.73 308.28 210.21 321.24 217.69 308.28 202.73 308.28"/></g><g><polyline class="cls-17" points="29.84 361.18 9.48 361.18 9.48 49.82 19.07 49.82"/><polygon class="cls-10" points="16.88 57.3 29.84 49.82 16.88 42.34 16.88 57.3"/></g></svg>