<?xml version="1.0" encoding="UTF-8"?><svg xmlns="http://www.w3.org/2000/svg" xmlns:xlink="http://www.w3.org/1999/xlink" viewBox="0 0 612 304.77"><defs><style>.cls-1{letter-spacing:-.07em;}.cls-1,.cls-2,.cls-3,.cls-4,.cls-5,.cls-6,.cls-7,.cls-8,.cls-9,.cls-10,.cls-11,.cls-12,.cls-13,.cls-14,.cls-15,.cls-16{font-weight:700;}.cls-1,.cls-2,.cls-3,.cls-4,.cls-5,.cls-6,.cls-7,.cls-9,.cls-10,.cls-13,.cls-15{font-family:D-DIN-Bold, D-DIN;text-decoration:underline;}.cls-1,.cls-6,.cls-9,.cls-17,.cls-14{fill:#341956;}.cls-2{letter-spacing:-.03em;}.cls-2,.cls-4,.cls-5,.cls-18,.cls-11{fill:#7d499d;}.cls-3,.cls-19,.cls-10,.cls-15,.cls-16{fill:#512a7d;}.cls-5,.cls-6,.cls-10,.cls-20{letter-spacing:0em;}.cls-21{font-size:9px;}.cls-22{letter-spacing:-.07em;}.cls-22,.cls-8,.cls-23{fill:#231f20;}.cls-22,.cls-23{font-family:D-DIN, D-DIN;}.cls-7,.cls-12,.cls-13,.cls-24{fill:#9769ad;}.cls-8{font-size:22.7px;}.cls-8,.cls-11,.cls-12,.cls-14,.cls-16{font-family:D-DINCondensed-Bold, 'D-DIN Condensed';}.cls-25,.cls-26,.cls-27,.cls-28,.cls-29{fill:#fff;}.cls-30{letter-spacing:0em;}.cls-26{filter:url(#drop-shadow-1);}.cls-27{filter:url(#drop-shadow-3);}.cls-28{filter:url(#drop-shadow-2);}.cls-29{filter:url(#drop-shadow-4);}.cls-31{fill:#f2f1f3;}.cls-11,.cls-12,.cls-14,.cls-16{font-size:12px;}.cls-32{letter-spacing:-.06em;}.cls-33{letter-spacing:-.02em;}.cls-34{letter-spacing:-.02em;}.cls-35{letter-spacing:-.01em;}.cls-36{letter-spacing:-.02em;}.cls-37{letter-spacing:-.04em;}.cls-38{letter-spacing:-.04em;}.cls-13,.cls-15{letter-spacing:-.02em;}.cls-39{letter-spacing:-.03em;}.cls-40{letter-spacing:0em;}.cls-41{letter-spacing:0em;}.cls-42{letter-spacing:0em;}</style><filter id="drop-shadow-1" x="81.87" y="61.33" width="125.28" height="227.04" filterUnits="userSpaceOnUse"><feOffset dx="4.87" dy="4.87"/><feGaussianBlur result="blur" stdDeviation="4.87"/><feFlood flood-color="#231f20" flood-opacity=".1"/><feComposite in2="blur" operator="in"/><feComposite in="SourceGraphic"/></filter><filter id="drop-shadow-2" x="192.75" y="61.33" width="125.28" height="227.04" filterUnits="userSpaceOnUse"><feOffset dx="4.87" dy="4.87"/><feGaussianBlur result="blur-2" stdDeviation="4.87"/><feFlood flood-color="#231f20" flood-opacity=".1"/><feComposite in2="blur-2" operator="in"/><feComposite in="SourceGraphic"/></filter><filter id="drop-shadow-3" x="303.87" y="61.33" width="125.28" height="227.04" filterUnits="userSpaceOnUse"><feOffset dx="4.87" dy="4.87"/><feGaussianBlur result="blur-3" stdDeviation="4.87"/><feFlood flood-color="#231f20" flood-opacity=".1"/><feComposite in2="blur-3" operator="in"/><feComposite in="SourceGraphic"/></filter><filter id="drop-shadow-4" x="414.99" y="61.33" width="125.28" height="227.04" filterUnits="userSpaceOnUse"><feOffset dx="4.87" dy="4.87"/><feGaussianBlur result="blur-4" stdDeviation="4.87"/><feFlood flood-color="#231f20" flood-opacity=".1"/><feComposite in2="blur-4" operator="in"/><feComposite in="SourceGraphic"/></filter></defs><g id="BG"><rect class="cls-31" y="-633.86" width="612" height="938.59"/></g><g id="Layer_2"><rect class="cls-26" x="91.66" y="71.26" width="95.77" height="197.51" rx="4.87" ry="4.87"/><rect class="cls-28" x="202.72" y="71.26" width="95.77" height="197.51" rx="4.87" ry="4.87"/><rect class="cls-27" x="313.77" y="71.26" width="95.77" height="197.51" rx="4.87" ry="4.87"/><rect class="cls-29" x="424.83" y="71.26" width="95.77" height="197.51" rx="4.87" ry="4.87"/><rect class="cls-17" x="107.89" y="61.26" width="63.3" height="63.3" rx="5" ry="5"/><rect class="cls-19" x="218.95" y="61.26" width="63.3" height="63.3" rx="5" ry="5"/><rect class="cls-18" x="330.01" y="61.26" width="63.3" height="63.3" rx="5" ry="5"/><rect class="cls-24" x="441.06" y="61.26" width="63.3" height="63.3" rx="5" ry="5"/><a xlink:href="https://teams.microsoft.com/l/channel/19%3A80dd1018f451453fb09ccfbfa619aa7c%40thread.tacv2/Catalog?groupId=9d52a4a7-f94f-49bb-87e9-34476d77aae9&amp;amp;amp;amp;amp;tenantId=0693b5ba-4b18-4d7b-9341-f32f400a5494"><text class="cls-21" transform="translate(101.5 159.32)"><tspan class="cls-23"><tspan x="0" y="0">Contributing is eas</tspan><tspan class="cls-32" x="70.01" y="0">y</tspan><tspan x="73.39" y="0">. </tspan></tspan><tspan class="cls-23"><tspan x="0" y="10.8">Send us a message </tspan></tspan><tspan class="cls-23" x="0" y="21.6">on </tspan><tspan class="cls-1" x="11.2" y="21.6">T</tspan><tspan class="cls-9" x="15.06" y="21.6">ea</tspan><tspan class="cls-6" x="24.22" y="21.6">m</tspan><tspan class="cls-9" x="31.45" y="21.6">s</tspan><tspan class="cls-23" x="35.71" y="21.6">, and we&apos;ll </tspan><tspan class="cls-23"><tspan x="0" y="32.4">guide you through </tspan></tspan><tspan class="cls-23"><tspan x="0" y="43.2">the process.</tspan></tspan></text></a><a xlink:href="https://code.usgs.gov/wma/nhgf/catalog-team/catalog-intake"><text class="cls-21" transform="translate(212.74 159.32)"><tspan class="cls-22" x="0" y="0">T</tspan><tspan class="cls-23" x="3.73" y="0">his </tspan><tspan class="cls-3" x="16.64" y="0">g</tspan><tspan class="cls-10" x="21.27" y="0">it</tspan><tspan class="cls-3" x="26.51" y="0">lab</tspan><tspan class="cls-15" x="38.24" y="0" xml:space="preserve"> r</tspan><tspan class="cls-3" x="43.16" y="0">epo</tspan><tspan class="cls-23" x="57.04" y="0" xml:space="preserve"> has </tspan><tspan class="cls-23"><tspan x="0" y="10.8">walkthroughs on </tspan></tspan><tspan class="cls-23"><tspan x="0" y="21.6">how to create, edit </tspan></tspan><tspan class="cls-23"><tspan x="0" y="32.4">and add metadata </tspan></tspan><tspan class="cls-23"><tspan x="0" y="43.2">to the Catalog, </tspan></tspan><tspan class="cls-23"><tspan x="0" y="54">including details on </tspan></tspan><tspan class="cls-23"><tspan x="0" y="64.8">how to use the </tspan></tspan><tspan class="cls-23"><tspan x="0" y="75.6">submission form. </tspan></tspan></text></a><a xlink:href="https://water.usgs.gov/usgs/catalog_submission_forms/"><text class="cls-21" transform="translate(323.7 159.32)"><tspan class="cls-23"><tspan x="0" y="0">If you&apos;ve already </tspan></tspan><tspan class="cls-23"><tspan x="0" y="10.8">reviewed the </tspan></tspan><tspan class="cls-23"><tspan x="0" y="21.6">catalog-intake repo, </tspan></tspan><tspan class="cls-23"><tspan x="0" y="32.4">submit your data, </tspan></tspan><tspan class="cls-23"><tspan x="0" y="43.2">tools and use cases </tspan></tspan><tspan class="cls-23"><tspan x="0" y="54">using our </tspan></tspan><tspan class="cls-4"><tspan x="0" y="64.8">self-</tspan><tspan class="cls-35" x="17.79" y="64.8">v</tspan><tspan x="21.99" y="64.8">alid</tspan><tspan class="cls-20" x="35.87" y="64.8">at</tspan><tspan x="43.46" y="64.8" xml:space="preserve">ing </tspan></tspan><tspan class="cls-2" x="0" y="75.6">f</tspan><tspan class="cls-4" x="2.74" y="75.6">or</tspan><tspan class="cls-5" x="10.55" y="75.6">m</tspan><tspan class="cls-4" x="17.77" y="75.6">s</tspan><tspan class="cls-23" x="22.04" y="75.6" xml:space="preserve"> for easy </tspan><tspan class="cls-23"><tspan x="0" y="86.4">metadata creation.</tspan></tspan></text></a><a xlink:href="https://code.usgs.gov/wma/nhgf/catalog-team/catalog-user-suggestions"><text class="cls-21" transform="translate(434.76 159.32)"><tspan class="cls-23"><tspan class="cls-40" x="0" y="0">K</tspan><tspan x="5.33" y="0">now of a dataset, </tspan></tspan><tspan class="cls-23"><tspan x="0" y="10.8">tool or use case </tspan></tspan><tspan class="cls-23"><tspan x="0" y="21.6">that isn&apos;t in the </tspan></tspan><tspan class="cls-23"><tspan x="0" y="32.4">catalog but should </tspan></tspan><tspan class="cls-23"><tspan x="0" y="43.2">be? See an error </tspan></tspan><tspan class="cls-23"><tspan x="0" y="54">that needs fixing? </tspan></tspan><tspan class="cls-23"><tspan class="cls-36" x="0" y="64.8">W</tspan><tspan x="6.99" y="64.8">ant to su</tspan><tspan class="cls-42" x="39.59" y="64.8">g</tspan><tspan x="44.28" y="64.8">gest a </tspan></tspan><tspan class="cls-23"><tspan x="0" y="75.6" xml:space="preserve">UI update?  </tspan><tspan class="cls-39" x="43.62" y="75.6">L</tspan><tspan x="48.13" y="75.6">et us </tspan></tspan><tspan class="cls-23" x="0" y="86.4">know </tspan><tspan class="cls-7" x="22.07" y="86.4">he</tspan><tspan class="cls-13" x="31.4" y="86.4">r</tspan><tspan class="cls-7" x="34.44" y="86.4">e</tspan><tspan class="cls-23" x="39.09" y="86.4">.</tspan></text></a><text class="cls-14" transform="translate(101.1 143.15)"><tspan x="0" y="0">CON</tspan><tspan class="cls-37" x="16.92" y="0">T</tspan><tspan class="cls-41" x="20.83" y="0">A</tspan><tspan x="26.58" y="0">CT THE TEAM</tspan></text><text class="cls-16" transform="translate(216.42 143.15)"><tspan x="0" y="0">C</tspan><tspan class="cls-37" x="5.62" y="0">AT</tspan><tspan x="14.83" y="0">A</tspan><tspan class="cls-34" x="20.65" y="0">L</tspan><tspan x="24.78" y="0">OG-IN</tspan><tspan class="cls-37" x="48.48" y="0">T</tspan><tspan x="52.39" y="0">AKE</tspan></text><text class="cls-11" transform="translate(321.91 143.15)"><tspan x="0" y="0">SUBMISSION FORMS</tspan></text><text class="cls-12" transform="translate(433.89 143.15)"><tspan x="0" y="0">USER SUGGESTIONS</tspan></text><rect class="cls-17" x="101.67" y="255.77" width="75.63" height="3" rx="1.5" ry="1.5"/><rect class="cls-19" x="212.78" y="255.77" width="75.63" height="3" rx="1.5" ry="1.5"/><rect class="cls-18" x="323.84" y="255.77" width="75.63" height="3" rx="1.5" ry="1.5"/><rect class="cls-24" x="434.9" y="255.77" width="75.63" height="3" rx="1.5" ry="1.5"/><text class="cls-8" transform="translate(36.07 51.26)"><tspan x="0" y="0">HOW TO CONTRIBUTE TO THE WMA INTEGR</tspan><tspan class="cls-38" x="311.71" y="0">A</tspan><tspan x="321.74" y="0">TED D</tspan><tspan class="cls-38" x="363.62" y="0">AT</tspan><tspan x="381.05" y="0">A &amp; TOOLS C</tspan><tspan class="cls-38" x="473.88" y="0">AT</tspan><tspan class="cls-30" x="491.31" y="0">A</tspan><tspan class="cls-33" x="502.32" y="0">L</tspan><tspan class="cls-30" x="510.13" y="0">OG?</tspan></text><polygon class="cls-25" points="118.52 80.44 118.52 105.53 130.92 92.98 118.52 80.44"/><path class="cls-25" d="M133.25,95.32l2,2.13c2.36,2.5,6.34,2.5,8.7,0l2-2.13,12.15,12.6h-37.2l12.35-12.6Z"/><polygon class="cls-25" points="160.57 80.73 148.42 92.98 160.57 105.53 160.57 80.73"/><path class="cls-25" d="M120.9,77.91h37.57l-16.98,17.25c-1.02,1.04-2.69,1.03-3.71,0l-16.88-17.24Z"/><rect class="cls-25" x="237.7" y="77.26" width="7.18" height="2.77" rx="1.21" ry="1.21"/><path class="cls-25" d="M266.41,72.91h-31.63c-2.31,0-4.19,1.87-4.19,4.19v31.63c0,2.31,1.87,4.19,4.19,4.19h31.63c2.31,0,4.19-1.87,4.19-4.19v-31.63c0-2.31-1.87-4.19-4.19-4.19ZM267.74,108.5c0,.87-.7,1.57-1.57,1.57h-31.17c-.87,0-1.57-.7-1.57-1.57v-24.2h34.31v24.2ZM267.74,81.53h-34.31v-4.37c0-.77.63-1.4,1.4-1.4h31.5c.77,0,1.4.63,1.4,1.4v4.37Z"/><path class="cls-25" d="M244.46,103.89h0c-.56.56-1.46.56-2.02,0l-5.68-5.68c-.56-.56-.56-1.46,0-2.02l5.68-5.68c.56-.56,1.46-.56,2.02,0h0c.56.56.56,1.46,0,2.02l-4.67,4.67,4.67,4.67c.56.56.56,1.46,0,2.02Z"/><path class="cls-25" d="M256.79,103.89h0c.56.56,1.46.56,2.02,0l5.68-5.68c.56-.56.56-1.46,0-2.02l-5.68-5.68c-.56-.56-1.46-.56-2.02,0h0c-.56.56-.56,1.46,0,2.02l4.67,4.67-4.67,4.67c-.56.56-.56,1.46,0,2.02Z"/><rect class="cls-25" x="249.2" y="89.4" width="2.85" height="15.59" rx="1.25" ry="1.25" transform="translate(70.08 -101.96) rotate(26.61)"/><polygon class="cls-25" points="368.36 74.17 368.36 80.7 374.93 80.7 368.36 74.17"/><path class="cls-25" d="M348.21,93.06h26.84c.37,0,.74.03,1.09.08v-10.68h-8.61c-.53,0-.96-.43-.96-.96v-8.59h-15v8.67c0,.49-.4.89-.89.89s-.89-.4-.89-.89v-8.67h-2.7v20.24c.37-.06.74-.09,1.11-.09Z"/><path class="cls-25" d="M375.05,107.33h-26.84c-.37,0-.74-.03-1.1-.08v5.67h29.04v-5.67c-.36.05-.72.08-1.09.08Z"/><path class="cls-25" d="M375.09,94.86h-26.87c-2.98,0-5.39,2.41-5.39,5.39s2.41,5.39,5.39,5.39h26.87c2.98,0,5.39-2.41,5.39-5.39s-2.41-5.39-5.39-5.39ZM352.02,102.46c0,.62-.17,1.1-.51,1.44-.34.34-.82.5-1.43.5h-1.03v-1.42h.67c.25,0,.43-.06.54-.18s.15-.33.15-.62v-6.28h1.62v6.55ZM358.26,103.8c-.55.45-1.28.68-2.21.68s-1.62-.23-2.13-.68c-.51-.46-.79-1.11-.85-1.98h1.53c.06.47.21.8.45.99.24.19.6.29,1.08.29.91,0,1.37-.37,1.37-1.12,0-.34-.09-.59-.27-.77s-.47-.3-.86-.36l-.8-.14c-1.54-.25-2.3-1.04-2.3-2.36,0-.79.26-1.41.78-1.87.52-.46,1.21-.69,2.08-.69s1.5.22,1.99.67c.49.44.77,1.07.83,1.87h-1.55c-.02-.41-.14-.71-.36-.9-.21-.19-.53-.28-.94-.28s-.74.1-.95.29c-.21.19-.32.46-.32.79,0,.3.09.53.28.7s.48.3.89.37l.9.16c1.46.26,2.19,1.06,2.19,2.39,0,.85-.27,1.51-.82,1.96ZM366.28,101.12c0,1.2-.28,2.06-.84,2.59s-1.32.79-2.27.79c-2.03,0-3.04-1.13-3.04-3.39v-1.95c0-2.26,1.03-3.39,3.09-3.39.94,0,1.69.26,2.24.79.55.53.83,1.39.83,2.59v1.95ZM373.85,104.4h-1.61l-3.13-5.31v5.31h-1.61v-8.5h1.61l3.13,5.32v-5.32h1.61v8.5Z"/><path class="cls-25" d="M363.21,97.2c-.52,0-.89.16-1.12.47-.23.32-.34.84-.34,1.58v1.83c0,.7.11,1.2.34,1.51.23.31.6.46,1.12.46s.86-.16,1.1-.47c.24-.32.36-.81.36-1.5v-1.83c0-.72-.12-1.25-.36-1.57-.24-.32-.6-.49-1.1-.49Z"/><circle class="cls-25" cx="472.52" cy="82.85" r="9.94"/><path class="cls-25" d="M489.41,108.69c0,1.17-.47,2.22-1.24,2.99-.76.76-1.82,1.24-2.99,1.24h-25.13c-2.33,0-4.22-1.89-4.22-4.22,0-.03,0-.05,0-.08h0c0-5.87,7.52-12.92,16.79-12.92s16.76,7.01,16.79,12.88v.04s0,.05,0,.08Z"/></g></svg>