<?xml version="1.0" encoding="UTF-8"?><svg xmlns="http://www.w3.org/2000/svg" xmlns:xlink="http://www.w3.org/1999/xlink" viewBox="0 0 612 326.99"><defs><style>.cls-1,.cls-2,.cls-3,.cls-4,.cls-5,.cls-6,.cls-7,.cls-8,.cls-9,.cls-10,.cls-11,.cls-12,.cls-13{font-weight:700;}.cls-1,.cls-5,.cls-6,.cls-7,.cls-8,.cls-9,.cls-10,.cls-11{font-family:D-DIN-Bold, D-DIN;}.cls-2,.cls-14{fill:#1fbcbc;}.cls-2,.cls-3,.cls-4,.cls-12,.cls-13{font-family:D-DINCondensed-Bold, 'D-DIN Condensed';}.cls-2,.cls-4,.cls-12,.cls-13{font-size:12px;}.cls-15,.cls-12{fill:#00a09f;}.cls-16,.cls-3,.cls-17{fill:#231f20;}.cls-16,.cls-17{font-size:9px;}.cls-3{font-size:22.7px;}.cls-18,.cls-13{fill:#024040;}.cls-19{letter-spacing:0em;}.cls-20,.cls-21,.cls-22,.cls-23,.cls-24{fill:#fff;}.cls-4,.cls-25{fill:#006160;}.cls-5{letter-spacing:-.02em;}.cls-6{letter-spacing:-.02em;}.cls-7{letter-spacing:-.01em;}.cls-8{letter-spacing:-.03em;}.cls-9{letter-spacing:-.07em;}.cls-26{letter-spacing:0em;}.cls-27{letter-spacing:0em;}.cls-21{filter:url(#drop-shadow-1);}.cls-22{filter:url(#drop-shadow-3);}.cls-23{filter:url(#drop-shadow-2);}.cls-24{filter:url(#drop-shadow-4);}.cls-28{fill:#f2f1f3;}.cls-10{letter-spacing:0em;}.cls-11{letter-spacing:0em;}.cls-29,.cls-17{font-family:D-DIN, D-DIN;}.cls-30{letter-spacing:-.07em;}.cls-31{letter-spacing:-.06em;}.cls-32{letter-spacing:-.02em;}.cls-33{letter-spacing:-.04em;}.cls-34{letter-spacing:-.04em;}.cls-35{letter-spacing:-.04em;}.cls-36{letter-spacing:.02em;}.cls-37{letter-spacing:0em;}</style><filter id="drop-shadow-1" x="81.1" y="61.53" width="127.2" height="250.32" filterUnits="userSpaceOnUse"><feOffset dx="5.13" dy="5.13"/><feGaussianBlur result="blur" stdDeviation="5.13"/><feFlood flood-color="#231f20" flood-opacity=".1"/><feComposite in2="blur" operator="in"/><feComposite in="SourceGraphic"/></filter><filter id="drop-shadow-2" x="192.22" y="61.53" width="126.96" height="250.32" filterUnits="userSpaceOnUse"><feOffset dx="5.13" dy="5.13"/><feGaussianBlur result="blur-2" stdDeviation="5.13"/><feFlood flood-color="#231f20" flood-opacity=".1"/><feComposite in2="blur-2" operator="in"/><feComposite in="SourceGraphic"/></filter><filter id="drop-shadow-3" x="303.34" y="61.53" width="126.96" height="250.32" filterUnits="userSpaceOnUse"><feOffset dx="5.13" dy="5.13"/><feGaussianBlur result="blur-3" stdDeviation="5.13"/><feFlood flood-color="#231f20" flood-opacity=".1"/><feComposite in2="blur-3" operator="in"/><feComposite in="SourceGraphic"/></filter><filter id="drop-shadow-4" x="414.46" y="61.53" width="126.96" height="250.32" filterUnits="userSpaceOnUse"><feOffset dx="5.13" dy="5.13"/><feGaussianBlur result="blur-4" stdDeviation="5.13"/><feFlood flood-color="#231f20" flood-opacity=".1"/><feComposite in2="blur-4" operator="in"/><feComposite in="SourceGraphic"/></filter></defs><g id="BG"><rect class="cls-28" width="612" height="938.59"/></g><g id="Layer_2"><rect class="cls-21" x="91.59" y="71.91" width="95.77" height="219.08" rx="5.13" ry="5.13"/><rect class="cls-23" x="202.65" y="71.91" width="95.77" height="219.08" rx="5.13" ry="5.13"/><rect class="cls-22" x="313.71" y="71.91" width="95.77" height="219.08" rx="5.13" ry="5.13"/><rect class="cls-24" x="424.77" y="71.91" width="95.77" height="219.08" rx="5.13" ry="5.13"/><rect class="cls-18" x="107.82" y="61.91" width="63.3" height="63.3" rx="5" ry="5"/><rect class="cls-25" x="218.88" y="61.91" width="63.3" height="63.3" rx="5" ry="5"/><rect class="cls-15" x="329.94" y="61.91" width="63.3" height="63.3" rx="5" ry="5"/><rect class="cls-14" x="441" y="61.91" width="63.3" height="63.3" rx="5" ry="5"/><text class="cls-17" transform="translate(101.44 159.97)"><tspan class="cls-30" x="0" y="0">T</tspan><tspan x="3.73" y="0">he catalog is a </tspan><tspan x="0" y="10.8">central hub for </tspan><tspan x="0" y="21.6">sharing and </tspan><tspan x="0" y="32.4">discovering WMA </tspan><tspan x="0" y="43.2">project data, tools </tspan><tspan x="0" y="54">and use cases for </tspan><tspan x="0" y="64.8">data management, </tspan><tspan x="0" y="75.6">planning and </tspan><tspan x="0" y="86.4">technical decision </tspan><tspan x="0" y="97.2">making.</tspan></text><text class="cls-16" transform="translate(212.67 159.97)"><tspan class="cls-29"><tspan class="cls-30" x="0" y="0">T</tspan><tspan x="3.73" y="0">he catalog is </tspan></tspan><tspan class="cls-29"><tspan x="0" y="10.8">comprised of 3 </tspan></tspan><tspan class="cls-29"><tspan x="0" y="21.6">resource types: </tspan></tspan><tspan class="cls-1" x="0" y="32.4">•</tspan><tspan class="cls-11" x="4.08" y="32.4"> </tspan><tspan class="cls-6" x="6.05" y="32.4">D</tspan><tspan class="cls-10" x="11.31" y="32.4">a</tspan><tspan class="cls-11" x="15.78" y="32.4">t</tspan><tspan class="cls-10" x="18.85" y="32.4">a</tspan><tspan class="cls-1" x="23.32" y="32.4">s</tspan><tspan class="cls-5" x="27.58" y="32.4">e</tspan><tspan class="cls-1" x="32.06" y="32.4">ts</tspan><tspan class="cls-29" x="39.49" y="32.4">: </tspan><tspan class="cls-29"><tspan x="0" y="43.2">obsevered &amp; </tspan></tspan><tspan class="cls-29"><tspan x="0" y="54">modeled data.</tspan></tspan><tspan class="cls-1" x="0" y="64.8">•</tspan><tspan class="cls-8" x="4.08" y="64.8"> </tspan><tspan class="cls-9" x="5.87" y="64.8">T</tspan><tspan class="cls-1" x="9.73" y="64.8">ools</tspan><tspan class="cls-29" x="25.76" y="64.8">: software &amp; </tspan><tspan class="cls-29"><tspan x="0" y="75.6">workflows</tspan></tspan><tspan class="cls-1" x="0" y="86.4">• Use </tspan><tspan class="cls-7" x="22.64" y="86.4">C</tspan><tspan class="cls-10" x="27.91" y="86.4">a</tspan><tspan class="cls-1" x="32.37" y="86.4">ses</tspan><tspan class="cls-29" x="45.56" y="86.4">: demos </tspan><tspan class="cls-29"><tspan x="0" y="97.2">of datasets &amp; tools</tspan></tspan></text><text class="cls-17" transform="translate(323.63 159.97)"><tspan class="cls-30" x="0" y="0">T</tspan><tspan x="3.73" y="0">he catalog </tspan><tspan x="0" y="10.8">simplifies finding </tspan><tspan x="0" y="21.6">project information </tspan><tspan x="0" y="32.4">or high-value data, </tspan><tspan x="0" y="43.2">such as datasets in </tspan><tspan x="0" y="54">development, </tspan><tspan x="0" y="64.8">similar data </tspan><tspan x="0" y="75.6">projects, and tools </tspan><tspan x="0" y="86.4">for tasks like </tspan><tspan x="0" y="97.2">a</tspan><tspan class="cls-37" x="4.47" y="97.2">g</tspan><tspan x="9.16" y="97.2">gregating data to </tspan><tspan x="0" y="108">HUC12 units.</tspan></text><text class="cls-17" transform="translate(434.69 159.97)"><tspan class="cls-30" x="0" y="0">T</tspan><tspan x="3.73" y="0">he catalog helps </tspan><tspan x="0" y="10.8">you discover </tspan><tspan x="0" y="21.6">resources, share </tspan><tspan x="0" y="32.4">your work, </tspan><tspan x="0" y="43.2">streamline data, </tspan><tspan x="0" y="54">and collaborate </tspan><tspan x="0" y="64.8">more e</tspan><tspan class="cls-36" x="26.01" y="64.8">f</tspan><tspan x="29.12" y="64.8">fectively </tspan><tspan x="0" y="75.6">within the WMA </tspan><tspan x="0" y="86.4">communit</tspan><tspan class="cls-31" x="38.48" y="86.4">y</tspan><tspan x="41.87" y="86.4">.</tspan></text><text class="cls-13" transform="translate(122.34 143.8)"><tspan x="0" y="0">PREMISE</tspan></text><text class="cls-4" transform="translate(225.31 143.8)"><tspan x="0" y="0">FOUND</tspan><tspan class="cls-33" x="26.83" y="0">A</tspan><tspan class="cls-26" x="32.14" y="0">TION</tspan></text><text class="cls-12" transform="translate(343.25 143.8)"><tspan x="0" y="0">PURPOSE</tspan></text><text class="cls-2" transform="translate(440.45 143.8)"><tspan x="0" y="0">OTHER BENEFITS</tspan></text><rect class="cls-18" x="101.6" y="278.01" width="75.63" height="3" rx="1.5" ry="1.5"/><rect class="cls-25" x="212.72" y="278.01" width="75.63" height="3" rx="1.5" ry="1.5"/><rect class="cls-15" x="323.78" y="278.01" width="75.63" height="3" rx="1.5" ry="1.5"/><rect class="cls-14" x="434.83" y="278.01" width="75.63" height="3" rx="1.5" ry="1.5"/><text class="cls-3" transform="translate(94.48 51.91)"><tspan x="0" y="0">WH</tspan><tspan class="cls-34" x="25.74" y="0">A</tspan><tspan x="35.77" y="0">T IS THE WMA INTEGR</tspan><tspan class="cls-34" x="194.72" y="0">A</tspan><tspan class="cls-19" x="204.76" y="0">TED D</tspan><tspan class="cls-34" x="246.63" y="0">AT</tspan><tspan class="cls-27" x="264.06" y="0">A &amp; TOOLS C</tspan><tspan class="cls-35" x="356.9" y="0">AT</tspan><tspan x="374.33" y="0">A</tspan><tspan class="cls-32" x="385.34" y="0">L</tspan><tspan class="cls-27" x="393.14" y="0">OG?</tspan></text><rect class="cls-20" x="130.52" y="102.21" width="17.79" height="2.92" rx="1.46" ry="1.46"/><rect class="cls-20" x="131.75" y="107.06" width="15.33" height="2.83" rx="1.42" ry="1.42"/><path class="cls-20" d="M135.17,111.67h8.32c0,1.05-.85,1.9-1.9,1.9h-4.52c-1.05,0-1.9-.85-1.9-1.9h0Z"/><path class="cls-20" d="M139.39,73.57c-7.4,0-13.4,6-13.4,13.4,0,3.37,1.24,6.45,3.3,8.8,1.05,1.38,1.85,2.94,2.36,4.6h0s7.58,0,7.58,0h7.92c.51-1.66,1.31-3.22,2.36-4.6,2.05-2.35,3.3-5.43,3.3-8.8,0-7.4-6-13.4-13.4-13.4ZM129.56,92.54c-.56,0-1.01-.45-1.01-1.01s.45-1.01,1.01-1.01,1.01.45,1.01,1.01-.45,1.01-1.01,1.01ZM140.33,77.91l-1.12.05c-4.8.2-8.69,4.12-8.85,8.93l-.04,1.11c-.02.54-.46.96-1,.96-.01,0-.02,0-.03,0-.55-.02-.98-.48-.96-1.03l.04-1.11c.09-2.84,1.25-5.52,3.25-7.54,2-2.02,4.67-3.2,7.51-3.32l1.12-.05c.55-.02,1.01.4,1.04.95.02.55-.4,1.01-.95,1.04Z"/><path class="cls-20" d="M255.44,79.28c-.06-.23-.29-.38-.53-.35l-1.54.2c-.18.02-.36-.06-.46-.21-.2-.29-.42-.57-.65-.83-.12-.14-.16-.33-.09-.5l.57-1.45c.09-.22,0-.48-.21-.6l-2.49-1.42c-.21-.12-.47-.07-.62.12l-.96,1.23c-.11.14-.3.21-.47.18-.37-.07-.75-.12-1.13-.14-.18,0-.34-.12-.42-.29l-.63-1.42c-.1-.22-.34-.33-.57-.27l-2.76.77c-.23.06-.38.29-.35.53l.2,1.54c.02.18-.06.36-.21.46-.3.2-.58.42-.84.65-.14.12-.33.16-.5.09l-1.45-.57c-.22-.09-.48,0-.6.21l-1.42,2.49c-.12.21-.07.47.12.62l1.23.96c.14.11.21.29.18.47-.08.38-.12.76-.14,1.16,0,.18-.12.34-.28.42l-1.42.64c-.22.1-.33.34-.27.57l.78,2.76c.07.23.29.38.53.35l1.54-.21c.18-.02.36.06.46.21.23.34.49.66.76.95.12.13.16.32.1.49l-.53,1.46c-.08.23.01.48.22.59l2.52,1.36c.21.11.47.06.62-.14l.93-1.25c.11-.15.29-.22.47-.19.31.05.62.09.93.11.18,0,.34.12.41.29l.63,1.42c.1.22.34.34.57.27l2.76-.76c.23-.06.38-.29.35-.53l-.19-1.54c-.02-.18.06-.36.21-.46.3-.2.58-.42.84-.65.14-.12.33-.16.5-.09l1.45.57c.22.09.48,0,.6-.21l1.43-2.49c.12-.21.07-.47-.12-.62l-1.22-.96c-.14-.11-.21-.3-.18-.47.08-.38.13-.77.14-1.16,0-.18.12-.34.29-.42l1.42-.63c.22-.1.33-.34.27-.57l-.77-2.76ZM247.42,86.68c-1.88.53-3.83-.57-4.35-2.45s.57-3.83,2.45-4.35,3.83.57,4.35,2.45-.57,3.83-2.45,4.35Z"/><path class="cls-20" d="M250,102.41c0-.24-.18-.44-.41-.48l-1.54-.22c-.18-.03-.33-.15-.39-.32-.11-.34-.25-.66-.4-.98-.08-.16-.06-.36.05-.5l.94-1.24c.14-.19.13-.46-.04-.63l-2.02-2.04c-.17-.17-.44-.19-.63-.05l-1.25.92c-.15.11-.34.12-.5.04-.34-.17-.69-.32-1.05-.44-.17-.06-.3-.21-.32-.39l-.22-1.54c-.03-.24-.24-.41-.48-.41h-2.87c-.24,0-.44.18-.48.41l-.22,1.54c-.03.18-.15.33-.32.39-.34.11-.67.25-.98.4-.16.08-.36.06-.5-.05l-1.24-.94c-.19-.14-.46-.13-.63.04l-2.04,2.02c-.17.17-.19.44-.05.63l.92,1.25c.11.15.12.34.04.5-.17.34-.32.7-.45,1.07-.06.17-.21.3-.39.32l-1.54.23c-.24.04-.41.24-.41.48v2.87c0,.24.19.44.42.48l1.54.22c.18.03.33.15.39.32.13.39.29.76.48,1.12.08.16.07.36-.04.5l-.91,1.26c-.14.19-.12.46.06.63l2.06,1.99c.17.17.44.18.63.03l1.23-.95c.14-.11.34-.13.5-.05.28.13.57.25.87.35.17.06.3.21.32.39l.22,1.54c.03.24.24.41.48.42h2.87c.24.01.44-.16.48-.4l.23-1.54c.03-.18.15-.33.33-.39.34-.11.67-.25.99-.4.16-.08.36-.06.5.05l1.24.94c.19.15.46.13.63-.04l2.04-2.01c.17-.17.19-.44.05-.63l-.92-1.25c-.11-.15-.12-.34-.04-.5.18-.35.33-.71.45-1.08.06-.17.21-.3.39-.32l1.54-.22c.24-.03.41-.24.41-.48v-2.87ZM240.28,107.38c-1.95,0-3.53-1.58-3.53-3.53s1.58-3.53,3.53-3.53,3.53,1.58,3.53,3.53-1.58,3.53-3.53,3.53Z"/><path class="cls-20" d="M270.5,97.91c0-.24-.18-.44-.41-.48l-1.54-.22c-.18-.03-.33-.15-.39-.32-.11-.34-.25-.66-.4-.98-.08-.16-.06-.36.05-.5l.94-1.24c.14-.19.13-.46-.04-.63l-2.02-2.04c-.17-.17-.44-.19-.63-.05l-1.25.92c-.15.11-.34.12-.5.04-.34-.17-.69-.32-1.05-.44-.17-.06-.3-.21-.32-.39l-.22-1.54c-.03-.24-.24-.41-.48-.41h-2.87c-.24,0-.44.18-.48.41l-.22,1.54c-.03.18-.15.33-.32.39-.34.11-.67.25-.98.4-.16.08-.36.06-.5-.05l-1.24-.94c-.19-.14-.46-.13-.63.04l-2.04,2.02c-.17.17-.19.44-.05.63l.92,1.25c.11.15.12.34.04.5-.17.34-.32.7-.45,1.07-.06.17-.21.3-.39.32l-1.54.23c-.24.04-.41.24-.41.48v2.87c0,.24.19.44.42.48l1.54.22c.18.03.33.15.39.32.13.39.29.76.48,1.12.08.16.07.36-.04.5l-.91,1.26c-.14.19-.12.46.06.63l2.06,1.99c.17.17.44.18.63.03l1.23-.95c.14-.11.34-.13.5-.05.28.13.57.25.87.35.17.06.3.21.32.39l.22,1.54c.03.24.24.41.48.42h2.87c.24.01.44-.16.48-.4l.23-1.54c.03-.18.15-.33.33-.39.34-.11.67-.25.99-.4.16-.08.36-.06.5.05l1.24.94c.19.15.46.13.63-.04l2.04-2.01c.17-.17.19-.44.05-.63l-.92-1.25c-.11-.15-.12-.34-.04-.5.18-.35.33-.71.45-1.08.06-.17.21-.3.39-.32l1.54-.22c.24-.03.41-.24.41-.48v-2.87ZM260.78,102.88c-1.95,0-3.53-1.58-3.53-3.53s1.58-3.53,3.53-3.53,3.53,1.58,3.53,3.53-1.58,3.53-3.53,3.53Z"/><circle class="cls-20" cx="343.9" cy="75.89" r="2.32"/><path class="cls-20" d="M344.83,110.25h-1.85c-.13,0-.23-.1-.23-.23v-31.08h0c.75.25,1.56.25,2.31,0h0s0,31.08,0,31.08c0,.13-.1.23-.23.23Z"/><rect class="cls-20" x="342.76" y="111.27" width="2.3" height="2.3" rx=".19" ry=".19"/><path class="cls-20" d="M346.36,79.12h14.64c2.39,0,4.33,1.94,4.33,4.33v16.39c0,.23-.18.41-.41.41h-18.56c-.23,0-.41-.18-.41-.41v-20.31c0-.23.18-.41.41-.41Z"/><path class="cls-20" d="M378.08,105.7h-7.05c-2.65,0-4.81-2.15-4.81-4.81v-15.91c0-.21.17-.37.37-.37h10.17c2.67,0,4.83,2.16,4.83,4.83v17.5h0c-.15.31-.56.37-.79.13l-.2-.21s-.74-.83-2.52-1.16Z"/><path class="cls-20" d="M491.88,73.57h-26.57c-.45,0-.82.37-.82.82v26.57c0,.45.37.82.82.82h26.57c.45,0,.82-.37.82-.82v-26.57c0-.45-.37-.82-.82-.82ZM484.99,88.2c-.13.13-.32.22-.52.22h-5.18v5.18c0,.41-.33.73-.73.73s-.73-.33-.73-.73v-5.18h-5.18c-.41,0-.73-.33-.73-.73s.33-.73.73-.73h5.18v-5.18c0-.41.33-.73.73-.73.2,0,.39.08.52.22.13.13.22.32.22.52v5.18h5.18c.41,0,.73.33.73.73,0,.2-.08.39-.22.52Z"/><path class="cls-20" d="M462.99,85.46h-9.63c-.42,0-.75.34-.75.75v26.64c0,.39.32.71.71.71h26.87c.35,0,.63-.28.63-.63v-9.75h-15.83c-1.03,0-1.86-.83-1.87-1.86l-.13-15.87Z"/></g></svg>