<?xml version="1.0" encoding="UTF-8"?><svg xmlns="http://www.w3.org/2000/svg" xmlns:xlink="http://www.w3.org/1999/xlink" viewBox="0 0 612 306.87"><defs><style>.cls-1,.cls-2,.cls-3,.cls-4,.cls-5,.cls-6{font-family:D-DINCondensed-Bold, 'D-DIN Condensed';font-weight:700;}.cls-1,.cls-2,.cls-3,.cls-5,.cls-6{font-size:12px;}.cls-1,.cls-7{fill:#05203d;}.cls-2,.cls-8{fill:#057fa0;}.cls-9,.cls-3{fill:#009fbf;}.cls-4{font-size:22.7px;}.cls-4,.cls-10{fill:#231f20;}.cls-11,.cls-12,.cls-13,.cls-14,.cls-15,.cls-16{fill:#fff;}.cls-17{letter-spacing:0em;}.cls-5,.cls-18{fill:#03607f;}.cls-12{filter:url(#drop-shadow-1);}.cls-13{filter:url(#drop-shadow-3);}.cls-14{filter:url(#drop-shadow-2);}.cls-15{filter:url(#drop-shadow-5);}.cls-16{filter:url(#drop-shadow-4);}.cls-19{fill:#f2f1f3;}.cls-6,.cls-20{fill:#013f5b;}.cls-10{font-family:D-DIN, D-DIN;font-size:9px;}.cls-21{letter-spacing:-.07em;}.cls-22{letter-spacing:-.05em;}.cls-23{letter-spacing:-.02em;}.cls-24{letter-spacing:-.02em;}.cls-25{letter-spacing:-.04em;}.cls-26{letter-spacing:-.04em;}.cls-27{letter-spacing:0em;}.cls-28{letter-spacing:.02em;}</style><filter id="drop-shadow-1" x="25.65" y="62.37" width="126.96" height="229.2" filterUnits="userSpaceOnUse"><feOffset dx="5.13" dy="5.13"/><feGaussianBlur result="blur" stdDeviation="5.13"/><feFlood flood-color="#231f20" flood-opacity=".1"/><feComposite in2="blur" operator="in"/><feComposite in="SourceGraphic"/></filter><filter id="drop-shadow-2" x="136.77" y="62.37" width="126.96" height="229.2" filterUnits="userSpaceOnUse"><feOffset dx="5.13" dy="5.13"/><feGaussianBlur result="blur-2" stdDeviation="5.13"/><feFlood flood-color="#231f20" flood-opacity=".1"/><feComposite in2="blur-2" operator="in"/><feComposite in="SourceGraphic"/></filter><filter id="drop-shadow-3" x="247.65" y="62.37" width="126.96" height="229.2" filterUnits="userSpaceOnUse"><feOffset dx="5.13" dy="5.13"/><feGaussianBlur result="blur-3" stdDeviation="5.13"/><feFlood flood-color="#231f20" flood-opacity=".1"/><feComposite in2="blur-3" operator="in"/><feComposite in="SourceGraphic"/></filter><filter id="drop-shadow-4" x="358.77" y="62.37" width="126.96" height="229.2" filterUnits="userSpaceOnUse"><feOffset dx="5.13" dy="5.13"/><feGaussianBlur result="blur-4" stdDeviation="5.13"/><feFlood flood-color="#231f20" flood-opacity=".1"/><feComposite in2="blur-4" operator="in"/><feComposite in="SourceGraphic"/></filter><filter id="drop-shadow-5" x="469.89" y="62.37" width="126.96" height="229.2" filterUnits="userSpaceOnUse"><feOffset dx="5.13" dy="5.13"/><feGaussianBlur result="blur-5" stdDeviation="5.13"/><feFlood flood-color="#231f20" flood-opacity=".1"/><feComposite in2="blur-5" operator="in"/><feComposite in="SourceGraphic"/></filter></defs><g id="BG"><rect class="cls-19" y="-326.99" width="612" height="938.59"/></g><g id="Layer_2"><rect class="cls-12" x="36" y="72.79" width="95.77" height="198.08" rx="5.13" ry="5.13"/><rect class="cls-14" x="147.06" y="72.79" width="95.77" height="198.08" rx="5.13" ry="5.13"/><rect class="cls-13" x="258.12" y="72.79" width="95.77" height="198.08" rx="5.13" ry="5.13"/><rect class="cls-16" x="369.18" y="72.79" width="95.77" height="198.08" rx="5.13" ry="5.13"/><rect class="cls-15" x="480.23" y="72.79" width="95.77" height="198.08" rx="5.13" ry="5.13"/><rect class="cls-7" x="52.23" y="62.79" width="63.3" height="63.3" rx="5" ry="5"/><rect class="cls-20" x="163.29" y="62.79" width="63.3" height="63.3" rx="5" ry="5"/><rect class="cls-18" x="274.35" y="62.79" width="63.3" height="63.3" rx="5" ry="5"/><rect class="cls-8" x="385.41" y="62.79" width="63.3" height="63.3" rx="5" ry="5"/><rect class="cls-9" x="496.47" y="62.79" width="63.3" height="63.3" rx="5" ry="5"/><path class="cls-11" d="M96.17,86.29l1.08-1.08.75.76c.37.37.96.37,1.33,0l.98-.98c.37-.37.37-.96,0-1.33l-3.33-3.33c-.37-.37-.96-.37-1.33,0l-.98.98c-.37.37-.37.96,0,1.33l.81.81-1.15,1.15c-2.46-1.97-5.48-3.25-8.79-3.58v-2.32h1.39c.68,0,1.22-.55,1.22-1.22v-1.8c0-.68-.55-1.22-1.22-1.22h-6.12c-.67,0-1.22.55-1.22,1.22v1.8c0,.67.55,1.22,1.22,1.22h1.48v2.31c-3.31.31-6.33,1.58-8.8,3.54l-1.04-1.04.81-.81c.37-.37.37-.96,0-1.33l-.98-.98c-.37-.37-.96-.37-1.33,0l-3.33,3.33c-.37.37-.37.96,0,1.33l.98.98c.37.37.96.37,1.33,0l.76-.76.97.97c-2.81,3-4.52,7.02-4.52,11.45,0,9.26,7.5,16.76,16.76,16.76s16.76-7.5,16.76-16.76c0-4.4-1.7-8.41-4.47-11.4ZM83.88,111.62c-7.7,0-13.94-6.24-13.94-13.94s6.24-13.94,13.94-13.94,13.94,6.24,13.94,13.94-6.24,13.94-13.94,13.94Z"/><path class="cls-11" d="M93.54,103.42c-1.96,3.29-5.55,5.49-9.65,5.49-6.2,0-11.23-5.03-11.23-11.23s5.03-11.23,11.23-11.23v11.23l9.65,5.74Z"/><path class="cls-11" d="M195.93,98.32l-7.57,7.57c-1.28,1.28-3.35,1.28-4.63,0h0c-1.28-1.28-1.28-3.35,0-4.63l7.57-7.57c-2.39-.73-5.1-.15-6.99,1.74l-3.5,3.5c-2.73,2.73-2.73,7.16,0,9.89h0c2.73,2.73,7.16,2.73,9.89,0l3.5-3.5c1.89-1.89,2.47-4.6,1.74-6.99Z"/><rect class="cls-11" x="192.69" y="84.78" width="4.69" height="19.59" rx="2.35" ry="2.35" transform="translate(124 -110.21) rotate(45)"/><path class="cls-11" d="M209.08,80.53h0c-2.73-2.73-7.16-2.73-9.89,0l-3.5,3.5c-1.89,1.89-2.47,4.6-1.74,6.99l7.76-7.76c1.28-1.28,3.35-1.28,4.63,0h0c1.28,1.28,1.28,3.35,0,4.63l-7.76,7.76c2.39.73,5.1.15,6.99-1.74l3.5-3.5c2.73-2.73,2.73-7.16,0-9.89Z"/><path class="cls-11" d="M320.95,92.95h-16.79c-2.6,0-4.72,2.11-4.72,4.72v6.75c0,2.6,2.11,4.72,4.72,4.72h7.38c.13,0,.26.05.35.14l4.97,4.9c.58.57,1.55.16,1.55-.65v-3.89c0-.28.22-.5.5-.5h2.04c2.6,0,4.72-2.11,4.72-4.72v-6.75c0-2.6-2.11-4.72-4.72-4.72ZM323.79,104.29c0,1.64-1.33,2.96-2.96,2.96h-3.42c-.47,0-.85.38-.86.85l-.02,2.52c0,.21-.26.32-.41.17l-3.21-3.23c-.07-.1-.17-.18-.28-.23-.11-.05-.23-.08-.35-.08h-7.98c-1.64,0-2.96-1.33-2.96-2.96v-6.53c0-1.64,1.33-2.96,2.96-2.96h16.52c1.64,0,2.96,1.33,2.96,2.96v6.53Z"/><rect class="cls-11" x="304.47" y="96.86" width="16.13" height="2" rx="1" ry="1"/><rect class="cls-11" x="307.41" y="100.4" width="10.25" height="1.89" rx=".95" ry=".95"/><path class="cls-11" d="M307.84,74.44h-16.79c-2.6,0-4.72,2.11-4.72,4.72v6.75c0,2.6,2.11,4.72,4.72,4.72h2.04c.28,0,.5.22.5.5v3.89c0,.81.97,1.22,1.55.65l4.97-4.9c.09-.09.22-.14.35-.14h7.38c2.6,0,4.72-2.11,4.72-4.72v-6.75c0-2.6-2.11-4.72-4.72-4.72ZM310.66,85.78c0,1.64-1.33,2.96-2.96,2.96h-7.98c-.12,0-.24.03-.35.08-.11.05-.2.13-.28.23l-3.21,3.23c-.15.15-.41.05-.41-.17l-.02-2.52c0-.47-.39-.85-.86-.85h-3.42c-1.64,0-2.96-1.33-2.96-2.96v-6.53c0-1.64,1.33-2.96,2.96-2.96h16.52c1.64,0,2.96,1.33,2.96,2.96v6.53Z"/><rect class="cls-11" x="291.4" y="78.35" width="16.13" height="2" rx="1" ry="1" transform="translate(598.93 158.7) rotate(-180)"/><rect class="cls-11" x="294.34" y="81.88" width="10.25" height="1.89" rx=".95" ry=".95" transform="translate(598.93 165.66) rotate(-180)"/><path class="cls-11" d="M405.64,95.03h-4.11c-.55,0-1-.45-1-1v-12.75c0-.55.45-1,1-1h6.13v2h-5.13v10.75h3.11v2Z"/><polygon class="cls-11" points="405.06 96.02 408.51 94.03 405.06 92.04 405.06 96.02"/><path class="cls-11" d="M432.59,108.35h-5.11v-2h4.11v-11.32h-5.13v-2h6.13c.55,0,1,.45,1,1v13.32c0,.55-.45,1-1,1Z"/><polygon class="cls-11" points="428.06 105.36 424.61 107.35 428.06 109.34 428.06 105.36"/><path class="cls-11" d="M417.52,100.26l-7.09,7.09,7.09,7.09,7.09-7.09-7.09-7.09ZM413.43,107.31l4.09-4.09,4.09,4.09-4.09,4.09-4.09-4.09Z"/><path class="cls-11" d="M408.51,88.91v10.24h18.01v-10.24h-18.01ZM424.37,96.94h-13.67v-5.88h13.67v5.88Z"/><path class="cls-11" d="M417.52,74.44c-5.45,0-9.86,3.06-9.86,6.83s4.41,6.83,9.86,6.83,9.86-3.06,9.86-6.83-4.41-6.83-9.86-6.83ZM417.52,85.86c-4.22,0-7.64-2.07-7.64-4.62s3.42-4.62,7.64-4.62,7.64,2.07,7.64,4.62-3.42,4.62-7.64,4.62Z"/><path class="cls-11" d="M547.93,111.12l-8.21-8.21c5.35-6.94,4.85-16.93-1.51-23.29-6.9-6.9-18.1-6.9-25.01,0-6.9,6.9-6.9,18.1,0,25.01,6.42,6.42,16.56,6.87,23.5,1.35l8.19,8.19c.37.37.98.37,1.35,0l1.69-1.69c.37-.37.37-.98,0-1.35ZM535.04,101.46c-5.16,5.16-13.51,5.16-18.67,0-5.16-5.16-5.16-13.51,0-18.67,5.16-5.16,13.51-5.16,18.67,0s5.16,13.51,0,18.67Z"/><path class="cls-11" d="M535.57,88.25l-11.33,11.33c-.33.33-.86.33-1.19,0l-2.98-2.98.02-.02-4.24-4.24c-.33-.33-.33-.86,0-1.19l2.38-2.38c.33-.33.86-.33,1.19,0l3.64,3.64c.33.33.86.33,1.19,0l7.73-7.73c.33-.33.86-.33,1.19,0l2.38,2.38c.33.33.33.86,0,1.19Z"/><text class="cls-10" transform="translate(45.85 160.85)"><tspan x="0" y="0">By providing easy </tspan><tspan x="0" y="10.8">access to valuable </tspan><tspan x="0" y="21.6">content, the catalog </tspan><tspan x="0" y="32.4">fosters e</tspan><tspan class="cls-28" x="32.9" y="32.4">f</tspan><tspan x="36.02" y="32.4">ficient </tspan><tspan x="0" y="43.2">coordination and </tspan><tspan x="0" y="54">decreases the need </tspan><tspan x="0" y="64.8">for time-consuming </tspan><tspan x="0" y="75.6">meetings.</tspan></text><text class="cls-10" transform="translate(157.08 160.85)"><tspan class="cls-21" x="0" y="0">T</tspan><tspan x="3.73" y="0">he catalog o</tspan><tspan class="cls-28" x="49.54" y="0">f</tspan><tspan x="52.65" y="0">fers a </tspan><tspan x="0" y="10.8">framework for </tspan><tspan x="0" y="21.6">organizing and </tspan><tspan x="0" y="32.4">linking project </tspan><tspan x="0" y="43.2">deliverables in one </tspan><tspan x="0" y="54">place, including </tspan><tspan x="0" y="64.8">proposed or in </tspan><tspan x="0" y="75.6">development </tspan><tspan x="0" y="86.4">products.</tspan></text><text class="cls-10" transform="translate(268.04 160.85)"><tspan x="0" y="0">Communicate </tspan><tspan x="0" y="10.8">development plans, </tspan><tspan x="0" y="21.6">release dates, and </tspan><tspan x="0" y="32.4">collaborate to </tspan><tspan x="0" y="43.2">prevent redundant </tspan><tspan x="0" y="54">work.</tspan></text><text class="cls-10" transform="translate(379.1 160.85)"><tspan class="cls-21" x="0" y="0">T</tspan><tspan x="3.73" y="0">he catalog </tspan><tspan x="0" y="10.8">provides a fl</tspan><tspan class="cls-27" x="45.29" y="10.8">e</tspan><tspan x="49.72" y="10.8">xible </tspan><tspan x="0" y="21.6">way for you to </tspan><tspan x="0" y="32.4">create use cases </tspan><tspan x="0" y="43.2">that </tspan><tspan class="cls-27" x="17.24" y="43.2">e</tspan><tspan x="21.68" y="43.2">xplain how to </tspan><tspan x="0" y="54">best utilize your </tspan><tspan x="0" y="64.8">data and tools.</tspan></text><text class="cls-10" transform="translate(490.16 160.85)"><tspan class="cls-21" x="0" y="0">T</tspan><tspan x="3.73" y="0">he search and </tspan><tspan x="0" y="10.8">filter capabilities </tspan><tspan x="0" y="21.6">allow users to </tspan><tspan x="0" y="32.4">easily discover and </tspan><tspan x="0" y="43.2">access relevant </tspan><tspan x="0" y="54">data, tools and use </tspan><tspan x="0" y="64.8">cases. </tspan></text><text class="cls-1" transform="translate(63.36 144.51)"><tspan x="0" y="0">S</tspan><tspan class="cls-23" x="5.11" y="0">A</tspan><tspan x="10.69" y="0">VE TIME</tspan></text><text class="cls-6" transform="translate(166.86 144.54)"><tspan x="0" y="0">CONNECTIONS</tspan></text><text class="cls-5" transform="translate(271.98 144.5)"><tspan x="0" y="0">COMMUNIC</tspan><tspan class="cls-25" x="44.33" y="0">A</tspan><tspan x="49.63" y="0">TION</tspan></text><text class="cls-2" transform="translate(396.37 144.43)"><tspan x="0" y="0">EXAMPLES</tspan></text><text class="cls-3" transform="translate(494.25 144.52)"><tspan x="0" y="0">SEARCH &amp; FI</tspan><tspan class="cls-22" x="49.47" y="0">L</tspan><tspan x="53.24" y="0">TER</tspan></text><rect class="cls-7" x="46.01" y="257.87" width="75.63" height="3" rx="1.5" ry="1.5"/><rect class="cls-20" x="157.13" y="257.87" width="75.63" height="3" rx="1.5" ry="1.5"/><rect class="cls-18" x="268.18" y="257.87" width="75.63" height="3" rx="1.5" ry="1.5"/><rect class="cls-8" x="379.24" y="257.87" width="75.63" height="3" rx="1.5" ry="1.5"/><rect class="cls-9" x="490.3" y="257.87" width="75.63" height="3" rx="1.5" ry="1.5"/><text class="cls-4" transform="translate(48.17 51.87)"><tspan x="0" y="0">WHY CONTRIBUTE TO THE WMA INTEGR</tspan><tspan class="cls-26" x="287.53" y="0">A</tspan><tspan x="297.57" y="0">TED D</tspan><tspan class="cls-26" x="339.44" y="0">AT</tspan><tspan class="cls-17" x="356.87" y="0">A &amp; TOOLS C</tspan><tspan class="cls-26" x="449.71" y="0">AT</tspan><tspan x="467.14" y="0">A</tspan><tspan class="cls-24" x="478.15" y="0">L</tspan><tspan x="485.96" y="0">OG?</tspan></text></g></svg>