<?xml version="1.0" encoding="UTF-8"?><svg id="skaetboard" xmlns="http://www.w3.org/2000/svg" viewBox="0 0 163.26 211.68"><defs><style>.cls-1{stroke-width:3px;}.cls-1,.cls-2,.cls-3,.cls-4,.cls-5,.cls-6,.cls-7{stroke:#231f20;}.cls-1,.cls-2,.cls-3,.cls-4,.cls-6{stroke-miterlimit:10;}.cls-1,.cls-5{fill:none;}.cls-8{fill:#fff;}.cls-9{fill:#231f20;}.cls-2{fill:#3eb652;}.cls-2,.cls-3,.cls-5,.cls-7{stroke-width:2px;}.cls-3,.cls-4,.cls-6,.cls-7{fill:#79d1f1;}.cls-4{stroke-width:.25px;}.cls-5{stroke-linecap:round;}.cls-5,.cls-7{stroke-linejoin:round;}</style></defs><g><rect class="cls-4" x="118.62" y="144.93" width="6.61" height=".56" rx=".28" ry=".28" transform="translate(-59.55 90.27) rotate(-33.14)"/><rect class="cls-4" x="119.32" y="146.06" width="6.61" height=".56" rx=".28" ry=".28" transform="translate(-60.05 90.84) rotate(-33.14)"/><rect class="cls-4" x="120.03" y="147.19" width="6.61" height=".56" rx=".28" ry=".28" transform="translate(-60.56 91.4) rotate(-33.14)"/><rect class="cls-4" x="120.74" y="148.33" width="6.61" height=".56" rx=".28" ry=".28" transform="translate(-61.06 91.98) rotate(-33.14)"/><rect class="cls-4" x="121.45" y="149.47" width="6.61" height=".56" rx=".28" ry=".28" transform="translate(-61.57 92.55) rotate(-33.14)"/><rect class="cls-4" x="122.11" y="150.53" width="6.61" height=".56" rx=".28" ry=".28" transform="translate(-62.05 93.09) rotate(-33.14)"/><rect class="cls-4" x="122.84" y="151.71" width="6.61" height=".56" rx=".28" ry=".28" transform="translate(-62.57 93.68) rotate(-33.14)"/><rect class="cls-4" x="118.19" y="144.33" width="6.78" height=".64" rx=".32" ry=".32" transform="translate(-66.63 127.83) rotate(-44.85)"/><rect class="cls-4" x="118.9" y="145.47" width="6.78" height=".64" rx=".32" ry=".32" transform="translate(-67.22 128.66) rotate(-44.85)"/><rect class="cls-4" x="119.62" y="146.62" width="6.78" height=".64" rx=".32" ry=".32" transform="translate(-67.83 129.51) rotate(-44.85)"/><rect class="cls-4" x="120.3" y="147.71" width="6.78" height=".64" rx=".32" ry=".32" transform="translate(-68.4 130.3) rotate(-44.85)"/><rect class="cls-4" x="120.99" y="148.83" width="6.78" height=".64" rx=".32" ry=".32" transform="translate(-68.98 131.12) rotate(-44.85)"/><rect class="cls-4" x="121.7" y="149.96" width="6.78" height=".64" rx=".32" ry=".32" transform="translate(-69.58 131.94) rotate(-44.85)"/><rect class="cls-4" x="122.43" y="151.13" width="6.78" height=".64" rx=".32" ry=".32" transform="translate(-70.19 132.8) rotate(-44.85)"/><rect class="cls-4" x="123.16" y="152.3" width="6.78" height=".64" rx=".32" ry=".32" transform="translate(-70.8 133.65) rotate(-44.85)"/><rect class="cls-4" x="116.84" y="142.17" width="6.78" height=".64" rx=".32" ry=".32" transform="translate(-57.17 85.16) rotate(-31.93)"/><rect class="cls-4" x="117.18" y="142.71" width="6.78" height=".64" rx=".32" ry=".32" transform="translate(-57.4 85.41) rotate(-31.93)"/><rect class="cls-4" x="117.52" y="143.25" width="6.78" height=".64" rx=".32" ry=".32" transform="translate(-57.64 85.67) rotate(-31.93)"/><rect class="cls-4" x="123.75" y="153.26" width="6.78" height=".64" rx=".32" ry=".32" transform="translate(-61.99 90.49) rotate(-31.93)"/><rect class="cls-4" x="124.09" y="153.8" width="6.78" height=".64" rx=".32" ry=".32" transform="translate(-62.22 90.75) rotate(-31.93)"/><rect class="cls-4" x="124.43" y="154.34" width="6.78" height=".64" rx=".32" ry=".32" transform="translate(-62.46 91.01) rotate(-31.93)"/></g><g><rect class="cls-4" x="38.62" y="144.56" width="6.61" height=".56" rx=".28" ry=".28" transform="translate(-2.15 289.05) rotate(-146.86)"/><rect class="cls-4" x="37.92" y="145.69" width="6.61" height=".56" rx=".28" ry=".28" transform="translate(-4.05 290.74) rotate(-146.86)"/><rect class="cls-4" x="37.22" y="146.82" width="6.61" height=".56" rx=".28" ry=".28" transform="translate(-5.96 292.42) rotate(-146.86)"/><rect class="cls-4" x="36.51" y="147.96" width="6.61" height=".56" rx=".28" ry=".28" transform="translate(-7.89 294.13) rotate(-146.86)"/><rect class="cls-4" x="35.8" y="149.1" width="6.61" height=".56" rx=".28" ry=".28" transform="translate(-9.82 295.84) rotate(-146.86)"/><rect class="cls-4" x="35.13" y="150.16" width="6.61" height=".56" rx=".28" ry=".28" transform="translate(-11.62 297.43) rotate(-146.86)"/><rect class="cls-4" x="34.4" y="151.34" width="6.61" height=".56" rx=".28" ry=".28" transform="translate(-13.61 299.19) rotate(-146.86)"/><rect class="cls-4" x="38.89" y="143.96" width="6.78" height=".64" rx=".32" ry=".32" transform="translate(-29.5 276.38) rotate(-135.15)"/><rect class="cls-4" x="38.18" y="145.09" width="6.78" height=".64" rx=".32" ry=".32" transform="translate(-31.51 277.82) rotate(-135.15)"/><rect class="cls-4" x="37.46" y="146.25" width="6.78" height=".64" rx=".32" ry=".32" transform="translate(-33.55 279.29) rotate(-135.15)"/><rect class="cls-4" x="36.78" y="147.34" width="6.78" height=".64" rx=".32" ry=".32" transform="translate(-35.48 280.67) rotate(-135.15)"/><rect class="cls-4" x="36.08" y="148.46" width="6.78" height=".64" rx=".32" ry=".32" transform="translate(-37.46 282.09) rotate(-135.15)"/><rect class="cls-4" x="35.38" y="149.59" width="6.78" height=".64" rx=".32" ry=".32" transform="translate(-39.46 283.52) rotate(-135.15)"/><rect class="cls-4" x="34.65" y="150.76" width="6.78" height=".64" rx=".32" ry=".32" transform="translate(-41.54 285.02) rotate(-135.15)"/><rect class="cls-4" x="33.92" y="151.93" width="6.78" height=".64" rx=".32" ry=".32" transform="translate(-43.61 286.5) rotate(-135.15)"/><rect class="cls-4" x="40.23" y="141.8" width="6.78" height=".64" rx=".32" ry=".32" transform="translate(5.47 285.8) rotate(-148.07)"/><rect class="cls-4" x="39.9" y="142.34" width="6.78" height=".64" rx=".32" ry=".32" transform="translate(4.57 286.62) rotate(-148.07)"/><rect class="cls-4" x="39.56" y="142.88" width="6.78" height=".64" rx=".32" ry=".32" transform="translate(3.66 287.44) rotate(-148.07)"/><rect class="cls-4" x="33.32" y="152.89" width="6.78" height=".64" rx=".32" ry=".32" transform="translate(-13.16 302.64) rotate(-148.07)"/><rect class="cls-4" x="32.99" y="153.42" width="6.78" height=".64" rx=".32" ry=".32" transform="translate(-14.07 303.46) rotate(-148.07)"/><rect class="cls-4" x="32.65" y="153.96" width="6.78" height=".64" rx=".32" ry=".32" transform="translate(-14.98 304.28) rotate(-148.07)"/></g><line class="cls-1" x1="113.71" y1="150.74" x2="132.02" y2="162.73"/><line class="cls-1" x1="30.57" y1="162.72" x2="49.81" y2="150.74"/><path class="cls-2" d="M132.94,136.24c-1.03-.97-2.63-1.04-3.83-.29-2.36,1.47-5.16,2.8-7.54,3.82-3.17,1.36-6.57,2.07-10.01,2.07H51.78c-2.59,0-5.17-.38-7.63-1.18-3.1-1-7.36-2.66-10.87-5.06-1.36-.93-3.28-.64-4.17,.74-.81,1.27-.52,2.89,.61,3.81,3.05,2.49,9.86,7.32,17.61,8.1,.68,.07,1.36,.08,2.05,.08h63.97c2.34,0,4.69-.28,6.93-.97,5.53-1.69,9.88-4.47,12.41-6.36,1.52-1.14,1.68-3.4,.24-4.75Z"/><g><path class="cls-9" d="M159.15,186.67h-.3c-.89-2.38-2.61-4.35-4.82-5.54h0s0-.96,0-.96c0-1.99-1.54-3.64-3.53-3.77l-13.5-.9c-2.18-.14-4.03,1.58-4.03,3.77v.61h-4.47v-.13c0-2.04-1.65-3.7-3.7-3.7h-9.43c-2.04,0-3.7,1.65-3.7,3.7v.13h-6.86c0-2.11-1.71-3.83-3.83-3.83h-14.81c-2.11,0-3.83,1.71-3.83,3.83h-4.62c0-2.11-1.71-3.83-3.83-3.83h-13.4c-2.11,0-3.83,1.71-3.83,3.83h-7.5c0-2.11-1.71-3.83-3.83-3.83h-9.65c-2.11,0-3.83,1.71-3.83,3.83h-5.13c-.03-2.8-2.49-4.96-5.28-4.61l-11.42,1.42c-2.35,.29-4.12,2.29-4.12,4.66v2.05h.01c-1.62,1.83-2.62,4.24-2.62,6.88v-1.26h-.1c-1.78,0-3.21,1.44-3.21,3.21v4.39c0,1.78,1.44,3.21,3.21,3.21h.1v11.83H159.51v-9.56c2.1-.19,3.75-1.93,3.75-4.08v-7.27c0-2.27-1.84-4.11-4.11-4.11Z"/><path class="cls-8" d="M13.81,182.69H148.88c4.36,0,7.89,3.54,7.89,7.89v18.36H5.92v-18.36c0-4.36,3.54-7.89,7.89-7.89Z"/></g><g><path class="cls-7" d="M134.07,73.22l-7.29-4.08c-.86-.48-1.91-.5-2.78-.03l-2.51,1.33c-.82,.44-1.78,.56-2.68,.33-3.47-.87-12.39-3.57-17.6-9.37-1.13-1.26-1.35-3.1-.61-4.63,0,0,9.94-13.9,11.46-20.33,0,0-.75-.05-1.93-.31,1.05,.19,2.13,.31,3.23,.31,9.78,0,17.72-7.93,17.72-17.72S123.14,1,113.36,1s-17.72,7.93-17.72,17.72c0,5.95,.59,9.2,5.09,12.41-2.16-1.48-3.5-3.63-4-4.6,0,0-17.49,2.07-18.46,16.66-.03,.38-.02,.76,0,1.14,.34,4.63,4.34,31.84,50.99,37.33,1.56,.18,3.15-.2,4.4-1.14,1.21-.91,2.36-2.32,2.25-4.4-.07-1.22-.79-2.3-1.86-2.9Z"/><path class="cls-3" d="M61.37,71.93c.49-.46,.46-1.27,.45-1.94-.05-1.84,.37-6.53,5.26-10.66,2.35-1.99,4.46-4.24,6.11-6.85,1.85-2.91,4.07-6.43,5.1-8.16,0,0-1.34-8.57,9.09-14.55,0,0-23.52,11.15-34.14,33.58l-3.4,4.83c-.92,1.31-1.01,3.03-.21,4.42,0,0,3.96,6.67,11.75-.68Z"/><path class="cls-3" d="M70.45,56.07s-4.71,16.11-5.77,29.41c0,0-1.7,11.81-6.28,12.87h-22.26c-.18,0-.36-.02-.54-.04-1.22-.17-6.58-.52-6.82,5.96-.05,1.49-.25,2.97-.54,4.43-.55,2.8-1.34,7.12-1.58,10.23-.11,1.36,.68,2.62,1.94,3.13,2.84,1.14,8.08,1.37,11.7-9.5,.35-1.05,1.32-1.77,2.42-1.79l17.85-.26c2.65-.04,5.27-.66,7.62-1.89,4.84-2.53,11.49-8.42,13.82-22,.1-.58,.8-.82,1.22-.41,2.59,2.53,9.38,9.89,10.54,18.42,.14,1.05,.11,2.12-.05,3.16l-4.37,28.85s-2.65,7.91,22.1,4.21c1.5-.22,2.5-1.66,2.21-3.14-.56-2.82-2.65-6.8-9.88-6.96-.98-.02-1.68-.97-1.44-1.92l4.55-18.3c.15-.6,.25-1.2,.31-1.81,.28-3.02,.73-12.21-3.35-19.54-.57-1.03-1.29-1.97-2.04-2.87-1.78-2.14-5.92-7.96-4.61-14.59,0,0-16.65-8.72-18.93-27.4,0,0-3.08,5.41-5.1,8.16l-2.74,3.59Z"/><path class="cls-5" d="M93.13,43.25s-1.72,11.45,8.08,18.14"/></g><g><g><path class="cls-6" d="M43.23,169.53l-.38-.27c.3-.56,.55-1.12,.77-1.7l.45,.1c.08,.02,.16-.03,.18-.11l.74-3.22c.02-.08-.03-.16-.11-.18l-.45-.1c.06-.61,.08-1.22,.05-1.82l.46-.08c.08-.01,.13-.09,.12-.17l-.55-3.26c-.01-.08-.09-.13-.17-.12l-.46,.08c-.18-.58-.39-1.15-.64-1.71l.39-.25c.07-.04,.09-.13,.05-.2l-1.75-2.81c-.04-.07-.13-.09-.2-.05l-.39,.24c-.41-.5-.86-.98-1.35-1.42l.27-.38c.05-.07,.03-.16-.04-.2l-2.7-1.9c-.07-.05-.16-.03-.2,.04l-.27,.38c-.53-.28-1.07-.52-1.61-.73l.1-.45c.02-.08-.03-.16-.11-.18l-3.22-.74c-.08-.02-.16,.03-.18,.11l-.1,.45c-.66-.06-1.31-.08-1.97-.05l-.08-.46c-.01-.08-.09-.13-.17-.12l-3.25,.57c-.08,.01-.13,.09-.12,.17l.08,.46c-.58,.18-1.14,.4-1.7,.66l-.25-.39c-.04-.07-.13-.09-.2-.05l-2.79,1.77c-.07,.04-.09,.13-.05,.2l.25,.39c-.49,.41-.96,.86-1.4,1.34l-.38-.27c-.07-.05-.16-.03-.2,.04l-1.89,2.71c-.05,.07-.03,.16,.04,.2l.38,.27c-.3,.57-.55,1.16-.76,1.75l-.45-.1c-.08-.02-.16,.03-.17,.11l-.69,3.23c-.02,.08,.03,.16,.11,.17l.45,.1c-.05,.6-.06,1.21-.03,1.81l-.46,.08c-.08,.01-.13,.09-.12,.17l.59,3.25c.01,.08,.09,.13,.17,.12l.46-.08c.18,.56,.39,1.1,.64,1.63l-.39,.25c-.07,.04-.09,.13-.05,.2l1.77,2.79c.04,.07,.13,.09,.2,.05l.39-.25c.39,.47,.82,.92,1.29,1.35l-.27,.38c-.05,.07-.03,.16,.04,.2l2.7,1.9c.07,.05,.16,.03,.2-.04l.27-.38c.54,.28,1.09,.53,1.65,.74l-.1,.45c-.02,.08,.03,.16,.11,.18l3.22,.73c.08,.02,.16-.03,.18-.11l.1-.45c.6,.06,1.2,.08,1.8,.05l.08,.46c.01,.08,.09,.13,.17,.12l3.26-.54c.08-.01,.13-.09,.12-.17l-.08-.46c.59-.18,1.17-.4,1.74-.66l.25,.39c.04,.07,.13,.09,.2,.05l2.8-1.75c.07-.04,.09-.13,.05-.2l-.25-.39c.48-.39,.93-.82,1.36-1.29l.38,.27c.07,.05,.16,.03,.2-.03l1.92-2.69c.05-.07,.03-.16-.03-.2Z"/><circle class="cls-9" cx="30.57" cy="162.72" r="9.05"/><circle class="cls-8" cx="30.57" cy="162.72" r="5.97"/><path class="cls-9" d="M32.32,164.92l2.4,2.1s1.32-.74,1.48-2.3l-2.9-1.34h0c.08-.32,.1-.66,.06-.99,0,0,0,0,0,0l3.05-.93s-.02-1.5-1.17-2.47l-2.67,1.75s0,0,0,0c-.12-.12-.24-.23-.38-.33-.19-.13-.38-.23-.59-.31,0,0,0,0,0,0l.73-3.28s-1.29-.44-2.73-.14l.17,3.33s0,0,0,0c-.41,.12-.79,.33-1.11,.62,0,0,0,0,0,0l-2.54-1.93s-1.3,.82-1.32,2.39l2.98,1.14s0,0,0,0c-.05,.31-.06,.63,0,.94,0,0,0,0,0,0l-2.99,1.09s-.05,1.64,1.3,2.4l2.57-1.89s0,0,0,0c.09,.08,.18,.15,.27,.22,.17,.12,.36,.22,.54,.3,0,0,0,0,0,0l-.68,3.11s1.29,.91,2.73,.18l-.23-3.18c.36-.1,.7-.27,1.01-.51,0,0,0,0,0,0Z"/></g><g><path class="cls-6" d="M145.64,158.15l-.46,.09c-.2-.6-.44-1.17-.72-1.73l.38-.26c.07-.05,.08-.14,.04-.2l-1.84-2.74c-.05-.07-.14-.08-.2-.04l-.39,.26c-.4-.46-.84-.89-1.29-1.29l.26-.39c.04-.07,.03-.16-.04-.2l-2.75-1.83c-.07-.04-.16-.03-.2,.04l-.26,.39c-.54-.27-1.11-.5-1.68-.7l.09-.45c.02-.08-.04-.16-.11-.17l-3.24-.65c-.08-.02-.16,.04-.17,.11l-.09,.45c-.65-.04-1.3-.04-1.96,0l-.09-.46c-.02-.08-.09-.13-.17-.11l-3.24,.67c-.08,.02-.13,.09-.11,.17l.09,.46c-.56,.19-1.11,.42-1.63,.68l-.26-.38c-.04-.07-.14-.09-.2-.04l-2.75,1.84c-.07,.04-.09,.14-.04,.2l.26,.39c-.5,.43-.96,.9-1.38,1.4l-.39-.26c-.07-.04-.16-.03-.2,.04l-1.81,2.76c-.04,.07-.03,.16,.04,.2l.39,.25c-.26,.54-.49,1.11-.68,1.69l-.46-.09c-.08-.02-.16,.04-.17,.12l-.62,3.24c-.02,.08,.04,.16,.12,.17l.45,.09c-.04,.64-.03,1.29,.02,1.94l-.46,.1c-.08,.02-.13,.09-.11,.17l.69,3.23c.02,.08,.09,.13,.17,.11l.45-.1c.21,.61,.47,1.19,.75,1.75l-.38,.26c-.07,.05-.08,.14-.04,.2l1.88,2.72c.05,.07,.14,.08,.2,.04l.38-.26c.41,.45,.84,.87,1.3,1.26l-.25,.39c-.04,.07-.02,.16,.04,.2l2.77,1.8c.07,.04,.16,.02,.2-.04l.25-.39c.53,.25,1.07,.47,1.62,.65l-.09,.46c-.02,.08,.04,.16,.12,.17l3.24,.62c.08,.02,.16-.04,.17-.12l.09-.45c.61,.04,1.24,.03,1.86-.02l.09,.46c.02,.08,.09,.13,.17,.11l3.24-.67c.08-.02,.13-.09,.11-.17l-.09-.46c.58-.2,1.14-.43,1.67-.7l.26,.38c.05,.07,.14,.08,.2,.04l2.74-1.85c.07-.05,.08-.14,.04-.2l-.26-.39c.45-.4,.88-.83,1.27-1.28l.39,.26c.07,.04,.16,.03,.2-.04l1.84-2.75c.04-.07,.03-.16-.04-.2l-.39-.26c.27-.55,.51-1.13,.71-1.72l.46,.09c.08,.02,.16-.04,.17-.12l.64-3.24c.02-.08-.04-.16-.12-.17l-.45-.09c.04-.62,.04-1.24,0-1.87l.46-.09c.08-.02,.13-.09,.11-.17l-.65-3.24c-.02-.08-.09-.13-.17-.11Z"/><circle class="cls-9" cx="132.02" cy="162.73" r="9.05"/><circle class="cls-8" cx="132.02" cy="162.73" r="5.97"/><path class="cls-9" d="M134.81,162.96l3.17-.32s.37-1.47-.67-2.65l-2.96,1.2h0c-.18-.28-.42-.52-.68-.72,0,0,0,0,0,0l1.41-2.86s-1.11-1.01-2.6-.84l-.55,3.14s0,0,0,0c-.17,0-.33,.02-.5,.05-.22,.05-.43,.12-.63,.21,0,0,0,0,0,0l-1.89-2.78s-1.2,.64-1.97,1.89l2.54,2.15s0,0,0,0c-.19,.38-.3,.8-.31,1.24,0,0,0,0,0,0l-3.14,.53s-.29,1.5,.84,2.6l2.87-1.39s0,0,0,0c.19,.25,.42,.47,.69,.65,0,0,0,0,0,0l-1.25,2.93s1.17,1.16,2.64,.69l.38-3.17s0,0,0,0c.12,0,.23-.02,.35-.05,.21-.04,.4-.11,.59-.19,0,0,0,0,0,0l1.81,2.63s1.54-.32,2-1.86l-2.47-2.01c.18-.33,.28-.7,.31-1.08,0,0,0,0,0,0Z"/></g></g><rect class="cls-9" x="47.33" y="148.32" width="69.11" height="4.83"/></svg>