<?xml version="1.0" encoding="UTF-8"?><svg id="bike" xmlns="http://www.w3.org/2000/svg" viewBox="0 0 213.89 201.76"><defs><style>.cls-1,.cls-2{fill:#fff;}.cls-3{fill:#231f20;}.cls-2,.cls-4{stroke-miterlimit:10;}.cls-2,.cls-4,.cls-5,.cls-6{stroke:#231f20;stroke-width:2px;}.cls-4{fill:#43b653;}.cls-5{fill:none;stroke-linecap:round;}.cls-5,.cls-6{stroke-linejoin:round;}.cls-6{fill:#79d1f1;}</style></defs><circle class="cls-4" cx="68.62" cy="89.84" r="3.77"/><path class="cls-4" d="M35.08,130.36h13.79v3.49h-13.79c-.96,0-1.75-.78-1.75-1.75h0c0-.96,.78-1.75,1.75-1.75Z"/><path class="cls-4" d="M64,130.36h13.79v3.49h-13.79c-.96,0-1.75-.78-1.75-1.75h0c0-.96,.78-1.75,1.75-1.75Z" transform="translate(140.05 264.21) rotate(-180)"/><path class="cls-4" d="M92.35,74.74h-13.18c-1.55,0-2.99-.82-3.79-2.15l-1.59-2.68h25.98l-7.43,4.83Z"/><path class="cls-4" d="M165.66,66.27l-20.46,5.72-52.85,2.75h-7.3l-32.31,47.45,47.86,6.08,47.05-49.48,13.65,42.04,2.43-1.35-9.12-43.78,12.63-4.5,5.92,4.64c.88,.69,2.13,.66,2.98-.08h0c1.02-.89,1.07-2.44,.12-3.41-1.94-1.97-5.39-4.96-9.32-6.1-.41-.12-.86-.11-1.27,.01ZM58.15,120.43l27.58-36.77,11.9,38.26-39.47-1.49Zm44.07,1.49l-11.36-41.91,50.83-2.97-39.47,44.88Z"/><circle class="cls-2" cx="102.22" cy="121.23" r="7.04"/><rect class="cls-4" x="92.48" y="109.93" width="16.78" height="5.76" transform="translate(18.43 -14.1) rotate(8.79)"/><g><path class="cls-6" d="M169.04,73.32c-1.28-1.89-3.98-4.74-8.79-5.14,0,0-19.08-.21-33.56-31.42,0,0-.34-.19-.87-.54,3.02,1.99,6.64,3.16,10.53,3.16,10.59,0,19.18-8.59,19.18-19.18S146.95,1,136.35,1s-19.18,8.59-19.18,19.18c0,1.2,.12,2.38,.34,3.52-.03-.17-.07-.33-.1-.5,0,0-8.23,.43-5.34,8.19,0,0,8.67,31.92,26.91,38.16,0,0,11.27,4.41,15.63,6.16,.62,.25,1.18,.59,1.68,1.03l3.7,3.2c.79,.68,1.86,.91,2.86,.61,1.7-.51,4.3-1.58,6-3.63,.84-1.02,.94-2.49,.19-3.59Z"/><path class="cls-6" d="M117.41,23.2s-43.06-1.78-51.5,31c0,0-3.02,16.89,11.67,15.89l25.54-.8s7.09-.74,3.37,5.22l-15.41,28.01s-2.25,5.4,4.72,6.19l11.6,1.84c2.88,.46,5.74-1.38,6.25-4.25,.33-1.87-.37-3.99-3.77-5.77-.6-.32-1.27-.52-1.94-.59l-4.03-.46s-2.92-1.75,.27-4.61c.66-.59,1.31-1.19,1.89-1.86,2.93-3.35,11.21-13.03,14.15-18.73,0,0,6.57-13.71-10.95-21.65-.68-.31-.75-1.26-.1-1.64,2.05-1.21,5.76-3.28,8.77-4.37,0,0-4.57-10.33-5.87-15.24,0,0-3.31-6.97,5.34-8.19Z"/><path class="cls-5" d="M109.26,52.63s-8.4-3.72-18.97-5.2"/></g><g><path class="cls-3" d="M209.85,177.62v.93c0-2.92-1.29-5.53-3.33-7.32v-2.2c0-2.12-1.67-3.88-3.79-3.98l-14.31-.72c-2.28-.12-4.19,1.7-4.19,3.98v.51h-4.62v-1.84c0-1.58-1.28-2.86-2.86-2.86h-16.15c-1.58,0-2.86,1.28-2.86,2.86v1.84h-5.12v-1.84c0-1.58-1.28-2.86-2.86-2.86h-16.15c-1.58,0-2.86,1.28-2.86,2.86v1.84h-4.99v-1.84c0-1.58-1.28-2.86-2.86-2.86h-16.15c-1.58,0-2.86,1.28-2.86,2.86v1.84h-5.22v-1.84c0-1.58-1.28-2.86-2.86-2.86h-16.15c-1.58,0-2.86,1.28-2.86,2.86v1.84h-4.98v-1.49c0-1.39-1.12-2.51-2.51-2.51h-16.75c-1.39,0-2.51,1.12-2.51,2.51v1.49h-5.2v-.82c0-2.14-1.74-3.88-3.88-3.88h-14.06c-2.14,0-3.88,1.74-3.88,3.88v.82h-5.07l-2.26-2.99c-1.27-1.68-3.57-2.21-5.39-1.19C2.97,168.76,.68,174.39,.05,178.41c-.38,2.45,1.36,4.64,3.73,4.92v18.43H209.85v-10.16l2.7-2.42c.85-.77,1.34-1.86,1.34-3.01v-4.5c0-2.23-1.81-4.04-4.04-4.04Z"/><path class="cls-1" d="M13.84,171.6H199.51c3.87,0,7.01,3.14,7.01,7.01v20.56H6.83v-20.56c0-3.87,3.14-7.01,7.01-7.01Z"/></g><path class="cls-6" d="M64.32,130.32c0,4.84-3.92,8.76-8.76,8.76s-8.76-3.92-8.76-8.76h17.52Z"/><rect class="cls-3" x="45.71" y="119.91" width="19.7" height="4.71" rx="2.36" ry="2.36"/><circle class="cls-4" cx="55.56" cy="133.13" r="3.03"/><path class="cls-4" d="M37.56,59.38h13.79v3.49h-13.79c-.96,0-1.75-.78-1.75-1.75h0c0-.96,.78-1.75,1.75-1.75Z" transform="translate(104.72 17.55) rotate(90)"/><path class="cls-4" d="M37.56,88.31h13.79v3.49h-13.79c-.96,0-1.75-.78-1.75-1.75h0c0-.96,.78-1.75,1.75-1.75Z" transform="translate(-46.47 133.64) rotate(-90)"/><path class="cls-6" d="M45.37,84.35c-4.84,0-8.76-3.92-8.76-8.76s3.92-8.76,8.76-8.76v17.52Z"/><circle class="cls-4" cx="42.55" cy="75.59" r="3.03"/><rect class="cls-3" x="53.71" y="123.17" width="3.69" height="7.14"/><rect class="cls-3" x="33.08" y="143.86" width="17.52" height="2.13" rx="1.06" ry="1.06" transform="translate(186.76 103.09) rotate(90)"/><rect class="cls-3" x="61.27" y="143.86" width="17.52" height="2.13" rx="1.06" ry="1.06" transform="translate(214.95 74.9) rotate(90)"/><rect class="cls-3" x="46.77" y="150.12" width="17.58" height="2.13" rx="1.06" ry="1.06" transform="translate(206.74 95.63) rotate(90)"/><rect class="cls-3" x="139.22" y="143.86" width="17.52" height="2.13" rx="1.06" ry="1.06" transform="translate(292.91 -3.06) rotate(90)"/><rect class="cls-3" x="167.41" y="143.86" width="17.52" height="2.13" rx="1.06" ry="1.06" transform="translate(321.09 -31.24) rotate(90)"/><rect class="cls-3" x="153.28" y="150.12" width="17.58" height="2.13" rx="1.06" ry="1.06" transform="translate(313.25 -10.88) rotate(90)"/><rect class="cls-3" x="19.09" y="60.07" width="17.52" height="2.13" rx="1.06" ry="1.06"/><rect class="cls-3" x="19.09" y="88.78" width="17.52" height="2.13" rx="1.06" ry="1.06"/><rect class="cls-3" x="2.86" y="74.42" width="29.3" height="2.13" rx="1.06" ry="1.06"/><path class="cls-4" d="M141.59,129.83h13.79v3.49h-13.79c-.96,0-1.75-.78-1.75-1.75h0c0-.96,.78-1.75,1.75-1.75Z"/><path class="cls-4" d="M170.51,129.83h13.79v3.49h-13.79c-.96,0-1.75-.78-1.75-1.75h0c0-.96,.78-1.75,1.75-1.75Z" transform="translate(353.07 263.15) rotate(180)"/><path class="cls-6" d="M170.83,129.79c0,4.84-3.92,8.76-8.76,8.76s-8.76-3.92-8.76-8.76h17.52Z"/><rect class="cls-3" x="152.22" y="119.39" width="19.7" height="4.71" rx="2.36" ry="2.36"/><circle class="cls-4" cx="162.07" cy="132.61" r="3.03"/><rect class="cls-3" x="160.22" y="122.65" width="3.69" height="7.14"/><polygon class="cls-4" points="75.41 82.28 63.16 99.48 73.79 105.51 84.7 89.04 75.41 82.28"/><line class="cls-4" x1="65.72" y1="87.43" x2="49.62" y2="75.23"/><path class="cls-3" d="M46.26,66.83h2.8c1.65,0,3,1.34,3,3v11.53c0,1.65-1.34,3-3,3h-2.8v-17.52h0Z"/></svg>